<svg xmlns="http://www.w3.org/2000/svg" viewBox="0 0 50 50"><path fill="#231f20" d="M43.24 20.06h-2.01v-4.5c0-4.41-3.58-8-7.99-8-3.01 0-5.64 1.68-7 4.15V7.5c0-.93-.49-2.12-1.58-2.68-1.77-.78-5.21-.13-8.19 2.54-.43-.05-.88 0-1.32.18-1.53.62-2.69 3.15-2.2 5.78-.84.1-1.71.35-2.58.75-3.09 1.44-2.27 5.79-2.14 6.21-.02.03-2.41 3.47-1.1 6.27.14.3.33.58.55.85-1.39 1.38-1.67 3.29-1.17 4.55.6 1.82 2.1 3.23 3.05 3.24-.52 1.85 0 3.81 1.36 5.21.82.99 2.06 1.61 3.48 1.65.7 2.09 2.77 3.44 5.04 3.44.36 0 .72-.03 1.08-.1 5.56-.65 5.74-4.63 5.74-4.67v-2.17h17c.28 0 .5-.22.5-.5v-17.5c0-.28-.22-.5-.5-.5Zm-10-11.5c3.85 0 6.99 3.14 6.99 7v4.5H26.25v-4.5c0-3.86 3.14-7 6.99-7M20.35 44.41c-2.17.42-4.37-.76-5.01-2.65-.13-.44-.58-.72-.96-.68-1.07-.06-2.05-.53-2.72-1.34-1.14-1.17-1.57-2.76-1.15-4.27 0-.02.02-.1.03-.12a.93.93 0 0 0-.18-.68.97.97 0 0 0-.66-.37c-.41-.05-1.71-1.04-2.25-2.69-.38-.98-.15-2.44.94-3.51.92.72 2.22 1.24 3.89 1.56h.09a.499.499 0 0 0 .09-.99c-2.35-.44-3.84-1.3-4.42-2.54-1.03-2.21.99-5.23 1.01-5.26.15-.21.2-.47.14-.72-.09-.41-.78-4.05 1.61-5.17 2-.93 3.98-.94 5.42-.04 1.34.89 2.04 2.36 1.82 3.85-.04.27.15.53.42.57s.53-.15.57-.42c.28-1.87-.58-3.72-2.26-4.83-.82-.52-1.77-.78-2.79-.82-.5-2.32.56-4.41 1.56-4.82 1.22-.49 2.61.61 3.95 1.72-.07.17-.11.35-.11.55 0 .84.68 1.53 1.52 1.53h.11c.79-.06 1.42-.72 1.42-1.52 0-.84-.68-1.53-1.53-1.53-.28 0-.54.08-.77.22-.79-.65-1.63-1.32-2.51-1.72 2.68-2.17 5.44-2.5 6.61-1.99.69.35 1.01 1.17 1.01 1.78V40.7c0 .13-.19 3.16-4.89 3.71m.54-34.2c.29 0 .53.24.53.53 0 .27-.21.5-.53.53-.29 0-.52-.24-.52-.53s.24-.53.52-.53m21.85 27.35h-16.5v-16.5h16.5z"/><path fill="#231f20" d="M29.4 30.54v-7.46c0-.28-.22-.5-.5-.5s-.5.22-.5.5v7.46c-.93.22-1.63 1.05-1.63 2.04s.7 1.82 1.63 2.04v1.15c0 .28.22.5.5.5s.5-.22.5-.5v-1.15c.93-.22 1.63-1.05 1.63-2.04s-.7-1.82-1.63-2.04m-.48 3.15h-.04c-.61 0-1.11-.5-1.11-1.1s.5-1.11 1.12-1.11 1.12.5 1.12 1.11-.5 1.09-1.11 1.1Zm4.82-6.31v-4.3c0-.28-.22-.5-.5-.5s-.5.22-.5.5v4.3c-.93.22-1.63 1.05-1.63 2.04s.7 1.82 1.63 2.04v4.3c0 .28.22.5.5.5s.5-.22.5-.5v-4.3c.93-.22 1.62-1.05 1.62-2.04s-.7-1.82-1.62-2.04m-.5 3.15c-.62 0-1.13-.5-1.13-1.11s.5-1.11 1.13-1.11 1.13.5 1.13 1.11-.5 1.11-1.13 1.11m4.83-6.36v-1.09c0-.28-.22-.5-.5-.5s-.5.22-.5.5v1.09c-.93.22-1.63 1.05-1.63 2.04s.7 1.82 1.63 2.04v7.52c0 .28.22.5.5.5s.5-.22.5-.5v-7.52c.93-.22 1.63-1.05 1.63-2.04s-.7-1.82-1.63-2.04m-.5 3.15c-.62 0-1.13-.5-1.13-1.11s.5-1.11 1.12-1.11 1.12.5 1.12 1.11-.5 1.11-1.13 1.11Zm-24.34-7.88 1.79 3.33-.15 2.26c-.66.17-1.15.76-1.15 1.47 0 .84.68 1.52 1.53 1.52h.11c.79-.06 1.42-.72 1.42-1.52 0-.62-.37-1.16-.91-1.39L16 23.1l4.09-.62c.26.48.76.79 1.33.79h.11c.79-.06 1.42-.72 1.42-1.52 0-.84-.68-1.53-1.53-1.53-.76 0-1.38.55-1.5 1.27l-4.12.62-1.64-3.05c.33-.28.54-.69.54-1.15 0-.84-.68-1.52-1.53-1.52s-1.53.68-1.53 1.52.68 1.53 1.53 1.53h.05Zm2.03 7.59c-.29 0-.53-.24-.53-.52s.24-.53.53-.53.53.24.53.53c0 .27-.21.5-.53.52m6.17-5.8c.29 0 .53.24.53.53s-.21.5-.53.53c-.25 0-.47-.18-.52-.42 0-.03-.01-.07-.01-.1 0-.29.24-.53.53-.53Zm-8.77-3.31c0-.29.24-.52.53-.52s.53.24.53.52c0 .27-.2.49-.54.53-.28 0-.51-.24-.51-.53Zm9.02 10.16c-.84 0-1.53.68-1.53 1.52 0 .04 0 .08.01.12l-2.95 1.48c-.2.1-.31.33-.26.55l.96 4.35-2.17-.44a1.52 1.52 0 0 0-1.5-1.32c-.84 0-1.53.68-1.53 1.53s.68 1.53 1.53 1.53h.11c.51-.04.95-.33 1.2-.74l2.67.54.85 1.83a1.53 1.53 0 0 0 1.1 2.59h.11c.79-.06 1.42-.72 1.42-1.52 0-.84-.68-1.53-1.53-1.53-.07 0-.13.01-.2.02l-.93-1.99-1.03-4.66 2.55-1.28c.28.3.67.49 1.12.49h.11c.79-.06 1.42-.73 1.42-1.52 0-.84-.68-1.52-1.53-1.52Zm-7.44 8.31c-.29 0-.53-.24-.53-.53s.24-.53.53-.53.52.24.52.53c0 .27-.21.5-.52.53m6.45 3.68c0 .27-.21.5-.53.53-.29 0-.53-.24-.53-.53s.24-.53.53-.53.53.24.53.53m.98-9.94c-.29 0-.51-.24-.51-.53s.24-.52.53-.52.53.24.53.52c0 .27-.21.49-.54.53Z"/></svg>