<svg xmlns="http://www.w3.org/2000/svg" viewBox="0 0 50 50"><g fill="#231f20"><path d="M25.011 8.015c-.14 0-.27-.05-.36-.14-.05-.05-.08-.11-.11-.16-.02-.07-.04-.13-.04-.2 0-.13.06-.25.15-.35.14-.14.36-.19.55-.11.06.03.11.06.16.11s.08.1.11.16c.02.06.04.13.04.19 0 .07-.02.13-.04.2-.03.06-.06.11-.11.16s-.1.08-.16.11c-.06.02-.13.03-.19.03m-.51 30.78c0-.28.23-.51.5-.51.28 0 .5.23.5.51 0 .27-.22.49-.5.49a.5.5 0 0 1-.5-.49m0-1.96c0-.28.23-.5.5-.5.28 0 .5.22.5.5s-.22.5-.5.5c-.27 0-.5-.22-.5-.5m0-1.95c0-.28.23-.5.5-.5a.495.495 0 1 1 0 .99.5.5 0 0 1-.5-.49m0-1.96c0-.28.23-.5.5-.5.28 0 .5.22.5.5s-.22.5-.5.5c-.27 0-.5-.22-.5-.5m0-1.95c0-.28.23-.5.5-.5.28 0 .5.22.5.5 0 .27-.22.5-.5.5-.27 0-.5-.23-.5-.5m0-1.96c0-.27.23-.5.5-.5.28 0 .5.23.5.5 0 .28-.22.5-.5.5-.27 0-.5-.22-.5-.5m0-1.95c0-.28.23-.5.5-.5.28 0 .5.22.5.5s-.22.5-.5.5c-.27 0-.5-.22-.5-.5m0-1.96c0-.27.23-.5.5-.5.28 0 .5.23.5.5 0 .28-.22.5-.5.5-.27 0-.5-.22-.5-.5m0-1.95c0-.28.23-.5.5-.5.28 0 .5.22.5.5s-.22.5-.5.5c-.27 0-.5-.22-.5-.5m0-1.95c0-.28.23-.51.5-.51.28 0 .5.23.5.51 0 .27-.22.5-.5.5-.27 0-.5-.23-.5-.5m0-1.96c0-.28.23-.5.5-.5.28 0 .5.22.5.5s-.22.5-.5.5c-.27 0-.5-.22-.5-.5m0-1.95c0-.28.23-.5.5-.5.28 0 .5.22.5.5 0 .27-.22.5-.5.5-.27 0-.5-.23-.5-.5m0-1.96c0-.27.23-.5.5-.5.28 0 .5.23.5.5 0 .28-.22.5-.5.5-.27 0-.5-.22-.5-.5m0-1.95c0-.28.23-.5.5-.5.28 0 .5.22.5.5 0 .27-.22.5-.5.5-.27 0-.5-.23-.5-.5m0-1.96c0-.27.23-.5.5-.5.28 0 .5.23.5.5 0 .28-.22.5-.5.5-.27 0-.5-.22-.5-.5m0-1.95c0-.28.23-.5.5-.5.28 0 .5.22.5.5s-.22.5-.5.5c-.27 0-.5-.22-.5-.5m.51 31.77c-.07 0-.14-.02-.2-.04-.06-.03-.11-.06-.16-.11s-.08-.1-.11-.16a.7.7 0 0 1-.04-.19c0-.07.02-.13.04-.19a.6.6 0 0 1 .11-.17c.05-.04.1-.08.16-.1a.53.53 0 0 1 .55.1c.05.05.08.11.11.17.02.06.04.12.04.19 0 .06-.02.13-.04.19-.03.06-.06.11-.11.16s-.1.08-.16.11c-.06.02-.13.04-.19.04m-10.48-13.19c-.84 0-1.53-.68-1.53-1.53s.68-1.53 1.53-1.53 1.53.68 1.53 1.53c0 .79-.62 1.46-1.42 1.52h-.11zm0-2.05c-.29 0-.53.24-.53.53s.24.53.53.53c.31-.03.53-.25.53-.53 0-.29-.24-.53-.53-.53m6.17-2.7a1.53 1.53 0 0 1-1.53-1.52c0-.84.68-1.53 1.53-1.53s1.53.68 1.53 1.53c0 .79-.62 1.46-1.42 1.52zm0-2.05c-.29 0-.53.24-.53.53l.01.1c.05.25.26.42.51.42.31-.03.53-.25.53-.53 0-.29-.24-.53-.53-.53zm-8.24-1.78c-.84 0-1.53-.68-1.53-1.53s.68-1.53 1.53-1.53 1.53.68 1.53 1.53c0 .79-.62 1.46-1.42 1.52h-.11zm0-2.05a.53.53 0 0 0-.02 1.06c.33-.04.54-.26.54-.53 0-.29-.24-.53-.53-.53zm7.7-5.14c-.84 0-1.53-.68-1.53-1.53s.68-1.53 1.53-1.53 1.53.68 1.53 1.53c0 .79-.62 1.46-1.42 1.52h-.11zm0-2.05c-.29 0-.53.24-.53.53s.24.53.53.53c.31-.03.53-.25.53-.53 0-.29-.24-.53-.53-.53m.79 20.92c-.84 0-1.53-.68-1.53-1.53s.68-1.53 1.53-1.53 1.53.68 1.53 1.53c0 .79-.62 1.46-1.42 1.52h-.11zm0-2.05a.53.53 0 0 0-.02 1.06c.33-.04.54-.26.54-.53 0-.29-.24-.53-.53-.53zm-7.44 8.31c-.84 0-1.53-.68-1.53-1.53s.68-1.53 1.53-1.53 1.53.68 1.53 1.53c0 .79-.62 1.46-1.42 1.52h-.11zm0-2.05c-.29 0-.53.24-.53.53s.24.53.53.53c.31-.03.53-.25.53-.53 0-.29-.24-.53-.53-.53m5.93 6.26c-.84 0-1.53-.68-1.53-1.53s.68-1.53 1.53-1.53 1.53.68 1.53 1.53c0 .79-.62 1.46-1.42 1.52h-.11zm0-2.05c-.29 0-.53.24-.53.53s.24.53.53.53c.32-.03.53-.25.53-.53 0-.29-.24-.53-.53-.53"/><path d="M11.631 29.695h-.09c-2.69-.5-4.42-1.55-5.15-3.1-1.29-2.77 1.08-6.24 1.1-6.27-.13-.42-.95-4.77 2.15-6.21 2.32-1.08 4.64-1.07 6.38.03 1.68 1.11 2.54 2.96 2.26 4.83a.5.5 0 1 1-.99-.15c.22-1.49-.48-2.96-1.82-3.85-1.44-.91-3.42-.89-5.42.04-2.39 1.12-1.7 4.76-1.61 5.17.06.25 0 .51-.14.72-.02.03-2.04 3.06-1.01 5.27.58 1.25 2.07 2.1 4.42 2.54a.499.499 0 0 1-.09.99z"/><path d="M12.821 14.305c-.22 0-.42-.14-.48-.36-.8-2.84.43-5.71 2.08-6.38 1.79-.72 3.52.69 5.05 1.94l.22.18c.21.17.25.49.07.7-.17.21-.49.25-.7.07l-.22-.18c-1.37-1.13-2.79-2.29-4.04-1.79-1.06.43-2.19 2.71-1.49 5.17a.5.5 0 0 1-.34.62c-.05.01-.09.02-.14.02zm12.18-6.28c-.06 0-.13-.01-.19-.04a.5.5 0 0 1-.3-.46c0-.06 0-.13.03-.19s.06-.12.11-.16c.05-.05.1-.09.16-.11a.507.507 0 0 1 .7.46c0 .13-.06.26-.15.35q-.15.15-.36.15"/><path d="M25.011 8.015c-.14 0-.27-.05-.36-.14-.05-.05-.08-.11-.11-.16-.02-.07-.04-.13-.04-.2 0-.13.06-.25.15-.35.14-.14.36-.19.55-.11.06.03.11.06.16.11s.08.1.11.16c.02.06.04.13.04.19 0 .07-.02.13-.04.2-.03.06-.06.11-.11.16s-.1.08-.16.11c-.06.02-.13.03-.19.03m-.51 32.73c0-.28.23-.5.5-.5.28 0 .51.22.51.5s-.23.5-.51.5c-.27 0-.5-.22-.5-.5"/><path d="M18.691 45.535c-2.27 0-4.33-1.36-5.04-3.45-1.42-.05-2.66-.66-3.48-1.65-1.36-1.39-1.88-3.35-1.36-5.21-.95-.02-2.45-1.42-3.05-3.24-.57-1.46.15-3.29 1.84-4.65.22-.17.53-.14.7.08s.14.53-.08.7c-1.34 1.07-1.94 2.46-1.52 3.53.54 1.64 1.84 2.64 2.25 2.69.27.03.51.17.67.37.15.2.21.44.18.68 0 .02-.02.09-.02.12-.42 1.51 0 3.1 1.14 4.27a3.73 3.73 0 0 0 2.72 1.34c.39-.05.84.24.96.68.64 1.9 2.83 3.07 5.01 2.65 4.7-.55 4.88-3.58 4.89-3.71.01-.28.23-.48.52-.48.28.01.49.24.48.52 0 .16-.22 4.02-5.74 4.66-.36.07-.72.1-1.08.1zm-2.81-37.13a.504.504 0 0 1-.35-.87c3.02-2.83 6.58-3.5 8.39-2.7 1.09.56 1.58 1.75 1.58 2.68 0 .28-.22.5-.5.5s-.5-.22-.5-.5c0-.61-.32-1.43-1.01-1.78-1.27-.56-4.4-.16-7.27 2.53-.1.09-.22.13-.34.13zm-1.07 14.79c-.18 0-.35-.1-.44-.26l-2.03-3.78a.506.506 0 0 1 .2-.68c.24-.13.54-.04.68.2l2.03 3.78c.13.24.04.55-.2.68q-.12.06-.24.06"/><path d="M14.811 23.195c-.24 0-.46-.18-.49-.43-.04-.27.15-.53.42-.57l4.86-.73c.26-.04.53.15.57.42s-.15.53-.42.57l-4.86.73h-.08z"/><path d="M19.67 22.46c-.06 0-.13-.02-.19-.04a.7.7 0 0 1-.16-.11.47.47 0 0 1-.15-.35q0-.21.15-.36c.04-.04.1-.08.16-.11a.507.507 0 0 1 .69.47c0 .13-.05.26-.15.35a.5.5 0 0 1-.35.15m-5.039 3.525h-.03a.51.51 0 0 1-.47-.53l.18-2.79c.02-.28.25-.49.53-.47s.48.26.47.53l-.18 2.79a.51.51 0 0 1-.5.47m4.33 13.7c-.19 0-.37-.11-.45-.29l-1.13-2.42c-.12-.25 0-.55.24-.66.25-.12.55 0 .66.24l1.13 2.42c.12.25 0 .55-.24.66-.07.03-.14.05-.21.05"/><path d="M17.841 37.265c-.23 0-.44-.16-.49-.39l-1.12-5.1c-.05-.22.06-.45.26-.55l3.28-1.65c.25-.12.55-.03.67.22s.02.55-.22.67l-2.93 1.47 1.04 4.72c.06.27-.11.54-.38.6-.04 0-.07.01-.11.01"/><path d="M17.841 37.265h-.1l-3.32-.67a.495.495 0 0 1-.39-.59c.05-.27.32-.44.59-.39l3.32.67a.501.501 0 0 1-.1.99zm7.1 3.97a.503.503 0 0 1-.43-.56c.03-.27.28-.47.56-.43.27.03.47.28.43.55-.03.26-.25.44-.5.44zm.07-33.22c-.14 0-.27-.05-.36-.14-.05-.05-.08-.11-.11-.16-.02-.07-.04-.13-.04-.2 0-.13.06-.25.15-.35.14-.14.36-.19.55-.11.06.03.11.06.16.11s.08.1.11.16c.02.06.04.13.04.19 0 .07-.02.13-.04.2-.03.06-.06.11-.11.16s-.1.08-.16.11c-.06.02-.13.03-.19.03"/><path d="M25.001 8.025c-.13 0-.25-.05-.35-.15a.5.5 0 0 1-.14-.35c0-.06 0-.13.03-.19s.07-.12.11-.16c.19-.19.52-.19.71 0 .05.04.08.1.11.16.02.06.04.13.04.19 0 .13-.06.26-.15.35-.09.1-.22.15-.36.15m10.49 18.23c.15 0 .28.12.28.28 0 .14-.11.26-.25.27h-.04a.273.273 0 0 1-.26-.27c0-.15.12-.28.28-.28m-.01-.75c-.57 0-1.03.46-1.03 1.03s.42.98.95 1.02h.07c.57 0 1.03-.46 1.03-1.03s-.46-1.03-1.03-1.03zm-6.17-4c.15 0 .28.12.28.28v.05c-.02.12-.12.21-.25.22h-.04a.273.273 0 0 1-.26-.27c0-.15.12-.28.28-.28m-.01-.75c-.57 0-1.03.46-1.03 1.03s.42.98.95 1.02h.07a1.04 1.04 0 0 0 1.03-1.02c0-.57-.46-1.03-1.03-1.03zm8.24-3.08c.15 0 .28.12.28.28 0 .14-.11.26-.25.27h-.04a.273.273 0 0 1-.26-.27c0-.15.12-.28.28-.28m-.01-.75c-.57 0-1.03.46-1.03 1.03s.42.98.95 1.02h.07c.57 0 1.03-.46 1.03-1.03s-.46-1.03-1.03-1.03zm-7.71-6.44c.15 0 .28.12.28.28 0 .14-.11.26-.25.27h-.04a.273.273 0 0 1-.26-.27c0-.15.12-.28.28-.28m-.01-.75c-.57 0-1.03.46-1.03 1.03s.42.98.95 1.02h.07c.57 0 1.03-.46 1.03-1.03s-.46-1.03-1.03-1.03zm-.79 19.62c.15 0 .28.12.28.28 0 .14-.11.26-.25.27h-.04a.273.273 0 0 1-.26-.27c0-.15.12-.28.28-.28m-.01-.75c-.57 0-1.03.46-1.03 1.03s.42.98.95 1.02h.07c.57 0 1.03-.46 1.03-1.03s-.46-1.03-1.03-1.03zm7.45 7.01c.15 0 .28.12.28.28 0 .14-.11.26-.25.27h-.04a.273.273 0 0 1-.26-.27c0-.15.12-.28.28-.28m-.01-.75c-.57 0-1.03.46-1.03 1.03s.42.98.95 1.02h.07c.57 0 1.03-.46 1.03-1.03s-.46-1.03-1.03-1.03zm-5.93 4.96c.15 0 .28.12.28.28 0 .14-.11.26-.25.27h-.04a.273.273 0 0 1-.26-.27c0-.15.12-.28.28-.28m-.01-.75c-.57 0-1.03.46-1.03 1.03s.42.98.95 1.02h.07c.57 0 1.03-.46 1.03-1.03s-.46-1.03-1.03-1.03zm1.64-19.69c-.06 0-.13 0-.19-.04a.4.4 0 0 1-.16-.11.5.5 0 0 1-.15-.35c0-.07.02-.13.04-.19.03-.06.06-.12.11-.16.05-.05.1-.09.16-.11q.195-.075.39 0c.06.02.11.06.16.11.05.04.08.1.11.16.02.06.03.12.03.19a.5.5 0 0 1-.3.46c-.07.03-.13.04-.2.04m7.64 9.46c-.1-.26.04-.55.29-.65.26-.1.55.04.65.3.09.25-.04.54-.29.64q-.09.03-.18.03c-.2 0-.39-.12-.47-.32m1.82-.82a.505.505 0 0 1 .08-.7c.22-.17.53-.13.71.08.17.22.13.53-.09.71-.1.07-.2.1-.31.1-.15 0-.3-.06-.4-.19zm1.4-1.41a.506.506 0 0 1-.28-.65c.1-.25.39-.38.64-.28a.495.495 0 0 1-.18.96q-.09 0-.18-.03m-.09-2.38c-.03-.27.17-.52.44-.54.28-.03.52.17.55.44.03.28-.17.52-.44.55h-.05a.5.5 0 0 1-.5-.45m-.47-1.78c-.1-.26.02-.55.28-.65a.5.5 0 0 1 .65.27c.1.26-.02.55-.28.65-.06.03-.12.04-.19.04a.51.51 0 0 1-.46-.31m-.93-1.81a.5.5 0 0 1 .32-.63c.26-.08.55.06.63.32.09.27-.06.55-.32.63s-.1.03-.15.03c-.21 0-.41-.14-.48-.35m.13-2.13c0-.28.22-.5.5-.5s.5.22.51.49c0 .28-.23.51-.5.51s-.49-.22-.5-.5zm-9.48-1.13a.495.495 0 1 1 .32-.94c.26.08.4.37.32.63-.08.21-.27.34-.48.34s-.11 0-.16-.03m9.2-.67a.51.51 0 0 1 .31-.64c.26-.09.55.05.64.31s-.05.55-.31.64-.11.03-.17.03c-.2 0-.39-.13-.47-.34m-8.35-1.13c-.2-.19-.2-.5-.01-.7s.51-.21.7-.02c.2.2.21.51.02.71-.1.1-.23.15-.36.15s-.25-.04-.35-.14m7.4-.26a.496.496 0 0 1-.09-.7.51.51 0 0 1 .71-.09c.21.17.25.49.08.71-.1.12-.24.19-.39.19a.5.5 0 0 1-.31-.11m-5.87-1.01c-.1-.26.03-.55.29-.64.26-.11.55.02.65.28s-.03.55-.29.65q-.09.03-.18.03c-.2 0-.39-.12-.46-.32zm4.24.26a.49.49 0 0 1-.34-.62.5.5 0 0 1 .62-.33.5.5 0 0 1-.14.98.3.3 0 0 1-.14-.03m-2.31-.78c0-.28.22-.5.5-.5.27 0 .5.23.5.5a.51.51 0 0 1-.51.5c-.27 0-.5-.23-.49-.5m1.84 15.89c-.07 0-.13-.01-.19-.03a.5.5 0 0 1-.17-.11 1 1 0 0 1-.11-.16.7.7 0 0 1-.03-.2c0-.06 0-.13.03-.19s.07-.11.11-.16a.5.5 0 0 1 .17-.11.5.5 0 0 1 .38 0c.06.03.11.06.16.11s.08.1.11.16a.63.63 0 0 1 0 .39c-.03.06-.06.11-.11.16s-.1.08-.16.11c-.06.02-.13.03-.19.03m-.76-16.78a.51.51 0 0 1-.37-.61c.07-.26.34-.43.61-.36s.43.34.36.61c-.05.22-.26.38-.48.38s-.08 0-.12-.02m-.35-2.33c-.07-.26.08-.54.35-.61.26-.08.54.08.61.34a.5.5 0 0 1-.34.62s-.09.02-.14.02c-.22 0-.42-.15-.48-.37m-6.23-.82a.504.504 0 0 1 .07-.7c.22-.17.53-.14.71.07.17.22.14.53-.07.7a.5.5 0 0 1-.32.12c-.14 0-.29-.07-.39-.19m5.31-.58a.505.505 0 0 1-.05-.71c.18-.21.49-.23.7-.05s.23.5.05.7c-.1.12-.23.18-.37.18-.12 0-.24-.04-.33-.12m-3.76-.69a.504.504 0 0 1 .16-.69c.24-.14.55-.07.69.17.15.23.07.54-.16.69-.09.05-.18.07-.26.07-.17 0-.34-.08-.43-.24m2.21-.13a.5.5 0 0 1-.37-.6.49.49 0 0 1 .6-.37.497.497 0 0 1-.12.98h-.12z"/><path d="M25.001 8.025c-.06 0-.13-.01-.19-.04a.5.5 0 0 1-.3-.46c0-.06 0-.13.03-.19s.06-.12.11-.16c.05-.05.1-.09.16-.11a.507.507 0 0 1 .7.46c0 .13-.06.26-.15.35q-.15.15-.36.15"/><path d="M25.011 8.015c-.14 0-.27-.05-.36-.14-.05-.05-.08-.11-.11-.16-.02-.07-.04-.13-.04-.2 0-.13.06-.25.15-.35.14-.14.36-.19.55-.11.06.03.11.06.16.11s.08.1.11.16c.02.06.04.13.04.19 0 .07-.02.13-.04.2-.03.06-.06.11-.11.16s-.1.08-.16.11c-.06.02-.13.03-.19.03m-.51 32.73c0-.28.23-.5.5-.5.28 0 .51.22.51.5s-.23.5-.51.5c-.27 0-.5-.22-.5-.5m17.56-12.48c-.06 0-.13-.02-.19-.04a.5.5 0 0 1-.16-.11.6.6 0 0 1-.11-.16.7.7 0 0 1-.04-.19c0-.13.05-.26.15-.36.14-.14.36-.18.54-.1a.45.45 0 0 1 .27.27c.03.06.04.12.04.19 0 .13-.05.26-.15.35-.04.05-.1.08-.16.11-.06.02-.12.04-.19.04m-11.29 17.23a.503.503 0 0 1-.46-.54c.03-.28.27-.48.55-.45a.496.496 0 0 1-.05.99zm1.49-.54a.5.5 0 0 1 .96-.28c.08.27-.08.55-.34.62-.05 0-.09.02-.14.02-.22 0-.42-.14-.48-.36m-3.49.19a.5.5 0 0 1-.36-.61c.08-.27.35-.43.62-.35a.5.5 0 0 1 .35.61c-.06.22-.26.37-.48.37s-.09 0-.13-.02m5.3-.9a.495.495 0 0 1 .08-.7c.21-.18.53-.14.7.07.17.22.14.53-.08.71a.5.5 0 0 1-.31.11c-.15 0-.29-.07-.39-.19m-7.22.09a.5.5 0 0 1-.17-.69c.15-.23.46-.3.69-.16.24.15.31.46.16.69a.49.49 0 0 1-.42.24c-.09 0-.18-.03-.26-.08m-1.55-1.46c-.16-.23-.1-.54.12-.7.23-.15.54-.1.7.13a.5.5 0 0 1-.13.7.49.49 0 0 1-.69-.13m10.15 0a.49.49 0 0 1-.22-.66c.12-.25.42-.36.66-.24.25.12.35.43.23.67-.08.18-.26.28-.45.28-.07 0-.14 0-.22-.05m1.2-1.26a.498.498 0 1 1 .97-.22c.06.27-.11.54-.38.6h-.11c-.23 0-.43-.16-.48-.39zm1.84-.63a.503.503 0 0 1 .07-.7c.22-.17.53-.14.71.08.17.21.14.53-.08.7a.5.5 0 0 1-.31.11c-.15 0-.29-.06-.39-.19m1.4-1.35a.49.49 0 0 1-.16-.68c.15-.24.45-.31.69-.16.23.14.31.45.16.68-.1.16-.26.24-.43.24a.42.42 0 0 1-.26-.08m.86-1.74a.496.496 0 1 1 .16-.98c.28.04.46.3.42.57-.04.24-.25.42-.5.42h-.08zm-.49-2.3a.51.51 0 0 1 .36-.61c.27-.07.54.1.61.36.07.27-.09.54-.36.61s-.08.02-.13.02c-.22 0-.42-.15-.48-.38m1.4-.95a.497.497 0 0 1 .08-.7c.21-.17.53-.14.7.08s.14.53-.08.7c-.09.08-.2.11-.31.11-.14 0-.29-.06-.39-.19m1.39-1.36a.49.49 0 0 1-.18-.68c.14-.24.44-.32.68-.18s.32.44.18.68a.495.495 0 0 1-.68.18m.86-1.75c-.27 0-.49-.24-.48-.52 0-.27.24-.49.52-.48.27 0 .49.24.48.51a.5.5 0 0 1-.5.49zm-.96-2.07a.49.49 0 0 1 .16-.69.5.5 0 0 1 .69.15c.14.24.07.55-.16.69-.08.06-.18.08-.27.08-.16 0-.33-.08-.42-.23"/><path d="M25.011 41.245c-.07 0-.14-.02-.2-.04-.06-.03-.11-.06-.16-.11s-.08-.1-.11-.16a.7.7 0 0 1-.04-.19c0-.07.02-.13.04-.19a.6.6 0 0 1 .11-.17c.05-.04.1-.08.16-.1a.53.53 0 0 1 .55.1c.05.05.08.11.11.17.02.06.04.12.04.19 0 .06-.02.13-.04.19-.03.06-.06.11-.11.16s-.1.08-.16.11c-.06.02-.13.04-.19.04m8.04-32.55a.5.5 0 0 1-.35-.15.4.4 0 0 1-.11-.16.5.5 0 0 1-.04-.19c0-.07 0-.14.04-.2a.501.501 0 0 1 .96.2c0 .06-.01.12-.04.19-.02.06-.06.11-.11.16a.5.5 0 0 1-.35.15m-1.46-2.01a.513.513 0 0 1-.01-.71c.2-.19.51-.2.71 0 .2.19.2.51 0 .7-.1.1-.23.15-.36.15a.5.5 0 0 1-.35-.14zm-6.1-.78a.514.514 0 0 1 .05-.71c.21-.18.53-.16.71.05s.16.53-.05.71q-.15.12-.33.12c-.14 0-.28-.06-.38-.17m4.43-.19a.486.486 0 0 1-.32-.62.498.498 0 1 1 .95.3c-.07.21-.26.35-.48.35s-.1 0-.15-.03m-2.5-.73c-.01-.28.21-.51.48-.52.28 0 .51.2.52.48 0 .27-.2.51-.47.52h-.03c-.26 0-.49-.21-.5-.48m-2.41 3.03c-.14 0-.27-.05-.36-.14-.05-.05-.08-.11-.11-.16-.02-.07-.04-.13-.04-.2 0-.13.06-.25.15-.35.14-.14.36-.19.55-.11.06.03.11.06.16.11s.08.1.11.16c.02.06.04.13.04.19 0 .07-.02.13-.04.2-.03.06-.06.11-.11.16s-.1.08-.16.11c-.06.02-.13.03-.19.03m11.6 12.53c-.07 0-.13 0-.19-.04a.5.5 0 0 1-.16-.11c-.1-.09-.15-.22-.15-.35s.05-.26.15-.36c.04-.04.1-.08.16-.1.18-.08.4-.04.54.1.1.1.15.23.15.36s-.05.26-.15.35a.47.47 0 0 1-.35.15m-.94 1.26a.495.495 0 0 1-.2-.67.49.49 0 0 1 .67-.21.498.498 0 0 1-.23.94q-.12 0-.24-.06m-.46 1.38c-.14 0-.26-.05-.36-.14a1 1 0 0 1-.11-.16.7.7 0 0 1-.03-.2.5.5 0 0 1 .14-.35.5.5 0 0 1 .17-.11c.18-.07.39-.03.54.11.1.09.15.22.15.35 0 .07-.02.13-.04.2-.03.05-.06.11-.11.16-.1.09-.22.14-.35.14m-3.47-.59c-.07 0-.13-.02-.19-.04a.5.5 0 0 1-.16-.11.4.4 0 0 1-.11-.16.5.5 0 0 1-.04-.2c0-.06.01-.12.04-.19.02-.06.06-.11.11-.16.14-.14.36-.19.54-.11.06.03.12.07.16.11.1.1.15.22.15.35 0 .07 0 .13-.04.2-.02.06-.06.11-.11.16-.04.04-.1.08-.16.11-.06.02-.12.04-.19.04m1.65.29a.506.506 0 0 1-.41-.58c.05-.27.31-.46.58-.41s.45.31.41.58a.51.51 0 0 1-.49.41z"/><path d="M35.211 23.185c-.14 0-.26-.05-.36-.14a1 1 0 0 1-.11-.16.7.7 0 0 1-.03-.2.5.5 0 0 1 .14-.35.5.5 0 0 1 .17-.11c.18-.07.39-.03.54.11.1.09.15.22.15.35 0 .07-.02.13-.04.2-.03.05-.06.11-.11.16-.1.09-.22.14-.35.14"/><path d="M35.211 23.185c-.14 0-.26-.05-.36-.14a1 1 0 0 1-.11-.16.7.7 0 0 1-.03-.2.5.5 0 0 1 .14-.35.5.5 0 0 1 .17-.11c.18-.07.39-.03.54.11.1.09.15.22.15.35 0 .07-.02.13-.04.2-.03.05-.06.11-.11.16-.1.09-.22.14-.35.14m.13 1.52c-.07 0-.13 0-.19-.03a.7.7 0 0 1-.16-.11.4.4 0 0 1-.11-.17.4.4 0 0 1-.04-.19c0-.06 0-.13.04-.19a.501.501 0 0 1 .96.19c0 .07-.01.13-.04.19-.02.07-.06.12-.11.17a.5.5 0 0 1-.35.14m-3.16 12.56c-.07 0-.13-.02-.19-.04a.6.6 0 0 1-.17-.11.5.5 0 0 1-.1-.16.4.4 0 0 1-.04-.19c0-.13.05-.26.14-.36.05-.04.11-.08.17-.1a.5.5 0 0 1 .38 0 .45.45 0 0 1 .27.27c.03.06.04.12.04.19 0 .13-.05.26-.15.35-.04.05-.1.08-.16.11-.06.02-.13.04-.19.04m-.58 1.49a.47.47 0 0 1-.35-.15.36.36 0 0 1-.11-.16c-.03-.06-.04-.12-.04-.19s0-.13.04-.19c.02-.06.06-.12.11-.16.14-.15.36-.18.54-.11.06.02.11.06.16.11.05.04.09.1.11.16.03.06.04.12.04.19s0 .13-.04.19c-.03.06-.06.12-.11.16-.05.05-.1.09-.16.11-.06.03-.13.04-.19.04m-.95-7.97a.5.5 0 0 1-.35-.14c-.1-.1-.15-.23-.15-.36s.05-.26.15-.35c.04-.05.1-.08.16-.11a.5.5 0 0 1 .38 0c.06.03.12.06.16.11.05.05.09.1.11.16a.49.49 0 0 1-.46.69m1.09.64a.507.507 0 0 1-.21-.68c.13-.24.43-.34.68-.21.24.13.34.43.21.67a.48.48 0 0 1-.44.27c-.08 0-.16-.02-.24-.05m1.56.74c-.06 0-.13 0-.19-.04a.45.45 0 0 1-.27-.27.485.485 0 0 1 .11-.54c.04-.05.1-.09.16-.11a.5.5 0 0 1 .38 0c.06.02.12.06.17.11.04.05.08.1.1.16.03.06.04.13.04.19 0 .13-.05.26-.14.36-.05.04-.11.08-.17.1-.06.03-.12.04-.19.04m-.85 3.39a.503.503 0 0 1-.38-.6c.05-.27.32-.44.59-.38s.44.33.38.6c-.05.23-.26.39-.49.39s-.07 0-.1-.01m.37-1.7a.503.503 0 0 1 .22-.98c.27.06.44.33.37.6-.05.23-.25.39-.48.39h-.11z"/><path d="M32.181 37.265c-.07 0-.13-.02-.19-.04a.6.6 0 0 1-.17-.11.5.5 0 0 1-.1-.16.4.4 0 0 1-.04-.19c0-.13.05-.26.14-.36.05-.04.11-.08.17-.1a.5.5 0 0 1 .38 0 .45.45 0 0 1 .27.27c.03.06.04.12.04.19 0 .13-.05.26-.15.35-.04.05-.1.08-.16.11-.06.02-.13.04-.19.04"/><path d="M32.181 37.265c-.07 0-.13-.02-.19-.04a.6.6 0 0 1-.17-.11.5.5 0 0 1-.1-.16.4.4 0 0 1-.04-.19c0-.13.05-.26.14-.36.05-.04.11-.08.17-.1a.5.5 0 0 1 .38 0 .45.45 0 0 1 .27.27c.03.06.04.12.04.19 0 .13-.05.26-.15.35-.04.05-.1.08-.16.11-.06.02-.13.04-.19.04m1.89-.34a.5.5 0 0 1-.35-.15.49.49 0 0 1 0-.71c.14-.14.36-.18.54-.11.06.03.12.06.16.11a.49.49 0 0 1 0 .71.5.5 0 0 1-.35.15"/></g></svg>