<svg xmlns="http://www.w3.org/2000/svg" viewBox="0 0 50 50"><g fill="#231f20"><path d="M30.68 41.31H18.79c-1.26 0-2.4-.65-3.03-1.75s-.63-2.4 0-3.5l5.95-10.3a3.47 3.47 0 0 1 3.03-1.75c1.26 0 2.4.65 3.03 1.75l5.95 10.3c.63 1.09.63 2.4 0 3.5a3.47 3.47 0 0 1-3.03 1.75Zm-8.11-15.04-5.95 10.3c-.45.78-.45 1.71 0 2.5.45.78 1.26 1.25 2.16 1.25h11.89c.9 0 1.71-.47 2.16-1.25s.45-1.71 0-2.5l-5.95-10.3a2.47 2.47 0 0 0-2.16-1.25c-.9 0-1.71.47-2.16 1.25Z"/><path d="M24.73 35.64c-.18 0-.33-.13-.37-.3l-1.17-6c-.05-.26.02-.52.18-.72.17-.2.41-.32.67-.32h1.36c.26 0 .51.12.67.32.17.2.23.46.18.72l-1.17 6c-.03.18-.19.3-.37.3Zm-.68-6.59c-.05 0-.08.03-.09.04-.01.02-.03.05-.02.1l.8 4.11.8-4.11s-.01-.08-.03-.1-.04-.04-.09-.04h-1.36Zm.68 9.49a1.34 1.34 0 1 1 0-2.68 1.34 1.34 0 0 1 0 2.68m0-1.93c-.33 0-.59.26-.59.59s.26.59.59.59.59-.26.59-.59-.26-.59-.59-.59"/></g><path fill="#231f20" d="M45 31.26c-.28 0-.5-.22-.5-.5V9.26h-39v21.5c0 .28-.22.5-.5.5s-.5-.22-.5-.5v-22c0-.28.22-.5.5-.5h40c.28 0 .5.22.5.5v22c0 .28-.22.5-.5.5"/><path fill="#231f20" d="M45 35.26H32.51c-.28 0-.5-.22-.5-.5s.22-.5.5-.5h12.34c.2-.15.65-.61.65-1.5s-.45-1.34-.65-1.5H30.31c-.28 0-.5-.22-.5-.5s.22-.5.5-.5H45c.08 0 .17.02.24.06.05.03 1.26.71 1.26 2.44s-1.21 2.41-1.26 2.44c-.07.04-.16.06-.24.06m-28.11 0H5c-.08 0-.17-.02-.24-.06-.05-.03-1.26-.71-1.26-2.44s1.21-2.41 1.26-2.44c.07-.04.16-.06.24-.06h14.3c.28 0 .5.22.5.5s-.22.5-.5.5H5.15c-.2.15-.65.61-.65 1.5s.45 1.34.65 1.5h11.74c.28 0 .5.22.5.5s-.22.5-.5.5"/><g fill="#231f20"><path d="M19.37 11.64c-1.33 0-1.93 1.34-1.93 2.67s.6 2.67 1.93 2.67 1.92-1.34 1.92-2.67-.59-2.67-1.92-2.67m1.14 2.67c0 .93-.3 1.92-1.14 1.92s-1.14-.99-1.14-1.92.3-1.92 1.14-1.92 1.14.99 1.14 1.92M22.3 13v3.9h.76v-5.19h-.6l-1.15 1.23.53.56zM25.51 11.64c-1.33 0-1.93 1.34-1.93 2.67s.6 2.67 1.93 2.67 1.92-1.34 1.92-2.67-.59-2.67-1.92-2.67m1.14 2.67c0 .93-.3 1.92-1.14 1.92s-1.14-.99-1.14-1.92.3-1.92 1.14-1.92 1.14.99 1.14 1.92M28.44 13v3.9h.76v-5.19h-.59l-1.15 1.23.52.56zM30.37 13v3.9h.76v-5.19h-.59l-1.16 1.23.53.56zM18.41 18.79l.53.56.45-.51v3.9h.77v-5.18h-.6zM22.61 17.49c-1.33 0-1.93 1.34-1.93 2.67s.6 2.67 1.93 2.67 1.92-1.34 1.92-2.67-.59-2.67-1.92-2.67m1.14 2.67c0 .93-.3 1.92-1.14 1.92s-1.14-.99-1.14-1.92.3-1.92 1.14-1.92 1.14.99 1.14 1.92M24.55 18.79l.53.56.46-.51v3.9h.76v-5.18h-.6zM28.76 17.49c-1.33 0-1.93 1.34-1.93 2.67s.6 2.67 1.93 2.67 1.92-1.34 1.92-2.67-.59-2.67-1.92-2.67m1.13 2.67c0 .93-.3 1.92-1.14 1.92s-1.14-.99-1.14-1.92.3-1.92 1.14-1.92 1.14.99 1.14 1.92"/></g></svg>