<svg xmlns="http://www.w3.org/2000/svg" viewBox="0 0 50 50"><g fill="#231f20"><path d="M30.3 32.77v2.91h-1.89v-2.91zm.59-1h-3.07c-.25 0-.41.15-.41.39v4.14c0 .23.16.39.41.39h3.07c.25 0 .41-.15.41-.39v-4.14c0-.23-.16-.39-.41-.39m4.91-4.14v8.06h-1.73v-8.06zm.5-1h-2.74c-.33 0-.49.24-.49.57v8.91c0 .33.25.57.49.57h2.74c.33 0 .49-.24.49-.57V27.2c0-.41-.08-.57-.49-.57m5.16 4.18v4.87h-1.73v-4.87zm.59-1h-2.91c-.25 0-.41.24-.41.49v5.89c0 .24.16.49.41.49h2.91c.25 0 .41-.24.41-.49V30.3c0-.33-.16-.49-.41-.49m-12.79.72c-1.14 0-2.07-.93-2.07-2.07s.93-2.07 2.07-2.07 2.07.93 2.07 2.07-.93 2.07-2.07 2.07m0-3.13a1.071 1.071 0 0 0 0 2.14 1.071 1.071 0 0 0 0-2.14m5.69-2.55c-1.14 0-2.07-.93-2.07-2.07s.93-2.07 2.07-2.07 2.07.93 2.07 2.07-.93 2.07-2.07 2.07m0-3.14a1.071 1.071 0 0 0 0 2.14 1.071 1.071 0 0 0 0-2.14m5.64 6.9c-1.14 0-2.07-.93-2.07-2.07s.93-2.07 2.07-2.07 2.07.93 2.07 2.07-.93 2.07-2.07 2.07m0-3.14a1.071 1.071 0 0 0 0 2.14 1.071 1.071 0 0 0 0-2.14"/><path d="m30.011 27.015 3.421-3.536.719.696-3.421 3.536zM36.139 23.735l.58-.815 3.014 2.145-.58.815z"/><path d="M46.48 42.24H6.41c-.28 0-.5-.22-.5-.5V11.16c0-.28.22-.5.5-.5h40.07c.28 0 .5.22.5.5v30.58c0 .28-.22.5-.5.5m-39.57-1h39.07V17.36H6.91zm0-24.88h39.07v-4.7H6.91z"/><path d="M12.14 14.51H9.28c-.28 0-.5-.22-.5-.5s.22-.5.5-.5h2.86c.28 0 .5.22.5.5s-.22.5-.5.5m5.72 0H15c-.28 0-.5-.22-.5-.5s.22-.5.5-.5h2.86c.28 0 .5.22.5.5s-.22.5-.5.5m5.72 0h-2.86c-.28 0-.5-.22-.5-.5s.22-.5.5-.5h2.86c.28 0 .5.22.5.5s-.22.5-.5.5m20.04-1.5c-.55 0-1 .45-1 1s.45 1 1 1 1-.45 1-1-.45-1-1-1M17.07 35.53c-.28 0-.5-.22-.5-.5V22.18c0-.28.22-.5.5-.5s.5.22.5.5v12.85c0 .28-.22.5-.5.5m-4.05-6.64c-.35 0-.64.28-.64.64s.28.63.64.63h.05c.33-.02.59-.3.59-.63 0-.35-.28-.64-.64-.64m-.8-3.31a.636.636 0 1 0 0 1.27h.05c.33-.02.59-.29.59-.63s-.28-.63-.64-.63zm2.98-2.79c-.35 0-.63.28-.63.64s.28.64.63.64h.05c.33-.02.59-.3.59-.63 0-.35-.28-.64-.64-.64zm.3 7.3a.636.636 0 1 0 0 1.27h.05c.33-.02.59-.29.59-.63s-.28-.63-.64-.63zm-2.87 2.42a.636.636 0 1 0 0 1.27h.05c.33-.02.59-.3.59-.63 0-.35-.28-.63-.63-.63zm2.29 1.63c-.35 0-.64.28-.64.64s.28.64.64.64h.05a.636.636 0 0 0-.04-1.27z"/><path d="M11.9 31.06h-.09c-1.14-.21-1.89-.67-2.21-1.37-.48-1.04.14-2.22.37-2.6-.16-1.01.03-2.16 1.03-2.63.99-.46 2-.45 2.76.03.76.5 1.14 1.33 1.01 2.17a.5.5 0 1 1-.99-.15c.07-.45-.15-.91-.57-1.19-.46-.29-1.12-.28-1.8.04-.7.33-.48 1.52-.45 1.66.04.17 0 .37-.11.53-.19.27-.63 1.14-.36 1.72.23.48.94.71 1.49.81a.499.499 0 0 1-.09.99zM9.98 27.2v.03zm.06-.25s0 .01-.01.02c0 0 0-.01.01-.02"/><path d="M12.36 25.11c-.22 0-.42-.14-.48-.36-.33-1.16.13-2.49.98-2.83.87-.35 1.64.29 2.26.79l.09.07c.21.17.25.49.07.7s-.49.24-.7.07l-.09-.07c-.44-.36-.94-.77-1.25-.64-.24.09-.63.81-.4 1.63.08.27-.08.54-.34.62-.05.01-.09.02-.14.02m4.71 10.42c-.28 0-.5-.22-.5-.5V22.18c0-.28.22-.5.5-.5s.5.22.5.5v12.84c0 .28-.22.5-.5.5z"/><path d="M14.62 37.19c-.92 0-1.79-.52-2.15-1.35-.57-.08-1.04-.34-1.37-.73-.51-.52-.75-1.25-.65-1.98-.46-.23-.91-.78-1.11-1.39-.24-.6-.12-1.58.7-2.24.22-.17.53-.14.7.08s.14.53-.08.7c-.41.32-.5.82-.38 1.12.17.5.53.81.64.85.15.01.32.11.44.25.11.14.16.32.13.5 0 .03-.01.08-.02.11-.13.45 0 .96.37 1.33.22.27.52.41.85.43.24-.02.56.17.65.47.2.59.9.95 1.59.82 1.53-.18 1.64-1.05 1.64-1.15.02-.27.24-.52.52-.47.27.01.48.23.48.5-.02.63-.56 1.88-2.49 2.1-.15.03-.31.04-.46.04zm-2-1.34s.07.01.1 0zm-.23-.21v.02zm-1.62-2.41h.01zm2.77-10.4a.504.504 0 0 1-.35-.87c1.28-1.2 2.76-1.46 3.58-1.1.55.28.79.86.79 1.32 0 .28-.22.5-.5.5s-.5-.22-.5-.5c0-.15-.08-.34-.22-.42-.39-.17-1.47 0-2.46.93-.1.09-.22.13-.34.13zm-.41 5.71c-.18 0-.35-.1-.44-.26l-.79-1.46a.506.506 0 0 1 .2-.68c.25-.13.55-.04.68.2l.79 1.46c.13.24.04.55-.2.68q-.12.06-.24.06"/><path d="M13.12 28.54c-.24 0-.46-.18-.49-.43-.04-.27.15-.53.42-.57l1.88-.28c.27-.04.53.15.57.42s-.15.53-.42.57l-1.88.28h-.08z"/><path d="M15.01 28.26c-.07 0-.13 0-.19-.04a.6.6 0 0 1-.17-.1c-.09-.1-.14-.23-.14-.36s.05-.26.14-.35c.14-.14.37-.19.55-.11a.51.51 0 0 1 .31.46c0 .13-.06.26-.15.36a.5.5 0 0 1-.35.14m-1.95 1.36h-.03a.51.51 0 0 1-.47-.53l.07-1.08c.02-.28.29-.48.53-.47.28.02.48.26.47.53l-.07 1.08a.51.51 0 0 1-.5.47m1.67 5.3c-.19 0-.37-.11-.45-.29l-.44-.94c-.12-.25 0-.55.24-.67.25-.12.55 0 .67.24l.44.94c.12.25 0 .55-.24.67-.07.03-.14.05-.21.05z"/><path d="M14.3 33.99c-.23 0-.44-.16-.49-.39l-.43-1.97c-.05-.22.06-.45.26-.55l1.27-.64c.25-.13.55-.03.67.22s.03.55-.22.67l-.92.46.35 1.59c.06.27-.11.54-.38.6-.04 0-.07.01-.11.01"/><path d="M14.3 33.99h-.1l-1.28-.26a.5.5 0 0 1-.39-.59c.06-.27.33-.44.59-.39l1.28.26a.5.5 0 0 1-.1.99zm2.77 1.54c-.28 0-.5-.22-.5-.5V22.18c0-.28.22-.5.5-.5s.5.22.5.5v12.85c0 .28-.22.5-.5.5m4.05-6.64c-.35 0-.64.28-.64.64s.26.61.59.63h.05a.636.636 0 1 0 0-1.27m.8-3.31c-.35 0-.64.28-.64.63s.26.61.59.63h.05c.35 0 .64-.28.64-.64s-.28-.63-.64-.63zm-3.19 1.48c-.35 0-.64.28-.64.63s.26.61.59.63h.05c.35 0 .64-.28.64-.64s-.28-.63-.64-.63zm.22-4.27c-.35 0-.64.28-.64.64s.26.61.59.63h.05c.35 0 .63-.28.63-.64s-.28-.64-.63-.64zm-3.56 4.26c-.35 0-.64.28-.64.64s.26.61.59.63h.05c.35 0 .63-.28.63-.64s-.28-.64-.63-.64zm3.25 3.04c-.35 0-.64.28-.64.63s.26.61.59.63h.05c.35 0 .64-.28.64-.64s-.28-.63-.64-.63zm2.88 2.42c-.35 0-.63.28-.63.63s.26.61.59.63h.05c.35 0 .64-.28.64-.64s-.28-.63-.64-.63zm-2.29 1.63c-.35 0-.63.28-.63.64s.26.61.59.63h.05c.35 0 .64-.28.64-.64s-.28-.64-.64-.64z"/><path d="M22.24 31.06a.499.499 0 0 1-.09-.99c.55-.1 1.26-.33 1.49-.81.27-.58-.17-1.45-.37-1.73a.66.66 0 0 1-.1-.53c0-.04.27-1.3-.46-1.64-.68-.32-1.33-.33-1.8-.03-.41.27-.63.73-.56 1.18a.5.5 0 1 1-.99.15c-.13-.84.26-1.68 1.01-2.17.77-.49 1.78-.5 2.77-.04 1.02.48 1.2 1.69 1.04 2.64.23.39.85 1.57.37 2.6-.33.7-1.07 1.16-2.21 1.37zm1.92-3.87v.02zm-.06-.24"/><path d="M21.79 25.11s-.09 0-.14-.02a.507.507 0 0 1-.35-.62c.23-.82-.16-1.54-.4-1.63-.31-.12-.81.28-1.25.64l-.09.07c-.22.17-.53.14-.7-.07s-.14-.53.07-.7l.09-.07c.62-.51 1.4-1.14 2.26-.8.85.35 1.31 1.67.99 2.83-.06.22-.26.36-.48.36zm-4.72 10.42c-.28 0-.5-.22-.5-.5V22.18c0-.28.22-.5.5-.5s.5.22.5.5v12.84c0 .28-.22.5-.5.5z"/><path d="M19.51 37.18c-.16 0-.32-.02-.48-.05-2.01-.23-2.45-1.6-2.45-2.11 0-.28.22-.5.5-.5s.5.22.5.5c0 .08.11.95 1.61 1.12.72.14 1.43-.23 1.62-.82.09-.29.39-.49.72-.46.25-.02.55-.16.75-.4.39-.4.53-.91.4-1.39-.04-.26 0-.44.12-.58.11-.14.28-.24.47-.26.08-.03.45-.34.61-.82.12-.32.03-.82-.38-1.14a.496.496 0 0 1-.08-.7c.17-.21.49-.25.7-.08.82.66.94 1.63.69 2.26-.19.59-.65 1.14-1.1 1.37.11.7-.14 1.45-.68 2.01-.31.38-.8.64-1.34.71-.37.82-1.23 1.34-2.16 1.34zm2.03-1.32h-.04zm.21-.23v.02zm1.62-2.4h-.01zm-2.77-10.4c-.12 0-.25-.04-.34-.13-1-.93-2.07-1.1-2.49-.92-.12.06-.2.26-.2.4 0 .28-.22.5-.5.5s-.5-.22-.5-.5c0-.46.24-1.04.77-1.31.83-.37 2.32-.1 3.6 1.09a.504.504 0 0 1-.35.87zm.42 5.71q-.12 0-.24-.06a.504.504 0 0 1-.2-.68l.79-1.46c.13-.24.43-.33.68-.2.24.13.33.43.2.68l-.79 1.46a.49.49 0 0 1-.44.26"/><path d="M21.02 28.54h-.08l-1.88-.28a.505.505 0 0 1-.42-.57c.04-.27.3-.46.57-.42l1.88.28a.503.503 0 0 1-.07 1z"/><path d="M19.14 28.26c-.07 0-.13 0-.19-.04a.4.4 0 0 1-.16-.1c-.1-.1-.15-.23-.15-.36s.05-.26.15-.35c.04-.05.1-.08.16-.11.18-.08.4-.03.54.11.1.1.15.22.15.35 0 .07 0 .13-.04.19-.02.06-.06.12-.11.17a.5.5 0 0 1-.35.14m1.95 1.36c-.26 0-.48-.2-.5-.47l-.07-1.08c-.02-.28.19-.51.47-.53.25-.01.51.19.53.47l.07 1.08c.02.28-.19.51-.47.53zm-1.68 5.3c-.07 0-.14-.01-.21-.05a.504.504 0 0 1-.24-.67l.44-.94a.504.504 0 0 1 .91.43l-.44.94c-.08.18-.27.29-.45.29z"/><path d="M19.84 33.99s-.07 0-.11-.01a.503.503 0 0 1-.38-.6l.35-1.59-.92-.46a.49.49 0 0 1-.22-.67c.12-.25.42-.35.67-.22l1.27.64c.2.1.31.33.26.55l-.43 1.97c-.05.23-.26.39-.49.39"/><path d="M19.84 33.99c-.23 0-.44-.16-.49-.4-.05-.27.12-.53.39-.59l1.28-.26c.27-.05.53.12.59.39.05.27-.12.53-.39.59l-1.28.26h-.1z"/></g></svg>