<svg xmlns="http://www.w3.org/2000/svg" viewBox="0 0 50 50"><g fill="#231f20"><path d="M26.02 41.03a.47.47 0 0 1-.35-.15c-.2-.2-.2-.51 0-.71l2.58-2.57c.2-.2.51-.2.71 0s.2.51 0 .71l-2.58 2.57c-.1.1-.23.15-.35.15z"/><path d="M35.03 41.12c-5.29 0-9.6-4.31-9.6-9.6s4.31-9.6 9.6-9.6 9.6 4.31 9.6 9.6-4.31 9.6-9.6 9.6m0-18.2c-4.74 0-8.6 3.86-8.6 8.6s3.86 8.6 8.6 8.6 8.6-3.86 8.6-8.6-3.86-8.6-8.6-8.6M20.02 48.25a1.711 1.711 0 0 1-1.21-2.92l5.15-5.15a1.708 1.708 0 0 1 2.92 1.21c0 .46-.18.89-.5 1.21l-5.15 5.15c-.33.33-.77.5-1.21.5m5.14-7.57c-.19 0-.37.07-.5.21l-5.15 5.15c-.28.28-.28.73 0 1.01s.73.28 1.01 0l5.15-5.15c.13-.13.21-.31.21-.5s-.08-.37-.21-.51-.31-.21-.5-.21z"/><path d="M35.13 36.4c-.21 0-.38-.17-.38-.37v-10.1a.38.38 0 1 1 .76 0v10.1c0 .21-.17.38-.38.38zm-3.18-5.2c-.28 0-.5.22-.5.5s.22.5.5.5h.04c.26-.02.46-.23.46-.5 0-.28-.22-.5-.5-.5m-.63-2.61c-.28 0-.5.22-.5.5s.22.5.5.5h.04a.501.501 0 0 0-.04-1m2.34-2.18c-.27 0-.5.22-.5.5s.22.5.5.5h.04c.26-.02.46-.23.46-.5 0-.28-.22-.5-.5-.5m.24 5.73c-.28 0-.5.22-.5.5s.22.5.5.5h.04a.501.501 0 0 0-.04-1m-2.26 1.91c-.28 0-.5.22-.5.5s.22.5.5.5h.04c.26-.02.46-.23.46-.5 0-.28-.22-.5-.5-.5m1.8 1.28c-.28 0-.5.22-.5.5s.22.5.5.5h.04c.26-.02.46-.23.46-.5 0-.28-.22-.5-.5-.5"/><path d="M31.07 32.89H31c-.89-.17-1.47-.53-1.73-1.07-.38-.8.1-1.71.29-2.03-.13-.76.01-1.69.8-2.06.77-.36 1.56-.35 2.15.02.59.39.89 1.03.79 1.69-.03.2-.21.35-.43.32a.383.383 0 0 1-.32-.43c.05-.36-.12-.73-.46-.95-.37-.23-.89-.22-1.43.03-.58.27-.38 1.28-.37 1.32.03.12 0 .27-.08.39-.19.28-.49.94-.29 1.38.18.39.74.57 1.18.65.2.04.34.23.3.44-.03.18-.19.31-.37.31zm-1.49-3.02v.03zm.04-.18"/><path d="M31.43 28.21c-.16 0-.31-.11-.36-.27-.26-.91.1-1.94.76-2.21.67-.27 1.27.23 1.76.62.16.13.22.39.09.55s-.33.21-.49.08l-.07-.05c-.35-.29-.75-.61-1-.51-.22.09-.5.69-.32 1.31.06.2-.06.41-.26.46-.03 0-.07.01-.1.01zm3.7 8.19c-.21 0-.38-.17-.38-.37v-10.1c0-.21.17-.38.38-.38s.38.17.38.37v10.1c0 .21-.17.38-.38.38"/><path d="M33.21 37.7c-.72 0-1.4-.41-1.68-1.06-.45-.06-.82-.26-1.07-.57-.4-.41-.59-.98-.51-1.55-.36-.17-.71-.61-.87-1.09-.18-.47-.1-1.23.54-1.74.16-.13.4-.1.53.06s.1.4-.06.53c-.33.26-.4.66-.31.9.13.41.43.65.52.68.12.01.25.08.34.19.08.11.12.24.1.38-.12.44-.01.85.28 1.14.18.21.42.33.68.34.19-.03.42.12.5.36.16.46.71.76 1.27.65 1.22-.14 1.3-.84 1.31-.92.01-.2.16-.35.39-.35.2.01.36.18.36.38-.01.49-.44 1.46-1.94 1.63-.12.02-.24.04-.36.04zm-1.57-1.05h.08zm-.17-.15v.02zm.89-10.08c-.1 0-.2-.04-.27-.12a.38.38 0 0 1 .02-.53c1-.93 2.16-1.14 2.79-.86.43.22.61.67.61 1.02a.38.38 0 1 1-.76 0c0-.12-.06-.28-.18-.34-.31-.13-1.17 0-1.96.73-.07.07-.16.1-.26.1zm-.33 4.49c-.13 0-.26-.07-.33-.2l-.62-1.15c-.1-.18-.03-.41.15-.51s.41-.03.51.15l.62 1.15c.1.18.03.41-.15.51-.06.03-.12.04-.18.04z"/><path d="M32.03 30.91c-.18 0-.34-.13-.37-.32-.03-.2.11-.4.32-.43l1.48-.22c.2-.03.4.11.43.32.03.2-.11.4-.32.43l-1.48.22z"/><path d="M33.51 30.69s-.09 0-.14-.03a.3.3 0 0 1-.12-.09.26.26 0 0 1-.08-.12c-.02-.04-.03-.09-.03-.14s0-.1.03-.14c.02-.05.04-.09.08-.12a.2.2 0 0 1 .12-.08c.13-.06.3-.03.41.08a.363.363 0 0 1 0 .52.5.5 0 0 1-.12.09q-.075.03-.15.03m-1.53 1.07h-.02a.37.37 0 0 1-.35-.4l.05-.85c.01-.21.17-.37.4-.35.21.01.36.19.35.4l-.05.85c-.01.2-.18.35-.37.35zm1.32 4.16a.37.37 0 0 1-.34-.22l-.34-.74a.38.38 0 0 1 .18-.5c.19-.08.41 0 .5.18l.34.74a.38.38 0 0 1-.34.54"/><path d="M32.95 35.19c-.17 0-.33-.12-.37-.29l-.34-1.55a.37.37 0 0 1 .2-.42l1-.5c.18-.09.41-.02.5.17.09.18.02.41-.17.5l-.73.37.28 1.27c.04.2-.08.4-.29.45z"/><path d="M32.95 35.19h-.08l-1.01-.21a.375.375 0 0 1-.29-.44c.04-.2.24-.34.44-.29l1.01.21a.375.375 0 0 1-.08.74zm2.18 1.21c-.21 0-.38-.17-.38-.37v-10.1a.38.38 0 1 1 .76 0v10.1c0 .21-.17.38-.38.38zm3.19-5.2c-.28 0-.5.22-.5.5s.2.48.46.5h.04c.28 0 .5-.22.5-.5s-.22-.5-.5-.5m.63-2.61c-.28 0-.5.22-.5.5s.2.48.46.5h.04c.28 0 .5-.22.5-.5s-.22-.5-.5-.5m-2.51 1.17c-.28 0-.5.22-.5.5s.2.48.46.5h.04c.28 0 .5-.22.5-.5s-.22-.5-.5-.5m.17-3.35c-.28 0-.5.22-.5.5s.2.48.46.5h.04c.27 0 .5-.22.5-.5s-.22-.5-.5-.5m-2.79 3.34c-.28 0-.5.22-.5.5s.2.48.46.5h.04c.27 0 .5-.22.5-.5s-.22-.5-.5-.5m2.55 2.39c-.28 0-.5.22-.5.5s.2.48.46.5h.04c.28 0 .5-.22.5-.5s-.22-.5-.5-.5m2.26 1.91c-.27 0-.5.22-.5.5s.2.48.46.5h.04c.28 0 .5-.22.5-.5s-.22-.5-.5-.5m-1.8 1.28c-.27 0-.5.22-.5.5s.2.48.46.5h.04c.28 0 .5-.22.5-.5s-.22-.5-.5-.5"/><path d="M39.2 32.89c-.18 0-.33-.13-.37-.31-.04-.2.1-.4.3-.44.44-.08 1-.26 1.18-.65.21-.44-.1-1.1-.29-1.38a.47.47 0 0 1-.07-.4c0-.03.21-1.04-.37-1.31-.54-.25-1.06-.26-1.44-.02a.98.98 0 0 0-.45.95c.03.21-.11.4-.32.43s-.4-.11-.43-.32c-.1-.66.2-1.3.78-1.69.6-.38 1.39-.39 2.16-.03.79.37.93 1.32.8 2.06.21.34.66 1.24.29 2.03-.26.54-.84.9-1.73 1.07h-.07zm1.49-3.03v.02zm-.05-.18s0 .01.01.02v-.02z"/><path d="M38.84 28.21s-.07 0-.1-.01a.38.38 0 0 1-.26-.46c.17-.62-.11-1.22-.32-1.31-.25-.1-.65.22-1 .51l-.3-.24-.17-.34c.48-.4 1.09-.9 1.76-.62.66.27 1.02 1.3.76 2.21-.05.17-.2.27-.36.27zm-3.71 8.19c-.21 0-.38-.17-.38-.37v-10.1c0-.21.17-.38.38-.38s.38.17.38.37v10.1c0 .21-.17.38-.38.38"/><path d="M37.05 37.7c-.12 0-.25-.01-.38-.04-1.48-.17-1.9-1.14-1.92-1.63 0-.21.16-.38.36-.39.19 0 .38.16.39.36 0 .07.09.77 1.28.91.58.11 1.14-.18 1.3-.66.07-.23.3-.38.55-.35.2-.02.44-.13.6-.32.31-.32.42-.73.31-1.11-.03-.2 0-.33.09-.44.08-.11.21-.18.35-.2.07-.02.37-.27.49-.66.1-.26.03-.66-.3-.92a.38.38 0 0 1-.06-.53.38.38 0 0 1 .53-.06c.64.51.73 1.27.54 1.76-.15.46-.51.9-.87 1.07.09.55-.1 1.14-.53 1.57-.24.3-.63.5-1.06.56-.29.64-.96 1.05-1.69 1.05zm1.59-1.04h-.03zm.16-.17v.01zm-.89-10.07c-.09 0-.18-.03-.26-.1-.79-.74-1.65-.87-1.98-.72-.1.05-.17.21-.17.33 0 .21-.15.4-.38.37-.21 0-.37-.17-.37-.38 0-.35.19-.8.59-1.01.65-.29 1.81-.08 2.81.85.15.14.16.38.02.53-.07.08-.17.12-.27.12zm.32 4.49c-.06 0-.12-.01-.18-.04a.38.38 0 0 1-.15-.51l.62-1.15c.1-.18.33-.25.51-.15s.25.33.15.51l-.62 1.15c-.07.13-.2.2-.33.2z"/><path d="M38.23 30.91h-.06l-1.48-.22a.375.375 0 0 1-.32-.43.38.38 0 0 1 .43-.32l1.48.22c.21.03.35.22.32.43-.03.19-.19.32-.37.32"/><path d="M36.76 30.69c-.1 0-.19-.04-.26-.12a.363.363 0 0 1 0-.52.2.2 0 0 1 .12-.08.373.373 0 0 1 .49.2c.02.04.03.09.03.14s0 .1-.03.14a.4.4 0 0 1-.08.12c-.07.08-.17.12-.27.12m1.53 1.07c-.2 0-.36-.15-.37-.35l-.06-.85c-.01-.21.14-.38.35-.4.2-.02.39.14.4.35l.06.85c.01.21-.14.38-.35.4zm-1.32 4.16c-.05 0-.11-.01-.16-.04a.37.37 0 0 1-.18-.5l.34-.74a.38.38 0 0 1 .5-.18c.19.09.27.31.18.5l-.34.74a.37.37 0 0 1-.34.22"/><path d="M37.31 35.19h-.08a.38.38 0 0 1-.29-.45l.28-1.27-.74-.37a.37.37 0 0 1-.17-.5c.09-.19.32-.26.5-.17l1 .5c.15.08.24.25.2.42l-.34 1.55c-.04.18-.19.29-.37.29z"/><path d="M37.31 35.19c-.17 0-.33-.12-.37-.3-.04-.2.09-.4.29-.44l1.01-.21c.21-.05.4.09.44.29s-.09.4-.29.44l-1.01.21h-.08zM18.28 19.52c-.1 0-.21-.03-.29-.1-2.57-1.88-4.17-5.48-4.17-9.4 0-5.26 2.93-8.28 8.05-8.28s8.05 3.02 8.05 8.28c0 3.92-1.6 7.52-4.17 9.4-.22.16-.54.12-.7-.11a.5.5 0 0 1 .11-.7c2.32-1.7 3.76-4.99 3.76-8.59 0-6.33-4.42-7.28-7.05-7.28s-7.05.95-7.05 7.28c0 3.6 1.44 6.89 3.76 8.59.22.16.27.48.11.7-.1.13-.25.21-.4.21z"/><path d="M5.86 36.75s-.07 0-.11-.01a.503.503 0 0 1-.38-.6l2.65-11.79a5.24 5.24 0 0 1 2.26-2.99c.13-.08 3.32-2.05 7.91-2.83.14-.02.27 0 .38.09 2.16 1.58 4.41 1.59 6.58 0 .22-.16.54-.12.7.11.16.22.12.54-.11.7-2.46 1.8-5.12 1.84-7.59.12-4.28.77-7.32 2.64-7.35 2.66-.88.55-1.53 1.4-1.82 2.39L6.34 36.36c-.05.23-.26.39-.49.39z"/><path d="M29.89 20.73q-.09 0-.18-.03c-1.43-.54-2.9-.94-4.35-1.19a.5.5 0 0 1-.41-.58c.05-.27.31-.45.58-.41 1.52.26 3.05.68 4.54 1.24a.495.495 0 0 1-.18.96z"/></g><g fill="#231f20"><path d="M37.78 18.06c-.15 0-.3-.07-.4-.2a.496.496 0 0 1 .1-.7c1.07-.79 1.73-2.35 1.73-4.05 0-2.77-1.73-3.35-3.17-3.35s-3.17.58-3.17 3.35c0 1.71.66 3.26 1.73 4.05.22.17.27.48.1.7s-.48.27-.7.1c-1.31-.98-2.13-2.84-2.13-4.86 0-2.77 1.52-4.35 4.17-4.35s4.17 1.59 4.17 4.35c0 2.02-.82 3.88-2.13 4.86-.09.07-.19.1-.3.1"/><path d="M36.04 18.7c-.7 0-1.38-.25-2.04-.74-.22-.17-.27-.48-.1-.7s.48-.27.7-.1c.96.72 1.93.71 2.89 0 .22-.17.53-.12.7.1s.12.53-.1.7c-.66.49-1.34.74-2.04.74z"/><path d="M42.84 22.35c-.23 0-.44-.17-.49-.4l-.31-1.6c-.11-.39-.39-.76-.77-1-.02-.01-1.5-.94-3.58-1.3-.27-.05-.46-.31-.41-.58s.31-.45.58-.41c2.29.39 3.88 1.4 3.95 1.44.58.37 1.01.94 1.2 1.61l.32 1.64c.05.27-.12.53-.4.59h-.1z"/></g></svg>