<svg xmlns="http://www.w3.org/2000/svg" viewBox="0 0 50 50"><g fill="#231f20"><path d="M25.54 44.79c-.1 0-.2-.03-.29-.09-.02-.02-2.49-1.74-8.79-6.33-7.54-5.5-7.2-11.97-7.18-12.24 0-.01-.71-8.54-.71-13.76 0-1.91.37-3.14 1.18-3.88 1.1-1.01 2.76-.87 4.67-.71.48.04.99.08 1.51.11.62.03 1.24.06 1.85.08l5.09-3.71c1.81-1.32 3.97-1.29 5.76.08l4.73 3.63c.61-.02 1.23-.05 1.84-.08.52-.03 1.03-.07 1.51-.11 1.92-.16 3.57-.3 4.67.71.8.74 1.18 1.97 1.18 3.88 0 5.22-.71 13.75-.71 13.83.02.2.36 6.66-7.18 12.16-6.3 4.6-8.82 6.32-8.84 6.34a.5.5 0 0 1-.28.09zM12.45 8.66c-.87 0-1.56.13-2.04.56-.58.53-.86 1.56-.86 3.14 0 5.18.7 13.66.71 13.75 0 .14-.3 6.28 6.78 11.44 5.1 3.72 7.69 5.56 8.49 6.12.81-.57 3.43-2.4 8.54-6.12 7.07-5.16 6.78-11.3 6.78-11.36 0-.16.71-8.64.71-13.82 0-1.58-.28-2.61-.86-3.14-.78-.72-2.16-.6-3.91-.45-.5.04-1.01.08-1.54.11l-2.04.09c-.14 0-.28-.05-.37-.15l-4.81-3.7c-1.42-1.09-3.13-1.12-4.56-.07l-5.23 3.82a.5.5 0 0 1-.31.1 70 70 0 0 1-3.58-.2c-.69-.06-1.31-.11-1.87-.11z"/><path d="M18.54 16.23c-1.74 0-2.53 1.75-2.53 3.49s.78 3.5 2.53 3.5 2.52-1.76 2.52-3.5-.78-3.49-2.52-3.49m1.48 3.49c0 1.22-.39 2.52-1.49 2.52s-1.5-1.3-1.5-2.52.39-2.51 1.5-2.51 1.49 1.3 1.49 2.51M22.37 18v5.11h1v-6.79h-.78l-1.51 1.61.69.73zM26.58 16.23c-1.74 0-2.53 1.75-2.53 3.49s.78 3.5 2.53 3.5 2.52-1.76 2.52-3.5-.78-3.49-2.52-3.49m1.49 3.49c0 1.22-.39 2.52-1.49 2.52s-1.5-1.3-1.5-2.52.39-2.51 1.5-2.51 1.49 1.3 1.49 2.51M30.41 18v5.11h1v-6.79h-.78l-1.51 1.61.7.73zM32.94 18v5.11h1v-6.79h-.78l-1.51 1.61.69.73zM18.09 25.59l.69.73.6-.66v5.11h1v-6.79h-.79zM23.59 23.89c-1.74 0-2.53 1.75-2.53 3.49s.78 3.5 2.53 3.5 2.52-1.76 2.52-3.5-.78-3.49-2.52-3.49m1.49 3.49c0 1.22-.39 2.52-1.49 2.52s-1.5-1.3-1.5-2.52.39-2.51 1.5-2.51 1.49 1.3 1.49 2.51M26.13 25.59l.69.73.6-.66v5.11h1v-6.79h-.78zM31.63 23.89c-1.74 0-2.53 1.75-2.53 3.49s.78 3.5 2.53 3.5 2.52-1.76 2.52-3.5-.78-3.49-2.52-3.49m1.49 3.49c0 1.22-.39 2.52-1.49 2.52s-1.5-1.3-1.5-2.52.39-2.51 1.5-2.51 1.49 1.3 1.49 2.51"/></g></svg>