<svg xmlns="http://www.w3.org/2000/svg" viewBox="0 0 50 50"><g fill="none" stroke="#000"><g stroke-linecap="round" stroke-linejoin="round"><path d="M33.22 30.52a14.84 14.84 0 0 1-18.76-1.909c-5.821-5.859-5.821-15.358 0-21.217m2.32-1.909a14.84 14.84 0 0 1 18.76 1.909c5.821 5.859 5.821 15.358 0 21.217"/><path d="M8.497 7.394h5.963v6M41.503 28.611H35.54V22.61"/></g><g stroke-miterlimit="10"><circle cx="25" cy="18.002" r="8.235"/><ellipse cx="25" cy="18.002" rx="4.246" ry="8.235"/><path d="M17.144 15.526h15.712M17.147 20.49h15.706"/></g></g><path fill="none" stroke="#000" stroke-linecap="round" stroke-linejoin="round" d="M20.232 39.036h-8.093M20.232 32.22v6.816"/><circle cx="10.163" cy="39.036" r="1.977" fill="none" stroke="#000" stroke-linecap="round" stroke-linejoin="round"/><path fill="none" stroke="#000" stroke-linecap="round" stroke-linejoin="round" d="M29.768 39.036h8.093M29.768 32.22v6.816"/><circle cx="39.837" cy="39.036" r="1.977" fill="none" stroke="#000" stroke-linecap="round" stroke-linejoin="round"/><path fill="none" stroke="#000" stroke-linecap="round" stroke-linejoin="round" d="M25.017 33.005v10.042"/><circle cx="25.017" cy="45.023" r="1.977" fill="none" stroke="#000" stroke-linecap="round" stroke-linejoin="round"/></svg>