<svg xmlns="http://www.w3.org/2000/svg" viewBox="0 0 50 50"><g fill="none" stroke="#000" stroke-linecap="round" stroke-linejoin="round"><path d="m39.568 34.687-3.642-3.642-3.642 3.642-3.642-3.642L25 34.687M10.432 34.687l3.642-3.642 3.642 3.642 3.642-3.642L25 34.687"/></g><path fill="none" stroke="#000" stroke-linecap="round" stroke-linejoin="round" d="M10.432 34.687v-9.99c0-10.821 7.672-14.983 14.568-14.983h0c6.896 0 14.568 4.162 14.568 14.984v9.99"/><path fill="none" stroke="#000" stroke-linecap="round" stroke-linejoin="round" d="M18.657 10.956 16.469 5l-4.94 13.291M31.343 10.956 33.531 5l4.94 13.291M25.001 21.973l6.438-4.678s-1.203 5.715-3.351 5.816c0 0-2.41-.884-3.088-1.14m-.001.002-6.438-4.678s1.203 5.715 3.351 5.816c0 0 2.41-.884 3.088-1.14M34.582 32.389 40.707 45 45 41.661M15.418 32.389 9.293 45 5 41.661"/></svg>