<svg xmlns="http://www.w3.org/2000/svg" viewBox="0 0 50 50"><circle cx="16" cy="17" r="3" fill="none" stroke="#000" stroke-linecap="round" stroke-linejoin="round"/><circle cx="26" cy="8" r="3" fill="none" stroke="#000" stroke-linecap="round" stroke-linejoin="round"/><path fill="none" stroke="#000" stroke-linecap="round" stroke-linejoin="round" d="M33.224 24.049c-1.855-1.147-3.09-3.186-3.09-5.51 0-3.584 2.938-6.49 6.56-6.49a6.57 6.57 0 0 1 5.44 2.861M5 40h40v5H5zM18.139 14.9l5.578-4.96M15.998 20.212v12.677M28.1 10.141l3.784 3.815M21.908 39.945c.055-.326.09-.659.09-1a6 6 0 1 0-12 0c0 .341.035.674.09 1"/></svg>