<svg xmlns="http://www.w3.org/2000/svg" viewBox="0 0 50 50"><path d="M45.034 6.019H4.966a.5.5 0 0 0-.5.5v30.578a.5.5 0 0 0 .5.5h5.991a.5.5 0 1 0 0-1h-5.49V12.722h39.067v23.875h-5.53a.5.5 0 1 0 0 1h6.03a.5.5 0 0 0 .5-.5V6.519a.5.5 0 0 0-.5-.5m-39.568 1h39.068v4.703H5.466z"/><path d="M10.69 8.87H7.828a.5.5 0 1 0 0 1h2.862a.5.5 0 1 0 0-1m5.724 0h-2.862a.5.5 0 1 0 0 1h2.862a.5.5 0 1 0 0-1m5.724 0h-2.862a.5.5 0 1 0 0 1h2.862a.5.5 0 1 0 0-1"/><circle cx="42.172" cy="9.37" r="1"/><path d="M25 18.003c-7.156 0-12.979 5.822-12.979 12.978S17.844 43.96 25 43.96s12.979-5.822 12.979-12.979S32.156 18.003 25 18.003m0 25c-6.629 0-12.021-5.393-12.021-12.022S18.37 18.96 25 18.96s12.021 5.393 12.021 12.021S31.63 43.003 25 43.003"/><path d="M30.34 28.146h-.841v-2.165c0-2.481-2.019-4.5-4.499-4.5a4.504 4.504 0 0 0-4.499 4.5v2.165h-.84a.5.5 0 0 0-.5.5v9.335a.5.5 0 0 0 .5.5H30.34a.5.5 0 0 0 .5-.5v-9.335a.5.5 0 0 0-.5-.5m-8.84-2.165c0-1.93 1.57-3.5 3.499-3.5s3.499 1.57 3.499 3.5v2.165H21.5zm8.339 11.5h-9.68v-8.335h9.68z"/></svg>