<svg xmlns="http://www.w3.org/2000/svg" data-name="Isolation Mode" viewBox="0 0 50 50"><ellipse cx="30.49" cy="11.593" fill="none" stroke="#000" stroke-miterlimit="10" rx="14.994" ry="7.593"/><path fill="none" stroke="#000" stroke-miterlimit="10" d="M26.459 26.511c1.28.18 2.638.28 4.031.28 8.281 0 14.995-3.4 14.995-7.593m-19.466 14.85a28.6 28.6 0 0 0 4.471.347c8.281 0 14.995-3.4 14.995-7.593M15.496 19.002l-.006-6.939"/><path fill="none" stroke="#000" stroke-miterlimit="10" d="m45.49 11.58-.005 22.827C45.485 38.601 38.77 42 30.49 42c-2.935 0-5.652-.42-7.965-1.159"/><path fill="none" stroke="#000" stroke-linecap="round" stroke-linejoin="round" d="M21.936 22.065q-.68.034-1.354.058l-.002-.005-3.237-2.488c-1.07-.821-2.357-.84-3.438-.052l-3.487 2.545q-.675-.024-1.354-.058c-2.559-.127-4.554-.853-4.554 2.654s.474 9.194.474 9.194-.285 4.266 4.65 7.867c4.243 3.099 5.85 4.22 5.85 4.22h0s1.639-1.121 5.883-4.22c4.934-3.601 4.649-7.867 4.649-7.867s.474-5.687.474-9.194-1.995-2.781-4.554-2.654"/><path fill="none" stroke="#000" stroke-linecap="round" stroke-linejoin="round" d="M19.124 28.242h.002l-4.714 7.13-2.538-3.367"/><circle cx="15.5" cy="31.807" r="6.923" fill="none" stroke="#000" stroke-miterlimit="10"/></svg>