<svg xmlns="http://www.w3.org/2000/svg" viewBox="0 0 50 50"><path fill="none" stroke="#000" stroke-linecap="round" stroke-linejoin="round" d="m25 45-3.165-2.911C7.698 27.31 23.958 18.159 25 11.659h.002c1.041 6.5 17.301 15.652 3.164 30.43zM25 22.282v22.711"/><circle cx="25" cy="20.782" r="1.5" fill="none" stroke="#000" stroke-linecap="round" stroke-linejoin="round"/><path fill="none" stroke="#000" stroke-linecap="round" stroke-linejoin="round" d="M28.073 27.721 25 30.795"/><circle cx="29.134" cy="26.66" r="1.5" fill="none" stroke="#000" stroke-linecap="round" stroke-linejoin="round"/><path fill="none" stroke="#000" stroke-linecap="round" stroke-linejoin="round" d="M21.927 31.408 25 34.482"/><circle cx="20.866" cy="30.348" r="1.5" fill="none" stroke="#000" stroke-linecap="round" stroke-linejoin="round"/><path fill="none" stroke="#000" stroke-linecap="round" stroke-linejoin="round" d="M28.073 35.095 25 38.169"/><circle cx="29.134" cy="34.035" r="1.5" fill="none" stroke="#000" stroke-linecap="round" stroke-linejoin="round"/><path fill="none" stroke="#000" stroke-linecap="round" stroke-linejoin="round" d="M31.998 37.045h6.98a1.335 1.335 0 0 0 1.332-1.331V18.667a1.6 1.6 0 0 0-.513-1.089L25 5 10.203 17.578a1.6 1.6 0 0 0-.513 1.09v17.046c.002.734.597 1.33 1.331 1.331h6.984"/></svg>