<svg xmlns="http://www.w3.org/2000/svg" data-name="Isolation Mode" viewBox="0 0 50 50"><path d="M14.096 32.86h-3.682c-3.76 0-6.818-3.026-6.818-6.745 0-3.542 2.785-6.465 6.303-6.727.253-5.175 4.588-9.307 9.88-9.307 1.242 0 2.45.226 3.596.67 1.795-4.142 5.974-6.89 10.559-6.89 6.33 0 11.482 5.096 11.482 11.36 0 .88-.103 1.757-.307 2.612a8.25 8.25 0 0 1 3.487 6.73 8.336 8.336 0 0 1-7.446 8.286l-3.054.003a.5.5 0 1 1 0-1h3c3.681-.408 6.5-3.543 6.5-7.288 0-2.46-1.245-4.74-3.331-6.096a.5.5 0 0 1-.21-.55c.24-.88.361-1.787.361-2.697 0-5.713-4.702-10.36-10.482-10.36-4.347 0-8.292 2.702-9.818 6.724a.5.5 0 0 1-.672.279 8.9 8.9 0 0 0-3.666-.783c-4.903 0-8.891 3.942-8.891 8.787a.5.5 0 0 1-.498.5c-3.195.014-5.793 2.592-5.793 5.747 0 3.168 2.61 5.746 5.818 5.746h3.682a.5.5 0 1 1 0 1m19.002 10.061a.75.75 0 0 1-.75-.75c0-.2.08-.39.22-.53.28-.28.78-.28 1.06 0a.75.75 0 0 1 0 1.06.75.75 0 0 1-.53.22"/><path d="M29.298 42.363c0-.42.33-.75.75-.75.41 0 .75.33.75.75a.75.75 0 1 1-1.5 0m-3.03 0a.749.749 0 1 1 1.5 0c0 .409-.34.75-.75.75s-.75-.341-.75-.75m-3.03 0c0-.42.34-.75.75-.75.42 0 .75.33.75.75a.75.75 0 1 1-1.5 0m-3.02 0c0-.42.33-.75.75-.75.41 0 .75.33.75.75a.75.75 0 1 1-1.5 0m-2.56-.04a.735.735 0 0 1-.22-1.03c.22-.35.68-.45 1.03-.231.35.22.45.69.23 1.04a.754.754 0 0 1-1.04.22m17.39-1.32a.76.76 0 0 1-.24-1.04c.22-.35.69-.46 1.04-.23.35.21.45.68.24 1.029-.15.23-.39.35-.64.35a.83.83 0 0 1-.4-.11m-19.49-1.45c-.12-.4.11-.82.5-.94.4-.12.82.109.94.5a.76.76 0 0 1-.5.94.76.76 0 0 1-.94-.5m19.79-2.09c0-.42.33-.75.75-.75.41 0 .75.33.75.75a.749.749 0 1 1-1.5 0m-20-1.14a.749.749 0 1 1 1.498-.002.749.749 0 0 1-1.498.002m20-1.891a.749.749 0 1 1 1.498-.002.749.749 0 0 1-1.498.002m-20-1.14c0-.41.33-.75.75-.75a.749.749 0 1 1 0 1.5c-.42 0-.75-.33-.75-.75m20-1.89a.749.749 0 1 1 .75.75.75.75 0 0 1-.75-.75m-20-1.13c0-.42.33-.75.75-.75.41 0 .75.33.75.75 0 .41-.34.74-.75.74a.74.74 0 0 1-.75-.74m20-1.9c0-.41.33-.75.75-.75a.749.749 0 1 1 0 1.5c-.42 0-.75-.33-.75-.75m-20-1.13c0-.42.33-.75.75-.75.41 0 .75.33.75.75a.749.749 0 1 1-1.5 0m19.84-1.65c-.12-.4.1-.82.5-.94s.82.1.94.5c.12.39-.1.81-.5.93-.07.03-.14.04-.22.04a.76.76 0 0 1-.72-.53m-18.83-.62a.737.737 0 0 1-.23-1.03c.22-.35.68-.46 1.03-.24.35.23.46.69.23 1.04-.14.23-.38.35-.63.35a.7.7 0 0 1-.4-.12m17.35-1.32a.75.75 0 0 1-.23-1.04c.22-.35.68-.45 1.03-.23s.45.68.23 1.04a.74.74 0 0 1-.63.34.7.7 0 0 1-.4-.11m-15.31-.89c-.12-.4.1-.81.5-.94.39-.12.81.11.93.5.13.4-.1.82-.49.94h-.01a.76.76 0 0 1-.93-.5m12.06-.4a.749.749 0 1 1 .75.75.75.75 0 0 1-.75-.75m-3.03 0c0-.41.34-.75.75-.75s.75.34.75.75-.34.75-.75.75-.75-.34-.75-.75m-3.03 0a.749.749 0 1 1 1.5 0 .749.749 0 1 1-1.5 0m-3.02 0a.749.749 0 1 1 .75.75.75.75 0 0 1-.75-.75m11.72 20.562a.75.75 0 0 1-.75-.75c0-.2.08-.39.22-.53.28-.28.78-.28 1.06 0a.75.75 0 0 1 0 1.06.75.75 0 0 1-.53.22m-9.368-9.056 1.183-4.262h1.024l-1.758 5.687h-.895l-1.754-5.687h1.024z"/><path d="M24.206 35.328h-.95l-.008-.026-1.768-5.735h1.102l.008.027 1.14 4.13 1.155-4.157h1.102l-.014.048zm-.894-.074h.84l1.734-5.613h-.944l-1.212 4.365-1.205-4.365h-.944zm6.509-2.514h-2.34v1.786h2.739v.765h-3.68v-5.687h3.652v.773h-2.71v1.606h2.34z"/><path d="M30.257 35.328h-3.754v-5.761h3.727v.847h-2.711v1.532h2.34v.832h-2.34v1.71h2.738zm-3.68-.074h3.606v-.691h-2.739v-1.86h2.34v-.683h-2.34v-1.68h2.711v-.7h-3.578z"/></svg>