<svg xmlns="http://www.w3.org/2000/svg" data-name="Isolation Mode" viewBox="0 0 50 50"><path fill="none" stroke="#000" stroke-linecap="round" stroke-linejoin="round" d="M41 31.509v2.982M37 31.509v2.982M33 31.509v2.982"/><path d="M10 32a1 1 0 1 1 0 2 1 1 0 0 1 0-2m0-1c-1.103 0-2 .897-2 2s.897 2 2 2 2-.897 2-2-.897-2-2-2"/><path fill="none" stroke="#000" stroke-miterlimit="10" d="M6.386 29h37.191c.785 0 1.423.638 1.423 1.423v5.19C45 36.38 44.379 37 43.614 37H6.386A1.387 1.387 0 0 1 5 35.614v-5.228C5 29.621 5.621 29 6.386 29Z"/><path fill="none" stroke="#000" stroke-linecap="round" stroke-linejoin="round" d="M41 23.509v2.982M37 23.509v2.982M33 23.509v2.982"/><path d="M10 24a1 1 0 1 1 0 2 1 1 0 0 1 0-2m0-1c-1.103 0-2 .897-2 2s.897 2 2 2 2-.897 2-2-.897-2-2-2"/><path fill="none" stroke="#000" stroke-miterlimit="10" d="M6.386 21h37.191c.785 0 1.423.638 1.423 1.423v5.19C45 28.38 44.379 29 43.614 29H6.386A1.387 1.387 0 0 1 5 27.614v-5.228C5 21.621 5.621 21 6.386 21Z"/><path fill="none" stroke="#000" stroke-linecap="round" stroke-linejoin="round" d="M41 15.509v2.982M37 15.509v2.982M33 15.509v2.982"/><path d="M10 16a1 1 0 1 1 0 2 1 1 0 0 1 0-2m0-1c-1.103 0-2 .897-2 2s.897 2 2 2 2-.897 2-2-.897-2-2-2"/><path fill="none" stroke="#000" stroke-miterlimit="10" d="M6.386 13h37.191c.785 0 1.423.638 1.423 1.423v5.19C45 20.38 44.379 21 43.614 21H6.386A1.387 1.387 0 0 1 5 19.614v-5.228C5 13.621 5.621 13 6.386 13Z"/></svg>