<svg xmlns="http://www.w3.org/2000/svg" data-name="Isolation Mode" viewBox="0 0 50 50"><circle cx="13.504" cy="35.755" r="9.25" fill="none" stroke="#000" stroke-linecap="round" stroke-linejoin="round"/><circle cx="11.006" cy="35.405" r="1.5" fill="none" stroke="#000" stroke-linecap="round" stroke-linejoin="round" stroke-width=".75"/><circle cx="15.953" cy="35.405" r="1.5" fill="none" stroke="#000" stroke-linecap="round" stroke-linejoin="round" stroke-width=".75"/><path fill="none" stroke="#000" stroke-linecap="round" stroke-linejoin="round" stroke-width=".75" d="M12.461 41.982v-2.083M14.545 39.899v2.083M13.824 38.69c.265 0 .48-.242.48-.54 0-.264-.58-1.084-.82-1.084s-.809.825-.809 1.084c0 .298.215.54.48.54z"/><path fill="none" stroke="#000" stroke-linecap="round" stroke-linejoin="round" stroke-width=".75" d="M10.897 41.504c0 .29 1.167.525 2.606.525s2.606-.235 2.606-.525v-2.126s3.804.005 3.196-4.703c-.354-2.745-2.266-4.14-3.799-4.788a5.13 5.13 0 0 0-4 0c-1.534.647-3.448 2.042-3.802 4.788-.608 4.708 3.193 4.703 3.193 4.703z"/><path fill="none" stroke="#000" stroke-linecap="round" stroke-miterlimit="10" d="M9.318 25.23a17.6 17.6 0 0 1-.212-2.735c0-9.665 7.835-17.5 17.5-17.5s17.5 7.835 17.5 17.5-7.835 17.5-17.5 17.5q-.963 0-1.9-.102"/><path fill="none" stroke="#000" stroke-linecap="round" stroke-linejoin="round" d="M36.53 29.738 25.951 19.16a5.16 5.16 0 0 0-2.266-7.085c-2.385-1.173-5.363-.284-6.715 2.005a5.16 5.16 0 0 0 6.896 7.165l3.279 3.284-2.241 2.234a1.475 1.475 0 1 0 2.086 2.085h.002l2.237-2.238 2.086 2.084-2.239 2.239a1.474 1.474 0 0 0 2.085 2.085l2.24-2.238.986.99c.511.514 1.33.644 1.926.232a1.477 1.477 0 0 0 .215-2.264M21.421 18.49a1.843 1.843 0 1 1 0-3.686 1.843 1.843 0 0 1 0 3.686"/></svg>