<svg xmlns="http://www.w3.org/2000/svg" viewBox="0 0 50 50"><path fill="#231f20" d="m46.47 38.322-5.964.092c7.044-8.15 6.57-20.53-1.296-28.132-7.243-7-18.351-7.759-26.412-1.807a.5.5 0 0 0 .594.804c7.667-5.66 18.234-4.935 25.123 1.722 7.435 7.185 7.93 18.855 1.368 26.608l-.11-5.757c-.004-.276-.226-.51-.508-.49a.5.5 0 0 0-.491.51l.133 7.02a.49.49 0 0 0 .145.39l.003.002c.09.09.215.147.353.147h.008l7.07-.109a.5.5 0 0 0 .492-.508c-.005-.276-.203-.5-.508-.492m-9.878 2.398c-7.668 5.66-18.234 4.938-25.124-1.72-7.44-7.19-7.93-18.874-1.352-26.626l.11 5.792a.5.5 0 0 0 .5.49h.01a.5.5 0 0 0 .49-.51l-.134-7.07c-.005-.247-.17-.464-.424-.481a.5.5 0 0 0-.131-.008l-7.022.108a.5.5 0 0 0 .007 1h.008l5.933-.091c-7.03 8.149-6.551 20.518 1.31 28.115 3.98 3.845 9.126 5.807 14.293 5.807 4.237 0 8.488-1.319 12.12-4a.5.5 0 0 0-.594-.804"/><path fill="#231f20" d="M38.217 24.967a.5.5 0 0 0-.029-.145c-.015-.039-.039-.07-.062-.104-.01-.014-.015-.03-.026-.044l-.015-.016-.013-.015-3.026-3.443a.5.5 0 0 0-.75.66l2.32 2.64H31.81a5.11 5.11 0 0 0-3.77-4.437l1.806-5.352 1.76 3.043a.5.5 0 1 0 .865-.5l-2.295-3.969-.01-.016-.01-.019c-.009-.015-.022-.024-.032-.037-.025-.034-.049-.068-.082-.096a.5.5 0 0 0-.116-.067c-.014-.006-.025-.018-.04-.023h-.003a.5.5 0 0 0-.191-.024l-.022.005a.5.5 0 0 0-.14.031l-4.261 1.785a.5.5 0 1 0 .387.922l3.244-1.36-1.862 5.518c-.102-.006-.2-.031-.304-.031-2.656 0-4.82 2.037-5.076 4.627h-4.307a2.81 2.81 0 0 0-2.763-2.313c-1.55 0-2.813 1.261-2.813 2.813s1.262 2.813 2.813 2.813c1.38 0 2.526-1 2.763-2.313h4.307c.256 2.59 2.42 4.627 5.076 4.627.104 0 .202-.025.304-.03l1.862 5.516-3.244-1.36a.5.5 0 1 0-.387.923l4.26 1.785a.5.5 0 0 0 .194.039l.004-.001a.5.5 0 0 0 .16-.026c.018-.007.032-.021.05-.03a.5.5 0 0 0 .205-.18l.014-.013.01-.019.01-.016 2.295-3.969a.5.5 0 1 0-.865-.5l-1.76 3.043-1.806-5.352a5.11 5.11 0 0 0 3.77-4.437h4.81l-2.325 2.64a.5.5 0 1 0 .75.66l3.053-3.466c.03-.033.047-.072.066-.11.006-.012.016-.022.021-.035a.5.5 0 0 0 .038-.187V25c0-.012-.006-.021-.007-.033M14.59 26.813c-1 0-1.813-.813-1.813-1.813s.813-1.813 1.813-1.813S16.403 24 16.403 25s-.814 1.813-1.814 1.813m12.146 2.314c-2.276 0-4.127-1.852-4.127-4.127s1.851-4.127 4.127-4.127 4.127 1.852 4.127 4.127-1.852 4.127-4.127 4.127"/></svg>