<svg xmlns="http://www.w3.org/2000/svg" viewBox="0 0 50 50"><g fill="none" stroke="#231f20" stroke-linecap="round" stroke-linejoin="round" data-name="Isolation Mode"><circle cx="24.583" cy="26.128" r="15.188"/><path d="M27.502 27.462c1.92-1.389 3.225-4.106 3.225-7.231 0-4.538-2.75-6.253-6.142-6.253s-6.142 1.715-6.142 6.253c0 3.126 1.305 5.843 3.226 7.232"/><path d="m12.902 35.835.817-4a3.8 3.8 0 0 1 1.656-2.15s2.59-1.603 6.293-2.223c.868.628 1.86 1.039 2.917 1.039s2.049-.41 2.917-1.039"/><path d="m36.333 35.75-.886-3.915a3.8 3.8 0 0 0-1.656-2.15s-2.591-1.603-6.293-2.223"/></g><g fill="none" stroke="#231f20" stroke-linecap="round" stroke-linejoin="round"><g data-name="Group 13221"><path d="m2.083 48.628 9.158-9.159" data-name="Line 154"/><path d="M11.241 46.338V39.47H4.372" data-name="Path 60447"/></g><g data-name="Group 13221"><path d="m47.083 3.628-9.159 9.158" data-name="Line 154"/><path d="M37.924 5.917v6.87h6.87" data-name="Path 60447"/></g><g data-name="Group 13221"><path d="m2.083 3.628 9.158 9.158" data-name="Line 154"/><path d="M4.372 12.786h6.87V5.917" data-name="Path 60447"/></g><g data-name="Group 13221"><path d="m47.083 48.628-9.159-9.159" data-name="Line 154"/><path d="M44.793 39.47h-6.869v6.868" data-name="Path 60447"/></g></g></svg>