<svg xmlns="http://www.w3.org/2000/svg" viewBox="0 0 50 50"><rect width="40" height="40" x="5" y="5" fill="none" stroke="#000" stroke-linecap="round" stroke-linejoin="round" rx="8.52" ry="8.52"/><g fill="none" stroke="#000" stroke-linecap="round" stroke-linejoin="round"><circle cx="25" cy="25" r="6.96"/><path d="m32.818 13.907-1.168 3.436.136.117q.519.47.96.992l3.38-1.227"/><path d="m31.65 17.343 1.168-3.436q-.992-.7-2.063-1.202l-2.315 2.752m8.878 3.835-2.73 2.395q.241.703.379 1.431l3.545.598"/><path d="m34.588 21.687 2.73-2.395a13.5 13.5 0 0 0-1.193-2.067l-3.38 1.227m-5.89-3.426-.733-3.552a13.7 13.7 0 0 0-2.388.013l-.602 3.544"/><path d="m26.122 11.474.733 3.552q.805.15 1.585.43l2.315-2.751m-2.436 21.881 2.395 2.73a13.5 13.5 0 0 0 2.067-1.195l-1.229-3.38M19.31 12.674l2.39 2.734q.706-.242 1.432-.377l.602-3.544M34.976 26.84l3.551-.736a13.7 13.7 0 0 0-.015-2.388l-3.545-.598"/><path d="m36.098 32.812-3.438-1.167q-.058.072-.12.14-.468.519-.988.957l1.23 3.379"/><path d="m32.66 31.645 3.438 1.167q.699-.992 1.2-2.063l-2.753-2.314m3.982-2.331-3.551.737q-.15.81-.43 1.594l2.752 2.314m-14.133 4.228.739 3.55c.795.065 1.594.06 2.388-.016l.595-3.545m-9.727 1.112 1.176-3.434-.122-.104a10 10 0 0 1-.972-1.007l-3.382 1.22"/><path d="m18.336 32.644-1.176 3.434q.991.702 2.061 1.206l2.32-2.748m2.363 3.992-.74-3.551q-.825-.151-1.622-.44l-2.32 2.747m11.492.031-2.395-2.729q-.706.242-1.432.38l-.595 3.545M15.406 28.295l-2.735 2.388q.496 1.078 1.189 2.07l3.382-1.22m-3.325-14.367 3.435 1.174c.037-.042.07-.085.108-.126q.475-.524 1.003-.969l-1.223-3.38"/><path d="m21.7 15.408-2.39-2.734c-.717.331-1.41.73-2.07 1.19l1.223 3.381m-1.111 1.095-3.435-1.174a13.6 13.6 0 0 0-1.204 2.062l2.749 2.319m-.435 1.593-3.552.73c-.066.796-.062 1.595.012 2.388l3.543.604m-2.359 3.821 2.735-2.388q-.24-.705-.376-1.433l-3.543-.604"/><path d="m11.475 23.87 3.552-.73q.15-.81.435-1.593l-2.749-2.32"/></g></svg>