<svg xmlns="http://www.w3.org/2000/svg" viewBox="0 0 50 50"><path fill="none" stroke="#000" stroke-linecap="round" stroke-linejoin="round" d="M13 33.484H9.318C5.828 33.484 3 30.687 3 27.237c0-3.44 2.814-6.23 6.291-6.245v-.002c0-5.128 4.205-9.285 9.391-9.285 1.38 0 2.69.297 3.87.826 1.563-4.116 5.577-7.047 10.286-7.047 6.065 0 10.982 4.862 10.982 10.86 0 .978-.133 1.926-.378 2.828C45.584 20.566 47 22.962 47 25.687c0 4.012-3.06 7.355-7 7.788h-3"/><g fill="none" stroke="#000"><path stroke-linecap="round" stroke-linejoin="round" d="M30.993 22.326q-.63.03-1.256.054l-.001-.005-3.002-2.306c-.99-.762-2.184-.78-3.187-.049l-3.232 2.36a97 97 0 0 1-1.256-.054c-2.372-.118-4.222-.791-4.222 2.46s.44 8.524.44 8.524-.264 3.955 4.31 7.294c3.935 2.872 5.424 3.912 5.424 3.912h0s1.52-1.04 5.454-3.912c4.574-3.34 4.31-7.294 4.31-7.294s.44-5.272.44-8.524-1.85-2.578-4.222-2.46"/><path stroke-linecap="round" stroke-linejoin="round" d="m28.387 28.052-4.37 6.611-2.352-3.122"/><circle cx="25.026" cy="31.358" r="6.418" stroke-miterlimit="10"/></g></svg>