<svg xmlns="http://www.w3.org/2000/svg" viewBox="0 0 50 50"><g fill="none" stroke="#000" stroke-linecap="round" stroke-linejoin="round"><path d="m46.478 38.822-7.07.11-.134-7.071M3.522 11.194l7.07-.109.134 7.07"/><path d="M36.889 41.123c-7.704 5.686-18.63 5.134-25.769-1.765-7.957-7.69-8.197-20.351-.536-28.281m2.511-2.2c7.704-5.686 18.629-5.134 25.768 1.765 7.957 7.69 8.197 20.351.536 28.281"/></g><g fill="none" stroke="#000" stroke-linecap="round" stroke-linejoin="round"><ellipse cx="25.001" cy="25" rx="6.386" ry="6.366"/><path d="m14.497 32.32 2.14-2.668-.083-.147a10 10 0 0 1-.534-1.185l-3.396.006m4.013 1.326-2.14 2.669q.656.937 1.447 1.723l2.939-1.696m-6.655-6.234 3.193-1.247a9.5 9.5 0 0 1 .122-1.388l-2.956-1.663"/><path d="m15.42 24.867-3.192 1.247q.098 1.112.396 2.212l3.396-.006m4.133 4.916-.489 3.38q1.03.468 2.125.751l1.672-2.945"/><path d="m19.664 36.615.489-3.379a9.6 9.6 0 0 1-1.27-.888l-2.94 1.696m9.183-18.593-1.252-3.182q-1.116.098-2.219.397l.008 3.384M26.1 37.73l-1.247-3.184a10 10 0 0 1-1.392-.124l-1.672 2.945M16.73 20.18l-3.391-.483a13 13 0 0 0-.752 2.12l2.956 1.662m2.105-8.944 2.679 2.132q.075-.044.152-.086a10 10 0 0 1 1.184-.53l-.008-3.385M20.327 16.667l-2.679-2.132q-.939.654-1.728 1.443l1.703 2.929"/><path d="m13.339 19.697 3.39.483q.392-.67.894-1.273l-1.703-2.93m13.91.776.482-3.38a13 13 0 0 0-2.126-.748l-1.667 2.948m8.996 2.125-2.145 2.664.074.131a10 10 0 0 1 .541 1.203h3.395m-4.01-1.334 2.145-2.664a12.7 12.7 0 0 0-1.444-1.726l-2.942 1.69"/><path d="m30.312 13.373-.483 3.38q.684.398 1.3.909l2.942-1.69M23.874 12.27l1.252 3.181q.703.01 1.393.122l1.667-2.948m6.391 12.525 3.195-1.24q-.095-1.114-.392-2.214h-3.395M32.33 35.478l-2.675-2.137-.136.077a10 10 0 0 1-1.2.537v3.384"/><path d="m24.853 34.546 1.247 3.185a13 13 0 0 0 2.22-.392l-.002-3.384m1.337-.615 2.675 2.138a13 13 0 0 0 1.73-1.44l-1.697-2.932m.897-1.272 3.39.49q.47-1.028.755-2.118l-2.954-1.668m3.321-2.628-3.195 1.24a9.5 9.5 0 0 1-.126 1.388l2.954 1.668m-.755 2.118-3.39-.49q-.394.669-.897 1.272l1.698 2.932"/></g></svg>