<svg xmlns="http://www.w3.org/2000/svg" data-name="Isolation Mode" viewBox="0 0 50 50"><path fill="none" stroke="#000" stroke-linecap="round" stroke-linejoin="round" d="M23 35.46H9.318C5.828 35.46 3 32.663 3 29.213c0-3.44 2.814-6.23 6.291-6.245v-.002c0-5.128 4.205-9.285 9.391-9.285 1.38 0 2.69.297 3.87.826C24.116 10.39 28.13 7.46 32.839 7.46c6.065 0 10.982 4.862 10.982 10.86 0 .978-.133 1.926-.378 2.828C45.584 22.542 47 24.938 47 27.663c0 4.012-3.065 7.316-7.006 7.75H29"/><g fill="none" stroke="#000" stroke-linecap="round" stroke-linejoin="round"><path d="M26 42.54v-18" data-name="Line 154"/><path d="m20 30.54 6-6 6 6" data-name="Path 60447"/></g></svg>