<svg xmlns="http://www.w3.org/2000/svg" viewBox="0 0 50 50"><g fill="none" stroke="#000" stroke-linecap="round" stroke-linejoin="round"><path d="m19.548 19.804 6.95-2.598M4.066 19.565 8.414 31.03s6.632-2.454 13.74-5.093l-2.88 11.167 4.836-1.805 5.104-11.985c3.891-1.448 12.525-3.023 15.938-6.45.408-.41.781-.928.782-1.506.005-2.237-3.593-2.583-6.081-2.43-1.332.08-2.337.24-3.404.48-2.289.516-9.95 3.798-9.95 3.798l-10.785-2.543-4.19 1.43 8.024 3.71-8.192 2.95c-.561-.706-3.635-3.03-4.186-3.662z"/></g><path fill="none" stroke="#000" stroke-linecap="round" stroke-linejoin="round" d="m22.154 25.937.537-2 7.482-2.949-.959 2.326"/></svg>