<svg xmlns="http://www.w3.org/2000/svg" data-name="Isolation Mode" viewBox="0 0 50 50"><path fill="none" stroke="#000" stroke-linecap="round" stroke-linejoin="round" d="M35.49 44.38a1.794 1.794 0 0 1-1.806-1.784c0-.983.804-1.78 1.798-1.785q0 0 0 0c0-1.465 1.2-2.653 2.683-2.653.394 0 .768.085 1.106.236a3.14 3.14 0 0 1 2.938-2.013c1.733 0 3.138 1.389 3.138 3.102q-.002.42-.108.809a2.22 2.22 0 0 1 1.017 1.86c0 1.231-1.01 2.229-2.254 2.229zm0-30.76c-.998 0-1.806-.8-1.806-1.786 0-.983.804-1.78 1.798-1.784q0 0 0 0c0-1.466 1.2-2.654 2.683-2.654.394 0 .768.085 1.106.236a3.14 3.14 0 0 1 2.938-2.013c1.733 0 3.138 1.39 3.138 3.103q-.002.42-.108.808a2.22 2.22 0 0 1 1.017 1.861c0 1.23-1.01 2.228-2.254 2.228zm-29.94 0c-.997 0-1.806-.8-1.806-1.786 0-.983.804-1.78 1.798-1.784q0 0 0 0c0-1.466 1.201-2.654 2.683-2.654a2.7 2.7 0 0 1 1.106.236 3.14 3.14 0 0 1 2.938-2.013c1.733 0 3.138 1.39 3.138 3.103q-.002.42-.108.808a2.22 2.22 0 0 1 1.017 1.861c0 1.23-1.009 2.228-2.253 2.228zm0 30.76a1.795 1.795 0 0 1-1.806-1.784c0-.983.804-1.78 1.798-1.785q0 0 0 0c0-1.465 1.201-2.653 2.683-2.653a2.7 2.7 0 0 1 1.106.236 3.14 3.14 0 0 1 2.938-2.013c1.733 0 3.138 1.389 3.138 3.102q-.002.42-.108.809a2.22 2.22 0 0 1 1.017 1.86c0 1.231-1.009 2.229-2.253 2.229zM29.634 30.796l7.538 7.539M12.47 13.632l6.751 6.751M20.257 30.682l-6.184 6.184M37.306 13.632l-6.599 6.6"/><g fill="none" stroke="#000" stroke-linecap="round" stroke-miterlimit="10"><circle cx="24.95" cy="24.995" r="7.368"/><path d="M21.508 25.253 24 27.746l4.39-5.583"/></g></svg>