<svg xmlns="http://www.w3.org/2000/svg" viewBox="0 0 50 50"><path fill="none" stroke="#000" stroke-linecap="round" stroke-linejoin="round" d="M36.59 9.215 19.664 26.14a8.256 8.256 0 0 0-11.335 3.625c-1.878 3.816-.456 8.582 3.207 10.744A8.256 8.256 0 0 0 23 29.477l5.253-5.248 3.575 3.587a2.36 2.36 0 1 0 3.337-3.338v-.005l-3.582-3.578 3.336-3.338 3.582 3.582a2.36 2.36 0 0 0 3.336-3.336l-3.58-3.583 1.584-1.579c.821-.818 1.03-2.129.37-3.081a2.363 2.363 0 0 0-3.621-.345M18.593 33.388a2.95 2.95 0 1 1-5.899 0 2.95 2.95 0 0 1 5.899 0"/></svg>