<svg xmlns="http://www.w3.org/2000/svg" viewBox="0 0 50 50"><path fill="none" stroke="#000" stroke-linecap="round" stroke-linejoin="round" d="M20.36 22.509V5.998c0-.551.447-.998.998-.998h18.005c.55 0 .997.447.997.998v38.004a1 1 0 0 1-.997.998H21.358a1 1 0 0 1-.998-.998v-16.98"/><g fill="none" stroke="#000" stroke-linecap="round" stroke-linejoin="round"><path d="M5.13 25h26.025M28.511 27.884 31.395 25l-2.884-2.884"/></g><g fill="none" stroke="#000" stroke-linecap="round" stroke-linejoin="round"><path d="M5.13 35.629h10.427M12.92 38.506l2.876-2.877-2.877-2.877"/></g><g fill="none" stroke="#000" stroke-linecap="round" stroke-linejoin="round"><path d="M5.13 12.906h10.427M12.92 15.783l2.876-2.877-2.877-2.877"/></g></svg>