<svg xmlns="http://www.w3.org/2000/svg" data-name="Isolation Mode" viewBox="0 0 50 50"><g fill="none" stroke="#000" stroke-linecap="round" stroke-linejoin="round"><path d="M25.276 31.49H47V10.252H17.001v5.177M33.139 31.49v7.982M29.447 39.472l3.692-3.887M36.831 39.472l-3.692-3.887"/><path d="m28.712 17.595-5.48 3.276 5.48 3.277M35.289 24.148l5.48-3.277-5.48-3.276M33.097 17.595l-2.192 6.553"/></g><g fill="none" stroke="#000" stroke-linecap="round" stroke-linejoin="round"><path d="M16.337 28.155c1.607-1.162 2.699-3.436 2.699-6.051 0-3.798-2.301-5.234-5.14-5.234s-5.14 1.436-5.14 5.234c0 2.615 1.092 4.89 2.7 6.052"/><path d="m3 39.748 1.803-7.934a3.17 3.17 0 0 1 1.385-1.798s2.168-1.342 5.267-1.86c.726.525 1.557.868 2.44.868.884 0 1.716-.343 2.442-.869"/><path d="m24.788 39.748-1.802-7.934a3.17 3.17 0 0 0-1.386-1.798s-2.168-1.342-5.266-1.86"/></g></svg>