<svg xmlns="http://www.w3.org/2000/svg" data-name="Isolation Mode" viewBox="0 0 50 50"><g fill="none" stroke="#000" stroke-linecap="round" stroke-linejoin="round"><path d="M28.574 24.77c2.35-1.727 3.948-5.106 3.948-8.993 0-5.643-3.367-7.777-7.52-7.777s-7.519 2.134-7.519 7.777c0 3.888 1.598 7.267 3.95 8.995"/><path d="M9.063 42 11.7 30.21a4.7 4.7 0 0 1 2.027-2.674s3.172-1.994 7.704-2.765c1.063.78 2.279 1.292 3.572 1.292 1.292 0 2.508-.511 3.57-1.292"/><path d="M40.938 42 38.3 30.21a4.7 4.7 0 0 0-2.027-2.674s-3.172-1.994-7.704-2.765"/></g><g fill="none" stroke="#000" stroke-linecap="round" stroke-linejoin="round"><path d="M40.674 24.385c1.203-.863 2.02-2.553 2.02-4.496 0-2.822-1.722-3.889-3.847-3.889S35 17.067 35 19.889c0 1.943.818 3.633 2.02 4.497"/><path d="M37.02 24.385c.544.39 1.166.646 1.827.646.662 0 1.284-.255 1.827-.646"/><path d="m47 33-1.35-5.895a2.36 2.36 0 0 0-1.037-1.337s-1.622-.997-3.941-1.383"/></g><g fill="none" stroke="#000" stroke-linecap="round" stroke-linejoin="round"><path d="M9.326 24.385c-1.203-.863-2.02-2.553-2.02-4.496 0-2.822 1.722-3.889 3.847-3.889S15 17.067 15 19.889c0 1.943-.818 3.633-2.02 4.497"/><path d="M12.98 24.385c-.544.39-1.166.646-1.827.646-.662 0-1.284-.255-1.827-.646"/><path d="m3 33 1.35-5.895a2.36 2.36 0 0 1 1.037-1.337s1.622-.997 3.941-1.383"/></g></svg>