<svg xmlns="http://www.w3.org/2000/svg" viewBox="0 0 50 50"><g fill="none" stroke="#000" stroke-miterlimit="10"><path d="M40.064 27.045a2.892 2.892 0 1 0 0-4.09M27.045 9.936a2.892 2.892 0 1 0-4.09 0m0 30.128a2.892 2.892 0 1 0 4.09 0m4.465-4.465a2.892 2.892 0 0 0 4.09-4.09M18.49 14.401a2.892 2.892 0 0 0-4.09 4.09m21.199-.001a2.892 2.892 0 1 0-4.09-4.09M14.401 31.51a2.892 2.892 0 1 0 4.09 4.09M9.936 22.955a2.892 2.892 0 1 0 0 4.09M22.108 25A2.89 2.89 0 0 1 25 22.108"/><path d="M25 10.783a2.88 2.88 0 0 1-2.045-.847l-4.465 4.465a2.892 2.892 0 1 1-4.09 4.09l-4.464 4.464A2.88 2.88 0 0 1 10.783 25M25 27.892A2.89 2.89 0 0 1 22.108 25m-11.325 0c0 .799-.324 1.521-.847 2.045l4.465 4.465a2.892 2.892 0 1 1 4.09 4.09l4.464 4.464A2.88 2.88 0 0 1 25 39.217M39.217 25c0-.798.324-1.521.847-2.045l-4.465-4.465a2.892 2.892 0 1 1-4.09-4.09l-4.464-4.464a2.88 2.88 0 0 1-2.045.847m0 11.325A2.89 2.89 0 0 1 27.892 25m0 0A2.89 2.89 0 0 1 25 27.892m0 11.325c.799 0 1.521.324 2.045.847l4.465-4.465a2.892 2.892 0 0 1 4.09-4.09l4.464-4.464A2.88 2.88 0 0 1 39.217 25M31.51 18.491 27 23M27.044 27.045l4.465 4.465M22.955 27.044l-4.465 4.465M22.955 22.956l-4.478-4.479"/></g><g fill="none" stroke="#000" stroke-linecap="round" stroke-linejoin="round"><path d="m17 22 3 3-3 3M13 25h7M34 22l3 3-3 3M30 25h7"/></g></svg>