<svg xmlns="http://www.w3.org/2000/svg" data-name="Isolation Mode" viewBox="0 0 50 50"><g fill="none" stroke="#000" stroke-linecap="round" stroke-linejoin="round"><path d="m34.594 32.282-4.585 4.649" data-name="Line 255"/><path d="m29.932 32.282 4.584 4.649" data-name="Line 256"/></g><path fill="none" stroke="#000" stroke-linecap="round" stroke-linejoin="round" d="m20.454 25.838-3.07 4.65-1.592-2.295" data-name="Path 60912"/><g fill="none" stroke="#000" stroke-linecap="round" stroke-linejoin="round"><path d="M35.016 27.864c1.934-1.417 3.248-4.19 3.248-7.379 0-4.63-2.77-6.38-6.186-6.38s-6.186 1.75-6.186 6.38c0 3.19 1.315 5.963 3.25 7.38"/><path d="m18.964 42 2.17-9.674c.267-.912.86-1.69 1.668-2.193 0 0 2.61-1.636 6.338-2.269.874.64 1.875 1.06 2.938 1.06s2.064-.42 2.938-1.06"/><path d="m45.188 42-2.17-9.674a3.86 3.86 0 0 0-1.668-2.193s-2.61-1.636-6.338-2.269"/></g><g fill="none" stroke="#000" stroke-linecap="round" stroke-linejoin="round"><path d="M20.864 21.76c1.934-1.417 3.248-4.19 3.248-7.379 0-4.63-2.77-6.381-6.186-6.381s-6.186 1.75-6.186 6.381c0 3.19 1.315 5.962 3.25 7.38"/><path d="m4.813 35.896 2.17-9.674a3.86 3.86 0 0 1 1.667-2.194s2.61-1.635 6.338-2.268c.874.64 1.875 1.06 2.938 1.06s2.064-.42 2.938-1.06"/></g></svg>