<svg xmlns="http://www.w3.org/2000/svg" viewBox="0 0 50 50"><g fill="none" stroke="#000" data-name="Layer 1"><path stroke-linecap="round" stroke-linejoin="round" d="m10.05 22.691 9.346-.087 1.15 2.8 2.581-9.954 4.438 14.355 3.011-10.165 2.228 5.763 1.03-2.74h4.919"/><path stroke-miterlimit="10" stroke-width="1.001" d="M36.757 16.685a29 29 0 0 0 2.624-2.476c1.071-1.22 1.071-2.621.473-3.451-.597-.83-2.27-1.132-3.097.502-.926-1.634-2.5-1.354-3.098-.52-.597.833-.605 2.217.488 3.436q1.23 1.332 2.61 2.509Z"/></g><g fill="none" stroke="#000" data-name="Isolation Mode"><path stroke-linecap="round" stroke-linejoin="round" d="M25.535 40h12.06a7.455 7.455 0 0 0 7.456-7.455v-20.09A7.455 7.455 0 0 0 37.596 5h-20.09a7.455 7.455 0 0 0-7.455 7.455v12.077"/><g stroke-linecap="round" stroke-linejoin="round"><path d="m15.323 26.024.492 2.498.124.022q.481.103.932.266l1.627-1.933 1.45.836-.823 2.414q.395.343.732.736l2.367-.883.846 1.445-1.903 1.696q.192.544.296 1.12l2.486.437-.008 1.675-2.5.5-.025.127q-.104.48-.266.928l1.931 1.62-.84 1.452-2.414-.815a7 7 0 0 1-.738.733l.88 2.363-1.448.849-1.694-1.897q-.555.198-1.142.303L15.235 45l-1.676-.008-.488-2.499-.11-.02a7 7 0 0 1-.945-.27l-1.631 1.93-1.449-.84.828-2.412a7 7 0 0 1-.73-.737l-2.369.878-.843-1.446 1.906-1.692a7 7 0 0 1-.293-1.12l-2.486-.443.011-1.675 2.502-.495.022-.114q.104-.486.27-.94l-1.928-1.625.843-1.45 2.413.82q.344-.393.74-.731l-.876-2.365 1.45-.847 1.69 1.9a7 7 0 0 1 1.115-.295l.445-2.485z"/><circle cx="14.449" cy="35.51" r="4.73"/></g><path stroke-miterlimit="10" d="M40.253 21.128a1.5 1.5 0 1 1 0 3 1.5 1.5 0 0 1 0-3Z"/></g></svg>