<svg xmlns="http://www.w3.org/2000/svg" data-name="Layer 1" viewBox="0 0 50 50"><path fill="none" stroke="#000" stroke-linecap="round" stroke-miterlimit="10" d="m10.535 16.735 6.589 3.765M32.895 29.466l6.694 3.825M10.445 33.316l6.679-3.816M32.876 20.5l6.577-3.785M39.685 13.234 26.02 5.28v0a2 2 0 0 0-2.046 0v0l-13.662 7.952m29.278 23.59-13.57 7.897v0a2 2 0 0 1-2.046 0v0l-13.556-7.89"/><circle cx="8" cy="15.142" r="3" fill="none" stroke="#000" stroke-linecap="round" stroke-miterlimit="10"/><circle cx="8" cy="35.053" r="3" fill="none" stroke="#000" stroke-linecap="round" stroke-miterlimit="10"/><circle cx="42" cy="15.142" r="3" fill="none" stroke="#000" stroke-linecap="round" stroke-miterlimit="10"/><circle cx="42" cy="35.053" r="3" fill="none" stroke="#000" stroke-linecap="round" stroke-miterlimit="10"/><path fill="none" stroke="#000" stroke-linecap="round" stroke-miterlimit="10" d="M17.124 29.5a.9.9 0 0 0 .345.34l7.062 4.034h0a.93.93 0 0 0 .938 0l7.062-4.035a.92.92 0 0 0 .469-.804v-8.07h0a.91.91 0 0 0-.47-.804l-7.061-4.034v0a.93.93 0 0 0-.938 0v0L17.47 20.16a.92.92 0 0 0-.47.804h0v8.07a.9.9 0 0 0 .124.465"/></svg>