<svg xmlns="http://www.w3.org/2000/svg" viewBox="0 0 50 50"><path fill-rule="evenodd" d="M31.88 22.249a.497.497 0 0 0-.486.48v4.541c0 .27.242.481.485.481.273 0 .486-.21.486-.48V22.73a.477.477 0 0 0-.486-.481"/><path d="M31.88 22.249a.497.497 0 0 0-.486.48v4.541c0 .27.242.481.485.481.273 0 .486-.21.486-.48V22.73a.477.477 0 0 0-.486-.481"/><path fill-rule="evenodd" d="M18.12 22.249a.497.497 0 0 0-.485.48v4.541c0 .27.243.481.486.481.273 0 .485-.21.485-.48V22.73a.477.477 0 0 0-.485-.481"/><path d="M18.12 22.249a.497.497 0 0 0-.485.48v4.541c0 .27.243.481.486.481.273 0 .485-.21.485-.48V22.73a.477.477 0 0 0-.485-.481"/><path fill="none" stroke="#000" stroke-miterlimit="10" d="M22.693 21.852c.806 0 1.487.66 1.487 1.5s-.68 1.5-1.487 1.5c-.832 0-1.513-.661-1.513-1.5s.68-1.5 1.513-1.5Zm4.632 0c.813 0 1.5.66 1.5 1.5s-.687 1.5-1.5 1.5c-.84 0-1.5-.661-1.5-1.5s.66-1.5 1.5-1.5Zm2.268-2.193h-9.166c-.521.03-.92.427-.92.946v8.76c0 .549.43.976.95.976h9.075a.986.986 0 0 0 .98-.977v-8.759c0-.519-.428-.915-.919-.946Z"/><path fill="none" stroke="#000" stroke-linecap="round" stroke-linejoin="round" d="m21.06 26.615 1.568 1.96 1.745-2.03 1.524 1.988 1.606-1.95 1.496 1.98"/><g fill="none" stroke="#000" stroke-linecap="round" stroke-linejoin="round"><path d="M36.521 8.653 34.8 13.717c.067.058.135.112.201.172.512.46.98.95 1.414 1.462l4.98-1.809m-6.596.175 1.722-5.064a20 20 0 0 0-3.04-1.772l-3.412 4.056m13.083 5.653-4.023 3.527q.357 1.038.558 2.11l5.224.88"/><path d="m39.129 20.117 4.023-3.528a20 20 0 0 0-1.758-3.047l-4.98 1.809m-8.681-5.048-1.08-5.235a20 20 0 0 0-3.518.019l-.888 5.223m4.407-5.242 1.08 5.235q1.186.22 2.335.634l3.412-4.056M29.89 39.126l3.531 4.022a20 20 0 0 0 3.045-1.76l-1.81-4.98M16.615 6.837l3.522 4.028a15 15 0 0 1 2.11-.555l.888-5.223M39.7 27.713l5.234-1.087c.095-1.172.088-2.35-.023-3.518l-5.224-.88"/><path d="m41.354 36.512-5.066-1.72c-.06.07-.116.14-.177.208-.458.51-.947.977-1.455 1.408l1.81 4.98"/><path d="m36.288 34.793 5.066 1.72a20 20 0 0 0 1.77-3.041l-4.058-3.41"/><path d="m44.934 26.626-5.233 1.087q-.22 1.194-.635 2.349l4.057 3.41m-20.828 6.23 1.09 5.233a20 20 0 0 0 3.518-.025l.878-5.224m-14.334 1.64 1.732-5.062q-.09-.075-.179-.153a15 15 0 0 1-1.433-1.484l-4.983 1.799m6.596-.162-1.733 5.062a20 20 0 0 0 3.037 1.776l3.42-4.049m3.481 5.882-1.09-5.233a15 15 0 0 1-2.391-.649l-3.42 4.049"/><path d="m33.421 43.148-3.53-4.022a15 15 0 0 1-2.11.56l-.878 5.224M10.862 29.855l-4.03 3.52a20 20 0 0 0 1.752 3.05l4.983-1.798M8.668 13.456l5.062 1.73c.054-.062.104-.125.159-.186.465-.517.96-.99 1.477-1.427l-1.8-4.983"/><path d="m20.137 10.865-3.522-4.028a20 20 0 0 0-3.05 1.753l1.801 4.983m-1.636 1.612-5.062-1.729a20 20 0 0 0-1.774 3.038l4.05 3.418m-.64 2.347-5.235 1.077a20 20 0 0 0 .017 3.518l5.222.89m-3.476 5.631 4.03-3.52a15 15 0 0 1-.554-2.11l-5.222-.89M5.069 23.336l5.235-1.077q.222-1.195.64-2.347l-4.05-3.418"/><circle cx="25" cy="25" r="10"/></g></svg>