<svg xmlns="http://www.w3.org/2000/svg" viewBox="0 0 50 50"><path fill="none" stroke="#000" stroke-linecap="round" stroke-linejoin="round" d="M33.653 26.901h5.71c.695 0 2.38-.4 2.38-2.678s-1.685-2.574-2.38-2.574H29.014c1.271-2.904 1.922-3.55 1.922-5.305s.616-8.439-3.16-8.956c-2.697-.37-2.418 1.662-2.511 2.585s-.837 6.371-1.58 7.295-3.813 4.28-4.185 4.28-3.75.031-3.75.031m17.926 10.575h5.687c.694 0 2.379-.4 2.379-2.678s-1.685-2.574-2.38-2.574H35.42m-.373 5.258h4.324c.694 0 2.379.296 2.379 2.574s-1.685 2.677-2.379 2.677h-4.146m-19.57 3.069 2.207.01s1.458 1.24 3.193 2.171l18.293.008c.694 0 2.379-.4 2.379-2.678s-1.685-2.574-2.379-2.574h-5.695"/><rect width="7.345" height="23.268" x="8.25" y="19.576" fill="none" stroke="#000" stroke-linecap="round" stroke-linejoin="round" rx="1.334" ry="1.334"/></svg>