<svg xmlns="http://www.w3.org/2000/svg" viewBox="0 0 50 50"><path d="M24.96 5.96c.423 0 .807.233 1.002.608.354.685.986 1.094 1.69 1.094h2.415c.622 0 1.127.506 1.127 1.127v2.265H18.726V8.789c0-.621.506-1.127 1.128-1.127h2.414c.705 0 1.337-.41 1.69-1.092.195-.377.58-.61 1.002-.61m0-1c-.798 0-1.522.44-1.89 1.149-.179.347-.479.553-.802.553h-2.414a2.13 2.13 0 0 0-2.128 2.127v3.265h14.468V8.789a2.13 2.13 0 0 0-2.127-2.127h-2.415c-.323 0-.623-.206-.802-.553a2.12 2.12 0 0 0-1.89-1.15"/><g fill="none" stroke="#000" stroke-linecap="round" stroke-linejoin="round"><path d="m24.993 34.054-1.23 5.171-1.914-3.448-3.155 2.377 1.29-5.287"/><path d="m24.859 33.443 1.249 5.782 1.913-3.448 3.155 2.377-1.3-5.33"/><path d="m26.429 18.887 1.91-.558.889 1.775 1.973.264.087 1.981 1.695 1.042-.73 1.845 1.123 1.637-1.42 1.39.357 1.951-1.865.694-.47 1.927-1.988-.12-1.217 1.569-1.766-.916-1.752.941-1.24-1.551-1.985.15-.499-1.92-1.875-.668.329-1.956-1.44-1.37 1.099-1.653-.757-1.834 1.68-1.066.057-1.982 1.97-.293.862-1.787 1.919.53 1.517-1.284z"/><path d="M27.93 23.215h.001l-3.82 5.778-2.056-2.728"/><circle cx="24.993" cy="26.104" r="5.61"/></g><path fill="none" stroke="#000" stroke-linecap="round" stroke-linejoin="round" d="M32.194 9.64h7.819v35.4H9.987V9.64h7.739"/></svg>