<svg xmlns="http://www.w3.org/2000/svg" data-name="Isolation Mode" viewBox="0 0 50 50"><path fill="none" stroke="#000" stroke-linecap="round" stroke-linejoin="round" d="M37.8 30.207v2.386M34.6 30.207v2.386M31.4 30.207v2.386"/><path d="M13 30.6a.8.8 0 1 1 0 1.6.8.8 0 0 1 0-1.6m0-1c-.993 0-1.8.807-1.8 1.8s.807 1.8 1.8 1.8 1.8-.807 1.8-1.8-.807-1.8-1.8-1.8"/><path fill="none" stroke="#000" stroke-miterlimit="10" d="M10.109 28.2h29.753c.628 0 1.138.51 1.138 1.138v4.153a1.11 1.11 0 0 1-1.109 1.109H10.11A1.11 1.11 0 0 1 9 33.491V29.31a1.11 1.11 0 0 1 1.109-1.109Z"/><path fill="none" stroke="#000" stroke-linecap="round" stroke-linejoin="round" d="M37.8 23.807v2.386M34.6 23.807v2.386M31.4 23.807v2.386"/><path d="M13 24.2a.8.8 0 1 1 0 1.6.8.8 0 0 1 0-1.6m0-1c-.993 0-1.8.807-1.8 1.8s.807 1.8 1.8 1.8 1.8-.807 1.8-1.8-.807-1.8-1.8-1.8"/><path fill="none" stroke="#000" stroke-miterlimit="10" d="M10.109 21.8h29.753c.628 0 1.138.51 1.138 1.138v4.153a1.11 1.11 0 0 1-1.109 1.109H10.11A1.11 1.11 0 0 1 9 27.091V22.91a1.11 1.11 0 0 1 1.109-1.109Z"/><path fill="none" stroke="#000" stroke-linecap="round" stroke-linejoin="round" d="M37.8 17.407v2.386M34.6 17.407v2.386M31.4 17.407v2.386"/><path d="M13 17.8a.8.8 0 1 1 0 1.6.8.8 0 0 1 0-1.6m0-1c-.993 0-1.8.807-1.8 1.8s.807 1.8 1.8 1.8 1.8-.807 1.8-1.8-.807-1.8-1.8-1.8"/><path fill="none" stroke="#000" stroke-miterlimit="10" d="M10.109 15.4h29.753c.628 0 1.138.51 1.138 1.138v4.153a1.11 1.11 0 0 1-1.109 1.109H10.11A1.11 1.11 0 0 1 9 20.691V16.51a1.11 1.11 0 0 1 1.109-1.109Z"/><path fill="none" stroke="#000" stroke-linecap="round" stroke-linejoin="round" d="M37 5v8M40 10l-3 3-3-3M13 5v8M16 10l-3 3-3-3M13 45v-8M10 40l3-3 3 3M37 45v-8M34 40l3-3 3 3"/></svg>