<svg xmlns="http://www.w3.org/2000/svg" data-name="Isolation Mode" viewBox="0 0 50 50"><path fill="none" stroke="#000" stroke-linecap="round" stroke-linejoin="round" d="M35.022 10.497v23.997"/><ellipse cx="31.334" cy="18.253" fill="none" stroke="#000" stroke-miterlimit="10" rx="2.474" ry="4.59" transform="rotate(-45 31.334 18.253)"/><ellipse cx="38.709" cy="18.253" fill="none" stroke="#000" stroke-miterlimit="10" rx="4.59" ry="2.474" transform="rotate(-45 38.71 18.253)"/><path fill="none" stroke="#000" stroke-linecap="round" stroke-linejoin="round" d="m35.022 21.94-4.27 4.69M35.022 21.94l4.269 4.69"/><circle cx="13.772" cy="30.256" r="9.25" fill="none" stroke="#000" stroke-linecap="round" stroke-linejoin="round"/><circle cx="11.274" cy="29.906" r="1.625" fill="none" stroke="#000" stroke-linecap="round" stroke-linejoin="round" stroke-width=".75"/><circle cx="16.221" cy="29.906" r="1.625" fill="none" stroke="#000" stroke-linecap="round" stroke-linejoin="round" stroke-width=".75"/><path fill="none" stroke="#000" stroke-linecap="round" stroke-linejoin="round" stroke-width=".75" d="M12.728 36.483V34.4M14.813 34.4v2.083M14.092 33.19c.265 0 .48-.241.48-.539 0-.264-.58-1.084-.82-1.084s-.809.824-.809 1.084c0 .298.215.54.48.54z"/><path fill="none" stroke="#000" stroke-linecap="round" stroke-linejoin="round" stroke-width=".75" d="M11.165 36.005c0 .29 1.167.525 2.606.525s2.606-.235 2.606-.525v-2.126s3.803.005 3.196-4.703c-.354-2.745-2.266-4.14-3.799-4.788a5.13 5.13 0 0 0-4 0c-1.534.647-3.448 2.042-3.802 4.788-.608 4.708 3.193 4.703 3.193 4.703z"/><path fill="none" stroke="#000" stroke-linecap="round" stroke-linejoin="round" d="M22.035 34.494H43.98a1.5 1.5 0 0 0 1.495-1.495l.003-21.007c0-.822-.673-1.494-1.495-1.494l-32.008-.004c-.822 0-1.494.672-1.494 1.494v9.621M17.828 21.94h27.648"/><path fill="none" stroke="#000" stroke-linecap="round" stroke-linejoin="round" stroke-width=".75" d="M23.022 30.506h3.5M22.857 28.506h3.665M22.23 26.506h4.292"/></svg>