<svg xmlns="http://www.w3.org/2000/svg" data-name="Layer 1" viewBox="0 0 50 50"><path fill="none" stroke="#000" stroke-linecap="round" stroke-linejoin="round" d="M29.838 38H6.162C5.52 38 5 37.48 5 36.838V13.162C5 12.52 5.52 12 6.162 12h23.676c.641 0 1.162.52 1.162 1.162v23.676C31 37.48 30.48 38 29.838 38m14.425-20h-6.526a.737.737 0 0 1-.737-.737v-6.526c0-.407.33-.737.737-.737h6.526c.407 0 .737.33.737.737v6.526c0 .407-.33.737-.737.737m0 11h-6.526a.737.737 0 0 1-.737-.737v-6.526c0-.407.33-.737.737-.737h6.526c.407 0 .737.33.737.737v6.526c0 .407-.33.737-.737.737m0 11h-6.526a.737.737 0 0 1-.737-.737v-6.526c0-.407.33-.737.737-.737h6.526c.407 0 .737.33.737.737v6.526c0 .407-.33.737-.737.737M37 25h-6M37 32l-6-4M37 18l-6 4"/></svg>