<svg xmlns="http://www.w3.org/2000/svg" data-name="Isolation Mode" viewBox="0 0 50 50"><rect width="12" height="12" x="19" y="3" fill="none" stroke="#000" stroke-dasharray="0 1.97961" stroke-linecap="round" stroke-linejoin="round" rx="2.571" ry="2.571"/><path d="M22.906 9.937a.6.6 0 0 1-.041-.12 2 2 0 0 1-.03-.146 1.04 1.04 0 0 1-.772.317 1.2 1.2 0 0 1-.394-.062.9.9 0 0 1-.3-.173.76.76 0 0 1-.263-.583q0-.44.328-.673t.941-.233h.443v-.18a.43.43 0 0 0-.147-.346q-.147-.128-.415-.128a.7.7 0 0 0-.213.03q-.09.029-.152.08c-.062.05-.07.072-.09.118a.4.4 0 0 0-.031.147h-.605q0-.16.074-.31a.65.65 0 0 1 .22-.269q.143-.117.353-.188c.21-.071.298-.071.477-.071q.243 0 .45.06.209.06.36.177a.8.8 0 0 1 .238.293.9.9 0 0 1 .086.412v1.22q0 .18.027.328.026.148.077.257v.043zm-.729-.438a.8.8 0 0 0 .546-.213.6.6 0 0 0 .095-.124v-.514h-.385q-.369 0-.546.12a.39.39 0 0 0-.176.338q0 .084.028.156.028.073.085.124a.34.34 0 0 0 .144.083q.088.03.21.03m4.21-.904q0 .3-.071.554a1.4 1.4 0 0 1-.208.442 1 1 0 0 1-.335.292 1 1 0 0 1-.457.105q-.233 0-.412-.076c-.179-.076-.221-.123-.307-.218v1.296h-.605V7.198h.557l.025.276q.132-.157.313-.242c.18-.085.26-.085.421-.085q.261 0 .462.101a.95.95 0 0 1 .338.285q.136.184.208.44c.072.257.07.361.07.569zm-.605-.053q0-.185-.038-.348a.7.7 0 0 0-.117-.286.6.6 0 0 0-.2-.194.57.57 0 0 0-.288-.07.6.6 0 0 0-.335.085.6.6 0 0 0-.207.23v1.226q.076.142.206.23c.13.089.2.089.34.089a.55.55 0 0 0 .488-.27 1 1 0 0 0 .114-.29q.037-.164.037-.349zm3.449.053q0 .3-.07.554a1.4 1.4 0 0 1-.208.442 1 1 0 0 1-.335.292 1 1 0 0 1-.457.105q-.234 0-.412-.076a.7.7 0 0 1-.308-.218v1.296h-.605V7.198h.558l.024.276q.133-.157.313-.242c.18-.085.262-.085.422-.085q.261 0 .462.101a.95.95 0 0 1 .338.285q.136.184.208.44c.072.257.07.361.07.569zm-.605-.053q0-.185-.038-.348a.7.7 0 0 0-.116-.286.6.6 0 0 0-.2-.194.57.57 0 0 0-.289-.07.6.6 0 0 0-.334.085.6.6 0 0 0-.208.23v1.226q.077.142.207.23c.13.089.2.089.34.089a.55.55 0 0 0 .488-.27 1 1 0 0 0 .114-.29q.036-.164.036-.349z"/><g fill="none" stroke="#000" stroke-linecap="round" stroke-linejoin="round" data-name="Group 13221"><path d="M25 24.893v-7.487" data-name="Line 154"/><path d="M28.397 20.803 25 17.406l-3.397 3.397" data-name="Path 60447"/></g><g fill="none" stroke="#000" stroke-linecap="round" stroke-linejoin="round"><circle cx="25" cy="37" r="10"/><circle cx="30.5" cy="37.005" r="1.667"/><circle cx="19.5" cy="37.005" r="1.667"/><circle cx="25" cy="36.995" r="1.667"/></g></svg>