<svg xmlns="http://www.w3.org/2000/svg" data-name="Isolation Mode" viewBox="0 0 50 50"><path fill="none" stroke="#000" stroke-miterlimit="10" d="M43.037 28.705h1a1 1 0 0 0 1-1v-3a1 1 0 0 0-1-1h-1M6.963 28.39h-1a1 1 0 0 1-1-1v-3a1 1 0 0 1 1-1h1m14.357-6.05v-1.23a1 1 0 0 1 1-1h5.527a1 1 0 0 1 1 1v1.229m.659 7.531-5.855-3.356a.168.168 0 0 0-.251.146v6.703a.168.168 0 0 0 .25.146l5.855-3.348a.17.17 0 0 0 .063-.228.3.3 0 0 0-.062-.064Z"/><path fill="none" stroke="#000" stroke-miterlimit="10" d="M34.818 17.418h-19.47c-.37 0-.733.11-1.041.315l-6.448 4.29a1.88 1.88 0 0 0-.84 1.566v5.288c0 .63.316 1.217.84 1.565l6.208 4.131a1.88 1.88 0 0 0 1.54.248l8.96-2.458a1.87 1.87 0 0 1 .993 0l9 2.46a1.88 1.88 0 0 0 1.538-.249l6.21-4.132a1.88 1.88 0 0 0 .838-1.565v-5.288a1.88 1.88 0 0 0-.839-1.565l-6.448-4.291a1.9 1.9 0 0 0-1.041-.315Z"/></svg>