<svg xmlns="http://www.w3.org/2000/svg" data-name="Isolation Mode" viewBox="0 0 50 50"><path d="M21 13c.551 0 1 .449 1 1s-.449 1-1 1-1-.449-1-1 .449-1 1-1m0-1a2 2 0 1 0 0 4 2 2 0 0 0 0-4m-11 1c.551 0 1 .449 1 1s-.449 1-1 1-1-.449-1-1 .449-1 1-1m0-1a2 2 0 1 0 0 4 2 2 0 0 0 0-4m5.5 1c.551 0 1 .449 1 1s-.449 1-1 1-1-.449-1-1 .449-1 1-1m0-1a2 2 0 1 0 0 4 2 2 0 0 0 0-4"/><path fill="none" stroke="#000" stroke-miterlimit="10" stroke-width=".998" d="M27 14c0-1.797.533-3.467 1.44-4.873H6.996A1.996 1.996 0 0 0 5 11.124v31.88C5 44.106 5.894 45 6.996 45h31.008A1.996 1.996 0 0 0 40 43.004v-20.95A8.95 8.95 0 0 1 36 23a9 9 0 0 1-9-9Z"/><path fill="none" stroke="#000" stroke-miterlimit="10" d="M40 22.053c2.96-1.473 5-4.521 5-8.053a9 9 0 0 0-9-9 8.99 8.99 0 0 0-7.56 4.127"/><path fill="none" stroke="#000" stroke-miterlimit="10" stroke-width=".998" d="M28.44 9.127A8.95 8.95 0 0 0 27 14a9 9 0 0 0 9 9 8.95 8.95 0 0 0 4-.947"/><path d="M36 16.923A.54.54 0 1 1 35.999 18 .54.54 0 0 1 36 16.923m0-1A1.539 1.539 0 1 0 36 19a1.539 1.539 0 0 0 0-3.077"/><path fill="none" stroke="#000" stroke-linecap="round" stroke-linejoin="round" d="M38.72 14.742a3.846 3.846 0 0 0-5.44 0m7.072-1.632a6.154 6.154 0 0 0-8.704 0"/><path fill="none" stroke="#000" stroke-linecap="round" stroke-linejoin="round" d="M41.77 11.272a8.46 8.46 0 0 0-11.54 0"/><path fill="none" stroke="#000" stroke-linecap="round" stroke-linejoin="round" stroke-width=".998" d="M26.011 31.107s-1.265 2.216-3.522 2.216-3.5-2.216-3.5-2.216-1.265 2.216-3.523 2.216c-.767 0-1.408-.264-1.932-.603.347 4.637 4.224 8.294 8.966 8.294 4.746 0 8.624-3.662 8.966-8.304-.53.344-1.179.612-1.955.612-2.257 0-3.5-2.215-3.5-2.215"/><path fill="none" stroke="#000" stroke-linecap="round" stroke-linejoin="round" stroke-width=".998" d="M13.534 32.72c-.017-.223-.034-.446-.034-.674 0-4.953 4.03-8.968 9-8.968s9 4.015 9 8.968c0 .224-.017.444-.034.664"/><path fill="none" stroke="#000" stroke-miterlimit="10" d="M5 19h23.516"/></svg>