<svg xmlns="http://www.w3.org/2000/svg" data-name="Layer 1" viewBox="0 0 50 50"><path fill="none" stroke="#000" stroke-linecap="round" stroke-linejoin="round" d="M15.654 23.276c.101.176.244.314.41.407l8.379 4.838h0a1.1 1.1 0 0 0 1.114 0l8.38-4.838a1.09 1.09 0 0 0 .557-.965v-9.676h0a1.1 1.1 0 0 0-.557-.964l-8.38-4.838v0a1.09 1.09 0 0 0-1.113 0v0l-8.38 4.838a1.1 1.1 0 0 0-.557.964h0v9.676c-.002.19.045.382.146.558"/><circle cx="8.503" cy="27.389" r="3.503" fill="none" stroke="#000" stroke-linecap="round" stroke-linejoin="round"/><path fill="none" stroke="#000" stroke-linecap="round" stroke-linejoin="round" d="M25 28.672v5.231M15.654 23.276l-4.112 2.377"/><circle cx="41.497" cy="27.397" r="3.503" fill="none" stroke="#000" stroke-linecap="round" stroke-linejoin="round"/><circle cx="25" cy="38.408" r="4.504" fill="none" stroke="#000" stroke-linecap="round" stroke-linejoin="round"/><path fill="none" stroke="#000" stroke-linecap="round" stroke-linejoin="round" d="m34.346 23.276 4.112 2.377"/></svg>