<svg xmlns="http://www.w3.org/2000/svg" data-name="Isolation Mode" viewBox="0 0 50 50"><path fill="none" stroke="#000" stroke-linecap="round" stroke-linejoin="round" d="M13 34H9.318C5.828 34 3 31.203 3 27.753c0-3.441 2.814-6.231 6.291-6.246q0 0 0 0c0-5.13 4.205-9.287 9.391-9.287 1.38 0 2.69.297 3.87.826C24.116 8.93 28.13 6 32.839 6c6.065 0 10.982 4.862 10.982 10.86 0 .978-.133 1.926-.378 2.828C45.584 21.082 47 23.478 47 26.202c0 4.013-3.06 7.356-7 7.788h-3"/><path fill="none" stroke="#000" stroke-linecap="round" stroke-linejoin="round" d="M32 43.81a4.26 4.26 0 0 0 3-4.07V28.26A4.26 4.26 0 0 0 30.74 24H19.26A4.26 4.26 0 0 0 15 28.26v11.48A4.26 4.26 0 0 0 19.26 44h11.48c.439 0 .862-.066 1.26-.19"/><g fill="none" stroke="#000" stroke-linejoin="round" stroke-width="1.058"><path d="M21.5 33.051h7v6.418h-7zM27.621 33.05v-1.832c0-1.521-1.17-2.75-2.621-2.75s-2.621 1.229-2.621 2.75v1.833"/></g></svg>