<svg xmlns="http://www.w3.org/2000/svg" data-name="Isolation Mode" viewBox="0 0 50 50"><path fill="none" stroke="#000" stroke-linecap="round" stroke-linejoin="round" d="M29.241 25.616c2.792-2.043 4.69-6.041 4.69-10.64 0-6.677-3.999-9.201-8.931-9.201-4.933 0-8.931 2.524-8.931 9.201 0 4.6 1.897 8.598 4.69 10.641"/><path fill="none" stroke="#000" stroke-linecap="round" stroke-linejoin="round" d="M6.067 46 9.2 32.05a5.56 5.56 0 0 1 2.408-3.162s3.767-2.359 9.15-3.272c1.263.924 2.707 1.529 4.243 1.529 1.535 0 2.98-.605 4.241-1.529M43.933 46 40.8 32.05a5.56 5.56 0 0 0-2.408-3.162s-3.767-2.359-9.15-3.272M27.962 22.763l6.68-.508.794-4.79"/><path fill="none" stroke="#000" stroke-linecap="round" stroke-linejoin="round" d="m23.182 22.14 3.882-.273a.833.833 0 0 1 .89.773l.008.124a.83.83 0 0 1-.77.887l-3.882.274a.833.833 0 0 1-.89-.773l-.008-.125a.83.83 0 0 1 .77-.887m-7.059-4.676h-1.85c-.708 0-1.288-.58-1.288-1.288v-2.721c0-.71.58-1.29 1.289-1.29h1.849m17.617 5.299h1.985c.71 0 1.29-.58 1.29-1.288v-2.721c0-.71-.58-1.29-1.29-1.29h-2.072"/><path fill="none" stroke="#000" stroke-linecap="round" stroke-linejoin="round" d="M14.542 12.166C15.511 7 19.267 4 24.999 4s9.489 3 10.458 8.166"/></svg>