<svg xmlns="http://www.w3.org/2000/svg" viewBox="0 0 50 50"><path fill="none" stroke="#000" stroke-linecap="round" stroke-linejoin="round" d="M5 8.748v23.787h7.256"/><path fill="none" stroke="#000" stroke-linecap="round" stroke-linejoin="round" d="M22.713 18.435a6.08 6.08 0 0 0 4.574 0l17.158-8.542c1.116-.95.435-2.76-1.039-2.76H6.594c-1.474 0-2.155 1.81-1.04 2.76z"/><path fill="none" stroke="#000" stroke-linecap="round" stroke-linejoin="round" d="M45 8.69v23.845h-7.457"/><g fill="none" stroke="#000"><circle cx="24.9" cy="32.367" r="10.5" stroke-miterlimit="10"/><circle cx="24.9" cy="25.731" r="1.056" stroke-linecap="round" stroke-linejoin="round"/><path stroke-linecap="round" stroke-linejoin="round" d="M22.366 36.686c-.942-.94-1.04-3.21-1.04-3.21s-.282 1.167-.325 2.691c-.065 2.301 1.746 3.89 3.9 3.89s3.899-1.742 3.899-3.89c0-1.685-.997-2.809-2.557-4.451S24.9 28.73 24.9 28.73v-.474"/></g></svg>