<svg xmlns="http://www.w3.org/2000/svg" data-name="Isolation Mode" viewBox="0 0 50 50"><g fill="none" stroke="#000" stroke-linecap="round" stroke-linejoin="round"><path d="M25.318 28.274v5.747l-5-2.886v-5.642l5-2.887 5 2.887v5.642l-5 2.886"/><path d="m30.318 25.493-4.658 2.69a.68.68 0 0 1-.683 0l-4.659-2.69M30.318 36.802v5.88l-5-2.962v-5.699l5-2.886 5 2.886-.063 5.738-4.937 2.923"/><path d="m35.318 34.021-4.658 2.69a.68.68 0 0 1-.683 0l-4.659-2.69"/><path d="M20.318 36.802v5.88l-5-2.962v-5.699l5-2.886 5 2.886v5.7l-5 2.96"/><path d="m25.318 34.021-4.658 2.69a.68.68 0 0 1-.683 0l-4.659-2.69"/></g><g fill="none" stroke="#000" stroke-linecap="round" stroke-linejoin="round"><path d="m13.496 36.475-2.487.004c-3.303.003-5.984-2.643-5.987-5.91-.003-3.258 2.659-5.902 5.95-5.919v-.001c-.004-4.856 3.973-8.796 8.884-8.8a8.9 8.9 0 0 1 3.666.778c1.475-3.899 5.274-6.677 9.732-6.681 5.743-.006 10.403 4.594 10.409 10.272 0 .927-.125 1.824-.356 2.679 2.029 1.318 3.372 3.584 3.375 6.165.003 4.077-3.337 7.386-7.46 7.39l-2.002.002M26.888 8.175a7.4 7.4 0 0 1 2.558 2.22"/><path d="M26.888 8.175a7.46 7.46 0 0 0-3.488-.857c-3.17.003-5.873 1.97-6.922 4.73a6.4 6.4 0 0 0-2.608-.551c-3.493.003-6.322 2.793-6.319 6.23v0c-2.341.013-4.235 1.885-4.233 4.191.002 2.024 1.463 3.71 3.402 4.1"/></g></svg>