<svg xmlns="http://www.w3.org/2000/svg" data-name="Isolation Mode" viewBox="0 0 50 50"><path fill="none" stroke="#000" stroke-linecap="round" stroke-linejoin="round" d="m35.95 34 4.05-.01c3.94-.432 7-3.775 7-7.788 0-2.725-1.416-5.12-3.558-6.514.245-.902.378-1.85.378-2.829C43.82 10.862 38.903 6 32.838 6c-4.709 0-8.723 2.93-10.285 7.046a9.4 9.4 0 0 0-3.87-.826c-5.187 0-9.392 4.158-9.392 9.286v.001C5.814 21.522 3 24.312 3 27.753 3 31.203 5.51 34 9 34h4.816"/><g fill="none" stroke="#000" stroke-linecap="round" stroke-linejoin="round"><path d="M29.81 26.27q-.508.025-1.012.043l-.001-.003-2.42-1.843c-.799-.609-1.761-.623-2.57-.039l-2.605 1.885a79 79 0 0 1-1.012-.043c-1.913-.094-3.404-.632-3.404 1.966s.354 6.81.354 6.81-.212 3.16 3.475 5.828A300 300 0 0 0 24.988 44h0s1.225-.83 4.397-3.126c3.687-2.668 3.475-5.827 3.475-5.827s.354-4.213.354-6.81-1.491-2.06-3.404-1.967"/><path d="M27.618 30.912zl-3.404 5.15-1.832-2.432"/><circle cx="25" cy="33.487" r="5"/></g><rect width="11" height="11" x="27.997" y="11" fill="none" stroke="#000" stroke-linecap="round" stroke-linejoin="round" stroke-width=".75" rx="2.357" ry="2.357"/><path d="M31.26 17.469a.6.6 0 0 1-.04-.115 2 2 0 0 1-.028-.141.97.97 0 0 1-.51.28 1 1 0 0 1-.234.025q-.21 0-.38-.06c-.17-.06-.21-.096-.29-.166a.74.74 0 0 1-.253-.563q0-.426.317-.649.315-.225.906-.225h.428v-.173a.42.42 0 0 0-.142-.333q-.142-.123-.4-.124-.117 0-.205.028c-.088.028-.108.045-.147.077s-.068.07-.088.115a.34.34 0 0 0-.029.14h-.584q0-.151.072-.298c.072-.147.118-.183.211-.259q.14-.112.341-.181.202-.069.46-.069.235 0 .435.058.2.057.346.17.147.114.23.284a.9.9 0 0 1 .083.397v1.176q0 .173.026.317a1 1 0 0 0 .074.248v.04zm-.702-.422a.8.8 0 0 0 .39-.102.6.6 0 0 0 .228-.223v-.495h-.371q-.357 0-.527.114c-.17.114-.17.185-.17.327q0 .08.028.15a.3.3 0 0 0 .082.12q.055.05.138.08t.202.029m4.06-.872q0 .288-.068.534a1.3 1.3 0 0 1-.2.427 1 1 0 0 1-.324.28.9.9 0 0 1-.441.102q-.224 0-.397-.074a.85.85 0 0 1-.296-.21v1.25h-.583v-3.657h.537l.024.267a.9.9 0 0 1 .302-.234.94.94 0 0 1 .406-.082q.252 0 .445.098.195.097.327.274c.132.177.154.26.2.425q.068.248.068.548zm-.584-.052q0-.177-.036-.335a.9.9 0 0 0-.112-.276q-.076-.118-.194-.187c-.118-.069-.17-.068-.278-.068a.6.6 0 0 0-.322.083.6.6 0 0 0-.2.223v1.181q.072.136.199.222c.127.086.193.085.328.085a.53.53 0 0 0 .47-.261q.075-.12.11-.278c.035-.158.035-.218.035-.337zm3.327.052q0 .288-.068.534a1.3 1.3 0 0 1-.2.427 1 1 0 0 1-.323.28.9.9 0 0 1-.442.102q-.224 0-.396-.074a.85.85 0 0 1-.297-.21v1.25h-.583v-3.657h.537l.024.267a.9.9 0 0 1 .302-.234.94.94 0 0 1 .406-.082q.252 0 .446.098.194.097.326.274c.132.177.154.26.2.425q.068.248.068.548zm-.584-.052q0-.177-.036-.335a.9.9 0 0 0-.112-.276q-.075-.118-.193-.187c-.118-.069-.171-.068-.279-.068a.6.6 0 0 0-.322.083.6.6 0 0 0-.2.223v1.181q.073.136.199.222c.126.086.193.085.328.085a.53.53 0 0 0 .47-.261q.075-.12.11-.278c.035-.158.035-.218.035-.337z"/></svg>