<svg xmlns="http://www.w3.org/2000/svg" data-name="Isolation Mode" viewBox="0 0 50 50"><path fill="none" stroke="#000" stroke-linecap="round" stroke-linejoin="round" d="M37.084 31.488h.001l-4.426 6.695-2.382-3.161"/><g fill="none" stroke="#000" stroke-linecap="round" stroke-linejoin="round"><path d="M39.935 25.454q-.661.032-1.316.056l-.002-.005-3.146-2.395c-1.038-.791-2.29-.81-3.34-.05l-3.387 2.45q-.656-.023-1.316-.056c-2.486-.122-4.425-.821-4.425 2.556s.46 8.854.46 8.854-.276 4.107 4.518 7.576c4.123 2.983 5.684 4.063 5.684 4.063h0s1.593-1.08 5.717-4.063c4.793-3.469 4.517-7.576 4.517-7.576s.46-5.477.46-8.854-1.938-2.678-4.424-2.556"/><circle cx="33.681" cy="34.836" r="6.5"/><path d="M25.228 19.768c2.36-1.727 3.964-5.106 3.964-8.993 0-5.644-3.38-7.778-7.55-7.778-4.168 0-7.548 2.134-7.548 7.778 0 3.887 1.604 7.267 3.965 8.994"/><path d="m5.64 36.997 2.648-11.79a4.7 4.7 0 0 1 2.035-2.674s3.184-1.993 7.735-2.765c1.066.781 2.287 1.292 3.585 1.292s2.518-.51 3.585-1.292"/><path d="M29.67 20.982a24 24 0 0 0-4.447-1.214M24.147 17.356l5.646-.429.671-4.049"/><path d="m20.107 16.83 3.281-.23a.704.704 0 0 1 .752.652l.007.105a.703.703 0 0 1-.652.75l-3.28.231a.704.704 0 0 1-.752-.652l-.007-.105a.703.703 0 0 1 .651-.75m-5.967-3.953h-1.563c-.6 0-1.09-.49-1.09-1.09v-2.3c0-.598.49-1.089 1.09-1.089h1.563m14.891 4.479h1.678c.599 0 1.09-.49 1.09-1.09v-2.3c0-.598-.491-1.089-1.09-1.089h-1.752"/><path d="M12.804 8.4c.818-4.367 3.994-6.903 8.839-6.903s8.02 2.536 8.839 6.902"/></g></svg>