<svg xmlns="http://www.w3.org/2000/svg" data-name="Isolation Mode" viewBox="0 0 50 50"><path fill="none" stroke="#231f20" stroke-linecap="round" stroke-linejoin="round" stroke-width=".75" d="M25.02 11.22v14.07"/><path fill="#231f20" d="M20.583 18.575a.695.695 0 1 0 0 1.389l.05-.004a.694.694 0 0 0-.05-1.385m-.878-3.635a.695.695 0 1 0 0 1.39c.017 0 .032-.005.05-.006a.692.692 0 0 0-.05-1.384m3.262-3.046a.695.695 0 0 0 0 1.39l.05-.005a.693.693 0 0 0-.05-1.385m.335 7.992a.695.695 0 1 0 0 1.39q.025-.002.05-.007a.692.692 0 0 0-.05-1.383m-3.15 2.652a.695.695 0 1 0 0 1.391l.05-.006a.695.695 0 0 0-.05-1.385m2.508 1.782a.695.695 0 1 0 0 1.39l.05-.005a.695.695 0 0 0-.05-1.385"/><path fill="none" stroke="#231f20" stroke-linecap="round" stroke-linejoin="round" stroke-width=".75" d="M21.962 16.033c.106-.71-.225-1.416-.862-1.837-.676-.425-1.587-.425-2.5 0-1.221.57-.804 2.41-.802 2.428a.17.17 0 0 1-.026.136c-.01.014-.942 1.378-.446 2.44.278.594.96.997 2.027 1.197"/><path fill="none" stroke="#231f20" stroke-linecap="round" stroke-linejoin="round" stroke-width=".75" d="M22.63 12.299c-.648-.53-1.34-1.14-2.016-.866-.59.24-1.067 1.353-.757 2.446M25.02 25.29V11.22"/><path fill="none" stroke="#231f20" stroke-linecap="round" stroke-linejoin="round" stroke-width=".75" d="M17.662 19.662c-.65.518-.798 1.312-.59 1.849.239.722.826 1.234 1.126 1.27.11.013.188.105.173.206l-.004.02c-.2.712 0 1.467.537 2.015.307.374.78.606 1.293.632.098-.01.19.048.217.135.307.917 1.333 1.47 2.363 1.272 2.161-.251 2.241-1.727 2.242-1.772m-3.863-13.905c1.253-1.172 2.656-1.399 3.32-1.107.37.19.542.612.543.943M19.84 16.045l.859 1.599M22.758 17.333l-2.058.311M20.699 17.644l-.077 1.181M21.982 23.604l.478 1.026"/><path fill="none" stroke="#231f20" stroke-linecap="round" stroke-linejoin="round" stroke-width=".75" d="m22.894 20.749-1.388.697.476 2.158M21.982 23.604l-1.405-.285M25.02 11.22v14.07"/><path fill="#231f20" d="M29.456 18.575a.694.694 0 0 0-.05 1.385l.05.004a.695.695 0 1 0 0-1.39m.879-3.634a.692.692 0 0 0-.05 1.384c.017 0 .033.005.05.005a.695.695 0 1 0 0-1.39M26.84 16.56a.692.692 0 0 0-.05 1.384l.05.005a.695.695 0 1 0 0-1.389m.232-4.666a.693.693 0 0 0-.05 1.385c.016.001.033.006.05.006a.695.695 0 0 0 0-1.391m-3.888 4.656a.693.693 0 0 0-.05 1.385l.05.005a.695.695 0 0 0 0-1.39m3.553 3.336a.692.692 0 0 0-.05 1.384c.018 0 .033.005.05.005a.695.695 0 1 0 0-1.39m3.151 2.653a.695.695 0 0 0-.05 1.385q.025.005.05.006a.695.695 0 1 0 0-1.39M27.38 24.32a.695.695 0 0 0-.05 1.385l.05.005a.695.695 0 1 0 0-1.39"/><path fill="none" stroke="#231f20" stroke-linecap="round" stroke-linejoin="round" stroke-width=".75" d="M28.077 16.033c-.106-.71.225-1.416.862-1.837.676-.425 1.588-.425 2.5 0 1.222.57.805 2.41.802 2.428a.17.17 0 0 0 .027.136c.01.014.941 1.378.446 2.44-.279.594-.96.997-2.028 1.197"/><path fill="none" stroke="#231f20" stroke-linecap="round" stroke-linejoin="round" stroke-width=".75" d="M27.41 12.299c.648-.53 1.34-1.14 2.016-.866.59.24 1.066 1.353.756 2.446M25.02 25.29V11.22"/><path fill="none" stroke="#231f20" stroke-linecap="round" stroke-linejoin="round" stroke-width=".75" d="M32.377 19.662c.65.518.799 1.312.59 1.849-.238.722-.826 1.234-1.126 1.27-.11.013-.187.105-.173.206l.004.02c.2.712 0 1.467-.537 2.015a1.8 1.8 0 0 1-1.293.632.2.2 0 0 0-.216.135c-.308.917-1.333 1.47-2.363 1.272-2.162-.251-2.242-1.727-2.243-1.772m3.864-13.905c-1.254-1.172-2.656-1.399-3.322-1.107-.369.19-.541.612-.542.943M30.2 16.045l-.86 1.599M27.282 17.333l2.058.311M29.34 17.644l.077 1.181M28.058 23.604l-.479 1.026"/><path fill="none" stroke="#231f20" stroke-linecap="round" stroke-linejoin="round" stroke-width=".75" d="m27.145 20.749 1.388.697-.475 2.158M28.058 23.604l1.404-.285"/><g fill="none" stroke="#231f20" stroke-linecap="round" stroke-linejoin="round"><path d="M32.473 30.018a13.49 13.49 0 0 1-17.055-1.735c-5.292-5.326-5.292-13.962 0-19.289m2.109-1.734a13.49 13.49 0 0 1 17.055 1.734c5.292 5.327 5.292 13.962 0 19.289"/><path d="M9.998 8.994h5.42v5.456M40.002 28.283h-5.42v-5.456M20.666 37.76h-7.357M20.666 31.563v6.197"/><circle cx="11.512" cy="37.76" r="1.797"/><path d="M29.334 37.76h7.357M29.334 31.563v6.197"/><circle cx="38.488" cy="37.76" r="1.797"/><path d="M25.016 32.277v9.129"/><circle cx="25.016" cy="43.203" r="1.797"/></g></svg>