<svg xmlns="http://www.w3.org/2000/svg" viewBox="0 0 50 50"><path fill="none" stroke="#231f20" stroke-linecap="round" stroke-linejoin="round" d="M25 14.947v18.8"/><path fill="#231f20" d="M19.072 24.775a.928.928 0 1 0 0 1.856l.066-.006a.928.928 0 0 0-.066-1.85m-1.174-4.857a.928.928 0 1 0 0 1.856c.023 0 .043-.006.066-.007a.925.925 0 0 0-.066-1.85m4.359-4.069a.928.928 0 0 0 0 1.858c.023 0 .045-.006.068-.007a.926.926 0 0 0-.068-1.851m.448 10.679a.928.928 0 1 0 0 1.856c.023 0 .044-.006.066-.007a.925.925 0 0 0-.066-1.85m-4.21 3.545a.928.928 0 1 0 0 1.858q.034-.002.066-.007a.925.925 0 0 0 .861-.922.93.93 0 0 0-.927-.929m3.352 2.38a.928.928 0 1 0 0 1.859c.023 0 .043-.006.066-.008a.925.925 0 0 0 .861-.921.93.93 0 0 0-.927-.93"/><path fill="none" stroke="#231f20" stroke-linecap="round" stroke-linejoin="round" d="M20.915 21.379c.141-.95-.301-1.893-1.152-2.456-.903-.567-2.121-.567-3.342 0-1.631.763-1.074 3.22-1.07 3.245a.22.22 0 0 1-.036.182c-.013.019-1.258 1.841-.596 3.261.372.793 1.283 1.332 2.709 1.598"/><path fill="none" stroke="#231f20" stroke-linecap="round" stroke-linejoin="round" d="M21.806 16.388c-.865-.707-1.79-1.521-2.694-1.156-.788.32-1.424 1.808-1.01 3.268M25 33.747v-18.8"/><path fill="none" stroke="#231f20" stroke-linecap="round" stroke-linejoin="round" d="M15.169 26.227c-.868.693-1.067 1.754-.788 2.47.318.966 1.103 1.65 1.504 1.7.146.016.25.138.231.273l-.006.028c-.266.95.002 1.96.718 2.691.41.5 1.043.81 1.728.846a.27.27 0 0 1 .29.18c.41 1.225 1.78 1.963 3.157 1.7 2.888-.337 2.995-2.309 2.996-2.368m-5.162-18.58c1.674-1.567 3.549-1.87 4.438-1.48.493.253.723.817.724 1.26M18.078 21.395l1.149 2.136M21.978 23.116l-2.751.415M19.227 23.531l-.103 1.578M20.94 31.495l.64 1.37"/><path fill="none" stroke="#231f20" stroke-linecap="round" stroke-linejoin="round" d="m22.16 27.68-1.855.931.635 2.884M20.94 31.495l-1.876-.381M25 14.947v18.800000000000004"/><path fill="#231f20" d="M30.928 24.775a.928.928 0 0 0-.066 1.85q.034.005.066.006a.928.928 0 1 0 0-1.856m1.174-4.857a.925.925 0 0 0-.066 1.849c.023.001.043.007.066.007a.928.928 0 1 0 0-1.856m-4.669 2.165a.925.925 0 0 0-.066 1.849c.023.002.043.007.066.007a.928.928 0 1 0 0-1.856m.31-6.235a.926.926 0 0 0-.068 1.85c.023.002.045.008.068.008a.928.928 0 0 0 0-1.858m-5.196 6.221a.926.926 0 0 0-.068 1.85c.023.002.045.008.068.008a.928.928 0 0 0 0-1.858m4.748 4.458a.925.925 0 0 0-.066 1.849c.022.001.043.007.066.007a.928.928 0 1 0 0-1.856m4.21 3.544a.93.93 0 0 0-.928.93c0 .488.38.887.862.92q.032.006.066.008a.928.928 0 1 0 0-1.858m-3.352 2.38a.93.93 0 0 0-.927.93c0 .489.38.887.86.921.024.002.044.008.067.008a.928.928 0 1 0 0-1.859"/><path fill="none" stroke="#231f20" stroke-linecap="round" stroke-linejoin="round" d="M29.085 21.379c-.141-.95.301-1.893 1.152-2.456.903-.567 2.121-.567 3.342 0 1.631.763 1.074 3.22 1.07 3.245a.22.22 0 0 0 .036.182c.013.019 1.258 1.841.596 3.261-.372.793-1.283 1.332-2.709 1.598"/><path fill="none" stroke="#231f20" stroke-linecap="round" stroke-linejoin="round" d="M28.194 16.388c.865-.707 1.79-1.521 2.694-1.156.788.32 1.424 1.808 1.01 3.268M25 33.747v-18.8"/><path fill="none" stroke="#231f20" stroke-linecap="round" stroke-linejoin="round" d="M34.831 26.227c.868.693 1.067 1.754.788 2.47-.318.966-1.103 1.65-1.504 1.7-.146.016-.25.138-.231.273q0 .015.006.028c.266.95-.002 1.96-.718 2.691-.41.5-1.043.81-1.728.846a.27.27 0 0 0-.29.18c-.41 1.225-1.78 1.963-3.157 1.7-2.888-.337-2.995-2.309-2.996-2.368m5.162-18.58c-1.675-1.567-3.549-1.87-4.438-1.48-.493.253-.723.817-.724 1.26M31.922 21.395l-1.149 2.136M28.022 23.116l2.751.415M30.773 23.531l.103 1.578M29.059 31.495l-.639 1.37"/><path fill="none" stroke="#231f20" stroke-linecap="round" stroke-linejoin="round" d="m27.84 27.68 1.855.931-.635 2.884M29.059 31.495l1.877-.381"/><g fill="none" stroke="#231f20"><path stroke-linecap="round" stroke-linejoin="round" d="M40.291 14.907a18.37 18.37 0 0 0-9.586-7.033m9.221 28.503a18.26 18.26 0 0 0 3.659-10.989l-.003-.11M19.358 42.75a18.32 18.32 0 0 0 11.784 0M6.914 25.277v.11a18.26 18.26 0 0 0 3.658 10.993"/><circle cx="14.374" cy="40.381" r="2.512" stroke-linecap="round" stroke-linejoin="round"/><path stroke-linecap="round" stroke-linejoin="round" d="M19.79 7.876a18.37 18.37 0 0 0-9.585 7.033"/><path stroke-linecap="round" stroke-linejoin="round" d="m18.923 10.04 1.299-2.254-2.253-1.3m21.327 27.51.268 2.587 2.587-.269m-20.738 5.16-2.287 1.24L20.366 45M8.743 26.892l-1.755-1.919-1.92 1.756m32.748-12.202 2.512.675.674-2.512" data-name="Path 60447"/><path stroke-linecap="round" stroke-linejoin="round" d="m42.458 17.622-2.723 4.717h5.447z"/><rect width="4.682" height="4.682" x="22.825" y="5" stroke-miterlimit="10" rx=".792" ry=".792"/><path stroke-miterlimit="10" d="M9.082 17.346H6.24l-1.422 2.461L6.24 22.27h2.842l1.421-2.462z"/><path stroke-linecap="round" stroke-linejoin="round" d="m38.893 40.38-2.856 2.855-2.855-2.856 2.855-2.855z"/></g></svg>