<svg xmlns="http://www.w3.org/2000/svg" viewBox="0 0 50 50"><path fill="none" stroke="#000" stroke-linecap="round" stroke-linejoin="round" d="M6.45 24.233h6.922a1.52 1.52 0 0 0 1.521-1.52v-5.534m26.101 15.647h3.118c.49 0 .888-.398.888-.888V14.673a.89.89 0 0 0-.888-.888H20.948a.89.89 0 0 0-.888.888v18.153"/><ellipse cx="37.115" cy="32.255" fill="none" stroke="#000" stroke-linecap="round" stroke-linejoin="round" rx="3.92" ry="3.96"/><path fill="none" stroke="#000" stroke-linecap="round" stroke-linejoin="round" d="M16.295 32.255c0 .37-.05.73-.145 1.07a3.92 3.92 0 0 1-3.775 2.89c-2.165 0-3.92-1.775-3.92-3.96s1.755-3.96 3.92-3.96 3.92 1.775 3.92 3.96M20.06 17.18h-7.943L5 26.036v6.789M8.496 32.826H5M33.227 32.826H16.254M20.06 24.233H45"/></svg>