<svg xmlns="http://www.w3.org/2000/svg" viewBox="0 0 50 50"><g fill="none" stroke="#231f20" stroke-linecap="round" stroke-linejoin="round" stroke-width=".75"><path d="M45.255 28.36v2.292a1.22 1.22 0 0 1-1.226 1.227h-2.45a1.22 1.22 0 0 1-1.226-1.227V28.36" data-name="Shape 19"/><path d="M40.29 28.36h5.046a5.37 5.37 0 0 0 3-4.925 5.52 5.52 0 0 0-11.036 0 5.41 5.41 0 0 0 2.99 4.925" data-name="Shape 25"/><path d="M40.474 30.218h4.687"/></g><path fill="none" stroke="#231f20" stroke-linecap="round" stroke-linejoin="round" stroke-width=".75" d="M31.938 24.976h3.304" data-name="Line 154"/><path fill="none" stroke="#231f20" stroke-linecap="round" stroke-linejoin="round" stroke-width=".75" d="m33.743 26.475 1.499-1.5-1.5-1.498" data-name="Path 60447"/><circle cx="20.883" cy="6.905" r="1.756" fill="none" stroke="#231f20" stroke-linecap="round" stroke-linejoin="round" stroke-width=".963"/><g fill="none" stroke="#231f20" stroke-linecap="round" stroke-linejoin="round"><path d="M20.883 10.554"/><path stroke-dasharray="0 1.824401" d="M20.883 12.378v.913"/><path d="M20.883 14.203"/></g><circle cx="20.883" cy="43.393" r="1.756" fill="none" stroke="#231f20" stroke-linecap="round" stroke-linejoin="round" stroke-width=".963"/><g fill="none" stroke="#231f20" stroke-linecap="round" stroke-linejoin="round"><path d="M20.883 39.744"/><path stroke-dasharray="0 1.824401" d="M20.883 37.92v-.912"/><path d="M20.883 36.096"/></g><circle cx="10.114" cy="10.405" r="1.756" fill="none" stroke="#231f20" stroke-linecap="round" stroke-linejoin="round" stroke-width=".962"/><g fill="none" stroke="#231f20" stroke-linecap="round" stroke-linejoin="round"><path d="M12.263 13.354"/><path stroke-dasharray="0 1.824401" d="m13.338 14.828.537.738"/><path d="M14.412 16.303"/></g><circle cx="3.419" cy="19.793" r="1.756" fill="none" stroke="#231f20" stroke-linecap="round" stroke-linejoin="round" stroke-width=".962"/><g fill="none" stroke="#231f20" stroke-linecap="round" stroke-linejoin="round"><path d="M6.907 20.864"/><path stroke-dasharray="0 1.824401" d="m8.651 21.4.872.267"/><path d="M10.395 21.935"/></g><circle cx="3.766" cy="31.525" r="1.756" fill="none" stroke="#231f20" stroke-linecap="round" stroke-linejoin="round" stroke-width=".962"/><g fill="none" stroke="#231f20" stroke-linecap="round" stroke-linejoin="round"><path d="M7.184 30.25"/><path stroke-dasharray="0 1.824401" d="m8.894 29.612.854-.318"/><path d="M10.603 28.975"/></g><circle cx="10.257" cy="39.996" r="1.756" fill="none" stroke="#231f20" stroke-linecap="round" stroke-linejoin="round" stroke-width=".962"/><g fill="none" stroke="#231f20" stroke-linecap="round" stroke-linejoin="round"><path d="M12.377 37.027"/><path stroke-dasharray="0 1.824401" d="m13.438 35.542.53-.742"/><path d="M14.498 34.057"/></g><path fill="none" stroke="#231f20" stroke-linecap="round" stroke-linejoin="round" stroke-width=".75" d="M20.65 17.151v15.002"/><path fill="#231f20" d="M15.92 24.993a.74.74 0 1 0 0 1.482q.025-.001.052-.005a.74.74 0 0 0-.053-1.477m-.936-3.875a.74.74 0 1 0 0 1.48l.053-.005a.738.738 0 0 0-.053-1.475m3.478-3.248a.74.74 0 0 0 0 1.483c.019 0 .037-.005.055-.006a.739.739 0 0 0-.055-1.477m.358 8.521a.74.74 0 1 0 0 1.482c.018 0 .035-.005.053-.006a.738.738 0 0 0-.053-1.476M15.46 29.22a.74.74 0 1 0 0 1.483c.018 0 .034-.005.052-.006a.74.74 0 0 0-.053-1.477m2.675 1.9a.74.74 0 1 0 0 1.482c.018 0 .035-.005.053-.006a.74.74 0 0 0-.053-1.477"/><path fill="none" stroke="#231f20" stroke-linecap="round" stroke-linejoin="round" stroke-width=".75" d="M17.39 22.283c.113-.757-.24-1.51-.92-1.959-.72-.453-1.692-.453-2.666 0-1.301.609-.857 2.57-.854 2.59a.18.18 0 0 1-.028.144c-.01.015-1.004 1.47-.476 2.603.297.633 1.024 1.062 2.162 1.275"/><path fill="none" stroke="#231f20" stroke-linecap="round" stroke-linejoin="round" stroke-width=".75" d="M18.101 18.301c-.69-.564-1.429-1.214-2.15-.923-.628.255-1.136 1.443-.805 2.608M20.65 32.153V17.15"/><path fill="none" stroke="#231f20" stroke-linecap="round" stroke-linejoin="round" stroke-width=".75" d="M12.805 26.152c-.692.553-.852 1.4-.628 1.972.253.77.88 1.316 1.2 1.355.116.013.2.111.184.219q-.001.011-.005.022c-.212.758.001 1.564.573 2.148a1.9 1.9 0 0 0 1.379.674c.105-.01.203.05.23.144.329.978 1.422 1.566 2.52 1.356 2.305-.268 2.39-1.842 2.392-1.89m-4.12-14.826c1.336-1.25 2.832-1.492 3.541-1.18.394.202.578.652.579 1.005M15.127 22.296l.916 1.705M18.238 23.669l-2.194.332M16.043 24.001l-.082 1.259M17.411 30.356l.51 1.093"/><path fill="none" stroke="#231f20" stroke-linecap="round" stroke-linejoin="round" stroke-width=".75" d="m18.384 27.312-1.48.743.507 2.3M17.411 30.356l-1.498-.304M20.65 17.151v15.001999999999999"/><path fill="#231f20" d="M25.38 24.993a.74.74 0 0 0-.053 1.477q.029.004.054.005a.74.74 0 1 0 0-1.482m.936-3.875a.738.738 0 0 0-.053 1.475c.019.001.035.006.053.006a.74.74 0 1 0 0-1.481m-3.725 1.727a.738.738 0 0 0-.053 1.475q.026.005.053.007a.74.74 0 1 0 0-1.482m.247-4.975a.739.739 0 0 0-.054 1.477c.018.001.036.006.054.006a.74.74 0 0 0 0-1.483m-4.146 4.964a.739.739 0 0 0-.054 1.477c.017.001.036.006.054.006a.74.74 0 0 0 0-1.483m3.788 3.557a.738.738 0 0 0-.053 1.475q.027.005.053.007a.74.74 0 1 0 0-1.482m3.359 2.829a.74.74 0 0 0-.052 1.477c.018.001.035.006.053.006a.74.74 0 1 0 0-1.483m-2.675 1.9a.74.74 0 0 0-.053 1.476c.018.001.035.006.053.006a.74.74 0 1 0 0-1.483"/><path fill="none" stroke="#231f20" stroke-linecap="round" stroke-linejoin="round" stroke-width=".75" d="M23.91 22.283c-.113-.757.24-1.51.92-1.959.72-.453 1.692-.453 2.666 0 1.302.609.857 2.57.854 2.59a.18.18 0 0 0 .028.144c.01.015 1.004 1.47.476 2.603-.297.633-1.024 1.062-2.162 1.275"/><path fill="none" stroke="#231f20" stroke-linecap="round" stroke-linejoin="round" stroke-width=".75" d="M23.199 18.301c.69-.564 1.429-1.214 2.15-.923.628.255 1.136 1.443.805 2.608M20.65 32.153V17.15"/><path fill="none" stroke="#231f20" stroke-linecap="round" stroke-linejoin="round" stroke-width=".75" d="M28.495 26.152c.693.553.852 1.4.629 1.972-.254.77-.88 1.316-1.2 1.355-.117.013-.2.111-.185.219l.005.022c.213.758-.001 1.564-.573 2.148a1.9 1.9 0 0 1-1.379.674.216.216 0 0 0-.23.144c-.328.978-1.422 1.566-2.52 1.356-2.305-.268-2.39-1.842-2.391-1.89m4.119-14.826c-1.336-1.25-2.832-1.492-3.541-1.18-.394.202-.577.652-.578 1.005M26.173 22.296l-.916 1.705M23.062 23.669l2.195.332M25.257 24.001l.082 1.259M23.889 30.356l-.51 1.093"/><path fill="none" stroke="#231f20" stroke-linecap="round" stroke-linejoin="round" stroke-width=".75" d="m22.917 27.312 1.48.743-.507 2.3M23.889 30.356l1.498-.304"/></svg>