<svg xmlns="http://www.w3.org/2000/svg" data-name="Isolation Mode" viewBox="0 0 50 50"><g fill="none" stroke="#000"><path stroke-linecap="round" stroke-linejoin="round" d="M13 30.674H9.318C5.828 30.674 3 27.877 3 24.427c0-3.442 2.814-6.232 6.291-6.246v-.001c0-5.129 4.205-9.286 9.391-9.286 1.38 0 2.69.297 3.87.826 1.563-4.116 5.577-7.046 10.286-7.046 6.065 0 10.982 4.861 10.982 10.859 0 .979-.133 1.926-.378 2.828C45.584 17.755 47 20.151 47 22.876c0 4.306-3.53 7.798-7.886 7.798H37"/><g stroke-linecap="round" stroke-linejoin="round"><path d="M26.022 13.365a12 12 0 0 0-.964-.054 11.32 11.32 0 0 0-6.751 2.19m1.141 7.031a1.417 1.417 0 0 0 1.208 1.902q.063.006.129.006a1.42 1.42 0 0 0 1.423-1.423 1.423 1.423 0 0 0-2.76-.485m6.107 5.517a1.423 1.423 0 1 0 2.77-.648 1.423 1.423 0 0 0-2.77.648m-4.15.576a1.423 1.423 0 1 0-.001 2.848 1.423 1.423 0 0 0 .001-2.848"/><path d="M26.94 29.148c-.675 0-1.238-.47-1.385-1.1a13.3 13.3 0 0 0-2.949 1.238 1.423 1.423 0 0 1-.683 2.087 15.7 15.7 0 0 0 3.141 4.703c1.76-.01 3.421-.425 4.907-1.148a15.1 15.1 0 0 0-2.219-6.036c-.23.16-.51.256-.813.256M18.307 15.5a11.38 11.38 0 0 0-4.328 6.383q.478-.032.964-.033c1.569 0 3.082.24 4.505.682a1.42 1.42 0 0 1 1.6-.913"/><path d="M28.354 27.572q.009.075.009.152c0 .484-.242.91-.611 1.168a15.1 15.1 0 0 1 2.219 6.036 11.42 11.42 0 0 0 5.51-5.783 13.2 13.2 0 0 0-6.306-1.602q-.414.002-.82.029m-8.054 3.374a1.423 1.423 0 0 1 .734-2.27 15.6 15.6 0 0 1-.4-3.505q.002-.372.02-.737a1.423 1.423 0 0 1-1.207-1.902 15.2 15.2 0 0 0-5.469-.65c-.225.884-.36 1.804-.364 2.757-.019 3.66 1.698 6.915 4.37 9.012a13.3 13.3 0 0 1 2.316-2.705"/><path d="M21.405 31.472a1.42 1.42 0 0 1-1.104-.526 13.3 13.3 0 0 0-2.315 2.705 11.32 11.32 0 0 0 6.956 2.43c.041.001.081-.005.122-.005a15.7 15.7 0 0 1-3.14-4.703 1.4 1.4 0 0 1-.519.099m-.358-9.852a1.423 1.423 0 0 1 1.023 2.006 15.2 15.2 0 0 1 3.939 3.023 1.423 1.423 0 0 1 2.345.922q.408-.026.82-.028a13.2 13.2 0 0 1 6.308 1.602c.573-1.35.896-2.833.903-4.39.03-5.963-4.53-10.87-10.363-11.39"/><path d="M20.785 24.44q-.066 0-.13-.006-.018.366-.02.737c0 1.205.141 2.378.4 3.505a1.42 1.42 0 0 1 1.57.61 13.2 13.2 0 0 1 2.95-1.237 1.42 1.42 0 0 1 .454-1.4 15.2 15.2 0 0 0-3.94-3.022 1.42 1.42 0 0 1-1.284.813"/></g><path stroke-miterlimit="10" d="M33.64 17.29s-4.07.737-5.457 3.721c-.84 1.81-1.13 3.684-1.223 4.992"/><path stroke-linecap="round" stroke-linejoin="round" d="M21.382 40.675H15.24M21.382 35.502v5.173M28.618 40.675h6.142M28.618 35.502v5.173M25.013 36.098v11.228"/></g><path fill="none" stroke="#000" stroke-linecap="round" stroke-linejoin="round" d="m33 38.673 1.76 2.002L33 42.673M17 42.673l-1.76-2.002L17 38.673M27.013 45.567l-2.002 1.76-1.998-1.76"/></svg>