<svg xmlns="http://www.w3.org/2000/svg" data-name="Isolation Mode" viewBox="0 0 50 50"><g fill="none" stroke="#000" stroke-linejoin="round"><g stroke-linecap="round"><path d="m36.524 21.334-4.005-3.992-4.122 4.044M32.524 17.313v6.029"/></g><g stroke-linecap="round"><path d="m19.147 37.463-1.54 5.441 5.538 1.635M17.607 42.904l5.446-3.032"/></g><g stroke-linecap="round"><path d="m45.973 37.463 1.54 5.441-5.538 1.635M47.514 42.904l-5.447-3.032"/></g><g stroke-linecap="round"><circle cx="32.544" cy="34.508" r="4.499"/><path d="m33.32 25.542.478 2.359.117.021q.455.096.88.248l1.527-1.831"/><path d="m33.798 27.9-.478-2.358a9 9 0 0 0-1.583 0l-.407 2.35m6.366-.767-.765 2.283q.375.322.695.694l2.23-.842"/><path d="m36.931 29.408.765-2.283q-.646-.45-1.374-.786l-1.526 1.831m-4.518.005-1.606-1.79a9 9 0 0 0-1.363.804l.838 2.231m.525-3.036 1.606 1.79q.511-.183 1.052-.282l.407-2.35m5.91 13.348 2.284.764q.45-.647.785-1.374l-1.832-1.526"/><path d="m25.17 29.346 2.282.768q.323-.373.695-.694l-.838-2.231m11.566 5.041 1.788-1.607a9 9 0 0 0-.807-1.363l-2.23.842m3.884 5.175-2.358.48-.022.12a7 7 0 0 1-.246.877l1.832 1.526m-1.564-2.524 2.359-.48a9 9 0 0 0-.001-1.582l-2.35-.406"/><path d="m40.663 30.623-1.788 1.608a7 7 0 0 1 .285 1.057l2.35.406m-6.685 7.141 1.61 1.787a9 9 0 0 0 1.361-.806l-.842-2.23m-5.2 3.884-.474-2.359-.104-.019a7 7 0 0 1-.893-.252l-1.53 1.828"/><path d="m31.28 41.111.474 2.36a9 9 0 0 0 1.582.002l.412-2.348"/><path d="m36.434 42.622-1.609-1.787a7 7 0 0 1-1.077.29l-.412 2.348m6.594-3.819-2.283-.764q-.322.375-.693.696l.842 2.23m-9.646-2.218-.77 2.281q.645.451 1.373.79l1.53-1.829m-6.702-7.12 2.36-.475.02-.108q.096-.458.25-.89l-1.829-1.528"/><path d="m27.452 30.114-2.282-.768q-.451.645-.788 1.373l1.83 1.529m-.272.997-2.359.475a9 9 0 0 0-.001 1.583l2.348.41m.284 1.058-1.792 1.605q.343.718.804 1.364l2.232-.837m-.076 2.977.77-2.282a7 7 0 0 1-.694-.695l-2.232.837"/><path d="m24.42 38.376 1.792-1.605a7 7 0 0 1-.284-1.057l-2.348-.41"/></g><path d="M30.877 33.837h3.337v2.917h-3.337zM33.795 33.837v-.833c0-.691-.558-1.25-1.25-1.25s-1.25.559-1.25 1.25v.833"/></g><g fill="none" stroke="#000" stroke-linecap="round" stroke-linejoin="round"><path d="M22.05 22.232c2.357-1.727 3.959-5.107 3.959-8.994 0-5.643-3.376-7.777-7.54-7.777s-7.54 2.134-7.54 7.777c0 3.888 1.603 7.268 3.96 8.995"/><path d="m2.486 39.461 2.645-11.79a4.7 4.7 0 0 1 2.032-2.674s3.18-1.994 7.725-2.765c1.066.78 2.285 1.292 3.581 1.292s2.516-.511 3.581-1.292"/><path d="M26.486 23.446a24 24 0 0 0-4.441-1.214"/></g></svg>