<svg xmlns="http://www.w3.org/2000/svg" data-name="Isolation Mode" viewBox="0 0 50 50"><path fill="none" stroke="#000" stroke-linecap="round" stroke-linejoin="round" d="M41 27.498v2.981M37 27.498v2.981"/><path d="M10 27.988a1 1 0 1 1 0 2 1 1 0 0 1 0-2m0-1c-1.103 0-2 .898-2 2s.897 2 2 2 2-.897 2-2-.897-2-2-2"/><path fill="none" stroke="#000" stroke-linecap="round" stroke-linejoin="round" d="M16.333 24.988H6.386c-.765 0-1.386.621-1.386 1.387v5.227c0 .766.62 1.386 1.386 1.386h9.537m18.154 0h9.537c.765 0 1.386-.62 1.386-1.386v-5.19c0-.787-.637-1.424-1.423-1.424h-9.91M41 19.498v2.981M37 19.498v2.981M33 19.498v2.981"/><path d="M10 19.988a1 1 0 1 1 0 2 1 1 0 0 1 0-2m0-1c-1.103 0-2 .898-2 2s.897 2 2 2 2-.897 2-2-.897-2-2-2"/><path fill="none" stroke="#000" stroke-linecap="round" stroke-linejoin="round" d="M33.666 24.988h9.948c.765 0 1.386-.62 1.386-1.386v-5.19c0-.787-.637-1.424-1.423-1.424H6.387C5.62 16.988 5 17.61 5 18.375v5.227c0 .766.62 1.386 1.386 1.386h9.947M41 11.498v2.981M37 11.498v2.981M33 11.498v2.981"/><path d="M10 11.988a1 1 0 1 1 0 2 1 1 0 0 1 0-2m0-1c-1.103 0-2 .898-2 2s.897 2 2 2 2-.897 2-2-.897-2-2-2"/><path fill="none" stroke="#000" stroke-linecap="round" stroke-linejoin="round" d="M6.386 8.988h37.191c.785 0 1.423.638 1.423 1.423v5.191c0 .765-.621 1.386-1.386 1.386H6.386A1.387 1.387 0 0 1 5 15.602v-5.227c0-.765.621-1.387 1.386-1.387"/><path d="M30.21 23.857a2.87 2.87 0 0 1 2.867 2.867v10.42a2.87 2.87 0 0 1-2.867 2.868H19.79a2.87 2.87 0 0 1-2.867-2.867V26.724a2.87 2.87 0 0 1 2.867-2.867zm0-1H19.79a3.867 3.867 0 0 0-3.867 3.867v10.42a3.867 3.867 0 0 0 3.867 3.868h10.42a3.867 3.867 0 0 0 3.867-3.867V26.724a3.867 3.867 0 0 0-3.867-3.867"/><path d="m21.822 33.07-.04-.347h-.017a1.03 1.03 0 0 1-.845.41c-.56 0-.844-.394-.844-.793 0-.668.593-1.033 1.66-1.028v-.056c0-.229-.062-.64-.628-.64-.256 0-.525.08-.718.206l-.115-.33c.229-.15.56-.247.908-.247.844 0 1.05.577 1.05 1.13v1.033c0 .24.011.474.045.662zm-.074-1.409c-.548-.012-1.17.085-1.17.622 0 .325.217.479.474.479.36 0 .587-.228.667-.462a.5.5 0 0 0 .029-.16zm1.378-.451c0-.354-.011-.64-.023-.901h.451l.023.473h.011c.206-.337.531-.537.982-.537.668 0 1.17.566 1.17 1.404 0 .994-.605 1.484-1.256 1.484-.365 0-.685-.16-.85-.434h-.011V34.2h-.497zm.497.736q.002.112.023.205a.774.774 0 0 0 .752.588c.531 0 .84-.433.84-1.067 0-.554-.292-1.027-.822-1.027-.343 0-.662.246-.76.622a.8.8 0 0 0-.033.206zm2.857-.736c0-.354-.011-.64-.023-.901h.451l.023.473h.011c.206-.337.531-.537.982-.537.668 0 1.17.566 1.17 1.404 0 .994-.605 1.484-1.256 1.484-.365 0-.685-.16-.85-.434h-.011V34.2h-.497zm.497.736q.002.112.023.205a.774.774 0 0 0 .753.588c.53 0 .839-.433.839-1.067 0-.554-.291-1.027-.822-1.027-.343 0-.662.246-.76.622a.8.8 0 0 0-.033.206z"/></svg>