<svg xmlns="http://www.w3.org/2000/svg" data-name="Isolation Mode" viewBox="0 0 50 50"><g fill="none" stroke="#000" stroke-linecap="round" stroke-linejoin="round"><path d="M11 33.897H9.379c-3.49 0-6.318-2.797-6.318-6.247 0-3.441 2.814-6.231 6.29-6.245v-.002c0-5.128 4.205-9.285 9.392-9.285 1.38 0 2.69.297 3.87.826 1.562-4.117 5.577-7.047 10.285-7.047 6.066 0 10.983 4.862 10.983 10.86 0 .978-.133 1.926-.378 2.828 2.142 1.394 3.558 3.79 3.558 6.515 0 4.306-3.531 7.797-7.886 7.797"/><path d="M31.636 42.115A11.87 11.87 0 0 1 16.63 40.59c-4.656-4.687-4.656-12.285 0-16.972m1.855-1.528a11.87 11.87 0 0 1 15.007 1.527c4.656 4.687 4.656 12.285 0 16.972"/><path d="M11.86 23.617h4.77v4.8M38.26 40.589h-4.768v-4.8"/></g><g fill="none" stroke="#000" stroke-linecap="round" stroke-linejoin="round"><path d="M30.506 32.022 20 25l2.158 12.37zM26.483 34.64l3.133 4.694"/></g></svg>