<svg xmlns="http://www.w3.org/2000/svg" data-name="Isolation Mode" viewBox="0 0 50 50"><g fill="none" stroke="#000" stroke-linecap="round" stroke-linejoin="round"><circle cx="37.455" cy="28.149" r="4.499"/><path d="m38.231 19.183.478 2.36.117.02q.456.097.881.248l1.527-1.831"/><path d="m38.71 21.542-.479-2.359a9 9 0 0 0-1.583 0l-.407 2.35m6.366-.767-.764 2.283q.373.323.695.694l2.23-.842"/><path d="m41.843 23.05.764-2.284q-.645-.45-1.373-.786l-1.527 1.831m-4.517.005-1.607-1.79a9 9 0 0 0-1.363.804l.838 2.232"/><path d="m33.583 20.026 1.606 1.79q.511-.183 1.052-.283l.407-2.35m5.91 13.349 2.284.763q.45-.647.785-1.374l-1.832-1.525m-13.713-7.408 2.282.767q.323-.373.694-.693l-.838-2.232m11.566 5.042 1.788-1.608a9 9 0 0 0-.806-1.363l-2.23.842m3.884 5.175-2.358.48-.022.12a7 7 0 0 1-.247.878l1.832 1.525"/><path d="m44.064 29.398 2.358-.48a9 9 0 0 0 0-1.583l-2.35-.406"/><path d="m45.574 24.264-1.788 1.608a7 7 0 0 1 .285 1.057l2.35.406m-6.685 7.141 1.61 1.788a9 9 0 0 0 1.362-.807l-.843-2.23m-5.2 3.885-.474-2.36q-.052-.008-.104-.019a7 7 0 0 1-.893-.252l-1.53 1.829"/><path d="m36.191 34.752.474 2.36a9 9 0 0 0 1.583.003l.412-2.349m2.686 1.498-1.61-1.788a7 7 0 0 1-1.076.29l-.412 2.349m6.594-3.82-2.284-.763q-.322.374-.693.695l.843 2.23m-9.647-2.218-.769 2.282q.645.45 1.372.789l1.53-1.829m-6.701-7.12 2.36-.474q.008-.054.019-.108.097-.46.25-.89l-1.828-1.529"/><path d="m32.364 23.755-2.282-.767q-.451.645-.788 1.372l1.829 1.53m-.271.997-2.36.474a9 9 0 0 0 0 1.583l2.348.411m.283 1.058-1.791 1.604q.343.718.804 1.364l2.232-.837m-.076 2.976.769-2.281a7 7 0 0 1-.693-.695l-2.232.837"/><path d="m29.332 32.017 1.791-1.604a7 7 0 0 1-.283-1.058l-2.349-.41"/></g><g fill="none" stroke="#000" stroke-linecap="round" stroke-linejoin="round"><path d="M17.685 16.97c1.704-1.27 2.862-3.755 2.862-6.613 0-4.15-2.44-5.718-5.45-5.718s-5.45 1.568-5.45 5.718c0 2.859 1.158 5.344 2.862 6.614"/><path d="m3.543 29.639 1.912-8.67a3.45 3.45 0 0 1 1.47-1.966s2.298-1.466 5.583-2.033c.77.574 1.652.95 2.589.95s1.818-.376 2.588-.95"/><path d="m25.495 24.406-.76-3.437a3.45 3.45 0 0 0-1.47-1.966s-2.298-1.466-5.583-2.033m9.105-1.425c.852-.635 1.43-1.877 1.43-3.306 0-2.075-1.22-2.86-2.725-2.86s-2.725.785-2.725 2.86c0 1.43.58 2.672 1.432 3.307"/><path d="M24.198 15.545c.385.287.826.475 1.294.475s.91-.188 1.295-.475"/><path d="M26.785 15.545c1.642.284 2.792 1.017 2.792 1.017.356.225.617.574.735.983l.231 1.187"/></g><path fill="none" stroke="#000" stroke-linecap="round" stroke-linejoin="round" d="M38.396 41.243v2.237M35.396 41.243v2.237M32.396 41.243v2.237"/><path d="M15.146 41.611a.75.75 0 1 1 0 1.5.75.75 0 0 1 0-1.5m0-1c-.965 0-1.75.786-1.75 1.75s.785 1.75 1.75 1.75 1.75-.785 1.75-1.75-.785-1.75-1.75-1.75"/><path fill="none" stroke="#000" stroke-miterlimit="10" d="M12.436 39.361h27.893c.589 0 1.067.479 1.067 1.068v3.893a1.04 1.04 0 0 1-1.04 1.04h-27.92a1.04 1.04 0 0 1-1.04-1.04v-3.92c0-.575.466-1.04 1.04-1.04Z"/><path d="M15.146 35.611a.75.75 0 1 1 0 1.5.75.75 0 0 1 0-1.5m0-1c-.965 0-1.75.786-1.75 1.75s.785 1.75 1.75 1.75 1.75-.785 1.75-1.75-.785-1.75-1.75-1.75"/><path fill="none" stroke="#000" stroke-linecap="round" stroke-miterlimit="10" d="M30.136 33.361h-17.7a1.04 1.04 0 0 0-1.04 1.04v3.92c0 .575.466 1.04 1.04 1.04h27.92a1.04 1.04 0 0 0 1.04-1.04v-2.057"/><path d="M15.146 29.611a.75.75 0 1 1 0 1.5.75.75 0 0 1 0-1.5m0-1c-.965 0-1.75.786-1.75 1.75s.785 1.75 1.75 1.75 1.75-.785 1.75-1.75-.785-1.75-1.75-1.75"/><path fill="none" stroke="#000" stroke-linecap="round" stroke-miterlimit="10" d="M28.493 27.361H12.436a1.04 1.04 0 0 0-1.04 1.04v3.92c0 .575.466 1.04 1.04 1.04h17.232"/></svg>