<svg xmlns="http://www.w3.org/2000/svg" data-name="Isolation Mode" viewBox="0 0 50 50"><ellipse cx="33.7" cy="32.729" fill="none" stroke="#231f20" stroke-linecap="round" stroke-linejoin="round" rx="11.3" ry="11.305"/><g fill="none" stroke="#231f20" stroke-linecap="round" stroke-linejoin="round"><path d="M19.175 7.832v24.819999999999997M11.348 21.266a.766.766 0 1 0 0 1.532l.055-.005a.764.764 0 0 0-.055-1.527m3.855-2.641a.765.765 0 0 0 .752.621l.055-.005a.764.764 0 0 0-.055-1.527.766.766 0 0 0-.752.911m-5.404-2.24.055-.005a.764.764 0 0 0-.055-1.527.766.766 0 1 0 0 1.532m6.522-6.138a.766.766 0 1 0-.766.767c.019 0 .037-.005.055-.006a.764.764 0 0 0 .711-.76m-.175 14.862.055-.005a.764.764 0 0 0-.055-1.527.766.766 0 0 0 0 1.533M9.82 29.026c0 .423.343.766.766.766q.029-.002.055-.006a.764.764 0 0 0-.055-1.527.766.766 0 0 0-.766.767m4.426 3.142c0 .423.343.766.766.766l.055-.005a.764.764 0 0 0-.055-1.527.766.766 0 0 0-.766.766"/><path d="M13.782 16.323c.186-1.253-.399-2.498-1.522-3.241-1.192-.75-2.8-.75-4.412 0-2.152 1.005-1.417 4.25-1.412 4.283a.3.3 0 0 1-.046.24c-.018.025-1.662 2.431-.787 4.305.49 1.048 1.692 1.758 3.575 2.11"/><path d="M14.958 9.734c-1.142-.934-2.364-2.009-3.555-1.527-1.042.422-1.882 2.388-1.335 4.315M19.175 32.652V7.832"/><path d="M6.195 22.724c-1.145.915-1.408 2.315-1.039 3.261.419 1.274 1.456 2.179 1.985 2.242.194.023.33.185.306.362l-.008.038c-.353 1.254.002 2.586.947 3.553.542.661 1.377 1.07 2.282 1.116.173-.018.335.083.38.237.544 1.619 2.353 2.593 4.17 2.245 3.814-.445 3.955-3.049 3.957-3.126M12.358 8.121c2.212-2.067 4.686-2.469 5.859-1.952.652.333.956 1.078.958 1.663M10.037 16.344l1.516 2.82M15.185 18.616l-3.632.548M11.553 19.164l-.135 2.083M13.816 29.679l.844 1.809"/><path d="m15.425 24.642-2.448 1.23.839 3.807M13.816 29.679l-2.479-.503M19.176 7.832v24.819999999999997M23.147 18.625a.766.766 0 0 1-.751.621l-.055-.005a.764.764 0 0 1 .055-1.527.766.766 0 0 1 .751.911m5.405-2.24-.055-.005a.764.764 0 0 1 .055-1.527.766.766 0 1 1 0 1.532m-6.522-6.138a.766.766 0 1 1 .766.767c-.02 0-.037-.005-.055-.006a.764.764 0 0 1-.712-.76"/><path d="M24.57 16.323c-.187-1.253.397-2.498 1.52-3.241 1.193-.75 2.801-.75 4.412 0 2.153 1.005 1.418 4.25 1.412 4.283a.3.3 0 0 0 .047.24c.017.023 1.554 1.92.997 3.732"/><path d="M23.392 9.734c1.143-.934 2.364-2.009 3.556-1.527 1.041.422 1.881 2.388 1.335 4.315M19.176 32.652V7.832"/><path d="M22.66 35.705c-3.813-.444-3.482-2.976-3.484-3.053m6.816-24.531c-2.212-2.067-4.685-2.469-5.858-1.952-.652.333-.957 1.078-.958 1.663M28.313 16.344l-1.516 2.82M23.166 18.616l3.631.548M23.166 18.616h-.001M26.797 19.164l1.6 3.206M22.152 25.11l-.055-.005c-.397-.029-.711-.356-.711-.76s.343-.767.766-.767a.766.766 0 0 1 0 1.533M22.872 24.642l1.971.967"/></g><g fill="none" stroke="#231f20" stroke-linecap="round" stroke-linejoin="round"><circle cx="33.924" cy="32.789" r="3.878"/><path d="m34.51 25.387.4 1.962.097.018q.379.08.734.206l1.272-1.523m-2.103 1.3-.4-1.963a7.5 7.5 0 0 0-1.318 0l-.34 1.955m5.306-.638-.637 1.899q.31.269.579.577l1.858-.7m-2.438.123.638-1.9a7.5 7.5 0 0 0-1.145-.653l-1.272 1.523m-3.766.004-1.338-1.49q-.598.286-1.136.67l.699 1.856"/><path d="m30.637 26.088 1.338 1.49q.426-.154.877-.236l.34-1.955m4.925 11.104 1.903.635q.375-.537.655-1.143l-1.527-1.269m-11.429-6.162 1.902.639q.27-.31.579-.578l-.699-1.856m9.639 4.194 1.49-1.337a7.5 7.5 0 0 0-.672-1.134l-1.858.7"/><path d="m41.337 33.485-1.965.399-.019.1a6 6 0 0 1-.205.73l1.527 1.27"/><path d="m39.372 33.884 1.965-.399a7.4 7.4 0 0 0 0-1.317l-1.959-.337"/><path d="m40.63 29.614-1.49 1.337q.154.428.238.88l1.958.337m-5.571 5.942 1.341 1.486q.598-.286 1.135-.671l-.702-1.855m-4.334 3.232-.394-1.963-.087-.016a6 6 0 0 1-.745-.21l-1.274 1.521"/><path d="m32.81 38.339.395 1.963q.668.06 1.32.002l.343-1.954"/><path d="m37.106 39.596-1.34-1.487a5.6 5.6 0 0 1-.898.241l-.343 1.954m5.495-3.178-1.903-.635q-.269.311-.578.579l.702 1.855m-8.039-1.845-.64 1.898q.536.376 1.143.656l1.274-1.52m-5.584-5.924 1.966-.395.016-.09q.082-.38.21-.74l-1.525-1.271M29.62 29.19l-1.901-.638q-.376.537-.657 1.142l1.525 1.271m-.226.83-1.966.395q-.06.668-.002 1.317l1.958.342m.236.88-1.493 1.335q.285.596.67 1.134l1.86-.696"/><path d="m29.561 38.978.64-1.898a6 6 0 0 1-.577-.578l-1.86.696m-.67-1.134 1.493-1.335a5.6 5.6 0 0 1-.236-.88l-1.958-.342"/></g></svg>