<svg xmlns="http://www.w3.org/2000/svg" viewBox="0 0 50 50"><rect width="2" height="2" x="14" y="18" rx=".519" ry=".519"/><rect width="2" height="2" x="17" y="18" rx=".519" ry=".519"/><rect width="2" height="2" x="20" y="18" rx=".519" ry=".519"/><rect width="2" height="2" x="14" y="15" rx=".519" ry=".519"/><rect width="2" height="2" x="17" y="15" rx=".519" ry=".519"/><rect width="2" height="2" x="20" y="15" rx=".519" ry=".519"/><rect width="2" height="2" x="14" y="12" rx=".519" ry=".519"/><rect width="2" height="2" x="17" y="12" rx=".519" ry=".519"/><rect width="2" height="2" x="20" y="12" rx=".519" ry=".519"/><path fill="none" stroke="#000" stroke-linecap="round" stroke-linejoin="round" d="M26 19.09v3.132c0 .43-.363.778-.81.778H10.81c-.447 0-.81-.348-.81-.778V9.778c0-.43.363-.778.81-.778h14.38c.447 0 .81.348.81.778z"/><path fill="none" stroke="#000" stroke-miterlimit="10" d="M12.501 39H5.895A.9.9 0 0 1 5 38.093V5.907c0-.5.4-.907.895-.907h32.21c.494 0 .895.406.895.907V8.28m0 27.305v2.44c0 .5-.4.907-.895.907H23.5"/><path fill="none" stroke="#000" stroke-miterlimit="10" d="M12.5 30H10v-2h16v2h-2.5"/><path fill="none" stroke="#000" stroke-miterlimit="10" d="M23.485 39.502V28H12.5v10.826l.015 1.365v3.852c0 .529.427.957.954.957h9.077a.955.955 0 0 0 .954-.957v-3.852z"/><g fill="none" stroke="#000" stroke-linecap="round" stroke-linejoin="round" stroke-width=".75"><path d="M19.554 35.246c-.028-.513-.078-1.533-1.765-1.54-1.33-.014-1.674.746-1.66 1.273.008.548.085 1.062 1.674 1.336 1.688.288 1.934.83 1.891 1.519-.035.57-.372 1.3-1.877 1.3-1.533-.006-1.863-1.068-1.863-1.785M17.81 33.193v6.75"/></g><circle cx="37.5" cy="24.292" r="1"/><path fill="none" stroke="#000" stroke-linecap="round" stroke-linejoin="round" stroke-width=".75" d="M39.353 22.438a2.623 2.623 0 0 0-3.708 0m4.822-1.113a4.196 4.196 0 0 0-5.934 0"/><path fill="none" stroke="#000" stroke-linecap="round" stroke-linejoin="round" stroke-width=".75" d="M41.434 20.072a5.77 5.77 0 0 0-7.868 0"/><path fill="none" stroke="#000" stroke-linecap="round" stroke-linejoin="round" d="M36.136 34.205h2.728M45 11.705V8.96a.68.68 0 0 0-.682-.681H30.682A.68.68 0 0 0 30 8.96v2.745m0 20.455v2.743c0 .377.305.682.682.682h13.636a.68.68 0 0 0 .682-.682V32.16"/><rect width="15" height="21.818" x="30" y="11.023" fill="none" stroke="#000" stroke-linecap="round" stroke-linejoin="round" rx=".682" ry=".682"/><path d="M32.045 8.977a.682.682 0 1 0 0 1.364.682.682 0 0 0 0-1.364"/></svg>