<svg xmlns="http://www.w3.org/2000/svg" data-name="Isolation Mode" viewBox="0 0 50 50"><g fill="none" stroke="#000" stroke-linecap="round" stroke-linejoin="round"><path d="M35.786 22.979H24.784v24.119h18.004V29.472zv6.493h7.002"/><circle cx="33.786" cy="37.801" r="5.361"/><path d="m36.346 35.248-3.37 5.106-1.75-2.52" data-name="Path 60912"/></g><g fill="none" stroke="#000" stroke-linecap="round" stroke-linejoin="round"><path d="M23.532 19.266c2.36-1.728 3.964-5.107 3.964-8.994 0-5.644-3.38-7.777-7.549-7.777s-7.549 2.133-7.549 7.777c0 3.887 1.605 7.267 3.965 8.994M3.945 36.495l2.647-11.791a4.7 4.7 0 0 1 2.035-2.673s3.184-1.994 7.735-2.765c1.066.78 2.287 1.291 3.585 1.291s2.519-.51 3.585-1.291"/><path d="M27.974 20.48a24 24 0 0 0-4.447-1.214m13.209-1.518c1.176-.876 1.974-2.59 1.974-4.562 0-2.863-1.683-3.945-3.76-3.945s-3.76 1.082-3.76 3.945c0 1.972.8 3.686 1.975 4.563"/><path d="M33.165 17.748c.53.396 1.139.655 1.785.655.647 0 1.255-.259 1.786-.655"/><path d="M36.734 17.748c2.266.392 3.852 1.403 3.852 1.403.491.31.852.792 1.014 1.356l.32 1.638"/></g></svg>