<svg xmlns="http://www.w3.org/2000/svg" viewBox="0 0 50 50"><path fill="none" stroke="#000" stroke-linecap="round" stroke-linejoin="round" d="M20.32 39.4v2.523S20.305 45 24.973 45s4.654-3.077 4.654-3.077v-.617a.925.925 0 0 0-.928-.921h-7.45a.925.925 0 0 1-.93-.921v-.466c0-.508.416-.92.93-.92h4.502l2.094.004h1.596c.864-.258 1.483-2.043 1.57-2.904l.057-.56c0-.962.712-4.14 1.985-7.447C36.065 24.896 38 21.376 38 17.423 38 10.562 32.18 5 25 5s-13 5.562-13 12.423c0 4.049 2.028 7.644 5.165 9.912.95 1.913 1.333 3.375 1.333 4.472 0 1.661.736 3.98 3.143 3.98H30.9"/></svg>