<svg xmlns="http://www.w3.org/2000/svg" viewBox="0 0 50 50"><path fill="none" stroke="#000" stroke-linecap="round" stroke-linejoin="round" d="M25.054 5c8.082 0 13.025 4.661 14.308 12.847M25.054 5C16.97 5 12.028 9.661 10.746 17.847M31.139 40.777l8.115-2.946v-5.71"/><path fill="none" stroke="#000" stroke-linecap="round" stroke-linejoin="round" d="M40.61 32.121h-2.852V17.847h2.851s1.496 3.517 1.496 7.035-1.496 7.24-1.496 7.24m-17.602 9.896 6.323-2.137a1.43 1.43 0 0 1 1.808.895l.07.204a1.427 1.427 0 0 1-.895 1.807l-6.322 2.136a1.43 1.43 0 0 1-1.81-.896l-.069-.202a1.427 1.427 0 0 1 .895-1.807M7.895 17.847h2.851v5.71H7.895z"/></svg>