<svg xmlns="http://www.w3.org/2000/svg" viewBox="0 0 50 50"><circle cx="12.928" cy="18" r="1.5" fill="none" stroke="#000" stroke-miterlimit="10"/><circle cx="37.072" cy="32" r="1.5" fill="none" stroke="#000" stroke-miterlimit="10"/><circle cx="25" cy="39" r="1.5" fill="none" stroke="#000" stroke-miterlimit="10"/><path fill="none" stroke="#000" stroke-miterlimit="10" d="M23.5 23.5h3v3h-3zM35.572 16.5h3v3h-3zM12.928 30.64l-1.571 2.72H14.5zM25 9.64l-1.572 2.72h3.144z"/><path fill="none" stroke="#000" stroke-miterlimit="10" d="M28.464 5h-6.928l-3.464 6 3.464 6h6.928l3.464-6zM40.536 12h-6.928l-3.464 6 3.464 6h6.928L44 18zM40.536 26h-6.928l-3.464 6 3.464 6h6.928L44 32zM16.392 12H9.464L6 18l3.464 6h6.928l3.464-6zM16.392 26H9.464L6 32l3.464 6h6.928l3.464-6zM28.464 19h-6.928l-3.464 6 3.464 6h6.928l3.464-6zM28.464 33h-6.928l-3.464 6 3.464 6h6.928l3.464-6z"/></svg>