<svg xmlns="http://www.w3.org/2000/svg" data-name="Isolation Mode" viewBox="0 0 50 50"><g fill="none" stroke="#000" stroke-linecap="round" stroke-linejoin="round"><path d="M23.248 21.952c2.36-1.728 3.964-5.107 3.964-8.994 0-5.644-3.38-7.777-7.549-7.777s-7.549 2.133-7.549 7.777c0 3.887 1.605 7.267 3.965 8.994"/><path d="m3.66 39.18 2.648-11.79a4.7 4.7 0 0 1 2.035-2.673s3.184-1.994 7.735-2.765c1.066.78 2.287 1.291 3.585 1.291s2.519-.51 3.585-1.291"/><path d="M27.69 23.165a24 24 0 0 0-4.447-1.213"/></g><g fill="none" stroke="#000" stroke-linecap="round" stroke-linejoin="round"><path d="M36.885 43.347h2.909M46.34 19.347V16.42a.727.727 0 0 0-.728-.728H31.067a.727.727 0 0 0-.728.728v2.927m.001 21.818v2.927c0 .402.325.727.727.727h14.545a.727.727 0 0 0 .727-.727v-2.927"/><rect width="16" height="23.273" x="30.339" y="18.62" rx=".727" ry=".727"/></g><path d="M32.521 16.438a.727.727 0 1 0 0 1.454.727.727 0 0 0 0-1.454m5.819 16.548a.385.385 0 1 1-.001.77.385.385 0 0 1 0-.77m0-1a1.385 1.385 0 1 0 0 2.77 1.385 1.385 0 0 0 0-2.77"/><path fill="none" stroke="#000" stroke-linecap="round" stroke-linejoin="round" d="M40.786 30.923a3.46 3.46 0 0 0-4.896 0m6.366-1.468a5.54 5.54 0 0 0-7.833 0"/><path fill="none" stroke="#000" stroke-linecap="round" stroke-linejoin="round" d="M43.532 27.8a7.616 7.616 0 0 0-10.385 0"/></svg>