<svg xmlns="http://www.w3.org/2000/svg" viewBox="0 0 50 50"><path d="m39.85 28.71-5.519-2.004 3.729-4.536a.5.5 0 0 0-.474-.81l-5.781 1.024.96-5.791a.5.5 0 0 0-.815-.465l-4.494 3.777-2.064-5.496a.5.5 0 0 0-.468-.324h-.003a.5.5 0 0 0-.467.33l-2.004 5.518-4.535-3.728a.5.5 0 0 0-.81.474l1.023 5.78-5.791-.96a.501.501 0 0 0-.464.815l3.782 4.501-5.516 2.166a.5.5 0 0 0 .019.939l5.587 1.934-3.72 4.62a.5.5 0 0 0 .487.804l5.69-1.128-.959 5.777a.5.5 0 0 0 .815.465l4.494-3.777 2.064 5.495a.5.5 0 0 0 .468.325h.003a.5.5 0 0 0 .468-.33l2.003-5.518 4.536 3.727a.5.5 0 0 0 .57.045.5.5 0 0 0 .24-.518l-1.025-5.78 5.792.96a.5.5 0 0 0 .465-.814l-3.716-4.423 5.441-2.138a.501.501 0 0 0-.011-.936m-6.443 2.397a.5.5 0 0 0-.2.788l3.292 3.917-5.153-.854a.5.5 0 0 0-.574.58l.91 5.144-4.036-3.317a.498.498 0 0 0-.787.216l-1.782 4.91-1.837-4.89a.5.5 0 0 0-.79-.206l-3.999 3.36.855-5.153a.5.5 0 0 0-.59-.573l-5.05 1.001 3.264-4.051c.077-.096.112-.283.106-.406a.5.5 0 0 0-.336-.446l-4.936-1.709 4.892-1.92a.5.5 0 0 0 .214-.792l-3.361-4 5.154.855a.5.5 0 0 0 .574-.58l-.911-5.144 4.035 3.317a.5.5 0 0 0 .787-.216l1.784-4.91 1.837 4.89a.5.5 0 0 0 .789.207l3.999-3.36-.854 5.153a.5.5 0 0 0 .58.574l5.144-.91-3.318 4.035a.5.5 0 0 0 .216.787l4.94 1.794z"/><path d="M24.498 28.937c0-1.24-1.01-2.25-2.25-2.25s-2.25 1.01-2.25 2.25 1.01 2.25 2.25 2.25 2.25-1.01 2.25-2.25m-2.25 1.25a1.251 1.251 0 0 1 0-2.5 1.251 1.251 0 0 1 0 2.5m5.412-3.5c-1.24 0-2.25 1.01-2.25 2.25s1.01 2.25 2.25 2.25 2.25-1.01 2.25-2.25-1.01-2.25-2.25-2.25m0 3.5a1.251 1.251 0 0 1 0-2.5 1.251 1.251 0 0 1 0 2.5m-2.7.062c-.631 0-1.386 1.208-1.386 1.684 0 .6.46 1.088 1.026 1.088q.191 0 .366-.07a1 1 0 0 0 .365.07c.566 0 1.025-.488 1.025-1.088 0-.463-.775-1.684-1.397-1.684m-.008 1.586c-.14 0-.287.038-.381.14.03-.13.23-.437.39-.622.162.186.362.502.372.663a.55.55 0 0 0-.381-.181"/><path d="M27.365 22.45a6.1 6.1 0 0 0-4.762 0c-1.476.62-4.017 2.176-4.463 5.624-.24 1.863.089 3.32.98 4.331.815.927 1.888 1.226 2.51 1.323v1.866c0 .887 1.822 1.074 3.35 1.074s3.351-.187 3.351-1.074v-1.866c.621-.097 1.696-.396 2.512-1.324.89-1.011 1.22-2.468.98-4.33-.446-3.447-2.984-5.003-4.458-5.623m2.735 9.285c-.888 1.017-2.256 1.038-2.268 1.038a.5.5 0 0 0-.5.5v2.12a4 4 0 0 1-.712.16v-1.711a.5.5 0 1 0-1 0v1.806c-.203.01-.407.02-.64.02s-.437-.01-.64-.02v-1.806a.5.5 0 1 0-1 0v1.712a4 4 0 0 1-.71-.16v-2.12a.5.5 0 0 0-.5-.5c-.013 0-1.38-.022-2.267-1.038-.686-.786-.932-1.975-.73-3.533.362-2.804 2.297-4.175 3.857-4.83a5.1 5.1 0 0 1 3.987 0c1.558.656 3.492 2.026 3.854 4.83.201 1.558-.045 2.746-.731 3.532"/><path d="M45.034 5.566H4.966a.5.5 0 0 0-.5.5v30.578a.5.5 0 0 0 .5.5H9.87a.5.5 0 1 0 0-1H5.466V12.269h39.068v23.875h-3.813a.5.5 0 1 0 0 1h4.313a.5.5 0 0 0 .5-.5V6.066a.5.5 0 0 0-.5-.5m-39.568 1h39.068v4.703H5.466z"/><path d="M10.69 8.417H7.828a.5.5 0 1 0 0 1h2.862a.5.5 0 1 0 0-1m5.724 0h-2.862a.5.5 0 1 0 0 1h2.862a.5.5 0 1 0 0-1m5.724 0h-2.862a.5.5 0 1 0 0 1h2.862a.5.5 0 1 0 0-1"/><circle cx="42.172" cy="8.917" r="1"/></svg>