<svg xmlns="http://www.w3.org/2000/svg" data-name="Isolation Mode" viewBox="0 0 50 50"><g fill="none" stroke="#231f20" stroke-linecap="round" stroke-linejoin="round"><path d="m23.767 29.075 11.122-11.122M34.89 26.041v-8.088H26.8"/><path d="M12.436 21.997c.632-3.822 3.978-6.742 8.022-6.742 1.197 0 2.332.257 3.355.716 1.353-3.568 4.833-6.107 8.913-6.107 5.257 0 9.518 4.213 9.518 9.411 0 .848-.115 1.67-.328 2.451C43.773 22.934 45 25.01 45 27.372c0 3.732-3.06 6.758-6.835 6.758H22.498"/></g><path fill="none" stroke="#231f20" stroke-linecap="round" stroke-linejoin="round" d="M13.633 23.372v15.116"/><path fill="#231f20" d="M8.866 31.274a.747.747 0 1 0 0 1.492q.027-.001.053-.004a.746.746 0 0 0-.053-1.488m-.943-3.906a.746.746 0 1 0 0 1.493c.018 0 .035-.005.053-.006a.744.744 0 0 0-.053-1.487m3.505-3.272a.746.746 0 0 0 0 1.494c.018 0 .036-.005.055-.006a.745.745 0 0 0-.055-1.488m.36 8.586a.746.746 0 1 0 0 1.493q.027-.001.053-.006a.744.744 0 0 0-.053-1.487m-3.385 2.85a.747.747 0 1 0 0 1.495c.018 0 .035-.005.053-.006a.746.746 0 0 0-.053-1.488m2.695 1.913a.747.747 0 1 0 0 1.495q.027-.002.053-.007a.746.746 0 0 0-.053-1.488"/><path fill="none" stroke="#231f20" stroke-linecap="round" stroke-linejoin="round" d="M10.348 28.543c.114-.763-.242-1.521-.926-1.974-.726-.457-1.705-.457-2.687 0-1.311.613-.863 2.589-.86 2.609a.18.18 0 0 1-.03.146c-.01.015-1.01 1.48-.478 2.622.299.638 1.031 1.07 2.178 1.285"/><path fill="none" stroke="#231f20" stroke-linecap="round" stroke-linejoin="round" d="M11.065 24.53c-.696-.568-1.44-1.223-2.166-.93-.634.257-1.145 1.454-.812 2.628M13.633 38.488V23.371"/><path fill="none" stroke="#231f20" stroke-linecap="round" stroke-linejoin="round" d="M5.728 32.442c-.697.557-.858 1.41-.633 1.986.255.776.886 1.327 1.21 1.366.117.013.2.112.185.22q-.001.01-.005.023c-.214.764.001 1.575.577 2.164.33.402.84.65 1.39.68a.22.22 0 0 1 .232.144c.33.985 1.433 1.579 2.54 1.367 2.322-.27 2.408-1.856 2.409-1.904m-4.151-14.94c1.346-1.26 2.853-1.503 3.568-1.19.397.204.582.658.583 1.014M8.068 28.556l.923 1.718M11.203 29.94l-2.211.334M8.991 30.273l-.082 1.269M10.369 36.677l.514 1.102"/><path fill="none" stroke="#231f20" stroke-linecap="round" stroke-linejoin="round" d="m11.35 33.61-1.492.749.511 2.318M10.369 36.677l-1.509-.306M13.633 23.372v15.116"/><path fill="#231f20" d="M18.4 31.274a.746.746 0 0 0-.053 1.488l.053.004a.746.746 0 1 0 0-1.492m.944-3.906a.744.744 0 0 0-.053 1.487c.018.001.035.006.053.006a.747.747 0 1 0 0-1.493M15.59 29.11a.744.744 0 0 0-.053 1.487c.018 0 .034.005.053.005a.747.747 0 1 0 0-1.493m.249-5.013a.745.745 0 0 0-.055 1.488c.018.001.037.006.055.006a.746.746 0 0 0 0-1.494m-4.179 5.002a.745.745 0 0 0-.055 1.488c.02.001.038.006.056.006a.746.746 0 0 0 0-1.494m3.817 3.584a.744.744 0 0 0-.053 1.487q.027.005.053.006a.747.747 0 1 0 0-1.493m3.386 2.85a.746.746 0 0 0-.054 1.489c.019.001.035.006.054.006a.747.747 0 1 0 0-1.495m-2.695 1.914a.746.746 0 0 0-.054 1.488q.027.005.054.007a.747.747 0 1 0 0-1.495"/><path fill="none" stroke="#231f20" stroke-linecap="round" stroke-linejoin="round" d="M16.918 28.543c-.114-.763.242-1.521.927-1.974.726-.457 1.705-.457 2.686 0 1.312.613.864 2.589.861 2.609a.18.18 0 0 0 .029.146c.01.015 1.011 1.48.479 2.622-.299.638-1.032 1.07-2.178 1.285"/><path fill="none" stroke="#231f20" stroke-linecap="round" stroke-linejoin="round" d="M16.202 24.53c.695-.568 1.44-1.223 2.165-.93.634.257 1.146 1.454.813 2.628M13.633 38.488V23.371"/><path fill="none" stroke="#231f20" stroke-linecap="round" stroke-linejoin="round" d="M21.539 32.442c.697.557.857 1.41.633 1.986-.256.776-.887 1.327-1.21 1.366-.117.013-.2.112-.186.22l.005.023c.215.764 0 1.575-.577 2.164-.33.402-.839.65-1.39.68a.22.22 0 0 0-.232.144c-.33.985-1.432 1.579-2.539 1.367-2.322-.27-2.408-1.856-2.41-1.904m4.152-14.94c-1.347-1.26-2.854-1.503-3.569-1.19-.396.204-.581.658-.582 1.014M19.199 28.556l-.924 1.718M16.064 29.94l2.211.334M18.275 30.273l.083 1.269M16.897 36.677l-.514 1.102"/><path fill="none" stroke="#231f20" stroke-linecap="round" stroke-linejoin="round" d="m15.917 33.61 1.491.749-.51 2.318M16.897 36.677l1.509-.306"/></svg>