<svg xmlns="http://www.w3.org/2000/svg" data-name="Isolation Mode" viewBox="0 0 50 50"><path fill="none" stroke="#000" stroke-linecap="round" stroke-linejoin="round" d="M23 43.025h4M36 10.025V6a1 1 0 0 0-1-1H15a1 1 0 0 0-1 1v4.025m0 30v4.025a1 1 0 0 0 1 1h20a1 1 0 0 0 1-1v-4.025"/><path fill="none" stroke="#000" stroke-linecap="round" stroke-linejoin="round" d="M14 18.025v-8a1 1 0 0 1 1-1h20a1 1 0 0 1 1 1v30a1 1 0 0 1-1 1H15a1 1 0 0 1-1-1V27.892"/><path d="M17 6.025a1 1 0 1 0 0 2 1 1 0 0 0 0-2"/><path fill="none" stroke="#000" stroke-linecap="round" stroke-linejoin="round" d="M5.66 25.092 9.969 25l1.244 3.003 2.785-10.677 4.79 15.397 3.247-10.901 2.406 6.181 1.109-2.942h3.043"/><ellipse cx="30.121" cy="25.025" fill="none" stroke="#000" stroke-linecap="round" stroke-linejoin="round" rx="1.483" ry="1.474"/></svg>