<svg xmlns="http://www.w3.org/2000/svg" viewBox="0 0 50 50"><path fill="none" stroke="#000" stroke-linecap="round" stroke-linejoin="round" d="M9.318 39C5.828 39 3 36.203 3 32.753c0-3.441 2.814-6.231 6.291-6.246q0 0 0 0c0-5.13 4.205-9.287 9.391-9.287 1.38 0 2.69.297 3.87.826C24.116 13.93 28.13 11 32.839 11c6.065 0 10.982 4.862 10.982 10.86 0 .978-.133 1.926-.378 2.828C45.584 26.082 47 28.478 47 31.202 47 35.51 43.47 39 39.114 39z"/><g fill="none" stroke="#000" stroke-linecap="round" stroke-linejoin="round"><path d="M18 27h8M36 27h-8M27 26v-8M27 28v8"/><circle cx="27" cy="27" r="3.5"/><circle cx="27" cy="27" r="6"/></g></svg>