<svg xmlns="http://www.w3.org/2000/svg" data-name="Isolation Mode" viewBox="0 0 50 50"><g fill="none" stroke="#000" stroke-linecap="round" stroke-linejoin="round"><path d="M24.038 19.266C26.398 17.538 28 14.159 28 10.272c0-5.644-3.38-7.777-7.548-7.777-4.17 0-7.55 2.133-7.55 7.777 0 3.887 1.605 7.267 3.966 8.994M4.45 36.495l2.647-11.791a4.7 4.7 0 0 1 2.036-2.673s3.184-1.994 7.734-2.765c1.067.78 2.288 1.291 3.586 1.291 1.297 0 2.518-.51 3.585-1.291"/><path d="M28.48 20.48a24 24 0 0 0-4.447-1.214"/></g><g fill="none" stroke="#000" stroke-linecap="round" stroke-linejoin="round"><path d="M19.3 26.166h4.983v5"/><path d="M26.222 24.576c4.837-3.216 11.418-2.686 15.68 1.59 4.864 4.882 4.864 12.796 0 17.678-4.866 4.882-12.754 4.882-17.619 0s-4.865-12.796 0-17.678"/><path d="M33.05 28.755v6.25h3.75"/><circle cx="33.05" cy="35.005" r="6.25"/></g></svg>