<svg xmlns="http://www.w3.org/2000/svg" viewBox="0 0 50 50"><path fill="none" stroke="#000" stroke-linecap="round" stroke-linejoin="round" d="M13 34H9.318C5.828 34 3 31.203 3 27.753c0-3.441 2.814-6.231 6.291-6.246q0 0 0 0c0-5.13 4.205-9.287 9.391-9.287 1.38 0 2.69.297 3.87.826C24.116 8.93 28.13 6 32.839 6c6.065 0 10.982 4.862 10.982 10.86 0 .978-.133 1.926-.378 2.828C45.584 21.082 47 23.478 47 26.202c0 4.013-3.06 7.356-7 7.788h-3"/><path fill="none" stroke="#000" stroke-linecap="round" stroke-linejoin="round" d="M32 43.81a4.26 4.26 0 0 0 3-4.07V28.26A4.26 4.26 0 0 0 30.74 24H19.26A4.26 4.26 0 0 0 15 28.26v11.48A4.26 4.26 0 0 0 19.26 44h11.48c.439 0 .862-.066 1.26-.19"/><path stroke="#000" stroke-linecap="round" stroke-miterlimit="10" stroke-width=".075" d="M21.498 35.76q-.04-.077-.064-.183a3 3 0 0 1-.045-.226q-.098.1-.221.189c-.123.089-.173.11-.273.154s-.208.08-.325.106-.24.039-.373.039q-.335 0-.607-.096c-.272-.096-.336-.152-.465-.265a1.18 1.18 0 0 1-.404-.9q0-.68.506-1.04c.506-.36.82-.36 1.45-.36h.684v-.277q0-.335-.226-.533c-.226-.198-.364-.197-.64-.197q-.188 0-.329.045a.5.5 0 0 0-.234.123.52.52 0 0 0-.188.41h-.933q0-.247.115-.478c.115-.231.19-.293.338-.415s.33-.218.545-.29.46-.11.736-.11q.375 0 .695.092c.32.092.399.152.555.273s.278.272.367.453.133.393.133.635v1.883q0 .278.04.506c.04.228.068.284.12.396v.067zm-1.125-.675q.18 0 .338-.045c.158-.045.2-.069.285-.117a1 1 0 0 0 .365-.358v-.793h-.593q-.571 0-.842.184c-.271.184-.272.297-.272.523q0 .13.043.24c.043.11.073.139.131.192s.133.096.223.127.197.047.322.047Zm6.732-1.395q0 .462-.109.856c-.109.394-.18.49-.32.682s-.314.34-.518.449-.44.162-.705.162q-.36 0-.635-.117c-.275-.117-.341-.19-.474-.336v2h-.934v-5.852h.86l.039.426q.202-.243.482-.373c.28-.13.403-.13.65-.13q.403 0 .713.155c.31.155.381.25.522.44s.247.415.32.68.11.556.11.876zm-.933-.082q0-.285-.059-.537c-.059-.252-.098-.315-.18-.441s-.183-.226-.308-.299-.273-.11-.445-.11q-.312 0-.516.133c-.204.133-.242.208-.32.356v1.89a1 1 0 0 0 .318.356q.201.136.526.137a.85.85 0 0 0 .751-.418q.12-.192.176-.446a2 2 0 0 0 .057-.539zm5.56.082q0 .462-.109.856c-.109.394-.18.49-.32.682s-.314.34-.518.449-.44.162-.705.162q-.36 0-.635-.117c-.275-.117-.341-.19-.474-.336v2h-.934v-5.852h.86l.039.426q.202-.243.482-.373c.28-.13.403-.13.65-.13q.403 0 .713.155c.31.155.381.25.522.44s.247.415.32.68.11.556.11.876zm-.933-.082q0-.285-.059-.537c-.059-.252-.098-.315-.18-.441s-.183-.226-.308-.299-.273-.11-.445-.11q-.312 0-.516.133c-.204.133-.242.208-.32.356v1.89a1 1 0 0 0 .318.356q.202.136.525.137a.85.85 0 0 0 .752-.418q.12-.192.176-.446a2 2 0 0 0 .057-.539z"/></svg>