<svg xmlns="http://www.w3.org/2000/svg" data-name="Isolation Mode" viewBox="0 0 50 50"><path fill="none" stroke="#000" stroke-linecap="round" stroke-linejoin="round" d="M23 43.025h4M36 10.025V6a1 1 0 0 0-1-1H15a1 1 0 0 0-1 1v4.025m0 30v4.025a1 1 0 0 0 1 1h20a1 1 0 0 0 1-1v-4.025"/><rect width="22" height="32" x="14" y="9.025" fill="none" stroke="#000" stroke-linecap="round" stroke-linejoin="round" rx="1" ry="1"/><path d="M17 6.025a1 1 0 1 0 0 2 1 1 0 0 0 0-2"/><path fill="none" stroke="#000" stroke-linecap="round" stroke-linejoin="round" d="m30.22 32.747-3.73-3.872-1.696-2.444c-1.887-.78-2.417-1.817-2.417-1.817l.872-1.03-3.138-3.18s-.193-.268-1.465-.765l-1.696-2.423.88-.897 2.374 1.73c.487 1.298.773 1.488.773 1.488l3.116 3.201.964-.903s1.04.562 1.803 2.487l2.395 1.73 3.795 3.808z"/><path fill="none" stroke="#000" stroke-linecap="round" stroke-linejoin="round" d="m22.38 24.616-4.922 5.043a1.8 1.8 0 0 0-.508 1.26c0 .986.783 1.785 1.748 1.785.482 0 .918-.199 1.234-.52l5.164-5.294m2.187-2.276 1.462-1.49c1.68.468 3.456-.451 4.059-2.154.147-.415.208-.84.198-1.258l-2.415 1.301-.048.02-1.474-.963.119-1.724 2.455-1.323a3.4 3.4 0 0 0-.862-.473c-1.754-.65-3.69.278-4.325 2.07a3.5 3.5 0 0 0-.12 1.918l-1.275 1.297"/><path d="M18.96 29.985a.69.69 0 0 0-.683.696c0 .384.306.696.682.696s.682-.312.682-.696a.69.69 0 0 0-.682-.696"/></svg>