<svg xmlns="http://www.w3.org/2000/svg" viewBox="0 0 50 50"><g fill="none" stroke="#000" stroke-linecap="round" stroke-linejoin="round"><path d="M23.588 19.266c2.36-1.728 3.963-5.107 3.963-8.994 0-5.644-3.38-7.777-7.548-7.777-4.17 0-7.55 2.133-7.55 7.777 0 3.887 1.605 7.267 3.966 8.994M4 36.495l2.648-11.791a4.7 4.7 0 0 1 2.035-2.673s3.184-1.994 7.734-2.765c1.067.78 2.288 1.291 3.586 1.291 1.297 0 2.518-.51 3.585-1.291"/><path d="M28.03 20.48a24 24 0 0 0-4.447-1.214"/></g><ellipse cx="33.5" cy="35" fill="none" stroke="#000" stroke-linecap="round" stroke-linejoin="round" rx="12.5" ry="12.505"/><g fill="none" stroke="#000" stroke-linecap="round" stroke-linejoin="round"><circle cx="30.446" cy="34.568" r="2"/><circle cx="36.492" cy="34.568" r="2"/><path d="M32.21 42.681v-2.57M34.787 40.111v2.57M33.895 38.619c.328 0 .594-.298.594-.665 0-.326-.718-1.338-1.014-1.338s-1 1.018-1 1.338c0 .367.266.665.594.665z"/><path d="M30.277 42.09c0 .359 1.443.649 3.221.649s3.221-.29 3.221-.648v-2.623s4.701.007 3.95-5.801c-.438-3.386-2.8-5.107-4.695-5.905a6.36 6.36 0 0 0-4.943 0c-1.896.797-4.262 2.518-4.7 5.905-.751 5.808 3.946 5.801 3.946 5.801z"/></g></svg>