<svg xmlns="http://www.w3.org/2000/svg" viewBox="0 0 50 50"><circle cx="31.5" cy="18.5" r="13.5" fill="none" stroke="#000" stroke-miterlimit="10"/><circle cx="16.5" cy="33.5" r="11.5" fill="none" stroke="#000" stroke-miterlimit="10"/><path d="m27.909 18.537.283-2.525h2.762v.806h-1.979l-.12 1.094q.106-.06.301-.127.195-.064.448-.064.36 0 .641.114t.475.33.296.526c.103.31.102.443.102.705q0 .335-.099.635c-.099.3-.167.377-.304.53a1.45 1.45 0 0 1-.516.363 1.9 1.9 0 0 1-.735.133 2 2 0 0 1-.62-.096q-.3-.096-.532-.28c-.232-.184-.28-.275-.377-.453a1.35 1.35 0 0 1-.156-.614h.936q.035.325.234.503a.74.74 0 0 0 .511.178.7.7 0 0 0 .327-.072.6.6 0 0 0 .219-.199.9.9 0 0 0 .123-.3q.039-.175.039-.376 0-.198-.05-.365-.049-.165-.152-.285c-.103-.12-.154-.141-.256-.184s-.223-.065-.362-.065q-.141 0-.243.024c-.102.024-.129.036-.181.061s-.1.054-.14.087-.08.068-.117.105zm7.312 1.87a1.4 1.4 0 0 1-.253.23 2 2 0 0 1-.38.21 2.8 2.8 0 0 1-1.082.21q-.424 0-.766-.15c-.342-.15-.423-.246-.585-.434a2 2 0 0 1-.374-.697 3 3 0 0 1-.132-.934v-.677q0-.523.139-.935.139-.411.382-.699a1.65 1.65 0 0 1 1.29-.588q.422 0 .734.106.313.107.528.306.216.2.337.487.12.287.159.646h-.937q-.047-.383-.23-.576-.182-.193-.566-.193-.184 0-.342.094c-.158.094-.196.155-.273.275q-.117.181-.185.45a2 2 0 0 0-.068.62v.684q.004.698.232 1.068c.228.37.386.372.7.374q.114 0 .223-.016a1.3 1.3 0 0 0 .374-.119.4.4 0 0 0 .111-.084l.004-.902h-.824v-.718h1.78zM15.713 34.139h.578v.77h-.578v1.08h-.95v-1.08h-2.068l-.038-.596 2.092-3.301h.964zm-2.123 0h1.173V32.29l-.093.164zm6.753 1.268a1.4 1.4 0 0 1-.253.23 2 2 0 0 1-.381.21 2.8 2.8 0 0 1-1.082.21q-.424 0-.766-.15c-.342-.15-.423-.246-.584-.434a2 2 0 0 1-.375-.697 3 3 0 0 1-.131-.934v-.677q0-.523.138-.935.139-.411.383-.699a1.65 1.65 0 0 1 1.29-.588q.42 0 .733.106.314.107.529.306.215.2.337.487.12.287.158.646h-.936q-.049-.383-.231-.576t-.566-.193q-.184 0-.341.094c-.157.094-.196.155-.274.275q-.116.181-.184.45a2 2 0 0 0-.069.62v.684q.004.698.233 1.068c.229.37.386.372.7.374q.114 0 .223-.016a1.3 1.3 0 0 0 .374-.119.4.4 0 0 0 .11-.084l.004-.902h-.823v-.718h1.78z"/></svg>