<svg xmlns="http://www.w3.org/2000/svg" viewBox="0 0 50 50"><g fill="none" stroke="#000" stroke-linecap="round" stroke-linejoin="round"><path d="M11 11h28v34H11zM11 11l25-3v3"/><path d="m11 11 22-6v3.36"/></g><g fill="none" stroke="#000" stroke-linecap="round" stroke-linejoin="round"><circle cx="25" cy="28.005" r="4.253"/><path d="m29.9 21.052-.732 2.154.085.073q.326.295.601.622l2.119-.77"/><path d="m29.168 23.206.732-2.154a8.5 8.5 0 0 0-1.293-.753l-1.451 1.725m5.564 2.404-1.711 1.5q.152.442.237.898l2.222.374"/><path d="m31.009 25.928 1.711-1.5a8.5 8.5 0 0 0-.747-1.296l-2.119.769m-3.692-2.147-.459-2.226q-.749-.062-1.496.008l-.378 2.22m1.874-2.228.46 2.226q.505.094.993.27l1.451-1.725M27.08 34.013l1.501 1.71a8.4 8.4 0 0 0 1.296-.748l-.77-2.118"/><path d="m21.434 20.28 1.498 1.713q.442-.151.897-.236l.378-2.221m7.045 9.623 2.226-.463q.06-.749-.01-1.496l-2.222-.375m.709 6.075-2.154-.73-.075.088a6 6 0 0 1-.62.599l.77 2.118"/><path d="m29.801 32.17 2.154.73q.439-.62.753-1.292l-1.726-1.45"/><path d="m33.478 28.696-2.226.463a6.3 6.3 0 0 1-.27.999l1.726 1.45m-8.858 2.65.463 2.225q.75.06 1.496-.01l.374-2.222m-6.096.697.736-2.152-.076-.066a6.4 6.4 0 0 1-.61-.63l-2.119.764m2.805-.068-.736 2.152q.62.44 1.291.755l1.455-1.721"/><path d="m24.313 36.483-.463-2.225a6.3 6.3 0 0 1-1.017-.276l-1.455 1.721m7.203.02-1.501-1.71q-.442.151-.897.238l-.374 2.222m-6.822-6.403-1.714 1.497q.311.675.745 1.297l2.12-.765m-2.084-9.004 2.153.736.067-.08q.298-.328.629-.606l-.766-2.12"/><path d="m22.932 21.993-1.498-1.713q-.675.312-1.297.745l.766 2.12m-.696.685-2.153-.735a8.5 8.5 0 0 0-.755 1.292l1.723 1.454m-.272.998-2.227.458c-.041.498-.039 1 .008 1.496l2.22.38"/><path d="m17.273 31.567 1.714-1.497q-.15-.442-.235-.898l-2.221-.379m-.008-1.496 2.227-.458q.094-.508.272-.998l-1.723-1.454"/></g></svg>