<svg xmlns="http://www.w3.org/2000/svg" data-name="Isolation Mode" viewBox="0 0 50 50"><g fill="none" stroke="#000" stroke-linecap="round" stroke-linejoin="round"><path d="M23.588 19.266c2.36-1.728 3.963-5.107 3.963-8.994 0-5.644-3.38-7.777-7.548-7.777-4.17 0-7.55 2.133-7.55 7.777 0 3.887 1.605 7.267 3.966 8.994M4 36.495l2.648-11.791a4.7 4.7 0 0 1 2.035-2.673s3.184-1.994 7.734-2.765c1.067.78 2.288 1.291 3.586 1.291 1.297 0 2.518-.51 3.585-1.291"/><path d="M28.03 20.48a24 24 0 0 0-4.447-1.214"/></g><ellipse cx="33.5" cy="35" fill="none" stroke="#000" stroke-linecap="round" stroke-linejoin="round" rx="12.5" ry="12.505"/><path d="M28.621 38.06v3.24h-2.13v-3.24zm.565-1h-3.26c-.26 0-.435.165-.435.413v4.413c0 .248.174.413.435.413h3.26c.261 0 .435-.165.435-.413v-4.413c0-.248-.174-.413-.435-.413m5.269-4.49v8.73H32.5v-8.73zm.478-1h-2.911c-.349 0-.523.261-.523.61v9.51c0 .348.261.61.523.61h2.91c.35 0 .523-.262.523-.61v-9.51c0-.436-.087-.61-.522-.61m5.53 4.396V41.3h-1.956v-5.333zm.565-1h-3.086c-.26 0-.435.261-.435.523v6.288c0 .26.174.522.435.522h3.086c.261 0 .435-.261.435-.522v-6.288c0-.349-.174-.523-.435-.523"/><circle cx="27.454" cy="33.534" r="1.676" fill="none" stroke="#000" stroke-miterlimit="10"/><circle cx="33.501" cy="27.467" r="1.676" fill="none" stroke="#000" stroke-miterlimit="10"/><circle cx="39.485" cy="31.479" r="1.676" fill="none" stroke="#000" stroke-miterlimit="10"/><path fill="none" stroke="#000" stroke-miterlimit="10" d="m28.751 32.257 3.353-3.493M35.117 28.106l3.174 2.255"/></svg>