<svg xmlns="http://www.w3.org/2000/svg" data-name="Isolation Mode" viewBox="0 0 50 50"><g fill="none" stroke="#000" stroke-linecap="round" stroke-linejoin="round"><path d="m11.558 8.762 33.441-.011M11.579 15.763h33.42M22.757 22.763h22.242M26.221 29.763h18.778M21.328 8.762v7.001M35.252 8.762v7.001M35.252 22.763v7M42.214 15.763v7M14.366 15.763v4.31M28.289 15.763v7M24.297 36.764h20.702M42.214 29.964v6.8M28.289 29.763v7.001"/></g><circle cx="15.626" cy="30.624" r="10.625" fill="none" stroke="#000" stroke-linecap="round" stroke-linejoin="round"/><path d="M18.015 27.671c.624 0 1.132.534 1.132 1.19s-.508 1.19-1.132 1.19c-.635 0-1.132-.522-1.132-1.19s.497-1.19 1.132-1.19m-4.816 0c.624 0 1.132.534 1.132 1.19s-.508 1.19-1.132 1.19c-.653 0-1.164-.522-1.164-1.19s.511-1.19 1.164-1.19m4.816-.75c-1.052 0-1.882.855-1.882 1.94s.83 1.94 1.882 1.94c1.02 0 1.882-.855 1.882-1.94s-.861-1.94-1.882-1.94m-4.816 0c-1.053 0-1.914.855-1.914 1.94s.861 1.94 1.914 1.94c1.02 0 1.882-.855 1.882-1.94s-.861-1.94-1.882-1.94"/><path fill="none" stroke="#000" stroke-miterlimit="10" stroke-width=".75" d="M20.483 36.368h-9.816c-.449 0-.816-.38-.816-.846l.038-9.795c0-.465.367-.846.817-.846h9.815c.449 0 .816.38.816.846l-.038 9.795c0 .465-.367.846-.816.846Z"/><path fill="none" stroke="#000" stroke-linecap="round" stroke-linejoin="round" stroke-width=".75" d="m11.285 32.094 1.7 2.31 1.665-2.31 1.809 2.31 1.806-2.31 1.632 2.31"/><path fill="none" stroke="#000" stroke-linecap="round" stroke-miterlimit="10" stroke-width=".75" d="M23.085 28.327v4.595M8.166 28.327v4.595"/></svg>