<svg xmlns="http://www.w3.org/2000/svg" viewBox="0 0 50 50"><circle cx="16.445" cy="27.1" r="1.05"/><circle cx="33.346" cy="36.9" r="1.05"/><circle cx="24.895" cy="41.8" r="1.05"/><path d="M23.845 30.95h2.1v2.1h-2.1zM32.346 26.1h2v2h-2zM16.445 35.949l-1.1 1.902h2.2zM24.895 21.249l-1.1 1.902h2.2z"/><path d="m26.743 19 1.847 3.2-1.847 3.2h-3.695L21.2 22.2l1.848-3.2zm.577-1h-4.85l-2.424 4.2 2.425 4.2h4.85l2.424-4.2zm7.873 5.9 1.848 3.2-1.848 3.2h-3.695l-1.847-3.2 1.847-3.2zm.578-1h-4.85l-2.425 4.2 2.425 4.2h4.85l2.424-4.2zm-.578 10.8 1.848 3.2-1.848 3.2h-3.695l-1.847-3.2 1.847-3.2zm.578-1h-4.85l-2.425 4.2 2.425 4.2h4.85l2.424-4.2zm-17.478-8.8 1.847 3.2-1.847 3.2h-3.695l-1.848-3.2 1.848-3.2zm.577-1h-4.85l-2.425 4.2 2.425 4.2h4.85l2.425-4.2zm-.577 10.8 1.847 3.2-1.847 3.2h-3.695l-1.848-3.2 1.848-3.2zm.577-1h-4.85l-2.425 4.2 2.425 4.2h4.85l2.425-4.2zm7.873-3.9L28.59 32l-1.847 3.2h-3.695L21.2 32l1.848-3.2zm.577-1h-4.85L20.047 32l2.425 4.2h4.85l2.424-4.2zm-.577 10.8 1.847 3.2-1.847 3.2h-3.695L21.2 41.8l1.848-3.2zm.577-1h-4.85l-2.424 4.2L22.47 46h4.85l2.424-4.2z"/><path fill="none" stroke="#000" stroke-linecap="round" stroke-linejoin="round" d="M11.283 32H9.318C5.828 32 3 29.203 3 25.753c0-3.441 2.814-6.231 6.291-6.246q0 0 0 0c0-5.13 4.205-9.287 9.391-9.287 1.38 0 2.69.297 3.87.826C24.116 6.93 28.13 4 32.839 4 38.903 4 43.82 8.862 43.82 14.86c0 .978-.133 1.926-.378 2.828C45.584 19.082 47 21.478 47 24.202c0 4.013-3.06 7.356-7 7.788h-1.392"/></svg>