<svg xmlns="http://www.w3.org/2000/svg" viewBox="0 0 50 50"><g fill="none" stroke="#231f20" stroke-linecap="round" stroke-linejoin="round" data-name="Layer 1"><path d="M18.123 26.864c.177 1.881.28 4.409-.048 6.84m14.452-1.534c.193-4.472-.337-8.405-.627-10.157m-14.045 2.653c-.073-.48-.127-.763-.13-.776-.781-3.823 1.718-7.587 5.573-8.373a7.2 7.2 0 0 1 1.435-.144c2.95 0 5.57 1.828 6.635 4.49"/><path d="M16.758 17.296a9.52 9.52 0 0 1 6.063-4.103 9.5 9.5 0 0 1 7.465 1.609m1.643 1.49a9.4 9.4 0 0 1 2.13 4.287c.04.191.503 2.49.744 5.796m-19.042-7.099a9.3 9.3 0 0 0-.374 5.065c.008.04.523 2.776.522 5.95m5.317-11.003a4.72 4.72 0 0 0-1.164 4.147c.013.067 1.29 6.574.105 12.14m10.026-5.363c0 1.561-.082 3.23-.3 4.918m-6.841-17.074c.232-.088.472-.163.723-.214q.475-.096.958-.097a4.774 4.774 0 0 1 4.661 3.79c.04.196.572 2.838.745 6.458m-7.153-.031c.144 2.507.098 5.615-.576 8.5a2 2 0 0 0-.035.193"/><path d="M22.802 25.756a35 35 0 0 0-.406-2.79 2.374 2.374 0 0 1 1.857-2.8 2.38 2.38 0 0 1 2.809 1.846c.066.321 1.538 7.63.184 14.59"/><path d="M25.428 30.909c.083-4.618-.699-8.42-.699-8.42m.591 10.633A27 27 0 0 1 24.73 37"/></g><g fill="none" stroke="#231f20" stroke-linecap="round" stroke-linejoin="round"><path d="m46.478 38.822-7.07.11-.134-7.071M3.522 11.194l7.07-.109.134 7.07"/><path d="M36.889 41.123c-7.704 5.686-18.63 5.134-25.769-1.765-7.957-7.69-8.197-20.351-.536-28.281m2.511-2.2c7.704-5.686 18.629-5.134 25.768 1.765 7.957 7.69 8.197 20.351.536 28.281"/></g></svg>