<svg xmlns="http://www.w3.org/2000/svg" viewBox="0 0 50 50"><rect width="40" height="40" x="5" y="5.094" fill="none" stroke="#000" stroke-linecap="round" stroke-linejoin="round" rx="8.52" ry="8.52"/><g fill="none" stroke="#000" stroke-linecap="round" stroke-linejoin="round"><circle cx="25" cy="26.238" r="5.44"/><path d="M21.16 26.466c0-2.292 1.924-4.15 4.297-4.15"/><path d="M32.34 17.393h3.496c1.029 0 1.863.834 1.863 1.863v14.005a1.863 1.863 0 0 1-1.863 1.863H14.164a1.863 1.863 0 0 1-1.863-1.863V19.256c0-1.029.834-1.863 1.863-1.863h5.575a.2.2 0 0 0 .183-.114l.768-1.568a1.15 1.15 0 0 1 1.032-.647h6.556c.438 0 .837.25 1.032.647l.825 1.662z"/></g></svg>