<svg xmlns="http://www.w3.org/2000/svg" viewBox="0 0 50 50"><g fill="none" stroke="#000" stroke-linecap="round" stroke-linejoin="round"><path d="m25.059 35.033-2.193 9.217-3.411-6.146-5.623 4.236 2.299-9.424"/><path d="m24.819 33.944 2.226 10.306 3.41-6.146 5.624 4.236-2.317-9.498"/></g><path fill="none" stroke="#000" stroke-linecap="round" stroke-linejoin="round" d="m27.618 7.998 3.405-.994 1.584 3.163 3.517.472.155 3.531 3.02 1.856-1.3 3.289L40 22.234l-2.531 2.477.636 3.477-3.324 1.238-.839 3.435-3.542-.216-2.168 2.798-3.148-1.632-3.124 1.677-2.21-2.766-3.538.267-.889-3.422-3.342-1.19.586-3.486L10 22.451l1.959-2.948-1.349-3.27 2.993-1.899.104-3.533 3.51-.522 1.537-3.186 3.42.944 2.705-2.287z"/><g fill="none" stroke="#000"><path stroke-linecap="round" stroke-linejoin="round" d="M30.294 15.713h.001l-6.808 10.3-3.665-4.864"/><circle cx="25.059" cy="20.863" r="10" stroke-miterlimit="10"/></g></svg>