<svg xmlns="http://www.w3.org/2000/svg" data-name="Isolation Mode" viewBox="0 0 50 50"><circle cx="25" cy="25" r="20" fill="none" stroke="#000" stroke-linecap="round" stroke-linejoin="round"/><path d="M12.437 24.626v-5.688h1.816q.41.005.768.094.357.09.625.278.266.188.42.478.151.291.148.69a1.17 1.17 0 0 1-.235.72q-.23.3-.62.463.238.067.423.19a1.23 1.23 0 0 1 .502.675q.066.21.067.444 0 .407-.149.715a1.44 1.44 0 0 1-.412.515 1.9 1.9 0 0 1-.625.315q-.36.108-.78.111zm.94-3.293h.9q.21-.003.392-.057a.74.74 0 0 0 .314-.156.74.74 0 0 0 .29-.6.84.84 0 0 0-.075-.367.7.7 0 0 0-.209-.25.9.9 0 0 0-.318-.142 2 2 0 0 0-.402-.05h-.891zm0 .715v1.812h1.024q.223-.003.407-.068a1 1 0 0 0 .316-.178q.132-.113.209-.277c.077-.164.076-.232.076-.367a1.1 1.1 0 0 0-.066-.385.79.79 0 0 0-.496-.469 1.3 1.3 0 0 0-.403-.068zm3.592-3.11h3.383v.778h-1.23v4.137h1.23v.773h-3.383v-.773h1.203v-4.137h-1.203zm7.969 4.977q-.145.172-.34.316t-.437.25-.525.165q-.284.058-.604.058a2 2 0 0 1-.906-.2 1.95 1.95 0 0 1-.666-.544 2.5 2.5 0 0 1-.414-.814 3.5 3.5 0 0 1-.147-1.008v-.703q0-.54.141-1.008c.141-.468.229-.584.404-.817q.264-.347.647-.548t.875-.202q.44 0 .789.121.346.123.598.35.249.228.396.557c.147.329.16.464.186.734h-.922a2 2 0 0 0-.11-.414 1 1 0 0 0-.199-.312.84.84 0 0 0-.303-.198 1.2 1.2 0 0 0-.42-.068.9.9 0 0 0-.51.146q-.213.147-.353.395a2 2 0 0 0-.207.574 3.5 3.5 0 0 0-.07.682v.71q.003.357.072.68.068.326.215.573.146.249.377.396.23.15.555.152.132 0 .273-.017c.141-.017.183-.03.268-.057q.127-.037.232-.1.105-.06.172-.15l.008-1.136h-1.028v-.73h1.946zm4.086-1.406h-3.128v-.754h3.128zm.378-3.571h3.383v.778h-1.23v4.137h1.23v.773h-3.383v-.773h1.203v-4.137h-1.203zm5.209 3.508v2.18h-.937v-5.688h1.902q.425.004.787.127.361.123.623.352.26.229.409.555.146.326.146.736 0 .4-.146.719a1.6 1.6 0 0 1-.409.547 1.8 1.8 0 0 1-.623.347 2.5 2.5 0 0 1-.787.125zm0-.758h.965q.238 0 .426-.072a.87.87 0 0 0 .523-.51q.07-.18.07-.39 0-.223-.07-.41c-.07-.187-.115-.233-.203-.323a.9.9 0 0 0-.32-.209 1.2 1.2 0 0 0-.426-.078h-.965zM19.847 32.626H18.9l-1.851-3.914-.004 3.914h-.95v-5.688h.95l1.844 3.903.007-3.903h.95zm2.918.078q-.47 0-.856-.156a1.92 1.92 0 0 1-1.09-1.076 2.1 2.1 0 0 1-.152-.807v-.16q0-.504.162-.906.161-.402.434-.688.27-.285.633-.437.36-.153.76-.153.46 0 .812.155.351.155.588.433.235.28.357.662.12.383.121.84v.395h-2.93q.023.246.122.457.097.21.255.365t.372.242q.211.088.466.088.355 0 .655-.14c.3-.14.361-.223.486-.387l.508.476q-.102.153-.262.295-.16.143-.375.254a2.34 2.34 0 0 1-1.066.248m-.114-3.629a.9.9 0 0 0-.664.275q-.134.135-.224.329a1.6 1.6 0 0 0-.131.44h1.98v-.071a1.4 1.4 0 0 0-.072-.361 1 1 0 0 0-.178-.311.9.9 0 0 0-.295-.219 1 1 0 0 0-.416-.082m4.429.755 1.007-1.43h1.039l-1.492 2.081 1.539 2.145h-1.035l-1.047-1.48-1.043 1.48h-1.043l1.539-2.145-1.492-2.082h1.035zm4.69-2.454v1.023h1.598v.696h-1.597v2.027q0 .24.056.395.057.156.158.25a.6.6 0 0 0 .239.13q.137.038.3.038.122 0 .252-.014a6 6 0 0 0 .48-.07q.105-.021.175-.041l.105.644a1.3 1.3 0 0 1-.244.108q-.142.05-.31.08a4 4 0 0 1-.708.066q-.316 0-.58-.088c-.264-.088-.326-.15-.453-.273a1.3 1.3 0 0 1-.297-.477 2 2 0 0 1-.107-.697v-2.078h-1.031v-.696h1.03v-1.023z"/></svg>