<svg xmlns="http://www.w3.org/2000/svg" data-name="Isolation Mode" viewBox="0 0 50 50"><g fill="none" stroke="#000" stroke-linecap="round" stroke-linejoin="round"><path d="M23.588 19.268c2.36-1.727 3.963-5.106 3.963-8.993 0-5.644-3.38-7.778-7.548-7.778-4.17 0-7.55 2.134-7.55 7.778 0 3.887 1.605 7.267 3.966 8.994"/><path d="m4 36.497 2.648-11.79a4.7 4.7 0 0 1 2.035-2.674s3.184-1.993 7.734-2.765c1.067.781 2.288 1.292 3.586 1.292 1.297 0 2.518-.51 3.585-1.292"/><path d="M28.03 20.482a24 24 0 0 0-4.447-1.214"/></g><g fill="none" stroke="#000" stroke-linecap="round" stroke-linejoin="round"><circle cx="33.5" cy="35.003" r="12.5"/><path d="m38.743 27.851-7.548 7.547a3.68 3.68 0 0 0-5.054 1.617c-.838 1.701-.203 3.826 1.43 4.79a3.681 3.681 0 0 0 5.112-4.92l2.343-2.339 1.594 1.599a1.052 1.052 0 1 0 1.488-1.488v-.002l-1.597-1.596 1.487-1.488 1.597 1.597a1.052 1.052 0 0 0 1.488-1.488l-1.597-1.597.707-.704c.366-.365.459-.95.165-1.374a1.054 1.054 0 0 0-1.615-.154M30.717 38.63a1.315 1.315 0 1 1-2.63 0 1.315 1.315 0 0 1 2.63 0"/></g></svg>