<svg xmlns="http://www.w3.org/2000/svg" viewBox="0 0 50 50"><path fill="none" stroke="#231f20" stroke-linecap="round" stroke-linejoin="round" d="m17.244 24.093-.016-.002q-.008.437-.009.878c0 11.045 3.406 20 7.608 20 2.52 0 4.754-3.222 6.139-8.184.282-1.011.53-2.095.736-3.238l.543-4.113c.124-1.436.19-2.93.19-4.465 0-11.046-3.406-20-7.608-20-3.263 0-6.046 5.403-7.126 12.991z"/><path fill="none" stroke="#231f20" stroke-linecap="round" stroke-linejoin="round" d="m29.501 31.004.01.013q-.37.233-.746.461c-9.452 5.717-18.877 7.436-21.051 3.841-1.304-2.156.296-5.735 3.825-9.488a36 36 0 0 1 2.39-2.305l3.239-2.593a52 52 0 0 1 3.722-2.474c9.451-5.717 18.876-7.436 21.05-3.84 1.69 2.792-1.494 7.97-7.428 12.82z"/><path fill="none" stroke="#231f20" stroke-linecap="round" stroke-linejoin="round" d="M15.195 27.636c-6.032-4.73-9.32-9.841-7.688-12.667 2.1-3.64 11.558-2.112 21.124 3.41a52 52 0 0 1 3.772 2.398l3.29 2.527c.887.75 1.702 1.507 2.437 2.257 3.605 3.68 5.278 7.225 4.018 9.408-2.101 3.638-11.559 2.111-21.125-3.412a53 53 0 0 1-.755-.446l.01-.013z"/><path fill="none" stroke="#231f20" stroke-linecap="round" stroke-linejoin="round" stroke-width=".75" d="M24.084 20.478v5.696a1.965 1.965 0 0 0-1.297 2.517 1.98 1.98 0 0 0 2.347 1.268 1.965 1.965 0 0 0 .073-3.785v-1.767l1.206.002a.561.561 0 1 0 0-1.123h-1.206v-1.123h1.205a.561.561 0 0 0 0-1.123h-1.205v-.532c.001-.276-.184-.532-.456-.581a.562.562 0 0 0-.667.551m1.039 7.096a.702.702 0 1 1-.992.992.702.702 0 0 1 .992-.992"/></svg>