<svg xmlns="http://www.w3.org/2000/svg" viewBox="0 0 50 50"><path fill="none" stroke="#000" stroke-linejoin="round" d="M5 24.999V6.426c0-.79.64-1.43 1.429-1.43h18.573v6.601c.001.57.337 1.084.857 1.315.52.22 1.122.12 1.543-.257a3.25 3.25 0 0 1 2.172-.857 3.2 3.2 0 0 1 0 6.4 3.25 3.25 0 0 1-2.172-.857 1.46 1.46 0 0 0-1.543-.257 1.44 1.44 0 0 0-.857 1.314v6.6"/><path fill="none" stroke="#000" stroke-linejoin="round" d="M25.002 45.003H6.429c-.79 0-1.429-.64-1.429-1.429V25.001h6.6a1.429 1.429 0 0 0 1.058-2.4 3.12 3.12 0 0 1-.857-2.172 3.2 3.2 0 0 1 6.4 0 3.12 3.12 0 0 1-.857 2.172 1.429 1.429 0 0 0 1.057 2.4h6.6"/><path fill="none" stroke="#000" stroke-linejoin="round" d="M38.115 25.001a1.44 1.44 0 0 0-1.315.858 1.46 1.46 0 0 0 .258 1.543c.545.592.85 1.366.857 2.171a3.2 3.2 0 0 1-6.4 0 3.25 3.25 0 0 1 .856-2.171 1.46 1.46 0 0 0 .258-1.543A1.44 1.44 0 0 0 31.314 25H25v6.6a1.44 1.44 0 0 1-.858 1.315 1.46 1.46 0 0 1-1.543-.257 3.25 3.25 0 0 0-2.172-.857h-.003a3.2 3.2 0 0 0 .003 6.4 3.25 3.25 0 0 0 2.172-.857 1.46 1.46 0 0 1 1.543-.257c.52.231.856.746.857 1.315v6.6h18.573c.79 0 1.429-.64 1.429-1.429V25.001z"/></svg>