<svg xmlns="http://www.w3.org/2000/svg" viewBox="0 0 50 50"><rect width="40" height="40" x="5" y="5" fill="none" stroke="#000" stroke-dasharray="0 3.027998" stroke-linecap="round" stroke-linejoin="round" stroke-width="1.5" rx="8.52" ry="8.52"/><path d="m21.678 22.813 2.015-6.785h1.155l-2.69 8.532h-.943l-2.695-8.532h1.16zm9.208-2.197h-3.563v3.024h4.155v.92h-5.239v-8.532h5.186v.926h-4.102v2.742h3.563z"/><path fill="none" stroke="#000" stroke-linecap="round" stroke-linejoin="round" stroke-width=".75" d="M35 30.311v1.863M32.5 30.311v1.863M30 30.311v1.863"/><path d="M15.625 30.617a.625.625 0 1 1 0 1.25.625.625 0 0 1 0-1.25m0-.75c-.758 0-1.375.617-1.375 1.375s.617 1.375 1.375 1.375a1.376 1.376 0 0 0 0-2.75"/><path fill="none" stroke="#000" stroke-miterlimit="10" stroke-width=".75" d="M13.366 28.742h23.245a.89.89 0 0 1 .889.89v3.244a.867.867 0 0 1-.866.866H13.366a.867.867 0 0 1-.866-.866V29.61c0-.478.388-.867.866-.867Z"/></svg>