<svg xmlns="http://www.w3.org/2000/svg" data-name="Isolation Mode" viewBox="0 0 50 50"><circle cx="25" cy="25" r="20" fill="none" stroke="#000" stroke-linecap="round" stroke-linejoin="round"/><path d="M24.622 25.208h-2.387v2.422h-.945v-5.688h3.683v.774h-2.738v1.722h2.387zm1.065-.398.309-2.868h3.043v.836h-2.27l-.144 1.348q.136-.078.363-.152.226-.075.523-.075.403 0 .72.133.32.134.538.381.219.248.336.602t.117.798q0 .395-.111.74c-.111.346-.188.432-.34.602q-.228.256-.576.405t-.82.148a2.2 2.2 0 0 1-.682-.104 1.8 1.8 0 0 1-.58-.304q-.255-.2-.416-.502-.162-.3-.186-.7h.903q.054.424.308.643.255.221.653.22a.9.9 0 0 0 .402-.085.8.8 0 0 0 .285-.24q.114-.155.17-.371c.056-.216.057-.303.057-.475q0-.245-.065-.453a.92.92 0 0 0-.514-.594 1.1 1.1 0 0 0-.441-.086q-.168 0-.289.026t-.217.07a1 1 0 0 0-.174.107 4 4 0 0 0-.156.133z"/></svg>