<svg xmlns="http://www.w3.org/2000/svg" viewBox="0 0 50 50"><g fill="none" stroke="#000" stroke-miterlimit="10"><path d="M20.138 7.596a2.818 2.818 0 0 0-5.566.628c0 .63.213 1.206.562 1.675"/><path d="M39.358 20.416c0-1.22.78-2.25 1.864-2.644a17.7 17.7 0 0 0-6.205-7.69 2.8 2.8 0 0 1-2.108.963 2.82 2.82 0 0 1-2.82-2.82q.002-.273.053-.531a17.6 17.6 0 0 0-5.192-.78c-1.67 0-3.28.248-4.812.682.047.203.076.412.076.628a2.82 2.82 0 0 1-2.821 2.821A2.81 2.81 0 0 1 15.134 9.9a17.7 17.7 0 0 0-6.519 8.024 2.81 2.81 0 0 1 2.027 2.694 2.82 2.82 0 0 1-2.82 2.821c-.153 0-.3-.021-.446-.045-.025.383-.059.764-.059 1.154 0 3.197.865 6.188 2.353 8.773a2.821 2.821 0 1 1 3.54 4.356 17.54 17.54 0 0 0 9.037 4.274c-.004-.058-.018-.114-.018-.174a2.821 2.821 0 1 1 5.643 0c0 .049-.012.095-.015.143a17.55 17.55 0 0 0 9.003-4.398 2.81 2.81 0 0 1-1.533-2.496 2.82 2.82 0 0 1 2.822-2.821c.864 0 1.628.397 2.145 1.01a17.53 17.53 0 0 0 2.288-8.667c0-.453-.023-.9-.056-1.345-.115.014-.228.035-.347.035a2.82 2.82 0 0 1-2.821-2.821Z"/><path d="M35.017 10.082a2.8 2.8 0 0 0 .713-1.858 2.82 2.82 0 0 0-5.589-.53m12.385 15.508A2.81 2.81 0 0 0 45 20.416a2.82 2.82 0 0 0-2.821-2.822c-.338 0-.657.07-.957.178M36.86 37.521a2.8 2.8 0 0 0 1.289.325 2.82 2.82 0 0 0 2.82-2.82 2.8 2.8 0 0 0-.675-1.813M22.247 41.95a2.813 2.813 0 0 0 2.803 2.647 2.814 2.814 0 0 0 2.807-2.678M9.67 33.32a2.821 2.821 0 0 0 3.54 4.356M8.615 17.923a2.8 2.8 0 0 0-.794-.127A2.82 2.82 0 0 0 5 20.617a2.815 2.815 0 0 0 2.376 2.776"/></g><g data-name="Inner Circles3"><circle cx="27.872" cy="15.277" r="2.116"/><circle cx="30.894" cy="33.816" r="2.116"/><circle cx="18.199" cy="19.61" r="2.116"/><circle cx="17.997" cy="30.088" r="2.116"/><circle cx="33.312" cy="25.453" r="2.116"/></g><g fill="none" stroke="#000" stroke-miterlimit="10"><path d="M32.91 11.146c.705 2.922 1.712 8.464.302 15.214-1.31 6.449-4.131 10.983-5.945 13.4m-4.332.202c-.907-1.108-7.456-9.572-4.837-20.352 1.612-6.953 6.146-10.983 7.86-12.494"/><path d="M17.897 10.844c.604 1.511 2.519 5.944 7.456 8.967 6.448 3.93 13.098 2.116 14.307 1.814"/><path d="M32.809 10.945c-1.613 1.813-4.434 4.634-8.766 6.65-5.542 2.62-10.58 2.72-13.098 2.62m3.123 13.803c1.31-1.713 4.635-5.643 10.277-7.557 8.766-3.023 16.323.604 17.733 1.41"/><path d="M10.601 21.124c.907 1.914 3.366 6.546 8.203 9.569 7.355 4.634 15.354 3.081 17.067 2.678"/></g></svg>