<svg xmlns="http://www.w3.org/2000/svg" data-name="Isolation Mode" viewBox="0 0 50 50"><path fill="none" stroke="#231f20" stroke-linecap="round" stroke-linejoin="round" d="M24.852 6.475v17.63"/><path fill="#231f20" d="M19.292 15.69a.87.87 0 1 0 0 1.741q.032-.001.062-.005a.87.87 0 0 0-.062-1.735m-1.1-4.555a.87.87 0 1 0 0 1.74l.062-.006a.867.867 0 0 0-.062-1.734M22.28 7.32a.87.87 0 0 0 0 1.742c.021 0 .042-.005.064-.007a.868.868 0 0 0-.064-1.736m.42 10.015a.87.87 0 1 0 0 1.74q.03-.002.062-.007a.867.867 0 0 0-.062-1.733m-3.948 3.323a.87.87 0 1 0 0 1.743q.03-.002.062-.007a.867.867 0 0 0 .807-.864.87.87 0 0 0-.87-.872m3.144 2.233a.87.87 0 1 0 0 1.742q.03-.002.062-.007a.867.867 0 0 0 .808-.864.87.87 0 0 0-.87-.871"/><path fill="none" stroke="#231f20" stroke-linecap="round" stroke-linejoin="round" d="M21.02 12.506c.134-.89-.281-1.774-1.08-2.302-.846-.533-1.989-.533-3.133 0-1.53.715-1.007 3.02-1.004 3.042a.2.2 0 0 1-.033.17c-.012.018-1.18 1.727-.56 3.059.35.744 1.204 1.249 2.541 1.499"/><path fill="none" stroke="#231f20" stroke-linecap="round" stroke-linejoin="round" d="M21.857 7.826c-.812-.663-1.68-1.427-2.526-1.085-.74.3-1.336 1.696-.948 3.065M24.852 24.105V6.475"/><path fill="none" stroke="#231f20" stroke-linecap="round" stroke-linejoin="round" d="M15.632 17.053c-.813.65-1 1.645-.738 2.316.298.906 1.034 1.548 1.41 1.593.137.016.235.13.217.257q-.001.013-.005.027c-.25.89 0 1.837.673 2.523.385.47.978.76 1.62.793a.254.254 0 0 1 .271.169c.385 1.149 1.67 1.84 2.961 1.594 2.709-.316 2.81-2.165 2.81-2.22M20.01 6.68c1.57-1.468 3.328-1.753 4.162-1.386.462.237.678.766.68 1.18M18.361 12.521l1.077 2.003M22.018 14.135l-2.579.39M19.438 14.524l-.096 1.48M21.045 21.993l.6 1.285"/><path fill="none" stroke="#231f20" stroke-linecap="round" stroke-linejoin="round" d="m22.188 18.415-1.739.874.596 2.704M21.045 21.993l-1.76-.358M24.852 6.475v17.63"/><path fill="#231f20" d="M30.411 15.69a.87.87 0 0 0-.062 1.736q.032.004.062.005a.87.87 0 1 0 0-1.74m1.101-4.555a.867.867 0 0 0-.062 1.734q.03.005.062.007a.87.87 0 1 0 0-1.741m-4.378 2.03a.867.867 0 0 0-.062 1.734q.03.005.062.007a.87.87 0 1 0 0-1.74m.29-5.847a.868.868 0 0 0-.064 1.736c.021 0 .043.006.064.006a.87.87 0 0 0 0-1.743m-4.873 5.834a.868.868 0 0 0-.064 1.736c.022.001.043.007.064.007a.87.87 0 0 0 0-1.743m4.453 4.181a.867.867 0 0 0-.062 1.734c.021.001.04.006.062.006a.87.87 0 1 0 0-1.74m3.948 3.323a.87.87 0 0 0-.87.872c0 .458.356.832.808.864q.03.005.062.007a.87.87 0 1 0 0-1.743m-3.143 2.233a.87.87 0 0 0-.87.87c0 .46.356.833.808.865q.03.005.062.007a.87.87 0 1 0 0-1.742"/><path fill="none" stroke="#231f20" stroke-linecap="round" stroke-linejoin="round" d="M28.683 12.506c-.133-.89.282-1.774 1.08-2.302.847-.533 1.99-.533 3.134 0 1.53.715 1.007 3.02 1.004 3.042a.2.2 0 0 0 .033.17c.012.018 1.18 1.727.559 3.059-.349.744-1.203 1.249-2.54 1.499"/><path fill="none" stroke="#231f20" stroke-linecap="round" stroke-linejoin="round" d="M27.847 7.826c.811-.663 1.68-1.427 2.526-1.085.74.3 1.336 1.696.947 3.065M24.852 24.105V6.475"/><path fill="none" stroke="#231f20" stroke-linecap="round" stroke-linejoin="round" d="M34.071 17.053c.814.65 1.001 1.645.739 2.316-.298.906-1.034 1.548-1.41 1.593-.138.016-.235.13-.217.257q.001.013.005.027c.25.89-.001 1.837-.673 2.523a2.24 2.24 0 0 1-1.62.793.254.254 0 0 0-.271.169c-.386 1.149-1.67 1.84-2.961 1.594-2.709-.316-2.81-2.165-2.81-2.22M29.694 6.68c-1.57-1.468-3.328-1.753-4.162-1.386-.463.237-.678.766-.68 1.18M31.343 12.521l-1.077 2.003M27.686 14.135l2.579.39M30.266 14.524l.096 1.48M28.659 21.993l-.6 1.285"/><path fill="none" stroke="#231f20" stroke-linecap="round" stroke-linejoin="round" d="m27.516 18.415 1.738.874-.595 2.704M28.659 21.993l1.76-.358"/><circle cx="25" cy="39.378" r="5.771" fill="none" stroke="#231f20" stroke-linecap="round" stroke-linejoin="round"/><g fill="none" stroke="#231f20" stroke-linecap="round" stroke-linejoin="round"><path d="m28.488 38.602-3.449 3.031-3.527-2.931M25.039 41.633l.011-16.348"/></g><path fill="none" stroke="#231f20" stroke-linecap="round" stroke-linejoin="round" d="m12.01 34.178-4.545-.685-.015-4.578"/><circle cx="9.192" cy="32.019" r="5.771" fill="none" stroke="#231f20" stroke-linecap="round" stroke-linejoin="round"/><path fill="none" stroke="#231f20" stroke-linecap="round" stroke-linejoin="round" d="m7.465 33.493 10.687-8.996M42.426 28.862l.113 4.582-4.52.81"/><circle cx="40.808" cy="31.975" r="5.771" fill="none" stroke="#231f20" stroke-linecap="round" stroke-linejoin="round"/><path fill="none" stroke="#231f20" stroke-linecap="round" stroke-linejoin="round" d="m42.539 33.444-10.944-8.863"/></svg>