<svg xmlns="http://www.w3.org/2000/svg" data-name="Isolation Mode" viewBox="0 0 50 50"><g fill="none" stroke="#000" stroke-linecap="round" stroke-linejoin="round"><path d="M25.874 9.84c2.355 1.242 3.958 3.685 3.958 6.499 0 .582-.08 1.143-.21 1.686M25.874 9.84a7.55 7.55 0 0 0-3.53-.87c-3.21 0-5.948 1.988-7.012 4.781a6.5 6.5 0 0 0-2.64-.56c-3.536 0-6.403 2.82-6.403 6.3v.002C3.92 19.503 2 21.396 2 23.73c0 2.34 1.929 4.239 4.308 4.239h8.008"/><path d="M25.874 9.84a6.46 6.46 0 0 1 5.458-.09c1.064-2.792 3.802-4.78 7.012-4.78 4.135 0 7.488 3.299 7.488 7.369 0 .664-.09 1.307-.258 1.919 1.46.946 2.426 2.571 2.426 4.42 0 2.923-2.407 5.292-5.377 5.292h-4.925"/><path d="M16.818 36.97h-2.51c-2.38 0-4.308-1.898-4.308-4.24 0-2.334 1.919-4.228 4.29-4.237v-.001c0-3.48 2.866-6.301 6.402-6.301.942 0 1.835.201 2.64.56 1.064-2.793 3.802-4.781 7.012-4.781 4.135 0 7.488 3.299 7.488 7.369 0 .664-.09 1.307-.258 1.919 1.46.946 2.426 2.571 2.426 4.42 0 2.923-2.407 5.292-5.377 5.292h-1.441"/></g><g fill="none" stroke="#000" stroke-linecap="round" stroke-linejoin="round"><path d="M19 34.029h12v11.002H19zM29.494 34.029v-3.143c0-2.607-2.008-4.713-4.494-4.713s-4.494 2.106-4.494 4.713v3.143"/></g></svg>