<svg xmlns="http://www.w3.org/2000/svg" data-name="Isolation Mode" viewBox="0 0 50 50"><path stroke="#000" stroke-miterlimit="10" stroke-width=".05" d="m24.044 31.18.011 5.296a2.9 2.9 0 0 1-.199 1.025q-.187.48-.526.836a2.5 2.5 0 0 1-1.831.77q-.57 0-1.037-.204-.468-.204-.8-.561c-.332-.357-.396-.518-.521-.838s-.19-.663-.194-1.028l.011-5.296h.945l.022 5.296q.005.349.11.67.105.323.3.57.196.248.49.397.293.15.674.15c.38 0 .478-.048.67-.147s.356-.23.487-.397q.195-.25.298-.573c.103-.323.106-.438.113-.67l.016-5.296zm4.115 3.066 1.686-3.066h1.171l-2.272 3.878L31.07 39h-1.16l-1.73-3.126L26.445 39H25.27l2.331-3.942-2.272-3.878h1.166z"/><g fill="none" stroke="#000" stroke-linecap="round" stroke-linejoin="round" stroke-width=".996"><path d="M29.485 24.717c2.95-2.134 4.954-6.308 4.954-11.11C34.44 6.636 30.215 4 25.003 4s-9.436 2.636-9.436 9.607c0 4.802 2.005 8.977 4.956 11.111"/><path d="m5 46 3.31-14.565a5.82 5.82 0 0 1 2.543-3.302s3.98-2.463 9.669-3.416c1.333.965 2.859 1.596 4.481 1.596s3.149-.631 4.482-1.596"/><path d="m45 46-3.31-14.565a5.82 5.82 0 0 0-2.543-3.302s-3.98-2.463-9.669-3.416"/></g></svg>