<svg xmlns="http://www.w3.org/2000/svg" viewBox="0 0 50 50"><g fill="none" stroke="#000" stroke-linecap="round" stroke-linejoin="round"><ellipse cx="24.95" cy="17.16" rx="2.168" ry="2.16"/><ellipse cx="16.804" cy="23.179" rx="2.168" ry="2.16"/><ellipse cx="19.885" cy="32.84" rx="2.168" ry="2.16"/><ellipse cx="30.039" cy="32.84" rx="2.168" ry="2.16"/><ellipse cx="24.962" cy="25.75" rx="2.168" ry="2.16"/><ellipse cx="33.196" cy="23.179" rx="2.168" ry="2.16"/><path d="M24.982 19.362v4.262M18.967 23.754l3.954 1.28M21.062 31.052l2.594-3.558M28.865 31.065l-2.598-3.562M31.112 23.732l-4.109 1.33"/></g><g fill="none" stroke="#000" stroke-linecap="round" stroke-linejoin="round"><path d="m46.478 38.822-7.07.11-.134-7.071M3.522 11.194l7.07-.109.134 7.07"/><path d="M36.889 41.123c-7.704 5.686-18.63 5.134-25.769-1.765-7.957-7.69-8.197-20.351-.536-28.281m2.511-2.2c7.704-5.686 18.629-5.134 25.768 1.765 7.957 7.69 8.197 20.351.536 28.281"/></g></svg>