<svg xmlns="http://www.w3.org/2000/svg" viewBox="0 0 50 50"><path fill="none" stroke="#231f20" stroke-linecap="round" stroke-linejoin="round" d="M31.836 24.826h3.304" data-name="Line 154"/><path fill="none" stroke="#231f20" stroke-linecap="round" stroke-linejoin="round" d="m33.641 26.325 1.5-1.499-1.5-1.499" data-name="Path 60447"/><circle cx="20.782" cy="6.756" r="1.756" fill="none" stroke="#231f20" stroke-linecap="round" stroke-linejoin="round"/><g fill="none" stroke="#231f20" stroke-linecap="round" stroke-linejoin="round"><path d="M20.782 10.405"/><path stroke-dasharray="0 1.824401" d="M20.782 12.229v.912"/><path d="M20.782 14.054"/></g><circle cx="20.782" cy="43.244" r="1.756" fill="none" stroke="#231f20" stroke-linecap="round" stroke-linejoin="round"/><g fill="none" stroke="#231f20" stroke-linecap="round" stroke-linejoin="round"><path d="M20.782 39.595"/><path stroke-dasharray="0 1.824401" d="M20.782 37.771v-.912"/><path d="M20.782 35.946"/></g><circle cx="10.012" cy="10.256" r="1.756" fill="none" stroke="#231f20" stroke-linecap="round" stroke-linejoin="round"/><g fill="none" stroke="#231f20" stroke-linecap="round" stroke-linejoin="round"><path d="M12.161 13.205"/><path stroke-dasharray="0 1.824401" d="m13.236 14.679.537.737"/><path d="M14.311 16.154"/></g><circle cx="3.318" cy="19.643" r="1.756" fill="none" stroke="#231f20" stroke-linecap="round" stroke-linejoin="round"/><g fill="none" stroke="#231f20" stroke-linecap="round" stroke-linejoin="round" stroke-width="1.003"><path d="M6.806 20.715"/><path stroke-dasharray="0 1.824401" d="m8.55 21.25.872.268"/><path d="M10.294 21.786"/></g><circle cx="3.664" cy="31.376" r="1.756" fill="none" stroke="#231f20" stroke-linecap="round" stroke-linejoin="round"/><g fill="none" stroke="#231f20" stroke-linecap="round" stroke-linejoin="round" stroke-width="1.003"><path d="M7.083 30.101"/><path stroke-dasharray="0 1.824401" d="m8.792 29.463.855-.319"/><path d="M10.501 28.826"/></g><circle cx="10.155" cy="39.847" r="1.756" fill="none" stroke="#231f20" stroke-linecap="round" stroke-linejoin="round"/><g fill="none" stroke="#231f20" stroke-linecap="round" stroke-linejoin="round"><path d="M12.276 36.878"/><path stroke-dasharray="0 1.824401" d="m13.336 35.393.53-.742"/><path d="M14.396 33.908"/></g><path fill="none" stroke="#231f20" stroke-linecap="round" stroke-linejoin="round" stroke-width=".753" d="M20.548 17.002v15.002"/><path fill="#231f20" d="M15.818 24.844a.74.74 0 1 0 0 1.481l.052-.004a.74.74 0 0 0-.052-1.477m-.937-3.876a.74.74 0 1 0 0 1.482c.018 0 .035-.005.053-.006a.738.738 0 0 0-.053-1.476m3.479-3.248a.74.74 0 0 0 0 1.483l.054-.006a.739.739 0 0 0-.054-1.476m.357 8.521a.74.74 0 1 0 0 1.481q.027-.002.053-.006a.738.738 0 0 0-.053-1.475m-3.359 2.828a.74.74 0 1 0 0 1.483l.053-.006a.74.74 0 0 0-.053-1.477m2.675 1.9a.74.74 0 1 0 0 1.483c.018 0 .034-.005.052-.006a.74.74 0 0 0-.053-1.477"/><path fill="none" stroke="#231f20" stroke-linecap="round" stroke-linejoin="round" stroke-width=".753" d="M17.288 22.134c.113-.757-.24-1.51-.919-1.96-.72-.452-1.692-.452-2.666 0-1.302.61-.857 2.57-.855 2.59a.18.18 0 0 1-.028.145c-.01.015-1.004 1.47-.475 2.602.296.633 1.023 1.063 2.161 1.276"/><path fill="none" stroke="#231f20" stroke-linecap="round" stroke-linejoin="round" stroke-width=".753" d="M18 18.152c-.69-.564-1.43-1.214-2.15-.923-.629.255-1.137 1.443-.806 2.608M20.548 32.004V17.002"/><path fill="none" stroke="#231f20" stroke-linecap="round" stroke-linejoin="round" stroke-width=".753" d="M12.703 26.003c-.692.553-.851 1.4-.628 1.971.253.77.88 1.317 1.2 1.356.117.013.2.11.185.218l-.005.023c-.213.758 0 1.563.573 2.147.327.4.832.646 1.378.675.105-.01.203.05.231.144.328.977 1.421 1.566 2.52 1.356 2.304-.268 2.39-1.842 2.391-1.89m-4.12-14.826c1.337-1.25 2.832-1.492 3.542-1.18.393.201.577.652.578 1.005M15.025 22.147l.917 1.705M18.137 23.52l-2.195.332M15.942 23.851l-.082 1.26M17.309 30.207l.511 1.093"/><path fill="none" stroke="#231f20" stroke-linecap="round" stroke-linejoin="round" stroke-width=".753" d="m18.282 27.162-1.48.744.507 2.3M17.309 30.207l-1.498-.304M20.549 17.002v15.001999999999999"/><path fill="#231f20" d="M25.28 24.844a.74.74 0 0 0-.053 1.477l.052.004a.74.74 0 1 0 0-1.481m.937-3.876a.738.738 0 0 0-.053 1.475q.027.005.053.007a.74.74 0 1 0 0-1.482m-3.726 1.728a.738.738 0 0 0-.053 1.475q.026.005.053.006a.74.74 0 1 0 0-1.481m.247-4.976a.739.739 0 0 0-.054 1.477q.027.005.054.006a.74.74 0 0 0 0-1.482m-4.146 4.964a.739.739 0 0 0-.054 1.477c.018.001.036.006.054.006a.74.74 0 0 0 0-1.483m3.789 3.557a.738.738 0 0 0-.053 1.475q.026.004.053.006a.74.74 0 1 0 0-1.48m3.36 2.827a.74.74 0 0 0-.054 1.477q.026.005.053.006a.74.74 0 1 0 0-1.483m-2.675 1.9a.74.74 0 0 0-.052 1.477c.018.001.034.006.052.006a.74.74 0 1 0 0-1.483"/><path fill="none" stroke="#231f20" stroke-linecap="round" stroke-linejoin="round" stroke-width=".753" d="M23.809 22.134c-.113-.757.24-1.51.919-1.96.72-.452 1.692-.452 2.666 0 1.302.61.857 2.57.854 2.59a.18.18 0 0 0 .029.145c.01.015 1.004 1.47.475 2.602-.296.633-1.023 1.063-2.161 1.276"/><path fill="none" stroke="#231f20" stroke-linecap="round" stroke-linejoin="round" stroke-width=".753" d="M23.097 18.152c.69-.564 1.43-1.214 2.15-.923.629.255 1.136 1.443.806 2.608M20.549 32.004V17.002"/><path fill="none" stroke="#231f20" stroke-linecap="round" stroke-linejoin="round" stroke-width=".753" d="M28.394 26.003c.692.553.851 1.4.628 1.971-.253.77-.88 1.317-1.2 1.356-.117.013-.2.11-.185.218l.005.023c.213.758 0 1.563-.573 2.147a1.9 1.9 0 0 1-1.378.675.216.216 0 0 0-.231.144c-.328.977-1.421 1.566-2.52 1.356-2.304-.268-2.39-1.842-2.391-1.89m4.12-14.826c-1.337-1.25-2.833-1.492-3.542-1.18-.393.201-.577.652-.578 1.005M26.072 22.147l-.917 1.705M22.96 23.52l2.195.332M25.155 23.851l.082 1.26M23.788 30.207l-.511 1.093"/><path fill="none" stroke="#231f20" stroke-linecap="round" stroke-linejoin="round" stroke-width=".753" d="m22.815 27.162 1.48.744-.507 2.3M23.788 30.207l1.497-.304"/><path fill="#231f20" d="M45.927 19.435c.971 0 1.761.79 1.761 1.761v6.768c0 .971-.79 1.761-1.761 1.761h-6.768c-.97 0-1.76-.79-1.76-1.761v-6.768c0-.97.79-1.76 1.76-1.76zm0-.75h-6.768a2.51 2.51 0 0 0-2.51 2.51v6.768a2.51 2.51 0 0 0 2.51 2.511h6.768a2.51 2.51 0 0 0 2.511-2.511v-6.768a2.51 2.51 0 0 0-2.511-2.51"/><path fill="#231f20" d="M40.503 25.385q-.023-.043-.037-.1l-.027-.12a.8.8 0 0 1-.434.243 1 1 0 0 1-.207.02q-.18 0-.331-.052-.152-.051-.26-.145c-.109-.094-.129-.137-.17-.223a.7.7 0 0 1-.061-.282.67.67 0 0 1 .277-.574q.278-.204.827-.204h.337v-.139a.34.34 0 0 0-.11-.268q-.11-.1-.32-.1-.184 0-.27.08a.28.28 0 0 0-.084.212h-.605q0-.15.067-.285a.56.56 0 0 1 .194-.237 1 1 0 0 1 .31-.162q.184-.06.42-.06.214 0 .398.052c.184.052.228.087.318.155s.16.154.21.257a.8.8 0 0 1 .077.36v1.01q0 .188.025.312a.8.8 0 0 0 .07.214v.036zm-.576-.423a.62.62 0 0 0 .419-.158.4.4 0 0 0 .071-.09v-.405h-.308q-.141 0-.241.027c-.1.027-.122.044-.164.076q-.061.05-.093.118c-.032.068-.03.095-.03.149q0 .12.086.202.085.08.26.08m3.878-.73q0 .257-.06.476-.06.22-.176.38a.82.82 0 0 1-.682.342.75.75 0 0 1-.582-.248v1.109H41.7v-3.257h.559l.021.23q.109-.13.257-.202c.148-.072.214-.072.346-.072q.224 0 .396.086.17.087.289.244.117.158.177.378t.06.488zm-.605-.046q0-.148-.027-.277a.7.7 0 0 0-.085-.224.43.43 0 0 0-.147-.149.4.4 0 0 0-.219-.054.5.5 0 0 0-.26.062.4.4 0 0 0-.157.175v.982q.056.111.157.178a.5.5 0 0 0 .264.066q.128 0 .219-.056c.09-.056.108-.09.147-.155q.055-.097.082-.227c.027-.13.026-.178.026-.275zm3.277.046q0 .257-.06.476-.06.22-.176.38a.82.82 0 0 1-.682.342.75.75 0 0 1-.582-.248v1.109h-.605v-3.257h.559l.021.23q.109-.13.257-.202c.148-.072.214-.072.346-.072q.224 0 .396.086.17.087.29.244.116.158.176.378t.06.488zm-.604-.046q0-.148-.028-.277a.7.7 0 0 0-.085-.224.43.43 0 0 0-.147-.149.4.4 0 0 0-.219-.054.5.5 0 0 0-.26.062.4.4 0 0 0-.157.175v.982q.056.111.157.178a.5.5 0 0 0 .264.066q.13 0 .219-.056a.36.36 0 0 0 .147-.155q.056-.097.082-.227c.026-.13.027-.178.027-.275z"/></svg>