<svg xmlns="http://www.w3.org/2000/svg" data-name="Isolation Mode" viewBox="0 0 50 50"><path fill="none" stroke="#000" stroke-linecap="round" stroke-linejoin="round" d="M35.232 14.679h-21.96"/><g fill="none" stroke="#000" stroke-linecap="round" stroke-linejoin="round"><path d="M14.97 20.441h1.345"/><path stroke-dasharray="2.721456 2.041092" d="M18.356 20.441h13.267"/><path d="M32.644 20.441h1.345"/></g><path fill="none" stroke="#000" stroke-linecap="round" stroke-linejoin="round" d="m33.99 23.241 2.741-2.747-2.742-2.746M16.01 17.426l-2.741-2.747 2.742-2.747"/><circle cx="24.9" cy="33.5" r="9" fill="none" stroke="#000" stroke-linecap="round" stroke-linejoin="round"/><path fill="none" stroke="#000" stroke-linecap="round" stroke-linejoin="round" d="M45 29.5v-22H5v22M33.9 33.5H45s1-.549 1-2-1-2-1-2H33.037m-16.283 0H5s-1 .549-1 2 1 2 1 2h10.9M21.116 31.702h7.568v6.632h-7.568z"/><path fill="none" stroke="#000" stroke-linecap="round" stroke-linejoin="round" d="M27.734 31.702v-1.895a2.834 2.834 0 1 0-5.668 0v1.895"/></svg>