<svg xmlns="http://www.w3.org/2000/svg" data-name="Isolation Mode" viewBox="0 0 50 50"><g fill="none" stroke="#000" stroke-linecap="round" stroke-linejoin="round"><path d="M23.06 20.018c2.36-1.727 3.964-5.106 3.964-8.993 0-5.644-3.38-7.778-7.55-7.778-4.168 0-7.548 2.134-7.548 7.778 0 3.887 1.604 7.267 3.965 8.994"/><path d="m3.472 37.247 2.648-11.79a4.7 4.7 0 0 1 2.035-2.674s3.184-1.993 7.735-2.765c1.066.781 2.287 1.292 3.585 1.292s2.519-.51 3.585-1.292"/><path d="M27.502 21.232a24 24 0 0 0-4.447-1.214M36.264 18.5c1.175-.875 1.974-2.59 1.974-4.561 0-2.863-1.683-3.946-3.76-3.946s-3.76 1.083-3.76 3.946c0 1.972.8 3.686 1.975 4.562"/><path d="M32.692 18.5c.532.397 1.14.656 1.786.656s1.255-.259 1.786-.655"/><path d="M36.261 18.5c2.267.392 3.853 1.403 3.853 1.403.491.311.851.793 1.014 1.357l.32 1.637"/></g><g fill="none" stroke="#000" stroke-linecap="round" stroke-linejoin="round"><path d="M27.143 45.137h4.846M45.72 43.522v-17.77H13.412v17.77"/><path d="M45.72 46.753s.808-.444.808-1.616-.808-1.615-.808-1.615H13.412s-.807.443-.807 1.615.807 1.616.807 1.616zM26.278 31.447l-5.481 3.276L26.277 38M32.855 38l5.48-3.277-5.48-3.276M30.662 31.447 28.47 38"/></g></svg>