<svg xmlns="http://www.w3.org/2000/svg" viewBox="0 0 50 50"><g fill="none" stroke="#000" stroke-linecap="round" stroke-linejoin="round"><path d="M24.934 30.307V45M18.537 38.627 24.934 45l6.397-6.373M22.963 35.867C15.365 34.87 9.5 28.37 9.5 20.5 9.5 11.94 16.44 5 25 5s15.5 6.94 15.5 15.5c0 7.889-5.894 14.401-13.518 15.374"/></g><g fill="none" stroke="#000" stroke-linecap="round" stroke-linejoin="round"><path d="m30.554 15.553 3.44 4.894 3.44-4.894M33.995 20.473v4.638M31.777 20.426h4.426M31.777 22.905h4.426"/></g><g fill="none" stroke="#000" stroke-linecap="round" stroke-linejoin="round"><path d="M27.746 18.23c-.045-.806-.122-2.406-2.771-2.418-2.087-.021-2.628 1.17-2.606 1.999.011.86.133 1.667 2.628 2.097 2.65.453 3.036 1.303 2.97 2.385-.056.894-.586 2.041-2.948 2.041-2.407-.01-2.926-1.677-2.926-2.803M25.008 15.007v10.598"/></g><g fill="none" stroke="#000" stroke-linecap="round" stroke-linejoin="round"><path d="M12.391 19.189h5.767M12.391 21.456h5.767M19.471 23.642c-.668.984-1.474 1.469-2.471 1.469-1.963 0-3.533-1.94-3.533-4.78 0-2.839 1.57-4.778 3.533-4.778.997 0 1.835.512 2.46 1.454"/></g></svg>