<svg xmlns="http://www.w3.org/2000/svg" viewBox="0 0 50 50"><g fill="none" stroke="#000" stroke-linecap="round" stroke-linejoin="round"><path d="M15.648 18.634 5 25l10.648 6.366M34.352 31.366 45 25l-10.648-6.366"/></g><path fill="none" stroke="#000" stroke-linecap="round" stroke-linejoin="round" d="M23.234 14.333v13.531a4.667 4.667 0 0 0-3.082 5.98c.774 2.276 3.248 3.612 5.576 3.013a4.667 4.667 0 0 0 .173-8.993l.003-4.198 2.862.005a1.334 1.334 0 1 0 0-2.668l-.002-.002-2.862.002v-2.668h2.862a1.334 1.334 0 0 0 0-2.667l-2.863-.001.003-1.264c0-.655-.44-1.263-1.084-1.38a1.336 1.336 0 0 0-1.586 1.31m2.468 16.856a1.667 1.667 0 1 1-2.357 2.358 1.667 1.667 0 0 1 2.357-2.358"/></svg>