<svg xmlns="http://www.w3.org/2000/svg" viewBox="0 0 50 50"><g fill="none" stroke="#000" stroke-linecap="round" stroke-linejoin="round"><path d="M25 7.592v33.224M14.523 25.574a1.026 1.026 0 1 0 0 2.052c.025 0 .049-.006.073-.008a1.023 1.023 0 0 0-.073-2.044m5.16-3.534c.091.473.506.83 1.006.83.025 0 .049-.005.074-.006a1.023 1.023 0 0 0-.074-2.044 1.026 1.026 0 0 0-1.006 1.22m-7.234-2.999q.037-.002.073-.007a1.023 1.023 0 0 0-.073-2.044 1.026 1.026 0 1 0 0 2.051m8.731-8.216a1.026 1.026 0 1 0-1.026 1.026c.025 0 .049-.006.074-.007.531-.039.952-.477.952-1.019m-.235 19.896c.025 0 .048-.006.073-.007a1.022 1.022 0 0 0-.073-2.044 1.026 1.026 0 0 0 0 2.051m-8.467 5.24c0 .567.459 1.026 1.025 1.026.025 0 .049-.005.074-.007a1.023 1.023 0 0 0-.074-2.044c-.566 0-1.025.459-1.025 1.025m5.923 4.207c0 .566.46 1.026 1.026 1.026.025 0 .048-.006.073-.008a1.023 1.023 0 0 0-.073-2.044c-.567 0-1.026.46-1.026 1.026"/><path d="M17.78 18.957c.25-1.677-.533-3.343-2.036-4.337-1.596-1.005-3.75-1.004-5.906 0-2.882 1.345-1.898 5.69-1.89 5.733a.4.4 0 0 1-.063.322c-.023.032-2.224 3.253-1.053 5.762.656 1.403 2.266 2.353 4.786 2.824"/><path d="M19.355 10.138c-1.53-1.25-3.164-2.689-4.76-2.044-1.393.565-2.518 3.197-1.786 5.776M25 40.816V7.592"/><path d="M7.625 27.526c-1.533 1.225-1.886 3.099-1.39 4.366.56 1.705 1.948 2.916 2.656 3 .26.032.443.249.41.485l-.011.051c-.472 1.679.003 3.462 1.267 4.756.726.885 1.845 1.431 3.055 1.494.232-.024.45.111.51.317.727 2.167 3.148 3.47 5.581 3.004 5.105-.594 5.294-4.08 5.297-4.183M15.875 7.98c2.96-2.768 6.272-3.305 7.842-2.613.872.445 1.28 1.442 1.283 2.225M12.768 18.986l2.03 3.775M19.659 22.027l-4.861.734M14.798 22.761l-.181 2.789M17.826 36.836l1.13 2.421"/><path d="m19.98 30.094-3.277 1.646 1.123 5.096M17.826 36.836l-3.318-.673"/></g><g fill="none" stroke="#000" stroke-linecap="round" stroke-linejoin="round"><path d="M25 7.592v33.224M35.477 25.574a1.026 1.026 0 1 1 0 2.052c-.025 0-.049-.006-.073-.008-.532-.038-.953-.477-.953-1.018s.46-1.026 1.026-1.026m-5.16-3.534a1.025 1.025 0 0 1-1.006.83c-.025 0-.049-.005-.074-.006a1.023 1.023 0 0 1 .074-2.044 1.026 1.026 0 0 1 1.006 1.22m7.234-2.999q-.037-.002-.073-.007a1.023 1.023 0 0 1 .073-2.044 1.026 1.026 0 1 1 0 2.051m-8.731-8.216a1.026 1.026 0 1 1 1.026 1.026c-.025 0-.049-.006-.074-.007a1.02 1.02 0 0 1-.952-1.019m.235 19.896c-.025 0-.048-.006-.073-.007a1.022 1.022 0 0 1 .073-2.044 1.026 1.026 0 0 1 0 2.051m8.467 5.24c0 .567-.459 1.026-1.025 1.026-.025 0-.049-.005-.074-.007a1.023 1.023 0 0 1 .074-2.044c.566 0 1.025.459 1.025 1.025m-5.923 4.207c0 .566-.46 1.026-1.026 1.026-.025 0-.048-.006-.073-.008a1.023 1.023 0 0 1 .073-2.044c.567 0 1.026.46 1.026 1.026"/><path d="M32.22 18.957c-.25-1.677.533-3.343 2.036-4.337 1.596-1.005 3.75-1.004 5.906 0 2.882 1.345 1.898 5.69 1.89 5.733a.4.4 0 0 0 .063.322c.023.032 2.224 3.253 1.053 5.762-.656 1.403-2.266 2.353-4.786 2.824"/><path d="M30.645 10.138c1.53-1.25 3.164-2.689 4.76-2.044 1.393.565 2.518 3.197 1.786 5.776M25 40.816V7.592"/><path d="M42.375 27.526c1.533 1.225 1.886 3.099 1.39 4.366-.56 1.705-1.948 2.916-2.656 3-.26.032-.443.249-.41.485l.011.051c.472 1.679-.003 3.462-1.267 4.756-.726.885-1.845 1.431-3.055 1.494-.232-.024-.45.111-.51.317-.727 2.167-3.148 3.47-5.581 3.004-5.105-.594-5.294-4.08-5.297-4.183M34.125 7.98c-2.96-2.768-6.272-3.305-7.842-2.613-.872.445-1.28 1.442-1.283 2.225M37.232 18.986l-2.03 3.775M30.341 22.027l4.861.734M35.202 22.761l.181 2.789M32.174 36.836l-1.13 2.421"/><path d="m30.02 30.094 3.277 1.646-1.123 5.096M32.174 36.836l3.318-.673"/></g></svg>