<svg xmlns="http://www.w3.org/2000/svg" data-name="Isolation Mode" viewBox="0 0 50 50"><path fill="none" stroke="#000" stroke-linecap="round" stroke-linejoin="round" d="M7 23.025v4M41 39.025h3.025a1 1 0 0 0 1-1v-26a1 1 0 0 0-1-1H5.975a1 1 0 0 0-1 1v26a1 1 0 0 0 1 1z"/><path d="M43 24.025a1 1 0 1 0 0 2 1 1 0 0 0 0-2"/><rect width="32" height="24" x="9" y="13.025" fill="none" stroke="#000" stroke-linecap="round" stroke-linejoin="round" rx="1" ry="1"/><ellipse cx="25" cy="25.025" fill="none" stroke="#000" stroke-miterlimit="10" rx="7.71" ry="7.72"/><path fill="none" stroke="#000" stroke-linecap="round" stroke-linejoin="round" d="m28.515 20.719-6.958 8.607M21.421 20.719l6.958 8.607"/></svg>