<svg xmlns="http://www.w3.org/2000/svg" viewBox="0 0 50 50"><path fill="none" stroke="#000" stroke-linecap="round" stroke-linejoin="round" d="M33.653 23.286h5.71c.695 0 2.38.4 2.38 2.678s-1.685 2.574-2.38 2.574H29.014c1.271 2.904 1.922 3.55 1.922 5.305s.616 8.439-3.16 8.956c-2.697.37-2.418-1.662-2.511-2.585s-.837-6.371-1.58-7.294-3.813-4.281-4.185-4.281-3.905-.03-3.905-.03m18.081-10.575h5.687c.694 0 2.379.4 2.379 2.677s-1.685 2.574-2.38 2.574H35.42m3.951-5.257c.694 0 2.379-.297 2.379-2.574s-1.685-2.678-2.379-2.678M15.595 9.708l2.267-.01s1.458-1.241 3.193-2.172l18.293-.007c.694 0 2.379.4 2.379 2.677s-1.685 2.575-2.379 2.575h-5.695"/><rect width="7.345" height="23.268" x="8.25" y="7.344" fill="none" stroke="#000" stroke-linecap="round" stroke-linejoin="round" rx="1.334" ry="1.334"/></svg>