<svg xmlns="http://www.w3.org/2000/svg" data-name="Isolation Mode" viewBox="0 0 50 50"><path fill="none" stroke="#000" stroke-linecap="round" stroke-linejoin="round" d="M16.754 29.5H5s-1 .549-1 2 1 2 1 2h10.9"/><path fill="none" stroke="#000" stroke-linecap="round" stroke-linejoin="round" stroke-width=".75" d="m25 26.996-5.882 10h11.764zM25 30.231l.002 4.009"/><path d="M25 35.32a.37.37 0 0 0-.375.375c0 .212.162.375.375.375a.37.37 0 0 0 .375-.375.37.37 0 0 0-.375-.375"/><circle cx="24.9" cy="33.5" r="9" fill="none" stroke="#000" stroke-linecap="round" stroke-linejoin="round"/><path fill="none" stroke="#000" stroke-linecap="round" stroke-linejoin="round" d="M45 29.5v-22H5v22M33.9 33.5H45s1-.549 1-2-1-2-1-2H33.037M21 16.517v5.796M17 16.517v5.796M25 16.517v5.796M33 16.517v5.796M29 11.5v10.813"/></svg>