<svg xmlns="http://www.w3.org/2000/svg" viewBox="0 0 50 50"><path d="M25 23.22c.981 0 1.78.798 1.78 1.78 0 .981-.799 1.78-1.78 1.78s-1.78-.799-1.78-1.78c0-.982.799-1.78 1.78-1.78m0-1a2.78 2.78 0 1 0 0 5.56 2.78 2.78 0 0 0 0-5.56"/><path fill="none" stroke="#000" stroke-linecap="round" stroke-linejoin="round" d="M20.955 29.139a5.77 5.77 0 0 1-1.742-4.14 5.77 5.77 0 0 1 1.695-4.091m8.184-.001A5.77 5.77 0 0 1 30.787 25a5.77 5.77 0 0 1-1.695 4.092m-10.91 2.727a9.6 9.6 0 0 1-2.825-6.82 9.6 9.6 0 0 1 2.824-6.818m13.637 0A9.6 9.6 0 0 1 34.643 25a9.6 9.6 0 0 1-2.824 6.818"/><path d="M39.849 31.714a1.86 1.86 0 0 1-.005 3.715 1.86 1.86 0 0 1-1.606-2.786c.33-.573.948-.93 1.611-.93m0-1a2.856 2.856 0 0 0-1.431 5.333 2.856 2.856 0 1 0 2.857-4.949 2.84 2.84 0 0 0-1.426-.383M10.157 14.57a1.855 1.855 0 0 1 1.79 1.378c.13.479.063.98-.185 1.41a1.855 1.855 0 0 1-2.537.68 1.86 1.86 0 0 1-.68-2.538c.331-.573.949-.93 1.612-.93m0-1a2.857 2.857 0 1 0-.005 5.715 2.857 2.857 0 0 0 .005-5.714m29.687 1c.662 0 1.28.356 1.61.929a1.86 1.86 0 0 1-1.605 2.786c-.663 0-1.28-.356-1.611-.929-.248-.43-.314-.93-.186-1.41s.436-.879.866-1.127c.282-.163.602-.249.926-.249m0-1a2.857 2.857 0 1 0 .005 5.715 2.857 2.857 0 0 0-.006-5.715M10.151 31.714c.663 0 1.28.356 1.611.929.248.43.314.93.186 1.41a1.85 1.85 0 0 1-.866 1.127 1.855 1.855 0 0 1-2.536-.68 1.86 1.86 0 0 1 1.605-2.786m0-1a2.857 2.857 0 1 0 .005 5.715 2.857 2.857 0 0 0-.005-5.715M25 6c1.024 0 1.857.833 1.857 1.857S26.024 9.714 25 9.714s-1.857-.833-1.857-1.857S23.976 6 25 6m0-1a2.857 2.857 0 1 0 0 5.714A2.857 2.857 0 0 0 25 5m0 35.286c1.024 0 1.857.833 1.857 1.857S26.024 44 25 44s-1.857-.833-1.857-1.857.833-1.857 1.857-1.857m0-1A2.857 2.857 0 1 0 25 45a2.857 2.857 0 0 0 0-5.714"/><path fill="none" stroke="#000" stroke-linecap="round" stroke-linejoin="round" d="m12.628 15 9.897-5.714M27.474 40.715 37.371 35M10.153 30.714V19.286M39.846 30.714V19.286M22.525 40.715 12.628 35M37.371 15l-9.897-5.714"/><path d="M25 23.22c.981 0 1.78.798 1.78 1.78 0 .981-.799 1.78-1.78 1.78s-1.78-.799-1.78-1.78c0-.982.799-1.78 1.78-1.78m0-1a2.78 2.78 0 1 0 0 5.56 2.78 2.78 0 0 0 0-5.56"/><path fill="none" stroke="#000" stroke-linecap="round" stroke-linejoin="round" d="M20.955 29.139a5.77 5.77 0 0 1-1.742-4.14 5.77 5.77 0 0 1 1.695-4.091m8.184-.001A5.77 5.77 0 0 1 30.787 25a5.77 5.77 0 0 1-1.695 4.092m-10.91 2.727a9.6 9.6 0 0 1-2.825-6.82 9.6 9.6 0 0 1 2.824-6.818m13.637 0A9.6 9.6 0 0 1 34.643 25a9.6 9.6 0 0 1-2.824 6.818"/><path d="M39.849 31.714a1.86 1.86 0 0 1-.005 3.715 1.86 1.86 0 0 1-1.606-2.786c.33-.573.948-.93 1.611-.93m0-1a2.856 2.856 0 0 0-1.431 5.333 2.856 2.856 0 1 0 2.857-4.949 2.84 2.84 0 0 0-1.426-.383M10.157 14.57a1.855 1.855 0 0 1 1.79 1.378c.13.479.063.98-.185 1.41a1.855 1.855 0 0 1-2.537.68 1.86 1.86 0 0 1-.68-2.538c.331-.573.949-.93 1.612-.93m0-1a2.857 2.857 0 1 0-.005 5.715 2.857 2.857 0 0 0 .005-5.714m29.687 1c.662 0 1.28.356 1.61.929a1.86 1.86 0 0 1-1.605 2.786c-.663 0-1.28-.356-1.611-.929-.248-.43-.314-.93-.186-1.41s.436-.879.866-1.127c.282-.163.602-.249.926-.249m0-1a2.857 2.857 0 1 0 .005 5.715 2.857 2.857 0 0 0-.006-5.715M10.151 31.714c.663 0 1.28.356 1.611.929.248.43.314.93.186 1.41a1.85 1.85 0 0 1-.866 1.127 1.855 1.855 0 0 1-2.536-.68 1.86 1.86 0 0 1 1.605-2.786m0-1a2.857 2.857 0 1 0 .005 5.715 2.857 2.857 0 0 0-.005-5.715M25 6c1.024 0 1.857.833 1.857 1.857S26.024 9.714 25 9.714s-1.857-.833-1.857-1.857S23.976 6 25 6m0-1a2.857 2.857 0 1 0 0 5.714A2.857 2.857 0 0 0 25 5m0 35.286c1.024 0 1.857.833 1.857 1.857S26.024 44 25 44s-1.857-.833-1.857-1.857.833-1.857 1.857-1.857m0-1A2.857 2.857 0 1 0 25 45a2.857 2.857 0 0 0 0-5.714"/><path fill="none" stroke="#000" stroke-linecap="round" stroke-linejoin="round" d="m12.628 15 9.897-5.714M27.474 40.715 37.371 35M10.153 30.714V19.286M39.846 30.714V19.286M22.525 40.715 12.628 35M37.371 15l-9.897-5.714"/><path d="M25 23.22c.981 0 1.78.798 1.78 1.78 0 .981-.799 1.78-1.78 1.78s-1.78-.799-1.78-1.78c0-.982.799-1.78 1.78-1.78m0-1a2.78 2.78 0 1 0 0 5.56 2.78 2.78 0 0 0 0-5.56"/><path fill="none" stroke="#000" stroke-linecap="round" stroke-linejoin="round" d="M20.955 29.139a5.77 5.77 0 0 1-1.742-4.14 5.77 5.77 0 0 1 1.695-4.091m8.184-.001A5.77 5.77 0 0 1 30.787 25a5.77 5.77 0 0 1-1.695 4.092m-10.91 2.727a9.6 9.6 0 0 1-2.825-6.82 9.6 9.6 0 0 1 2.824-6.818m13.637 0A9.6 9.6 0 0 1 34.643 25a9.6 9.6 0 0 1-2.824 6.818"/><path d="M39.849 31.714a1.86 1.86 0 0 1-.005 3.715 1.86 1.86 0 0 1-1.606-2.786c.33-.573.948-.93 1.611-.93m0-1a2.856 2.856 0 0 0-1.431 5.333 2.856 2.856 0 1 0 2.857-4.949 2.84 2.84 0 0 0-1.426-.383M10.157 14.57a1.855 1.855 0 0 1 1.79 1.378c.13.479.063.98-.185 1.41a1.855 1.855 0 0 1-2.537.68 1.86 1.86 0 0 1-.68-2.538c.331-.573.949-.93 1.612-.93m0-1a2.857 2.857 0 1 0-.005 5.715 2.857 2.857 0 0 0 .005-5.714m29.687 1c.662 0 1.28.356 1.61.929a1.86 1.86 0 0 1-1.605 2.786c-.663 0-1.28-.356-1.611-.929-.248-.43-.314-.93-.186-1.41s.436-.879.866-1.127c.282-.163.602-.249.926-.249m0-1a2.857 2.857 0 1 0 .005 5.715 2.857 2.857 0 0 0-.006-5.715M10.151 31.714c.663 0 1.28.356 1.611.929.248.43.314.93.186 1.41a1.85 1.85 0 0 1-.866 1.127 1.855 1.855 0 0 1-2.536-.68 1.86 1.86 0 0 1 1.605-2.786m0-1a2.857 2.857 0 1 0 .005 5.715 2.857 2.857 0 0 0-.005-5.715M25 6c1.024 0 1.857.833 1.857 1.857S26.024 9.714 25 9.714s-1.857-.833-1.857-1.857S23.976 6 25 6m0-1a2.857 2.857 0 1 0 0 5.714A2.857 2.857 0 0 0 25 5m0 35.286c1.024 0 1.857.833 1.857 1.857S26.024 44 25 44s-1.857-.833-1.857-1.857.833-1.857 1.857-1.857m0-1A2.857 2.857 0 1 0 25 45a2.857 2.857 0 0 0 0-5.714"/><path fill="none" stroke="#000" stroke-linecap="round" stroke-linejoin="round" d="m12.628 15 9.897-5.714M27.474 40.715 37.371 35M10.153 30.714V19.286M39.846 30.714V19.286M22.525 40.715 12.628 35M37.371 15l-9.897-5.714"/></svg>