<svg xmlns="http://www.w3.org/2000/svg" viewBox="0 0 50 50"><path fill="none" stroke="#000" stroke-linecap="round" stroke-linejoin="round" d="m4.477 45.489 7.139-7.003M16.885 36.684 13.35 40.22l-3.536-3.536 3.536-3.535"/><path fill="none" stroke="#000" stroke-linecap="round" stroke-linejoin="round" d="m30.673 12.29 7.07 7.07-19.091 19.092-7.071-7.07zM31.027 8.4l10.607 10.607-2.121 2.121-10.607-10.607zM38.452 4.51l7.071 7.072-2.121 2.121-7.071-7.07zM28.553 14.41l1.414 1.415M26.431 16.532l1.414 1.414M24.31 18.653l1.414 1.414M22.189 20.774l1.414 1.415M20.067 22.896l1.414 1.414M17.946 25.017l7.071 7.071M15.825 27.138l1.414 1.414M13.703 29.26l1.415 1.414M39.866 10.168 21.481 28.553"/></svg>