<svg xmlns="http://www.w3.org/2000/svg" viewBox="0 0 50 50"><g fill="none" stroke="#000" stroke-linecap="round" stroke-linejoin="round" data-name="Group 12260"><path d="M43.5 33.646H31.581a4.63 4.63 0 0 1-3.96-2.66l-5.28-11.972c-.868-1.52-2.226-2.66-3.961-2.66H6.5"/><path d="m23.753 27.783-1.413 3.203c-.867 1.52-2.225 2.66-3.96 2.66H6.5m37-17.292H31.58a4.63 4.63 0 0 0-3.96 2.66l-1.443 3.228"/><path d="m39.54 12.363 3.96 3.99-3.96 3.991m0 9.312 3.96 3.99-3.96 3.99m-29.08.001-3.96-3.99 3.96-3.991m0-17.293-3.96 3.99 3.96 3.992"/></g></svg>