<svg xmlns="http://www.w3.org/2000/svg" viewBox="0 0 50 50"><g fill="none" stroke="#000" stroke-linecap="round" stroke-linejoin="round"><path d="M28.444 9.056c.012-.113.035-.224.035-.34a3.5 3.5 0 0 0-7 0c0 .116.023.227.034.34M32.486 43.06a3.49 3.49 0 0 0 3 1.725 3.5 3.5 0 0 0 3.5-3.5 3.47 3.47 0 0 0-.872-2.29m4.69-14.658a3.496 3.496 0 0 0-.781-6.905c-.519 0-1.006.12-1.449.322M11.866 39.02a3.47 3.47 0 0 0-.852 2.265 3.5 3.5 0 0 0 3.5 3.5c1.275 0 2.38-.69 2.992-1.709m-8.112-25.34a3.5 3.5 0 0 0-1.416-.304 3.494 3.494 0 0 0-.822 6.893"/><path d="M24.979 12.215c-1.816 0-3.292-1.388-3.466-3.159-5.185 1.012-9.562 4.252-12.119 8.68a3.497 3.497 0 0 1-1.416 6.696 3.5 3.5 0 0 1-.822-.108 18 18 0 0 0-.177 2.391c0 4.765 1.864 9.085 4.887 12.305a3.48 3.48 0 0 1 2.648-1.235 3.5 3.5 0 0 1 3.5 3.5 3.47 3.47 0 0 1-.508 1.791 17.9 17.9 0 0 0 7.473 1.64c2.683 0 5.22-.604 7.507-1.656a3.47 3.47 0 0 1-.5-1.775 3.5 3.5 0 0 1 3.5-3.5c1.054 0 1.987.474 2.628 1.21 3.01-3.217 4.865-7.527 4.865-12.28 0-.808-.072-1.598-.175-2.378a3.5 3.5 0 0 1-.781.095 3.494 3.494 0 0 1-1.448-6.678c-2.556-4.438-6.939-7.684-12.13-8.698-.174 1.77-1.65 3.16-3.466 3.16"/></g><g fill="none" stroke="#000" stroke-linecap="round" stroke-linejoin="round"><ellipse cx="25.001" cy="26.886" rx="5.615" ry="5.597"/><path d="m15.766 33.322 1.882-2.346-.074-.13a8 8 0 0 1-.47-1.041l-2.985.005"/><path d="m17.648 30.976-1.882 2.346q.578.824 1.272 1.516l2.584-1.491m-5.852-5.482 2.808-1.096q.01-.616.108-1.22l-2.6-1.462m2.492 2.683-2.807 1.095q.086.979.348 1.945l2.986-.005m3.634 4.322-.43 2.971q.906.413 1.868.661l1.47-2.59"/><path d="m20.309 37.098.43-2.97a8.4 8.4 0 0 1-1.117-.781l-2.584 1.49m8.073-16.347-1.1-2.797q-.982.086-1.951.349l.006 2.975m3.901 19.062-1.096-2.8a8.5 8.5 0 0 1-1.224-.11l-1.47 2.59m-4.448-15.111-2.981-.424a11.3 11.3 0 0 0-.662 1.863l2.6 1.461"/><path d="m18.537 17.685 2.355 1.874.133-.075a8.5 8.5 0 0 1 1.041-.467l-.006-2.975m-1.168 3.518-2.355-1.875q-.826.575-1.52 1.268l1.497 2.575"/><path d="m14.748 22.224 2.98.424q.346-.588.786-1.12l-1.497-2.575m12.229.682.424-2.971a11.4 11.4 0 0 0-1.869-.659l-1.465 2.593m7.91 1.868-1.887 2.343q.034.056.066.115.277.519.475 1.057h2.985"/><path d="m32.36 22.809 1.886-2.343a11 11 0 0 0-1.27-1.518l-2.587 1.486"/><path d="m29.67 16.664-.424 2.971q.601.35 1.143.8l2.587-1.487m-8.966-3.255 1.101 2.798q.619.01 1.225.107l1.465-2.593m5.619 11.013 2.81-1.091a11 11 0 0 0-.345-1.946H32.9m-1.455 12.117-2.352-1.879-.12.068q-.519.275-1.055.472v2.975"/><path d="m24.871 35.28 1.096 2.799a11 11 0 0 0 1.952-.344l-.001-2.976m1.175-.539 2.352 1.878q.827-.574 1.522-1.266l-1.493-2.578m.789-1.118 2.98.43q.415-.902.664-1.862l-2.597-1.466"/><path d="m36.23 25.927-2.81 1.09q-.01.616-.11 1.221l2.597 1.466m-.664 1.862-2.98-.43q-.346.588-.789 1.118l1.493 2.578"/></g><path fill="none" stroke="#000" stroke-linecap="round" stroke-linejoin="round" d="m27.24 26.793-1.664 2.948-1.479-5.71-1.294 2.785h-3.415 3.415l1.294-2.786 1.479 5.711zh3.373z"/></svg>