<svg xmlns="http://www.w3.org/2000/svg" viewBox="0 0 50 50"><rect width="11" height="11" x="37.257" y="19.327" fill="none" stroke="#000" stroke-linecap="round" stroke-linejoin="round" stroke-width=".75" rx="2.357" ry="2.357"/><path d="M40.906 25.655q-.022-.045-.037-.105c-.015-.06-.017-.084-.025-.13a.9.9 0 0 1-.283.197 1 1 0 0 1-.4.083q-.192 0-.348-.055a.8.8 0 0 1-.266-.152.68.68 0 0 1-.232-.516q0-.39.29-.595.29-.207.832-.206h.391v-.16a.39.39 0 0 0-.13-.305q-.13-.112-.367-.112a.6.6 0 0 0-.187.025.4.4 0 0 0-.135.07.3.3 0 0 0-.108.236h-.534q0-.141.066-.275c.066-.134.108-.168.193-.237s.19-.125.312-.166q.186-.063.422-.064.216 0 .399.053a.7.7 0 0 1 .317.157q.135.104.211.26t.076.363V25.1q0 .16.024.29a1 1 0 0 0 .068.227v.038zm-.644-.387a.7.7 0 0 0 .357-.093.6.6 0 0 0 .21-.204v-.455h-.34q-.328 0-.483.105c-.155.105-.155.17-.155.3q0 .074.024.138c.024.064.041.079.075.109a.4.4 0 0 0 .127.073.6.6 0 0 0 .185.027m3.721-.799q0 .264-.062.49a.9.9 0 0 1-.184.39.84.84 0 0 1-.7.35.9.9 0 0 1-.364-.066.8.8 0 0 1-.272-.193v1.146h-.535v-3.353h.492l.023.245a.8.8 0 0 1 .276-.214.9.9 0 0 1 .373-.076q.231 0 .408.09.18.09.3.252.12.164.183.39c.063.226.062.318.062.502zm-.535-.047q0-.164-.033-.308a.8.8 0 0 0-.102-.253.5.5 0 0 0-.177-.17.5.5 0 0 0-.256-.063.53.53 0 0 0-.295.075.54.54 0 0 0-.184.204v1.083a.6.6 0 0 0 .183.204.53.53 0 0 0 .3.078.5.5 0 0 0 .256-.065q.108-.064.175-.174a.7.7 0 0 0 .101-.256q.032-.144.032-.308zm3.05.047q0 .264-.062.49a.9.9 0 0 1-.184.39.84.84 0 0 1-.7.35.9.9 0 0 1-.365-.066.8.8 0 0 1-.271-.193v1.146h-.535v-3.353h.492l.023.245a.8.8 0 0 1 .276-.214.9.9 0 0 1 .373-.076q.23 0 .408.09.18.09.299.252.121.164.184.39c.063.226.062.318.062.502zm-.535-.047q0-.164-.033-.308a.8.8 0 0 0-.103-.253.5.5 0 0 0-.177-.17.5.5 0 0 0-.255-.063.53.53 0 0 0-.295.075.54.54 0 0 0-.184.204v1.083a.6.6 0 0 0 .183.204.53.53 0 0 0 .3.078.5.5 0 0 0 .255-.065q.108-.064.176-.174a.65.65 0 0 0 .1-.256q.033-.144.033-.308z"/><path fill="none" stroke="#000" stroke-linecap="round" stroke-linejoin="round" stroke-width=".75" d="M31.914 24.827h3.293" data-name="Line 154"/><path fill="none" stroke="#000" stroke-linecap="round" stroke-linejoin="round" stroke-width=".75" d="m33.713 26.32 1.494-1.493-1.494-1.494" data-name="Path 60447"/><circle cx="20.897" cy="6.818" r="1.75" fill="none" stroke="#000" stroke-linecap="round" stroke-linejoin="round"/><g fill="none" stroke="#000" stroke-linecap="round" stroke-linejoin="round" stroke-width=".75"><circle cx="20.929" cy="24.998" r="4.545"/><path d="m26.166 17.568-.783 2.302q.046.037.092.078.347.316.642.664l2.264-.822"/><path d="m25.383 19.87.783-2.302a9 9 0 0 0-1.382-.805l-1.55 1.843m5.946 2.569-1.829 1.604q.163.472.254.959l2.375.4"/><path d="m27.351 22.78 1.83-1.605a9 9 0 0 0-.8-1.385l-2.264.822m-3.945-2.294-.491-2.38a9 9 0 0 0-1.6.009l-.403 2.374"/><path d="m21.68 15.938.492 2.38q.54.1 1.061.288l1.551-1.843M23.152 31.42l1.605 1.827q.721-.334 1.384-.8l-.823-2.263m-8.2-13.442 1.601 1.831q.472-.161.96-.252l.403-2.374m7.529 10.285 2.38-.494a9 9 0 0 0-.011-1.6l-2.375-.4"/><path d="m28.363 30.231-2.303-.781-.08.094q-.314.347-.662.64l.823 2.264m-.081-2.998 2.303.781q.468-.664.804-1.382l-1.844-1.55M29.99 25.738l-2.379.494a7 7 0 0 1-.288 1.067l1.844 1.55M19.7 31.681l.495 2.379q.8.065 1.6-.012l.398-2.374m-6.515.746.787-2.301-.081-.07a7 7 0 0 1-.651-.674l-2.266.817"/><path d="m16.465 30.119-.787 2.3q.664.47 1.38.807l1.555-1.84"/><path d="m20.195 34.06-.495-2.38a7 7 0 0 1-1.087-.295l-1.555 1.84m7.699.022-1.605-1.828a7 7 0 0 1-.959.255l-.399 2.374m-7.291-6.843-1.832 1.6q.333.722.796 1.387l2.266-.817m-2.227-9.624 2.3.786.073-.084q.317-.352.671-.649l-.818-2.265m2.987 1.034-1.601-1.83q-.721.331-1.386.796l.818 2.265"/><path d="m15.807 20.537-2.301-.786a9 9 0 0 0-.807 1.381l1.841 1.553m-.29 1.067-2.38.49a9 9 0 0 0 .008 1.6l2.373.404"/><path d="m12.671 28.805 1.832-1.6a7 7 0 0 1-.252-.959l-2.373-.405m-.008-1.599 2.38-.49a7 7 0 0 1 .29-1.067l-1.84-1.553M19.121 26.924V24.92M20.974 26.924v-4.703M22.772 26.924v-3.108"/></g><g fill="none" stroke="#000" stroke-linecap="round" stroke-linejoin="round"><path d="M20.897 10.455"/><path stroke-dasharray="0 1.818182" d="M20.897 12.273v.909"/><path d="M20.897 14.091"/></g><circle cx="20.897" cy="43.182" r="1.75" fill="none" stroke="#000" stroke-linecap="round" stroke-linejoin="round"/><g fill="none" stroke="#000" stroke-linecap="round" stroke-linejoin="round"><path d="M20.897 39.545"/><path stroke-dasharray="0 1.818182" d="M20.897 37.727v-.909"/><path d="M20.897 35.909"/></g><circle cx="10.165" cy="10.306" r="1.75" fill="none" stroke="#000" stroke-linecap="round" stroke-linejoin="round"/><g fill="none" stroke="#000" stroke-linecap="round" stroke-linejoin="round"><path d="M12.307 13.245"/><path stroke-dasharray="0 1.818182" d="m13.377 14.714.536.735"/><path d="M14.448 16.184"/></g><circle cx="3.493" cy="19.662" r="1.75" fill="none" stroke="#000" stroke-linecap="round" stroke-linejoin="round"/><g fill="none" stroke="#000" stroke-linecap="round" stroke-linejoin="round"><path d="M6.969 20.729"/><path stroke-dasharray="0 1.818182" d="m8.707 21.263.869.267"/><path d="M10.445 21.797"/></g><circle cx="3.838" cy="31.354" r="1.75" fill="none" stroke="#000" stroke-linecap="round" stroke-linejoin="round"/><g fill="none" stroke="#000" stroke-linecap="round" stroke-linejoin="round"><path d="M7.245 30.083"/><path stroke-dasharray="0 1.818182" d="m8.949 29.448.851-.318"/><path d="M10.652 28.812"/></g><circle cx="10.307" cy="39.796" r="1.75" fill="none" stroke="#000" stroke-linecap="round" stroke-linejoin="round"/><g fill="none" stroke="#000" stroke-linecap="round" stroke-linejoin="round"><path d="M12.42 36.837"/><path stroke-dasharray="0 1.818182" d="m13.477 35.358.528-.74"/><path d="M14.534 33.878"/></g></svg>