<svg xmlns="http://www.w3.org/2000/svg" data-name="Isolation Mode" viewBox="0 0 50 50"><path fill="none" stroke="#000" stroke-linecap="round" stroke-linejoin="round" stroke-width=".75" d="M7.596 32.46H11l2-4 2 8 2-4h3.585"/><path d="M22.32 21.415a1 1 0 0 1-.094-.283 3 3 0 0 1-.051-.351q-.15.15-.336.284-.185.135-.408.237a2.35 2.35 0 0 1-1.012.22 2.5 2.5 0 0 1-.836-.134q-.373-.134-.634-.363a1.59 1.59 0 0 1-.545-1.222q0-.478.19-.838.193-.36.54-.598.35-.24.842-.358a4.7 4.7 0 0 1 1.098-.118h1.085v-.456q0-.264-.097-.473a.8.8 0 0 0-.274-.357 1.3 1.3 0 0 0-.433-.229q-.255-.08-.57-.08-.297 0-.53.075t-.395.199a.7.7 0 0 0-.25.293.74.74 0 0 0-.089.351h-.999q.007-.317.165-.623c.158-.306.257-.387.456-.55q.298-.245.725-.395t.97-.15q.494 0 .918.12t.733.366.487.61c.178.365.176.528.176.853v2.702q0 .29.054.615t.15.567v.086zm-1.757-.758q.291 0 .543-.075t.46-.199c.207-.124.256-.176.357-.282q.15-.158.236-.33v-1.176h-.924q-.87 0-1.353.258c-.483.258-.484.442-.484.81q0 .215.073.398a.8.8 0 0 0 .217.314q.145.132.366.207.219.075.51.075m9.463-2.084q0 .624-.15 1.163-.15.54-.44.937c-.29.397-.433.473-.718.623q-.427.226-.975.226-.532 0-.937-.172a1.95 1.95 0 0 1-.696-.494v2.793h-.993v-8.046h.907l.05.634q.29-.36.7-.551.41-.19.954-.19.557 0 .988.22.429.22.72.612c.29.392.34.574.44.937q.15.546.15 1.195zm-.994-.113q0-.424-.094-.808a2.1 2.1 0 0 0-.29-.677 1.5 1.5 0 0 0-.497-.464q-.3-.172-.72-.172-.477 0-.802.223-.325.222-.519.572v2.798q.194.344.516.562.322.216.816.217.415 0 .715-.174.3-.176.494-.47c.194-.295.225-.425.287-.683s.094-.528.094-.81zm7.637.113a4.3 4.3 0 0 1-.15 1.163q-.15.54-.44.937c-.29.397-.432.473-.717.623q-.427.226-.974.226-.532 0-.938-.172c-.406-.172-.502-.28-.695-.494v2.793h-.994v-8.046h.908l.048.634a1.95 1.95 0 0 1 .7-.551q.413-.19.954-.19.56 0 .988.22.43.22.72.612c.29.392.34.574.44.937q.15.546.15 1.195zm-.992-.113q0-.424-.094-.808a2.1 2.1 0 0 0-.29-.677 1.5 1.5 0 0 0-.497-.464 1.43 1.43 0 0 0-.72-.172q-.48 0-.803.223-.325.222-.518.572v2.798q.193.344.515.562.322.216.817.217.413 0 .714-.174.3-.176.494-.47c.194-.295.225-.425.288-.683q.093-.387.094-.81z"/><path fill="none" stroke="#000" stroke-linecap="round" stroke-linejoin="round" d="M25.484 37.034h12.061A7.455 7.455 0 0 0 45 29.579V9.49a7.455 7.455 0 0 0-7.455-7.455h-20.09A7.455 7.455 0 0 0 10 9.489v12.077"/><g fill="none" stroke="#000" stroke-linecap="round" stroke-linejoin="round"><path d="m20.514 39.119 1.878 1.868M29.036 45.719c.495.493.47 1.316-.054 1.839h0c-.525.522-1.351.546-1.847.053l-4.797-4.785c-.495-.493-.471-1.317.054-1.84h0c.524-.522 1.351-.546 1.846-.053z"/><circle cx="14.091" cy="32.686" r="9.091"/><circle cx="14.091" cy="32.686" r="6.5"/></g></svg>