<svg xmlns="http://www.w3.org/2000/svg" data-name="&amp;lt;Layer&amp;gt;" viewBox="0 0 50 50"><path d="M23.099 23.498a1 1 0 0 1-.094-.282 3 3 0 0 1-.05-.352q-.151.15-.337.285a2.44 2.44 0 0 1-1.42.456q-.462 0-.836-.133-.373-.135-.633-.364a1.6 1.6 0 0 1-.403-.542 1.6 1.6 0 0 1-.142-.68q0-.477.19-.837t.54-.599a2.5 2.5 0 0 1 .84-.357 4.7 4.7 0 0 1 1.099-.118h1.084v-.456q0-.264-.096-.473c-.096-.21-.155-.259-.274-.358s-.262-.174-.432-.228-.36-.08-.573-.08a1.7 1.7 0 0 0-.528.075q-.234.075-.395.198a.9.9 0 0 0-.25.293.74.74 0 0 0-.088.352h-1q.005-.317.165-.623.158-.306.456-.551.299-.243.725-.395.427-.15.97-.15.494 0 .918.121.424.12.734.365.308.246.485.61.178.365.178.854v2.701q0 .29.053.616.054.324.15.566v.086zm-1.756-.757q.29 0 .542-.075a2 2 0 0 0 .46-.2q.206-.122.356-.281.151-.158.236-.33v-1.176h-.923q-.87 0-1.354.258c-.484.258-.483.442-.483.81q0 .215.073.398.072.182.217.314c.145.132.219.156.365.207q.22.075.51.075m9.464-2.084q0 .623-.15 1.162-.15.54-.441.938a2.1 2.1 0 0 1-.717.623q-.427.225-.975.225-.532 0-.937-.171a1.9 1.9 0 0 1-.695-.495v2.793h-.995v-8.045h.909l.048.633a1.96 1.96 0 0 1 .7-.55q.413-.19.954-.19.56-.001.988.22.43.219.72.612.29.39.44.937.15.546.15 1.195zm-.994-.113q0-.423-.093-.809a2.1 2.1 0 0 0-.29-.676 1.5 1.5 0 0 0-.497-.464 1.4 1.4 0 0 0-.72-.172q-.48 0-.803.223a1.65 1.65 0 0 0-.518.572v2.798q.193.344.515.561t.817.218q.412 0 .714-.175.3-.174.494-.47.193-.295.288-.682.093-.388.093-.81zm7.638.113q0 .623-.15 1.162-.15.54-.44.938a2.1 2.1 0 0 1-.718.623q-.428.225-.975.225-.532 0-.938-.171a1.95 1.95 0 0 1-.695-.495v2.793h-.993v-8.045h.907l.05.633q.289-.359.7-.55.41-.19.953-.19.558-.001.989.22.429.219.72.612.29.39.44.937.15.546.15 1.195zm-.994-.113q0-.423-.094-.809a2.1 2.1 0 0 0-.29-.676 1.5 1.5 0 0 0-.497-.464 1.4 1.4 0 0 0-.72-.172q-.477 0-.802.223c-.325.223-.39.338-.519.572v2.798q.194.344.516.561.323.218.816.218.415 0 .715-.175.3-.174.494-.47.194-.295.287-.682c.093-.387.094-.529.094-.81z"/><path fill="none" stroke="#000" stroke-linecap="round" stroke-linejoin="round" d="M27.9 39.118h10.424a7.455 7.455 0 0 0 7.455-7.455v-20.09a7.455 7.455 0 0 0-7.455-7.455h-20.09a7.455 7.455 0 0 0-7.455 7.455v14.452"/><g fill="none" stroke="#000" stroke-linecap="round" stroke-linejoin="round"><circle cx="15.597" cy="40.034" r="1.027" stroke-width=".75"/><path d="m13.002 27.833-6.669 11.55c-1.153 1.998.289 4.494 2.595 4.494h13.338c2.306 0 3.747-2.496 2.594-4.493l-6.669-11.551c-1.153-1.997-4.036-1.997-5.189 0"/><path stroke-width=".75" d="m15.597 37.971 1.25-6.423a.497.497 0 0 0-.487-.592h-1.526a.497.497 0 0 0-.488.592z"/></g></svg>