<svg xmlns="http://www.w3.org/2000/svg" viewBox="0 0 50 50"><path d="M31.573 41.027c-4.7 3.133-11.007 2.49-15-1.527-4.343-4.372-4.626-11.304-.854-16.012v3.687a.5.5 0 1 0 1 0v-5.001a.5.5 0 0 0-.147-.354l-.008-.005a.5.5 0 0 0-.155-.102c-.039-.016-.08-.02-.12-.025-.024-.003-.045-.014-.07-.014h-4.968a.5.5 0 1 0 0 1h3.848c-4.249 5.102-3.998 12.737.766 17.531a12.9 12.9 0 0 0 9.156 3.8c2.465 0 4.944-.703 7.107-2.146a.5.5 0 0 0-.555-.832m7.178-1.674h-3.848c4.25-5.102 3.999-12.737-.765-17.531-4.327-4.356-11.168-5.052-16.263-1.654a.5.5 0 1 0 .554.832c4.699-3.133 11.007-2.49 15 1.527 4.343 4.371 4.626 11.303.854 16.012v-3.686a.5.5 0 1 0-1 0v5a.5.5 0 0 0 .148.354l.008.005a.5.5 0 0 0 .344.14h4.968a.5.5 0 1 0 0-1"/><path d="m18.949 32.231-1.103 4.856a.5.5 0 1 0 .975.22l1.095-4.823c.1-.338.324-.629.63-.817.013-.008 1.184-.719 2.849-1.036 1.025.656 2.17.65 3.195.002 1.67.316 2.852 1.026 2.864 1.034.306.188.53.479.622.785l1.104 4.856a.5.5 0 1 0 .974-.221l-1.111-4.888a2.44 2.44 0 0 0-1.064-1.384c-.048-.029-1.016-.612-2.47-.999.714-.877 1.137-2.106 1.137-3.417 0-2.318-1.363-3.702-3.645-3.702s-3.645 1.384-3.645 3.702c0 1.31.423 2.54 1.138 3.417-1.456.387-2.424.97-2.472 1a2.46 2.46 0 0 0-1.073 1.415M25 23.697c1.207 0 2.645.469 2.645 2.702 0 1.391-.553 2.655-1.444 3.298v.001q-1.2.868-2.401 0c-.891-.644-1.445-1.909-1.445-3.299 0-2.233 1.438-2.702 2.645-2.702"/><path d="M45.034 6.019H4.966a.5.5 0 0 0-.5.5v30.578a.5.5 0 0 0 .5.5h5.926a.5.5 0 1 0 0-1H5.466V12.722h39.068v23.875h-5.513a.5.5 0 1 0 0 1h6.013a.5.5 0 0 0 .5-.5V6.519a.5.5 0 0 0-.5-.5m-39.568 1h39.068v4.703H5.466z"/><path d="M10.69 8.87H7.828a.5.5 0 1 0 0 1h2.862a.5.5 0 1 0 0-1m5.724 0h-2.862a.5.5 0 1 0 0 1h2.862a.5.5 0 1 0 0-1m5.724 0h-2.862a.5.5 0 1 0 0 1h2.862a.5.5 0 1 0 0-1"/><circle cx="42.172" cy="9.37" r="1"/></svg>