<svg xmlns="http://www.w3.org/2000/svg" data-name="Isolation Mode" viewBox="0 0 50 50"><g fill="none" stroke="#000" stroke-linecap="round" stroke-linejoin="round"><path d="M23.13 19.266c2.36-1.728 3.963-5.107 3.963-8.994 0-5.644-3.38-7.777-7.549-7.777s-7.548 2.133-7.548 7.777c0 3.887 1.604 7.267 3.964 8.994M3.542 36.495l2.647-11.791a4.7 4.7 0 0 1 2.035-2.673s3.185-1.994 7.735-2.765c1.067.78 2.287 1.291 3.585 1.291s2.519-.51 3.586-1.291"/><path d="M27.571 20.48a24 24 0 0 0-4.447-1.214"/></g><g fill="none" stroke="#000" stroke-linecap="round" stroke-linejoin="round"><path d="M39.558 45.435a12.36 12.36 0 0 1-15.632-1.59c-4.85-4.882-4.85-12.797 0-17.679m1.933-1.59a12.36 12.36 0 0 1 15.631 1.59c4.85 4.882 4.85 12.797 0 17.679"/><path d="M18.958 26.166h4.968v5M46.458 43.845H41.49v-5"/></g><g fill="none" stroke="#000"><path stroke-linecap="round" stroke-linejoin="round" d="M36.522 28.822q-.402.02-.802.034l-.002-.003-1.918-1.474c-.633-.487-1.396-.499-2.037-.03l-2.066 1.507q-.4-.015-.803-.034c-1.516-.076-2.699-.506-2.699 1.572s.282 5.449.282 5.449-.17 2.527 2.755 4.662c2.515 1.836 3.467 2.5 3.467 2.5h0s.971-.664 3.486-2.5c2.924-2.135 2.755-4.662 2.755-4.662s.281-3.37.281-5.449-1.183-1.648-2.699-1.572"/><path stroke-linecap="round" stroke-linejoin="round" d="m34.437 33.117-2.374 3.59-1.503-1.995"/><circle cx="32.708" cy="34.595" r="4.103" stroke-miterlimit="10"/></g></svg>