<svg xmlns="http://www.w3.org/2000/svg" viewBox="0 0 50 50"><g fill="none" stroke="#000" stroke-linecap="round" stroke-linejoin="round"><path d="M15.035 25.48a1.026 1.026 0 1 0 0 2.052c.025 0 .049-.006.073-.008a1.023 1.023 0 0 0-.073-2.043m5.16-3.535c.091.473.506.831 1.006.831q.037-.002.073-.007a1.023 1.023 0 0 0-.073-2.044 1.026 1.026 0 0 0-1.006 1.22m-7.235-2.998c.026 0 .05-.006.074-.008a1.023 1.023 0 0 0-.073-2.044 1.026 1.026 0 1 0 0 2.052m8.73-8.216a1.026 1.026 0 1 0-1.025 1.025c.025 0 .049-.005.073-.007.532-.039.952-.477.952-1.018m-.235 19.895c.025 0 .05-.005.074-.007a1.022 1.022 0 0 0-.074-2.044 1.026 1.026 0 0 0 0 2.051m-8.466 5.241c0 .566.458 1.025 1.025 1.025.025 0 .049-.005.073-.007a1.023 1.023 0 0 0-.073-2.044c-.567 0-1.026.46-1.026 1.026m5.924 4.206c0 .567.459 1.026 1.025 1.026.026 0 .05-.006.074-.007a1.023 1.023 0 0 0-.074-2.044c-.566 0-1.025.459-1.025 1.025"/><path d="M18.292 18.864c.25-1.678-.533-3.344-2.036-4.338-1.596-1.005-3.75-1.004-5.906 0-2.882 1.346-1.898 5.69-1.89 5.734a.4.4 0 0 1-.063.321c-.024.032-2.224 3.254-1.053 5.762.655 1.403 2.266 2.353 4.786 2.825"/><path d="M19.867 10.045c-1.53-1.25-3.165-2.69-4.76-2.045-1.393.565-2.518 3.197-1.786 5.777"/><path d="M16.387 7.886c2.96-2.768 6.272-3.305 7.842-2.613.872.446 1.28 1.442 1.282 2.225v33.224c-.003.103-.191 3.59-5.296 4.184-2.433.466-4.854-.837-5.581-3.004-.061-.207-.278-.341-.51-.318-1.21-.062-2.329-.609-3.055-1.493-1.264-1.295-1.74-3.078-1.268-4.757l.011-.05c.034-.237-.15-.454-.41-.485-.707-.085-2.095-1.295-2.656-3-.495-1.268-.142-3.142 1.391-4.366M13.28 18.892l2.029 3.775M20.17 21.934l-4.861.733M20.17 21.934zM15.309 22.667l-.181 2.789M18.338 36.742l1.13 2.422"/><path d="m20.492 30-3.277 1.647 1.123 5.095M18.338 36.742l-3.318-.673"/></g><g fill="none" stroke="#000" stroke-linecap="round" stroke-linejoin="round"><path d="M25.513 41.046c.973.078 1.95.072 2.922-.02l.728-4.34a12.4 12.4 0 0 0 1.752-.464l2.932 3.34a16.5 16.5 0 0 0 2.53-1.462l-1.504-4.135q.635-.535 1.208-1.17.075-.085.147-.172l4.207 1.428a16.5 16.5 0 0 0 1.47-2.525l-3.37-2.832q.345-.958.527-1.95l4.346-.903c.079-.973.073-1.95-.019-2.922l-4.338-.73a12.4 12.4 0 0 0-.464-1.753l3.342-2.93a16.5 16.5 0 0 0-1.46-2.53l-4.136 1.502q-.539-.64-1.175-1.214c-.054-.05-.111-.095-.166-.143l1.43-4.206a16.5 16.5 0 0 0-2.525-1.47l-2.833 3.367a12.4 12.4 0 0 0-1.94-.526l-.897-4.348a17 17 0 0 0-2.714.006"/><path d="M25.513 16.3a8.28 8.28 0 0 1 6.896 2.018 8.304 8.304 0 0 1 .618 11.728 8.29 8.29 0 0 1-7.514 2.634"/><path d="M25.513 32.68a8.29 8.29 0 0 0 7.514-2.634 8.304 8.304 0 0 0-.618-11.728 8.28 8.28 0 0 0-6.896-2.018"/></g></svg>