<svg xmlns="http://www.w3.org/2000/svg" data-name="Isolation Mode" viewBox="0 0 50 50"><g fill="none" stroke="#231f20" stroke-linecap="round" stroke-linejoin="round"><circle cx="25" cy="25" r="11"/><path d="m46.478 38.822-7.07.11-.134-7.071M3.522 11.194l7.07-.109.134 7.07"/><path d="M36.889 41.123c-7.704 5.686-18.63 5.134-25.769-1.765-7.957-7.69-8.197-20.351-.536-28.281m2.511-2.2c7.704-5.686 18.629-5.134 25.768 1.765 7.957 7.69 8.197 20.351.536 28.281"/></g><g fill="none" stroke="#231f20" stroke-linecap="round" stroke-linejoin="round"><path d="M26.654 25.193c1.088-.8 1.827-2.363 1.827-4.162 0-2.612-1.558-3.6-3.48-3.6s-3.48.988-3.48 3.6c0 1.799.74 3.363 1.828 4.162"/><path d="m17.625 33.165 1.22-5.456c.15-.514.484-.953.938-1.237 0 0 1.468-.922 3.566-1.28.491.362 1.054.598 1.652.598s1.161-.236 1.653-.597"/><path d="m32.375 33.165-1.22-5.456a2.17 2.17 0 0 0-.938-1.237s-1.468-.922-3.566-1.28m5.602-.178c.557-.4.935-1.181.935-2.08 0-1.306-.797-1.8-1.78-1.8s-1.78.494-1.78 1.8c0 .899.378 1.68.935 2.08m-.001 0c.252.18.54.3.846.3s.594-.12.845-.3"/><path d="m35.18 29-.624-2.727a1.1 1.1 0 0 0-.48-.619s-.75-.461-1.824-.64m-14.505 0c-.557-.4-.935-1.181-.935-2.08 0-1.306.797-1.8 1.78-1.8s1.78.494 1.78 1.8c0 .899-.378 1.68-.935 2.08m.001 0c-.252.18-.54.3-.846.3s-.594-.12-.845-.3"/><path d="m14.82 29 .624-2.727a1.1 1.1 0 0 1 .48-.619s.75-.461 1.824-.64"/></g></svg>