<svg xmlns="http://www.w3.org/2000/svg" data-name="Isolation Mode" viewBox="0 0 50 50"><path fill="none" stroke="#000" stroke-linecap="round" stroke-linejoin="round" d="M10 37.5h-.682C5.828 37.5 3 34.703 3 31.253c0-3.441 2.814-6.231 6.291-6.246v-.001c0-5.128 4.205-9.286 9.391-9.286 1.38 0 2.69.297 3.87.826C24.116 12.43 28.13 9.5 32.839 9.5c6.065 0 10.982 4.862 10.982 10.86 0 .978-.133 1.925-.378 2.827C45.584 24.582 47 26.977 47 29.702c0 4.012-3.065 7.317-7.006 7.75M34.999 36.5v2M31.997 36.5v2M28.996 36.5v2"/><path d="M16.007 37a.5.5 0 1 1 0 1 .5.5 0 0 1 0-1m0-1c-.827 0-1.5.673-1.5 1.5s.673 1.5 1.5 1.5 1.5-.673 1.5-1.5-.673-1.5-1.5-1.5"/><path fill="none" stroke="#000" stroke-miterlimit="10" d="M13.02 34.5h23.933c.578 0 1.047.469 1.047 1.047v3.933a1.02 1.02 0 0 1-1.02 1.02H13.02A1.02 1.02 0 0 1 12 39.48v-3.96c0-.564.457-1.02 1.02-1.02Z"/><rect width="11" height="11" x="27.454" y="14.5" fill="none" stroke="#000" stroke-linecap="round" stroke-linejoin="round" stroke-width=".75" rx="2.357" ry="2.357"/><path d="M30.717 20.969a.5.5 0 0 1-.04-.115 2 2 0 0 1-.028-.141 1 1 0 0 1-.745.305q-.21 0-.38-.06a.9.9 0 0 1-.29-.166.74.74 0 0 1-.253-.563q0-.426.317-.649.316-.225.907-.225h.427v-.173q0-.21-.142-.333c-.142-.123-.228-.124-.4-.124q-.117 0-.205.028c-.088.028-.108.045-.147.077s-.068.07-.088.115a.34.34 0 0 0-.029.14h-.583a.7.7 0 0 1 .071-.298.8.8 0 0 1 .212-.259q.14-.112.34-.181.202-.069.46-.069.235 0 .435.058a.8.8 0 0 1 .347.17q.146.114.23.284c.083.17.082.245.082.397v1.176q0 .173.026.317a1 1 0 0 0 .074.248v.04zm-.703-.422a.8.8 0 0 0 .39-.102.6.6 0 0 0 .228-.223v-.495h-.371q-.356 0-.527.114a.37.37 0 0 0-.17.327q0 .08.028.15a.3.3 0 0 0 .082.12q.055.05.138.08.085.03.202.029m4.06-.872q0 .288-.068.534a1.3 1.3 0 0 1-.2.427.95.95 0 0 1-.324.28.9.9 0 0 1-.44.102q-.225 0-.397-.074a.85.85 0 0 1-.297-.21v1.25h-.583v-3.657h.537l.024.267a.87.87 0 0 1 .708-.316q.253 0 .445.098.195.097.327.274c.132.177.154.26.2.425s.068.349.068.548zm-.583-.052q0-.177-.037-.335-.036-.157-.112-.276c-.076-.12-.115-.14-.193-.187s-.171-.068-.278-.068q-.195 0-.323.083c-.128.083-.151.129-.2.223v1.181q.073.136.199.222a.6.6 0 0 0 .328.085.53.53 0 0 0 .47-.261.9.9 0 0 0 .11-.278 1.5 1.5 0 0 0 .036-.337zm3.326.052q0 .288-.068.534a1.3 1.3 0 0 1-.2.427.95.95 0 0 1-.323.28.9.9 0 0 1-.441.102q-.225 0-.397-.074a.85.85 0 0 1-.297-.21v1.25h-.583v-3.657h.537l.024.267a.87.87 0 0 1 .708-.316q.252 0 .446.098.194.097.326.274c.132.177.155.26.2.425s.068.349.068.548zm-.583-.052q0-.177-.037-.335-.036-.157-.112-.276c-.076-.12-.115-.14-.193-.187s-.17-.068-.278-.068q-.196 0-.322.083a.47.47 0 0 0-.2.223v1.181q.073.136.198.222a.6.6 0 0 0 .329.085.53.53 0 0 0 .47-.261.9.9 0 0 0 .11-.278 1.5 1.5 0 0 0 .035-.337z"/><rect width="11" height="11" x="14" y="20.969" fill="none" stroke="#000" stroke-linecap="round" stroke-linejoin="round" stroke-width=".75" rx="2.357" ry="2.357"/><path d="M17.264 27.438a.6.6 0 0 1-.04-.116 2 2 0 0 1-.029-.14.97.97 0 0 1-.51.28 1 1 0 0 1-.234.024q-.21 0-.38-.06c-.17-.06-.21-.095-.29-.165a.74.74 0 0 1-.253-.564q0-.425.317-.648.315-.225.906-.225h.428v-.174a.42.42 0 0 0-.142-.333q-.142-.123-.4-.124-.117 0-.205.029a.35.35 0 0 0-.235.192.34.34 0 0 0-.029.14h-.584q0-.151.072-.298c.072-.147.118-.183.211-.259q.14-.113.341-.182.202-.068.46-.068.235 0 .435.058.2.057.346.17.147.114.23.284a.9.9 0 0 1 .083.396v1.177q0 .172.026.316a1 1 0 0 0 .074.248v.041zm-.703-.422a.8.8 0 0 0 .39-.102.6.6 0 0 0 .228-.224v-.495h-.371q-.357 0-.527.115c-.17.115-.17.185-.17.327q0 .08.028.15a.3.3 0 0 0 .082.12q.055.049.138.08.084.029.202.029m4.06-.872q0 .288-.068.534a1.3 1.3 0 0 1-.2.426 1 1 0 0 1-.324.28.9.9 0 0 1-.441.102q-.224 0-.397-.073a.85.85 0 0 1-.296-.21v1.25h-.583v-3.657h.537l.024.267a.9.9 0 0 1 .302-.234.94.94 0 0 1 .406-.082q.251 0 .445.098.195.097.327.274c.132.177.154.26.2.425q.068.248.068.548zm-.584-.052q0-.177-.036-.335a.9.9 0 0 0-.112-.277q-.077-.118-.194-.186a.44.44 0 0 0-.278-.068.6.6 0 0 0-.322.083.6.6 0 0 0-.2.222v1.182q.072.136.199.222c.127.086.193.085.328.085a.53.53 0 0 0 .47-.261q.075-.12.11-.279c.035-.159.035-.217.035-.336zm3.327.052q0 .288-.068.534a1.3 1.3 0 0 1-.2.426 1 1 0 0 1-.324.28.9.9 0 0 1-.44.102q-.225 0-.397-.073a.85.85 0 0 1-.297-.21v1.25h-.583v-3.657h.537l.024.267a.9.9 0 0 1 .302-.234.94.94 0 0 1 .406-.082q.252 0 .446.098.194.097.326.274c.132.177.154.26.2.425q.068.248.068.548zm-.584-.052q0-.177-.036-.335a.9.9 0 0 0-.112-.277q-.075-.118-.194-.186a.44.44 0 0 0-.278-.068.6.6 0 0 0-.322.083.6.6 0 0 0-.2.222v1.182q.073.136.199.222c.126.086.193.085.328.085a.53.53 0 0 0 .47-.261q.075-.12.11-.279c.035-.159.035-.217.035-.336z"/></svg>