<svg xmlns="http://www.w3.org/2000/svg" viewBox="0 0 50 50"><circle cx="25.013" cy="5" r="2" fill="none" stroke="#000" stroke-linecap="round" stroke-linejoin="round"/><g fill="none" stroke="#000" stroke-linecap="round" stroke-linejoin="round" stroke-width=".75"><circle cx="25.048" cy="24.998" r="5"/><path d="m30.809 16.825-.861 2.532.1.086q.383.346.707.73l2.49-.903m-3.297.087.86-2.532a10 10 0 0 0-1.519-.886l-1.706 2.028m6.541 2.826-2.011 1.764q.178.519.279 1.055l2.612.44M32.113 22.557l2.011-1.764a10 10 0 0 0-.879-1.523l-2.49.904m-4.34-2.524-.54-2.618a10 10 0 0 0-1.76.01l-.443 2.611"/><path d="m25.875 15.032.54 2.618q.594.11 1.168.317l1.706-2.028m-1.796 16.122 1.766 2.011a10 10 0 0 0 1.522-.88l-.905-2.49m-9.02-14.785 1.76 2.014a7.5 7.5 0 0 1 1.056-.278l.444-2.611m8.283 11.313 2.616-.544q.072-.88-.011-1.759l-2.612-.44"/><path d="m33.225 30.754-2.533-.86-.088.104q-.346.382-.728.704l.905 2.49"/><path d="m30.692 29.895 2.533.86a10 10 0 0 0 .885-1.521l-2.029-1.705"/><path d="m35.015 25.811-2.616.544q-.11.597-.318 1.174l2.029 1.705M23.696 32.35l.545 2.616q.88.07 1.759-.013l.439-2.612m-7.167.82.866-2.53-.09-.077a7.5 7.5 0 0 1-.716-.742l-2.492.9"/><path d="m20.138 30.63-.866 2.531q.73.518 1.518.888l1.71-2.024"/><path d="m24.24 34.966-.544-2.617a7.4 7.4 0 0 1-1.196-.324l-1.71 2.024m8.469.023-1.766-2.01q-.518.178-1.054.28l-.44 2.611m-8.019-7.527-2.016 1.76a10 10 0 0 0 .876 1.525l2.492-.899m-2.45-10.586 2.531.865.08-.093q.35-.386.738-.713l-.9-2.492m3.286 1.137-1.761-2.013a10 10 0 0 0-1.525.876l.9 2.492"/><path d="m19.413 20.091-2.53-.865a10 10 0 0 0-.888 1.52l2.025 1.708m-.32 1.174-2.617.538a10 10 0 0 0 .008 1.76l2.611.445"/><path d="m15.964 29.186 2.015-1.76a7.5 7.5 0 0 1-.277-1.055l-2.61-.446m-.009-1.759 2.617-.538q.111-.598.32-1.174l-2.025-1.709M23.059 27.117v-2.205M25.097 27.117v-5.174M27.075 27.117v-3.419"/></g><g fill="none" stroke="#000" stroke-linecap="round" stroke-linejoin="round"><path d="M25.013 9"/><path stroke-dasharray="0 2" d="M25.013 11v1"/><path d="M25.013 13"/></g><circle cx="25.013" cy="45" r="2" fill="none" stroke="#000" stroke-linecap="round" stroke-linejoin="round"/><g fill="none" stroke="#000" stroke-linecap="round" stroke-linejoin="round"><path d="M25.013 41"/><path stroke-dasharray="0 2" d="M25.013 39v-1"/><path d="M25.013 37"/></g><circle cx="36.793" cy="8.837" r="2" fill="none" stroke="#000" stroke-linecap="round" stroke-linejoin="round"/><g fill="none" stroke="#000" stroke-linecap="round" stroke-linejoin="round"><path d="M34.437 12.07"/><path stroke-dasharray="0 2" d="m33.259 13.686-.589.808"/><path d="M32.081 15.302"/></g><circle cx="44.132" cy="19.128" r="2" fill="none" stroke="#000" stroke-linecap="round" stroke-linejoin="round"/><g fill="none" stroke="#000" stroke-linecap="round" stroke-linejoin="round"><path d="M40.308 20.302"/><path stroke-dasharray="0 2" d="m38.396 20.889-.956.294"/><path d="M36.484 21.477"/></g><circle cx="43.752" cy="31.99" r="2" fill="none" stroke="#000" stroke-linecap="round" stroke-linejoin="round"/><g fill="none" stroke="#000" stroke-linecap="round" stroke-linejoin="round"><path d="M40.004 30.592"/><path stroke-dasharray="0 2" d="m38.13 29.893-.937-.35"/><path d="M36.257 29.194"/></g><circle cx="36.636" cy="41.276" r="2" fill="none" stroke="#000" stroke-linecap="round" stroke-linejoin="round"/><g fill="none" stroke="#000" stroke-linecap="round" stroke-linejoin="round"><path d="M34.311 38.021"/><path stroke-dasharray="0 2" d="m33.149 36.393-.581-.814"/><path d="M31.987 34.766"/></g><circle cx="13.207" cy="8.837" r="2" fill="none" stroke="#000" stroke-linecap="round" stroke-linejoin="round"/><g fill="none" stroke="#000" stroke-linecap="round" stroke-linejoin="round"><path d="M15.563 12.07"/><path stroke-dasharray="0 2" d="m16.741 13.686.589.808"/><path d="M17.919 15.302"/></g><circle cx="5.868" cy="19.128" r="2" fill="none" stroke="#000" stroke-linecap="round" stroke-linejoin="round"/><g fill="none" stroke="#000" stroke-linecap="round" stroke-linejoin="round"><path d="M9.692 20.302"/><path stroke-dasharray="0 2" d="m11.604 20.889.956.294"/><path d="M13.516 21.477"/></g><circle cx="6.248" cy="31.99" r="2" fill="none" stroke="#000" stroke-linecap="round" stroke-linejoin="round"/><g fill="none" stroke="#000" stroke-linecap="round" stroke-linejoin="round"><path d="M9.996 30.592"/><path stroke-dasharray="0 2" d="m11.87 29.893.937-.35"/><path d="M13.743 29.194"/></g><circle cx="13.364" cy="41.276" r="2" fill="none" stroke="#000" stroke-linecap="round" stroke-linejoin="round"/><g fill="none" stroke="#000" stroke-linecap="round" stroke-linejoin="round"><path d="M15.689 38.021"/><path stroke-dasharray="0 2" d="m16.851 36.393.581-.814"/><path d="M18.013 34.766"/></g></svg>