<svg xmlns="http://www.w3.org/2000/svg" viewBox="0 0 50 50"><path fill="#231f20" d="M24.406 19.855c.022.003.08.008.102.008.47 0 .89-.25 1.127-.63l3.16.476.098 1.493a1.34 1.34 0 0 0-.73 1.174c0 .69.54 1.271 1.226 1.321a1 1 0 0 0 .101.008 1.33 1.33 0 0 0 1.33-1.329c0-.59-.395-1.075-.93-1.247l-.113-1.744 1.408-2.62a1.33 1.33 0 0 0 1.31-1.325 1.33 1.33 0 0 0-1.329-1.328c-.72 0-1.328.608-1.328 1.328 0 .373.164.704.416.946l-1.26 2.342-3.216-.486c-.137-.588-.641-1.036-1.27-1.036a1.33 1.33 0 0 0-1.328 1.329 1.33 1.33 0 0 0 1.226 1.32m5.06 2.846a.33.33 0 0 1-.304-.325.34.34 0 0 1 .328-.328c.182 0 .33.147.33.328s-.15.32-.353.325m1.7-7.59a.33.33 0 0 1 0 .658v.033l-.021-.018h-.002v-.02a.33.33 0 0 1-.305-.324.34.34 0 0 1 .328-.328m-6.658 3.095a.33.33 0 0 1 .323.391.326.326 0 0 1-.346.262.33.33 0 0 1-.305-.324c0-.181.147-.329.328-.329m-6.76 5.342a1.33 1.33 0 0 0-1.33 1.328c0 .013.008.023.008.035l-2.33 1.17a.5.5 0 0 0-.264.555l.742 3.366-1.561-.317c-.123-.607-.635-1.075-1.278-1.075a1.33 1.33 0 0 0-1.328 1.33c0 .727.589 1.32 1.409 1.32h.015c.419-.03.764-.267.986-.593l2.065.419.648 1.39a1.3 1.3 0 0 0-.337.862c0 .727.588 1.321 1.406 1.321h.017a1.33 1.33 0 0 0 1.234-1.321 1.33 1.33 0 0 0-1.329-1.33c-.034 0-.063.018-.097.02l-.72-1.543-.811-3.684 1.935-.972c.24.23.562.376.92.376l.095-.007a1.333 1.333 0 0 0 1.233-1.322c0-.72-.608-1.328-1.328-1.328m-6.013 6.72a.329.329 0 1 1 .329-.329c0 .172-.131.311-.329.329m5.115 3.07c0 .169-.134.311-.329.329a.33.33 0 1 1 .33-.33m.884-8.133a.329.329 0 0 1 .014-.657.34.34 0 0 1 .328.328c0 .165-.125.303-.342.329m-5.462-5.82-.113 1.744c-.535.172-.93.657-.93 1.247 0 .728.59 1.322 1.41 1.322h.015a1.33 1.33 0 0 0 1.233-1.322c0-.514-.302-.948-.731-1.169l.097-1.498 3.164-.477c.238.377.67.624 1.201.624h.017a1.33 1.33 0 0 0 1.234-1.321 1.33 1.33 0 0 0-1.329-1.329c-.629 0-1.132.448-1.27 1.036l-3.216.486-1.26-2.342a1.3 1.3 0 0 0 .417-.946 1.33 1.33 0 0 0-2.657 0c0 .726.586 1.314 1.309 1.325zm.286 3.32a.329.329 0 1 1 .33-.329c0 .17-.135.312-.33.33m4.982-4.499a.33.33 0 0 1 .33.329c0 .17-.135.312-.33.328a.33.33 0 0 1-.322-.266l-.018.004c-.004-.02-.015-.037-.02-.056l.031-.01a.33.33 0 0 1 .33-.329m-6.658-3.094c.181 0 .329.147.329.328 0 .164-.126.303-.342.329a.329.329 0 0 1 .013-.657"/><path fill="#231f20" d="M44.806 27.584c0-1.11-.228-1.837-.716-2.286-.673-.616-1.658-.532-2.702-.444-.26.021-.53.045-.81.059q-.457.022-.911.04l-2.494-1.93a2.9 2.9 0 0 0-1.044-.516q.014-.025.028-.05c.988-2.115-.575-4.668-.851-5.091.117-.607.645-3.972-1.82-5.122a7 7 0 0 0-2.015-.6c.36-2.14-.598-4.175-1.852-4.683a2.25 2.25 0 0 0-1.068-.152c-2.454-2.191-5.202-2.703-6.717-2.034-.35.18-.605.452-.81.75-.211-.301-.472-.577-.834-.762-1.487-.656-4.235-.145-6.687 2.044a2.24 2.24 0 0 0-1.071.154c-1.255.508-2.21 2.542-1.852 4.682a7 7 0 0 0-2.017.6c-2.438 1.139-1.946 4.448-1.817 5.124-.308.473-1.83 2.997-.853 5.09.106.226.246.434.403.634-1.152 1.177-1.3 2.716-.908 3.718.481 1.462 1.676 2.598 2.424 2.712-.364 1.488.073 3.04 1.158 4.149.662.806 1.66 1.307 2.82 1.382.604 1.684 2.29 2.771 4.129 2.771q.44 0 .885-.084c2.49-.29 3.664-1.4 4.22-2.357.552.956 1.716 2.064 4.186 2.351a4.8 4.8 0 0 0 1.226.075.5.5 0 0 0 .37-.22c.497 1.289 1.492 2.89 3.497 4.362 3.457 2.54 4.766 3.46 4.766 3.46a.5.5 0 0 0 .57.002c.014-.01 1.38-.952 4.797-3.462 4.184-3.074 3.993-6.72 3.982-6.8.004-.047.388-4.709.388-7.566m-28.154 9.167c-1.708.328-3.438-.593-3.936-2.077-.118-.398-.511-.657-.867-.614a2.94 2.94 0 0 1-2.135-1.057c-.897-.919-1.234-2.175-.9-3.364a.82.82 0 0 0-.145-.722.9.9 0 0 0-.6-.336c-.315-.039-1.314-.816-1.74-2.11-.29-.743-.128-1.849.678-2.682.752.568 1.79.982 3.115 1.23a.5.5 0 0 0 .184-.983c-1.87-.35-3.05-1.024-3.507-2.003-.812-1.74.79-4.132.81-4.16a.83.83 0 0 0 .126-.655c-.068-.324-.608-3.2 1.25-4.068 1.588-.738 3.152-.75 4.286-.036 1.053.696 1.6 1.851 1.426 3.014a.5.5 0 0 0 .99.147c.23-1.551-.484-3.082-1.874-4.001-.657-.414-1.416-.631-2.226-.67-.34-1.75.44-3.4 1.22-3.716.922-.37 2.003.479 3.055 1.342a1.3 1.3 0 0 0-.08.4c0 .729.588 1.323 1.408 1.323h.015a1.33 1.33 0 0 0 1.233-1.322 1.33 1.33 0 0 0-1.328-1.329c-.22 0-.42.068-.603.163-.588-.482-1.212-.982-1.864-1.309 2.096-1.641 4.212-1.889 5.118-1.49.523.267.762.889.764 1.354v26.824c-.004.101-.16 2.473-3.873 2.907m.458-27.449c.181 0 .328.148.328.329 0 .17-.133.312-.328.328a.329.329 0 0 1 0-.657m9.255 27.508a3.8 3.8 0 0 1-1.002-.065c-3.678-.428-3.833-2.8-3.837-2.897V7.02c0-.465.24-1.087.738-1.342.928-.41 3.049-.163 5.145 1.48-.652.326-1.277.824-1.865 1.307a1.3 1.3 0 0 0-.603-.163 1.33 1.33 0 0 0-1.33 1.329 1.33 1.33 0 0 0 1.227 1.32c.022.004.08.008.103.008a1.33 1.33 0 0 0 1.329-1.328c0-.142-.04-.273-.082-.402 1.053-.862 2.13-1.712 3.056-1.341.78.316 1.56 1.968 1.218 3.717-.81.04-1.572.259-2.233.675-1.381.912-2.095 2.443-1.865 3.995a.5.5 0 1 0 .988-.146c-.171-1.164.375-2.319 1.419-3.009 1.142-.72 2.707-.709 4.292.03 1.86.868 1.32 3.744 1.252 4.067a.83.83 0 0 0 .13.66c.017.024 1.618 2.416.806 4.157a2.4 2.4 0 0 1-.275.419 2.9 2.9 0 0 0-1.2.522l-2.694 1.978a66 66 0 0 1-.92-.04c-.281-.014-.552-.038-.811-.06-1.044-.087-2.03-.171-2.703.445-.067.063-.118.144-.176.218a.5.5 0 0 0-.162-.165l-.691-.413c0-.021.012-.04.012-.06a1.33 1.33 0 0 0-1.329-1.33c-.72 0-1.329.61-1.329 1.33 0 .69.542 1.27 1.227 1.32.022.003.08.008.102.008.346 0 .655-.14.892-.357l.603.36a.5.5 0 0 0 .257.071c.013 0 .024-.008.037-.01-.103.363-.158.793-.158 1.314 0 2.85.38 7.491.386 7.491-.004.065-.037.758.238 1.764a.5.5 0 0 0-.192-.03M25.27 9.63c-.001.182-.153.32-.353.325a.33.33 0 0 1-.305-.324.33.33 0 0 1 .658 0m-.968 15.576v.5l-.023-.504a.33.33 0 0 1-.306-.325c0-.155.14-.328.33-.328a.329.329 0 0 1 0 .657m15.542 15.938a277 277 0 0 1-4.486 3.245 447 447 0 0 1-4.463-3.245c-3.721-2.733-3.585-5.873-3.579-6.077-.003-.046-.383-4.667-.383-7.483 0-.79.131-1.31.392-1.549.204-.187.54-.243.956-.243.295 0 .63.028.985.058.271.023.553.047.844.062q.557.027 1.11.047a.43.43 0 0 0 .313-.097l2.835-2.082c.7-.514 1.5-.503 2.194.035l2.595 2.007c.095.09.222.143.362.137q.553-.02 1.109-.047c.29-.015.573-.039.845-.062.854-.073 1.591-.135 1.94.185.26.24.393.76.393 1.549 0 2.816-.38 7.437-.385 7.556.008.131.143 3.271-3.577 6.004"/><path fill="#231f20" d="M38.545 29.87a.5.5 0 0 0-.692.14l-3.38 5.113-1.604-2.128a.501.501 0 0 0-.799.602l2.03 2.693a.5.5 0 0 0 .399.2h.016a.5.5 0 0 0 .401-.225l3.77-5.703a.5.5 0 0 0-.141-.693"/><path fill="#231f20" d="M35.37 27.097c-3.33 0-6.038 2.708-6.038 6.037s2.708 6.038 6.037 6.038 6.038-2.71 6.038-6.038-2.709-6.037-6.038-6.037m0 11.075a5.043 5.043 0 0 1-5.038-5.038 5.043 5.043 0 0 1 5.037-5.037 5.043 5.043 0 0 1 5.038 5.037 5.043 5.043 0 0 1-5.038 5.038"/></svg>