<svg xmlns="http://www.w3.org/2000/svg" data-name="Isolation Mode" viewBox="0 0 50 50"><circle cx="25" cy="25" r="20" fill="none" stroke="#000" stroke-linecap="round" stroke-linejoin="round"/><g fill="none" stroke="#000" stroke-linecap="round" stroke-linejoin="round"><path d="M23.832 17.982c.354.264.76.437 1.191.437s.838-.173 1.192-.437c.785-.585 1.318-1.729 1.318-3.045 0-1.91-1.124-2.633-2.51-2.633s-2.51.722-2.51 2.633c0 1.316.534 2.46 1.319 3.045"/><path d="M24.98 30.126c-1.084 2.22-2.11 4.336-3.152 6.444-.518 1.05-1.329 1.38-2.192.93-.807-.42-.994-1.251-.5-2.278.823-1.714 1.607-3.45 2.496-5.13.93-1.757 1.354-3.578 1.273-5.572-.04-.965-.406-1.43-1.291-1.663-1.78-.468-3.552-.964-5.319-1.476-1.069-.31-1.55-.998-1.33-1.81.251-.939 1.054-1.325 2.155-1.025 2.124.579 4.229 1.242 6.376 1.71.481.105.993.157 1.504.155a7 7 0 0 0 1.504-.155c2.147-.468 4.252-1.131 6.376-1.71 1.1-.3 1.904.086 2.156 1.025.218.812-.262 1.5-1.331 1.81-1.767.512-3.54 1.008-5.319 1.476-.885.232-1.252.698-1.291 1.663-.081 1.994.344 3.815 1.273 5.572.889 1.68 1.673 3.416 2.497 5.13.493 1.027.306 1.858-.5 2.278-.864.45-1.675.12-2.193-.93-1.041-2.108-2.068-4.225-3.152-6.444z"/></g></svg>