<svg xmlns="http://www.w3.org/2000/svg" data-name="Isolation Mode" viewBox="0 0 50 50"><path fill="none" stroke="#000" stroke-linecap="round" stroke-linejoin="round" d="M7.102 35.105C4.706 34.217 3 31.932 3 29.253c0-3.441 2.814-6.231 6.291-6.246q0 0 0 0c0-5.13 4.205-9.287 9.391-9.287 1.38 0 2.69.297 3.87.826C24.116 10.43 28.13 7.5 32.839 7.5c6.065 0 10.982 4.862 10.982 10.86 0 .978-.133 1.926-.378 2.828C45.584 22.582 47 24.978 47 27.702c0 4.307-3.53 7.798-7.886 7.798H25.087"/><path fill="none" stroke="#000" stroke-linecap="round" stroke-linejoin="round" d="m33.742 15.082-14.21 14.303c-3.432-1.875-7.747-.507-9.498 3.063-1.58 3.225-.4 7.252 2.662 9.079 3.39 2.023 7.742.78 9.608-2.689a7.03 7.03 0 0 0 .016-6.634l4.41-4.434 2.985 3.03c.77.778 2.02.778 2.793 0a2.007 2.007 0 0 0 .007-2.82v-.004l-2.99-3.024 2.8-2.82 2.99 3.026a1.963 1.963 0 0 0 2.794-.049 2.007 2.007 0 0 0 .007-2.77l-2.99-3.028 1.33-1.333c.69-.691.867-1.8.317-2.604a1.966 1.966 0 0 0-3.031-.292M13.747 34.936c.316-1.423 1.72-2.32 3.138-2.003s2.31 1.727 1.995 3.15c-.316 1.422-1.72 2.318-3.138 2.002s-2.31-1.727-1.995-3.15" opacity=".99"/></svg>