<svg xmlns="http://www.w3.org/2000/svg" data-name="Isolation Mode" viewBox="0 0 50 50"><path fill="none" stroke="#000" stroke-linecap="round" stroke-linejoin="round" d="M35.232 14.679h-21.96"/><g fill="none" stroke="#000" stroke-linecap="round" stroke-linejoin="round"><path d="M14.97 20.441h1.345"/><path stroke-dasharray="2.721456 2.041092" d="M18.356 20.441h13.267"/><path d="M32.644 20.441h1.345"/></g><path fill="none" stroke="#000" stroke-linecap="round" stroke-linejoin="round" d="m33.99 23.241 2.741-2.747-2.742-2.746M16.01 17.426l-2.741-2.747 2.742-2.747"/><path fill="none" stroke="#000" stroke-linecap="round" stroke-linejoin="round" stroke-width=".75" d="M22.401 31.283c-.9 0-1.63.836-1.63 1.867s.73 1.867 1.63 1.867 1.63-.836 1.63-1.867-.73-1.867-1.63-1.867m4.948 0c-.9 0-1.63.836-1.63 1.867s.73 1.867 1.63 1.867 1.63-.836 1.63-1.867-.73-1.867-1.63-1.867m-3.493 8.444v-2.084m2.085 0v2.084M24.88 34.81c-.24 0-.81.825-.81 1.085 0 .298.216.539.481.539.13 0 .248-.059.334-.153a.45.45 0 0 0 .335.153c.265 0 .48-.241.48-.54 0-.263-.58-1.084-.82-1.084"/><path fill="none" stroke="#000" stroke-linecap="round" stroke-linejoin="round" stroke-width=".75" d="M22.292 39.248c0 .29 1.167.526 2.607.526s2.606-.235 2.606-.526v-2.125s3.803.005 3.195-4.704c-.354-2.744-2.265-4.14-3.798-4.787a5.13 5.13 0 0 0-4 0c-1.534.646-3.448 2.042-3.803 4.787-.607 4.709 3.193 4.704 3.193 4.704z"/><circle cx="24.9" cy="33.5" r="9" fill="none" stroke="#000" stroke-linecap="round" stroke-linejoin="round"/><path fill="none" stroke="#000" stroke-linecap="round" stroke-linejoin="round" d="M45 29.5v-22H5v22M33.9 33.5H45s1-.549 1-2-1-2-1-2H33.037m-16.283 0H5s-1 .549-1 2 1 2 1 2h10.9"/></svg>