<svg xmlns="http://www.w3.org/2000/svg" viewBox="0 0 50 50"><path fill="none" stroke="#000" stroke-linecap="round" stroke-linejoin="round" d="M42.02 36.504v2M38.04 36.504v2M34.06 36.504v2"/><path d="M7.393 36.504a1 1 0 1 0 0 2 1 1 0 0 0 0-2"/><rect width="42" height="6" x="4" y="34.504" fill="none" stroke="#000" stroke-miterlimit="10" rx="1.437" ry="1.437"/><path fill="none" stroke="#000" stroke-linecap="round" stroke-linejoin="round" d="M42.02 30.504v2M38.04 30.504v2M34.06 30.504v2"/><path d="M7.393 30.504a1 1 0 1 0 0 2 1 1 0 0 0 0-2"/><rect width="42" height="6" x="4" y="28.504" fill="none" stroke="#000" stroke-miterlimit="10" rx="1.437" ry="1.437"/><path fill="none" stroke="#000" stroke-linecap="round" stroke-linejoin="round" d="M42.02 24.504v2M38.04 24.504v2M34.06 24.504v2"/><path d="M7.393 24.504a1 1 0 1 0 0 2 1 1 0 0 0 0-2"/><rect width="42" height="6" x="4" y="22.504" fill="none" stroke="#000" stroke-miterlimit="10" rx="1.437" ry="1.437"/><path fill="none" stroke="#000" stroke-linecap="round" stroke-linejoin="round" d="M45.111 9.496H4.89a.9.9 0 0 0-.889.902v3.197c0 .495.4.9.889.9h40.22a.9.9 0 0 0 .889-.9v-3.197c0-.497-.4-.902-.889-.902m.012 5H4.878c-.483 0-.878.425-.878.943v6.114c0 .518.395.943.878.943h40.244c.483 0 .878-.425.878-.943V15.44c0-.518-.395-.943-.878-.943"/><path d="M37.395 17.496c.334 0 .605.304.605.681v.637c0 .377-.27.682-.605.682h-7.79c-.335 0-.605-.305-.605-.682v-.637c0-.377.27-.681.606-.681zm0-1h-7.79c-.885 0-1.605.754-1.605 1.681v.637c0 .927.72 1.682 1.606 1.682h7.789c.885 0 1.605-.755 1.605-1.682v-.637c0-.927-.72-1.681-1.605-1.681m4.605 1a1 1 0 1 1 0 2 1 1 0 0 1 0-2m0-1c-1.103 0-2 .898-2 2 0 1.103.897 2 2 2s2-.897 2-2a2.003 2.003 0 0 0-2-2"/><path fill="none" stroke="#000" stroke-linecap="round" stroke-linejoin="round" d="M6 12.496h38"/><circle cx="21" cy="18.496" r=".5"/><path d="M21 17.496a1 1 0 1 0 0 2 1 1 0 0 0 0-2"/><circle cx="18" cy="18.496" r=".5"/><path d="M18 17.496a1 1 0 1 0 0 2 1 1 0 0 0 0-2"/><circle cx="15" cy="18.496" r=".5"/><path d="M15 17.496a1 1 0 1 0 0 2 1 1 0 0 0 0-2"/><circle cx="12" cy="18.496" r=".5"/><path d="M12 17.496a1 1 0 1 0 0 2 1 1 0 0 0 0-2"/><circle cx="9" cy="18.496" r=".5"/><path d="M9 17.496a1 1 0 1 0 0 2 1 1 0 0 0 0-2"/></svg>