<svg xmlns="http://www.w3.org/2000/svg" viewBox="0 0 50 50"><g fill="none" stroke="#000" stroke-linecap="round" stroke-linejoin="round"><path d="m45.978 38.501-6.916.1-.131-6.906M4.022 11.515l6.898-.116.13 6.906"/><path d="M36.612 40.749c-7.524 5.553-18.196 5.014-25.169-1.725-7.772-7.51-8.007-19.878-.524-27.623m2.453-2.15c7.524-5.553 18.196-5.014 25.169 1.725 7.772 7.51 8.007 19.878.524 27.623"/></g><g fill="none" fill-rule="evenodd" stroke="#000" stroke-miterlimit="10"><path d="M36.2 20.374c-.4 0-.8.356-.8.813v7.666c0 .457.4.812.8.812.45 0 .8-.355.8-.812v-7.666a.796.796 0 0 0-.8-.813Zm-22.4 0c-.45 0-.8.356-.8.813v7.666c0 .457.35.812.8.812s.8-.355.8-.812v-7.666a.796.796 0 0 0-.8-.813Zm18.41 11.138c-.15.155-.302.206-.504.206s-.455-.103-.606-.309l-2.071-2.525-2.071 2.525a.78.78 0 0 1-.606.31.8.8 0 0 1-.657-.31l-2.07-2.525-2.021 2.525c-.303.412-.96.412-1.263 0l-2.677-3.298c-.303-.36-.253-.876.1-1.133.354-.31.86-.258 1.112.103l2.071 2.525 2.071-2.525c.303-.412.96-.412 1.263 0l2.07 2.525 2.072-2.525c.303-.361.909-.412 1.212 0l2.727 3.298c.253.36.202.876-.151 1.133ZM21.2 19.197c1.616 0 2.98 1.34 2.98 3.04s-1.364 3.04-2.98 3.04c-1.667 0-3.031-1.34-3.031-3.04s1.364-3.04 3.03-3.04Zm7.627 0c1.616 0 2.98 1.34 2.98 3.04s-1.364 3.04-2.98 3.04c-1.667 0-2.98-1.34-2.98-3.04s1.313-3.04 2.98-3.04Z"/><path d="M32.734 34H17.19c-.71 0-1.293-.596-1.293-1.325l.06-15.35c0-.729.583-1.325 1.294-1.325h15.544c.71 0 1.293.596 1.293 1.325l-.06 15.35c0 .729-.583 1.325-1.294 1.325Z"/></g></svg>