<svg xmlns="http://www.w3.org/2000/svg" viewBox="0 0 50 50"><g fill="none" stroke="#231f20" stroke-linecap="round" stroke-linejoin="round"><path d="M25.047 7.498v33.224M35.523 25.48a1.026 1.026 0 1 1 0 2.052c-.025 0-.048-.006-.073-.008a1.023 1.023 0 0 1 .073-2.043m-5.16-3.535a1.025 1.025 0 0 1-1.006.831q-.037-.002-.073-.007a1.023 1.023 0 0 1 .073-2.044 1.026 1.026 0 0 1 1.006 1.22m7.234-2.998c-.025 0-.048-.006-.073-.008-.532-.038-.952-.477-.952-1.018s.459-1.026 1.025-1.026a1.026 1.026 0 0 1 0 2.052m-8.73-8.216a1.026 1.026 0 1 1 1.025 1.025c-.025 0-.049-.005-.073-.007a1.02 1.02 0 0 1-.952-1.018m.235 19.895c-.025 0-.049-.005-.074-.007a1.022 1.022 0 0 1 .074-2.044 1.026 1.026 0 0 1 0 2.051m8.467 5.241c0 .566-.46 1.025-1.026 1.025-.025 0-.049-.005-.073-.007a1.023 1.023 0 0 1 .073-2.044c.567 0 1.026.46 1.026 1.026m-5.924 4.206c0 .567-.459 1.026-1.025 1.026-.026 0-.05-.006-.074-.007a1.023 1.023 0 0 1 .074-2.044c.566 0 1.025.459 1.025 1.025"/><path d="M32.266 18.864c-.25-1.678.533-3.344 2.037-4.338 1.596-1.005 3.748-1.004 5.905 0 2.882 1.346 1.898 5.69 1.89 5.734a.4.4 0 0 0 .063.321c.024.032 2.224 3.254 1.053 5.762-.655 1.403-2.266 2.353-4.786 2.825"/><path d="M30.691 10.045c1.53-1.25 3.165-2.69 4.76-2.045 1.394.565 2.518 3.197 1.786 5.777M25.047 40.722V7.498"/><path d="M42.42 27.433c1.534 1.224 1.887 3.098 1.392 4.365-.56 1.706-1.949 2.916-2.657 3.001-.26.03-.443.248-.409.485l.01.05c.472 1.68-.003 3.462-1.267 4.757-.726.884-1.844 1.43-3.054 1.493-.233-.023-.45.111-.51.318-.728 2.167-3.149 3.47-5.582 3.004-5.105-.595-5.293-4.08-5.296-4.184m9.124-32.836C31.211 5.118 27.9 4.58 26.33 5.273c-.872.446-1.28 1.442-1.282 2.225M37.278 18.892l-2.029 3.775M30.388 21.934l4.861.733M30.388 21.934h-.001M35.249 22.667l.181 2.789M32.22 36.742l-1.13 2.422"/><path d="m30.066 30 3.277 1.647-1.123 5.095M32.22 36.742l3.318-.673"/></g><path fill="none" stroke="#231f20" stroke-dasharray="0 2" stroke-linecap="round" stroke-linejoin="round" d="M25.064 11.301h-6.129"/><circle cx="14.781" cy="11.301" r="2.75" fill="none" stroke="#231f20" stroke-linecap="round" stroke-linejoin="round"/><path fill="none" stroke="#231f20" stroke-dasharray="0 2" stroke-linecap="round" stroke-linejoin="round" d="M25.064 24.622h-6.129"/><circle cx="14.781" cy="24.622" r="2.75" fill="none" stroke="#231f20" stroke-linecap="round" stroke-linejoin="round"/><path fill="none" stroke="#231f20" stroke-dasharray="0 2" stroke-linecap="round" stroke-linejoin="round" d="M25.064 38.395h-6.129"/><circle cx="14.781" cy="38.395" r="2.75" fill="none" stroke="#231f20" stroke-linecap="round" stroke-linejoin="round"/><circle cx="8.729" cy="17.962" r="2.75" fill="none" stroke="#231f20" stroke-linecap="round" stroke-linejoin="round"/><path fill="none" stroke="#231f20" stroke-dasharray="0 2" stroke-linecap="round" stroke-linejoin="round" d="M25.064 17.962H12.685"/><circle cx="8.729" cy="31.509" r="2.75" fill="none" stroke="#231f20" stroke-linecap="round" stroke-linejoin="round"/><path fill="none" stroke="#231f20" stroke-dasharray="0 2" stroke-linecap="round" stroke-linejoin="round" d="M25.064 31.509H12.685"/></svg>