<svg xmlns="http://www.w3.org/2000/svg" data-name="Isolation Mode" viewBox="0 0 50 50"><g fill="none" stroke="#231f20"><path stroke-miterlimit="10" d="M15.8 33.567c-.08.347.037.859.259 1.137l4.379 5.491c.221.278.694.506 1.05.506h7.024c.356 0 .829-.228 1.05-.506l4.38-5.49c.221-.28.338-.791.259-1.138l-1.563-6.847c-.08-.347-.406-.758-.727-.912l-6.328-3.047c-.32-.155-.845-.155-1.166 0l-6.328 3.047c-.32.154-.648.565-.727.912z"/><path stroke-linecap="round" stroke-linejoin="round" d="M25 31.049v-5.468M24.173 31.447l-4.275-3.409M23.969 32.342l-5.331 1.217M24.541 33.06l-2.372 4.926M25.459 33.06l2.372 4.926M26.031 32.342l5.331 1.217M25.827 31.448l4.275-3.41"/><circle cx="25" cy="32.107" r="1.058" stroke-miterlimit="10"/><circle cx="25" cy="32.107" r="5.389" stroke-miterlimit="10"/></g><path fill="none" stroke="#231f20" stroke-linecap="round" stroke-linejoin="round" d="M41 27.808v2.982M37 27.808v2.982"/><path fill="#231f20" d="M10 28.299a1 1 0 1 1 0 2 1 1 0 0 1 0-2m0-1c-1.103 0-2 .897-2 2s.897 2 2 2 2-.897 2-2-.897-2-2-2"/><path fill="none" stroke="#231f20" stroke-linecap="round" stroke-linejoin="round" d="M18.699 25.299H6.386c-.765 0-1.386.62-1.386 1.386v5.228c0 .765.62 1.386 1.386 1.386h9.474m18.28 0h9.474c.765 0 1.386-.62 1.386-1.386v-5.191c0-.786-.637-1.423-1.423-1.423H30.854M41 19.808v2.982M37 19.808v2.982M33 19.808v2.982"/><path fill="#231f20" d="M10 20.299a1 1 0 1 1 0 2 1 1 0 0 1 0-2m0-1c-1.103 0-2 .897-2 2s.897 2 2 2 2-.897 2-2-.897-2-2-2"/><path fill="none" stroke="#231f20" stroke-linecap="round" stroke-linejoin="round" d="M43.614 25.299c.765 0 1.386-.62 1.386-1.386v-5.191c0-.786-.637-1.423-1.423-1.423H6.387c-.766 0-1.387.62-1.387 1.386v5.228c0 .765.62 1.386 1.867 1.386h12.28M41 11.808v2.982M37 11.808v2.982M33 11.808v2.982"/><path fill="#231f20" d="M10 12.299a1 1 0 1 1 0 2 1 1 0 0 1 0-2m0-1c-1.103 0-2 .897-2 2s.897 2 2 2 2-.897 2-2-.897-2-2-2"/><path fill="none" stroke="#231f20" stroke-linecap="round" stroke-linejoin="round" d="M6.386 9.299h37.191c.785 0 1.423.637 1.423 1.423v5.19c0 .766-.621 1.387-1.386 1.387H6.386A1.387 1.387 0 0 1 5 15.913v-5.228c0-.765.621-1.386 1.386-1.386"/></svg>