<svg xmlns="http://www.w3.org/2000/svg" viewBox="0 0 50 50"><g fill="none" stroke="#000" stroke-linecap="round" stroke-linejoin="round"><path d="m26 27 11-11M37 24v-8h-8"/></g><g fill="none" stroke="#000"><path stroke-linecap="round" stroke-linejoin="round" d="m17.209 24.654-4.349 7.579"/><circle cx="13" cy="32" r="10" stroke-linecap="round" stroke-linejoin="round"/><path stroke-linecap="round" stroke-linejoin="round" d="M19.735 30.086c.173.609.265 1.25.265 1.914m-1.689-4.56c.34.395.636.829.882 1.293M6 32a7 7 0 0 1 11.319-5.51"/><circle cx="13" cy="32" r="1" stroke-miterlimit="10"/></g><path fill="none" stroke="#231f20" stroke-linecap="round" stroke-linejoin="round" d="M14.793 20c.625-3.78 3.935-6.668 7.935-6.668 1.183 0 2.305.254 3.317.708C27.384 10.512 30.825 8 34.861 8c5.199 0 9.414 4.167 9.414 9.308a9.2 9.2 0 0 1-.325 2.424C45.786 20.927 47 22.98 47 25.316 47 29.008 43.974 32 40.24 32H25"/></svg>