<svg xmlns="http://www.w3.org/2000/svg" viewBox="0 0 50 50"><g fill="none" stroke="#000" stroke-linejoin="round"><circle cx="25" cy="25" r="8"/><circle cx="25" cy="25" r="16.5"/></g><path fill="none" stroke="#000" stroke-linejoin="round" d="M32.836 10.488C30.91 7.136 28.082 5 24.98 5c-3.085 0-5.92 2.138-7.844 5.457m15.721 29.037C30.93 42.847 28.082 45 24.98 45c-3.085 0-5.899-2.219-7.823-5.537m22.358-6.627c3.353-1.926 5.488-4.754 5.488-7.857 0-3.085-2.2-5.919-5.52-7.843M10.502 32.815c-3.352-1.926-5.505-4.774-5.505-7.877 0-3.085 2.162-5.898 5.48-7.823M28.247 17.507l4.59-7.019m-15.701-.031 4.61 7.05M10.51 32.815l7.018-4.589m0-6.501-7.05-4.61m11.268 15.329-4.59 7.019m15.701.031-4.61-7.05m4.218-4.218 7.05 4.61m-.031-15.7-7.02 4.589"/></svg>