<svg xmlns="http://www.w3.org/2000/svg" viewBox="0 0 50 50"><path fill="none" stroke="#000" stroke-linecap="round" stroke-linejoin="round" d="M37.917 24.087v5.904a1.47 1.47 0 0 1-1.463 1.467h-9.642M11.127 10.256V7.217a1.47 1.47 0 0 1 1.464-1.467h23.863c.805 0 1.463.66 1.463 1.467v3.07M22.746 31.458H12.591a1.47 1.47 0 0 1-1.464-1.467v-5.965"/><g fill="none" stroke="#000" stroke-linecap="round" stroke-linejoin="round"><path d="M8.46 16.063h6.826v5.981H8.46zM14.429 16.063v-1.708a2.556 2.556 0 1 0-5.112 0v1.708"/></g><g fill="none" stroke="#000" stroke-linecap="round" stroke-linejoin="round"><path d="M34.575 16.063h6.826v5.981h-6.826zM40.544 16.063v-1.708a2.556 2.556 0 1 0-5.112 0v1.708"/></g><g fill="none" stroke="#000" stroke-linecap="round" stroke-linejoin="round"><path d="M21.38 16.063h6.826v5.981H21.38zM27.349 14.355a2.556 2.556 0 1 0-5.112 0v1.708"/></g><path fill="none" stroke="#000" stroke-linecap="round" stroke-linejoin="round" d="m28.186 28.403-3.347-3.356-3.347 3.356M38.653 44.25 42 40.895l-3.347-3.356"/><path fill="none" stroke="#000" stroke-linecap="round" stroke-linejoin="round" d="M8 40.904h16.813V25.238M24.813 40.904 42 40.895"/></svg>