<svg xmlns="http://www.w3.org/2000/svg" viewBox="0 0 50 50"><path d="M31.813 23.658a6.95 6.95 0 0 0-3.567-.988c-1.893 0-3.61.759-4.87 1.983-.01.01-.023.017-.03.028a6.98 6.98 0 0 0-2.1 4.99c0 3.86 3.14 7 7 7s7-3.14 7-7c0-2.52-1.343-4.727-3.347-5.96-.02-.014-.034-.034-.057-.045-.01-.005-.02-.004-.03-.008m-.859.665-3.241 6.484-3.328-5.722a5.97 5.97 0 0 1 6.569-.762m3.292 5.348c0 3.308-2.691 6-6 6s-6-2.692-6-6a5.97 5.97 0 0 1 1.408-3.855l3.66 6.293a.5.5 0 0 0 .432.25h.016a.5.5 0 0 0 .431-.277l3.614-7.229a5.99 5.99 0 0 1 2.44 4.818"/><path d="M45.034 4.55H4.966a.5.5 0 0 0-.5.5v30.577a.5.5 0 0 0 .5.5H18.84a.5.5 0 1 0 0-1H5.466V19.683h6.784l2.82 4.748a.5.5 0 0 0 .43.245h.018a.5.5 0 0 0 .429-.277l4.576-9.152 3.296 5.924c-3.065 1.603-5.164 4.808-5.164 8.5 0 5.288 4.303 9.59 9.591 9.59a9.54 9.54 0 0 0 6.404-2.471l1.24 1.234a1.83 1.83 0 0 0-.253.915c0 .467.178.903.503 1.225l4.798 4.786c.334.334.778.5 1.227.5a1.88 1.88 0 0 0 1.324-.553c.36-.358.558-.828.558-1.324a1.72 1.72 0 0 0-.504-1.223l-4.798-4.787c-.57-.567-1.452-.641-2.147-.245l-1.24-1.235a9.54 9.54 0 0 0 2.479-6.412c0-4.203-2.722-7.775-6.492-9.068l.464-.927h12.725v15.451h-6.983a.5.5 0 1 0 0 1h7.483a.5.5 0 0 0 .5-.5V5.049a.5.5 0 0 0-.5-.5m-39.568 1h39.068v4.703H5.466zM37.52 38.062c.192 0 .38.069.52.208l4.797 4.787a.72.72 0 0 1 .21.515c0 .225-.096.45-.263.615-.33.329-.842.351-1.14.054l-4.798-4.786a.72.72 0 0 1-.21-.517c0-.227.093-.445.262-.613a.9.9 0 0 1 .622-.263m-.683-8.392c0 4.737-3.854 8.59-8.59 8.59s-8.592-3.853-8.592-8.59 3.854-8.591 8.591-8.591 8.59 3.854 8.59 8.59M31.5 18.676a.5.5 0 0 0-.447.276l-.686 1.372a9.6 9.6 0 0 0-2.12-.244 9.5 9.5 0 0 0-3.514.675l-3.796-6.822a.5.5 0 0 0-.884.02l-4.591 9.18-2.498-4.205a.5.5 0 0 0-.43-.245H5.467v-7.43h39.068v7.423z"/><path d="M10.69 7.4H7.828a.5.5 0 1 0 0 1h2.862a.5.5 0 1 0 0-1m5.724 0h-2.862a.5.5 0 1 0 0 1h2.862a.5.5 0 1 0 0-1m5.724 0h-2.862a.5.5 0 1 0 0 1h2.862a.5.5 0 1 0 0-1"/><circle cx="42.172" cy="7.901" r="1"/></svg>