<svg xmlns="http://www.w3.org/2000/svg" viewBox="0 0 50 50"><g fill="none" stroke="#231f20" stroke-linecap="round" stroke-linejoin="round"><path d="m45.978 38.501-6.916.1-.131-6.906M4.022 11.515l6.898-.116.13 6.906"/><path d="M36.612 40.749c-7.524 5.553-18.196 5.014-25.169-1.725-7.772-7.51-8.007-19.878-.524-27.623m2.453-2.15c7.524-5.553 18.196-5.014 25.169 1.725 7.772 7.51 8.007 19.878.524 27.623"/></g><g fill="none" stroke="#231f20" stroke-linecap="round" stroke-linejoin="round"><path d="M30.483 16.11q-.58.03-1.154.05l-.002-.004-2.757-2.12c-.911-.699-2.008-.716-2.929-.043l-2.97 2.167q-.575-.02-1.154-.05c-2.18-.108-3.88-.726-3.88 2.262s.405 7.832.405 7.832-.243 3.633 3.96 6.702c3.615 2.639 4.984 3.594 4.984 3.594h0s1.397-.955 5.012-3.594c4.203-3.069 3.96-6.702 3.96-6.702s.404-4.845.404-7.832-1.7-2.37-3.88-2.261"/><g stroke-width=".75"><circle cx="25.147" cy="24.41" r="2.875"/><path d="m28.46 19.71-.495 1.456q.03.024.057.05.22.199.407.42l1.432-.52"/><path d="m27.965 21.166.495-1.456a5.7 5.7 0 0 0-.874-.51l-.981 1.167m3.761 1.625-1.156 1.014q.102.298.16.607l1.502.253"/><path d="m29.21 23.006 1.156-1.014a5.7 5.7 0 0 0-.505-.876l-1.432.52m-2.496-1.452-.31-1.505a6 6 0 0 0-1.012.006l-.255 1.501"/><path d="m25.623 18.68.31 1.504q.342.063.672.183l.98-1.166m-1.032 9.27 1.016 1.156q.456-.211.875-.506l-.52-1.431m-5.187-8.502 1.012 1.158q.3-.102.607-.16l.255-1.501m4.763 6.505 1.505-.313a6 6 0 0 0-.007-1.011l-1.502-.253"/><path d="m29.85 27.72-1.457-.495-.051.06a4 4 0 0 1-.419.405l.521 1.431"/><path d="m28.393 27.225 1.456.495q.297-.421.509-.875l-1.167-.98m1.688-.988-1.505.313a4.3 4.3 0 0 1-.183.675l1.167.98m-5.988 1.792.313 1.504q.507.04 1.012-.007l.252-1.502m-4.121.471.498-1.455-.051-.044a4 4 0 0 1-.412-.426l-1.433.517"/><path d="m22.324 27.648-.498 1.455q.42.298.873.511l.983-1.164"/><path d="m24.683 30.141-.313-1.504a4.3 4.3 0 0 1-.688-.187l-.983 1.164m4.87.013-1.016-1.156a4 4 0 0 1-.606.16l-.252 1.503m-4.612-4.328-1.159 1.012q.21.457.504.877l1.433-.517m-1.409-6.087 1.455.497.046-.053q.201-.223.425-.41l-.518-1.433m1.89.654-1.013-1.158q-.457.21-.877.504l.518 1.432m-.471.464-1.455-.497q-.297.42-.51.873l1.164.983m-.184.675-1.505.31q-.042.506.005 1.01l1.502.257M19.924 26.818l1.159-1.012a4 4 0 0 1-.16-.607l-1.5-.256m-.006-1.012 1.505-.31q.065-.342.184-.674l-1.164-.983"/></g></g></svg>