<svg xmlns="http://www.w3.org/2000/svg" data-name="Isolation Mode" viewBox="0 0 50 50"><path fill="none" stroke="#000" stroke-linecap="round" stroke-linejoin="round" d="M9.318 39C5.828 39 3 36.203 3 32.753c0-3.441 2.814-6.231 6.291-6.246q0 0 0 0c0-5.13 4.205-9.287 9.391-9.287 1.38 0 2.69.297 3.87.826C24.116 13.93 28.13 11 32.839 11c6.065 0 10.982 4.862 10.982 10.86 0 .978-.133 1.926-.378 2.828C45.584 26.082 47 28.478 47 31.202 47 35.51 43.47 39 39.114 39z"/><g fill="none" stroke="#000" stroke-linecap="round" stroke-linejoin="round" data-name="Group 12833"><path stroke-width="1.002" d="M24.687 25.393c-.05-1.148-.15-3.392-3.768-3.392-2.814-.052-3.568 1.67-3.517 2.818 0 1.2.201 2.348 3.567 2.974 3.618.627 4.12 1.826 4.02 3.337-.05 1.252-.804 2.87-4.02 2.87C17.704 34 17 31.652 17 30.034" data-name="Path 60587"/><path stroke-width=".939" d="m21 21-.031 14" data-name="Line 254"/></g><path fill="none" stroke="#000" stroke-linecap="round" stroke-linejoin="round" stroke-width="1.004" d="M21 21v14" data-name="Line 254"/><path fill="none" stroke="#000" stroke-linecap="round" stroke-linejoin="round" stroke-width=".935" d="M33.031 21 33 35" data-name="Line 254"/><path fill="none" stroke="#000" stroke-linecap="round" stroke-linejoin="round" d="m28 30 5 5 5-5"/></svg>