<svg xmlns="http://www.w3.org/2000/svg" viewBox="0 0 50 50"><path fill="none" stroke="#000" stroke-linecap="round" stroke-linejoin="round" d="m28.695 24.78-2.891 5.124-2.57-9.924-2.248 4.84h-5.934 5.934l2.249-4.84 2.569 9.924zh5.862z"/><g fill="none" stroke="#000" stroke-linecap="round" stroke-linejoin="round"><circle cx="25" cy="25" r="10"/><path d="M36.232 9.062 34.553 14q.099.083.196.167.748.677 1.379 1.425l4.856-1.762"/><path d="m34.553 14 1.68-4.938a19.4 19.4 0 0 0-2.964-1.727l-3.327 3.954M42.697 16.8l-3.922 3.44q.348 1.01.544 2.057l5.093.858m-5.637-2.915 3.922-3.44a19.4 19.4 0 0 0-1.713-2.97l-4.856 1.762m-8.463-4.922-1.053-5.103a19.6 19.6 0 0 0-3.43.019l-.866 5.092"/><path d="m26.612 5.567 1.053 5.104c.77.142 1.532.35 2.277.618l3.327-3.954m-3.501 31.437 3.442 3.921a19.4 19.4 0 0 0 2.97-1.715l-1.766-4.855M16.825 7.292l3.434 3.927a14.6 14.6 0 0 1 2.057-.541l.866-5.092m16.15 22.059 5.103-1.06a19.6 19.6 0 0 0-.023-3.43l-5.093-.858"/><path d="m40.944 36.224-4.938-1.677-.173.202q-.672.744-1.42 1.374l1.766 4.855"/><path d="m36.006 34.547 4.938 1.677q1.006-1.425 1.725-2.965l-3.955-3.324"/><path d="m44.435 26.585-5.103 1.06a14.5 14.5 0 0 1-.618 2.29l3.955 3.324m-20.306 6.075 1.062 5.101c1.143.092 2.29.085 3.43-.024l.856-5.093m-13.974 1.599 1.688-4.935q-.088-.073-.174-.15a14.5 14.5 0 0 1-1.397-1.446l-4.86 1.754m6.431-.158-1.688 4.935c.947.671 1.937 1.25 2.96 1.731l3.335-3.947"/><path d="m23.425 44.435-1.062-5.101a14.5 14.5 0 0 1-2.331-.633l-3.334 3.947m16.512.045-3.442-3.92q-1.012.347-2.057.545l-.855 5.093m-15.64-14.678-3.929 3.432a19.4 19.4 0 0 0 1.708 2.975l4.859-1.754m-4.777-20.64 4.936 1.685c.052-.06.1-.121.154-.18a15 15 0 0 1 1.44-1.392L13.853 9"/><path d="m20.26 11.219-3.435-3.927A19.4 19.4 0 0 0 13.852 9l1.756 4.858m-1.595 1.573-4.936-1.685a19.4 19.4 0 0 0-1.73 2.961l3.95 3.332m-.625 2.289-5.104 1.05a19.6 19.6 0 0 0 .017 3.43l5.091.868"/><path d="m7.287 33.165 3.93-3.432q-.347-1.011-.54-2.057l-5.092-.868m-.017-3.431 5.104-1.05q.217-1.163.624-2.288l-3.949-3.332"/></g></svg>