<svg xmlns="http://www.w3.org/2000/svg" viewBox="0 0 50 50"><g fill="none" stroke="#000" stroke-linecap="round" stroke-linejoin="round"><circle cx="15.284" cy="33.396" r="11.25"/><path d="M11.772 32.439h4.827M11.772 34.337h4.827M17.698 36.167c-.56.823-1.234 1.23-2.07 1.23-1.642 0-2.956-1.624-2.956-4 0-2.378 1.314-4 2.957-4 .835 0 1.536.428 2.06 1.216"/></g><circle cx="34.716" cy="33.396" r="11.25" fill="none" stroke="#000" stroke-linecap="round" stroke-linejoin="round"/><g fill="none" stroke="#000" stroke-linecap="round" stroke-linejoin="round"><path d="M37.02 31.634c-.038-.685-.104-2.044-2.354-2.054-1.772-.018-2.231.994-2.212 1.697.01.732.112 1.416 2.231 1.782 2.25.384 2.578 1.106 2.522 2.025-.047.76-.497 1.733-2.503 1.733-2.044-.008-2.485-1.424-2.485-2.38M34.694 28.896v9"/></g><circle cx="25" cy="16.604" r="11.25" fill="none" stroke="#000" stroke-linecap="round" stroke-linejoin="round"/><g fill="none" stroke="#000" stroke-linecap="round" stroke-linejoin="round"><path d="M22.12 12.604 25 16.7l2.88-4.097M25.001 16.722v3.882M23.144 16.683h3.705M23.144 18.758h3.705"/></g></svg>