<svg xmlns="http://www.w3.org/2000/svg" data-name="Isolation Mode" viewBox="0 0 50 50"><g fill="none" stroke="#000" stroke-linecap="round" stroke-linejoin="round"><path d="M23.588 19.266c2.36-1.728 3.963-5.107 3.963-8.994 0-5.644-3.38-7.777-7.548-7.777-4.17 0-7.55 2.133-7.55 7.777 0 3.887 1.605 7.267 3.966 8.994M4 36.495l2.648-11.791a4.7 4.7 0 0 1 2.035-2.673s3.184-1.994 7.734-2.765c1.067.78 2.288 1.291 3.586 1.291 1.297 0 2.518-.51 3.585-1.291"/><path d="M28.03 20.48a24 24 0 0 0-4.447-1.214"/></g><g fill="none" stroke="#000" stroke-linecap="round" stroke-linejoin="round"><path d="M39.558 45.435a12.36 12.36 0 0 1-15.632-1.59c-4.85-4.882-4.85-12.797 0-17.679m1.933-1.59a12.36 12.36 0 0 1 15.631 1.59c4.85 4.882 4.85 12.797 0 17.679"/><path d="M18.958 26.166h4.968v5M46.458 43.845H41.49v-5"/></g><g fill="none" stroke="#000" stroke-linecap="round" stroke-linejoin="round"><path d="M36.68 32.314c-.065-1.177-.178-3.514-4.058-3.53-3.055-.033-3.847 1.708-3.814 2.917.016 1.258.194 2.435 3.847 3.064 3.88.66 4.445 1.902 4.348 3.482-.08 1.306-.857 2.98-4.316 2.98-3.524-.014-4.283-2.448-4.283-4.093M32.708 27.267v15.476"/></g></svg>