<svg xmlns="http://www.w3.org/2000/svg" data-name="Isolation Mode" viewBox="0 0 50 50"><g fill="none" stroke-linecap="round" stroke-linejoin="round"><g stroke="#000"><path d="m24.32 27 11-11M35.32 24v-8h-8"/></g><path stroke="#231f20" d="M13.113 20c.625-3.78 3.934-6.668 7.934-6.668 1.183 0 2.306.254 3.318.708C25.704 10.512 29.145 8 33.18 8c5.2 0 9.414 4.167 9.414 9.308 0 .839-.114 1.651-.324 2.424 1.836 1.195 3.05 3.248 3.05 5.584 0 3.692-3.027 6.684-6.76 6.684H23.32"/></g><g fill="none" stroke="#000" stroke-linecap="round" stroke-linejoin="round"><path d="M17.705 24.27q-.508.025-1.012.043l-.002-.003-2.42-1.843c-.798-.609-1.76-.623-2.569-.039l-2.605 1.885a79 79 0 0 1-1.013-.043c-1.912-.094-3.404-.632-3.404 1.966s.355 6.81.355 6.81-.213 3.16 3.475 5.828A300 300 0 0 0 12.883 42h0s1.225-.83 4.397-3.126c3.687-2.668 3.474-5.827 3.474-5.827s.355-4.213.355-6.81-1.492-2.06-3.404-1.967"/><path d="M15.512 28.912h.001l-3.404 5.15-1.833-2.432"/><circle cx="12.895" cy="31.487" r="5"/></g></svg>