<svg xmlns="http://www.w3.org/2000/svg" data-name="Isolation Mode" viewBox="0 0 50 50"><g fill="none" stroke="#000" stroke-linecap="round" stroke-linejoin="round"><path d="M24.547 19.018c2.36-1.727 3.964-5.106 3.964-8.993 0-5.644-3.38-7.778-7.55-7.778-4.168 0-7.548 2.134-7.548 7.778 0 3.887 1.604 7.267 3.965 8.994"/><path d="m4.96 36.247 2.647-11.79a4.7 4.7 0 0 1 2.035-2.674s3.184-1.993 7.734-2.765c1.067.781 2.288 1.292 3.586 1.292s2.518-.51 3.585-1.292"/><path d="M28.989 20.232a24 24 0 0 0-4.447-1.214"/></g><path fill="none" stroke="#000" stroke-linecap="round" stroke-linejoin="round" d="M39.903 23.842H26.178a5.093 5.093 0 0 0-5.092 5.093V42.66c0 .172.034.334.05.502l6.149-6.163a6 6 0 0 1 .184-3.235c1.074-3.031 4.384-4.61 7.393-3.528l.039.014a5 5 0 0 1 1.467.787l-4.22 2.218-.184 2.912 2.523 1.618.088-.046 4.13-2.219a6.8 6.8 0 0 1-.321 2.126c-.981 2.901-4.04 4.524-6.97 3.698l-6.296 6.295a5 5 0 0 0 1.06.114h13.725a5.095 5.095 0 0 0 5.093-5.093V28.935a5.093 5.093 0 0 0-5.093-5.093"/></svg>