<svg xmlns="http://www.w3.org/2000/svg" viewBox="0 0 50 50"><g fill="none" stroke="#000" stroke-linecap="round" stroke-linejoin="round" stroke-width=".75"><path d="M25.407 21.094V42.08M18.789 32.453a.648.648 0 1 0 0 1.296l.046-.005a.646.646 0 0 0-.046-1.29m3.259-2.234c.058.3.32.525.636.525l.046-.004a.646.646 0 0 0-.046-1.291.648.648 0 0 0-.636.77m-4.569-1.894.046-.004a.646.646 0 0 0-.046-1.291.648.648 0 1 0 0 1.295m5.515-5.19a.648.648 0 1 0-.648.648l.046-.004a.646.646 0 0 0 .602-.644m-.149 12.568.047-.004a.646.646 0 0 0-.047-1.291.648.648 0 0 0 0 1.295m-5.348 3.311c0 .358.29.648.648.648l.046-.005a.646.646 0 0 0-.046-1.291.65.65 0 0 0-.648.648m3.742 2.657c0 .358.29.648.647.648l.047-.005a.646.646 0 0 0-.047-1.291.65.65 0 0 0-.647.648"/><path d="M20.846 28.273c.158-1.06-.336-2.112-1.286-2.74-1.008-.634-2.368-.634-3.73 0-1.821.85-1.2 3.594-1.195 3.622a.25.25 0 0 1-.04.203c-.014.02-1.404 2.055-.665 3.64.415.886 1.432 1.487 3.024 1.784"/><path d="M21.841 22.703c-.966-.79-1.999-1.7-3.006-1.292-.88.357-1.591 2.02-1.129 3.649M25.407 42.081V21.094"/><path d="M14.432 33.686c-.969.774-1.192 1.958-.88 2.758.355 1.077 1.232 1.842 1.68 1.896.163.02.279.156.258.306l-.007.032c-.298 1.06.002 2.186.8 3.004.46.559 1.166.904 1.93.944.147-.015.284.07.323.2.459 1.369 1.988 2.192 3.525 1.898 3.225-.376 3.344-2.578 3.346-2.643m-5.764-20.742c1.87-1.748 3.962-2.088 4.954-1.65.55.28.808.91.81 1.405M17.68 28.291l1.282 2.385M22.033 30.213l-3.071.463M18.962 30.676l-.114 1.762M20.875 39.567l.714 1.53"/><path d="m22.236 35.308-2.07 1.04.71 3.22M20.875 39.567l-2.095-.425M25.407 21.094V42.08M32.025 32.453a.648.648 0 1 1 0 1.296l-.046-.005c-.336-.024-.602-.301-.602-.643s.29-.648.648-.648m-3.259-2.233a.65.65 0 0 1-.636.525l-.046-.004a.646.646 0 0 1 .046-1.291.648.648 0 0 1 .636.77m4.569-1.894-.046-.004c-.336-.024-.601-.302-.601-.643s.29-.648.647-.648a.648.648 0 0 1 0 1.295m-5.515-5.19a.648.648 0 1 1 .648.648l-.046-.004a.646.646 0 0 1-.602-.644m.149 12.568-.047-.004c-.335-.025-.601-.302-.601-.644s.29-.647.648-.647a.648.648 0 0 1 0 1.295m5.348 3.311c0 .358-.29.648-.648.648l-.046-.005a.646.646 0 0 1 .046-1.291c.358 0 .648.29.648.648m-3.742 2.657c0 .358-.29.648-.647.648l-.047-.005c-.336-.024-.601-.301-.601-.643s.29-.648.648-.648c.357 0 .647.29.647.648"/><path d="M29.968 28.273c-.158-1.06.336-2.112 1.286-2.74 1.008-.634 2.368-.634 3.73 0 1.821.85 1.2 3.594 1.195 3.622a.25.25 0 0 0 .04.203c.014.02 1.404 2.055.665 3.64-.415.886-1.432 1.487-3.024 1.784"/><path d="M28.973 22.703c.966-.79 1.999-1.7 3.006-1.292.88.357 1.591 2.02 1.129 3.649M25.407 42.081V21.094"/><path d="M36.382 33.686c.969.774 1.192 1.958.88 2.758-.355 1.077-1.232 1.842-1.68 1.896-.163.02-.279.156-.258.306l.007.032c.298 1.06-.002 2.186-.8 3.004-.46.559-1.166.904-1.93.944-.147-.015-.284.07-.323.2-.459 1.369-1.988 2.192-3.525 1.898-3.225-.376-3.344-2.578-3.346-2.643m5.764-20.742c-1.87-1.748-3.962-2.088-4.954-1.65-.55.28-.808.91-.81 1.405M33.134 28.291l-1.282 2.385M28.781 30.213l3.071.463M31.852 30.676l.114 1.762M29.939 39.567l-.714 1.53"/><path d="m28.578 35.308 2.07 1.04-.71 3.22M29.939 39.567l2.095-.425"/></g><path fill="none" stroke="#000" stroke-linecap="round" stroke-linejoin="round" d="M11.443 33.484H9.318C5.828 33.484 3 30.687 3 27.237c0-3.44 2.814-6.23 6.291-6.245v-.002c0-5.128 4.205-9.285 9.391-9.285 1.38 0 2.69.297 3.87.826 1.563-4.116 5.577-7.047 10.286-7.047 6.065 0 10.982 4.862 10.982 10.86 0 .978-.133 1.926-.378 2.828C45.584 20.566 47 22.962 47 25.687c0 4.306-3.53 7.797-7.886 7.797" data-name="Isolation Mode"/></svg>