<svg xmlns="http://www.w3.org/2000/svg" data-name="Isolation Mode" viewBox="0 0 50 50"><path fill="none" stroke="#000" stroke-linecap="round" stroke-linejoin="round" d="M28.584 33.952H20M14 34H9.318C5.828 34 3 31.203 3 27.753c0-3.441 2.814-6.231 6.291-6.246q0 0 0 0c0-5.13 4.205-9.287 9.391-9.287 1.38 0 2.69.297 3.87.826C24.116 8.93 28.13 6 32.839 6c6.065 0 10.982 4.862 10.982 10.86 0 .978-.133 1.926-.378 2.828C45.584 21.082 47 23.478 47 26.202c0 4.013-3.065 7.317-7.006 7.75h-5.787"/><path fill="none" stroke="#000" stroke-linecap="round" stroke-linejoin="round" d="M17 26v18" data-name="Line 154"/><path fill="none" stroke="#000" stroke-linecap="round" stroke-linejoin="round" d="m11 38 6 6 6-6" data-name="Path 60447"/><g fill="none" stroke="#000" stroke-linecap="round" stroke-linejoin="round"><path d="M31.4 23.565v18" data-name="Line 154"/><path d="m37.4 29.388-6-6-6 6" data-name="Path 60447"/></g></svg>