<svg xmlns="http://www.w3.org/2000/svg" data-name="Isolation Mode" viewBox="0 0 50 50"><g fill="none" stroke="#000" stroke-linecap="round" stroke-linejoin="round"><path d="M11.01 39.58c-3.304.003-5.985-2.642-5.988-5.909-.003-3.258 2.659-5.903 5.95-5.92q0 0 0 0c-.004-4.856 3.973-8.796 8.884-8.801a8.9 8.9 0 0 1 3.666.778c1.475-3.898 5.274-6.676 9.732-6.68 5.743-.006 10.403 4.593 10.409 10.272 0 .926-.125 1.824-.356 2.678 2.029 1.318 3.372 3.585 3.375 6.165.003 4.078-3.337 7.386-7.46 7.39zm15.878-28.303a7.4 7.4 0 0 1 2.558 2.219"/><path d="M26.888 11.277a7.46 7.46 0 0 0-3.488-.857c-3.17.003-5.873 1.97-6.922 4.73a6.4 6.4 0 0 0-2.608-.552c-3.493.004-6.322 2.793-6.319 6.23v.001c-2.341.012-4.235 1.884-4.233 4.19.002 2.024 1.463 3.711 3.402 4.1"/></g><g fill="none" stroke="#000" stroke-linecap="round" stroke-linejoin="round" stroke-width=".947"><circle cx="14.824" cy="33.359" r="2.367"/><circle cx="22.471" cy="25.652" r="2.367"/><circle cx="30.124" cy="33.359" r="2.367"/><circle cx="37.802" cy="25.652" r="2.367"/><path d="m24.135 27.335 4.336 4.336M20.812 27.335l-4.332 4.332M36.136 27.333l-4.349 4.349"/></g></svg>