<svg xmlns="http://www.w3.org/2000/svg" viewBox="0 0 50 50"><path fill="none" stroke="#000" stroke-linecap="round" stroke-linejoin="round" d="M24 24h8M24 30h8M24 36h8"/><g fill="none" stroke="#000" stroke-linecap="round" stroke-linejoin="round"><path d="M10 5v40h30V16L29 5z"/><path d="M29 5v11h11"/></g><path fill="none" stroke="#000" stroke-linecap="round" stroke-linejoin="round" d="M15.002 21h20v18.033h-20zM20.98 21v18M15 26.992h20M15 32.958h19.371M29 5v11h11"/><path d="M18 23a1 1 0 1 0 0 2 1 1 0 0 0 0-2m0 12a1 1 0 1 0 0 2 1 1 0 0 0 0-2"/></svg>