<svg xmlns="http://www.w3.org/2000/svg" viewBox="0 0 50 50"><path d="M37.232 36.486c-.665-.649-1.703-.718-2.5-.234l-1.574-1.535c1.845-1.974 2.983-4.595 2.983-7.478 0-6.113-5.074-11.087-11.309-11.087S13.523 21.126 13.523 27.24c0 6.115 5.074 11.088 11.309 11.088a11.38 11.38 0 0 0 7.61-2.91l1.579 1.537c-.204.326-.32.695-.32 1.081 0 .524.204 1.01.574 1.371l5.704 5.574c.38.37.88.553 1.39.553.537 0 1.085-.206 1.503-.615.412-.401.639-.929.639-1.485a1.9 1.9 0 0 0-.573-1.372zM14.523 27.24c0-5.562 4.625-10.087 10.309-10.087 5.685 0 10.309 4.525 10.309 10.087 0 2.781-1.156 5.303-3.023 7.13q-.01.007-.02.014l-.007.01a10.4 10.4 0 0 1-7.259 2.934c-5.684 0-10.309-4.525-10.309-10.088m27.65 16.963c-.427.42-1.099.45-1.495.063l-5.704-5.575a.9.9 0 0 1-.273-.655c0-.285.12-.558.337-.77a1.16 1.16 0 0 1 .807-.334.98.98 0 0 1 .69.271l5.703 5.573a.9.9 0 0 1 .273.657c0 .285-.12.558-.337.77"/><path d="M33.06 27.24c0-4.45-3.69-8.07-8.228-8.07s-8.228 3.62-8.228 8.07 3.69 8.07 8.228 8.07 8.228-3.62 8.228-8.07m-3.536-5.085c.382 0 .694.31.694.692a.693.693 0 0 1-1.386 0c0-.382.31-.692.692-.692m-9.385 10.17a.694.694 0 0 1 0-1.386.693.693 0 0 1 0 1.386m.74.827c.564-.277.957-.85.957-1.52a1.691 1.691 0 0 0-3.2-.771 6.9 6.9 0 0 1-1.032-3.622c0-1.324.381-2.56 1.032-3.62.282.546.846.925 1.503.925a1.7 1.7 0 0 0 1.697-1.697c0-.669-.393-1.243-.957-1.52a7.3 7.3 0 0 1 3.953-1.158 7.3 7.3 0 0 1 3.952 1.158 1.7 1.7 0 0 0-.956 1.52c0 .936.76 1.697 1.696 1.697.658 0 1.222-.379 1.504-.926a6.9 6.9 0 0 1 1.032 3.621 6.9 6.9 0 0 1-1.032 3.622 1.69 1.69 0 0 0-1.504-.925 1.693 1.693 0 0 0-.74 3.216 7.3 7.3 0 0 1-3.952 1.158 7.3 7.3 0 0 1-3.952-1.158"/><path d="M45.034 4.465H4.966a.5.5 0 0 0-.5.5v30.578a.5.5 0 0 0 .5.5h9.866a.5.5 0 1 0 0-1H5.466V11.168h39.068v23.875h-5.702a.5.5 0 1 0 0 1h6.202a.5.5 0 0 0 .5-.5V4.965a.5.5 0 0 0-.5-.5m-39.568 1h39.068v4.703H5.466z"/><path d="M10.69 7.316H7.828a.5.5 0 1 0 0 1h2.862a.5.5 0 1 0 0-1m5.724 0h-2.862a.5.5 0 1 0 0 1h2.862a.5.5 0 1 0 0-1m5.724 0h-2.862a.5.5 0 1 0 0 1h2.862a.5.5 0 1 0 0-1"/><circle cx="42.172" cy="7.817" r="1"/><circle cx="7.832" cy="32.821" r="1"/><circle cx="11.375" cy="32.821" r="1"/><circle cx="7.832" cy="29.821" r="1"/><circle cx="11.375" cy="29.821" r="1"/><circle cx="7.832" cy="26.821" r="1"/><circle cx="11.375" cy="26.821" r="1"/><circle cx="7.832" cy="23.821" r="1"/><circle cx="11.375" cy="23.821" r="1"/><circle cx="7.832" cy="20.821" r="1"/><circle cx="11.375" cy="20.821" r="1"/><circle cx="11.375" cy="17.821" r="1"/><circle cx="38.603" cy="32.821" r="1"/><circle cx="41.832" cy="32.821" r="1"/><circle cx="38.603" cy="29.821" r="1"/><circle cx="41.832" cy="29.821" r="1"/><circle cx="38.603" cy="26.821" r="1"/><circle cx="41.832" cy="26.821" r="1"/><circle cx="38.603" cy="23.821" r="1"/><circle cx="41.832" cy="23.821" r="1"/><circle cx="38.603" cy="20.821" r="1"/><circle cx="38.603" cy="17.821" r="1"/><path d="M24.846 25.542a1.7 1.7 0 0 0-1.697 1.697c0 .937.762 1.698 1.697 1.698s1.697-.761 1.697-1.698a1.7 1.7 0 0 0-1.697-1.697m0 2.39a.694.694 0 0 1 0-1.385.693.693 0 0 1 0 1.386m0 2.003c-.935 0-1.697.76-1.697 1.696s.762 1.697 1.697 1.697 1.697-.76 1.697-1.697c0-.936-.761-1.696-1.697-1.696m0-8.786c-.935 0-1.697.762-1.697 1.697s.762 1.697 1.697 1.697 1.697-.761 1.697-1.697-.761-1.697-1.697-1.697m4.678 7.787a1.699 1.699 0 0 0 0-3.394 1.698 1.698 0 0 0 0 3.394m-9.385-3.395a1.7 1.7 0 0 0-1.698 1.697 1.699 1.699 0 0 0 3.395 0 1.7 1.7 0 0 0-1.697-1.697"/></svg>