<svg xmlns="http://www.w3.org/2000/svg" data-name="&amp;lt;Layer&amp;gt;" viewBox="0 0 50 50"><g fill="none" stroke="#000" stroke-linecap="round" stroke-linejoin="round"><path d="m27.016 27.244 5.482-5.482c1.994-1.993 1.496-6.479 1.496-6.479h0s-4.486-.498-6.48 1.495l-5.481 5.483M30.505 17.775l.997.997M25.521 28.74 23.03 31.23l-4.983-4.984 2.492-2.491M15.554 33.723l-1.495 1.495M21.503 29.705l-.868.923c-.28.295-.626.52-1.024.664l-2.485.859.859-2.485a2.64 2.64 0 0 1 .664-1.024l.923-.868M22.033 34.221l-2.99 2.991M15.056 27.244l-2.991 2.99M25.023 24.254l-4.236 4.236M23.777 20.516l-4.485-.498-2.991 4.004 3.428.318"/><path d="m28.76 25.5.5 4.485-4.005 2.991-.318-3.428"/></g><rect width="40" height="40" x="4.468" y="5.123" fill="none" stroke="#000" stroke-linecap="round" stroke-linejoin="round" rx="8.52" ry="8.52"/></svg>