<svg xmlns="http://www.w3.org/2000/svg" data-name="Isolation Mode" viewBox="0 0 50 50"><g fill="none" stroke="#000" stroke-linecap="round" stroke-linejoin="round"><path d="M31.774 10.645h9.747M31.774 13.43h9.747M31.774 16.215h6.962M44.383 7.86H28.912c-.34 0-.619.28-.619.622v9.896c0 .342.279.621.619.621h3.17l-.03 3.642s.022.291.193.42a.51.51 0 0 0 .643.002c.239-.176.555-.563.835-.844.74-.743 2.072-1.953 3.321-3.22h7.339c.34 0 .619-.28.619-.621V8.482a.62.62 0 0 0-.62-.622"/></g><g fill="none" fill-rule="evenodd" stroke="#000" stroke-miterlimit="10"><path d="M31.918 26.33a.96.96 0 0 0-.928.942v8.895c0 .53.464.943.928.943a.924.924 0 0 0 .928-.943v-8.895a.924.924 0 0 0-.928-.943Zm-25.992 0a.924.924 0 0 0-.928.942v8.895c0 .53.406.943.928.943s.929-.413.929-.943v-8.895a.924.924 0 0 0-.929-.943ZM27.29 39.253c-.177.18-.352.24-.587.24s-.527-.12-.703-.36l-2.403-2.93-2.403 2.93a.91.91 0 0 1-.703.36c-.293 0-.586-.12-.762-.36l-2.403-2.93-2.345 2.93c-.351.479-1.113.479-1.465 0l-3.106-3.826c-.352-.418-.293-1.016.117-1.315.41-.36.996-.3 1.29.12l2.402 2.929 2.403-2.93c.352-.478 1.114-.478 1.466 0l2.403 2.93 2.403-2.93c.351-.418 1.055-.478 1.406 0l3.165 3.827c.293.418.235 1.016-.176 1.315Zm-12.778-14.29c1.876 0 3.458 1.555 3.458 3.528s-1.582 3.528-3.458 3.528c-1.934 0-3.516-1.555-3.516-3.528s1.582-3.528 3.516-3.528Zm8.85 0c1.876 0 3.458 1.555 3.458 3.528s-1.582 3.528-3.458 3.528c-1.934 0-3.457-1.555-3.457-3.528s1.523-3.528 3.457-3.528Z"/><path d="M27.896 42.14H9.861c-.826 0-1.5-.692-1.5-1.538l.07-17.81c0-.846.675-1.538 1.5-1.538h18.036c.825 0 1.5.692 1.5 1.537l-.07 17.811c0 .846-.675 1.538-1.5 1.538Z"/></g></svg>