<svg xmlns="http://www.w3.org/2000/svg" data-name="Isolation Mode" viewBox="0 0 50 50"><path fill="none" stroke="#000" stroke-linecap="round" stroke-linejoin="round" d="M4.966 15.414h40.068V9.711H4.966zV40.29h40.068V15.414M7.828 12.563h2.862M13.552 12.563h2.862M19.276 12.563h2.862"/><path d="M42.172 11.563a1 1 0 1 0 0 2 1 1 0 0 0 0-2"/><circle cx="22.013" cy="27.355" r="1.875" fill="none" stroke="#000" stroke-miterlimit="10"/><circle cx="27.927" cy="27.355" r="1.875" fill="none" stroke="#000" stroke-miterlimit="10"/><path fill="none" stroke="#000" stroke-linecap="round" stroke-linejoin="round" d="M23.752 35.218v-2.491M26.245 32.727v2.491M25.382 31.281c.317 0 .575-.288.575-.644 0-.316-.695-1.297-.981-1.297s-.967.986-.967 1.297c0 .356.257.644.574.644z"/><path fill="none" stroke="#000" stroke-linecap="round" stroke-linejoin="round" d="M21.883 34.646c0 .347 1.395.628 3.115.628s3.116-.281 3.116-.628v-2.542s4.547.006 3.82-5.622c-.423-3.281-2.708-4.95-4.54-5.723a6.14 6.14 0 0 0-4.782 0c-1.835.773-4.123 2.44-4.546 5.723-.727 5.628 3.817 5.622 3.817 5.622zM15.625 24.287 10 27.65l5.625 3.363M34.375 31.013 40 27.65l-5.625-3.363"/></svg>