<svg xmlns="http://www.w3.org/2000/svg" data-name="Isolation Mode" viewBox="0 0 50 50"><path fill="none" stroke="#000" stroke-linecap="round" stroke-linejoin="round" d="M22.151 17.891 35 39M15.983 17.614 29 39M11.655 20.361 23 39M9.299 26.349 17 39M4.645 28.56 11 39M4.645 28.56a6.33 6.33 0 0 1 4.646-2.053v-.001c0-.053.007-.104.008-.157M22.15 17.89a9.4 9.4 0 0 0-3.468-.67 9.5 9.5 0 0 0-2.7.394M9.3 26.349a9.18 9.18 0 0 1 2.355-5.988m-7.01 8.199A6.18 6.18 0 0 0 3 32.753C3 36.203 5.829 39 9.318 39H11"/><path fill="none" stroke="#000" stroke-linecap="round" stroke-linejoin="round" d="M15.983 17.614a9.4 9.4 0 0 0-4.328 2.747M35 39h4.114C43.469 39 47 35.509 47 31.202c0-2.725-1.416-5.12-3.558-6.514.245-.902.378-1.85.378-2.829C43.82 15.862 38.903 11 32.838 11c-4.709 0-8.723 2.93-10.285 7.046-.13-.058-.269-.103-.402-.155M29 39h6M17 39h6M11 39h6M23 39h6"/></svg>