<svg xmlns="http://www.w3.org/2000/svg" viewBox="0 0 50 50"><g fill="none" stroke="#000" stroke-linecap="round" stroke-linejoin="round"><path d="M18.282 18.864c.25-1.678-.533-3.344-2.036-4.338-1.596-1.005-3.75-1.004-5.906 0-2.882 1.346-1.898 5.69-1.89 5.734a.4.4 0 0 1-.063.321c-.024.032-2.224 3.254-1.053 5.762.656 1.403 2.266 2.353 4.786 2.825"/><path d="M13.31 13.777c-.73-2.58.394-5.212 1.788-5.777 1.595-.645 3.23.794 4.76 2.045"/><path d="M8.127 27.433c-1.533 1.224-1.886 3.098-1.39 4.365.56 1.706 1.948 2.916 2.656 3.001.26.03.443.248.41.485l-.012.05c-.471 1.68.004 3.462 1.268 4.757.726.884 1.844 1.43 3.055 1.493.232-.023.45.111.51.318.727 2.167 3.148 3.47 5.581 3.004 5.105-.595 5.293-4.08 5.296-4.184V7.498c-.002-.783-.41-1.78-1.282-2.225-1.57-.692-4.881-.155-7.842 2.613"/><path d="M15.209 22.368c-.703 1.03-.27 2.84.373 3.87"/><path d="M13.19 18.77s.483 6.167 7.448 3.67m-2.846 11.167c-1.21-.299-2.756.74-3.496 1.701"/><path d="M20.458 30.46s-5.61 2.605-.838 8.26m2.459-11.828s3.422.24 3.422 4.552m-3.422-16.656s3.422-.24 3.422-4.552"/></g><path fill="none" stroke="#000" stroke-linecap="round" stroke-linejoin="round" d="M25.502 11.236h6.178"/><circle cx="34.422" cy="11.236" r="2.75" fill="none" stroke="#000" stroke-linecap="round" stroke-linejoin="round"/><path fill="none" stroke="#000" stroke-linecap="round" stroke-linejoin="round" d="M25.502 24.557h6.178"/><circle cx="34.422" cy="24.557" r="2.75" fill="none" stroke="#000" stroke-linecap="round" stroke-linejoin="round"/><path fill="none" stroke="#000" stroke-linecap="round" stroke-linejoin="round" d="M25.502 38.33h6.178"/><circle cx="34.422" cy="38.33" r="2.75" fill="none" stroke="#000" stroke-linecap="round" stroke-linejoin="round"/><circle cx="40.723" cy="17.896" r="2.75" fill="none" stroke="#000" stroke-linecap="round" stroke-linejoin="round"/><path fill="none" stroke="#000" stroke-linecap="round" stroke-linejoin="round" d="M25.502 17.896h12.479"/><circle cx="40.723" cy="31.444" r="2.75" fill="none" stroke="#000" stroke-linecap="round" stroke-linejoin="round"/><path fill="none" stroke="#000" stroke-linecap="round" stroke-linejoin="round" d="M25.502 31.444h12.479"/></svg>