<svg xmlns="http://www.w3.org/2000/svg" data-name="Isolation Mode" viewBox="0 0 50 50"><g fill="none" stroke="#000" stroke-linecap="round" stroke-linejoin="round"><path d="M40.985 24.6C41.59 24.156 42 23.29 42 22.292c0-1.449-.864-1.997-1.93-1.997s-1.93.548-1.93 1.997c0 .997.41 1.865 1.013 2.308"/><path d="m35.978 29.022.676-3.026c.084-.286.269-.53.52-.687 0 0 .815-.511 1.978-.71.273.201.585.332.917.332.331 0 .644-.13.916-.331"/><path d="m44.159 29.022-.677-3.026a1.2 1.2 0 0 0-.52-.687s-.815-.511-1.978-.71"/><circle cx="40.068" cy="25" r="7.5"/><path d="M9.034 24.6c-.603-.444-1.013-1.31-1.013-2.308 0-1.449.864-1.997 1.93-1.997s1.93.548 1.93 1.997c0 .997-.41 1.865-1.014 2.308"/><path d="m14.042 29.022-.677-3.026a1.2 1.2 0 0 0-.52-.687s-.814-.511-1.977-.71c-.273.201-.585.332-.917.332s-.644-.13-.917-.331"/><path d="m5.861 29.022.677-3.026c.083-.286.268-.53.52-.687 0 0 .814-.511 1.978-.71"/><circle cx="9.952" cy="25" r="7.5"/></g><g fill="none" stroke="#000" stroke-linecap="round" stroke-linejoin="round"><path d="M40.24 32.498a16.8 16.8 0 0 1-4.787 5.832c-7.399 5.73-18.082 4.408-23.86-2.953M9.78 17.424a16.8 16.8 0 0 1 4.747-5.754c7.4-5.73 18.082-4.408 23.86 2.953"/><path d="m10.763 42.082.83-6.705 6.749.835M39.218 7.918l-.83 6.705-6.75-.835"/></g><g fill="none" stroke="#000" stroke-linecap="round" stroke-linejoin="round"><path d="M28.971 22.309c-.064-1.177-.177-3.515-4.057-3.53-3.055-.033-3.847 1.708-3.815 2.917.017 1.258.194 2.434 3.848 3.063 3.88.661 4.445 1.903 4.348 3.483-.081 1.305-.857 2.98-4.316 2.98-3.524-.014-4.284-2.448-4.284-4.093M25 17.262v15.476"/></g></svg>