<svg xmlns="http://www.w3.org/2000/svg" viewBox="0 0 50 50"><path fill="none" stroke="#000" stroke-linecap="round" stroke-linejoin="round" d="M45.111 18H4.89a.9.9 0 0 0-.889.902v3.197c0 .495.4.901.889.901h40.22a.9.9 0 0 0 .889-.901v-3.197c0-.496-.4-.902-.889-.902m.012 5H4.878c-.483 0-.878.425-.878.943v6.114c0 .518.395.943.878.943h40.244c.483 0 .878-.425.878-.943v-6.114c0-.518-.395-.943-.878-.943"/><path d="M37.395 26c.334 0 .605.304.605.681v.637c0 .377-.27.682-.605.682h-7.79c-.334 0-.605-.305-.605-.682v-.637c0-.377.27-.681.606-.681zm0-1h-7.79C28.72 25 28 25.754 28 26.681v.637c0 .927.72 1.682 1.606 1.682h7.789C38.28 29 39 28.245 39 27.318v-.637c0-.927-.72-1.681-1.605-1.681M42 26a1 1 0 1 1 0 2 1 1 0 0 1 0-2m0-1a2.001 2.001 0 1 0 2 2.001A2.003 2.003 0 0 0 42 25"/><path fill="none" stroke="#000" stroke-linecap="round" stroke-linejoin="round" d="M6 21h38"/><circle cx="21" cy="27" r=".5"/><path d="M21 26a1 1 0 1 0 0 2 1 1 0 0 0 0-2"/><circle cx="18" cy="27" r=".5"/><path d="M18 26a1 1 0 1 0 0 2 1 1 0 0 0 0-2"/><circle cx="15" cy="27" r=".5"/><path d="M15 26a1 1 0 1 0 0 2 1 1 0 0 0 0-2"/><circle cx="12" cy="27" r=".5"/><path d="M12 26a1 1 0 1 0 0 2 1 1 0 0 0 0-2"/><circle cx="9" cy="27" r=".5"/><path d="M9 26a1 1 0 1 0 0 2 1 1 0 0 0 0-2"/></svg>