<svg xmlns="http://www.w3.org/2000/svg" data-name="Isolation Mode" viewBox="0 0 50 50"><circle cx="25" cy="25" r="20" fill="none" stroke="#000" stroke-linecap="round" stroke-linejoin="round"/><path d="M18.01 27.63h-.946l-1.851-3.914-.004 3.914h-.95v-5.688h.95l1.844 3.903.008-3.903h.949zm4.76-.711q-.145.172-.34.316-.197.145-.438.25-.243.105-.525.164-.284.06-.604.059a2 2 0 0 1-.906-.2 1.95 1.95 0 0 1-.666-.544 2.5 2.5 0 0 1-.414-.815 3.5 3.5 0 0 1-.147-1.007v-.704q0-.539.141-1.007c.141-.468.229-.584.404-.817q.263-.346.647-.549.383-.2.875-.2.441 0 .789.12.346.122.598.35.249.228.396.557c.147.329.16.463.186.734h-.922a2 2 0 0 0-.11-.414 1 1 0 0 0-.199-.313.84.84 0 0 0-.303-.197 1.2 1.2 0 0 0-.42-.068.9.9 0 0 0-.51.146q-.212.147-.353.395a2 2 0 0 0-.207.574 3.5 3.5 0 0 0-.07.682v.71q.003.356.072.68.068.326.215.573.146.248.377.396.23.15.555.152.133 0 .273-.017c.14-.017.183-.03.268-.057q.127-.037.232-.1.105-.06.172-.15l.008-1.137h-1.028v-.73h1.946zm.75-4.977h3.382v.778h-1.23v4.136h1.23v.774H23.52v-.774h1.203V22.72H23.52zm7.947 5.688h-.946l-1.851-3.914-.004 3.914h-.95v-5.688h.95l1.844 3.903.008-3.903h.949zm2.781-3.57 1.094-2.118h1.105l-1.62 2.82 1.66 2.868h-1.098l-1.125-2.152-1.125 2.152h-1.11l1.66-2.867-1.617-2.82h1.098z"/></svg>