<svg xmlns="http://www.w3.org/2000/svg" viewBox="0 0 50 50"><circle cx="21.752" cy="31.995" r="2" fill="none" stroke="#000" stroke-linecap="round" stroke-linejoin="round"/><circle cx="27.797" cy="31.995" r="2" fill="none" stroke="#000" stroke-linecap="round" stroke-linejoin="round"/><path fill="none" stroke="#000" stroke-linecap="round" stroke-linejoin="round" d="M23.516 40.108v-2.57M26.092 37.538v2.57M25.2 36.046c.329 0 .595-.298.595-.665 0-.326-.718-1.337-1.015-1.337s-1 1.017-1 1.337c0 .367.267.665.595.665z"/><path fill="none" stroke="#000" stroke-linecap="round" stroke-linejoin="round" d="M21.583 39.518c0 .358 1.442.648 3.221.648s3.22-.29 3.22-.648v-2.622s4.702.006 3.95-5.802c-.437-3.386-2.8-5.107-4.694-5.905a6.36 6.36 0 0 0-4.944 0c-1.896.797-4.262 2.518-4.7 5.905-.75 5.808 3.947 5.802 3.947 5.802z"/><g fill="none" stroke="#000"><path stroke-linecap="round" stroke-linejoin="round" d="M5 8.748v23.787h7.256"/><path stroke-linecap="round" stroke-linejoin="round" d="M22.713 18.435a6.08 6.08 0 0 0 4.574 0l17.158-8.542c1.116-.95.435-2.76-1.039-2.76H6.594c-1.474 0-2.155 1.81-1.04 2.76z"/><path stroke-linecap="round" stroke-linejoin="round" d="M45 8.69v23.845h-7.457"/><circle cx="24.9" cy="32.367" r="10.5" stroke-miterlimit="10"/></g></svg>