<svg xmlns="http://www.w3.org/2000/svg" data-name="Isolation Mode" viewBox="0 0 50 50"><circle cx="25" cy="25" r="20" fill="none" stroke="#000" stroke-linecap="round" stroke-linejoin="round"/><g fill="none" stroke="#000" stroke-linecap="round" stroke-linejoin="round"><path d="M28.844 26.757c2.529-1.829 4.247-5.407 4.247-9.522C33.09 11.259 29.47 9 25.003 9s-8.088 2.26-8.088 8.235c0 4.116 1.718 7.694 4.248 9.523"/><path d="m9.618 37.783 1.076-5.267a4.98 4.98 0 0 1 2.18-2.831s3.412-2.11 8.287-2.928c1.143.827 2.451 1.368 3.842 1.368 1.39 0 2.698-.54 3.841-1.368"/><path d="m40.474 37.672-1.168-5.156a4.98 4.98 0 0 0-2.18-2.831s-3.412-2.11-8.287-2.928"/></g></svg>