<svg xmlns="http://www.w3.org/2000/svg" data-name="Layer 1" viewBox="0 0 50 50"><g fill="none" stroke="#000" stroke-linecap="round" stroke-linejoin="round"><path d="M5 13.736h40v10H5zM5 26.264h40v10H5z"/></g><path d="m10.529 31.868-1.247.79-.416-.723 1.3-.67-1.3-.67.416-.738 1.247.791-.068-1.475h.845l-.067 1.475 1.233-.791.43.737-1.3.67 1.3.671-.43.724-1.233-.791.067 1.474h-.845zm4.705 0-1.247.79-.415-.723 1.3-.67-1.3-.67.415-.738 1.247.791-.067-1.475h.845l-.067 1.475 1.233-.791.429.737-1.3.67 1.3.671-.43.724-1.232-.791.067 1.474h-.845zm4.706 0-1.248.79-.415-.723 1.3-.67-1.3-.67.415-.738 1.247.791-.067-1.475h.845l-.067 1.475 1.233-.791.429.737-1.3.67 1.3.671-.43.724-1.232-.791.067 1.474h-.845zm4.705 0-1.247.79-.416-.723 1.3-.67-1.3-.67.416-.738 1.247.791-.067-1.475h.844l-.067 1.475 1.233-.791.43.737-1.3.67 1.3.671-.43.724-1.233-.791.067 1.474h-.844zm4.705 0-1.246.79-.416-.723 1.3-.67-1.3-.67.416-.738 1.247.791-.068-1.475h.845l-.067 1.475 1.233-.791.43.737-1.301.67 1.3.671-.43.724-1.232-.791.067 1.474h-.845zm4.706 0-1.247.79-.415-.723 1.3-.67-1.3-.67.415-.738 1.247.791-.067-1.475h.844l-.066 1.475L36 29.857l.429.737-1.3.67 1.3.671-.43.724-1.232-.791.066 1.474h-.844zm4.705 0-1.247.79-.415-.723 1.3-.67-1.3-.67.415-.738 1.247.791-.067-1.475h.845l-.067 1.475 1.233-.791.429.737-1.3.67 1.3.671-.43.724-1.232-.791.067 1.474h-.845zM12.383 16.67l.003 2.827q0 .357-.098.635c-.098.278-.16.343-.284.47s-.275.226-.454.292-.383.1-.611.1q-.322 0-.582-.1c-.26-.1-.32-.163-.443-.29s-.219-.284-.286-.47-.101-.4-.101-.637l.003-2.828h.823l.003 2.828q.003.412.15.624c.148.212.244.21.433.21q.302 0 .461-.21c.16-.21.161-.349.163-.624l.003-2.828zm3.334 3.152q0-.114-.04-.214c-.04-.1-.071-.129-.135-.186s-.146-.11-.249-.158-.23-.093-.382-.134q-.278-.076-.532-.19c-.254-.114-.317-.168-.446-.275s-.232-.233-.31-.375-.115-.307-.115-.493q0-.27.114-.489c.114-.219.182-.271.316-.375s.294-.183.478-.239.383-.083.598-.083q.333 0 .61.097c.278.097.344.154.477.27s.236.255.31.415.111.336.111.527h-.802q-.006-.143-.052-.263c-.046-.12-.075-.15-.134-.207s-.134-.102-.223-.135-.193-.048-.312-.048q-.165 0-.291.04a.5.5 0 0 0-.216.111.47.47 0 0 0-.179.382q0 .12.06.217c.06.097.099.123.175.174s.168.1.277.142.23.084.367.12q.293.086.54.209c.246.123.305.179.423.291s.21.24.275.384.098.303.098.479q0 .28-.112.5c-.112.22-.18.268-.312.369s-.292.176-.475.228-.384.078-.6.078q-.203 0-.404-.037c-.2-.037-.261-.062-.383-.113s-.236-.114-.342-.19-.196-.165-.274-.267-.137-.217-.181-.345-.066-.272-.066-.428h.808q.006.194.068.33c.062.137.098.168.171.226s.161.102.264.13a1.3 1.3 0 0 0 .63.002q.128-.037.215-.105c.087-.068.104-.1.135-.163s.047-.133.047-.21m4.371-.755h-1.752v1.204h2.048v.665H17.51V16.67h2.865v.671h-2.04v1.076h1.753zm2.782.275h-.623v1.594h-.824V16.67h1.43q.354 0 .642.084c.288.084.355.137.49.245s.24.24.314.4.11.347.11.558q0 .229-.055.411c-.055.182-.087.232-.155.328s-.148.181-.243.254-.2.134-.318.187l.917 1.761v.038h-.882zm-.623-.668h.609q.348 0 .538-.177c.19-.177.189-.28.189-.485q0-.32-.185-.496c-.185-.176-.305-.178-.545-.178h-.606zm5.949 2.262h-.82l-1.187-2.75v2.75h-.829V16.67h.83l1.177 2.74.003-2.74h.826zm3.246-.891h-1.28l-.252.891h-.868l1.398-4.266h.747l1.371 4.266h-.867zm-1.078-.7h.885l-.437-1.57zm3.952-2.674.404 1.602.46-1.603h1.023v4.266h-.756v-1.263l.035-1.995-.56 1.852h-.407l-.5-1.773.034 1.916v1.263h-.756V16.67zm5.574 2.396h-1.75v1.204h2.048v.665h-2.874V16.67h2.865v.671h-2.04v1.076h1.753z"/></svg>