<svg xmlns="http://www.w3.org/2000/svg" data-name="Layer 1" viewBox="0 0 50 50"><path fill="none" stroke="#000" stroke-miterlimit="10" d="M19.776 33.684c.767.952 2.021 1.391 3.108 1.391 1.518 0 2.592-1.002 2.592-2.216V17.142c0-1.22-.997-2.218-2.217-2.218h-.065a2.285 2.285 0 0 0-2.278 2.279v11.173a.06.06 0 0 1-.107.038L10.7 16.314c-.767-.95-2.023-1.39-3.109-1.39-1.517 0-2.589 1.005-2.589 2.218L5 32.859c0 1.219.997 2.217 2.216 2.217h.066a2.284 2.284 0 0 0 2.276-2.278V21.624c0-.055.072-.08.109-.038zm23.257-10.023H38.36a.054.054 0 0 1-.053-.055v-4.67a1.973 1.973 0 0 0-1.968-1.967 1.974 1.974 0 0 0-1.967 1.967v4.472a.254.254 0 0 1-.254.253h-4.67c-1.082 0-1.967.885-1.967 1.967s.885 1.967 1.966 1.967h4.872c.03 0 .053.025.053.054v4.672c0 1.082.886 1.967 1.967 1.967a1.973 1.973 0 0 0 1.968-1.967v-4.473c0-.14.113-.253.252-.253h4.473c1.082 0 1.967-.885 1.967-1.967s-.885-1.967-1.967-1.967"/></svg>