<svg xmlns="http://www.w3.org/2000/svg" data-name="Isolation Mode" viewBox="0 0 50 50"><path fill="none" stroke="#000" stroke-linecap="round" stroke-linejoin="round" d="m34 24.31-1.767-.492-.498 1.772m.517-1.748 3.223 5.809m-1.769-.491 1.769.49.497-1.77m-7.236 11.855 1.297-1.299-1.3-1.302m.877 1.346-9.643-.044m1.296-1.3-1.296 1.3 1.3 1.303"/><g fill="none" stroke="#000" stroke-linecap="round" stroke-linejoin="round"><path d="M26.199 13.53c.804-.59 1.35-1.747 1.35-3.077 0-1.932-1.151-2.662-2.572-2.662s-2.574.73-2.574 2.662c0 1.33.547 2.487 1.352 3.078"/><path d="m19.522 19.426.902-4.035c.111-.38.358-.705.694-.914 0 0 1.085-.683 2.636-.947.364.268.78.442 1.223.442.442 0 .858-.174 1.222-.442"/><path d="m30.43 19.426-.903-4.035a1.6 1.6 0 0 0-.693-.914s-1.086-.683-2.637-.947"/><circle cx="24.976" cy="14.064" r="10"/></g><g fill="none" stroke="#000" stroke-linecap="round" stroke-linejoin="round"><path d="M40.975 38.036c.604-.443 1.014-1.31 1.014-2.308 0-1.449-.864-1.997-1.93-1.997s-1.93.548-1.93 1.997c0 .997.41 1.865 1.014 2.308m-3.175 4.422.677-3.026c.083-.286.268-.53.52-.686 0 0 .814-.512 1.977-.71.273.2.585.331.917.331s.644-.13.916-.331"/><path d="m44.149 42.458-.677-3.026a1.2 1.2 0 0 0-.52-.686s-.814-.512-1.978-.71"/><circle cx="40.058" cy="38.436" r="7.5"/></g><path fill="none" stroke="#000" stroke-linecap="round" stroke-linejoin="round" d="m18.265 25.59-.498-1.772L16 24.31m-1.474 5.34 3.223-5.808m-3.72 4.037.497 1.772 1.769-.491"/><g fill="none" stroke="#000" stroke-linecap="round" stroke-linejoin="round"><path d="M9.025 38.036c-.604-.443-1.014-1.31-1.014-2.308 0-1.449.864-1.997 1.93-1.997s1.93.548 1.93 1.997c0 .997-.41 1.865-1.014 2.308m3.175 4.422-.677-3.026a1.2 1.2 0 0 0-.52-.686s-.814-.512-1.977-.71c-.273.2-.585.331-.917.331s-.644-.13-.916-.331"/><path d="m5.851 42.458.677-3.026c.083-.286.268-.53.52-.686 0 0 .814-.512 1.978-.71"/><circle cx="9.942" cy="38.436" r="7.5"/></g></svg>