<svg xmlns="http://www.w3.org/2000/svg" viewBox="0 0 50 50"><g fill="none" stroke="#000"><path stroke-linecap="round" stroke-linejoin="round" d="M30.94 31.368c2.05-1.98 1.783-4.854-.598-6.422m3.184 8.126c3.281-3.167 2.854-7.767-.955-10.274"/><path stroke-linecap="round" stroke-linejoin="round" d="M36.393 34.494c4.112-4.252 3.559-10.201-1.267-13.622"/><path stroke-miterlimit="10" d="M16.105 7.082c4.375 1.887 5.69 5.103 6.045 6.733.449 2.059.33 4.441.705 5.413.545 1.41 4.796 4.374 3.618 5.817-1.25 1.53-3.258 1.258-3.294 2.304s2.319 6.347-.612 7.352c-1.823.625-3.216-.108-4.583.26-1.424.383-.861 6.122-1.28 8.16"/></g><circle cx="25" cy="25" r="20" fill="none" stroke="#000" stroke-linecap="round" stroke-linejoin="round"/></svg>