<svg xmlns="http://www.w3.org/2000/svg" viewBox="0 0 50 50"><g fill="none" stroke="#000" stroke-linecap="round" stroke-linejoin="round"><path d="M10 5.094v40h30v-29l-11-11z"/><path d="M29 5.094v11h11"/></g><path fill="none" stroke="#000" stroke-linecap="round" stroke-linejoin="round" d="M10 31.094h5l1 3 3.085-8.944 3.971 13 3.124-8.892 1.836 4.894.984-3.058h3M30 28.094s1.39-1.225 2.248-2.256c.92-1.104.92-2.37.409-3.125s-1.948-1.022-2.657.456c-.796-1.478-2.146-1.226-2.657-.472s-.51 2.02.409 3.125C28.61 26.853 30 28.094 30 28.094"/><circle cx="33.5" cy="31.094" r="1.5" fill="none" stroke="#000" stroke-linecap="round" stroke-linejoin="round"/></svg>