<svg xmlns="http://www.w3.org/2000/svg" viewBox="0 0 50 50"><path fill="none" stroke="#000" stroke-linecap="round" stroke-linejoin="round" d="M24.614 3.96v4.033M7.762 11.141l2.852 2.852m30.852-2.852-2.852 2.852" data-name="Shape 20"/><path fill="none" stroke="#000" stroke-linecap="round" stroke-linejoin="round" d="M2.614 25.993h4" data-name="Shape 21"/><path fill="none" stroke="#000" stroke-linecap="round" stroke-linejoin="round" d="M46.614 24.993h-4" data-name="Shape 23"/><path fill="none" stroke="#000" stroke-linecap="round" stroke-linejoin="round" d="M30.986 38.054v4.8A3.186 3.186 0 0 1 27.8 46.04h-6.372a3.186 3.186 0 0 1-3.186-3.186v-4.8" data-name="Shape 19"/><path fill="none" stroke="#000" stroke-linecap="round" stroke-linejoin="round" d="M18.054 38.054h13.105a14 14 0 0 0 7.795-12.745c-.147-7.853-6.484-14.18-14.337-14.316-7.858.125-14.2 6.459-14.337 14.316a14.04 14.04 0 0 0 7.774 12.745" data-name="Shape 25"/><path d="M19.335 28.9v3.873h-2.654v-3.872zm.51-1H16.17c-.294 0-.49.185-.49.463v4.946c0 .278.196.463.49.463h3.674c.294 0 .49-.185.49-.463v-4.946c0-.278-.196-.463-.49-.463m6.066-5.152v10.025h-2.458V22.748zm.411-1h-3.28c-.393 0-.59.293-.59.683v10.66c0 .39.295.682.59.682h3.28c.393 0 .589-.292.589-.683V22.43c0-.487-.098-.682-.589-.682m6.359 4.806v6.22h-2.458v-6.22zm.51-1h-3.478c-.294 0-.49.293-.49.586v7.048c0 .293.196.585.49.585h3.477c.295 0 .49-.292.49-.585V26.14c0-.39-.195-.586-.49-.586"/><circle cx="17.892" cy="23.949" r="1.875" fill="none" stroke="#000" stroke-miterlimit="10"/><circle cx="24.707" cy="17.149" r="1.875" fill="none" stroke="#000" stroke-miterlimit="10" transform="rotate(-.097 24.707 17.149)"/><circle cx="31.452" cy="21.645" r="1.875" fill="none" stroke="#000" stroke-miterlimit="10"/><path fill="none" stroke="#000" stroke-miterlimit="10" d="m19.233 22.639 4.09-4.226M26.47 17.805l3.606 2.567"/><path fill="none" stroke="#000" stroke-linecap="round" stroke-linejoin="round" d="M30.986 41.679H18.242"/></svg>