<svg xmlns="http://www.w3.org/2000/svg" viewBox="0 0 50 50"><path fill="none" stroke="#231f20" stroke-linecap="round" stroke-linejoin="round" d="M25.737 20.556h17.499v17.503H25.737z"/><path fill="none" stroke="#231f20" stroke-linecap="round" stroke-linejoin="round" d="M40.726 20.557v-5a7.485 7.485 0 0 0-7.489-7.497 7.485 7.485 0 0 0-7.49 7.498v4.999M28.901 23.078v7.899M33.237 23.078v4.739M37.573 23.078v1.526"/><ellipse cx="28.901" cy="32.583" fill="none" stroke="#231f20" stroke-linecap="round" stroke-linejoin="round" rx="1.626" ry="1.607"/><ellipse cx="33.237" cy="29.424" fill="none" stroke="#231f20" stroke-linecap="round" stroke-linejoin="round" rx="1.626" ry="1.607"/><ellipse cx="37.572" cy="26.211" fill="none" stroke="#231f20" stroke-linecap="round" stroke-linejoin="round" rx="1.626" ry="1.607"/><path fill="none" stroke="#231f20" stroke-linecap="round" stroke-linejoin="round" d="M28.901 34.184v1.587M33.237 31.031v4.739M37.573 27.817v7.953M25.738 7.498v33.224M15.261 25.48a1.026 1.026 0 0 0 0 2.052q.038-.002.074-.007a1.022 1.022 0 0 0-.074-2.044m5.16-3.535c.091.473.506.831 1.006.831.025 0 .05-.006.073-.007a1.024 1.024 0 0 0-.073-2.044 1.026 1.026 0 0 0-1.006 1.22m-7.234-2.998c.025 0 .049-.006.073-.007a1.024 1.024 0 0 0-.073-2.044 1.026 1.026 0 1 0 0 2.05m8.731-8.215a1.026 1.026 0 1 0-1.026 1.026c.026 0 .049-.006.074-.008.53-.038.952-.477.952-1.018m-.235 19.895c.025 0 .049-.006.074-.007a1.023 1.023 0 0 0-.074-2.044 1.026 1.026 0 1 0 0 2.051m-8.467 5.241c0 .566.459 1.026 1.026 1.026.025 0 .048-.006.073-.008.532-.038.952-.477.952-1.018a1.026 1.026 0 1 0-2.051 0m5.924 4.206c0 .567.458 1.026 1.025 1.026.025 0 .048-.006.073-.008.532-.038.952-.477.952-1.018a1.026 1.026 0 1 0-2.05 0"/><path fill="none" stroke="#231f20" stroke-linecap="round" stroke-linejoin="round" d="M18.518 18.864c.25-1.677-.533-3.344-2.036-4.338-1.596-1.005-3.749-1.004-5.906 0-2.882 1.346-1.898 5.69-1.89 5.734a.4.4 0 0 1-.063.32c-.024.033-2.224 3.255-1.053 5.763.656 1.403 2.266 2.354 4.786 2.825"/><path fill="none" stroke="#231f20" stroke-linecap="round" stroke-linejoin="round" d="M20.093 10.045c-1.529-1.25-3.165-2.69-4.76-2.044-1.393.564-2.518 3.196-1.786 5.776M25.738 40.722V7.498"/><path fill="none" stroke="#231f20" stroke-linecap="round" stroke-linejoin="round" d="M8.364 27.433c-1.533 1.225-1.886 3.099-1.391 4.366.56 1.705 1.949 2.916 2.657 3 .259.03.443.248.409.485q-.004.026-.011.05c-.472 1.68.004 3.462 1.268 4.757.726.884 1.844 1.43 3.054 1.494.233-.024.45.11.51.317.728 2.167 3.149 3.47 5.582 3.004 5.105-.594 5.293-4.08 5.296-4.184M16.613 7.886c2.961-2.767 6.272-3.305 7.842-2.613.872.446 1.28 1.442 1.283 2.225M13.506 18.892l2.03 3.775M20.397 21.934l-4.861.734M15.536 22.668l-.181 2.788M18.564 36.742l1.13 2.421"/><path fill="none" stroke="#231f20" stroke-linecap="round" stroke-linejoin="round" d="m20.719 30-3.277 1.646 1.123 5.096M18.564 36.742l-3.317-.673"/></svg>