<svg xmlns="http://www.w3.org/2000/svg" viewBox="0 0 50 50"><g fill="none" stroke="#000" stroke-linecap="round" stroke-linejoin="round"><path d="M23.597 19.268c2.36-1.727 3.963-5.106 3.963-8.993 0-5.644-3.38-7.778-7.548-7.778-4.17 0-7.55 2.134-7.55 7.778 0 3.887 1.605 7.267 3.966 8.994"/><path d="m4.009 36.497 2.647-11.79a4.7 4.7 0 0 1 2.036-2.674s3.184-1.993 7.734-2.765c1.067.781 2.288 1.292 3.586 1.292 1.297 0 2.518-.51 3.585-1.292"/><path d="M28.039 20.482a24 24 0 0 0-4.447-1.214"/></g><g fill="none" stroke="#000" stroke-linecap="round" stroke-linejoin="round"><g data-name="Group 13221"><path d="m27.965 40.529 11.052-11.052" data-name="Line 154"/><path d="M39.017 37.766v-8.29h-8.289" data-name="Path 60447"/></g><circle cx="33.491" cy="35.003" r="12.5"/></g></svg>