<svg xmlns="http://www.w3.org/2000/svg" data-name="Isolation Mode" viewBox="0 0 50 50"><g fill="none" stroke="#000" stroke-linecap="round" stroke-linejoin="round"><path d="M24.547 19.018c2.36-1.727 3.964-5.106 3.964-8.993 0-5.644-3.38-7.778-7.55-7.778-4.168 0-7.548 2.134-7.548 7.778 0 3.887 1.604 7.267 3.965 8.994"/><path d="m4.96 36.247 2.647-11.79a4.7 4.7 0 0 1 2.035-2.674s3.184-1.993 7.734-2.765c1.067.781 2.288 1.292 3.586 1.292s2.518-.51 3.585-1.292"/><path d="M28.989 20.232a24 24 0 0 0-4.447-1.214"/></g><path fill="none" stroke="#000" stroke-linecap="round" stroke-linejoin="round" d="M41.44 47.525a5.11 5.11 0 0 0 3.6-4.884V28.865a5.11 5.11 0 0 0-5.111-5.112H26.153a5.11 5.11 0 0 0-5.112 5.112V42.64a5.11 5.11 0 0 0 5.112 5.112h13.776a5.1 5.1 0 0 0 1.512-.228"/><path d="M28.963 37.783q-.044-.088-.072-.207a3 3 0 0 1-.05-.255 1.8 1.8 0 0 1-.921.506q-.195.044-.42.044a2 2 0 0 1-.684-.108 1.6 1.6 0 0 1-.522-.299 1.33 1.33 0 0 1-.455-1.013q0-.765.57-1.169.568-.405 1.632-.404h.769v-.312q0-.378-.255-.6c-.255-.222-.41-.222-.721-.222q-.21 0-.37.05-.158.051-.263.14c-.105.088-.123.127-.158.206s-.053.164-.053.255h-1.05a1.2 1.2 0 0 1 .13-.539q.13-.261.38-.466.25-.204.613-.327t.828-.123q.422 0 .782.103c.36.103.449.171.624.308q.264.204.413.51c.15.306.15.441.15.714v2.118q0 .311.046.57.045.255.134.445v.075zm-1.265-.76a1.4 1.4 0 0 0 .7-.183 1.1 1.1 0 0 0 .412-.402v-.892h-.668q-.642 0-.948.206c-.306.206-.305.334-.305.59q0 .144.048.27a.55.55 0 0 0 .148.215q.099.09.25.143.152.052.363.052m7.422-1.568q0 .518-.123.962c-.123.444-.202.551-.36.767a1.7 1.7 0 0 1-.582.505q-.345.183-.794.183-.404 0-.714-.132a1.5 1.5 0 0 1-.534-.378v2.25h-1.05v-6.583h.967l.044.479q.228-.272.543-.42.314-.147.731-.147.454 0 .802.176.35.176.587.494.237.32.36.765.123.446.123.986zm-1.05-.093q0-.32-.066-.604a1.6 1.6 0 0 0-.202-.497q-.137-.212-.347-.336c-.21-.124-.308-.123-.501-.123q-.352 0-.58.15a.85.85 0 0 0-.36.4v2.127q.13.246.357.4c.227.153.348.153.591.153a.95.95 0 0 0 .847-.47q.132-.216.197-.5c.065-.285.064-.394.064-.607zm6.103.093q0 .518-.123.962c-.123.444-.202.551-.36.767a1.7 1.7 0 0 1-.583.505q-.345.183-.793.183-.404 0-.714-.132a1.5 1.5 0 0 1-.534-.378v2.25h-1.05v-6.583h.966l.044.479q.229-.272.543-.42t.732-.147q.453 0 .802.176t.586.494q.239.32.36.765.124.446.124.986zm-1.05-.093q0-.32-.066-.604a1.6 1.6 0 0 0-.203-.497q-.135-.212-.347-.336c-.212-.124-.307-.123-.5-.123q-.352 0-.58.15a.85.85 0 0 0-.361.4v2.127q.132.246.358.4c.226.153.348.153.591.153a.95.95 0 0 0 .846-.47q.134-.216.198-.5c.064-.285.064-.394.064-.607z"/></svg>