<svg xmlns="http://www.w3.org/2000/svg" data-name="Isolation Mode" viewBox="0 0 50 50"><circle cx="29" cy="26" r="4" fill="none" stroke="#000" stroke-linecap="round" stroke-linejoin="round"/><circle cx="20" cy="26" r="2" fill="none" stroke="#000" stroke-linecap="round" stroke-linejoin="round"/><path fill="none" stroke="#000" stroke-linecap="round" stroke-linejoin="round" d="M22 26h3M33 26h6M36 23l3 3-3 3M30 22l2.632-5.487M28.616 17.881l4.016-1.368L34 20.53M30 30l2.632 5.487M28.616 34.119l4.016 1.368L34 31.47"/><path fill="none" stroke="#000" stroke-linecap="round" stroke-linejoin="round" d="M9.318 39C5.828 39 3 36.203 3 32.753c0-3.441 2.814-6.231 6.291-6.246q0 0 0 0c0-5.13 4.205-9.287 9.391-9.287 1.38 0 2.69.297 3.87.826C24.116 13.93 28.13 11 32.839 11c6.065 0 10.982 4.862 10.982 10.86 0 .978-.133 1.926-.378 2.828C45.584 26.082 47 28.478 47 31.202 47 35.51 43.47 39 39.114 39z"/></svg>