<svg xmlns="http://www.w3.org/2000/svg" viewBox="0 0 50 50"><path fill="none" stroke="#000" stroke-linecap="round" stroke-linejoin="round" d="m36.673 43.094-8.342-8.485-3.793-5.356c-4.218-1.707-5.403-3.982-5.403-3.982l2.37-2.37-7.016-6.968s-.853-.474-3.697-1.564L7 9.059l1.966-1.965 5.309 3.792c1.09 2.844 1.564 3.697 1.564 3.697l6.968 7.015 2.37-2.37s2.275 1.185 3.982 5.404l5.356 3.792L43 36.767zM17.389 27.026l-9.253 9.302A3.9 3.9 0 0 0 7 39.087 3.91 3.91 0 0 0 10.908 43a3.9 3.9 0 0 0 2.76-1.142l9.722-9.787m8.33-8.399 1.654-1.664a7.546 7.546 0 0 0 9.519-7.478l-5.4 2.85-.107.045-3.296-2.11.265-3.779 5.49-2.898A7.5 7.5 0 0 0 37.919 7.6c-3.922-1.422-8.252.61-9.671 4.538a7.53 7.53 0 0 0-.268 4.202l-1.12 1.155"/><circle cx="11.493" cy="38.567" r="1.525" fill="none" stroke="#000" stroke-linecap="round" stroke-linejoin="round"/></svg>