<svg xmlns="http://www.w3.org/2000/svg" viewBox="0 0 50 50"><path fill="none" stroke="#000" stroke-miterlimit="10" d="m35.443 12.936-20.886.768a4.43 4.43 0 0 1-2.302 4.057l8.517 15.573a4.43 4.43 0 0 1 4.657.251l11.917-17.17a4.41 4.41 0 0 1-1.903-3.48Z"/><path fill="none" stroke="#000" stroke-linecap="round" stroke-linejoin="round" d="M14.557 13.704a4.4 4.4 0 0 0-.537-1.966 4.437 4.437 0 1 0-1.765 6.023"/><path fill="none" stroke="#000" stroke-linecap="round" stroke-linejoin="round" d="M12.255 17.76a4.43 4.43 0 0 0 2.302-4.056M25.43 33.585a4.43 4.43 0 0 0-4.658-.25"/><path fill="none" stroke="#000" stroke-linecap="round" stroke-linejoin="round" d="M20.772 33.334a4.437 4.437 0 1 0 6.022 1.764 4.4 4.4 0 0 0-1.365-1.513m11.917-17.17a4.43 4.43 0 0 0 4.657.25 4.438 4.438 0 0 0-4.258-7.786 4.43 4.43 0 0 0-2.302 4.057"/><path fill="none" stroke="#000" stroke-linecap="round" stroke-linejoin="round" d="M35.443 12.936a4.41 4.41 0 0 0 1.903 3.479"/></svg>