<svg xmlns="http://www.w3.org/2000/svg" viewBox="0 0 50 50"><path fill="none" stroke="#000" stroke-miterlimit="10" d="M19.401 33.575c.24 0 .468-.05.682-.127a1.995 1.995 0 0 0 1.318-1.873c0-.383-.113-.737-.3-1.041a1.99 1.99 0 0 0-1.7-.959c-.173 0-.339.029-.5.07-.86.224-1.5.999-1.5 1.93 0 .456.16.872.416 1.208a1.99 1.99 0 0 0 1.584.792Z"/><path fill="none" stroke="#000" stroke-miterlimit="10" d="M20.083 33.448a2 2 0 0 1-.682.127 1.99 1.99 0 0 1-1.584-.792 20.3 20.3 0 0 0-3.83 4.284 21 21 0 0 0 2.205 1.854c6.371 4.647 8.783 6.329 8.783 6.329s.872-.596 2.898-2.041a22.47 22.47 0 0 1-7.79-9.761Zm9.32-5.305c.007.069.02.135.02.206 0 .684-.344 1.287-.868 1.648a21.46 21.46 0 0 1 3.293 10.35l1.96-1.426c3.994-2.914 5.7-6.108 6.434-8.441a20 20 0 0 0-9.497-2.404c-.453 0-.896.038-1.342.067ZM28.462 6.23l4.164 3.197.678.008c.676-.025.679-.054 1.359-.088 3.84-.19 6.837-1.28 6.837 3.981 0 1.238-.04 2.657-.1 4.102m-18.724-1.942c.238-.33.382-.73.382-1.167 0-.729-.394-1.36-.976-1.71-.3-.18-.648-.29-1.024-.29-.59 0-1.115.26-1.482.667a2 2 0 0 0-.518 1.333c0 .794.466 1.473 1.136 1.796.262.127.553.204.864.204a1.99 1.99 0 0 0 1.618-.833Zm-1.574 15.046a20 20 0 0 1 4.376-1.738 2 2 0 0 1-.054-.447c0-.607.275-1.143.701-1.51a21.6 21.6 0 0 0-5.694-4.406 1.99 1.99 0 0 1-1.795 1.133c-.066 0-.128-.014-.193-.02-.027.454-.046.91-.046 1.371 0 1.623.177 3.204.505 4.729a2 2 0 0 1 .5-.071c.721 0 1.348.386 1.7.959Z"/><path fill="none" stroke="#000" stroke-miterlimit="10" d="M20.431 22.433a2 2 0 0 0 .205-.867 2 2 0 0 0-2-2c-.866 0-1.597.554-1.875 1.325a2 2 0 0 0-.125.675c0 1.038.794 1.882 1.807 1.98.065.006.127.02.193.02.793 0 1.471-.465 1.795-1.133Zm5.047 6.363a1.998 1.998 0 0 0 3.946-.447c0-.07-.014-.137-.02-.206a1.993 1.993 0 0 0-1.98-1.794c-.498 0-.948.189-1.299.49a1.99 1.99 0 0 0-.701 1.51c0 .154.021.302.054.447Zm2.395 14.413a206 206 0 0 1-2.898 2.041s-2.412-1.682-8.783-6.33a21 21 0 0 1-2.204-1.853m7.07-24.746c.376 0 .724.11 1.024.29a22.5 22.5 0 0 1 6.38-6.382l-.696-.534c-1.605-1.232-3.538-1.261-5.161-.077l-5.234 3.817-.683-.03a20.6 20.6 0 0 0 2.888 3.583 2 2 0 0 1 1.482-.667ZM40.242 30.48c-.733 2.333-2.44 5.527-6.434 8.44-.703.513-1.35.984-1.96 1.426"/><path fill="none" stroke="#000" stroke-miterlimit="10" d="M16.761 20.89a1.994 1.994 0 0 1 2.275-1.284c.293-1.203.68-2.37 1.158-3.489a2 2 0 0 1-1.136-1.796c0-.514.2-.978.518-1.333a20.6 20.6 0 0 1-2.888-3.583q-.675-.025-1.35-.058c-3.842-.19-6.838-1.28-6.838 3.981 0 1.97.1 4.396.225 6.662.527-.039 1.053-.08 1.59-.08 2.246 0 4.41.344 6.446.98Zm-2.773 16.177c-5.1-4.91-4.776-9.947-4.776-9.947s-.279-3.34-.487-7.13"/><path fill="none" stroke="#000" stroke-miterlimit="10" d="M13.988 37.067a20.3 20.3 0 0 1 3.83-4.284 1.98 1.98 0 0 1-.417-1.208c0-.931.64-1.706 1.5-1.93a22.5 22.5 0 0 1-.504-4.728c0-.46.019-.917.046-1.37a1.993 1.993 0 0 1-1.807-1.981c0-.238.049-.464.125-.675a21.6 21.6 0 0 0-6.446-.982c-.537 0-1.063.042-1.59.08.208 3.79.487 7.13.487 7.13s-.323 5.038 4.776 9.948Zm8.688-21.579a1.99 1.99 0 0 1-1.618.833 2 2 0 0 1-.864-.204 22 22 0 0 0-1.158 3.489 2 2 0 0 1 1.6 1.96c0 .312-.077.603-.205.867a21.6 21.6 0 0 1 5.694 4.406c.35-.301.8-.49 1.299-.49 1.034 0 1.875.788 1.98 1.794.445-.029.888-.067 1.34-.067 3.442 0 6.669.88 9.498 2.404.627-1.994.546-3.36.546-3.36s.416-4.99.612-9.69a20.4 20.4 0 0 1-7.496 1.423 20.36 20.36 0 0 1-11.228-3.365Z"/><path fill="none" stroke="#000" stroke-miterlimit="10" d="M41.4 17.43c-.196 4.7-.612 9.69-.612 9.69s.081 1.366-.546 3.36m-8.394 9.866a627 627 0 0 1-3.975 2.863"/><path fill="none" stroke="#000" stroke-miterlimit="10" d="M27.424 30.349a2 2 0 0 1-1.946-1.553 20 20 0 0 0-4.376 1.738c.186.304.3.658.3 1.041 0 .864-.552 1.593-1.32 1.873a22.47 22.47 0 0 0 7.79 9.76c1.02-.726 2.33-1.668 3.976-2.862a21.46 21.46 0 0 0-3.293-10.35 2 2 0 0 1-1.131.353Z"/></svg>