<svg xmlns="http://www.w3.org/2000/svg" viewBox="0 0 50 50"><g fill="none" stroke="#000" stroke-linejoin="bevel"><path d="M31.745 28.681c1.693 0 2.13 1.944 2.13 3.01 0 1.07-.437 3.02-2.13 3.02-1.701 0-2.141-1.95-2.141-3.02 0-1.066.44-3.01 2.14-3.01ZM36.356 35v-6.319l-.426.456-1.04 1.055M20.51 28.681c1.693 0 2.131 1.944 2.131 3.01 0 1.07-.438 3.02-2.131 3.02-1.701 0-2.141-1.95-2.141-3.02 0-1.066.44-3.01 2.14-3.01ZM25.122 35v-6.319l-.427.456-1.04 1.055M17.775 21c1.694 0 2.132 1.944 2.132 3.01 0 1.069-.438 3.019-2.132 3.019-1.7 0-2.14-1.95-2.14-3.02 0-1.065.44-3.009 2.14-3.009ZM22.387 27.319V21l-.426.456-1.04 1.055M26.36 21c1.693 0 2.13 1.944 2.13 3.01 0 1.069-.437 3.019-2.13 3.019-1.702 0-2.142-1.95-2.142-3.02 0-1.065.44-3.009 2.141-3.009Zm8.57 0c1.693 0 2.13 1.944 2.13 3.01 0 1.069-.437 3.019-2.13 3.019-1.701 0-2.142-1.95-2.142-3.02 0-1.065.44-3.009 2.141-3.009ZM30.97 27.319V21l-.426.456-1.04 1.055M27.77 35v-6.319l-.427.456-1.04 1.055M16.527 35v-6.319l-.426.456-1.04 1.055"/></g><path fill="none" stroke="#000" stroke-linecap="round" stroke-linejoin="round" d="M9.379 39c-3.49 0-6.318-2.797-6.318-6.247 0-3.441 2.814-6.231 6.29-6.246q0 0 0 0c0-5.13 4.205-9.287 9.392-9.287 1.38 0 2.69.297 3.87.826C24.176 13.93 28.19 11 32.899 11c6.066 0 10.983 4.862 10.983 10.86 0 .978-.133 1.926-.378 2.828 2.142 1.394 3.558 3.79 3.558 6.514C47.06 35.51 43.53 39 39.175 39z"/></svg>