<svg xmlns="http://www.w3.org/2000/svg" viewBox="0 0 50 50"><path fill="none" stroke="#000" stroke-linecap="round" stroke-linejoin="round" d="M34.535 9.54q-1.006.05-2.006.087l-.003-.008-4.796-3.685c-1.584-1.217-3.491-1.246-5.093-.077l-5.166 3.77q-1-.037-2.006-.086c-3.79-.189-6.747-1.264-6.747 3.932s.703 13.62.703 13.62-.422 6.32 6.887 11.656C22.596 43.339 24.976 45 24.976 45h0s2.428-1.661 8.716-6.251c7.309-5.336 6.887-11.655 6.887-11.655s.703-8.426.703-13.621-2.957-4.12-6.747-3.932"/><g fill="none" stroke="#000" stroke-linecap="round" stroke-linejoin="round"><path stroke-width=".999" d="M30.366 18.695h.002l-6.98 10.557-3.756-4.985"/><path d="m36.007 31.084-3.629.052-.068-3.623M13.993 16.924l3.62-.06.068 3.623"/><path d="M31.093 32.263c-3.948 2.914-9.548 2.631-13.206-.905-4.078-3.94-4.202-10.43-.275-14.494m1.287-1.127c3.948-2.914 9.547-2.631 13.206.905 4.078 3.94 4.2 10.43.275 14.494"/></g></svg>