<svg xmlns="http://www.w3.org/2000/svg" viewBox="0 0 50 50"><g fill="none" stroke="#000" stroke-linecap="round" stroke-linejoin="round"><path d="M12.092 23.121 5.098 26.27l5.97 3.283M38.931 29.552l5.971-3.283-6.994-3.148"/><path d="m17.04 32.836-5.971-3.284-5.971 2.687 5.97 3.284M38.931 35.523l5.971-3.284-5.97-2.687-5.971 3.284M38.931 35.523 25 43.185l-13.931-7.662"/><path d="M17.04 32.836 25 37.215l7.96-4.379"/></g><rect width="21.117" height="21.117" x="14.442" y="7.205" fill="none" stroke="#000" stroke-linecap="round" stroke-linejoin="round" rx="4.498" ry="4.498"/><path d="M21.264 19.584a1 1 0 0 1-.07-.189 3 3 0 0 1-.05-.228 1.5 1.5 0 0 1-.492.354q-.151.068-.332.106-.182.04-.392.04-.342 0-.63-.1a1.5 1.5 0 0 1-.492-.275 1.25 1.25 0 0 1-.437-.958q0-.705.526-1.09t1.569-.386h.64v-.264a.65.65 0 0 0-.21-.51q-.211-.187-.607-.187-.351 0-.512.15a.53.53 0 0 0-.16.403h-1.147q0-.285.126-.54.125-.256.366-.45.242-.195.59-.307c.348-.112.499-.113.799-.113q.404 0 .752.098.348.1.605.293c.257.193.303.292.4.49q.144.294.144.681v1.914q0 .36.045.594.046.236.132.404v.07zm-1.093-.804a1.2 1.2 0 0 0 .59-.149 1 1 0 0 0 .206-.15.8.8 0 0 0 .137-.17v-.769h-.586a1.8 1.8 0 0 0-.458.052q-.19.052-.31.145c-.12.093-.138.136-.177.222s-.057.181-.057.283q0 .231.162.383.164.153.493.153m7.076-1.386q0 .488-.113.903a2.2 2.2 0 0 1-.334.72q-.222.303-.547.477a1.6 1.6 0 0 1-.746.173q-.36 0-.632-.124a1.45 1.45 0 0 1-.474-.346V21.3h-1.146v-6.178h1.06l.041.437q.207-.248.487-.384c.28-.136.405-.135.656-.135q.424-.001.75.163.325.162.549.462.222.298.336.717.113.418.113.926zm-1.146-.086a2.5 2.5 0 0 0-.052-.526 1.4 1.4 0 0 0-.16-.425.8.8 0 0 0-.281-.282.8.8 0 0 0-.415-.104q-.3 0-.493.118a.8.8 0 0 0-.299.332v1.865q.108.21.3.336a.9.9 0 0 0 .5.126q.244 0 .415-.108a.8.8 0 0 0 .279-.293q.106-.186.156-.43.05-.247.05-.523zm5.947.086q0 .488-.113.903a2.2 2.2 0 0 1-.334.72q-.221.303-.546.477a1.6 1.6 0 0 1-.747.173q-.36 0-.631-.124a1.45 1.45 0 0 1-.474-.346V21.3h-1.147v-6.178h1.06l.041.437q.207-.248.487-.384c.28-.136.405-.135.656-.135q.424-.001.75.163.326.162.55.462.222.298.335.717.114.418.113.926zm-1.146-.086a2.5 2.5 0 0 0-.052-.526 1.4 1.4 0 0 0-.16-.425.8.8 0 0 0-.28-.282.8.8 0 0 0-.415-.104q-.302 0-.494.118a.8.8 0 0 0-.298.332v1.865q.106.21.298.336a.9.9 0 0 0 .502.126q.243 0 .414-.108a.8.8 0 0 0 .279-.293q.106-.186.157-.43.048-.247.049-.523z"/></svg>