<svg xmlns="http://www.w3.org/2000/svg" viewBox="0 0 50 50"><g fill="none" stroke="#000" stroke-linecap="round" stroke-linejoin="round"><path d="m46.478 38.822-7.07.11-.134-7.071M3.522 11.194l7.07-.109.134 7.07"/><path d="M36.889 41.123c-7.704 5.686-18.63 5.134-25.769-1.765-7.957-7.69-8.197-20.351-.536-28.281m2.511-2.2c7.704-5.686 18.629-5.134 25.768 1.765 7.957 7.69 8.197 20.351.536 28.281"/></g><g fill="none" stroke="#000" stroke-linecap="round" stroke-linejoin="round"><path d="M25 20.63v5.747l-5-2.886v-5.642l5-2.887 5 2.887v5.642l-5 2.886"/><path d="m30 17.85-4.659 2.689a.68.68 0 0 1-.682 0L20 17.849M30 29.158v5.88l-5-2.962v-5.699l5-2.886 5 2.886-.064 5.738L30 35.038"/><path d="m35 26.377-4.659 2.69a.68.68 0 0 1-.682 0L25 26.377M20 29.158v5.88l-5-2.962v-5.699l5-2.886 5 2.886v5.7l-5 2.96"/><path d="m25 26.377-4.659 2.69a.68.68 0 0 1-.682 0L15 26.377"/></g></svg>