<svg xmlns="http://www.w3.org/2000/svg" data-name="Isolation Mode" viewBox="0 0 50 50"><g fill="none" stroke="#231f20"><path stroke-linecap="round" stroke-linejoin="round" d="M20.664 40.73C24.93 43.828 26.61 45 26.61 45h0s2.428-1.661 8.716-6.251c7.309-5.336 6.887-11.655 6.887-11.655s.703-8.426.703-13.621-2.956-4.12-6.747-3.932m0-.001q-1.006.05-2.006.087l-.003-.008-4.796-3.685c-1.584-1.217-3.491-1.246-5.093-.077l-5.165 3.77q-1-.037-2.007-.086c-3.79-.189-6.747-1.264-6.747 3.932s.703 13.62.703 13.62-.024.357.038.973"/><path stroke-linecap="round" stroke-linejoin="round" d="M32.004 18.692h.001l-6.983 10.564-3.76-4.989"/><path stroke-miterlimit="10" d="M16.893 27.205a10.5 10.5 0 0 1-.515-3.231c0-5.665 4.592-10.257 10.256-10.257S36.89 18.31 36.89 23.974 32.3 34.23 26.634 34.23c-1.298 0-2.54-.241-3.683-.681"/></g><g fill="none" stroke-linecap="round" stroke-linejoin="round"><circle cx="15.084" cy="35" r="8" stroke="#231f20"/><g stroke="#000" stroke-width=".75"><path d="M12.834 32.758 9.084 35l3.75 2.242M17.334 37.242 21.084 35l-3.75-2.242M15.834 32.758l-1.5 4.484"/></g></g></svg>