<svg xmlns="http://www.w3.org/2000/svg" viewBox="0 0 50 50"><path fill="#231f20" d="m21.98 26.33.01-.01c-.62 0-1.109.473-1.167 1.07l-2.153 1.08c-.24.12-.37.38-.31.64l.619 2.812-1.254-.256a1.17 1.17 0 0 0-1.105-.816v-.01c-.66 0-1.19.53-1.19 1.19s.53 1.19 1.19 1.19h.08c.332-.021.615-.183.815-.42l1.828.374.585 1.246a1.16 1.16 0 0 0-.218.65c0 .66.53 1.19 1.19 1.19h.08c.62-.04 1.1-.55 1.1-1.18 0-.637-.497-1.141-1.115-1.177l-.692-1.477-.683-3.116 1.717-.863c.195.142.423.243.683.243h.08c.62-.04 1.1-.55 1.1-1.18s-.53-1.18-1.19-1.18m-5.122-2.138a1.182 1.182 0 0 0 .492 2.258h.08c.62-.05 1.1-.55 1.1-1.18 0-.403-.21-.74-.515-.955L18.1 23l2.79-.422c.2.232.484.384.81.411h.09c.65 0 1.18-.53 1.18-1.19s-.53-1.19-1.18-1.19v.01c-.527 0-.957.344-1.115.816l-2.814.425-1.104-2.05a1.17 1.17 0 0 0 .273-.741c0-.63-.53-1.18-1.19-1.18l.01-.01c-.66 0-1.19.53-1.19 1.18 0 .584.436 1.058 1.003 1.152l1.296 2.408zm4.932-2.412v.03h-.03s.01-.03.03-.03M27.94 23h.08c.365 0 .678-.171.896-.427L31.75 23l.084 1.307c-.31.215-.524.555-.524.962 0 .66.49 1.13 1.1 1.18h.08c.66 0 1.19-.53 1.19-1.18a1.19 1.19 0 0 0-.687-1.07l-.103-1.59 1.298-2.41c.561-.097.992-.56.992-1.15 0-.66-.53-1.18-1.19-1.18l.01.01c-.66 0-1.19.53-1.19 1.18 0 .295.11.548.278.749l-1.104 2.051-2.85-.43a1.17 1.17 0 0 0-1.114-.8l.01.01c-.66 0-1.19.53-1.19 1.18s.49 1.13 1.1 1.18m4.54 2.27c0-.013.011-.016.02-.02v.02zM34 19.03v.03h-.03s.01-.03.03-.03m-5.97 2.77v.03H28s.01-.03.03-.03m5.2 9.03v.01c-.522 0-.952.348-1.107.824l-1.254.256.621-2.82a.584.584 0 0 0-.31-.64l-2.163-1.086a1.167 1.167 0 0 0-1.167-1.064l.01.01c-.66 0-1.19.53-1.19 1.18s.49 1.13 1.1 1.18h.08c.263 0 .493-.101.69-.245l1.72.865-.687 3.135-.683 1.457a1.18 1.18 0 0 0-1.12 1.178c0 .66.48 1.13 1.1 1.18h.08c.66 0 1.19-.53 1.19-1.19 0-.244-.09-.457-.215-.646l.583-1.243 1.827-.373c.2.232.483.385.815.412h.08c.66 0 1.19-.53 1.19-1.19s-.53-1.19-1.19-1.19m-5.37-3.32h-.03s.01-.03.03-.03zm1.09 7.56h-.03s.01-.03.03-.03zm4.28-3.04h-.03s.01-.03.03-.03z"/><path fill="#231f20" d="M36.48 30.758V6.44a.58.58 0 0 0-1.16 0v9.342a6 6 0 0 0-.901-.215c.269-1.928-.62-3.74-1.759-4.207a2.2 2.2 0 0 0-.962-.146C29.47 9.246 26.976 8.799 25.58 9.41a2.1 2.1 0 0 0-.658.554c-.185-.224-.4-.43-.682-.574-1.364-.59-3.85-.145-6.076 1.813a2.15 2.15 0 0 0-.984.147c-1.14.467-2.028 2.279-1.759 4.207-.334.053-.67.13-1.011.247V6.44a.58.58 0 0 0-1.16 0v24.706c-.002.008-.008.015-.01.024l-.001.02-.119-.06a.58.58 0 0 0-.53 1.03c.13.06.26.13.41.2a.6.6 0 0 0 .23.055v.145c-.007.374-.016.75.02 1.12v9.87c0 .32.26.58.58.58v.01c.32 0 .58-.26.58-.58v-7.734c.57.505 1.3.831 2.15.904.59 1.52 2.12 2.49 3.79 2.49l-.01-.01c.27 0 .54-.03.81-.08 2.121-.247 3.205-1.15 3.76-1.987.545.837 1.619 1.74 3.74 1.987.28.05.56.08.83.08l-.01.02c1.68 0 3.21-.97 3.8-2.48.72-.057 1.417-.36 2.05-.861v7.661a.58.58 0 0 0 1.16 0V32.184l.09-.074c.2-.11.35-.2.58-.42s.24-.59.02-.82a.57.57 0 0 0-.69-.112M20.97 37.99c-1.47.28-2.95-.5-3.37-1.77-.12-.41-.53-.68-.89-.64-.71-.04-1.36-.36-1.82-.91-.32-.32-.437-.676-.48-1.12v-5.368q.34.087.71.158a.58.58 0 0 0 .68-.46.58.58 0 0 0-.46-.68c-.22-.04-.44-.09-.64-.14a.6.6 0 0 0-.29.006V17.048c1.301-.55 2.577-.538 3.5.042.9.6 1.37 1.58 1.22 2.57-.04.32.17.61.49.66h.09l-.01-.01c.28 0 .53-.2.57-.49.22-1.44-.44-2.86-1.73-3.71-.578-.363-1.242-.56-1.95-.609-.25-1.465.388-2.824 1.03-3.081.77-.306 1.735.47 2.664 1.23-.014.074-.044.142-.044.22 0 .66.53 1.19 1.18 1.19h.09a1.186 1.186 0 0 0-.09-2.37v-.01a1.2 1.2 0 0 0-.404.082c-.496-.405-1.02-.824-1.57-1.13 1.784-1.338 3.544-1.528 4.294-1.202.387.203.592.677.605 1.061 0 .012-.005.027-.005.039v23.94c-.002.014-.01.026-.01.04-.01.09-.15 2.11-3.36 2.48m12.25-2.4c-.45-.04-.86.22-.98.62-.43 1.28-1.91 2.06-3.42 1.78-3.17-.37-3.32-2.39-3.32-2.46V11.58c.002-.018.01-.032.01-.05 0-.012-.005-.027-.005-.04.013-.383.217-.856.575-1.04.785-.344 2.543-.155 4.326 1.184-.545.302-1.066.717-1.56 1.12a1.2 1.2 0 0 0-.416-.084v.01c-.66 0-1.19.53-1.19 1.19s.49 1.13 1.1 1.18h.09c.65 0 1.18-.53 1.18-1.19 0-.074-.029-.139-.042-.21.935-.766 1.895-1.525 2.652-1.22.642.257 1.281 1.617 1.03 3.083-.71.05-1.378.25-1.96.617-1.27.84-1.93 2.26-1.72 3.7.04.28.29.49.57.49l-.02.01h.09c.32-.05.54-.34.49-.66-.14-.99.32-1.97 1.21-2.56.916-.573 2.14-.6 3.41-.097v9.417a.6.6 0 0 0-.2.01c-.2.05-.42.1-.64.14-.31.06-.52.37-.46.68.05.28.3.47.57.47.04 0 .07-.01.11-.01q.321-.064.62-.138v4.288c-.02.47-.01.88 0 1.24v.654c-.02.396-.1.657-.36.916-.39.39-1.03.87-1.74.91m-4.79-21.75v.03h-.03s.01-.03.03-.03m9.73 5.79c-.01.21-.04.41-.08.57v.1c-.01.04-.05.21-.09.4a.587.587 0 0 0 .57.69v.01c.27 0 .52-.19.57-.47.03-.17.07-.32.09-.41l.02-.14c.03-.19.06-.42.08-.67.02-.32-.22-.6-.54-.62-.32-.01-.6.22-.62.54m1.15 2.67a.59.59 0 0 0-.63.53c-.02.23-.1.49-.23.77-.14.29-.01.63.28.77.07.03.16.05.24.05l.02.01c.21 0 .42-.12.52-.33q.285-.615.33-1.17c.03-.32-.21-.6-.53-.63"/><path fill="#231f20" d="M36.85 17.42c.32.15.58.33.78.53.11.11.26.17.41.17l.01.01c.15 0 .3-.06.41-.17.22-.23.22-.59 0-.82-.3-.3-.68-.56-1.12-.77a.577.577 0 0 0-.77.28c-.14.29-.01.63.28.77M37.97 30.66h-.01zM38.72 28.48a.57.57 0 0 0-.484.05c-.033.016-.06.04-.09.062-.02.016-.042.028-.06.047a.6.6 0 0 0-.156.231c-.1.3-.25.6-.44.88-.18.27-.11.63.15.81a.577.577 0 0 0 .8-.15 4.6 4.6 0 0 0 .559-1.105c.005-.01.017-.014.021-.025.01-.01.04-.08.04-.09.11-.3-.05-.59-.34-.71m-.276-2.882c.047-.08.107-.155.146-.238.14-.29.01-.63-.28-.77a.585.585 0 0 0-.77.28c-.13.26-.31.5-.56.71a.576.576 0 0 0 .37 1.02h.01a.6.6 0 0 0 .348-.121 1.6 1.6 0 0 1 .302.461c.09.23.3.36.53.36h.01c.07 0 .15-.01.22-.04a.59.59 0 0 0 .31-.76 2.8 2.8 0 0 0-.636-.902M11.47 18.74h-.01zM11.465 18.74a.56.56 0 0 0 .415-.18c.18-.19.45-.36.78-.52.29-.14.42-.48.28-.77a.585.585 0 0 0-.77-.28c-.47.22-.83.47-1.12.77-.22.23-.21.6.02.82a.57.57 0 0 0 .395.16m-.445 6.2h.01c.08 0 .16-.01.24-.05.28-.14.41-.48.28-.77a3 3 0 0 1-.23-.67c-.06-.32-.36-.52-.68-.46s-.52.37-.46.68c.06.29.16.61.31.93.1.22.31.34.53.34m.76-3.63c-.08-.37-.17-.73-.22-1.07-.05-.31-.35-.53-.66-.48s-.53.34-.48.66c.05.36.14.75.24 1.17zm-.17 7.71a.58.58 0 0 0-1.16 0c0 .44.01.91.17 1.34.08.23.3.38.54.38.07 0 .13-.01.2-.03.3-.11.46-.44.35-.74-.08-.23-.1-.53-.1-.95m.86-1.8h.01c.16 0 .33-.07.44-.2.2-.25.17-.61-.07-.82-.25-.21-.44-.44-.56-.71a.585.585 0 0 0-.77-.28c-.29.14-.42.48-.28.77.03.067.08.125.116.19-.232.237-.439.49-.586.77-.15.28-.03.63.25.78q.135.06.27.06l-.01-.01c.2 0 .41-.11.51-.31.072-.139.17-.27.284-.397l.016.017c.11.09.25.14.38.14"/></svg>