<svg xmlns="http://www.w3.org/2000/svg" viewBox="0 0 50 50"><g fill="none" stroke="#000" stroke-linecap="round" stroke-linejoin="round"><path d="M36.521 8.653 34.8 13.717c.067.058.135.112.2.172.513.46.982.95 1.415 1.462l4.98-1.809m-6.596.175 1.722-5.064a20 20 0 0 0-3.04-1.772l-3.412 4.056m13.083 5.653-4.023 3.527q.357 1.038.558 2.11l5.224.88"/><path d="m39.129 20.117 4.023-3.528a20 20 0 0 0-1.758-3.047l-4.98 1.809m-8.681-5.048-1.08-5.235a20 20 0 0 0-3.518.019l-.888 5.223m4.407-5.242 1.079 5.235c.79.146 1.572.358 2.336.634l3.412-4.056M29.89 39.126l3.531 4.022a20 20 0 0 0 3.045-1.76l-1.81-4.98M16.615 6.837l3.522 4.028a15 15 0 0 1 2.11-.555l.888-5.223M39.7 27.713l5.234-1.087c.095-1.172.088-2.35-.023-3.518l-5.224-.88"/><path d="m41.354 36.512-5.066-1.72c-.06.07-.116.14-.177.208-.459.51-.947.977-1.455 1.408l1.81 4.98"/><path d="m36.288 34.793 5.066 1.72a20 20 0 0 0 1.77-3.041l-4.058-3.41"/><path d="m44.934 26.626-5.233 1.087q-.22 1.194-.635 2.349l4.057 3.41m-20.828 6.23 1.09 5.233a20 20 0 0 0 3.518-.025l.878-5.224m-14.334 1.64 1.732-5.062q-.09-.075-.179-.153c-.52-.467-.994-.964-1.433-1.484l-4.984 1.799m6.597-.162-1.733 5.062a20 20 0 0 0 3.037 1.776l3.42-4.049m3.481 5.882-1.09-5.233a15 15 0 0 1-2.391-.649l-3.42 4.049"/><path d="m33.421 43.148-3.53-4.022a15 15 0 0 1-2.11.56l-.878 5.224M10.862 29.855l-4.03 3.52a20 20 0 0 0 1.751 3.05l4.984-1.798M8.668 13.456l5.062 1.73c.054-.062.104-.125.159-.186.465-.517.96-.99 1.477-1.427l-1.8-4.983"/><path d="m20.137 10.865-3.522-4.028a20 20 0 0 0-3.05 1.753l1.801 4.983m-1.636 1.612-5.062-1.729a20 20 0 0 0-1.774 3.038l4.05 3.418m-.64 2.347-5.235 1.077a20 20 0 0 0 .017 3.518l5.222.89m-3.476 5.631 4.03-3.52a15 15 0 0 1-.554-2.11l-5.222-.89M5.069 23.336l5.235-1.077q.222-1.195.64-2.347l-4.05-3.418"/></g><g fill="none" stroke="#000" stroke-linecap="round" stroke-linejoin="round"><path d="m31.436 30.596 2.089-6.43M21.628 32.815h6.739M16.474 24.163l2.089 6.431M23.108 16.601l-5.462 3.968M32.355 20.57l-5.463-3.969"/><circle cx="25" cy="15.226" r="2.345"/><circle cx="15.753" cy="21.943" r="2.345"/><circle cx="19.283" cy="32.815" r="2.345"/><circle cx="30.712" cy="32.815" r="2.345"/><circle cx="25" cy="24.818" r="2.345"/><circle cx="34.247" cy="21.946" r="2.345"/><path d="M25 17.572v4.901M29.336 30.917l-3.021-4.158M32.016 22.668l-4.752 1.54M20.661 30.921l3.024-4.162M17.983 22.668l4.753 1.54"/></g><path fill="none" stroke="#000" stroke-linejoin="round" d="M22.843 15.244a9.94 9.94 0 0 0-5.276 3.066q-.636.71-1.113 1.496m17.023-.099a9.95 9.95 0 0 0-6.177-4.439m5.308 16.205a9.96 9.96 0 0 0 2.343-7.348M21.045 34.166a10.03 10.03 0 0 0 7.852.034M15.04 24.24a10 10 0 0 0 2.308 7.182"/></svg>