<svg xmlns="http://www.w3.org/2000/svg" viewBox="0 0 50 50"><g fill="none" stroke="#000" stroke-linecap="round" stroke-linejoin="round"><path d="m45.978 38.501-6.916.1-.131-6.906M4.022 11.515l6.898-.116.13 6.906"/><path d="M36.612 40.749c-7.524 5.553-18.196 5.014-25.169-1.725-7.772-7.51-8.007-19.878-.524-27.623m2.453-2.15c7.524-5.553 18.196-5.014 25.169 1.725 7.772 7.51 8.007 19.878.524 27.623"/></g><g fill="none" stroke="#000"><path stroke-linecap="round" stroke-linejoin="round" d="M30.483 16.11q-.58.03-1.154.05l-.002-.004-2.757-2.12c-.911-.699-2.008-.716-2.929-.043l-2.97 2.167q-.575-.02-1.154-.05c-2.18-.108-3.88-.726-3.88 2.262s.405 7.832.405 7.832-.243 3.633 3.96 6.702c3.615 2.639 4.984 3.594 4.984 3.594h0s1.397-.955 5.012-3.594c4.203-3.069 3.96-6.702 3.96-6.702s.404-4.845.404-7.832-1.7-2.37-3.88-2.261"/><path stroke-linecap="round" stroke-linejoin="round" d="M28.088 21.373zl-4.015 6.074-2.161-2.868"/><circle cx="25" cy="24.41" r="5.897" stroke-miterlimit="10"/></g></svg>