<svg xmlns="http://www.w3.org/2000/svg" data-name="Isolation Mode" viewBox="0 0 50 50"><g fill="none" stroke="#000" stroke-linecap="round" stroke-linejoin="round"><path d="M16.378 16.774c1.704-1.27 2.862-3.754 2.862-6.612 0-4.15-2.44-5.72-5.45-5.72s-5.45 1.57-5.45 5.72c0 2.858 1.158 5.343 2.862 6.613"/><path d="m2.236 29.443 1.912-8.67a3.45 3.45 0 0 1 1.469-1.965s2.299-1.466 5.584-2.034c.77.575 1.652.95 2.589.95s1.818-.375 2.588-.95"/><path d="m24.187 24.21-.759-3.437a3.45 3.45 0 0 0-1.47-1.965s-2.298-1.466-5.584-2.034m10.106-.424c.851-.635 1.43-1.878 1.43-3.307 0-2.075-1.22-2.859-2.725-2.859s-2.725.784-2.725 2.86c0 1.429.58 2.671 1.431 3.306"/><path d="M23.891 16.35c.385.287.826.475 1.294.475s.91-.188 1.294-.475"/><path d="M26.478 16.35c1.642.283 2.792 1.016 2.792 1.016.356.226.617.574.734.983l.232 1.187"/></g><path fill="none" stroke="#000" stroke-linecap="round" stroke-linejoin="round" d="M15.584 45.557c-2.98 0-5.396-2.397-5.396-5.354 0-2.95 2.403-5.341 5.373-5.354v-.001c0-4.396 3.59-7.96 8.02-7.96 1.179 0 2.297.255 3.305.709a9.38 9.38 0 0 1 8.783-6.04c5.18 0 9.38 4.167 9.38 9.308 0 .839-.114 1.651-.324 2.424a6.66 6.66 0 0 1 3.039 5.584c0 3.692-3.015 6.684-6.735 6.684z"/></svg>