<svg xmlns="http://www.w3.org/2000/svg" data-name="Isolation Mode" viewBox="0 0 50 50"><path fill="none" stroke="#000" stroke-linecap="round" stroke-linejoin="round" d="M22.975 43.025h4M35.975 10.025V6a1 1 0 0 0-1-1h-20a1 1 0 0 0-1 1v4.025m0 30v4.025a1 1 0 0 0 1 1h20a1 1 0 0 0 1-1v-4.025"/><rect width="22" height="32" x="13.975" y="9.025" fill="none" stroke="#000" stroke-linecap="round" stroke-linejoin="round" rx="1" ry="1"/><path d="M16.975 6.025a1 1 0 1 0 0 2 1 1 0 0 0 0-2"/><g fill="none" stroke="#000"><path stroke-linecap="round" stroke-linejoin="round" d="M29.392 17.879a72 72 0 0 1-.924.04l-.002-.004-2.209-1.697c-.73-.561-1.608-.574-2.346-.036l-2.379 1.737a72 72 0 0 1-.924-.04c-1.746-.087-3.108-.582-3.108 1.811s.324 6.274.324 6.274-.194 2.911 3.172 5.37a280 280 0 0 0 3.993 2.879h0s1.119-.766 4.015-2.88c3.367-2.458 3.172-5.369 3.172-5.369s.324-3.88.324-6.274c0-2.393-1.362-1.898-3.108-1.811"/><path stroke-linecap="round" stroke-linejoin="round" d="M27.117 22.445zl-2.754 4.165-1.482-1.967"/><circle cx="25" cy="24.527" r="4.724" stroke-miterlimit="10"/></g></svg>