<svg xmlns="http://www.w3.org/2000/svg" viewBox="0 0 50 50"><g fill="none" stroke="#231f20" stroke-linecap="round" stroke-linejoin="round"><path d="m25.07 19.172-11.5 7.077v6.192l5.308 2.654 11.5-7.077-.022-5.595z"/><path d="m19.763 28.018 11.5 7.077 5.307-2.654V26.25l-6.214-3.826.022-6.9-5.33-3.361-5.374 3.45z"/></g><g fill="none" stroke="#231f20" stroke-linecap="round" stroke-linejoin="round"><path d="m46.478 38.822-7.07.11-.134-7.071M3.522 11.194l7.07-.109.134 7.07"/><path d="M36.889 41.123c-7.704 5.686-18.63 5.134-25.769-1.765-7.957-7.69-8.197-20.351-.536-28.281m2.511-2.2c7.704-5.686 18.629-5.134 25.768 1.765 7.957 7.69 8.197 20.351.536 28.281"/></g></svg>