<svg xmlns="http://www.w3.org/2000/svg" viewBox="0 0 50 50"><rect width="35.473" height="35.515" x="7.263" y="5.763" fill="none" stroke="#000" stroke-linecap="round" stroke-linejoin="round" rx="3.009" ry="3.009"/><path fill="none" stroke="#000" stroke-linecap="round" stroke-linejoin="round" d="M24.999 16.122 25 17.34M30.122 18.302l-.86.862M32.309 23.427l-1.218.001M17.703 23.44l1.217-.001M19.881 18.311l.861.861M24.999 16.122 25 17.34M30.122 18.302l-.86.862M19.881 18.311l.861.861M25.001 30.92 25 29.701M19.878 28.74l.86-.863M30.119 28.73l-.861-.86"/><ellipse cx="25" cy="23.521" fill="none" stroke="#000" stroke-linecap="round" stroke-linejoin="round" rx="4.181" ry="4.185"/><ellipse cx="25" cy="23.521" fill="none" stroke="#000" stroke-linecap="round" stroke-linejoin="round" rx="7.39" ry="7.399"/><g fill="none" stroke="#000" stroke-linecap="round" stroke-linejoin="round"><path d="M37.896 19.07a1.076 1.076 0 0 1-1.077-1.076l-.002-2.286c0-.594.481-1.077 1.075-1.078h.402v-1.428a3.01 3.01 0 0 0-3.011-3.009l-20.59.02a3.01 3.01 0 0 0-3.005 3.013l.019 20.614a3.01 3.01 0 0 0 3.01 3.008l20.59-.018a3.01 3.01 0 0 0 3.005-3.014l-.001-1.429h-.403a1.076 1.076 0 0 1-1.077-1.075l-.002-2.286c0-.594.481-1.077 1.075-1.078h.402l-.008-8.879z"/><path d="m38.298 19.07.403-.001c.594 0 1.075-.483 1.075-1.078l-.003-2.285c0-.595-.482-1.077-1.076-1.076h-.403m.016 17.757h.403c.594 0 1.075-.483 1.075-1.078l-.002-2.285a1.077 1.077 0 0 0-1.077-1.076h-.403"/></g><path fill="none" stroke="#000" stroke-linecap="round" stroke-linejoin="round" d="M10.237 41.278h29.561v1.481a1.48 1.48 0 0 1-1.479 1.479H11.716a1.48 1.48 0 0 1-1.48-1.479z"/></svg>