<svg xmlns="http://www.w3.org/2000/svg" viewBox="0 0 50 50"><g fill="none" stroke="#000" stroke-linecap="round" stroke-linejoin="round"><path d="M12.028 23.023 5 26.185l6 3.3M39 29.485l6-3.3-7.028-3.162"/><path d="m17 32.785-6-3.3-6 2.7 6 3.3M39 35.485l6-3.3-6-2.7-6 3.3M39 35.485l-14 7.7-14-7.7"/><path d="m17 32.785 8 4.4 8-4.4"/></g><g fill="none" stroke="#000" stroke-linecap="round" stroke-linejoin="round"><path d="M13.704 19.99c-.174.763.083 1.886.57 2.497l4.672 5.859c.487.61 1.526 1.11 2.307 1.11h7.494c.781 0 1.82-.5 2.307-1.11l4.672-5.86c.487-.61.744-1.733.57-2.495l-1.668-7.306c-.173-.762-.892-1.663-1.596-2.002L26.28 7.43c-.704-.339-1.856-.339-2.56 0l-6.752 3.252c-.704.339-1.423 1.24-1.596 2.002zM25 17.463v-6.794M23.972 17.958l-5.312-4.236M23.719 19.07l-6.624 1.512M24.43 19.962l-2.948 6.121M25.57 19.962l2.948 6.121M26.281 19.07l6.624 1.512M26.027 17.958l5.312-4.236"/><circle cx="25" cy="18.778" r="1.314"/><circle cx="25" cy="18.782" r="6.7"/></g></svg>