<svg xmlns="http://www.w3.org/2000/svg" viewBox="0 0 50 50"><path fill="none" stroke="#000" stroke-linecap="round" stroke-linejoin="round" d="M24.999 45.234c.264-.181 2.794-1.926 8.809-6.313 7.407-5.403 6.98-11.801 6.98-11.801s.712-8.53.712-13.792c0-5.26-2.996-4.171-6.837-3.98M24.999 45.234c-.264-.181-2.794-1.926-8.81-6.313C8.783 33.518 9.21 27.12 9.21 27.12s-.712-8.53-.712-13.792c0-5.26 2.997-4.171 6.838-3.98m.001.002c.68.03 1.36.06 2.03.08l4.86-3.73c.86-.66 1.813-.95 2.77-.95H25c.937 0 1.91.29 2.77.95l4.86 3.73c.67-.02 1.35-.05 2.03-.08"/><path d="M25.001 24.383a.367.367 0 1 1-.004.734.367.367 0 0 1 .004-.734m0-1A1.366 1.366 0 1 0 25 26.116a1.366 1.366 0 0 0 0-2.733"/><path fill="none" stroke="#000" stroke-linecap="round" stroke-linejoin="round" d="M29.459 16.981 25 24.75"/><circle cx="25" cy="24.75" r="10.25" fill="none" stroke="#000" stroke-linecap="round" stroke-linejoin="round"/><path fill="none" stroke="#000" stroke-linecap="round" stroke-linejoin="round" d="M32.254 22.374c.244.748.377 1.546.377 2.376m-1.938-5.082c.363.407.684.853.954 1.332M17.37 24.75a7.63 7.63 0 0 1 12.192-6.118"/></svg>