<svg xmlns="http://www.w3.org/2000/svg" viewBox="0 0 50 50"><g fill="none" stroke="#000" stroke-linecap="round" stroke-linejoin="round"><path d="M11.559 8.762 45 8.75M11.58 15.762H45M23.921 22.762H45M23.515 29.763H45M21.328 8.762v6.8M35.253 8.762v6.8M35.253 22.762v7.001M42.215 15.762v7M14.366 15.762v2.172M28.29 15.762v7M20.614 36.763H45M42.215 29.963v6.8M28.29 29.963v6.8"/></g><path fill="none" stroke="#000" stroke-linecap="round" stroke-linejoin="round" d="M19.952 20.58q-.584.03-1.162.051l-.002-.004-2.778-2.149c-.917-.709-2.021-.726-2.95-.044l-2.99 2.197q-.58-.02-1.162-.05C6.712 20.47 5 19.844 5 22.873s.407 7.94.407 7.94-.244 3.683 3.989 6.793c3.641 2.676 5.02 3.644 5.02 3.644h0s1.406-.968 5.047-3.644c4.233-3.11 3.99-6.794 3.99-6.794s.406-4.91.406-7.94c0-3.028-1.712-2.401-3.907-2.291"/><g fill="none" stroke="#000" stroke-linecap="round" stroke-linejoin="round"><path d="M17.489 25.724zl-3.978 6.018L11.37 28.9"/><circle cx="14.43" cy="28.729" r="5.843"/></g></svg>