<svg xmlns="http://www.w3.org/2000/svg" viewBox="0 0 50 50"><path fill="none" stroke="#000" stroke-linecap="round" stroke-linejoin="round" d="m38.201 35.394-1.439-1.435a1.77 1.77 0 0 0-2.263-.154l-.477.474a1.82 1.82 0 0 0-.336 1.052c-.003.451.175.885.495 1.204l1.544 1.541"/><path fill="none" stroke="#000" stroke-linejoin="round" d="m31.407 31.337 2.779 2.779"/><circle cx="24.689" cy="24.519" r="9.573" fill="none" stroke="#000" stroke-linecap="round" stroke-linejoin="round"/><g fill="none" stroke="#000" stroke-linecap="round" stroke-linejoin="round"><path d="m21.898 21.738-4.652 2.781 4.652 2.782M27.48 27.3l4.652-2.78-4.652-2.782M25.62 21.738l-1.861 5.563"/></g><path fill="none" stroke="#000" stroke-linecap="round" stroke-linejoin="round" d="M34.913 9.847q-1.02.05-2.034.088l-.003-.008-4.86-3.732c-1.605-1.232-3.538-1.261-5.161-.077l-5.234 3.817q-1.013-.037-2.034-.088c-3.84-.19-6.837-1.28-6.837 3.981s.712 13.792.712 13.792-.427 6.398 6.98 11.8c6.371 4.648 8.783 6.33 8.783 6.33h0s2.462-1.682 8.833-6.33c7.407-5.402 6.98-11.8 6.98-11.8s.712-8.53.712-13.792c0-5.26-2.996-4.171-6.837-3.98"/></svg>