<svg xmlns="http://www.w3.org/2000/svg" data-name="Isolation Mode" viewBox="0 0 50 50"><path d="M24.975 27.923A.54.54 0 1 1 24.974 29a.54.54 0 0 1 .001-1.078m0-1a1.539 1.539 0 1 0 0 3.077 1.539 1.539 0 0 0 0-3.077"/><path fill="none" stroke="#000" stroke-linecap="round" stroke-linejoin="round" d="M27.693 25.742a3.846 3.846 0 0 0-5.439 0m7.073-1.632a6.154 6.154 0 0 0-8.703 0"/><path fill="none" stroke="#000" stroke-linecap="round" stroke-linejoin="round" d="M30.745 22.272a8.46 8.46 0 0 0-11.54 0M22.975 43h4M35.975 10V5.975a1 1 0 0 0-1-1h-20a1 1 0 0 0-1 1V10m0 30v4.025a1 1 0 0 0 1 1h20a1 1 0 0 0 1-1V40"/><rect width="22" height="32" x="13.975" y="9" fill="none" stroke="#000" stroke-linecap="round" stroke-linejoin="round" rx="1" ry="1"/><path d="M16.975 6a1 1 0 1 0 0 2 1 1 0 0 0 0-2"/></svg>