<svg xmlns="http://www.w3.org/2000/svg" data-name="Isolation Mode" viewBox="0 0 50 50"><path d="M24.975 28.307a.847.847 0 0 1 0 1.693.847.847 0 0 1 0-1.693m0-1a1.846 1.846 0 1 0 0 3.693 1.846 1.846 0 0 0 0-3.693"/><path fill="none" stroke="#000" stroke-linecap="round" stroke-linejoin="round" d="M28.237 25.89a4.616 4.616 0 0 0-6.527 0m8.487-1.958a7.385 7.385 0 0 0-10.444 0"/><path fill="none" stroke="#000" stroke-linecap="round" stroke-linejoin="round" d="M31.899 21.726a10.154 10.154 0 0 0-13.847 0M6.975 23v4"/><path fill="none" stroke="#000" stroke-linecap="round" stroke-linejoin="round" d="M40.975 39H44a1 1 0 0 0 1-1V12a1 1 0 0 0-1-1H5.95a1 1 0 0 0-1 1v26a1 1 0 0 0 1 1z"/><path d="M42.975 24a1 1 0 1 0 0 2 1 1 0 0 0 0-2"/><rect width="32" height="24" x="8.975" y="13" fill="none" stroke="#000" stroke-linecap="round" stroke-linejoin="round" rx="1" ry="1"/></svg>