<svg xmlns="http://www.w3.org/2000/svg" viewBox="0 0 50 50"><g fill="none" stroke="#000" stroke-linecap="round" stroke-linejoin="round"><path d="M10 5v40h30V16L29 5z"/><path d="M29 5v11h11"/></g><path d="M15.474 22.875h2.536v3.885h1.41v.87h-3.946v-.87h1.477v-3.01h-1.477zm1.389-1.23q0-.247.158-.406c.158-.16.253-.16.444-.16q.29 0 .45.16c.16.16.16.242.16.406s-.053.3-.16.406q-.16.161-.45.16-.286.001-.444-.16a.55.55 0 0 1-.158-.406m6.683 4.5h-2l-.439 1.485h-1.09l2.08-6.398h.926l2.04 6.398h-1.086zm-1.731-.9h1.468l-.725-2.51zm8.019.056q0 .519-.123.963c-.123.444-.202.55-.36.767a1.7 1.7 0 0 1-.582.505q-.346.182-.793.182-.405 0-.715-.132a1.5 1.5 0 0 1-.533-.378v2.25h-1.05v-6.583h.966l.044.48q.228-.273.543-.42.314-.147.731-.147.453 0 .802.175.35.177.587.495t.36.764.123.987zm-1.05-.092q0-.322-.066-.604a1.6 1.6 0 0 0-.202-.497q-.135-.213-.347-.336c-.212-.123-.308-.123-.501-.123q-.352 0-.58.15a.85.85 0 0 0-.36.4v2.126q.131.247.357.4c.226.153.349.154.592.154a.95.95 0 0 0 .846-.47q.134-.215.197-.501a2.2 2.2 0 0 0 .064-.607zm6.211.092q0 .519-.123.963c-.123.444-.202.55-.36.767a1.7 1.7 0 0 1-.582.505q-.345.182-.794.182-.404 0-.714-.132a1.5 1.5 0 0 1-.534-.378v2.25h-1.05v-6.583h.967l.044.48q.228-.273.543-.42.314-.147.731-.147.453 0 .802.175.35.177.587.495t.36.764.123.987zm-1.05-.092q0-.322-.066-.604a1.6 1.6 0 0 0-.202-.497q-.137-.213-.347-.336c-.21-.123-.308-.123-.501-.123q-.352 0-.58.15a.85.85 0 0 0-.36.4v2.126q.13.247.357.4c.227.153.348.154.591.154a.95.95 0 0 0 .847-.47q.132-.215.197-.501c.065-.286.064-.393.064-.607z" data-name="Isolation Mode"/></svg>