<svg xmlns="http://www.w3.org/2000/svg" viewBox="0 0 50 50"><g fill="none" stroke="#000" stroke-linecap="round" stroke-linejoin="round"><path d="m15.572 4.5 9.47 9.447 7.89-7.873"/><path d="M28.198 6.074h4.735v4.724"/></g><circle cx="25" cy="25" r="8" fill="none" stroke="#000" stroke-linecap="round" stroke-linejoin="round"/><g fill="none" stroke="#000" stroke-linecap="round" stroke-linejoin="round"><path d="m38.302 6.715-3.625 12.86L45.42 22.59"/><path d="m43.103 18.47 2.317 4.12-4.13 2.31"/></g><g fill="none" stroke="#000" stroke-linecap="round" stroke-linejoin="round"><path d="m47.5 27.46-13 3.205 2.676 10.808"/><path d="m39.623 37.43-2.447 4.043-4.053-2.441"/></g><g fill="none" stroke="#000" stroke-linecap="round" stroke-linejoin="round"><path d="m12.416 43.665 3.181-12.978-10.84-2.645"/><path d="m7.214 32.08-2.457-4.038 4.048-2.45"/></g><g fill="none" stroke="#000" stroke-linecap="round" stroke-linejoin="round"><path d="m34.373 45.5-9.406-9.51-7.944 7.819"/><path d="m21.758 43.84-4.735-.031.032-4.723"/></g><g fill="none" stroke="#000" stroke-linecap="round" stroke-linejoin="round"><path d="m2.5 23.394 12.859-3.732-3.118-10.69"/><path d="m9.962 13.112 2.28-4.14 4.15 2.274"/></g></svg>