<svg xmlns="http://www.w3.org/2000/svg" data-name="Isolation Mode" viewBox="0 0 50 50"><path fill="none" stroke="#000" stroke-miterlimit="10" d="M15 29.46v13.517A2.04 2.04 0 0 0 17.051 45H32.95A2.04 2.04 0 0 0 35 42.977V7.023A2.04 2.04 0 0 0 32.949 5H17.05A2.04 2.04 0 0 0 15 7.023z"/><path fill="none" stroke="#000" stroke-linecap="round" stroke-linejoin="round" d="M18 10h14M18 15h14M18 20h14M18 25h14M18 30h14M18 35h14M18 40h14"/><circle cx="20" cy="12" r=".375" fill="none" stroke="#000" stroke-miterlimit="10"/><circle cx="22.979" cy="12" r=".375" fill="none" stroke="#000" stroke-miterlimit="10"/><circle cx="26.966" cy="17.008" r=".375" fill="none" stroke="#000" stroke-miterlimit="10"/><circle cx="29.945" cy="17.008" r=".375" fill="none" stroke="#000" stroke-miterlimit="10"/><circle cx="26.966" cy="27.005" r=".375" fill="none" stroke="#000" stroke-miterlimit="10"/><circle cx="29.945" cy="27.005" r=".375" fill="none" stroke="#000" stroke-miterlimit="10"/><circle cx="26.966" cy="37.002" r=".375" fill="none" stroke="#000" stroke-miterlimit="10"/><circle cx="29.945" cy="37.002" r=".375" fill="none" stroke="#000" stroke-miterlimit="10"/><circle cx="20" cy="22.145" r=".375" fill="none" stroke="#000" stroke-miterlimit="10"/><circle cx="22.979" cy="22.145" r=".375" fill="none" stroke="#000" stroke-miterlimit="10"/><circle cx="20" cy="32.29" r=".375" fill="none" stroke="#000" stroke-miterlimit="10"/><circle cx="22.979" cy="32.29" r=".375" fill="none" stroke="#000" stroke-miterlimit="10"/><path fill="none" stroke="#000" stroke-miterlimit="10" d="M35 43h8.897a2.04 2.04 0 0 0 2.052-2.023V14.023A2.04 2.04 0 0 0 43.897 12H35"/><path fill="none" stroke="#000" stroke-linecap="round" stroke-linejoin="round" d="M35 17h7.949M35 22h7.949M35 27h7.949M35 32h7.949M35 37h7.949"/><circle cx="37.996" cy="19" r=".375" fill="none" stroke="#000" stroke-miterlimit="10"/><circle cx="41" cy="19" r=".375" fill="none" stroke="#000" stroke-miterlimit="10"/><circle cx="38.008" cy="28.997" r=".375" fill="none" stroke="#000" stroke-miterlimit="10"/><circle cx="41" cy="28.997" r=".375" fill="none" stroke="#000" stroke-miterlimit="10"/><path fill="none" stroke="#000" stroke-miterlimit="10" d="M14.949 43H6.05A2.04 2.04 0 0 1 4 40.977V14.023A2.04 2.04 0 0 1 6.051 12h8.898"/><path fill="none" stroke="#000" stroke-linecap="round" stroke-linejoin="round" d="M14.949 17H7M14.949 22H7M14.949 27H7M14.949 32H7M14.949 37H7"/><circle cx="11.953" cy="19" r=".375" fill="none" stroke="#000" stroke-miterlimit="10"/><circle cx="8.949" cy="19" r=".375" fill="none" stroke="#000" stroke-miterlimit="10"/><circle cx="11.941" cy="28.997" r=".375" fill="none" stroke="#000" stroke-miterlimit="10"/><circle cx="8.949" cy="28.997" r=".375" fill="none" stroke="#000" stroke-miterlimit="10"/></svg>