<svg xmlns="http://www.w3.org/2000/svg" viewBox="0 0 50 50"><path fill="none" stroke="#000" stroke-linecap="round" stroke-linejoin="round" d="M24.89 17.946c0 2.67 3.344 5.094 3.344 5.094q.276.035.555.035h2.86l2.686 1.75a.79.79 0 0 0 .992-.109l3.374-3.422a.81.81 0 0 0 .069-1.056l-7.495-9.89V5.803A.8.8 0 0 0 30.482 5c-2.068 0-3.773 1.598-3.976 3.638-6.223.407-10.94 5.66-10.94 12.059v15.072m17.021 0V31.78a.8.8 0 0 0-.444-.72c-2.348-1.161-3.909-3.623-3.909-6.268v-1.756M15.566 35.77c-2.228.155-4.5 2.86-4.5 5.127V45h26.022v-4.103c0-2.267-2.272-4.972-4.5-5.128z"/></svg>