<svg xmlns="http://www.w3.org/2000/svg" data-name="Isolation Mode" viewBox="0 0 50 50"><path fill="none" stroke="#000" stroke-linecap="round" stroke-linejoin="round" d="M10 34.5h-.682C5.828 34.5 3 31.705 3 28.255c0-3.441 2.814-6.231 6.291-6.246v-.001c0-5.128 4.205-9.286 9.391-9.286 1.38 0 2.69.297 3.87.826 1.563-4.116 5.577-7.046 10.286-7.046 6.065 0 10.982 4.862 10.982 10.86 0 .978-.133 1.926-.378 2.828C45.584 21.583 47 23.979 47 26.703c0 4.012-3.065 7.317-7.006 7.75M34.999 33.501v2M31.997 33.501v2M28.996 33.501v2"/><path d="M16.007 34a.5.5 0 1 1 0 1 .5.5 0 0 1 0-1m0-1c-.827 0-1.5.674-1.5 1.5s.673 1.5 1.5 1.5a1.501 1.501 0 0 0 0-3"/><path fill="none" stroke="#000" stroke-miterlimit="10" d="M13.02 31.5h23.933c.578 0 1.047.47 1.047 1.048v3.933a1.02 1.02 0 0 1-1.02 1.02H13.02A1.02 1.02 0 0 1 12 36.48v-3.96c0-.563.457-1.02 1.02-1.02Z"/><path fill="none" stroke="#000" stroke-linecap="round" stroke-linejoin="round" d="M34.999 27.503v2M31.997 27.503v2M28.996 27.503v2"/><path d="M16.007 28.003a.5.5 0 1 1 0 1 .5.5 0 0 1 0-1m0-1a1.501 1.501 0 1 0 1.5 1.5c0-.828-.673-1.5-1.5-1.5"/><path fill="none" stroke="#000" stroke-miterlimit="10" d="M13.02 25.503h23.933c.578 0 1.047.469 1.047 1.047v3.932a1.02 1.02 0 0 1-1.02 1.02H13.02a1.02 1.02 0 0 1-1.02-1.02v-3.96c0-.562.457-1.02 1.02-1.02Z"/><path fill="none" stroke="#000" stroke-linecap="round" stroke-linejoin="round" d="M34.999 39.499v2M31.997 39.499v2M28.996 39.499v2"/><path d="M16.007 40a.5.5 0 1 1 0 1 .5.5 0 0 1 0-1m0-1a1.501 1.501 0 1 0 1.5 1.5c0-.828-.673-1.5-1.5-1.5"/><path fill="none" stroke="#000" stroke-miterlimit="10" d="M13.02 37.5h23.933c.578 0 1.047.468 1.047 1.046v3.933a1.02 1.02 0 0 1-1.02 1.02H13.02A1.02 1.02 0 0 1 12 42.48v-3.96c0-.563.457-1.02 1.02-1.02Z"/></svg>