<svg xmlns="http://www.w3.org/2000/svg" viewBox="0 0 50 50"><path fill="none" stroke="#000" stroke-linecap="round" stroke-linejoin="round" d="M25 22.161a3 3 0 1 0 0 6 3 3 0 0 0 0-6m5.588 8.424a7.904 7.904 0 0 0 0-11.177m3.354 14.534c4.938-4.939 4.938-12.945 0-17.884"/><path fill="none" stroke="#000" stroke-linecap="round" stroke-linejoin="round" d="M37.718 36.855c6.225-6.678 6.225-17.032 0-23.71m-18.306 17.44a7.904 7.904 0 0 1 0-11.177m-3.354 14.534c-4.938-4.939-4.938-12.945 0-17.884"/><path fill="none" stroke="#000" stroke-linecap="round" stroke-linejoin="round" d="M12.282 36.855c-6.225-6.678-6.225-17.032 0-23.71"/></svg>