<svg xmlns="http://www.w3.org/2000/svg" viewBox="0 0 50 50"><path fill="none" stroke="#000" stroke-linecap="round" stroke-linejoin="round" d="M9.318 39C5.828 39 3 36.203 3 32.753c0-3.441 2.814-6.231 6.291-6.246q0 0 0 0c0-5.13 4.205-9.287 9.391-9.287 1.38 0 2.69.297 3.87.826C24.116 13.93 28.13 11 32.839 11c6.065 0 10.982 4.862 10.982 10.86 0 .978-.133 1.926-.378 2.828C45.584 26.082 47 28.478 47 31.202 47 35.51 43.47 39 39.114 39z"/><g fill="none" stroke="#000" stroke-linecap="round" stroke-linejoin="round"><path d="M26.863 26.253a1.898 1.898 0 1 0 0 3.796 1.898 1.898 0 0 0 0-3.796m3.535 5.329a5 5 0 0 0 0-7.07m2.122 9.194a8 8 0 0 0 0-11.314"/><path d="M34.91 35.55a11 11 0 0 0 0-15.002M23.327 31.582a5 5 0 0 1 0-7.07m-2.121 9.194a8 8 0 0 1 0-11.314"/><path d="M18.816 35.55a11 11 0 0 1 0-15.002"/></g></svg>