<svg xmlns="http://www.w3.org/2000/svg" data-name="Isolation Mode" viewBox="0 0 50 50"><g fill="none" stroke="#000" stroke-linecap="round" stroke-linejoin="round"><path d="M19.3 26.916h4.983v5"/><path d="M26.222 25.326c4.837-3.216 11.418-2.686 15.68 1.59 4.864 4.882 4.864 12.797 0 17.678-4.866 4.882-12.754 4.882-17.619 0s-4.865-12.796 0-17.678"/><path d="M33.05 29.505v6.25h3.75"/><circle cx="33.05" cy="35.755" r="6.25"/></g><path fill="none" stroke="#000" stroke-linecap="round" stroke-linejoin="round" d="M24.038 20.016C26.398 18.288 28 14.909 28 11.022c0-5.643-3.38-7.777-7.548-7.777-4.17 0-7.55 2.134-7.55 7.777 0 3.888 1.605 7.267 3.966 8.995"/><path fill="none" stroke="#000" stroke-linecap="round" stroke-linejoin="round" d="m4.45 37.245 2.647-11.79a4.7 4.7 0 0 1 2.036-2.674s3.184-1.994 7.734-2.765c1.067.78 2.288 1.291 3.586 1.291 1.297 0 2.518-.51 3.585-1.291"/><path fill="none" stroke="#000" stroke-linecap="round" stroke-linejoin="round" d="M28.48 21.23a24 24 0 0 0-4.447-1.214M22.957 17.604l5.646-.43.671-4.049"/><path fill="none" stroke="#000" stroke-linecap="round" stroke-linejoin="round" d="m18.916 17.078 3.283-.231a.704.704 0 0 1 .75.652l.008.106a.7.7 0 0 1-.651.75l-3.282.23a.704.704 0 0 1-.751-.651l-.008-.107a.7.7 0 0 1 .651-.75m-5.966-3.952h-1.563c-.6 0-1.09-.49-1.09-1.089v-2.3c0-.6.49-1.09 1.09-1.09h1.562m14.891 4.479h1.679c.599 0 1.089-.49 1.089-1.089v-2.3c0-.6-.49-1.09-1.09-1.09h-1.751"/><path fill="none" stroke="#000" stroke-linecap="round" stroke-linejoin="round" d="M11.613 8.647c.82-4.367 3.995-6.902 8.84-6.902s8.02 2.535 8.838 6.902"/></svg>