<svg xmlns="http://www.w3.org/2000/svg" viewBox="0 0 50 50"><path fill="none" stroke="#000" stroke-linecap="round" stroke-linejoin="round" d="M7.974 33.008h3v3h-3zM12.974 33.008h3v3h-3zM17.974 33.008h3v3h-3z"/><path fill="none" stroke="#000" stroke-linecap="round" stroke-linejoin="round" d="M35.974 45.008s-3.145-9.543-3.632-11.62-.35-18.416-.35-18.416h-6.018s.139 16.34-.349 18.416-3.65 11.62-3.65 11.62m3.703-15h-3.694v-6.46l-8.886 6.313v-6.225l-9.124 6.372v15h42s-4-3-4-7v-10h-6v10c0 1.368-.468 2.62-1.084 3.674M32.611 6.271q-.211 0-.41.042a2.227 2.227 0 0 0-3.924-.257 1.7 1.7 0 0 0-3.234.286 2.403 2.403 0 1 0 2.212 3.88 2.6 2.6 0 0 0 5.093.059q.13.018.263.02a2.014 2.014 0 0 0 0-4.03M25.974 18.991h6M35.974 32.008h6"/><path fill="none" stroke="#000" stroke-linecap="round" stroke-linejoin="round" d="M7.974 38.008h3v3h-3zM12.974 38.008h3v3h-3zM17.974 38.008h3v3h-3z"/></svg>