<svg xmlns="http://www.w3.org/2000/svg" data-name="&amp;lt;Layer&amp;gt;" viewBox="0 0 50 50"><path fill="none" stroke="#000" stroke-linecap="round" stroke-linejoin="round" d="M41.224 14.032c0-1.823-.358-2.998-1.127-3.708-.176-.162-.464-.282-.81-.376l.004-.003-13.56-4.89a.9.9 0 0 0-.603-.007L10.67 9.945l.025.01c-.327.095-.616.21-.792.372-.768.707-1.127 1.885-1.127 3.708 0 4.985.677 13.128.677 13.138-.017.26-.34 6.435 6.861 11.691 6.013 4.39 8.366 6.035 8.388 6.05a.48.48 0 0 0 .55 0c.024-.016 2.424-1.661 8.439-6.053 7.2-5.256 6.875-11.431 6.857-11.62.006-.08.676-8.224.676-13.21"/><path fill="none" stroke="#000" stroke-linecap="round" stroke-linejoin="round" d="M33.749 15.905h.002L23.024 32.13 17.25 24.47"/></svg>