<svg xmlns="http://www.w3.org/2000/svg" data-name="Isolation Mode" viewBox="0 0 50 50"><circle cx="14.324" cy="35.63" r="9.25" fill="none" stroke="#000" stroke-linecap="round" stroke-linejoin="round"/><path d="M22.246 24.501a1 1 0 0 1-.095-.282 3 3 0 0 1-.05-.352q-.15.15-.336.285-.185.134-.409.236a2.35 2.35 0 0 1-1.012.22 2.5 2.5 0 0 1-.835-.134q-.373-.134-.634-.363a1.59 1.59 0 0 1-.545-1.221q0-.479.19-.838.192-.36.54-.599.35-.24.841-.357A4.7 4.7 0 0 1 21 20.978h1.085v-.457q0-.263-.097-.473c-.097-.21-.156-.258-.274-.357a1.3 1.3 0 0 0-.433-.228q-.255-.08-.571-.08-.296 0-.53.075-.233.075-.394.198a.7.7 0 0 0-.25.293.74.74 0 0 0-.089.352h-.999q.006-.318.164-.623c.158-.305.258-.388.456-.551q.299-.244.726-.395.426-.15.97-.15.494 0 .918.121.424.12.733.365.309.244.486.61c.177.366.177.528.177.854v2.701q0 .29.054.616.054.324.15.566v.086zm-1.757-.757q.29 0 .543-.076.252-.075.46-.198c.207-.123.256-.177.357-.282q.15-.159.236-.33V21.68h-.924q-.87 0-1.353.258c-.483.258-.484.442-.484.811q0 .215.072.397a.8.8 0 0 0 .218.315q.145.13.365.206t.51.076m9.464-2.083q0 .623-.15 1.162-.15.54-.44.938c-.29.398-.433.472-.718.623q-.428.225-.975.225-.532 0-.938-.171a1.95 1.95 0 0 1-.695-.495v2.793h-.993V18.69h.907l.049.634q.29-.36.7-.55.412-.19.954-.191.557 0 .989.22.429.22.72.613c.29.393.34.573.44.937q.15.545.15 1.195zm-.994-.113q0-.424-.094-.809a2.1 2.1 0 0 0-.29-.676 1.5 1.5 0 0 0-.497-.465q-.3-.172-.72-.172-.477 0-.802.223-.325.224-.519.572v2.799q.193.343.516.561.322.217.816.217.415 0 .715-.174.3-.175.494-.47c.194-.295.225-.424.287-.682s.094-.529.094-.811zm7.638.113a4.3 4.3 0 0 1-.15 1.162q-.15.54-.441.938c-.291.398-.432.472-.717.623q-.427.225-.975.225-.532 0-.937-.171c-.405-.171-.502-.28-.695-.495v2.793h-.995V18.69h.909l.048.634a1.95 1.95 0 0 1 .7-.55q.413-.19.954-.191.56 0 .988.22.43.22.72.613c.29.393.34.573.44.937q.15.545.15 1.195zm-.993-.113q0-.424-.094-.809a2.1 2.1 0 0 0-.29-.676 1.5 1.5 0 0 0-.497-.465 1.43 1.43 0 0 0-.72-.172q-.48 0-.803.223-.326.224-.518.572v2.799q.193.343.515.561.322.217.817.217.413 0 .714-.174.3-.175.494-.47c.194-.295.224-.424.288-.682q.093-.388.094-.811z"/><path fill="none" stroke="#000" stroke-linecap="round" stroke-linejoin="round" d="M25.41 40.12h12.06a7.455 7.455 0 0 0 7.456-7.455v-20.09A7.455 7.455 0 0 0 37.47 5.12H17.38a7.455 7.455 0 0 0-7.455 7.455v12.077"/><g fill="none" stroke="#000" stroke-linejoin="round"><path d="M11.324 34.843h6v5.501h-6zM16.571 34.843v-1.57c0-1.305-1.004-2.357-2.247-2.357s-2.247 1.052-2.247 2.356v1.571"/></g></svg>