<svg xmlns="http://www.w3.org/2000/svg" data-name="Isolation Mode" viewBox="0 0 50 50"><circle cx="26.606" cy="22.495" r="2.333"/><path fill="none" stroke="#000" stroke-linecap="round" stroke-linejoin="round" d="m11.791 18.7 14.815 3.795M38.99 18.438c.418 1.276.644 2.64.644 4.057m-3.31-8.676a13 13 0 0 1 1.63 2.273m-24.376 6.403c0-7.196 5.832-13.028 13.028-13.028 2.92 0 5.614.96 7.787 2.582"/><circle cx="13.504" cy="35.755" r="9.25" fill="none" stroke="#000" stroke-linecap="round" stroke-linejoin="round"/><path fill="none" stroke="#000" stroke-linecap="round" stroke-miterlimit="10" d="M9.318 25.23a17.6 17.6 0 0 1-.212-2.735c0-9.665 7.835-17.5 17.5-17.5s17.5 7.835 17.5 17.5-7.835 17.5-17.5 17.5q-.963 0-1.9-.102"/><path d="M15.585 33.281c.49 0 .888.421.888.94s-.399.938-.888.938c-.499 0-.889-.412-.889-.939s.39-.939.889-.939m-4.193 0c.49 0 .888.421.888.94s-.399.938-.888.938c-.514 0-.916-.412-.916-.939s.402-.939.916-.939m4.193-.75c-.917 0-1.639.745-1.639 1.69 0 .944.722 1.688 1.639 1.688.888 0 1.638-.744 1.638-1.689 0-.944-.75-1.689-1.638-1.689m-4.193 0c-.917 0-1.666.745-1.666 1.69 0 .944.75 1.688 1.666 1.688.888 0 1.638-.744 1.638-1.689 0-.944-.75-1.689-1.638-1.689"/><path fill="none" stroke="#000" stroke-miterlimit="10" stroke-width=".75" d="M17.733 40.755H9.188a.726.726 0 0 1-.711-.736l.033-8.528c0-.405.32-.736.71-.736h8.546c.39 0 .71.331.71.736l-.032 8.528c0 .405-.32.736-.711.736Z"/><path fill="none" stroke="#000" stroke-linecap="round" stroke-linejoin="round" stroke-width=".75" d="m9.726 37.035 1.48 2.01 1.449-2.01 1.575 2.01 1.572-2.01 1.42 2.01"/><path fill="none" stroke="#000" stroke-linecap="round" stroke-miterlimit="10" stroke-width=".75" d="M19.999 33.755v4M7.01 33.755v4"/></svg>