<svg xmlns="http://www.w3.org/2000/svg" viewBox="0 0 50 50"><path d="M27.424 24.328a1.83 1.83 0 0 1-1.762-1.334 1.82 1.82 0 0 1 .163-1.392 1.833 1.833 0 0 1 3.364.394 1.836 1.836 0 0 1-1.766 2.333"/><path d="M27.428 21.161q.344.001.648.17a1.335 1.335 0 0 1-.652 2.497q-.345 0-.648-.17a1.334 1.334 0 0 1 .652-2.497m0-1a2.332 2.332 0 1 0-.005 4.665 2.332 2.332 0 0 0 .005-4.665"/><path fill="none" stroke="#000" stroke-linecap="round" stroke-linejoin="round" d="m42.511 19.982-15.085 2.513M39.81 18.438c.418 1.276.644 2.64.644 4.057m-3.31-8.676a13 13 0 0 1 1.63 2.273m-24.377 6.403c0-7.196 5.833-13.028 13.029-13.028 2.92 0 5.614.96 7.787 2.582"/><circle cx="14.324" cy="35.755" r="9.25" fill="none" stroke="#000" stroke-linecap="round" stroke-linejoin="round"/><g fill="none" stroke="#000" stroke-linecap="round" stroke-linejoin="round"><path d="M14.324 31.755v8M18.324 35.755h-8"/></g><path fill="none" stroke="#000" stroke-linecap="round" stroke-miterlimit="10" d="M10.138 25.23a17.6 17.6 0 0 1-.212-2.735c0-9.665 7.835-17.5 17.5-17.5s17.5 7.835 17.5 17.5-7.835 17.5-17.5 17.5q-.963 0-1.9-.102"/></svg>