<svg xmlns="http://www.w3.org/2000/svg" viewBox="0 0 50 50"><path fill="none" stroke="#000" stroke-linecap="round" stroke-miterlimit="10" d="M25 45.094V14.902M33.936 12.064h4.108l-.044.404a10.536 10.536 0 0 1-10.491 9.405H25v-.871c0-4.928 4.01-8.938 8.936-8.938ZM25 14.031v.871h-2.509A10.536 10.536 0 0 1 12 5.497l-.044-.403h4.108C20.99 5.094 25 9.104 25 14.03Zm8.936 11.729h4.108l-.044.404a10.536 10.536 0 0 1-10.49 9.406H25v-.87c0-4.929 4.01-8.938 8.936-8.938ZM25 27.728v.87h-2.509A10.536 10.536 0 0 1 12 19.195l-.044-.404h4.108C20.99 18.79 25 22.8 25 27.728Z"/></svg>