<svg xmlns="http://www.w3.org/2000/svg" viewBox="0 0 50 50"><g fill="none" stroke="#000" stroke-miterlimit="10"><circle cx="9.465" cy="34.102" r="1.25"/><circle cx="11.627" cy="26.587" r="1.25"/><circle cx="17.187" cy="28.306" r="1.25"/><circle cx="20.732" cy="22.506" r="1.25"/><circle cx="27.95" cy="31.012" r="1.25"/><circle cx="30.45" cy="21.389" r="1.25"/><circle cx="40.535" cy="23.669" r="1.25"/><path d="m9.807 32.906 1.356-5.16M12.784 27.056l3.194.945M17.848 27.247l2.134-3.747M21.482 23.5l5.585 6.629M28.26 29.805l1.855-7.214M31.64 21.756l7.674 1.648"/></g><path fill="none" stroke="#000" stroke-linecap="round" stroke-linejoin="round" d="M4.966 15.414h40.068V9.711H4.966zV40.29h40.068V15.414M7.828 12.563h2.862M13.552 12.563h2.862M19.276 12.563h2.862"/><path d="M42.172 11.563a1 1 0 1 0 0 2 1 1 0 0 0 0-2"/></svg>