<svg xmlns="http://www.w3.org/2000/svg" viewBox="0 0 50 50"><path fill="none" stroke="#000" stroke-linecap="round" stroke-linejoin="round" d="M35 35h3.61A6.39 6.39 0 0 0 45 28.61V11.39A6.39 6.39 0 0 0 38.61 5H21.39A6.39 6.39 0 0 0 15 11.39V15"/><path fill="none" stroke="#000" stroke-linecap="round" stroke-miterlimit="10" d="M34.332 18.543c.428.857.668 1.824.668 2.848v17.218A6.39 6.39 0 0 1 28.61 45H11.39A6.39 6.39 0 0 1 5 38.61V21.39A6.39 6.39 0 0 1 11.39 15h17.22c1.043 0 2.028.25 2.898.694"/><g fill="none" stroke="#000" stroke-linecap="round" stroke-linejoin="round" data-name="Group 13221"><path d="m29.649 20.46 9.931-9.931" data-name="Line 154"/><path d="M39.58 19.093v-8.564h-8.564" data-name="Path 60447"/></g><g fill="none" stroke="#000" stroke-linecap="round" stroke-linejoin="round"><circle cx="20" cy="30.042" r="5.31"/><path d="m25.965 21.58-.892 2.62.104.09q.397.358.732.757l2.578-.936"/><path d="m25.073 24.2.892-2.62a10.3 10.3 0 0 0-1.574-.918l-1.766 2.1m6.772 2.926-2.082 1.826q.184.538.289 1.092l2.704.456M27.315 27.514l2.082-1.826a10.3 10.3 0 0 0-.91-1.577l-2.578.936m-4.494-2.614-.558-2.71a10.4 10.4 0 0 0-1.822.01l-.46 2.704"/><path d="m20.857 19.724.558 2.71q.615.113 1.21.328l1.766-2.1m-1.859 16.693 1.828 2.081a10.3 10.3 0 0 0 1.576-.91L25 35.948M15.66 20.64l1.823 2.084a8 8 0 0 1 1.093-.287l.459-2.704m8.575 11.713 2.71-.562q.073-.912-.012-1.822l-2.704-.456"/><path d="m28.466 36.001-2.622-.89q-.045.054-.092.107-.357.395-.753.73l.937 2.578"/><path d="m25.844 35.111 2.622.89q.534-.756.916-1.574l-2.1-1.765"/><path d="m30.32 30.884-2.71.562a8 8 0 0 1-.328 1.216l2.1 1.765M18.6 37.653l.564 2.708a10.4 10.4 0 0 0 1.822-.012l.454-2.705m-7.42.849.897-2.62-.093-.08a8 8 0 0 1-.742-.767l-2.58.93"/><path d="m14.917 35.873-.897 2.62q.756.536 1.572.92l1.77-2.096m1.802 3.044-.564-2.708a8 8 0 0 1-1.238-.336l-1.77 2.096m8.768.023-1.828-2.081q-.536.185-1.092.29l-.454 2.704m-8.304-7.794-2.087 1.823q.38.822.907 1.579l2.58-.931m-2.536-10.96 2.62.895.082-.096a8 8 0 0 1 .765-.739l-.932-2.58"/><path d="M17.483 22.724 15.66 20.64q-.822.379-1.579.908l.932 2.58m-.847.833-2.62-.895q-.535.757-.919 1.573l2.097 1.769m-.331 1.215-2.71.557q-.076.912.009 1.822l2.703.46m-1.8 2.916 2.087-1.823a8 8 0 0 1-.287-1.092l-2.703-.461"/><path d="m9.683 29.18 2.71-.557a8 8 0 0 1 .331-1.215l-2.097-1.77"/></g></svg>