<svg xmlns="http://www.w3.org/2000/svg" viewBox="0 0 50 50"><path d="M39.07 13.567a.5.5 0 0 0-.224.67 6.9 6.9 0 0 1 .726 3.1v20.086a6.963 6.963 0 0 1-6.955 6.955H12.531a6.963 6.963 0 0 1-6.955-6.955V17.336a6.96 6.96 0 0 1 6.955-6.954h20.086a6.9 6.9 0 0 1 3.154.754.5.5 0 0 0 .456-.89 7.9 7.9 0 0 0-3.61-.864H12.531c-4.386 0-7.955 3.568-7.955 7.954v20.087c0 4.387 3.569 7.955 7.955 7.955h20.086c4.387 0 7.955-3.568 7.955-7.955V17.336c0-1.245-.28-2.438-.832-3.544a.5.5 0 0 0-.67-.225"/><path d="M16.148 25.737q-.607 0-1.098.118a2.5 2.5 0 0 0-.841.357q-.348.24-.54.599-.19.36-.19.838 0 .365.142.68.143.314.402.542.261.228.634.362.374.135.836.135a2.35 2.35 0 0 0 1.012-.22q.224-.103.408-.237.186-.134.336-.285.016.183.05.352.035.17.096.282h1.036v-.086a2.8 2.8 0 0 1-.15-.566 4 4 0 0 1-.054-.615V25.29q0-.489-.177-.854c-.177-.365-.28-.447-.487-.61a2.1 2.1 0 0 0-.733-.365 3.3 3.3 0 0 0-.918-.12q-.543 0-.97.15t-.725.394q-.297.245-.456.551c-.16.306-.16.412-.164.623h.999q0-.184.089-.352.088-.17.25-.292c.162-.122.238-.149.394-.2q.233-.075.53-.074.315 0 .57.08.257.08.433.229.177.147.275.357c.098.21.096.297.096.472v.457zm1.085 1.88a1.4 1.4 0 0 1-.236.33q-.15.159-.357.282a1.6 1.6 0 0 1-.46.199q-.252.075-.542.075c-.29 0-.364-.025-.51-.075a1 1 0 0 1-.365-.207.8.8 0 0 1-.218-.314 1.1 1.1 0 0 1-.072-.398q0-.553.483-.81c.483-.258.773-.259 1.354-.259h.923zm6.558-4.055a2.14 2.14 0 0 0-.988-.22q-.544 0-.954.19a1.95 1.95 0 0 0-.7.55l-.05-.633h-.907v8.046h.994v-2.793q.29.323.695.494.405.172.937.172.548 0 .975-.226.427-.225.718-.623c.29-.398.34-.577.44-.937q.15-.54.15-1.163v-.113q0-.65-.15-1.195t-.44-.937c-.29-.392-.434-.466-.72-.612m.316 2.857q0 .424-.093.811c-.093.387-.159.485-.287.682s-.294.354-.495.47a1.4 1.4 0 0 1-.714.175q-.495 0-.817-.218a1.64 1.64 0 0 1-.515-.561v-2.799q.192-.348.518-.571.325-.224.803-.223.42 0 .72.171t.497.465q.195.292.29.677.093.384.093.808zm3.637-2.97h-.908v8.046h.994v-2.793q.29.323.695.494c.405.17.583.172.938.172q.547 0 .975-.226.427-.225.716-.623c.29-.398.341-.577.44-.937q.151-.54.151-1.163v-.113q0-.65-.15-1.195t-.44-.937c-.29-.392-.433-.466-.72-.612a2.1 2.1 0 0 0-.989-.22q-.541 0-.953.19a1.95 1.95 0 0 0-.701.55zm.086 1.53q.194-.348.519-.571.323-.224.802-.223.42 0 .72.171t.497.465q.195.292.29.677.094.384.094.808v.113q0 .424-.094.811-.095.387-.288.682c-.193.295-.293.354-.494.47q-.3.175-.714.175-.494 0-.816-.218a1.64 1.64 0 0 1-.516-.561zM45.462 4.81A.5.5 0 0 0 45 4.5H35a.5.5 0 1 0 0 1h8.793L29.646 19.646a.5.5 0 1 0 .708.708L44.5 6.207V15a.5.5 0 1 0 1 0V5a.5.5 0 0 0-.038-.19"/></svg>