<svg xmlns="http://www.w3.org/2000/svg" data-name="Layer 1" viewBox="0 0 50 50"><path fill="none" stroke="#000" stroke-miterlimit="10" d="M17.124 29.5a.9.9 0 0 0 .345.34l7.062 4.034a.93.93 0 0 0 .938 0l7.062-4.035a.92.92 0 0 0 .469-.804v-8.07a.91.91 0 0 0-.47-.804l-7.061-4.034a.93.93 0 0 0-.938 0L17.47 20.16a.92.92 0 0 0-.47.804v8.07a.9.9 0 0 0 .124.465M25 15.991v-4"/><circle cx="25" cy="7.991" r="4" fill="none" stroke="#000" stroke-miterlimit="10"/><path fill="none" stroke="#000" stroke-miterlimit="10" d="M25 34v4"/><circle cx="25" cy="42" r="4" fill="none" stroke="#000" stroke-miterlimit="10"/><circle cx="39.985" cy="33.694" r="3" fill="none" stroke="#000" stroke-miterlimit="10"/><path fill="none" stroke="#000" stroke-miterlimit="10" d="m32.876 29.5 4.56 2.553"/><circle cx="9.891" cy="16.372" r="3" fill="none" stroke="#000" stroke-miterlimit="10"/><path fill="none" stroke="#000" stroke-miterlimit="10" d="m17 20.566-4.56-2.554"/><circle cx="40.023" cy="16.438" r="3" fill="none" stroke="#000" stroke-miterlimit="10"/><path fill="none" stroke="#000" stroke-miterlimit="10" d="m32.808 20.447 4.51-2.641"/><circle cx="9.853" cy="33.628" r="3" fill="none" stroke="#000" stroke-miterlimit="10"/><path fill="none" stroke="#000" stroke-miterlimit="10" d="m17.068 29.619-4.51 2.641"/></svg>