<svg xmlns="http://www.w3.org/2000/svg" viewBox="0 0 50 50"><path fill="none" stroke="#000" stroke-linecap="round" stroke-linejoin="round" d="m25.423 33.64 2.951 2.952M37.383 43.035c.671.672.639 1.792-.072 2.504h0c-.712.711-1.833.744-2.504.072l-6.504-6.514c-.671-.671-.639-1.792.073-2.504h0c.711-.711 1.832-.744 2.503-.072z"/><g fill="none" stroke="#000" stroke-linecap="round" stroke-linejoin="round"><g stroke-width=".75"><path d="M15.307 28.454c.793.657 1.807 1.592 2.619 2.655m4.961-6.141a28 28 0 0 0-4.158-3.675m-4.372 6.417a12 12 0 0 0-.35-.25 3.88 3.88 0 0 1-.592-5.973 3.9 3.9 0 0 1 4.281-.818"/><path d="M11.093 25.29a5.17 5.17 0 0 1 1.408-4.718 5.15 5.15 0 0 1 2.828-1.438m1.205-.057a5.15 5.15 0 0 1 2.472.834c.089.059 1.153.767 2.52 1.949m-10.052 4.577a5.1 5.1 0 0 0 1.809 2.095c.018.013 1.272.87 2.495 2.093m-2.2-6.283a2.58 2.58 0 0 0 1.152 2.046c.03.02 3.03 2.038 4.72 4.639m1.785-5.917a21 21 0 0 1 1.781 2.01m-9.212-3.954a2.6 2.6 0 0 1 .196-.36q.145-.22.33-.405a2.6 2.6 0 0 1 3.252-.33c.091.06 1.314.875 2.776 2.204m-2.76 2.735c1.022.91 2.203 2.126 3.056 3.497q.03.046.062.088"/><path d="M16.677 26.23a19 19 0 0 0-1.232-.92 1.294 1.294 0 0 1 1.425-2.159c.15.098 3.533 2.35 5.697 5.553"/><path d="M19.673 27.208c-1.749-1.812-3.515-2.977-3.515-2.977m4.327 3.871c.455.537.89 1.114 1.268 1.722"/></g><circle cx="17" cy="25.093" r="12"/><circle cx="17" cy="25.093" r="9"/></g><g fill="none" stroke="#000" stroke-linecap="round" stroke-linejoin="round"><path d="M37.866 44.093H45v-29l-11-11H15v9.166M15 36.927v7.166h18.291"/><path d="M34 4.093v11h11"/></g></svg>