<svg xmlns="http://www.w3.org/2000/svg" viewBox="0 0 50 50"><g fill="none" stroke="#000" stroke-linecap="round" stroke-linejoin="round"><path d="M28.96 10.528C35.323 12.265 40 18.086 40 25c0 1.896-.352 3.71-.994 5.38M11.63 18.194C14.11 13.33 19.166 10 25 10m-3.967 29.47C14.674 37.73 10 31.91 10 25c0-1.041.106-2.057.308-3.038M37.09 33.881A14.98 14.98 0 0 1 25 40"/><path d="M25 15c5.523 0 10 4.477 10 10s-4.477 10-10 10-10-4.477-10-10c0-4.135 2.51-7.684 6.09-9.206"/><path d="M21.36 28.428A5 5 0 1 1 25 30M25 15v-5M25 45v-5M25 35v-5M36.859 15.76l3.536-3.536M32.994 31.013l4.096 2.868M10 25H5"/></g><path d="M25 24.005a.996.996 0 0 1 0 1.99.996.996 0 0 1 0-1.99m0-1a1.995 1.995 0 1 0 0 3.99 1.995 1.995 0 0 0 0-3.99"/><path fill="none" stroke="#000" stroke-linecap="round" stroke-linejoin="round" d="M9.59 37.749A19.92 19.92 0 0 1 5 25C5 13.954 13.954 5 25 5c4.753 0 9.12 1.658 12.55 4.428M25 45a19.92 19.92 0 0 1-12.569-4.442m27.96-28.33A19.92 19.92 0 0 1 45 25c0 9.682-6.88 17.757-16.017 19.603"/></svg>