<svg xmlns="http://www.w3.org/2000/svg" viewBox="0 0 50 50"><circle cx="25" cy="25.094" r="10" fill="none" stroke="#000" stroke-linecap="round" stroke-linejoin="round"/><g fill="none" stroke="#000" stroke-linecap="round" stroke-linejoin="round" data-name="Group 13221"><path d="m20.774 29.32 8.452-8.453" data-name="Line 154"/><path d="M29.226 27.207v-6.34h-6.34" data-name="Path 60447"/></g><g fill="none" stroke="#000" stroke-linecap="round" stroke-linejoin="round"><path d="M36.521 8.746 34.8 13.811c.067.058.135.112.2.171q.767.694 1.415 1.462l4.98-1.808m-6.596.174 1.722-5.064a20 20 0 0 0-3.04-1.77L30.07 11.03m13.082 5.653L39.13 20.21q.357 1.038.558 2.11l5.224.88"/><path d="m39.129 20.211 4.023-3.528a20 20 0 0 0-1.758-3.047l-4.98 1.808m-8.681-5.048-1.08-5.234a20 20 0 0 0-3.518.019l-.888 5.222m4.407-5.241 1.079 5.234c.79.147 1.572.36 2.336.634l3.412-4.055M29.89 39.22l3.531 4.022a20 20 0 0 0 3.045-1.76l-1.81-4.98M16.615 6.93l3.522 4.028a15 15 0 0 1 2.11-.555l.888-5.222M39.7 27.807l5.234-1.087c.095-1.172.088-2.35-.023-3.519l-5.224-.88"/><path d="m41.354 36.606-5.066-1.72c-.06.07-.116.14-.177.208-.459.51-.947.976-1.455 1.408l1.81 4.98"/><path d="m36.288 34.887 5.066 1.719a20 20 0 0 0 1.77-3.04l-4.058-3.41m5.868-3.436-5.233 1.087c-.146.794-.359 1.58-.635 2.348l4.057 3.41m-20.828 6.231 1.09 5.232a20 20 0 0 0 3.518-.024l.878-5.225M13.447 41.42l1.732-5.062c-.06-.052-.12-.1-.179-.153-.52-.467-.994-.965-1.433-1.484L8.583 36.52"/><path d="m15.18 36.358-1.733 5.061c.972.69 1.988 1.282 3.037 1.776l3.42-4.048"/><path d="m23.385 45.028-1.09-5.232a15 15 0 0 1-2.391-.65l-3.42 4.05m16.937.046-3.53-4.022a15 15 0 0 1-2.11.56l-.878 5.224M10.862 29.949l-4.03 3.52a20 20 0 0 0 1.751 3.05l4.984-1.798M8.668 13.55l5.062 1.73c.054-.062.104-.125.159-.186.465-.517.96-.99 1.477-1.428l-1.8-4.983"/><path d="M20.137 10.958 16.615 6.93a20 20 0 0 0-3.05 1.753l1.801 4.983M13.73 15.28l-5.062-1.73a20 20 0 0 0-1.774 3.038l4.05 3.417m-.64 2.348-5.235 1.076a20 20 0 0 0 .017 3.519l5.222.89M6.832 33.47l4.03-3.521a15 15 0 0 1-.554-2.11l-5.222-.891"/><path d="m5.069 23.43 5.235-1.077q.222-1.194.64-2.348l-4.05-3.417"/></g></svg>