<svg xmlns="http://www.w3.org/2000/svg" viewBox="0 0 50 50"><circle cx="11.25" cy="25" r="6.25" fill="none" stroke="#000" stroke-linejoin="round"/><rect width="12.5" height="12.5" x="32.5" y="5" fill="none" stroke="#000" stroke-linejoin="round" rx=".5" ry=".5"/><rect width="12.5" height="12.5" x="32.5" y="32.5" fill="none" stroke="#000" stroke-linejoin="round" rx=".5" ry=".5"/><g fill="none" stroke="#000" stroke-linecap="round" stroke-linejoin="round"><path d="M26.057 42.693 30 38.75M26.016 34.766 30 38.75M15 38.75h15M11.25 35v-1.25M15 38.75A3.75 3.75 0 0 1 11.25 35"/></g><g fill="none" stroke="#000" stroke-linecap="round" stroke-linejoin="round"><path d="M26.057 7.306 30 11.249M26.016 15.233 30 11.249M15 11.249h15M11.25 14.999v1.25M15 11.249a3.75 3.75 0 0 0-3.75 3.75"/></g></svg>