<svg xmlns="http://www.w3.org/2000/svg" viewBox="0 0 50 50"><path fill="none" stroke="#000" stroke-linecap="round" stroke-linejoin="round" d="M34.535 9.54q-1.006.05-2.006.087l-.003-.008-4.796-3.685c-1.584-1.217-3.491-1.246-5.093-.077l-5.166 3.77q-1-.037-2.006-.086c-3.79-.189-6.747-1.264-6.747 3.932s.703 13.62.703 13.62-.422 6.32 6.887 11.656C22.596 43.339 24.976 45 24.976 45h0s2.428-1.661 8.716-6.251c7.309-5.336 6.887-11.655 6.887-11.655s.703-8.426.703-13.621-2.957-4.12-6.747-3.932"/><g fill="none" stroke="#000"><path stroke-linecap="round" stroke-linejoin="round" d="M30.37 18.692h.001l-6.983 10.564-3.76-4.989"/><circle cx="25" cy="23.974" r="10.256" stroke-miterlimit="10"/></g></svg>