<svg xmlns="http://www.w3.org/2000/svg" data-name="Isolation Mode" viewBox="0 0 50 50"><g fill="none" stroke="#231f20" stroke-linecap="round" stroke-linejoin="round"><path d="m11.177 46.478-.109-7.07 7.07-.134M38.805 3.522l.11 7.07-7.071.134"/><path d="M8.876 36.889C3.19 29.185 3.742 18.259 10.64 11.12c7.69-7.957 20.352-8.197 28.281-.536m2.202 2.511c5.686 7.704 5.133 18.629-1.766 25.768-7.69 7.957-20.351 8.197-28.28.536"/></g><g fill="none" stroke="#231f20" stroke-linecap="round" stroke-linejoin="round"><path d="M27.323 23.851c1.529-1.123 2.567-3.32 2.567-5.847 0-3.668-2.189-5.055-4.888-5.055-2.7 0-4.888 1.387-4.888 5.055 0 2.528 1.038 4.725 2.567 5.848"/><path d="m14.64 35.051 1.714-7.665c.21-.722.679-1.34 1.318-1.737 0 0 2.061-1.296 5.008-1.798.69.508 1.481.84 2.322.84.84 0 1.63-.332 2.321-.84"/><path d="m35.36 35.051-1.714-7.665a3.05 3.05 0 0 0-1.318-1.737s-2.061-1.296-5.008-1.798m7.87-.251c.781-.561 1.313-1.66 1.313-2.923 0-1.834-1.12-2.528-2.501-2.528s-2.501.694-2.501 2.528c0 1.264.531 2.362 1.313 2.924"/><path d="M32.814 23.6c.353.254.758.42 1.188.42s.834-.166 1.188-.42"/><path d="m39.302 29.2-.877-3.832a1.53 1.53 0 0 0-.675-.869s-1.055-.648-2.562-.899m-20.378 0c-.781-.561-1.313-1.66-1.313-2.923 0-1.834 1.12-2.528 2.501-2.528s2.501.694 2.501 2.528c0 1.264-.531 2.362-1.313 2.924"/><path d="M17.186 23.6c-.353.254-.758.42-1.188.42s-.834-.166-1.188-.42"/><path d="m10.698 29.2.877-3.832c.108-.361.348-.67.675-.869 0 0 1.055-.648 2.562-.899"/></g></svg>