<svg xmlns="http://www.w3.org/2000/svg" data-name="Isolation Mode" viewBox="0 0 50 50"><g fill="none" stroke="#000" stroke-linecap="round" stroke-linejoin="round"><path d="m30.5 39 6.5-6.5-13-13-6.5 6.5 3.25 3.25 1.95-1.95.65.65.65.65 3.25 3.25 1.3 1.3-1.3 1.3-.65.65z"/><path d="M29.2 40.3 24 45.5l-13-13 5.2-5.2 3.25 3.25 1.3 1.3 1.3-1.3.65-.65 3.25 3.25L24 35.1l.65.65.65.65z"/></g><path fill="none" stroke="#000" stroke-linecap="round" stroke-linejoin="round" d="M9 32.5c-3.49 0-6-2.797-6-6.247 0-3.441 2.814-6.231 6.291-6.246q0 0 0 0c0-5.13 4.205-9.287 9.391-9.287 1.38 0 2.69.297 3.87.826C24.116 7.43 28.13 4.5 32.839 4.5c6.065 0 10.982 4.862 10.982 10.86 0 .978-.133 1.926-.378 2.828C45.584 19.582 47 21.978 47 24.702c0 4.013-3.06 7.356-7 7.788l-1 .01"/><rect width="11" height="11" x="28" y="9.5" fill="none" stroke="#000" stroke-linecap="round" stroke-linejoin="round" stroke-width=".75" rx="2.357" ry="2.357"/><path d="M31.264 15.969a.6.6 0 0 1-.04-.115 2 2 0 0 1-.029-.141.97.97 0 0 1-.51.28 1 1 0 0 1-.234.025q-.21 0-.38-.06c-.17-.06-.21-.096-.29-.166a.74.74 0 0 1-.253-.563q0-.426.317-.649.315-.225.906-.225h.428v-.173a.42.42 0 0 0-.142-.333q-.142-.124-.4-.124-.117 0-.205.028c-.088.028-.108.045-.147.077s-.068.07-.088.115a.34.34 0 0 0-.029.14h-.584q0-.151.072-.298c.072-.147.118-.183.211-.259q.14-.112.341-.181.202-.069.46-.069.235 0 .435.058.2.057.346.17.147.114.23.284a.9.9 0 0 1 .083.397v1.176q0 .173.026.317a1 1 0 0 0 .074.248v.04zm-.703-.422a.8.8 0 0 0 .39-.102.6.6 0 0 0 .228-.223v-.495h-.371q-.357 0-.527.114c-.17.114-.17.185-.17.327q0 .08.028.15a.3.3 0 0 0 .082.12q.055.05.138.08t.202.029m4.06-.872q0 .288-.068.534a1.3 1.3 0 0 1-.2.427 1 1 0 0 1-.324.28.9.9 0 0 1-.441.102q-.224 0-.397-.074a.85.85 0 0 1-.296-.21v1.25h-.583v-3.657h.537l.024.267a.9.9 0 0 1 .302-.234.94.94 0 0 1 .406-.082q.251 0 .445.098.195.097.327.274c.132.177.154.26.2.425q.068.248.068.548zm-.584-.052q0-.177-.036-.335a.9.9 0 0 0-.112-.276q-.077-.118-.194-.187c-.117-.069-.17-.068-.278-.068a.6.6 0 0 0-.322.083.6.6 0 0 0-.2.223v1.181q.073.136.199.222c.126.086.193.085.328.085a.53.53 0 0 0 .47-.261q.075-.12.11-.278c.035-.158.035-.218.035-.337zm3.327.052q0 .288-.068.534a1.3 1.3 0 0 1-.2.427 1 1 0 0 1-.324.28.9.9 0 0 1-.44.102q-.225 0-.397-.074a.85.85 0 0 1-.297-.21v1.25h-.583v-3.657h.537l.024.267a.9.9 0 0 1 .302-.234.94.94 0 0 1 .406-.082q.252 0 .446.098.195.097.326.274c.13.177.154.26.2.425q.068.248.068.548zm-.584-.052q0-.177-.036-.335a.9.9 0 0 0-.112-.276q-.075-.118-.194-.187c-.119-.069-.17-.068-.278-.068a.6.6 0 0 0-.322.083.6.6 0 0 0-.2.223v1.181q.073.136.199.222c.126.086.193.085.328.085a.53.53 0 0 0 .47-.261q.075-.12.11-.278c.035-.158.035-.218.035-.337z"/></svg>