<svg xmlns="http://www.w3.org/2000/svg" viewBox="0 0 50 50"><g fill="none" stroke="#000" stroke-linecap="round" stroke-linejoin="round"><path d="M27 19.5H16v26h18v-19zv7h7"/><path d="m22 31.5-3 3 3 3M28 37.5l3-3-3-3M26 31.5l-2 6"/></g><path fill="none" stroke="#000" stroke-linecap="round" stroke-linejoin="round" d="M14 32.5H9.318C5.828 32.5 3 29.703 3 26.253c0-3.441 2.814-6.231 6.291-6.246q0 0 0 0c0-5.13 4.205-9.287 9.391-9.287 1.38 0 2.69.297 3.87.826C24.116 7.43 28.13 4.5 32.839 4.5c6.065 0 10.982 4.862 10.982 10.86 0 .978-.133 1.926-.378 2.828C45.584 19.582 47 21.978 47 24.702c0 4.013-3.06 7.356-7 7.788h-4"/></svg>