<svg xmlns="http://www.w3.org/2000/svg" viewBox="0 0 50 50"><path fill="none" stroke="#000" stroke-linecap="round" stroke-linejoin="round" d="M34.525 9.54q-1.006.05-2.004.087l-.003-.008-4.791-3.685c-1.582-1.217-3.488-1.246-5.088-.077l-5.16 3.77q-.998-.037-2.004-.086c-3.787-.189-6.74-1.264-6.74 3.932s.701 13.62.701 13.62-.42 6.32 6.881 11.656C22.598 43.339 24.976 45 24.976 45h0s2.426-1.661 8.707-6.251c7.302-5.336 6.88-11.655 6.88-11.655s.703-8.426.703-13.621-2.954-4.12-6.74-3.932"/><path fill="none" stroke="#000" stroke-linecap="round" stroke-linejoin="round" d="M31.873 29.168h.864a4.345 4.345 0 0 0 2.385-7.976 6.052 6.052 0 0 0-11.51-3.701 5.175 5.175 0 0 0-7.308 4.714v.001a3.48 3.48 0 0 0 .015 6.962zM22.492 29.168v5.414"/><path fill="none" stroke="#000" stroke-linecap="round" stroke-linejoin="round" stroke-width="1.025" d="M17.254 34.582h15.834"/></svg>