<svg xmlns="http://www.w3.org/2000/svg" data-name="Isolation Mode" viewBox="0 0 50 50"><path fill="none" stroke="#000" stroke-linecap="round" stroke-linejoin="round" d="M23 43.025h4M36 10.025V6a1 1 0 0 0-1-1H15a1 1 0 0 0-1 1v4.025m0 30v4.025a1 1 0 0 0 1 1h20a1 1 0 0 0 1-1v-4.025"/><rect width="22" height="32" x="14" y="9.025" fill="none" stroke="#000" stroke-linecap="round" stroke-linejoin="round" rx="1" ry="1"/><path d="M17 6.025a1 1 0 1 0 0 2 1 1 0 0 0 0-2"/><ellipse cx="25" cy="25.025" fill="none" stroke="#000" stroke-miterlimit="10" rx="7.71" ry="7.72"/><path fill="none" stroke="#000" stroke-linecap="round" stroke-linejoin="round" d="m28.515 20.719-6.958 8.607M21.421 20.719l6.958 8.607"/></svg>