<svg xmlns="http://www.w3.org/2000/svg" viewBox="0 0 50 50"><path d="M22.5 29.625h-5a.375.375 0 0 0 0 .75h5a.375.375 0 0 0 0-.75m5-2h-10a.375.375 0 0 0 0 .75h10a.375.375 0 0 0 0-.75M17.125 26c0 .207.168.375.375.375h10a.375.375 0 0 0 0-.75h-10a.375.375 0 0 0-.375.375"/><path d="M37.81 6.5H29a2.79 2.79 0 0 0-2.66-2h-7.68a2.795 2.795 0 0 0-2.733 2.25l-.594 2.955a6.4 6.4 0 0 1-.548 1.603l-.594 1.192h-.247C12.321 12.5 11 13.75 11 15.286v19.428c0 1.536 1.32 2.786 2.944 2.786h.246l.595 1.196c.253.508.437 1.047.548 1.605l.594 2.953A2.795 2.795 0 0 0 18.66 45.5h7.68a2.794 2.794 0 0 0 2.732-2.25l.595-2.954a6.4 6.4 0 0 1 .548-1.605l.594-1.191h.247c1.623 0 2.944-1.25 2.944-2.786V23.5h.5c.827 0 1.5-.583 1.5-1.3v-2.268h1.81c.656 0 1.19-.534 1.19-1.19V7.69c0-.656-.534-1.19-1.19-1.19m-22.13 5.254a7.4 7.4 0 0 0 .633-1.853l.595-2.956A1.79 1.79 0 0 1 18.66 5.5h7.68c.689 0 1.297.403 1.594 1h-6.919a1.19 1.19 0 0 0-1.19 1.19v4.81h-4.517zm5.335 8.178h2.805v3.679a.97.97 0 0 0 .382.796 1.124 1.124 0 0 0 1.353-.017c.277-.203.34-.252.666-.577.56-.56 1.551-1.563 2.566-2.59L30 19.995v12.29c0 .67-.573 1.214-1.277 1.214H16.278c-.705 0-1.278-.545-1.278-1.214V17.714c0-.67.573-1.214 1.278-1.214h3.546v2.241c0 .657.534 1.191 1.191 1.191m8.305 18.314a7.4 7.4 0 0 0-.633 1.853l-.595 2.956A1.79 1.79 0 0 1 26.34 44.5h-7.68a1.794 1.794 0 0 1-1.752-1.442l-.595-2.954a7.4 7.4 0 0 0-.633-1.853l-.373-.751h14.385zM33 34.714c0 .985-.872 1.786-1.944 1.786H13.944c-1.072 0-1.944-.8-1.944-1.786V15.286c0-.985.872-1.786 1.944-1.786h5.88v2h-3.546c-1.256 0-2.278.993-2.278 2.214v14.572c0 1.22 1.022 2.214 2.278 2.214h12.445c1.256 0 2.277-.993 2.277-2.214V19.932h2zM35 22.2c0 .142-.214.3-.5.3H34v-2.568h1zm3-3.459a.193.193 0 0 1-.19.191h-8.164l-1.57 1.588c-1.014 1.025-2.004 2.027-2.563 2.585-.28.28-.317.308-.56.487-.023.016-.08.063-.133.04v-4.7h-3.805a.193.193 0 0 1-.19-.19V7.69c0-.103.087-.19.19-.19H37.81c.103 0 .19.087.19.19z"/><path d="M24.957 12.582v-1.485c.67.116.698.53.718.904v.004c.011.207.19.345.395.352a.377.377 0 0 0 .354-.397c-.02-.372-.095-1.43-1.467-1.61v-.094a.375.375 0 0 0-.75 0v.088c-.428.055-.783.193-1.034.447a1.35 1.35 0 0 0-.381.975c.009.678.268 1.158 1.415 1.422v1.653c-.658-.143-.813-.649-.813-1.086a.375.375 0 0 0-.75 0c0 .817.424 1.68 1.563 1.843v.341a.375.375 0 0 0 .75 0v-.335c1.34-.141 1.56-1.018 1.585-1.417.054-.858-.43-1.346-1.585-1.605m-1.415-.832a.6.6 0 0 1 .166-.433c.11-.112.288-.177.499-.215v1.318c-.65-.175-.662-.397-.665-.67m2.251 2.39c-.01.162-.039.614-.836.72v-1.513c.871.223.853.524.836.794m4.052-1.559v-1.485c.67.116.697.53.718.903v.005c.011.207.156.36.395.352a.377.377 0 0 0 .354-.398c-.02-.371-.095-1.428-1.467-1.608v-.095a.375.375 0 0 0-.75 0v.081c-.433.05-.783.2-1.033.454a1.35 1.35 0 0 0-.382.974c.009.68.268 1.16 1.415 1.423v1.653c-.657-.143-.813-.649-.813-1.086a.375.375 0 0 0-.75 0c0 .817.424 1.68 1.563 1.843v.341a.375.375 0 0 0 .75 0v-.335c1.337-.141 1.56-1.017 1.586-1.418.052-.857-.432-1.345-1.586-1.604m-1.415-.832a.6.6 0 0 1 .166-.433c.11-.11.29-.172.499-.21v1.313c-.651-.175-.662-.397-.665-.67m2.253 2.39c-.01.162-.041.614-.838.72v-1.513c.87.223.854.524.838.793m4.049-1.558v-1.485c.67.116.698.529.72.902v.007c.01.206.18.358.395.35a.38.38 0 0 0 .353-.399c-.02-.371-.098-1.426-1.468-1.606v-.095a.375.375 0 0 0-.75 0v.08c-.447.051-.78.198-1.034.456-.252.256-.39.613-.38.973.01.68.268 1.16 1.414 1.423v1.653c-.657-.143-.812-.649-.812-1.086a.375.375 0 0 0-.75 0c0 .817.424 1.68 1.562 1.843v.341a.375.375 0 0 0 .75 0v-.335c1.34-.141 1.562-1.018 1.586-1.418.052-.857-.432-1.345-1.586-1.604m-1.414-.832a.6.6 0 0 1 .165-.433c.114-.116.274-.184.5-.22v1.323c-.65-.175-.661-.397-.665-.67m2.252 2.39c-.01.162-.04.614-.838.72v-1.513c.872.223.854.524.838.794"/></svg>