<svg xmlns="http://www.w3.org/2000/svg" viewBox="0 0 50 50"><g fill="none" stroke="#000" stroke-linecap="round" stroke-linejoin="round"><path d="M16.752 17.888h16.496M16.752 20.61h16.496M23.704 23.332h9.544"/></g><g data-name="Isolation Mode"><path fill="none" stroke="#000" stroke-linecap="round" stroke-linejoin="round" d="M23 43.025h4M36 10.025V6a1 1 0 0 0-1-1H15a1 1 0 0 0-1 1v4.025m0 30v4.025a1 1 0 0 0 1 1h20a1 1 0 0 0 1-1v-4.025"/><rect width="22" height="32" x="14" y="9.025" fill="none" stroke="#000" stroke-linecap="round" stroke-linejoin="round" rx="1" ry="1"/><path d="M17 6.025a1 1 0 1 0 0 2 1 1 0 0 0 0-2"/></g></svg>