<svg xmlns="http://www.w3.org/2000/svg" data-name="Isolation Mode" viewBox="0 0 50 50"><g fill="none" stroke="#000"><g stroke-linecap="round" stroke-linejoin="round"><path d="M30.744 35.029a10.37 10.37 0 0 1-13.11-1.334c-4.067-4.094-4.067-10.732 0-14.826m1.622-1.334a10.37 10.37 0 0 1 13.11 1.334c4.067 4.094 4.067 10.732 0 14.826"/><path d="M13.469 18.869h4.166v4.193M36.531 33.695h-4.166v-4.193M21.382 41.208H15.24M21.382 36.115v5.093"/><circle cx="13.74" cy="41.208" r="1.5"/><path d="M28.618 41.208h6.142M28.618 36.114v5.094"/><circle cx="36.26" cy="41.208" r="1.5"/><path d="M25.013 36.765v7.487"/><circle cx="25.013" cy="45.752" r="1.5"/></g><path stroke-linecap="round" stroke-linejoin="round" d="m28.294 21.422-.693.03v-.003l-1.658-1.274c-.547-.42-1.206-.43-1.76-.026L22.4 21.45q-.346-.012-.693-.03c-1.31-.065-2.331-.436-2.331 1.359s.242 4.706.242 4.706-.145 2.183 2.38 4.027a206 206 0 0 0 2.995 2.16h0s.839-.574 3.01-2.16c2.526-1.844 2.38-4.027 2.38-4.027s.243-2.91.243-4.706c0-1.795-1.021-1.424-2.33-1.358"/><path stroke-linecap="round" stroke-linejoin="round" d="m26.513 25.101-2.07 3.132-1.299-1.723"/><circle cx="25" cy="26.408" r="3.544" stroke-miterlimit="10"/></g><g fill="none" stroke="#000" stroke-linecap="round" stroke-linejoin="round"><path d="m13.496 31.905-2.487.004c-3.303.003-5.984-2.643-5.987-5.91-.003-3.258 2.659-5.902 5.95-5.919v-.001c-.004-4.856 3.973-8.796 8.884-8.8a8.9 8.9 0 0 1 3.666.778c1.475-3.899 5.274-6.677 9.732-6.681 5.743-.006 10.403 4.593 10.409 10.272 0 .927-.125 1.824-.356 2.678 2.029 1.318 3.372 3.585 3.375 6.166.003 4.077-3.337 7.386-7.46 7.39l-2.002.002M26.888 3.605a7.4 7.4 0 0 1 2.558 2.22"/><path d="M26.888 3.605a7.46 7.46 0 0 0-3.488-.857c-3.17.003-5.873 1.97-6.922 4.73a6.4 6.4 0 0 0-2.608-.551c-3.493.003-6.322 2.792-6.319 6.23v0c-2.341.013-4.235 1.885-4.233 4.191.002 2.024 1.463 3.71 3.402 4.1"/></g></svg>