<svg xmlns="http://www.w3.org/2000/svg" viewBox="0 0 50 50"><path fill="none" stroke="#000" stroke-linecap="round" stroke-linejoin="round" d="M22.177 20.04h5.55c1.059 0 1.925.862 1.925 1.916v13.128A1.926 1.926 0 0 1 27.727 37H6.925A1.926 1.926 0 0 1 5 35.084V21.956c0-1.054.866-1.916 1.925-1.916h11.23"/><path fill="none" stroke="#000" stroke-linecap="round" stroke-linejoin="round" d="M27.575 29.96h-5.302a1.926 1.926 0 0 1-1.925-1.916V14.916c0-1.054.866-1.916 1.925-1.916h20.802c1.059 0 1.925.862 1.925 1.916v13.128a1.926 1.926 0 0 1-1.925 1.916h-11.69"/></svg>