<svg xmlns="http://www.w3.org/2000/svg" viewBox="0 0 50 50"><g fill="none" stroke="#000" stroke-linecap="round" stroke-linejoin="round"><ellipse cx="10.56" cy="37.144" rx="3.924" ry="3.962"/><ellipse cx="39.377" cy="37.144" rx="3.924" ry="3.962"/><path d="M43.408 37.653s.942.018 1.219 0c1.471-.093 1.372-1.747 1.372-1.747 0-5.82-1.472-7.46-3.434-7.584s-21.95-.092-23.421-.092c-3.004 0-7.775.937-9.994 1.625C5.104 31.108 4 34.595 4 36.4c0 1.81 1.425 1.625 1.425 1.625h1.196"/><path d="m16.692 28.353 5.272-6.562 18.946-.185M14.452 37.639h21.001"/><path d="M38.672 21.637c.613.433 3.28 2.847 4.077 6.593M30.441 21.709l.218 6.517M17.09 30.457h3.311"/></g><path d="M30.539 16.817a.54.54 0 1 1-.002 1.079.54.54 0 0 1 .002-1.079m0-1a1.539 1.539 0 1 0 0 3.077 1.539 1.539 0 0 0 0-3.077"/><path fill="none" stroke="#000" stroke-linecap="round" stroke-linejoin="round" d="M33.258 14.636a3.846 3.846 0 0 0-5.44 0m7.072-1.632a6.154 6.154 0 0 0-8.703 0"/><path fill="none" stroke="#000" stroke-linecap="round" stroke-linejoin="round" d="M36.308 11.166a8.46 8.46 0 0 0-11.539 0"/></svg>