<svg xmlns="http://www.w3.org/2000/svg" viewBox="0 0 48 48"><path fill="none" stroke="#000" stroke-linecap="round" stroke-linejoin="round" stroke-width=".999" d="M18.302 12.12c.373 0 .726.084 1.044.23a27.6 27.6 0 0 1 6.449-8.256c-.56-.05-1.122-.09-1.693-.094-4.437-.022-8.53 1.42-11.859 3.847a27.7 27.7 0 0 0 4.193 5.113 2.5 2.5 0 0 1 1.866-.84"/><path fill="none" stroke="#000" stroke-linecap="round" stroke-linejoin="round" stroke-width=".999" d="M16.436 12.96a2.5 2.5 0 0 0-.634 1.66 2.5 2.5 0 0 0 2.5 2.5c.83 0 1.564-.407 2.019-1.03a2.498 2.498 0 0 0-.974-3.74 2.49 2.49 0 0 0-2.911.61m-2.188 7.239a2.5 2.5 0 0 0-.152.852 2.5 2.5 0 1 0 2.5-2.5c-1.081 0-2 .687-2.348 1.648m10.726 9.69a2.5 2.5 0 1 0 .798-2.458 2.49 2.49 0 0 0-.798 2.458m-7.288 1.013a2.499 2.499 0 1 0 2.11 1.161 2.5 2.5 0 0 0-2.11-1.161"/><path fill="none" stroke="#000" stroke-linecap="round" stroke-linejoin="round" stroke-width=".999" d="M27.407 31.82a2.5 2.5 0 0 1-2.433-1.931 23.3 23.3 0 0 0-5.18 2.174c.247.387.392.846.392 1.339 0 1.059-.66 1.962-1.59 2.326a27.5 27.5 0 0 0 5.517 8.262 19.9 19.9 0 0 0 8.619-2.017 26.5 26.5 0 0 0-3.898-10.603 2.5 2.5 0 0 1-1.427.45M14.248 20.199a2.5 2.5 0 0 1 2.809-1.604 27 27 0 0 1 .423-1.616 2.5 2.5 0 0 1-1.678-2.36c0-.637.24-1.217.634-1.66a27.7 27.7 0 0 1-4.193-5.112 20 20 0 0 0-7.603 11.21q.84-.056 1.693-.057c2.757 0 5.414.421 7.915 1.199"/><path fill="none" stroke="#000" stroke-linecap="round" stroke-linejoin="round" stroke-width=".999" d="M29.892 29.051q.015.132.015.268c0 .85-.425 1.6-1.073 2.051a26.5 26.5 0 0 1 3.898 10.603c4.326-2.106 7.79-5.71 9.68-10.159A23.2 23.2 0 0 0 31.334 29c-.484 0-.964.02-1.441.051m-14.147 5.927a2.5 2.5 0 0 1 1.29-3.988 27.4 27.4 0 0 1-.703-6.157c0-.434.015-.865.036-1.294a2.5 2.5 0 0 1-2.273-2.488c0-.3.055-.586.152-.852A26.6 26.6 0 0 0 6.333 19q-.853 0-1.693.058a20 20 0 0 0-.64 4.84c-.032 6.429 2.984 12.15 7.678 15.832a23.3 23.3 0 0 1 4.068-4.752"/><path fill="none" stroke="#000" stroke-linecap="round" stroke-linejoin="round" stroke-width=".999" d="M17.686 35.902c-.783 0-1.481-.36-1.94-.924a23.3 23.3 0 0 0-4.068 4.752c3.372 2.645 7.603 4.246 12.22 4.27.073 0 .143-.01.215-.01a27.5 27.5 0 0 1-5.517-8.262 2.5 2.5 0 0 1-.91.174m24.727-4.088A19.9 19.9 0 0 0 44 24.102c.053-10.474-7.959-19.094-18.205-20.008a27.6 27.6 0 0 0-6.449 8.256m-2.75 11.2q-.115 0-.227-.01c-.021.428-.036.86-.036 1.293 0 2.118.248 4.177.703 6.157a2.5 2.5 0 0 1 2.759 1.073 23.3 23.3 0 0 1 5.18-2.174 2.49 2.49 0 0 1 .797-2.458 26.8 26.8 0 0 0-6.92-5.31 2.5 2.5 0 0 1-2.256 1.43"/><path fill="none" stroke="#000" stroke-linecap="round" stroke-linejoin="round" stroke-width=".999" d="M43 19.623a27.5 27.5 0 0 1-7.5 1.044 27.35 27.35 0 0 1-15.18-4.577"/></svg>