<svg xmlns="http://www.w3.org/2000/svg" data-name="Isolation Mode" viewBox="0 0 50 50"><g fill="none" stroke="#000" stroke-linecap="round" stroke-linejoin="round"><path d="M30.522 20.504q-.583.03-1.162.05l-.002-.004-2.777-2.148c-.917-.71-2.022-.727-2.95-.045l-2.991 2.197q-.58-.02-1.162-.05c-2.195-.11-3.908-.737-3.908 2.292s.407 7.94.407 7.94-.244 3.683 3.99 6.793c3.64 2.676 5.019 3.644 5.019 3.644h0s1.406-.968 5.048-3.644c4.233-3.11 3.989-6.793 3.989-6.793s.407-4.912.407-7.94-1.713-2.402-3.908-2.292"/><path d="M28.06 25.647zl-3.979 6.018-2.141-2.842"/><circle cx="25" cy="28.652" r="5.843"/></g><g fill="none" stroke="#000" stroke-linecap="round" stroke-linejoin="round"><path d="M10 5v40h30V16L29 5z"/><path d="M29 5v11h11"/></g></svg>