<svg xmlns="http://www.w3.org/2000/svg" viewBox="0 0 50 50"><path fill="none" stroke="#000" stroke-linecap="round" stroke-linejoin="round" d="M21.199 36.498v2M17.282 36.498v2"/><path d="M7.508 36.498a1 1 0 1 0 0 2 1 1 0 0 0 0-2"/><path fill="none" stroke="#000" stroke-miterlimit="10" d="M5.553 34.498h19.563v6H5.553a1.44 1.44 0 0 1-1.437-1.437v-3.126c0-.793.644-1.437 1.437-1.437Z"/><path fill="none" stroke="#000" stroke-linecap="round" stroke-linejoin="round" d="M21.199 30.498v2M17.282 30.498v2"/><path d="M7.508 30.498a1 1 0 1 0 0 2 1 1 0 0 0 0-2"/><path fill="none" stroke="#000" stroke-miterlimit="10" d="M5.553 28.498h19.563v6H5.553a1.44 1.44 0 0 1-1.437-1.437v-3.126c0-.793.644-1.437 1.437-1.437Z"/><path fill="none" stroke="#000" stroke-linecap="round" stroke-linejoin="round" d="M21.199 24.498v2M17.282 24.498v2"/><path d="M7.508 24.498a1 1 0 1 0 0 2 1 1 0 0 0 0-2"/><path fill="none" stroke="#000" stroke-miterlimit="10" d="M5.553 22.498h19.563v6H5.553a1.44 1.44 0 0 1-1.437-1.437v-3.126c0-.793.644-1.437 1.437-1.437Z"/><path fill="none" stroke="#000" stroke-linecap="round" stroke-linejoin="round" d="M42.198 36.498v2M38.281 36.498v2"/><path d="M28.508 36.498a1 1 0 1 0 0 2 1 1 0 0 0 0-2"/><path fill="none" stroke="#000" stroke-miterlimit="10" d="M25.115 34.498h19.563c.793 0 1.437.644 1.437 1.437v3.126c0 .793-.644 1.437-1.437 1.437H25.115z"/><path fill="none" stroke="#000" stroke-linecap="round" stroke-linejoin="round" d="M42.198 30.498v2M38.281 30.498v2"/><path d="M28.508 30.498a1 1 0 1 0 0 2 1 1 0 0 0 0-2"/><path fill="none" stroke="#000" stroke-miterlimit="10" d="M25.115 28.498h19.563c.793 0 1.437.644 1.437 1.437v3.126c0 .793-.644 1.437-1.437 1.437H25.115z"/><path fill="none" stroke="#000" stroke-linecap="round" stroke-linejoin="round" d="M42.198 24.498v2M38.281 24.498v2"/><path d="M28.508 24.498a1 1 0 1 0 0 2 1 1 0 0 0 0-2"/><path fill="none" stroke="#000" stroke-miterlimit="10" d="M25.115 22.498h19.563c.793 0 1.437.644 1.437 1.437v3.126c0 .793-.644 1.437-1.437 1.437H25.115z"/><path fill="none" stroke="#000" stroke-linecap="round" stroke-linejoin="round" d="M45.227 9.496H5.004a.9.9 0 0 0-.889.902v3.197c0 .495.4.9.889.9h40.223a.9.9 0 0 0 .888-.9v-3.197c0-.497-.4-.902-.888-.902m.01 5H4.994c-.484 0-.879.425-.879.943v6.114c0 .518.395.943.879.943h40.243c.483 0 .878-.425.878-.943V15.44c0-.518-.395-.943-.878-.943"/><path d="M37.51 17.496c.334 0 .605.304.605.681v.637c0 .377-.27.682-.605.682h-7.79c-.335 0-.606-.305-.606-.682v-.637c0-.377.27-.681.606-.681zm0-1h-7.79c-.885 0-1.606.754-1.606 1.681v.637c0 .927.72 1.682 1.606 1.682h7.789c.885 0 1.605-.755 1.605-1.682v-.637c0-.927-.72-1.681-1.605-1.681m4.606 1a1 1 0 1 1 0 2 1 1 0 0 1 0-2m0-1c-1.103 0-2 .898-2 2 0 1.103.897 2 2 2s2-.897 2-2a2.003 2.003 0 0 0-2-2"/><path fill="none" stroke="#000" stroke-linecap="round" stroke-linejoin="round" d="M6.115 12.496h38"/><circle cx="21.115" cy="18.496" r=".5"/><path d="M21.115 17.496a1 1 0 1 0 0 2 1 1 0 0 0 0-2"/><circle cx="18.115" cy="18.496" r=".5"/><path d="M18.115 17.496a1 1 0 1 0 0 2 1 1 0 0 0 0-2"/><circle cx="15.115" cy="18.496" r=".5"/><path d="M15.115 17.496a1 1 0 1 0 0 2 1 1 0 0 0 0-2"/><circle cx="12.115" cy="18.496" r=".5"/><path d="M12.115 17.496a1 1 0 1 0 0 2 1 1 0 0 0 0-2"/><circle cx="9.115" cy="18.496" r=".5"/><path d="M9.115 17.496a1 1 0 1 0 0 2 1 1 0 0 0 0-2"/></svg>