<svg xmlns="http://www.w3.org/2000/svg" viewBox="0 0 50 50"><g fill="none" stroke="#000" stroke-linecap="round" stroke-linejoin="round"><path d="M15.875 7.98c2.96-2.768 6.272-3.305 7.842-2.613.872.445 1.28 1.442 1.283 2.225M25 7.592v33.224M17.78 18.957c.25-1.677-.533-3.343-2.036-4.337-1.596-1.005-3.75-1.004-5.906 0-2.882 1.345-1.898 5.69-1.89 5.733a.4.4 0 0 1-.063.322c-.023.032-2.224 3.253-1.053 5.762.656 1.403 2.266 2.353 4.786 2.824"/><path d="M19.355 10.138c-1.53-1.25-3.164-2.689-4.76-2.044-1.393.565-2.518 3.197-1.786 5.776M25 40.816V7.592M7.625 27.526c-1.533 1.225-1.886 3.099-1.39 4.366.56 1.705 1.948 2.916 2.656 3 .26.032.443.249.41.485l-.011.051c-.472 1.679.003 3.462 1.267 4.756.726.885 1.845 1.431 3.055 1.494.232-.024.45.111.51.317.727 2.167 3.148 3.47 5.581 3.004 5.105-.594 5.294-4.08 5.297-4.183M14.707 22.462c-.703 1.029-.269 2.84.373 3.87M25 7.592v33.224M25 40.816V7.592"/><path d="M12.689 18.863s.482 6.168 7.447 3.671M17.29 33.7c-1.21-.298-2.756.74-3.496 1.702"/><path d="M19.956 30.553s-5.61 2.606-.838 8.26m2.459-11.828s3.422.24 3.422 4.552m-3.422-16.656s3.422-.24 3.422-4.552"/></g><g fill="none" stroke="#000" stroke-linecap="round" stroke-linejoin="round"><path d="M34.125 7.98c-2.96-2.768-6.272-3.305-7.842-2.613-.872.445-1.28 1.442-1.283 2.225M25 7.592v33.224M32.22 18.957c-.25-1.677.533-3.343 2.036-4.337 1.596-1.005 3.75-1.004 5.906 0 2.882 1.345 1.898 5.69 1.89 5.733a.4.4 0 0 0 .063.322c.023.032 2.224 3.253 1.053 5.762-.656 1.403-2.266 2.353-4.786 2.824"/><path d="M30.645 10.138c1.53-1.25 3.164-2.689 4.76-2.044 1.393.565 2.518 3.197 1.786 5.776M25 40.816V7.592M42.375 27.526c1.533 1.225 1.886 3.099 1.39 4.366-.56 1.705-1.948 2.916-2.656 3-.26.032-.443.249-.41.485l.011.051c.472 1.679-.003 3.462-1.267 4.756-.726.885-1.845 1.431-3.055 1.494-.232-.024-.45.111-.51.317-.727 2.167-3.148 3.47-5.581 3.004-5.105-.594-5.294-4.08-5.297-4.183m10.293-18.354c.703 1.029.269 2.84-.373 3.87M25 7.592v33.224M25 40.816V7.592"/><path d="M37.311 18.863s-.482 6.168-7.447 3.671M32.71 33.7c1.21-.298 2.756.74 3.496 1.702"/><path d="M30.044 30.553s5.61 2.606.838 8.26m-2.459-11.828s-3.422.24-3.422 4.552m3.422-16.656s-3.422-.24-3.422-4.552"/></g></svg>