<svg xmlns="http://www.w3.org/2000/svg" data-name="Isolation Mode" viewBox="0 0 50 50"><path fill="none" stroke="#000" stroke-linecap="round" stroke-linejoin="round" d="M13 34.484H9.318C5.828 34.484 3 31.687 3 28.237c0-3.44 2.814-6.23 6.291-6.245v-.002c0-5.128 4.205-9.285 9.391-9.285 1.38 0 2.69.297 3.87.826 1.563-4.116 5.577-7.047 10.286-7.047 6.065 0 10.982 4.862 10.982 10.86 0 .978-.133 1.926-.378 2.828C45.584 21.566 47 23.962 47 26.687c0 4.306-3.53 7.797-7.886 7.797H37"/><g fill="none" stroke="#000" stroke-linecap="round" stroke-linejoin="round"><path d="M27.484 30.847c1.704-1.27 2.861-3.755 2.861-6.613 0-4.15-2.44-5.718-5.45-5.718s-5.45 1.569-5.45 5.718c0 2.859 1.158 5.344 2.863 6.614"/><path d="m13.342 43.516 1.911-8.67a3.45 3.45 0 0 1 1.47-1.966s2.298-1.466 5.584-2.033c.77.574 1.651.95 2.588.95s1.819-.376 2.589-.95"/><path d="m36.585 43.516-2.051-8.67a3.45 3.45 0 0 0-1.47-1.966s-2.299-1.466-5.584-2.033m9.105-2.424c.852-.635 1.431-1.878 1.431-3.307 0-2.075-1.22-2.86-2.725-2.86s-2.725.785-2.725 2.86c0 1.43.579 2.672 1.431 3.307m0 0c.385.287.825.475 1.294.475.468 0 .91-.188 1.294-.475"/><path d="M36.583 28.423c1.643.283 2.792 1.016 2.792 1.016.356.225.617.574.735.983l.232 1.187"/></g></svg>