<svg xmlns="http://www.w3.org/2000/svg" data-name="Isolation Mode" viewBox="0 0 50 50"><g fill="none" stroke="#000" stroke-linecap="round" stroke-linejoin="round"><ellipse cx="25.001" cy="28.905" rx="1.843" ry="1.849"/><ellipse cx="25.001" cy="36.299" rx="1.843" ry="1.849"/><path d="M25.001 30.753v3.697"/><ellipse cx="31.879" cy="33.692" rx="1.843" ry="1.849"/><path d="m30.155 34.344-3.448 1.304"/><ellipse cx="18.12" cy="33.692" rx="1.843" ry="1.849"/><path d="m23.276 35.645-3.449-1.303"/><ellipse cx="29.388" cy="42.206" rx="1.843" ry="1.849"/><path d="m28.285 40.726-2.192-2.943"/><ellipse cx="20.616" cy="42.207" rx="1.843" ry="1.849"/><path d="m23.898 37.779-2.191 2.943"/></g><g fill="none" stroke="#000" stroke-linecap="round" stroke-linejoin="round"><path d="M25.874 10.815c2.355 1.241 3.958 3.685 3.958 6.498 0 .582-.08 1.144-.21 1.687m-3.748-8.185a7.55 7.55 0 0 0-3.53-.871c-3.21 0-5.948 1.988-7.012 4.782a6.5 6.5 0 0 0-2.64-.561c-3.536 0-6.403 2.821-6.403 6.301v0C3.92 20.477 2 22.37 2 24.706c0 2.341 1.929 4.239 4.308 4.239h8.008"/><path d="M25.874 10.815a6.46 6.46 0 0 1 5.458-.09c1.064-2.793 3.802-4.781 7.012-4.781 4.135 0 7.488 3.3 7.488 7.369a7.3 7.3 0 0 1-.258 1.92c1.46.945 2.426 2.57 2.426 4.42 0 2.922-2.407 5.291-5.377 5.291h-4.925"/><path d="M19.827 37.944h-5.52c-2.378 0-4.307-1.898-4.307-4.239 0-2.335 1.919-4.228 4.29-4.238v-.001c0-3.48 2.866-6.301 6.402-6.301.942 0 1.835.202 2.64.56 1.064-2.793 3.802-4.781 7.012-4.781 4.135 0 7.488 3.3 7.488 7.369a7.3 7.3 0 0 1-.258 1.92c1.46.945 2.426 2.57 2.426 4.42 0 2.922-2.407 5.291-5.377 5.291h-4.586"/></g></svg>