<svg xmlns="http://www.w3.org/2000/svg" data-name="Isolation Mode" viewBox="0 0 50 50"><path d="M22.171 25.88a1 1 0 0 1-.094-.281 3 3 0 0 1-.05-.352q-.15.15-.337.284-.185.136-.408.237a2.5 2.5 0 0 1-1.012.22q-.462 0-.835-.134a1.9 1.9 0 0 1-.634-.363 1.59 1.59 0 0 1-.545-1.221q0-.48.19-.838.191-.36.54-.599.35-.24.841-.357.491-.12 1.098-.119h1.085V21.9q0-.262-.096-.472a.8.8 0 0 0-.274-.357 1.3 1.3 0 0 0-.433-.228 1.9 1.9 0 0 0-.572-.081 1.7 1.7 0 0 0-.529.075q-.233.075-.395.2a.9.9 0 0 0-.25.292.74.74 0 0 0-.088.352h-.999q.005-.318.164-.623.159-.306.456-.551.299-.245.726-.395.426-.15.969-.15.495 0 .918.121.425.12.734.365.308.243.486.61.177.365.177.853v2.702q0 .29.054.616.053.323.15.566v.086zm-1.756-.757q.29 0 .543-.075.251-.075.459-.198.207-.124.357-.283c.15-.159.18-.215.236-.33v-1.176h-.924q-.87 0-1.353.257c-.483.257-.483.443-.483.812q0 .213.072.397.071.182.218.315.144.13.365.206.22.075.51.075m9.463-2.083q0 .623-.15 1.162-.15.54-.44.938a2.1 2.1 0 0 1-.718.623q-.427.225-.974.225-.532 0-.938-.172a2 2 0 0 1-.695-.494v2.793h-.994V20.07h.908l.048.634q.291-.36.701-.55.411-.191.954-.191.558 0 .988.22t.72.612.44.937c.15.544.15.762.15 1.196zm-.993-.113q0-.425-.094-.809a2.1 2.1 0 0 0-.29-.677 1.5 1.5 0 0 0-.497-.464q-.3-.172-.72-.172-.478 0-.803.223-.325.224-.518.572v2.798q.193.343.516.562.321.216.816.217a1.4 1.4 0 0 0 .714-.174q.302-.176.494-.47a2.2 2.2 0 0 0 .288-.682q.094-.387.094-.812zm7.637.113q0 .623-.15 1.162-.15.54-.44.938a2.1 2.1 0 0 1-.718.623q-.426.225-.974.225-.532 0-.938-.172a2 2 0 0 1-.695-.494v2.793h-.994V20.07h.908l.048.634q.291-.36.701-.55.411-.191.954-.191.558 0 .988.22t.72.612.44.937c.15.544.15.762.15 1.196zm-.993-.113q0-.425-.094-.809a2.1 2.1 0 0 0-.29-.677 1.5 1.5 0 0 0-.497-.464q-.3-.172-.72-.172-.478 0-.803.223-.325.224-.518.572v2.798q.193.343.516.562.321.216.816.217a1.4 1.4 0 0 0 .714-.174q.302-.176.494-.47a2.2 2.2 0 0 0 .288-.682q.094-.387.094-.812z"/><path fill="none" stroke="#000" stroke-linecap="round" stroke-linejoin="round" d="M25.336 41.5h12.06a7.455 7.455 0 0 0 7.455-7.455v-20.09A7.455 7.455 0 0 0 37.397 6.5h-20.09a7.455 7.455 0 0 0-7.456 7.455v12.077"/><circle cx="14.287" cy="37.058" r="1.233"/><path fill="none" stroke="#000" stroke-linecap="round" stroke-linejoin="round" stroke-width="1.002" d="m22.261 35.728-7.974 1.33"/><circle cx="14.25" cy="37.01" r="9.25" fill="none" stroke="#000" stroke-linecap="round" stroke-linejoin="round" stroke-width="1.002"/><path fill="none" stroke="#000" stroke-linecap="round" stroke-linejoin="round" stroke-width="1.002" d="M20.796 34.865a6.9 6.9 0 0 1 .34 2.145m-1.749-4.586c.328.367.618.77.862 1.201M7.364 37.01a6.886 6.886 0 0 1 11.002-5.522"/></svg>