<svg xmlns="http://www.w3.org/2000/svg" data-name="Isolation Mode" viewBox="0 0 50 50"><g fill="none" stroke="#000" stroke-miterlimit="10"><path d="M35 30.138v.481M35 35.443v.48"/><ellipse cx="25" cy="24.524" rx="9.996" ry="4.992"/><path d="M15.004 29.524c0 2.757 4.475 4.992 9.996 4.992s9.996-2.235 9.996-4.992m-19.992 5c0 2.757 4.475 4.992 9.996 4.992s9.996-2.235 9.996-4.992"/><path d="m35 24.516-.004 15.008c0 2.757-4.475 4.992-9.996 4.992s-9.996-2.235-9.996-4.992L15 24.833"/></g><path fill="none" stroke="#000" stroke-linecap="round" stroke-linejoin="round" d="M13 33.484H9.318C5.828 33.484 3 30.687 3 27.237c0-3.44 2.814-6.23 6.291-6.245v-.002c0-5.128 4.205-9.285 9.391-9.285 1.38 0 2.69.297 3.87.826 1.563-4.116 5.577-7.047 10.286-7.047 6.065 0 10.982 4.862 10.982 10.86 0 .978-.133 1.926-.378 2.828C45.584 20.566 47 22.962 47 25.687c0 4.306-3.53 7.797-7.886 7.797H37"/></svg>