<svg xmlns="http://www.w3.org/2000/svg" viewBox="0 0 50 50"><g fill="none" stroke="#000" stroke-linecap="round" stroke-linejoin="round"><circle cx="24.957" cy="8.538" r="1.011"/><circle cx="7.792" cy="20.84" r="1.011"/><circle cx="35.601" cy="41.462" r="1.011"/><circle cx="42.208" cy="20.887" r="1.011"/><circle cx="14.399" cy="41.462" r="1.011"/><path d="M28.482 8.883c.01-.115.034-.227.034-.345a3.538 3.538 0 0 0-7.076 0c0 .118.024.23.035.345m11.092 34.373A3.52 3.52 0 0 0 35.601 45a3.54 3.54 0 0 0 3.538-3.538c0-.89-.34-1.693-.882-2.315m4.74-14.817a3.534 3.534 0 0 0-.79-6.98 3.5 3.5 0 0 0-1.464.325m-29.02 21.497a3.5 3.5 0 0 0-.862 2.29A3.54 3.54 0 0 0 14.4 45c1.29 0 2.407-.697 3.025-1.727M9.224 17.657a3.5 3.5 0 0 0-1.432-.308 3.532 3.532 0 0 0-.831 6.968"/><path d="M24.978 12.076c-1.836 0-3.327-1.403-3.503-3.193-5.241 1.023-9.666 4.298-12.251 8.774a3.535 3.535 0 0 1-1.432 6.769c-.287 0-.563-.044-.83-.109a18 18 0 0 0-.18 2.417c0 4.817 1.885 9.183 4.94 12.438a3.51 3.51 0 0 1 2.677-1.248 3.54 3.54 0 0 1 3.539 3.538c0 .665-.195 1.28-.514 1.811a18.1 18.1 0 0 0 7.554 1.657c2.712 0 5.277-.61 7.589-1.674a3.5 3.5 0 0 1-.505-1.794 3.54 3.54 0 0 1 3.539-3.538c1.064 0 2.007.48 2.656 1.223 3.041-3.252 4.917-7.609 4.917-12.413 0-.817-.072-1.616-.177-2.404a3.5 3.5 0 0 1-.79.096 3.532 3.532 0 0 1-1.464-6.75c-2.583-4.487-7.013-7.769-12.261-8.793-.176 1.79-1.668 3.193-3.504 3.193"/></g><path d="M25 30.733a1.135 1.135 0 1 1-1.133 1.133c0-.624.508-1.133 1.133-1.133m0-1A2.133 2.133 0 1 0 25 34a2.133 2.133 0 0 0 0-4.267"/><path fill="none" stroke="#000" stroke-linecap="round" stroke-linejoin="round" d="M28.771 28.096a5.333 5.333 0 0 0-7.542 0m9.805-2.263a8.533 8.533 0 0 0-12.068 0"/><path fill="none" stroke="#000" stroke-linecap="round" stroke-linejoin="round" d="M33 23.284a11.733 11.733 0 0 0-16 0"/></svg>