<svg xmlns="http://www.w3.org/2000/svg" data-name="Isolation Mode" viewBox="0 0 50 50"><g fill="none" stroke="#000" stroke-linecap="round" stroke-linejoin="round"><path d="M25.874 9.468c2.355 1.241 3.958 3.685 3.958 6.498 0 .493-.058.972-.155 1.437m-3.803-7.935a7.55 7.55 0 0 0-3.53-.871c-3.21 0-5.948 1.988-7.012 4.781a6.5 6.5 0 0 0-2.64-.56c-3.536 0-6.403 2.821-6.403 6.3v.002C3.92 19.13 2 21.023 2 23.358c0 2.341 1.929 4.239 4.308 4.239H13.7"/><path d="M25.874 9.468a6.46 6.46 0 0 1 5.458-.09c1.064-2.793 3.802-4.781 7.012-4.781 4.135 0 7.488 3.3 7.488 7.369 0 .664-.09 1.307-.258 1.919 1.46.946 2.426 2.571 2.426 4.42 0 2.923-2.407 5.292-5.377 5.292h-4.586"/></g><g fill="none" stroke="#000" stroke-linecap="round" stroke-linejoin="round"><path d="M20.086 33.148q-.35.018-.7.03v-.002l-1.673-1.274c-.552-.42-1.217-.43-1.776-.027l-1.8 1.303a55 55 0 0 1-.7-.03c-1.322-.065-2.353-.436-2.353 1.36s.245 4.707.245 4.707-.147 2.184 2.402 4.028a208 208 0 0 0 3.022 2.16h0s.847-.574 3.04-2.16c2.548-1.844 2.401-4.028 2.401-4.028s.245-2.912.245-4.708c0-1.795-1.03-1.424-2.353-1.359"/><g stroke-width=".75"><path d="m18.29 36.783-2.072 3.133-1.266-1.68"/><circle cx="16.762" cy="38.136" r="3.456"/></g></g><path d="M21.985 30.798q-.037-.075-.063-.171a2 2 0 0 1-.044-.204q-.087.092-.197.175a1.4 1.4 0 0 1-.546.239 1.7 1.7 0 0 1-.353.035q-.307 0-.566-.089-.258-.09-.444-.249c-.186-.159-.22-.233-.289-.38a1.1 1.1 0 0 1-.104-.481q0-.634.474-.982c.474-.348.786-.347 1.412-.347h.576v-.238a.59.59 0 0 0-.19-.459q-.19-.168-.546-.168-.316 0-.46.135a.47.47 0 0 0-.145.363h-1.032q0-.256.113-.487.114-.23.331-.405a1.7 1.7 0 0 1 .53-.276q.315-.102.72-.102.363 0 .677.089c.314.089.39.147.544.264q.23.174.36.439.13.267.13.614v1.723q0 .323.04.535.04.21.12.363v.064zm-.984-.724a1.1 1.1 0 0 0 .531-.134q.108-.06.186-.135c.078-.075.093-.102.123-.155v-.69h-.528a1.6 1.6 0 0 0-.412.047.8.8 0 0 0-.278.13.5.5 0 0 0-.16.2.6.6 0 0 0-.052.254q0 .208.147.346c.147.138.246.137.443.137m6.781-1.248q0 .438-.101.814a2 2 0 0 1-.301.647 1.4 1.4 0 0 1-.492.429q-.294.156-.672.156-.323 0-.569-.111a1.3 1.3 0 0 1-.426-.312v1.893h-1.033v-5.56h.955l.037.393q.186-.223.438-.346t.59-.122q.382 0 .676.147c.294.147.36.236.494.416q.2.268.303.645.1.377.101.834zm-1.032-.077q0-.253-.046-.474a1.2 1.2 0 0 0-.144-.382q-.1-.162-.253-.254c-.153-.092-.228-.093-.373-.093q-.271 0-.444.105c-.173.105-.205.17-.27.3v1.678a.8.8 0 0 0 .27.302.8.8 0 0 0 .451.113q.219 0 .373-.097a.74.74 0 0 0 .25-.262q.097-.169.142-.39.044-.22.044-.469zm5.765.077q0 .438-.102.814a2 2 0 0 1-.3.647 1.4 1.4 0 0 1-.493.429q-.293.156-.672.156-.323 0-.568-.111a1.3 1.3 0 0 1-.427-.312v1.893h-1.032v-5.56h.954l.037.393q.186-.223.439-.346.252-.122.59-.122.382 0 .675.147c.293.147.36.236.494.416q.201.268.303.645t.102.834zm-1.033-.077q0-.253-.045-.474a1.2 1.2 0 0 0-.145-.382q-.099-.162-.253-.254c-.154-.092-.227-.093-.373-.093q-.27 0-.443.105c-.173.105-.205.17-.27.3v1.678a.8.8 0 0 0 .27.302.8.8 0 0 0 .45.113q.219 0 .374-.097a.74.74 0 0 0 .25-.262q.096-.169.141-.39.044-.22.044-.469z"/><path fill="none" stroke="#000" stroke-linecap="round" stroke-linejoin="round" d="M23.637 41.595h9.123a5.153 5.153 0 0 0 5.153-5.153V22.556a5.153 5.153 0 0 0-5.153-5.153H18.874a5.153 5.153 0 0 0-5.153 5.153v8.67"/></svg>