<svg xmlns="http://www.w3.org/2000/svg" viewBox="0 0 50 50"><path fill="none" stroke="#231f20" stroke-linecap="round" stroke-linejoin="round" stroke-width=".952" d="M34.745 15.447H13.83"/><g fill="none" stroke="#231f20" stroke-linecap="round" stroke-linejoin="round" stroke-width=".952"><path d="M15.448 20.934h1.281"/><path stroke-dasharray="2.591862 1.943897" d="M18.673 20.934h12.635"/><path d="M32.28 20.934h1.281"/></g><path fill="none" stroke="#231f20" stroke-linecap="round" stroke-linejoin="round" stroke-width=".952" d="m33.561 23.6 2.611-2.615-2.61-2.616M16.439 18.063l-2.611-2.616 2.61-2.616"/><path fill="none" stroke="#231f20" stroke-linecap="round" stroke-linejoin="round" stroke-width=".952" d="M44.048 29.562V8.609H5.952v20.953M33.476 33.371h10.572s.952-.523.952-1.905-.952-1.904-.952-1.904H32.654m-15.507 0H5.952S5 30.084 5 31.466s.952 1.905.952 1.905h10.381M24.866 24.316v15.126999999999999"/><path fill="#231f20" d="M20.096 32.223a.747.747 0 1 0 0 1.494q.027-.001.053-.004a.746.746 0 0 0-.053-1.49m-.944-3.908a.747.747 0 1 0 0 1.494c.018 0 .035-.005.053-.006a.744.744 0 0 0-.053-1.488m3.508-3.275a.747.747 0 0 0 0 1.496c.018 0 .036-.005.054-.006a.745.745 0 0 0-.055-1.49m.361 8.593a.747.747 0 1 0 0 1.494c.018 0 .035-.005.053-.006a.744.744 0 0 0-.053-1.488m-3.388 2.852a.747.747 0 1 0 0 1.495l.054-.006a.747.747 0 0 0-.053-1.49M22.33 38.4a.747.747 0 1 0 0 1.496c.018 0 .034-.005.053-.006a.747.747 0 0 0-.053-1.49"/><path fill="none" stroke="#231f20" stroke-linecap="round" stroke-linejoin="round" stroke-width=".952" d="M21.58 29.49c.113-.763-.243-1.522-.928-1.975-.726-.457-1.707-.457-2.689 0-1.312.614-.864 2.591-.86 2.611a.18.18 0 0 1-.03.146c-.01.016-1.012 1.482-.479 2.624.3.639 1.032 1.072 2.18 1.286"/><path fill="none" stroke="#231f20" stroke-linecap="round" stroke-linejoin="round" stroke-width=".952" d="M22.296 25.475c-.696-.569-1.44-1.224-2.167-.93-.634.257-1.146 1.455-.813 2.63M24.866 39.443V24.316"/><path fill="none" stroke="#231f20" stroke-linecap="round" stroke-linejoin="round" stroke-width=".952" d="M16.956 33.392c-.698.558-.859 1.411-.634 1.988.256.777.887 1.328 1.21 1.367.118.013.201.112.186.22l-.005.023c-.214.764.001 1.576.578 2.165.33.403.84.652 1.39.68a.22.22 0 0 1 .233.145c.33.986 1.433 1.58 2.54 1.368 2.324-.27 2.41-1.858 2.412-1.905m-4.154-14.951c1.347-1.26 2.856-1.504 3.57-1.19.398.204.583.658.584 1.014M19.297 29.504l.924 1.719M22.434 30.889l-2.212.334M20.221 31.223l-.082 1.269M21.6 37.631l.515 1.103"/><path fill="none" stroke="#231f20" stroke-linecap="round" stroke-linejoin="round" stroke-width=".952" d="m22.58 34.561-1.491.75.51 2.32M21.6 37.631l-1.51-.307M24.867 24.316v15.126999999999999"/><path fill="#231f20" d="M29.637 32.223a.746.746 0 0 0-.053 1.49q.026.003.053.004a.747.747 0 1 0 0-1.494m.943-3.908a.744.744 0 0 0-.053 1.488c.019.001.036.006.054.006a.747.747 0 1 0 0-1.494m-3.757 1.742a.744.744 0 0 0-.053 1.488q.026.004.053.006a.747.747 0 1 0 0-1.494m.249-5.017a.745.745 0 0 0-.055 1.49c.019.001.037.006.055.006a.747.747 0 0 0 0-1.496m-4.18 5.006a.745.745 0 0 0-.055 1.49c.018 0 .036.005.055.005a.747.747 0 0 0 0-1.495m3.82 3.587a.744.744 0 0 0-.053 1.488c.018.001.035.006.053.006a.747.747 0 1 0 0-1.494m3.387 2.852a.747.747 0 0 0-.053 1.49c.018 0 .035.005.053.005a.747.747 0 1 0 0-1.495M27.403 38.4a.747.747 0 0 0-.053 1.49c.018.001.035.006.053.006a.747.747 0 1 0 0-1.496"/><path fill="none" stroke="#231f20" stroke-linecap="round" stroke-linejoin="round" stroke-width=".952" d="M28.154 29.49c-.114-.763.242-1.522.927-1.975.726-.457 1.706-.457 2.688 0 1.313.614.864 2.591.862 2.611a.18.18 0 0 0 .028.146c.01.016 1.013 1.482.48 2.624-.3.639-1.033 1.072-2.18 1.286"/><path fill="none" stroke="#231f20" stroke-linecap="round" stroke-linejoin="round" stroke-width=".952" d="M27.436 25.475c.697-.569 1.441-1.224 2.168-.93.634.257 1.146 1.455.813 2.63M24.867 39.443V24.316"/><path fill="none" stroke="#231f20" stroke-linecap="round" stroke-linejoin="round" stroke-width=".952" d="M32.777 33.392c.698.558.859 1.411.634 1.988-.256.777-.888 1.328-1.21 1.367-.118.013-.202.112-.187.22l.005.023c.215.764 0 1.576-.577 2.165-.33.403-.84.652-1.39.68a.22.22 0 0 0-.233.145c-.33.986-1.433 1.58-2.54 1.368-2.325-.27-2.411-1.858-2.412-1.905m4.153-14.951c-1.347-1.26-2.855-1.504-3.57-1.19-.397.204-.582.658-.583 1.014M30.436 29.504l-.924 1.719M27.298 30.889l2.213.334M29.512 31.223l.082 1.269M28.133 37.631l-.515 1.103"/><path fill="none" stroke="#231f20" stroke-linecap="round" stroke-linejoin="round" stroke-width=".952" d="m27.152 34.561 1.492.75-.511 2.32M28.133 37.631l1.51-.307"/></svg>