<svg xmlns="http://www.w3.org/2000/svg" viewBox="0 0 50 50"><g fill="none" stroke="#000" stroke-linecap="round" stroke-linejoin="round"><path d="m46.478 38.822-7.07.11-.134-7.071M3.522 11.194l7.07-.109.134 7.07"/><path d="M36.889 41.123c-7.704 5.686-18.63 5.134-25.769-1.765-7.957-7.69-8.197-20.351-.536-28.281m2.511-2.2c7.704-5.686 18.629-5.134 25.768 1.765 7.957 7.69 8.197 20.351.536 28.281"/></g><g fill="none" stroke="#000" stroke-linecap="round" stroke-linejoin="round"><path d="m31.622 19.519-12.721.468a2.7 2.7 0 0 1-1.402 2.47l5.187 9.486a2.7 2.7 0 0 1 2.837.152l7.258-10.457a2.69 2.69 0 0 1-1.16-2.12"/><path d="M18.901 19.987a2.703 2.703 0 1 0-1.402 2.47m.001.001a2.7 2.7 0 0 0 1.401-2.471m6.622 12.108a2.7 2.7 0 0 0-2.837-.152m0 0a2.703 2.703 0 1 0 2.837.152m7.257-10.457a2.7 2.7 0 0 0 3.912-3.515 2.703 2.703 0 0 0-5.07 1.396"/><path d="M31.622 19.519a2.69 2.69 0 0 0 1.159 2.119"/></g></svg>