<svg xmlns="http://www.w3.org/2000/svg" viewBox="0 0 50 50"><g fill="none" stroke="#000" stroke-linecap="round" stroke-linejoin="round"><rect width="40" height="3" x="5" y="42.094" rx=".23" ry=".23"/><path d="M43 21.094H7M7 40.094h36M7 19.094h36l-18-14zM10 23.094v15M16 23.094v15M22 23.094v15M28 23.094v15M34 23.094v15M40 23.094v15"/></g><g fill="none" stroke="#000" stroke-linecap="round" stroke-linejoin="round"><path d="M26.92 11.125c-.032-.57-.087-1.703-1.962-1.711-1.476-.016-1.859.828-1.843 1.414.008.61.094 1.18 1.86 1.485 1.874.32 2.148.921 2.1 1.687-.038.633-.413 1.445-2.085 1.445-1.703-.007-2.07-1.187-2.07-1.984M24.982 8.844v7.5"/></g></svg>