<svg xmlns="http://www.w3.org/2000/svg" data-name="Isolation Mode" viewBox="0 0 50 50"><path fill="none" stroke="#000" stroke-linecap="round" stroke-linejoin="round" d="M22.975 43.025h4M35.975 10.025V6a1 1 0 0 0-1-1h-20a1 1 0 0 0-1 1v4.025m0 30v4.025a1 1 0 0 0 1 1h20a1 1 0 0 0 1-1v-4.025"/><rect width="22" height="32" x="13.975" y="9.025" fill="none" stroke="#000" stroke-linecap="round" stroke-linejoin="round" rx="1" ry="1"/><path d="M16.975 6.025a1 1 0 1 0 0 2 1 1 0 0 0 0-2"/><path fill="none" stroke="#000" stroke-linecap="round" stroke-linejoin="round" d="m21.919 20.98-5.095 3.045 5.095 3.045M28.032 27.07l5.094-3.045-5.094-3.046M25.994 20.979l-2.038 6.091"/></svg>