<svg xmlns="http://www.w3.org/2000/svg" data-name="Isolation Mode" viewBox="0 0 50 50"><g fill="none" stroke="#000" stroke-linecap="round" stroke-linejoin="round"><path d="m26.625 26.668 11-11M37.625 23.668v-8h-8"/><path d="M26.087 31.668h14.779c3.733 0 6.76-2.992 6.76-6.684 0-2.336-1.215-4.389-3.05-5.584.21-.773.324-1.585.324-2.424 0-5.14-4.215-9.308-9.414-9.308-4.036 0-7.477 2.512-8.815 6.04A8.1 8.1 0 0 0 23.353 13c-2.212 0-4.21.887-5.663 2.315"/></g><g fill="none" stroke="#000" stroke-linecap="round" stroke-linejoin="round"><path d="M16.76 29.664c1.733-1.27 2.911-3.755 2.911-6.613 0-4.15-2.482-5.719-5.544-5.719s-5.544 1.569-5.544 5.719c0 2.858 1.178 5.343 2.912 6.613"/><path d="m2.375 42.332 1.944-8.67c.24-.817.77-1.515 1.495-1.965 0 0 2.338-1.466 5.68-2.033.783.574 1.68.95 2.633.95s1.85-.376 2.633-.95"/><path d="m25.876 42.332-1.945-8.67a3.46 3.46 0 0 0-1.494-1.965s-2.339-1.466-5.68-2.033"/></g></svg>