<svg xmlns="http://www.w3.org/2000/svg" viewBox="0 0 50 50"><path fill="none" stroke="#231f20" stroke-linecap="round" stroke-linejoin="round" d="M34.663 9.347q-1.02.05-2.034.088l-.003-.008-4.86-3.732c-1.605-1.232-3.538-1.261-5.161-.077l-5.234 3.817q-1.013-.037-2.034-.088c-3.84-.19-6.837-1.28-6.837 3.981s.712 13.792.712 13.792-.427 6.398 6.98 11.8c6.371 4.648 8.783 6.33 8.783 6.33h0s2.462-1.682 8.833-6.33c7.407-5.402 6.98-11.8 6.98-11.8s.712-8.53.712-13.792c0-5.26-2.996-4.171-6.837-3.98"/><g fill="none" stroke="#231f20" stroke-linecap="round" stroke-linejoin="round"><circle cx="25" cy="15.355" r="2.105"/><circle cx="16.699" cy="21.385" r="2.105"/><circle cx="19.867" cy="31.145" r="2.105"/><circle cx="30.128" cy="31.145" r="2.105"/><circle cx="25" cy="23.966" r="2.105"/><circle cx="33.301" cy="21.387" r="2.105"/><path d="M25 17.461v4.399M28.892 29.441l-2.712-3.733M31.299 22.036l-4.267 1.382M21.105 29.444l2.714-3.736M18.701 22.036l4.266 1.382"/></g></svg>