<svg xmlns="http://www.w3.org/2000/svg" viewBox="0 0 50 50"><circle cx="25.012" cy="6.072" r="1.893" fill="none" stroke="#231f20" stroke-linecap="round" stroke-linejoin="round"/><g fill="none" stroke="#231f20" stroke-linecap="round" stroke-linejoin="round"><path d="M25.012 9.857"/><path stroke-dasharray="0 1.892844" d="M25.012 11.75v.947"/><path d="M25.012 13.643"/></g><circle cx="25.012" cy="43.928" r="1.893" fill="none" stroke="#231f20" stroke-linecap="round" stroke-linejoin="round"/><g fill="none" stroke="#231f20" stroke-linecap="round" stroke-linejoin="round"><path d="M25.012 40.143"/><path stroke-dasharray="0 1.892844" d="M25.012 38.25v-.947"/><path d="M25.012 36.357"/></g><circle cx="36.161" cy="9.703" r="1.893" fill="none" stroke="#231f20" stroke-linecap="round" stroke-linejoin="round"/><g fill="none" stroke="#231f20" stroke-linecap="round" stroke-linejoin="round"><path d="M33.931 12.762"/><path stroke-dasharray="0 1.892844" d="m32.816 14.292-.557.765"/><path d="M31.701 15.822"/></g><circle cx="43.107" cy="19.442" r="1.893" fill="none" stroke="#231f20" stroke-linecap="round" stroke-linejoin="round"/><g fill="none" stroke="#231f20" stroke-linecap="round" stroke-linejoin="round"><path d="M39.488 20.554"/><path stroke-dasharray="0 1.892844" d="m37.678 21.11-.904.278"/><path d="M35.869 21.665"/></g><circle cx="42.747" cy="31.615" r="1.893" fill="none" stroke="#231f20" stroke-linecap="round" stroke-linejoin="round"/><g fill="none" stroke="#231f20" stroke-linecap="round" stroke-linejoin="round"><path d="M39.2 30.292"/><path stroke-dasharray="0 1.892844" d="m37.427 29.631-.887-.331"/><path d="M35.653 28.969"/></g><circle cx="36.013" cy="40.404" r="1.893" fill="none" stroke="#231f20" stroke-linecap="round" stroke-linejoin="round"/><g fill="none" stroke="#231f20" stroke-linecap="round" stroke-linejoin="round"><path d="M33.813 37.323"/><path stroke-dasharray="0 1.892844" d="m32.713 35.783-.55-.77"/><path d="M31.613 34.242"/></g><circle cx="13.839" cy="9.703" r="1.893" fill="none" stroke="#231f20" stroke-linecap="round" stroke-linejoin="round"/><g fill="none" stroke="#231f20" stroke-linecap="round" stroke-linejoin="round"><path d="M16.069 12.762"/><path stroke-dasharray="0 1.892844" d="m17.184 14.292.557.765"/><path d="M18.299 15.822"/></g><circle cx="6.893" cy="19.442" r="1.893" fill="none" stroke="#231f20" stroke-linecap="round" stroke-linejoin="round"/><g fill="none" stroke="#231f20" stroke-linecap="round" stroke-linejoin="round"><path d="M10.512 20.554"/><path stroke-dasharray="0 1.892844" d="m12.322 21.11.904.278"/><path d="M14.131 21.665"/></g><circle cx="7.253" cy="31.615" r="1.893" fill="none" stroke="#231f20" stroke-linecap="round" stroke-linejoin="round"/><g fill="none" stroke="#231f20" stroke-linecap="round" stroke-linejoin="round"><path d="M10.8 30.292"/><path stroke-dasharray="0 1.892844" d="m12.573 29.631.887-.331"/><path d="M14.347 28.969"/></g><circle cx="13.987" cy="40.404" r="1.893" fill="none" stroke="#231f20" stroke-linecap="round" stroke-linejoin="round"/><g fill="none" stroke="#231f20" stroke-linecap="round" stroke-linejoin="round"><path d="M16.187 37.323"/><path stroke-dasharray="0 1.892844" d="m17.287 35.783.55-.77"/><path d="M18.387 34.242"/></g><path fill="none" stroke="#231f20" stroke-linecap="round" stroke-linejoin="round" stroke-width=".75" d="M25 17.546v14.15"/><path fill="#231f20" d="M20.538 24.943a.699.699 0 1 0 0 1.397l.05-.004a.698.698 0 0 0-.05-1.393m-.883-3.656a.699.699 0 1 0 0 1.397l.05-.005a.696.696 0 0 0-.05-1.392m3.281-3.063a.699.699 0 0 0 0 1.399c.017 0 .034-.005.05-.006a.697.697 0 0 0-.05-1.393m.337 8.037a.699.699 0 1 0 0 1.398c.017 0 .033-.005.05-.006a.696.696 0 0 0-.05-1.392m-3.169 2.669a.699.699 0 1 0 0 1.398c.017 0 .033-.005.05-.006a.699.699 0 0 0-.05-1.393m2.523 1.791a.699.699 0 1 0 0 1.4c.017 0 .033-.005.05-.006a.699.699 0 0 0-.05-1.393"/><path fill="none" stroke="#231f20" stroke-linecap="round" stroke-linejoin="round" stroke-width=".75" d="M21.925 22.387c.107-.715-.226-1.424-.867-1.848-.68-.427-1.596-.427-2.515 0-1.228.574-.808 2.423-.806 2.442a.17.17 0 0 1-.026.137c-.01.014-.947 1.386-.449 2.454.28.597.966 1.002 2.039 1.203"/><path fill="none" stroke="#231f20" stroke-linecap="round" stroke-linejoin="round" stroke-width=".75" d="M22.596 18.63c-.651-.531-1.348-1.144-2.027-.87-.594.24-1.073 1.361-.76 2.46M25 31.696v-14.15"/><path fill="none" stroke="#231f20" stroke-linecap="round" stroke-linejoin="round" stroke-width=".75" d="M17.6 26.036c-.653.521-.803 1.32-.592 1.86.239.726.83 1.241 1.132 1.278.11.012.188.105.174.206l-.005.021c-.2.715.001 1.475.54 2.026a1.8 1.8 0 0 0 1.301.636.204.204 0 0 1 .218.136c.309.922 1.34 1.477 2.376 1.279 2.174-.253 2.255-1.738 2.256-1.782m-3.886-13.985c1.26-1.179 2.671-1.407 3.34-1.113.371.19.545.615.545.948M19.79 22.399l.865 1.608M22.725 23.694l-2.07.313M20.655 24.007l-.077 1.187M21.945 30.001l.481 1.031"/><path fill="none" stroke="#231f20" stroke-linecap="round" stroke-linejoin="round" stroke-width=".75" d="m22.862 27.13-1.395.7.477 2.17M21.945 30.001l-1.413-.287M25 17.546v14.15"/><path fill="#231f20" d="M29.462 24.943a.698.698 0 0 0-.05 1.393l.05.004a.699.699 0 1 0 0-1.397m.883-3.656a.696.696 0 0 0-.05 1.392l.05.005a.699.699 0 1 0 0-1.397m-3.514 1.63a.696.696 0 0 0-.05 1.392c.018 0 .033.005.05.005a.699.699 0 1 0 0-1.397m.233-4.693a.697.697 0 0 0-.051 1.393c.017.001.034.006.051.006a.699.699 0 0 0 0-1.4m-3.91 4.683a.697.697 0 0 0-.051 1.393c.017.001.034.006.05.006a.699.699 0 0 0 0-1.399m3.574 3.355a.696.696 0 0 0-.05 1.392c.017.001.033.006.05.006a.699.699 0 1 0 0-1.398m3.169 2.669a.699.699 0 0 0-.05 1.392c.017.001.033.006.05.006a.699.699 0 1 0 0-1.399m-2.523 1.791a.699.699 0 0 0-.05 1.394l.05.005a.699.699 0 1 0 0-1.398"/><path fill="none" stroke="#231f20" stroke-linecap="round" stroke-linejoin="round" stroke-width=".75" d="M28.075 22.387c-.107-.715.226-1.424.867-1.848.68-.427 1.596-.427 2.515 0 1.228.574.808 2.423.806 2.442a.17.17 0 0 0 .026.137c.01.014.947 1.386.449 2.454-.28.597-.966 1.002-2.039 1.203"/><path fill="none" stroke="#231f20" stroke-linecap="round" stroke-linejoin="round" stroke-width=".75" d="M27.404 18.63c.651-.531 1.348-1.144 2.027-.87.594.24 1.072 1.361.76 2.46M25 31.696v-14.15"/><path fill="none" stroke="#231f20" stroke-linecap="round" stroke-linejoin="round" stroke-width=".75" d="M32.4 26.036c.653.521.803 1.32.592 1.86-.239.726-.83 1.241-1.132 1.278-.11.012-.188.105-.174.206l.005.021c.2.715-.001 1.475-.54 2.026a1.8 1.8 0 0 1-1.301.636.204.204 0 0 0-.218.136c-.309.922-1.34 1.477-2.376 1.279-2.174-.253-2.255-1.738-2.256-1.782m3.886-13.985c-1.26-1.179-2.671-1.407-3.34-1.113-.371.19-.545.615-.546.948M30.209 22.399l-.864 1.608M27.275 23.694l2.07.313M29.345 24.007l.077 1.187M28.055 30.001l-.481 1.031"/><path fill="none" stroke="#231f20" stroke-linecap="round" stroke-linejoin="round" stroke-width=".75" d="m27.138 27.13 1.395.7-.477 2.17M28.055 30.001l1.413-.287"/></svg>