<svg xmlns="http://www.w3.org/2000/svg" viewBox="0 0 50 50"><path fill="none" stroke="#000" stroke-linecap="round" stroke-linejoin="round" d="M23.987 26.46c-.74.934-1.59 1.452-2.953 1.452-1.934 0-3.501-1.304-3.501-2.911s1.567-2.91 3.501-2.91c1.45 0 2.46.653 3.226 1.777.427.628.856 1.395 1.436 2.182s1.778 1.862 3.267 1.862c1.934 0 3.501-1.304 3.501-2.911s-1.567-2.91-3.5-2.91c-1.27 0-2.124.466-2.899 1.366z"/><g fill="none" stroke="#000" stroke-linecap="round" stroke-linejoin="round"><circle cx="24.996" cy="25.003" r="10"/><path d="m26.638 5.071 1.084 5.238c.087.016.173.028.26.046a15 15 0 0 1 1.96.543l3.375-4.083"/><path d="m27.722 10.309-1.084-5.238a20 20 0 0 0-3.517.015l-.885 5.225m14.141-1.762-1.678 5.08q.834.713 1.55 1.535l4.949-1.89"/><path d="m34.699 13.63 1.678-5.081a20 20 0 0 0-3.06-1.734l-3.375 4.083m-10.04.052-3.585-3.965a20 20 0 0 0-3.022 1.801l1.883 4.95"/><path d="m16.317 6.985 3.585 3.964a15 15 0 0 1 2.334-.638l.885-5.225m13.254 29.609 5.082 1.676a20 20 0 0 0 1.732-3.061l-4.085-3.373M8.563 13.6l5.078 1.685q.714-.832 1.537-1.548l-1.883-4.951m25.748 11.099 3.959-3.59a20 20 0 0 0-1.804-3.02l-4.949 1.89m8.68 11.465-5.237 1.087c-.017.089-.03.178-.048.268a15 15 0 0 1-.54 1.952l4.085 3.373M39.692 27.717l5.237-1.087a20 20 0 0 0-.017-3.518l-5.225-.881"/><path d="m43.002 16.295-3.96 3.59q.417 1.14.645 2.346l5.225.881m-14.79 15.93L33.714 43a20 20 0 0 0 3.02-1.805l-1.893-4.947m-11.521 8.68-1.073-5.24c-.078-.015-.155-.025-.232-.041a15 15 0 0 1-1.987-.552l-3.383 4.076"/><path d="m22.247 39.688 1.073 5.24c1.187.101 2.363.097 3.518-.01l.894-5.222"/><path d="m33.714 43-3.592-3.958q-1.161.425-2.39.654l-.894 5.222m14.619-8.548-5.082-1.675a15 15 0 0 1-1.534 1.552l1.893 4.947m-21.458-4.841-1.687 5.078a20 20 0 0 0 3.056 1.74l3.383-4.076M5.071 23.334l5.24-1.077c.014-.08.025-.16.042-.24.139-.681.325-1.34.55-1.98l-4.08-3.38m6.817-1.372L8.564 13.6a20 20 0 0 0-1.74 3.057l4.08 3.38"/><path d="m10.31 22.257-5.239 1.077c-.1 1.186-.096 2.362.011 3.517l5.223.892m.639 2.347-3.966 3.583a20 20 0 0 0 1.8 3.023l4.951-1.88"/><path d="m13.589 41.43 1.687-5.077a15 15 0 0 1-1.547-1.537l-4.952 1.88m-1.799-3.023 3.966-3.583a15 15 0 0 1-.639-2.347l-5.223-.892"/></g></svg>