<svg xmlns="http://www.w3.org/2000/svg" data-name="Isolation Mode" viewBox="0 0 50 50"><path d="M21.514 24.88a1 1 0 0 1-.094-.282 3 3 0 0 1-.05-.351q-.15.15-.336.284-.185.135-.409.236a2.45 2.45 0 0 1-1.012.221q-.462 0-.835-.135-.374-.134-.634-.362c-.26-.228-.308-.333-.402-.542a1.6 1.6 0 0 1-.143-.68q0-.479.19-.838.191-.36.54-.598.35-.24.841-.358.492-.118 1.098-.118h1.085V20.9q0-.263-.097-.473a.8.8 0 0 0-.273-.356q-.178-.148-.433-.229a1.5 1.5 0 0 0-.572-.08 1.7 1.7 0 0 0-.528.075q-.235.075-.396.199a.9.9 0 0 0-.249.293.74.74 0 0 0-.089.351h-.999q.005-.318.164-.623.159-.306.456-.55.299-.246.726-.395.426-.15.969-.15.494 0 .919.12.424.12.733.366.308.243.485.61.178.365.178.853v2.702q0 .29.054.615.053.325.15.567v.086zm-1.756-.757q.29 0 .542-.075.254-.075.46-.199t.357-.282.236-.33V22.06h-.924q-.87 0-1.353.258c-.483.258-.484.442-.484.812q0 .213.074.397.071.182.216.315.146.13.366.206t.51.075m9.463-2.084a4.3 4.3 0 0 1-.15 1.163q-.15.54-.44.937a2.1 2.1 0 0 1-.717.623q-.428.226-.975.226-.532 0-.938-.172a1.95 1.95 0 0 1-.695-.494v2.793h-.994v-8.046h.908l.048.634q.29-.36.701-.55.412-.191.953-.191.56 0 .989.22.43.22.72.612t.44.937.15 1.195zm-.993-.113q0-.424-.094-.808a2.1 2.1 0 0 0-.29-.677 1.5 1.5 0 0 0-.497-.465 1.43 1.43 0 0 0-.72-.172q-.478 0-.802.224-.325.222-.519.571v2.8q.194.342.516.56.322.217.816.217.414 0 .714-.173a1.46 1.46 0 0 0 .494-.471q.194-.294.288-.682.094-.387.094-.811zm7.638.113q0 .624-.15 1.163-.151.54-.441.937a2.1 2.1 0 0 1-.718.623q-.427.226-.974.226-.532 0-.938-.172a2 2 0 0 1-.695-.494v2.793h-.993v-8.046h.907l.049.634q.29-.36.7-.55.411-.191.954-.191.558 0 .988.22t.72.612.44.937.15 1.195zm-.994-.113q0-.424-.094-.808c-.094-.384-.16-.482-.29-.677s-.296-.35-.497-.465a1.43 1.43 0 0 0-.72-.172q-.477 0-.803.224-.326.222-.518.571v2.8q.193.342.515.56.323.217.817.217.413 0 .715-.173.3-.176.494-.471.193-.294.287-.682c.094-.388.094-.528.094-.811z"/><path fill="none" stroke="#000" stroke-linecap="round" stroke-linejoin="round" d="M24.679 40.5h12.06a7.455 7.455 0 0 0 7.456-7.455v-20.09A7.455 7.455 0 0 0 36.74 5.5H16.65a7.455 7.455 0 0 0-7.455 7.455v12.077"/><g fill="none" stroke="#231f20"><path stroke-miterlimit="10" d="M4.605 37.654c-.08.348.037.86.26 1.138l4.378 5.49c.222.279.695.507 1.05.507h7.024c.356 0 .829-.228 1.05-.506l4.38-5.491c.222-.279.339-.79.26-1.138l-1.563-6.847c-.08-.347-.407-.757-.728-.912l-6.327-3.047c-.321-.154-.846-.154-1.167 0l-6.327 3.047c-.321.155-.648.565-.728.912z"/><path stroke-linecap="round" stroke-linejoin="round" d="M13.805 35.137v-5.468M12.978 35.535l-4.274-3.409M12.774 36.43l-5.33 1.217M13.346 37.148l-2.372 4.926M14.264 37.148l2.373 4.926M14.837 36.43l5.33 1.216M14.632 35.535l4.275-3.409"/><circle cx="13.805" cy="36.194" r="1.058" stroke-miterlimit="10"/><circle cx="13.805" cy="36.194" r="5.389" stroke-miterlimit="10"/></g></svg>