<svg xmlns="http://www.w3.org/2000/svg" viewBox="0 0 50 50"><path fill="none" stroke="#000" stroke-linecap="round" stroke-linejoin="round" d="M26 28.253h14M26 32.253h14M26 36.253h10"/><g fill="none" stroke="#000" stroke-linecap="round" stroke-linejoin="round"><path d="M24.588 20.518c2.36-1.727 3.963-5.106 3.963-8.993 0-5.644-3.38-7.778-7.548-7.778-4.17 0-7.55 2.134-7.55 7.778 0 3.887 1.605 7.267 3.966 8.994"/><path d="m5 37.747 2.648-11.79a4.7 4.7 0 0 1 2.035-2.674s3.184-1.993 7.734-2.765c1.067.781 2.288 1.292 3.586 1.292 1.297 0 2.518-.51 3.585-1.292"/><path d="M29.03 21.732a24 24 0 0 0-4.447-1.214"/></g><path fill="none" stroke="#000" stroke-linecap="round" stroke-linejoin="round" d="M44.11 24.253H21.89a.894.894 0 0 0-.89.893V39.36c0 .49.4.893.89.893h4.554l-.044 5.23s.032.419.276.602c.147.11.507.312.924.005.343-.253.797-.808 1.2-1.213 1.063-1.068 2.975-2.805 4.77-4.624h10.54c.49 0 .89-.402.89-.893V25.146c0-.492-.4-.893-.89-.893"/></svg>