<svg xmlns="http://www.w3.org/2000/svg" viewBox="0 0 50 50"><circle cx="31.5" cy="18.5" r="13.5" fill="none" stroke="#231f20" stroke-miterlimit="10"/><circle cx="16.5" cy="33.5" r="11.5" fill="none" stroke="#231f20" stroke-miterlimit="10"/><path fill="#231f20" d="M9.979 31.367h2.466v.665h-.832v2.939h.832v.662H9.98v-.662h.811v-2.939H9.98zm4.054 2.701v1.565h-.823v-4.266h1.459q.348 0 .63.102.281.1.478.281.199.18.305.432c.106.252.107.354.107.56q0 .285-.107.53a.94.94 0 0 1-.305.42q-.196.177-.478.277c-.282.1-.398.1-.63.1zm0-.668h.636q.176 0 .305-.052c.129-.052.157-.083.215-.144a.6.6 0 0 0 .13-.21.8.8 0 0 0 .041-.247q0-.15-.042-.278a.7.7 0 0 0-.129-.226q-.087-.096-.215-.152c-.128-.056-.188-.056-.305-.056h-.636zm4.102 1.292.04.229.042-.22.697-2.238h.85l-1.204 3.17h-.765l-1.21-3.17h.85zm4.391-.644h.495v.659h-.495v.926h-.814v-.926h-1.773l-.032-.51 1.793-2.83h.826zm-1.819 0h1.005v-1.585l-.08.14zM24.143 15.998h2.877v.775h-.971v3.43h.97v.772h-2.876v-.773h.946v-3.429h-.946zm4.589 3.152v1.825h-.96v-4.977h1.702q.407 0 .735.118t.559.328.355.504c.125.294.125.413.125.654q0 .333-.125.618c-.125.285-.201.352-.355.49q-.23.207-.559.323c-.329.116-.464.116-.735.116zm0-.78h.742q.204 0 .355-.061a.68.68 0 0 0 .402-.412.8.8 0 0 0 .05-.29q0-.172-.05-.324c-.05-.152-.083-.187-.15-.263a.7.7 0 0 0-.252-.178.9.9 0 0 0-.355-.065h-.742zm4.647 1.507.047.268.049-.257.812-2.612h.992l-1.405 3.699h-.892l-1.412-3.699h.992zm4.729-3.92v.79h-.054q-.375 0-.664.099c-.29.099-.357.159-.493.28s-.243.266-.32.435q-.12.252-.15.563.078-.085.181-.169a1.4 1.4 0 0 1 .51-.258q.15-.04.324-.04.357 0 .62.134c.264.134.325.212.443.365q.178.232.266.537.086.305.086.645 0 .362-.116.673c-.116.31-.187.387-.332.54q-.214.228-.522.36c-.308.132-.436.132-.69.132q-.401 0-.721-.148-.322-.15-.546-.413c-.224-.263-.264-.383-.345-.624s-.121-.503-.121-.788v-.365q0-.591.16-1.096c.16-.505.267-.626.479-.87s.474-.437.789-.575.678-.207 1.09-.207zm-.943 2.461q-.255 0-.452.137c-.197.137-.23.209-.296.351v.282q0 .272.057.478.056.205.158.34c.102.135.15.157.243.203s.194.068.304.068a.65.65 0 0 0 .537-.263.9.9 0 0 0 .146-.292q.052-.17.052-.37 0-.203-.052-.373-.05-.172-.146-.296a.54.54 0 0 0-.235-.195.7.7 0 0 0-.316-.07"/></svg>