<svg xmlns="http://www.w3.org/2000/svg" viewBox="0 0 50 50"><path d="M36.49 22.2c0-1.32-.266-2.18-.84-2.707-.788-.725-1.922-.63-3.238-.518-.32.026-.655.055-1 .072q-.585.03-1.164.05l-3.1-2.382c-1.239-.95-2.784-.974-4.038-.059l-3.346 2.442q-.586-.023-1.175-.051c-.345-.017-.68-.046-1-.072-1.317-.111-2.451-.207-3.24.518-.573.527-.84 1.387-.84 2.708 0 3.482.47 9.16.476 9.16-.012.186-.244 4.583 4.853 8.304 4.2 3.066 5.843 4.215 5.86 4.227a.5.5 0 0 0 .568.003c.016-.012 1.694-1.162 5.896-4.229 5.098-3.722 4.865-8.12 4.852-8.23.005-.057.476-5.748.476-9.235m-5.918 16.657a331 331 0 0 1-5.586 4.014 452 452 0 0 1-5.558-4.014c-4.63-3.378-4.455-7.267-4.446-7.504-.004-.057-.472-5.707-.472-9.152 0-1.008.169-1.653.516-1.972.278-.255.705-.332 1.244-.332.364 0 .78.036 1.234.074.332.028.678.057 1.035.075q.684.033 1.36.058a.48.48 0 0 0 .314-.096l3.487-2.544c.906-.66 1.94-.645 2.838.044l3.2 2.46c.095.09.232.147.363.136q.676-.025 1.36-.058c.357-.018.704-.047 1.035-.075 1.125-.095 2.013-.17 2.478.258.347.32.516.964.516 1.972 0 3.445-.468 9.095-.473 9.225.01.164.185 4.053-4.445 7.431"/><path d="M28.9 25.307a.497.497 0 0 0-.691.14l-4.324 6.541-2.111-2.801a.5.5 0 1 0-.799.602l2.537 3.366a.5.5 0 0 0 .4.2h.015a.5.5 0 0 0 .402-.225L29.04 26a.5.5 0 0 0-.14-.693"/><path d="M25 21.866c-4.093 0-7.423 3.33-7.423 7.423s3.33 7.423 7.423 7.423 7.423-3.33 7.423-7.423-3.33-7.423-7.423-7.423m0 13.846c-3.542 0-6.423-2.88-6.423-6.423s2.881-6.423 6.423-6.423 6.423 2.881 6.423 6.423-2.881 6.423-6.423 6.423"/><path d="M45.034 6.019H4.966a.5.5 0 0 0-.5.5v30.578a.5.5 0 0 0 .5.5h8.3a.5.5 0 1 0 0-1h-7.8V12.722h39.068v23.875h-7.813a.5.5 0 1 0 0 1h8.313a.5.5 0 0 0 .5-.5V6.519a.5.5 0 0 0-.5-.5m-39.568 1h39.068v4.703H5.466z"/><path d="M10.69 8.87H7.828a.5.5 0 1 0 0 1h2.862a.5.5 0 1 0 0-1m5.724 0h-2.862a.5.5 0 1 0 0 1h2.862a.5.5 0 1 0 0-1m5.724 0h-2.862a.5.5 0 1 0 0 1h2.862a.5.5 0 1 0 0-1"/><circle cx="42.172" cy="9.37" r="1"/></svg>