<svg xmlns="http://www.w3.org/2000/svg" viewBox="0 0 50 50"><path d="M11.657 28.92c-.827 0-1.5.673-1.5 1.5s.673 1.5 1.5 1.5 1.5-.673 1.5-1.5-.673-1.5-1.5-1.5"/><circle cx="10.657" cy="17.348" r="1.5"/><path d="M31.67 15.848c-.827 0-1.5.673-1.5 1.5s.673 1.5 1.5 1.5 1.5-.673 1.5-1.5-.673-1.5-1.5-1.5m-6.648-8.084c-.827 0-1.5.673-1.5 1.5s.673 1.5 1.5 1.5 1.5-.673 1.5-1.5-.673-1.5-1.5-1.5m14.321 20.215c-.827 0-1.5.673-1.5 1.5s.673 1.5 1.5 1.5 1.5-.673 1.5-1.5-.673-1.5-1.5-1.5"/><circle cx="23.098" cy="40.736" r="1.5"/><circle cx="22.807" cy="23.885" r="1.5"/><g fill="none" stroke="#000" stroke-linecap="round" stroke-linejoin="round"><path d="M28.133 23.89h6.172v5.595l5.038.008v-7.852l-5.106-.016-.033-8.781H19.238v6.847h-9.99v8.526h15.999v7.052h3.71v-2.184h5.224v4.292H23.079v3.36"/><path d="M25.027 9.264V19.63h6.898v1.696l-12.682.002.003 16.075h-5.217v-2.055h8.8l-.007-17.998H10.657"/><path d="M28.583 23.01v6.343h3.359v5.971h5.364l-.03-4.105-10.121-.018.005 2.05-10.612.063v-2.888l-4.891.005.013-8.476h5.062v4.277h15.134v1.629h5.042l-.02-12.938-23.768-.018.091 8.982h15.372V10.944h3.11v6.424"/></g><circle cx="25" cy="25" r="20" fill="none" stroke="#000" stroke-linecap="round" stroke-linejoin="round"/></svg>