<svg xmlns="http://www.w3.org/2000/svg" viewBox="0 0 50 50"><g fill="none" stroke="#000" stroke-linecap="round" stroke-linejoin="round"><path d="M10 5v40h30V16L29 5z"/><path d="M29 5v11h11"/></g><path d="M22.019 41.701a.59.59 0 0 0-.204-.467 1.2 1.2 0 0 0-.29-.184 3 3 0 0 0-.446-.155 4 4 0 0 1-.62-.223 2.2 2.2 0 0 1-.522-.321q-.225-.187-.36-.438a1.2 1.2 0 0 1-.136-.574q0-.315.134-.57a1.05 1.05 0 0 1 .369-.438 1.7 1.7 0 0 1 .557-.278q.322-.099.697-.098.39 0 .713.112.323.113.555.317c.232.204.276.297.363.483q.13.282.13.615h-.937a1 1 0 0 0-.06-.307.65.65 0 0 0-.157-.24.7.7 0 0 0-.26-.158 1 1 0 0 0-.364-.056 1.2 1.2 0 0 0-.34.046q-.15.045-.251.13a.46.46 0 0 0-.156.198.6.6 0 0 0-.053.248.47.47 0 0 0 .07.253q.07.112.204.203c.134.09.196.115.323.166q.19.075.429.14.341.099.629.243c.288.144.356.209.494.34q.205.196.321.448.114.25.114.558 0 .329-.132.583a1.3 1.3 0 0 1-.363.431 1.7 1.7 0 0 1-.554.267q-.322.09-.7.09-.237 0-.47-.043a2.3 2.3 0 0 1-.449-.131q-.213-.09-.398-.223c-.185-.133-.23-.192-.32-.31a1.44 1.44 0 0 1-.288-.903h.943q.007.226.079.386a.7.7 0 0 0 .2.263.8.8 0 0 0 .308.15q.178.048.394.049.192 0 .34-.045.15-.044.252-.123a.53.53 0 0 0 .212-.434m4.995-.674a2.4 2.4 0 0 1-.159.864q-.155.404-.456.692l.824.745-.619.55-.947-.875a2 2 0 0 1-.502.065q-.431 0-.766-.166c-.335-.166-.412-.26-.565-.447q-.232-.282-.35-.651a2 2 0 0 1-.12-.777v-.861q0-.481.12-.887.118-.405.35-.699.23-.293.565-.459t.766-.166q.435 0 .78.166.345.165.584.46.239.293.367.698t.128.887zm-.974-.868q0-.307-.05-.565a1.5 1.5 0 0 0-.155-.447q-.106-.187-.273-.292c-.167-.105-.248-.104-.407-.104a.7.7 0 0 0-.395.106q-.158.105-.255.292c-.097.187-.109.273-.136.445s-.041.36-.041.565v.868q0 .234.04.457.041.224.137.4a.64.64 0 0 0 .255.285q.16.11.395.11.24 0 .407-.108a.85.85 0 0 0 .273-.285q.106-.18.156-.402.049-.223.049-.457zm2.53 2.065h2.33V43h-3.294v-4.977h.964z"/><g fill="none" stroke="#000" stroke-linecap="round" stroke-linejoin="round" stroke-width="1.059"><path d="M21.625 21 16 24.363l5.625 3.363M28.375 27.726 34 24.363 28.375 21M26.125 21l-2.25 6.726"/></g><path fill="#fff" stroke="#231f20" stroke-miterlimit="10" d="M10 36h30"/></svg>