<svg xmlns="http://www.w3.org/2000/svg" data-name="Isolation Mode" viewBox="0 0 50 50"><g fill="none" stroke="#231f20" stroke-linecap="round" stroke-linejoin="round"><path d="m20.79 8.97-.001.006v25.439M12.766 22.742a.785.785 0 1 0 0 1.571l.056-.005a.783.783 0 0 0-.056-1.566m3.952-2.706c.07.362.387.636.77.636q.029-.002.056-.006a.783.783 0 0 0-.056-1.565.785.785 0 0 0-.77.935m-5.541-2.296q.029-.002.056-.007a.783.783 0 0 0-.056-1.565.785.785 0 1 0 0 1.571m6.687-6.292a.786.786 0 1 0-.786.785l.057-.005a.783.783 0 0 0 .729-.78m-.18 15.237.056-.006a.783.783 0 0 0-.056-1.565.786.786 0 0 0 0 1.571M11.2 30.698c0 .433.35.785.785.785l.056-.006a.783.783 0 0 0-.056-1.565.785.785 0 0 0-.786.786m4.537 3.222c0 .433.351.785.785.785.02 0 .038-.005.056-.006a.783.783 0 0 0-.056-1.565.785.785 0 0 0-.785.785"/><path d="M15.26 17.675c.191-1.285-.408-2.561-1.56-3.322-1.222-.77-2.87-.77-4.522 0-2.207 1.03-1.454 4.357-1.448 4.39a.3.3 0 0 1-.048.247c-.018.025-1.703 2.492-.807 4.413.503 1.074 1.736 1.802 3.666 2.163"/><path d="M16.466 10.92c-1.17-.957-2.423-2.06-3.645-1.565-1.067.432-1.928 2.448-1.368 4.424M20.79 34.415V8.97"/><path d="M7.483 24.237c-1.174.938-1.444 2.373-1.065 3.344.429 1.306 1.492 2.233 2.034 2.298.2.024.34.19.314.371l-.008.039c-.362 1.286.002 2.651.97 3.643.557.677 1.413 1.096 2.34 1.143.178-.018.344.086.39.243.557 1.66 2.412 2.658 4.275 2.301 3.91-.455 4.054-3.125 4.056-3.204M13.801 9.267c2.267-2.12 4.803-2.53 6.006-2 .668.34.98 1.104.982 1.703M11.421 17.697l1.555 2.891M16.699 20.026l-3.723.562M12.976 20.588l-.139 2.135M15.295 31.367l.866 1.855"/><path d="m16.945 26.204-2.51 1.26.86 3.903M15.295 31.367l-2.541-.515M20.79 8.97v25.445M24.862 20.036a.785.785 0 0 1-.77.636q-.03-.002-.057-.006a.783.783 0 0 1 .056-1.565.785.785 0 0 1 .77.935m5.541-2.296q-.029-.002-.056-.007a.783.783 0 0 1 .056-1.565.785.785 0 1 1 0 1.571m-6.687-6.292a.786.786 0 1 1 .786.785l-.056-.005a.783.783 0 0 1-.73-.78"/><path d="M26.319 17.675c-.191-1.285.408-2.561 1.56-3.322 1.222-.77 2.87-.77 4.522 0 2.207 1.03 1.454 4.357 1.448 4.39a.3.3 0 0 0 .048.247c.017.023 1.51 2.21.94 4.068"/><path d="M25.113 10.92c1.17-.957 2.423-2.06 3.645-1.565 1.067.432 1.928 2.448 1.368 4.424M20.79 34.415V8.97"/><path d="M24.615 37.601c-3.91-.455-3.823-3.107-3.825-3.186m6.988-25.148c-2.267-2.12-4.803-2.53-6.006-2-.668.34-.98 1.104-.982 1.703M30.158 17.697l-1.555 2.891M24.88 20.026l3.723.562M28.603 20.588l1.64 3.286M23.84 26.684l-.055-.006a.783.783 0 0 1 .056-1.565.786.786 0 0 1 0 1.571M24.579 26.204l2.021.991"/></g><ellipse cx="35.224" cy="34.089" fill="none" stroke="#231f20" stroke-linecap="round" stroke-linejoin="round" rx="11.025" ry="11.03"/><path fill="none" stroke="#231f20" stroke-linecap="round" stroke-linejoin="round" d="M24.852 34.112h5.61l3.296-6.126 3.296 12.251 3.296-6.125h5.908"/></svg>