<svg xmlns="http://www.w3.org/2000/svg" data-name="Isolation Mode" viewBox="0 0 50 50"><path fill="none" stroke="#000" stroke-linecap="round" stroke-linejoin="round" d="M41 23.517v2.982"/><path d="M10 24.008a1 1 0 1 1 0 2 1 1 0 0 1 0-2m0-1c-1.103 0-2 .897-2 2s.897 2 2 2 2-.897 2-2-.897-2-2-2"/><path fill="none" stroke="#000" stroke-linecap="round" stroke-miterlimit="10" d="M34.35 29.008h9.264c.765 0 1.386-.62 1.386-1.386v-5.19c0-.787-.637-1.424-1.423-1.424m-37.191 0c-.765 0-1.386.62-1.386 1.386v5.228c0 .766.62 1.386 1.386 1.386h9.264"/><path fill="none" stroke="#000" stroke-linecap="round" stroke-linejoin="round" d="M37 23.517v2.982M41 15.517v2.982M37 15.517v2.982"/><path d="M10 16.008a1 1 0 1 1 0 2 1 1 0 0 1 0-2m0-1c-1.103 0-2 .897-2 2s.897 2 2 2 2-.897 2-2-.897-2-2-2"/><path fill="none" stroke="#000" stroke-linecap="round" stroke-miterlimit="10" d="M6.386 13.008c-.765 0-1.386.62-1.386 1.386v5.228c0 .766.62 1.386 1.386 1.386h9.264m18.7 0h9.264c.765 0 1.386-.62 1.386-1.386v-5.19c0-.787-.637-1.424-1.423-1.424"/><path fill="none" stroke="#000" stroke-linecap="round" stroke-linejoin="round" d="M41 7.517v2.982M37 7.517v2.982M33 7.517v2.982"/><path d="M10 8.008a1 1 0 1 1 0 2 1 1 0 0 1 0-2m0-1c-1.103 0-2 .897-2 2s.897 2 2 2 2-.897 2-2-.897-2-2-2"/><path fill="none" stroke="#000" stroke-linecap="round" stroke-miterlimit="10" d="M34.35 13.008h9.264c.765 0 1.386-.62 1.386-1.386v-5.19c0-.787-.637-1.424-1.423-1.424H6.387C5.62 5.008 5 5.628 5 6.394v5.228c0 .766.62 1.386 1.386 1.386h9.264"/><path fill="none" stroke="#000" stroke-linecap="round" stroke-linejoin="round" d="M23.3 43.271h3.4M34.35 15.22v-3.422a.85.85 0 0 0-.85-.85h-17a.85.85 0 0 0-.85.85v3.422m0 25.5v3.422c0 .47.38.85.85.85h17c.47 0 .85-.38.85-.85V40.72"/><rect width="18.701" height="27.201" x="15.65" y="14.37" fill="none" stroke="#000" stroke-linecap="round" stroke-linejoin="round" rx=".85" ry=".85"/><path d="M18.2 11.82a.85.85 0 1 0 0 1.7.85.85 0 0 0 0-1.7"/><path fill="none" stroke="#000" stroke-linecap="round" stroke-linejoin="round" d="m28.084 22.763-.022 10.098" data-name="Line 254"/><path fill="none" stroke="#000" stroke-linecap="round" stroke-linejoin="round" d="m24.456 29.255 3.606 3.606 3.607-3.606"/><path fill="none" stroke="#000" stroke-linecap="round" stroke-linejoin="round" d="m21.967 32.861.022-10.098" data-name="Line 254"/><path fill="none" stroke="#000" stroke-linecap="round" stroke-linejoin="round" d="m25.596 26.37-3.607-3.607-3.606 3.607"/></svg>