<svg xmlns="http://www.w3.org/2000/svg" data-name="Isolation Mode" viewBox="0 0 50 50"><circle cx="25.173" cy="31.857" r="9" fill="none" stroke="#000" stroke-linecap="round" stroke-linejoin="round"/><g fill="none" stroke="#000" stroke-linecap="round" stroke-linejoin="round"><path d="M21.323 30.129h7.333v6.418h-7.333zM27.736 28.296a2.745 2.745 0 1 0-5.492 0v1.833"/></g><path fill="none" stroke="#000" stroke-linecap="round" stroke-linejoin="round" d="M41 27.652v2.982M37 27.652v2.982"/><path d="M10 28.143a1 1 0 1 1 0 2 1 1 0 0 1 0-2m0-1c-1.103 0-2 .897-2 2s.897 2 2 2 2-.897 2-2-.897-2-2-2"/><path fill="none" stroke="#000" stroke-linecap="round" stroke-linejoin="round" d="M19.18 25.143H6.386c-.765 0-1.386.62-1.386 1.386v5.228c0 .765.62 1.386 1.386 1.386h9.879m17.817 0h9.532c.765 0 1.386-.62 1.386-1.386v-5.191c0-.786-.637-1.423-1.423-1.423H31.492M41 19.652v2.982M37 19.652v2.982M33 19.652v2.982"/><path d="M10 20.143a1 1 0 1 1 0 2 1 1 0 0 1 0-2m0-1c-1.103 0-2 .897-2 2s.897 2 2 2 2-.897 2-2-.897-2-2-2"/><path fill="none" stroke="#000" stroke-linecap="round" stroke-linejoin="round" d="M31.14 25.143h12.474c.765 0 1.386-.62 1.386-1.386v-5.191c0-.786-.637-1.423-1.423-1.423H6.387c-.766 0-1.387.62-1.387 1.386v5.228c0 .765.62 1.386 1.386 1.386h12.4M41 11.652v2.982M37 11.652v2.982M33 11.652v2.982"/><path d="M10 12.143a1 1 0 1 1 0 2 1 1 0 0 1 0-2m0-1c-1.103 0-2 .897-2 2s.897 2 2 2 2-.897 2-2-.897-2-2-2"/><path fill="none" stroke="#000" stroke-linecap="round" stroke-linejoin="round" d="M6.386 9.143h37.191c.785 0 1.423.638 1.423 1.423v5.19c0 .766-.621 1.387-1.386 1.387H6.386A1.387 1.387 0 0 1 5 15.757v-5.228c0-.765.621-1.386 1.386-1.386"/></svg>