<svg xmlns="http://www.w3.org/2000/svg" data-name="Isolation Mode" viewBox="0 0 50 50"><g fill="none" fill-rule="evenodd" stroke="#000" stroke-miterlimit="10"><path d="M43.667 17.29c-.667 0-1.334.593-1.334 1.354v12.777c0 .762.667 1.354 1.334 1.354.75 0 1.333-.592 1.333-1.354V18.644c0-.761-.583-1.354-1.333-1.354Zm-37.334 0c-.75 0-1.333.593-1.333 1.354v12.777c0 .762.583 1.354 1.333 1.354s1.334-.592 1.334-1.354V18.644c0-.761-.584-1.354-1.334-1.354Zm12.333-1.962c2.694 0 4.967 2.233 4.967 5.067s-2.273 5.067-4.967 5.067c-2.778 0-5.051-2.233-5.051-5.067s2.273-5.067 5.05-5.067Zm12.712 0c2.694 0 4.967 2.233 4.967 5.067s-2.273 5.067-4.967 5.067c-2.778 0-4.967-2.233-4.967-5.067s2.189-5.067 4.967-5.067Z"/><path d="M37.89 40H11.984c-1.185 0-2.155-.994-2.155-2.208l.1-25.584c0-1.214.97-2.208 2.156-2.208h25.906c1.185 0 2.155.994 2.155 2.208l-.1 25.584c0 1.214-.97 2.208-2.156 2.208Z"/></g><g fill="none" stroke="#000"><path stroke-linecap="round" stroke-linejoin="round" d="M18.025 28.837c3.85 3.578 10.09 3.578 13.94 0"/><path stroke-linecap="round" stroke-linejoin="round" d="M15.753 31.574c5.206 4.51 13.278 4.51 18.483 0"/><path stroke-miterlimit="10" d="M15.886 31.684c-.803-.635-.85-1.824-.126-2.524s1.833-.77 2.516-.108m15.838 2.632c.803-.635.85-1.824.126-2.524s-1.833-.77-2.516-.108"/></g></svg>