<svg xmlns="http://www.w3.org/2000/svg" data-name="Isolation Mode" viewBox="0 0 50 50"><g fill="none" stroke="#231f20"><path stroke-linecap="round" stroke-linejoin="round" d="M20.664 40.73C24.93 43.828 26.61 45 26.61 45h0s2.428-1.661 8.716-6.251c7.309-5.336 6.887-11.655 6.887-11.655s.703-8.426.703-13.621-2.956-4.12-6.747-3.932m0-.001q-1.006.05-2.006.087l-.003-.008-4.796-3.685c-1.584-1.217-3.491-1.246-5.093-.077l-5.165 3.77q-1-.037-2.007-.086c-3.79-.189-6.747-1.264-6.747 3.932s.703 13.62.703 13.62-.024.357.038.973"/><path stroke-linecap="round" stroke-linejoin="round" d="M32.004 18.692h.001l-6.983 10.564-3.76-4.989"/><path stroke-miterlimit="10" d="M16.893 27.205a10.5 10.5 0 0 1-.515-3.231c0-5.665 4.592-10.257 10.256-10.257S36.89 18.31 36.89 23.974 32.3 34.23 26.634 34.23c-1.298 0-2.54-.241-3.683-.681"/></g><circle cx="15.084" cy="35" r="8" fill="none" stroke="#231f20" stroke-linecap="round" stroke-linejoin="round"/><path fill="#231f20" d="M16.883 32.962c.368 0 .667.319.667.71s-.3.711-.667.711c-.38 0-.667-.305-.667-.71s.287-.711.667-.711m-3.626 0c.367 0 .667.319.667.71s-.3.711-.667.711c-.388 0-.691-.312-.691-.71s.303-.711.69-.711m3.627-.75c-.792 0-1.417.643-1.417 1.46s.625 1.461 1.417 1.461c.769 0 1.417-.644 1.417-1.46s-.648-1.461-1.417-1.461m-3.626 0c-.793 0-1.441.643-1.441 1.46s.648 1.461 1.44 1.461c.77 0 1.418-.644 1.418-1.46s-.649-1.461-1.417-1.461"/><path fill="none" stroke="#231f20" stroke-miterlimit="10" stroke-width=".75" d="M18.74 39.324h-7.39a.63.63 0 0 1-.614-.636l.029-7.376c0-.35.276-.636.614-.636h7.39c.339 0 .615.286.615.636l-.028 7.376c0 .35-.277.636-.615.636Z"/><path fill="none" stroke="#231f20" stroke-linecap="round" stroke-linejoin="round" stroke-width=".75" d="m11.816 36.107 1.28 1.738 1.253-1.738 1.362 1.738 1.36-1.738 1.229 1.738"/><path fill="none" stroke="#231f20" stroke-linecap="round" stroke-miterlimit="10" stroke-width=".75" d="M20.701 33.27v3.46M9.467 33.27v3.46"/></svg>