<svg xmlns="http://www.w3.org/2000/svg" viewBox="0 0 50 50"><path fill="none" stroke="#000" stroke-linecap="round" stroke-linejoin="round" d="m8 33.095-1.5.01a1.5 1.5 0 0 1-1.5-1.49l.003-21.02a1.5 1.5 0 0 1 1.5-1.489L38.5 9.11c.825 0 1.5.67 1.5 1.49v4.495M5 14.095h35M5 19.095h5"/><rect width="34.997" height="23.996" x="10.001" y="17.083" fill="none" stroke="#000" stroke-linecap="round" stroke-linejoin="round" rx="1.495" ry="1.495"/><rect width="7" height="6" x="13" y="23.095" fill="none" stroke="#000" stroke-linecap="round" stroke-linejoin="round" rx=".366" ry=".366"/><circle cx="39" cy="23.095" r="3" fill="none" stroke="#000" stroke-linecap="round" stroke-linejoin="round"/><path fill="none" stroke="#000" stroke-linecap="round" stroke-linejoin="round" d="M13 33.095h30M13 36.095h19"/><g fill="none" stroke="#000" stroke-linecap="round" stroke-linejoin="round"><path d="M13 24.602h7M13 26.095h7M13 27.603h7"/></g></svg>