<svg xmlns="http://www.w3.org/2000/svg" viewBox="0 0 50 50"><g fill="none" stroke="#000" stroke-miterlimit="10"><rect width="7.5" height="7.5" x="15.833" y="15.833" rx="1" ry="1"/><rect width="7.5" height="7.5" x="26.667" y="15.833" rx="1" ry="1"/><rect width="7.5" height="7.5" x="15.833" y="26.667" rx="1" ry="1"/><rect width="7.5" height="7.5" x="26.667" y="26.667" rx="1" ry="1"/></g><g fill="none" stroke="#000" stroke-linecap="round" stroke-linejoin="round"><path d="M9 9h32v32H9zM38 9V5M31.5 9V5M25 9V5M18.5 9V5M12 9V5M38 45v-4M31.5 45v-4M25 45v-4M18.5 45v-4M12 45v-4M41 38h4M41 31.5h4M41 25h4M41 18.5h4M41 12h4M5 38h4M5 31.5h4M5 25h4M5 18.5h4M5 12h4"/></g></svg>