<svg xmlns="http://www.w3.org/2000/svg" data-name="Isolation Mode" viewBox="0 0 50 50"><g fill="none" stroke="#231f20"><g stroke-linecap="round" stroke-linejoin="round"><path d="M11.586 8.925 45 8.913M11.607 15.92H45M22.776 22.914H45M26.237 29.909H45M21.348 8.925v6.995M35.261 8.925v6.995M35.261 22.914v6.995M42.217 15.92v6.994M14.392 15.92v4.307M28.304 15.92v6.994M24.315 36.903H45M42.217 30.109v6.794M28.304 29.909v6.994"/></g><circle cx="15.616" cy="30.769" r="10.616" stroke-miterlimit="10"/></g><path fill="none" stroke="#231f20" stroke-linecap="round" stroke-linejoin="round" stroke-width=".75" d="M15.348 25.221v10.756"/><path fill="#231f20" d="M11.957 30.844a.531.531 0 1 0 0 1.062q.019 0 .038-.003a.53.53 0 0 0-.038-1.06m-.672-2.778a.531.531 0 1 0 0 1.062l.038-.004a.53.53 0 0 0-.038-1.058m2.495-2.328a.531.531 0 0 0 0 1.063q.018-.001.038-.005a.53.53 0 0 0-.039-1.058m.257 6.109a.531.531 0 1 0 0 1.062q.02-.001.037-.004a.53.53 0 0 0-.037-1.058m-2.409 2.028a.531.531 0 1 0 0 1.063l.038-.004a.529.529 0 0 0-.038-1.059m1.918 1.362a.531.531 0 1 0 0 1.063q.02-.001.037-.004a.529.529 0 0 0-.037-1.06"/><path fill="none" stroke="#231f20" stroke-linecap="round" stroke-linejoin="round" stroke-width=".75" d="M13.011 28.9c.081-.542-.172-1.082-.659-1.404-.517-.325-1.213-.325-1.912 0-.933.437-.614 1.842-.612 1.857a.13.13 0 0 1-.02.104c-.008.01-.72 1.053-.341 1.865.212.454.734.762 1.55.915"/><path fill="none" stroke="#231f20" stroke-linecap="round" stroke-linejoin="round" stroke-width=".75" d="M13.521 26.046c-.495-.405-1.024-.87-1.54-.662-.452.183-.816 1.035-.579 1.87M15.348 35.977V25.221"/><path fill="none" stroke="#231f20" stroke-linecap="round" stroke-linejoin="round" stroke-width=".75" d="M9.724 31.675c-.497.396-.61 1.003-.45 1.413.181.553.63.944.86.972.083.01.143.08.132.157l-.003.016c-.153.544 0 1.12.41 1.54.235.286.597.463.989.483a.155.155 0 0 1 .165.103c.235.701 1.02 1.123 1.807.973 1.652-.193 1.714-1.321 1.714-1.355m-2.954-10.63c.959-.896 2.031-1.07 2.54-.846.282.144.413.467.414.72M11.389 28.91l.657 1.222M13.619 29.895l-1.573.237M12.046 30.132l-.059.903M13.026 34.689l.366.784"/><path fill="none" stroke="#231f20" stroke-linecap="round" stroke-linejoin="round" stroke-width=".75" d="m13.723 32.506-1.06.533.363 1.65M13.026 34.689l-1.074-.218M15.349 25.221v10.756000000000002"/><path fill="#231f20" d="M18.74 30.844a.531.531 0 0 0-.038 1.059l.038.003a.531.531 0 1 0 0-1.062m.672-2.779a.53.53 0 0 0-.038 1.058l.038.004a.531.531 0 1 0 0-1.062m-2.672 1.239a.53.53 0 0 0-.038 1.058l.039.004a.531.531 0 1 0 0-1.062m.177-3.567a.531.531 0 0 0-.04 1.058q.02.004.04.005a.531.531 0 0 0 0-1.063m-2.973 3.559a.531.531 0 0 0-.039 1.059l.04.004a.531.531 0 0 0 0-1.063m2.715 2.55a.53.53 0 0 0-.038 1.058l.038.004a.531.531 0 1 0 0-1.062m2.409 2.028a.531.531 0 0 0-.038 1.059l.038.004a.531.531 0 1 0 0-1.063m-1.918 1.362a.531.531 0 0 0-.037 1.059q.019.002.037.004a.531.531 0 1 0 0-1.063"/><path fill="none" stroke="#231f20" stroke-linecap="round" stroke-linejoin="round" stroke-width=".75" d="M17.686 28.9c-.081-.542.172-1.082.659-1.404.517-.325 1.213-.325 1.912 0 .933.437.614 1.842.612 1.857a.13.13 0 0 0 .02.104c.008.01.72 1.053.342 1.865-.213.454-.735.762-1.55.915"/><path fill="none" stroke="#231f20" stroke-linecap="round" stroke-linejoin="round" stroke-width=".75" d="M17.176 26.046c.495-.405 1.024-.87 1.541-.662.451.183.815 1.035.578 1.87M15.349 35.977V25.221"/><path fill="none" stroke="#231f20" stroke-linecap="round" stroke-linejoin="round" stroke-width=".75" d="M20.973 31.675c.497.396.61 1.003.45 1.413-.18.553-.63.944-.86.972-.083.01-.143.08-.132.157l.003.016c.153.544 0 1.12-.41 1.54a1.37 1.37 0 0 1-.989.483.155.155 0 0 0-.165.103c-.235.701-1.02 1.123-1.807.973-1.652-.193-1.713-1.321-1.714-1.355m2.954-10.63c-.959-.896-2.031-1.07-2.54-.846-.282.144-.413.467-.414.72M19.309 28.91l-.658 1.222M17.078 29.895l1.573.237M18.651 30.132l.059.903M17.671 34.689l-.366.784"/><path fill="none" stroke="#231f20" stroke-linecap="round" stroke-linejoin="round" stroke-width=".75" d="m16.974 32.506 1.06.533-.363 1.65M17.671 34.689l1.074-.218"/></svg>