<svg xmlns="http://www.w3.org/2000/svg" viewBox="0 0 50 50"><g fill="none" stroke="#000" stroke-linecap="round" stroke-linejoin="round"><path d="M10 5v40h30V16L29 5z"/><path d="M29 5v11h11"/></g><path d="M21.967 41.96h-1.494L20.18 43h-1.012l1.63-4.977h.872L23.27 43h-1.012zm-1.258-.816h1.032l-.51-1.832zm3.925.031V43h-.96v-4.977h1.701q.407 0 .735.119.33.117.559.328.23.21.355.504.125.293.125.652 0 .335-.125.62a1.4 1.4 0 0 1-.355.49 1.7 1.7 0 0 1-.559.323 2.2 2.2 0 0 1-.735.116zm0-.78h.741q.206 0 .356-.061a.56.56 0 0 0 .251-.168.7.7 0 0 0 .15-.244.9.9 0 0 0 .05-.29q0-.173-.05-.323a.7.7 0 0 0-.15-.264.7.7 0 0 0-.251-.178.9.9 0 0 0-.356-.064h-.741zm3.034-2.372h2.878v.776h-.97v3.429h.97V43h-2.878v-.772h.947v-3.43h-.947z"/><g fill="none" stroke="#000" stroke-linecap="round" stroke-linejoin="round" stroke-width="1.059"><path d="M21.625 21 16 24.363l5.625 3.363M28.375 27.726 34 24.363 28.375 21M26.125 21l-2.25 6.726"/></g><path fill="#fff" stroke="#231f20" stroke-miterlimit="10" d="M10 36h30"/></svg>