<svg xmlns="http://www.w3.org/2000/svg" viewBox="0 0 50 50"><g fill="none" stroke="#000" stroke-linecap="round" stroke-linejoin="round"><path d="M6 41.994h38M9 41.994v-6h8v6M20 41.994V30.985h9v11.01M32 41.994l-.045-17.988H41v17.988"/></g><path d="M24.235 21.006c.827 0 1.5.673 1.5 1.5s-.673 1.5-1.5 1.5-1.5-.673-1.5-1.5.673-1.5 1.5-1.5m0-1a2.5 2.5 0 1 0 0 5 2.5 2.5 0 0 0 0-5"/><path fill="none" stroke="#000" stroke-linecap="round" stroke-linejoin="round" d="M28.735 18.006c-2.485-2.667-6.514-2.667-9 0m12-3c-4.142-4-10.857-4-15 0"/><path fill="none" stroke="#000" stroke-linecap="round" stroke-linejoin="round" d="M34.235 12.006a14.5 14.5 0 0 0-20 0"/></svg>