<svg xmlns="http://www.w3.org/2000/svg" viewBox="0 0 50 50"><path fill="none" stroke="#000" stroke-linecap="round" stroke-linejoin="round" d="m21.999 26.705-13.904 7.97m16.884-6.387L24.889 45m3.002-18.353 13.756 7.777M27.813 23.047l14.092-7.77M24.98 21.462 24.889 5M8.178 15.444l13.677 8.014"/><path fill="none" stroke="#000" stroke-linecap="round" stroke-miterlimit="10" d="M28.326 24.904a3.343 3.343 0 0 1-3.342 3.342 3.344 3.344 0 1 1 0-6.69 3.344 3.344 0 0 1 3.342 3.348Z"/><path fill="none" stroke="#000" stroke-linecap="round" stroke-linejoin="round" d="M37.214 24.925c0 6.742-5.46 12.204-12.203 12.204S12.8 31.667 12.8 24.925s5.47-12.21 12.211-12.21 12.203 5.468 12.203 12.21m3.972 0c0 8.933-7.266 16.174-16.223 16.174S8.74 33.86 8.74 24.925 16.006 8.751 24.963 8.751s16.223 7.241 16.223 16.174"/></svg>