<svg xmlns="http://www.w3.org/2000/svg" viewBox="0 0 50 50"><path fill="none" stroke="#000" stroke-linecap="round" stroke-linejoin="round" d="m18.846 25.149.002-.149h-7.693l-.001.096c0 3.208.5 6.24 1.39 8.943 1.983-.489 4.274-.863 6.771-1.091a63 63 0 0 1-.469-7.8"/><path fill="none" stroke="#000" stroke-linecap="round" stroke-linejoin="round" d="M19.315 32.948c-2.497.228-4.788.602-6.771 1.09 1.609 4.894 4.495 8.697 8.019 10.46q.238.056.477.106 1.255.251 2.56.34c-1.942-1.493-3.533-6.022-4.285-11.996m11.327-15.896a62 62 0 0 1 .51 7.948h7.692c-.01-3.242-.532-6.303-1.45-9.023-1.981.481-4.266.85-6.752 1.075"/><path fill="none" stroke="#000" stroke-linecap="round" stroke-linejoin="round" d="M30.683 32.948q-.886-.081-1.806-.138A64 64 0 0 0 25 32.692c-1.977 0-3.883.091-5.685.256.752 5.974 2.343 10.503 4.286 11.997A20 20 0 0 0 25 45c.466 0 .926-.023 1.383-.056q.008-.007.017-.012c1.942-1.496 3.53-6.02 4.283-11.984"/><path fill="none" stroke="#000" stroke-linecap="round" stroke-linejoin="round" d="M26.4 44.932q-.01.005-.017.012a20.5 20.5 0 0 0 3.036-.457c3.53-1.758 6.424-5.558 8.036-10.453-1.985-.486-4.276-.86-6.772-1.086-.752 5.965-2.341 10.488-4.283 11.984"/><path fill="none" stroke="#000" stroke-linecap="round" stroke-linejoin="round" d="M31.154 25.149c0 2.765-.168 5.398-.47 7.799 2.495.227 4.786.6 6.771 1.086.89-2.7 1.391-5.73 1.391-8.938L38.844 25h-7.692zM19.36 17.058c-2.485-.224-4.77-.593-6.751-1.074-.92 2.717-1.444 5.774-1.454 9.016h7.693a62 62 0 0 1 .512-7.942"/><path fill="none" stroke="#000" stroke-linecap="round" stroke-linejoin="round" d="M25 17.308a64 64 0 0 1-5.64-.25A62 62 0 0 0 18.848 25h12.304a62 62 0 0 0-.51-7.948q-.54.049-1.09.09a64 64 0 0 1-4.552.166m-6.154 7.841a63 63 0 0 0 .47 7.799A63 63 0 0 1 25 32.692a64 64 0 0 1 5.683.256c.303-2.401.47-5.034.47-7.8V25H18.847zm11.256-11.372.005-.006za47 47 0 0 1 .54 3.275c2.486-.225 4.77-.594 6.753-1.075a24 24 0 0 0-.916-2.336c-1.833-4.013-4.607-7.001-7.85-8.3a20 20 0 0 0-2.772-.32q.17.079.336.185c1.622 1.054 3.016 4.205 3.909 8.571"/><path fill="none" stroke="#000" stroke-linecap="round" stroke-linejoin="round" d="M19.989 13.377a47 47 0 0 0-.629 3.681q.826.075 1.68.128a63.6 63.6 0 0 0 9.602-.134 47 47 0 0 0-.54-3.275c-.893-4.366-2.287-7.517-3.909-8.57a3 3 0 0 0-.336-.185Q25.431 5.002 25 5c-.292 0-.58.014-.869.027-1.706.8-3.186 3.914-4.142 8.35"/><path fill="none" stroke="#000" stroke-linecap="round" stroke-linejoin="round" d="M19.989 13.377c.956-4.436 2.436-7.55 4.142-8.35-.93.04-1.846.138-2.738.301-3.137 1.254-5.832 4.097-7.669 7.91q-.627 1.304-1.115 2.746c1.981.481 4.266.85 6.751 1.074a47 47 0 0 1 .629-3.68m.574 31.12c-3.524-1.763-6.41-5.566-8.02-10.46-1.454.36-2.747.777-3.83 1.245q-.353.153-.675.313a20.02 20.02 0 0 0 12.525 8.902M38.844 25l.002.096c0 3.207-.501 6.238-1.39 8.938 1.59.39 2.984.85 4.125 1.37l.016-.002-.016.002q.196.09.382.181A19.86 19.86 0 0 0 45 25z"/><path fill="none" stroke="#000" stroke-linecap="round" stroke-linejoin="round" d="M37.455 34.034c-1.612 4.895-4.505 8.695-8.036 10.453l.132-.027a20.05 20.05 0 0 0 12.412-8.875 14 14 0 0 0-.382-.18c-1.14-.52-2.536-.981-4.126-1.371M28.877 5.383l-.248-.043c3.243 1.3 6.017 4.288 7.85 8.301l.011-.006-.01.006c.34.744.642 1.527.915 2.336 1.8-.438 3.351-.968 4.573-1.568a20 20 0 0 0-13.09-9.026"/><path fill="none" stroke="#000" stroke-linecap="round" stroke-linejoin="round" d="M38.844 25H45c0-3.89-1.11-7.52-3.032-10.591-1.222.6-2.773 1.13-4.573 1.568.917 2.72 1.439 5.78 1.449 9.023m-26.235-9.016c-1.795-.437-3.34-.966-4.56-1.564A19.85 19.85 0 0 0 5 25h6.155c.01-3.242.535-6.3 1.454-9.016m-.065 18.055c-.89-2.702-1.39-5.735-1.39-8.943l.001-.096H5c0 3.893 1.114 7.524 3.038 10.596q.323-.16.675-.313c1.083-.468 2.376-.886 3.83-1.244"/><path fill="none" stroke="#000" stroke-linecap="round" stroke-linejoin="round" d="M13.724 13.238c1.837-3.813 4.532-6.656 7.669-7.91-5.216.954-9.719 3.935-12.68 8.093q-.347.489-.664.999c1.22.598 2.765 1.127 4.56 1.564a24 24 0 0 1 1.115-2.746"/></svg>