<svg xmlns="http://www.w3.org/2000/svg" viewBox="0 0 50 50"><path fill="none" stroke="#000" stroke-linecap="round" stroke-linejoin="round" d="M18.537 38.627 24.934 45l6.397-6.373"/><g fill="none" stroke="#000" stroke-linecap="round" stroke-linejoin="round"><path d="M28.138 18.131c-.051-.932-.14-2.784-3.206-2.797-2.414-.025-3.04 1.354-3.014 2.312.013.996.154 1.928 3.04 2.426 3.065.524 3.512 1.507 3.435 2.759-.064 1.034-.677 2.361-3.41 2.361-2.784-.011-3.384-1.94-3.384-3.242M24.971 14.402v12.26M24.934 29.54V45"/><path d="M22.963 35.867C15.365 34.87 9.5 28.37 9.5 20.5 9.5 11.94 16.44 5 25 5s15.5 6.94 15.5 15.5c0 7.889-5.894 14.401-13.518 15.374"/></g></svg>