<svg xmlns="http://www.w3.org/2000/svg" data-name="Isolation Mode" viewBox="0 0 50 50"><path fill="none" stroke="#231f20" stroke-linecap="round" stroke-linejoin="round" d="M20.664 40.73C24.93 43.828 26.61 45 26.61 45h0s2.428-1.661 8.716-6.251c7.309-5.336 6.887-11.655 6.887-11.655s.703-8.426.703-13.621-2.956-4.12-6.747-3.932m0-.001q-1.006.05-2.006.087l-.003-.008-4.796-3.685c-1.584-1.217-3.491-1.246-5.093-.077l-5.165 3.77q-1-.037-2.007-.086c-3.79-.189-6.747-1.264-6.747 3.932s.703 13.62.703 13.62-.024.357.038.973"/><path fill="none" stroke="#000" stroke-linecap="round" stroke-linejoin="round" d="M22.99 33.787h9.384a4.26 4.26 0 0 0 4.26-4.26v-11.48a4.26 4.26 0 0 0-4.26-4.26h-11.48a4.26 4.26 0 0 0-4.26 4.26v9.114"/><path d="M22.963 24.798q-.036-.069-.059-.157a2 2 0 0 1-.04-.189 1.2 1.2 0 0 1-.409.293q-.125.056-.275.089c-.15.033-.21.032-.325.032q-.284 0-.521-.082c-.237-.082-.295-.13-.408-.228a1.03 1.03 0 0 1-.363-.793q0-.585.436-.905.435-.319 1.3-.32h.53v-.219a.53.53 0 0 0-.175-.422q-.173-.155-.502-.155-.29 0-.423.125c-.133.125-.133.195-.133.333h-.951a1 1 0 0 1 .104-.447q.104-.213.305-.373.2-.161.488-.255c.288-.094.413-.094.661-.094q.336 0 .624.082c.288.082.36.136.501.243q.212.16.332.405.12.244.12.566v1.586q0 .296.036.492.04.195.11.334v.059zm-.906-.666a1 1 0 0 0 .488-.123.8.8 0 0 0 .172-.125.7.7 0 0 0 .112-.143v-.635h-.485q-.223 0-.38.042a.7.7 0 0 0-.256.12.5.5 0 0 0-.147.185.6.6 0 0 0-.047.234q0 .191.134.318c.134.127.226.127.409.127m6.265-1.149q0 .403-.094.748c-.094.345-.155.43-.277.597q-.183.25-.453.395c-.27.145-.387.143-.62.143q-.295 0-.522-.102c-.227-.102-.28-.164-.393-.287v1.743h-.95V21.1h.879l.034.362a1.2 1.2 0 0 1 .403-.318q.232-.113.544-.113.351 0 .621.135t.455.383c.185.248.216.363.279.595s.094.487.094.767zm-.95-.072q0-.233-.043-.435a.9.9 0 0 0-.134-.353.7.7 0 0 0-.232-.233.65.65 0 0 0-.344-.086.77.77 0 0 0-.408.097.66.66 0 0 0-.248.276v1.545q.09.173.248.278.159.105.416.104a.63.63 0 0 0 .574-.332q.088-.153.13-.357c.041-.204.04-.28.04-.432zm5.329.072q0 .403-.095.748c-.095.345-.154.43-.276.597q-.183.25-.453.395c-.27.145-.387.143-.62.143q-.295 0-.522-.102c-.227-.102-.28-.164-.393-.287v1.743h-.95V21.1h.879l.034.362a1.2 1.2 0 0 1 .403-.318q.232-.113.544-.113.351 0 .621.135t.455.383c.185.248.216.363.278.595s.095.487.095.767zm-.951-.072q0-.233-.042-.435a.9.9 0 0 0-.134-.353.7.7 0 0 0-.232-.233.65.65 0 0 0-.344-.086.77.77 0 0 0-.408.097.66.66 0 0 0-.248.276v1.545q.09.173.248.278.159.105.416.104a.63.63 0 0 0 .574-.332q.088-.153.129-.357c.041-.204.041-.28.041-.432z"/><g fill="none" stroke-linecap="round" stroke-linejoin="round"><circle cx="15.084" cy="35" r="8" stroke="#231f20"/><g stroke="#000" stroke-width=".75"><path d="M12.834 32.758 9.084 35l3.75 2.242M17.334 37.242 21.084 35l-3.75-2.242M15.834 32.758l-1.5 4.484"/></g></g></svg>