<svg xmlns="http://www.w3.org/2000/svg" data-name="Isolation Mode" viewBox="0 0 50 50"><path fill="none" stroke="#000" stroke-linecap="round" stroke-linejoin="round" d="M21.989 36h6M44.989 34V12h-40v22"/><path fill="none" stroke="#000" stroke-linecap="round" stroke-linejoin="round" d="M44.989 38s1-.549 1-2-1-2-1-2h-40s-1 .549-1 2 1 2 1 2z"/><path fill="none" stroke="#000" stroke-linecap="round" stroke-linejoin="round" stroke-width=".75" d="M22.681 22.925v-.055h-2.884v.036c0 1.202.187 2.34.52 3.353a17 17 0 0 1 2.54-.409c-.113-.9-.176-1.888-.176-2.925"/><path fill="none" stroke="#000" stroke-linecap="round" stroke-linejoin="round" stroke-width=".75" d="M22.857 25.85a17 17 0 0 0-2.54.41c.604 1.834 1.687 3.26 3.008 3.921l.179.04q.47.094.96.128c-.728-.56-1.325-2.259-1.607-4.499m4.248-5.96c.12.914.189 1.92.191 2.98h2.884a10.7 10.7 0 0 0-.543-3.384c-.743.18-1.6.319-2.532.403"/><path fill="none" stroke="#000" stroke-linecap="round" stroke-linejoin="round" stroke-width=".75" d="M27.12 25.85q-.333-.03-.677-.052a24 24 0 0 0-3.586.052c.282 2.24.879 3.939 1.607 4.499q.26.019.525.02.262-.001.518-.02l.007-.005c.728-.56 1.324-2.257 1.606-4.494"/><path fill="none" stroke="#000" stroke-linecap="round" stroke-linejoin="round" stroke-width=".75" d="m25.514 30.344-.007.005a8 8 0 0 0 1.14-.172c1.323-.66 2.408-2.084 3.013-3.92a17.4 17.4 0 0 0-2.54-.407c-.282 2.237-.878 3.933-1.606 4.494"/><path fill="none" stroke="#000" stroke-linecap="round" stroke-linejoin="round" stroke-width=".75" d="M27.297 22.925c0 1.037-.063 2.025-.177 2.925a17.4 17.4 0 0 1 2.54.407c.333-1.012.521-2.149.521-3.351v-.036h-2.885zm-4.423-3.033a17.5 17.5 0 0 1-2.532-.404 10.7 10.7 0 0 0-.545 3.382h2.885c.002-1.06.071-2.065.192-2.978"/><path fill="none" stroke="#000" stroke-linecap="round" stroke-linejoin="round" stroke-width=".75" d="M24.989 19.985a24 24 0 0 1-2.115-.093 23 23 0 0 0-.192 2.978h4.614a23 23 0 0 0-.191-2.98l-.41.033q-.824.061-1.706.062m-2.308 2.94c0 1.037.063 2.025.176 2.925a23.5 23.5 0 0 1 4.263 0c.114-.9.177-1.888.177-2.925l-.001-.055h-4.614zm4.221-4.264.002-.002zc.079.385.146.797.203 1.228a17.6 17.6 0 0 0 2.532-.403 9 9 0 0 0-.343-.876c-.688-1.505-1.728-2.625-2.944-3.113a8 8 0 0 0-1.04-.12q.064.03.126.07c.608.395 1.131 1.577 1.466 3.214"/><path fill="none" stroke="#000" stroke-linecap="round" stroke-linejoin="round" stroke-width=".75" d="M23.11 18.511c-.093.43-.171.893-.236 1.38q.31.03.63.048a24 24 0 0 0 3.192-.016q.207-.016.409-.034c-.057-.43-.124-.843-.203-1.228-.335-1.637-.858-2.819-1.466-3.214a1 1 0 0 0-.126-.07 7 7 0 0 0-.321-.007q-.165.001-.326.01c-.64.3-1.195 1.468-1.553 3.131"/><path fill="none" stroke="#000" stroke-linecap="round" stroke-linejoin="round" stroke-width=".75" d="M23.11 18.511c.358-1.663.913-2.831 1.553-3.131a7.5 7.5 0 0 0-1.027.113c-1.176.47-2.187 1.536-2.876 2.966q-.234.489-.418 1.03c.743.18 1.6.318 2.532.403.065-.488.143-.952.236-1.38m.215 11.669c-1.321-.66-2.404-2.087-3.007-3.922a9 9 0 0 0-1.437.467 6 6 0 0 0-.253.117 7.5 7.5 0 0 0 4.697 3.338m6.855-7.311.001.036c0 1.202-.188 2.339-.521 3.351a9 9 0 0 1 1.547.514h.006-.006q.074.034.143.068a7.45 7.45 0 0 0 1.139-3.97z"/><path fill="none" stroke="#000" stroke-linecap="round" stroke-linejoin="round" stroke-width=".75" d="M29.66 26.257c-.605 1.836-1.69 3.26-3.014 3.92l.05-.01a7.52 7.52 0 0 0 4.654-3.328l-.143-.068a9 9 0 0 0-1.547-.514m-3.217-10.744-.093-.016c1.216.488 2.256 1.608 2.944 3.113l.004-.002-.004.002q.19.42.343.876c.675-.164 1.257-.363 1.715-.588a7.5 7.5 0 0 0-4.909-3.385"/><path fill="none" stroke="#000" stroke-linecap="round" stroke-linejoin="round" stroke-width=".75" d="M30.18 22.87h2.309c0-1.46-.417-2.82-1.137-3.972-.458.225-1.04.424-1.715.588.344 1.02.54 2.168.543 3.384m-9.838-3.382c-.673-.163-1.252-.362-1.71-.586a7.44 7.44 0 0 0-1.143 3.968h2.308c.004-1.216.2-2.363.545-3.382m-.024 6.772a10.8 10.8 0 0 1-.521-3.354v-.036H17.49c0 1.46.418 2.821 1.14 3.973q.12-.06.252-.117a9 9 0 0 1 1.437-.467"/><path fill="none" stroke="#000" stroke-linecap="round" stroke-linejoin="round" stroke-width=".75" d="M20.76 18.459c.69-1.43 1.7-2.496 2.876-2.966a7.5 7.5 0 0 0-5.004 3.409c.458.224 1.037.423 1.71.586q.184-.54.418-1.029"/></svg>