<svg xmlns="http://www.w3.org/2000/svg" data-name="Isolation Mode" viewBox="0 0 50 50"><g fill="none" stroke="#000" stroke-linecap="round" stroke-linejoin="round"><path d="M29.621 17.056c-2.89.275-5.306 2.146-6.29 4.725a6.5 6.5 0 0 0-2.639-.56 6.5 6.5 0 0 0-1.689.229M37.698 23c-.653-3.415-3.694-6-7.354-6-.246 0-.483.033-.723.056M37.698 23c.085.444.134.9.134 1.369a7.3 7.3 0 0 1-.258 1.92c1.46.945 2.426 2.57 2.426 4.42 0 2.078-1.229 3.858-3 4.723M14.316 27a6 6 0 0 0-.027.522v0c-2.37.01-4.289 1.904-4.289 4.239 0 1.89 1.265 3.471 3 4.019M14.316 27c.223-2.67 2.137-4.864 4.687-5.55"/><path d="M25.874 8.87c2.355 1.242 3.958 3.686 3.958 6.499 0 .582-.08 1.144-.21 1.687M25.874 8.87a7.55 7.55 0 0 0-3.53-.87c-3.21 0-5.948 1.988-7.012 4.781a6.5 6.5 0 0 0-2.64-.56c-3.536 0-6.403 2.821-6.403 6.301v0C3.92 18.533 2 20.427 2 22.762 2 25.102 3.929 27 6.308 27h8.008"/><path d="M25.874 8.87a6.46 6.46 0 0 1 5.458-.09C32.396 5.988 35.134 4 38.344 4c4.135 0 7.488 3.3 7.488 7.369a7.3 7.3 0 0 1-.258 1.92c1.46.945 2.426 2.57 2.426 4.42C48 20.63 45.593 23 42.623 23h-4.925"/></g><g fill="none" stroke="#000" stroke-linecap="round" stroke-linejoin="round"><path d="m25.924 25.941.52 2.64.132.025q.508.11.984.28l1.72-2.043 1.534.884-.87 2.552q.416.361.773.778l2.502-.933.894 1.527-2.012 1.792q.204.576.313 1.184l2.629.463-.01 1.77-2.643.528q-.011.068-.025.135a8 8 0 0 1-.282.98l2.042 1.713-.887 1.535-2.552-.862a8 8 0 0 1-.78.775l.929 2.497-1.53.898-1.79-2.005q-.588.21-1.208.32L25.831 46l-1.772-.008-.515-2.642-.117-.021a8 8 0 0 1-.998-.285l-1.724 2.04-1.531-.888.875-2.55a7.5 7.5 0 0 1-.773-.78l-2.503.93-.892-1.53 2.015-1.788a7.5 7.5 0 0 1-.31-1.184l-2.627-.468.012-1.77 2.644-.523q.01-.06.023-.121.11-.514.286-.994L15.886 31.7l.89-1.533 2.55.867q.365-.416.783-.774l-.925-2.499 1.532-.895 1.786 2.009q.574-.204 1.18-.313l.47-2.627z"/><circle cx="25" cy="35.968" r="5"/></g></svg>