<svg xmlns="http://www.w3.org/2000/svg" viewBox="0 0 50 50"><g fill="none" stroke="#000" stroke-linecap="round" stroke-linejoin="round"><ellipse cx="23.746" cy="20.253" rx="5.615" ry="5.597"/><path d="m14.511 26.69 1.882-2.347-.074-.129a8 8 0 0 1-.47-1.042l-2.985.006"/><path d="M16.393 24.343 14.51 26.69q.578.824 1.272 1.515l2.584-1.49m-5.85-5.482 2.807-1.096q.01-.616.108-1.221l-2.6-1.462"/><path d="m15.323 20.137-2.807 1.096q.086.978.348 1.945l2.986-.006m3.634 4.323-.43 2.97q.906.413 1.868.662l1.47-2.59"/><path d="m19.054 30.466.43-2.971a8.4 8.4 0 0 1-1.117-.78l-2.584 1.49m8.073-16.347-1.1-2.797q-.982.086-1.951.348l.006 2.976m3.901 19.062-1.096-2.8a8.5 8.5 0 0 1-1.224-.11l-1.47 2.59m-4.448-15.111-2.981-.425a11.3 11.3 0 0 0-.662 1.863l2.6 1.462"/><path d="m17.282 11.052 2.355 1.875.133-.076a8.5 8.5 0 0 1 1.041-.466l-.006-2.976"/><path d="m19.637 12.927-2.355-1.875q-.826.576-1.52 1.269l1.497 2.575"/><path d="m13.493 15.591 2.98.425q.346-.59.786-1.12l-1.497-2.575m12.229.682.424-2.972a11.4 11.4 0 0 0-1.869-.658l-1.465 2.592m7.909 1.868-1.886 2.343.066.115q.277.52.475 1.057l2.985.001"/><path d="m31.104 16.176 1.887-2.343a11 11 0 0 0-1.27-1.517l-2.587 1.486"/><path d="m28.415 10.031-.424 2.972q.602.35 1.143.799l2.587-1.486M22.755 9.06l1.101 2.798q.618.01 1.225.107l1.465-2.592m5.619 11.012 2.81-1.09a11 11 0 0 0-.345-1.946h-2.985M30.19 29.466l-2.352-1.88-.12.068q-.519.276-1.055.473v2.975"/><path d="m23.616 28.647 1.096 2.8a11 11 0 0 0 1.952-.345l-.001-2.975m1.175-.54 2.352 1.879q.827-.575 1.522-1.266l-1.493-2.578m.789-1.118 2.98.43c.276-.6.498-1.224.664-1.862l-2.597-1.466m2.92-2.312-2.81 1.091q-.01.616-.11 1.22l2.597 1.467"/><path d="m33.988 24.934-2.98-.43q-.347.588-.789 1.118l1.493 2.578"/></g><ellipse cx="35.045" cy="35.483" fill="none" stroke="#000" stroke-linecap="round" stroke-linejoin="round" rx="2.2" ry="2.193"/><g fill="none" stroke="#000" stroke-linecap="round" stroke-linejoin="round"><path d="m27.952 36.778 2.896-1.575q.02-.316.088-.624l-2.389-2.197m3.097 9.438.567-3.238a4 4 0 0 1-.458-.487l-3.215.466m9.412 3.495-2.204-2.436a4 4 0 0 1-.703.06l-1.635 2.797"/><path d="m32.211 38.582-.567 3.239a7.3 7.3 0 0 0 1.764.656l1.635-2.797m-4.195-4.477-2.896 1.575c.112.605.31 1.203.586 1.783l3.215-.466m3.298-9.801 1.03 3.125q.343.086.664.228l2.634-1.903"/><path d="m38.894 33.79 1.829-2.73a7 7 0 0 0-1.344-1.316l-2.634 1.903m3.978-.587-1.829 2.73q.138.31.221.63l3.134.868m-6.503 4.332 2.203 2.436c.168-.074.336-.147.5-.235.4-.214.769-.464 1.111-.737l-1.202-3.012"/><path d="m38.776 37.43 3.275-.274a7.2 7.2 0 0 0 .198-1.868l-3.134-.869"/><path d="m42.051 37.156-3.275.274q-.178.338-.418.642l1.202 3.012m-3.478-9.664-1.03-3.126a7.2 7.2 0 0 0-1.866.25l-.122 3.235-.006.003q-.23.126-.439.274l-3.045-1.248a7.2 7.2 0 0 0-1.027 1.574l2.39 2.197"/></g><path fill="none" stroke="#000" stroke-linecap="round" stroke-linejoin="round" d="M26.89 35.043a15.2 15.2 0 0 1-4.072.4C14.426 35.14 7.87 28.081 8.176 19.677a15.2 15.2 0 0 1 1.618-6.309m1.389-2.242c2.887-3.87 7.56-6.304 12.744-6.116 8.393.304 14.948 7.363 14.642 15.767a15.2 15.2 0 0 1-1.619 6.31"/><path fill="none" stroke="#000" stroke-linecap="round" stroke-linejoin="round" d="m4.75 14.92 5.12-1.65 1.656 5.103M25.1 38.01c.227.65.522 1.287.888 1.902 2.93 4.922 9.29 6.555 14.205 3.648 4.915-2.908 6.524-9.254 3.594-14.176a10.4 10.4 0 0 0-3.029-3.243"/><path fill="none" stroke="#000" stroke-linecap="round" stroke-linejoin="round" d="m44.065 24.915-3.599.677.679 3.587"/></svg>