<svg xmlns="http://www.w3.org/2000/svg" data-name="Layer 1" viewBox="0 0 50 50"><path fill="none" stroke="#000" stroke-linecap="round" stroke-linejoin="round" d="M31.502 18.514s-1.789-3.597-6.58-3.597c-4.45 0-6.374 3.597-6.374 3.597"/><path fill="none" stroke="#000" stroke-linecap="round" stroke-linejoin="round" d="M30.563 17.246 28.23 23.07l-.003.008a3.075 3.075 0 0 1-2.841 1.883h-.883a3.07 3.07 0 0 1-2.84-1.883l-.004-.008-2.298-5.659"/><path fill="none" stroke="#000" stroke-linecap="round" stroke-linejoin="round" d="m19.823 27.81-2.877-2.782a.6.6 0 0 1-.15-.214l-2.442-5.677-.013-.031a3.28 3.28 0 0 1 .291-2.854l5.23-8.364C20.993 6.08 22.904 5 24.975 5M11.647 44.244c-.076 0-1.361-.489-1.436-.516l-2.541-.94c-2.007-.74-3.108-2.908-2.506-4.934l3.454-11.625a4.47 4.47 0 0 1 1.954-2.538l4.361-2.647"/><path fill="none" stroke="#000" stroke-linecap="round" stroke-linejoin="round" d="M37.438 43.042s.901.279.901.971c0 .693-.901.984-.901.984L12.62 45l-.11-.006s-.9-.291-.9-.984.9-.972.9-.972h24.927V27.81H12.512v15.23M30.15 27.81l2.904-2.782a.6.6 0 0 0 .15-.214l2.442-5.677.013-.031a3.28 3.28 0 0 0-.291-2.854l-5.23-8.364C29.007 6.08 27.096 5 25.025 5"/><path fill="none" stroke="#000" stroke-linecap="round" stroke-linejoin="round" d="m35.067 21.044 4.361 2.647a4.47 4.47 0 0 1 1.954 2.538l3.454 11.625c.602 2.026-.5 4.193-2.506 4.935l-3.99 1.224"/></svg>