<svg xmlns="http://www.w3.org/2000/svg" viewBox="0 0 50 50"><path d="M14.544 33.302q.037 0 .06.005l-.003 10.69a.4.4 0 0 1-.057.003H6.6a.4.4 0 0 1-.06-.004l.003-10.69a.4.4 0 0 1 .057-.004zm0-1H6.6c-.636 0-1.06.401-1.06 1.002v10.694C5.54 44.6 5.965 45 6.6 45h7.943c.636 0 1.06-.4 1.06-1.002V33.304c0-.6-.424-1.002-1.06-1.002m14.004-12.303c.114 0 .193.006.246.013.013.08.027.221.027.464v23.047c0 .477-.158.477-.273.477h-7.092c-.064-.007-.275-.168-.275-.477V20.476c0-.477.158-.477.273-.477zm0-1h-7.094c-.849 0-1.273.633-1.273 1.477v23.047c0 .844.637 1.477 1.273 1.477h7.094c.849 0 1.273-.633 1.273-1.477V20.476c0-1.055-.212-1.477-1.273-1.477m14.852 9.229.027.001a.8.8 0 0 1 .033.266v15.239c0 .146-.072.257-.06.266l-7.478.011c-.029-.02-.101-.131-.101-.277v-15.24c0-.145.072-.257.06-.266zm0-1H35.88c-.637 0-1.061.633-1.061 1.267v15.239c0 .633.424 1.266 1.06 1.266H43.4c.636 0 1.06-.633 1.06-1.266v-15.24c0-.844-.424-1.266-1.06-1.266"/><circle cx="10.322" cy="23.759" r="4.054" fill="none" stroke="#000" stroke-miterlimit="10"/><circle cx="25.057" cy="9.055" r="4.054" fill="none" stroke="#000" stroke-miterlimit="10" transform="rotate(-.097 25.057 9.055)"/><circle cx="39.64" cy="18.777" r="4.054" fill="none" stroke="#000" stroke-miterlimit="10"/><path fill="none" stroke="#000" stroke-miterlimit="10" d="m13.221 20.925 8.843-9.137M28.868 10.475l7.797 5.548"/></svg>