<svg xmlns="http://www.w3.org/2000/svg" data-name="Isolation Mode" viewBox="0 0 50 50"><g fill="none" stroke="#000" stroke-linecap="round" stroke-linejoin="round"><path d="M23.532 19.266c2.36-1.728 3.964-5.107 3.964-8.994 0-5.644-3.38-7.777-7.549-7.777s-7.549 2.133-7.549 7.777c0 3.887 1.605 7.267 3.965 8.994M3.945 36.495l2.647-11.791a4.7 4.7 0 0 1 2.035-2.673s3.184-1.994 7.735-2.765c1.066.78 2.287 1.291 3.585 1.291s2.519-.51 3.585-1.291"/><path d="M27.974 20.48a24 24 0 0 0-4.447-1.214"/></g><g fill="none" stroke="#000" stroke-linecap="round" stroke-linejoin="round"><path d="M29.772 35.146v-.093h-4.789v.06c0 1.997.311 3.885.865 5.568 1.235-.304 2.661-.537 4.216-.68a39 39 0 0 1-.292-4.855"/><path d="M30.064 40.001c-1.555.143-2.981.376-4.216.68 1.001 3.046 2.798 5.414 4.993 6.512q.147.034.297.066.781.156 1.594.212c-1.21-.93-2.2-3.75-2.668-7.47m7.052-9.897c.2 1.52.314 3.19.317 4.949h4.79c-.007-2.019-.332-3.925-.903-5.618-1.234.3-2.656.53-4.204.67"/><path d="M37.141 40.001a40 40 0 0 0-3.538-.159c-1.23 0-2.417.057-3.54.16.469 3.719 1.459 6.54 2.669 7.469q.432.032.871.034.434-.002.86-.035l.012-.007c1.209-.931 2.198-3.748 2.666-7.462"/><path d="m34.475 47.463-.011.007a13 13 0 0 0 1.89-.284c2.199-1.095 4-3.46 5.004-6.508-1.236-.303-2.662-.535-4.217-.677-.468 3.714-1.457 6.53-2.666 7.462"/><path d="M37.435 35.146c0 1.721-.105 3.36-.294 4.855 1.555.142 2.981.374 4.217.677.554-1.681.866-3.568.866-5.565l-.002-.06h-4.789zm-7.343-5.038c-1.548-.14-2.97-.369-4.204-.669-.572 1.692-.899 3.596-.905 5.614h4.79a39 39 0 0 1 .319-4.945"/><path d="M33.603 30.264a40 40 0 0 1-3.511-.156 39 39 0 0 0-.32 4.945h7.661a39 39 0 0 0-.317-4.949q-.335.031-.68.056a40 40 0 0 1-2.833.104m-3.831 4.882c0 1.72.104 3.36.292 4.855a39 39 0 0 1 3.54-.159 40 40 0 0 1 3.537.16 39 39 0 0 0 .294-4.856l-.002-.093h-7.66zm7.008-7.08q0-.003.003-.004zc.13.639.242 1.323.336 2.038 1.548-.14 2.97-.37 4.204-.67q-.253-.756-.57-1.453c-1.141-2.499-2.868-4.36-4.887-5.169a13 13 0 0 0-1.726-.198q.105.049.209.115c1.01.656 1.877 2.618 2.434 5.337"/><path d="M30.483 27.817a29 29 0 0 0-.391 2.291q.514.047 1.046.08 1.196.075 2.465.076a40 40 0 0 0 3.513-.16c-.094-.715-.206-1.4-.336-2.038-.557-2.719-1.424-4.681-2.434-5.337a2 2 0 0 0-.21-.115 12 12 0 0 0-.533-.013c-.182 0-.361.009-.54.016-1.063.499-1.985 2.438-2.58 5.2"/><path d="M30.483 27.817c.595-2.762 1.517-4.701 2.58-5.2q-.871.036-1.706.188c-1.953.781-3.63 2.55-4.774 4.925q-.391.811-.695 1.71c1.234.3 2.656.529 4.204.668.107-.81.237-1.58.39-2.291m.358 19.376c-2.194-1.098-3.99-3.466-4.992-6.512-.906.223-1.711.483-2.386.775a9 9 0 0 0-.42.194 12.47 12.47 0 0 0 7.799 5.543m11.381-12.14.002.06c0 1.997-.312 3.884-.866 5.565.99.242 1.858.53 2.569.853l.01-.001h-.01l.238.113a12.37 12.37 0 0 0 1.89-6.59z"/><path d="M41.358 40.678c-1.004 3.048-2.805 5.413-5.004 6.508l.083-.017a12.48 12.48 0 0 0 7.728-5.526l-.238-.112c-.71-.323-1.58-.61-2.569-.853M36.017 22.84l-.154-.028c2.019.81 3.746 2.67 4.887 5.169l.007-.004-.007.004q.316.696.57 1.454c1.121-.273 2.087-.603 2.847-.976a12.46 12.46 0 0 0-8.15-5.62"/><path d="M42.222 35.053h3.833c0-2.422-.691-4.682-1.888-6.594-.76.373-1.726.703-2.847.976.571 1.693.896 3.6.902 5.618M25.888 29.44c-1.117-.272-2.08-.602-2.839-.975a12.36 12.36 0 0 0-1.898 6.588h3.832c.006-2.018.333-3.922.905-5.614m-.04 11.241c-.554-1.682-.866-3.57-.866-5.567l.001-.06h-3.832c0 2.424.693 4.684 1.891 6.597q.202-.1.42-.194c.675-.292 1.48-.552 2.386-.775"/><path d="M26.583 27.73c1.143-2.375 2.821-4.144 4.774-4.925a12.46 12.46 0 0 0-8.308 5.66c.76.373 1.722.703 2.84.974q.302-.897.694-1.709"/></g></svg>