<svg xmlns="http://www.w3.org/2000/svg" data-name="Isolation Mode" viewBox="0 0 50 50"><g fill="none" stroke="#000"><path stroke-linecap="round" stroke-linejoin="round" d="M12 36H9.318C5.828 36 3 33.203 3 29.753c0-3.441 2.814-6.231 6.291-6.246q0 0 0 0c0-5.13 4.205-9.287 9.391-9.287 1.38 0 2.69.297 3.87.826C24.116 10.93 28.13 8 32.839 8c6.065 0 10.982 4.862 10.982 10.86 0 .978-.133 1.926-.378 2.828C45.584 23.082 47 25.478 47 28.202c0 4.013-3.065 7.317-7.006 7.75H38"/><g stroke-width=".75"><path stroke-linecap="round" stroke-linejoin="round" d="M40 29.5v2M38 29.5v2M36 29.5v2"/><circle cx="29" cy="30.5" r="1" stroke-miterlimit="10"/><path stroke-miterlimit="10" d="M26.796 28h15.387c.45 0 .817.366.817.817v3.387c0 .44-.357.796-.796.796H26.796a.796.796 0 0 1-.796-.796v-3.408c0-.44.357-.796.796-.796Z"/></g><g stroke-width=".75"><path stroke-linecap="round" stroke-linejoin="round" d="M21 29.5v2M19 29.5v2M17 29.5v2"/><circle cx="10" cy="30.5" r="1" stroke-miterlimit="10"/><path stroke-miterlimit="10" d="M7.796 28h15.387c.45 0 .817.366.817.817v3.387c0 .44-.357.796-.796.796H7.796A.796.796 0 0 1 7 32.204v-3.408c0-.44.357-.796.796-.796Z"/></g></g><g fill="none" stroke="#231f20" stroke-linecap="round" stroke-linejoin="round"><path d="M14.616 25.993a11.3 11.3 0 0 1 5.337-5.791c5.565-2.824 12.337-.502 15.124 5.186m.28 9.683a11.3 11.3 0 0 1-5.31 5.727c-5.565 2.824-12.337.502-15.124-5.186"/><path d="m36.5 21.029-1.423 4.359L30.8 23.92M13.5 39.971l1.423-4.359L19.2 37.08"/></g></svg>