<svg xmlns="http://www.w3.org/2000/svg" data-name="Isolation Mode" viewBox="0 0 50 50"><path fill="none" stroke="#000" stroke-linecap="round" stroke-linejoin="round" d="M10.94 34H9.317C5.828 34 3 31.203 3 27.753c0-3.441 2.814-6.231 6.291-6.246q0 0 0 0c0-5.13 4.205-9.287 9.391-9.287 1.38 0 2.69.297 3.87.826C24.116 8.93 28.13 6 32.839 6c6.065 0 10.982 4.862 10.982 10.86 0 .978-.133 1.926-.378 2.828C45.584 21.082 47 23.478 47 26.202 47 30.51 43.47 34 39.114 34"/><g fill="none" stroke="#000" stroke-linecap="round" stroke-linejoin="round"><path d="M11.9 23.53h4.784v4.8"/><path d="M18.545 22.003c4.644-3.086 10.96-2.578 15.052 1.527 4.67 4.686 4.67 12.285 0 16.971a11.93 11.93 0 0 1-16.913 0c-4.67-4.686-4.67-12.285 0-16.97"/></g><g fill="none" stroke="#000" stroke-linecap="round" stroke-linejoin="round"><path d="M25.1 26.016v6h3.6"/><circle cx="25.1" cy="32.016" r="6"/></g></svg>