<svg xmlns="http://www.w3.org/2000/svg" data-name="Isolation Mode" viewBox="0 0 50 50"><g fill="none" stroke="#000" stroke-miterlimit="10" stroke-width=".75"><path d="M29.342 34.67v.212M29.342 37.005v.212"/><ellipse cx="25" cy="32.198" rx="4.34" ry="2.198"/><path d="M20.66 34.4c0 1.213 1.943 2.197 4.34 2.197s4.34-.984 4.34-2.198M20.66 36.6c0 1.215 1.943 2.199 4.34 2.199s4.34-.984 4.34-2.198"/><path d="m29.342 32.194-.002 6.608C29.34 40.016 27.397 41 25 41s-4.34-.984-4.34-2.198l-.002-6.468"/></g><rect width="40" height="40" x="5" y="5" fill="none" stroke="#000" stroke-linecap="round" stroke-linejoin="round" rx="8.52" ry="8.52"/><rect width="11" height="11" x="19.5" y="9" fill="none" stroke="#000" stroke-dasharray="0 1.996107" stroke-linecap="round" stroke-linejoin="round" rx="2.357" ry="2.357"/><path d="M23.15 15.328a.5.5 0 0 1-.038-.105 2 2 0 0 1-.025-.13 1 1 0 0 1-.283.197 1.02 1.02 0 0 1-.748.028.8.8 0 0 1-.266-.152.67.67 0 0 1-.232-.516q0-.39.29-.595.29-.207.831-.206h.392v-.16a.39.39 0 0 0-.13-.305q-.13-.113-.367-.113-.107.001-.188.026c-.08.025-.098.04-.134.07a.29.29 0 0 0-.107.236h-.535q0-.141.066-.274c.066-.133.108-.168.193-.238s.19-.125.313-.166q.184-.063.422-.063.214 0 .397.053a.9.9 0 0 1 .318.156q.135.104.21.26a.8.8 0 0 1 .077.363v1.079q0 .16.023.29c.023.13.039.163.069.227v.038zm-.645-.387a.74.74 0 0 0 .357-.093.6.6 0 0 0 .209-.204v-.455h-.34q-.327 0-.482.105a.34.34 0 0 0-.156.3q0 .074.025.138.024.063.075.11.05.045.127.072a.6.6 0 0 0 .185.027m3.722-.799q0 .265-.063.49-.063.226-.184.39a.9.9 0 0 1-.296.258.85.85 0 0 1-.404.093.9.9 0 0 1-.364-.067.8.8 0 0 1-.272-.193v1.146h-.535v-3.352h.493l.022.243a.8.8 0 0 1 .649-.288q.23 0 .409.09.177.09.298.251.121.163.184.39t.063.502zm-.536-.047q0-.164-.033-.308a.8.8 0 0 0-.103-.253.5.5 0 0 0-.177-.17.5.5 0 0 0-.255-.063q-.18 0-.295.075a.43.43 0 0 0-.184.204v1.084q.068.124.183.203c.115.08.177.078.3.078a.48.48 0 0 0 .432-.239.8.8 0 0 0 .1-.255q.032-.146.032-.309zm3.05.047q0 .265-.063.49-.062.226-.183.39a.9.9 0 0 1-.297.258.85.85 0 0 1-.404.093.9.9 0 0 1-.363-.067.8.8 0 0 1-.272-.193v1.146h-.535v-3.352h.492l.023.243a.8.8 0 0 1 .649-.288q.23 0 .408.09t.3.251q.12.163.182.39.063.227.063.502zm-.535-.047q0-.164-.033-.308a.8.8 0 0 0-.103-.253.5.5 0 0 0-.177-.17.5.5 0 0 0-.255-.063q-.18 0-.296.075c-.116.075-.138.12-.183.204v1.084q.068.124.182.203c.114.08.178.078.301.078a.48.48 0 0 0 .431-.239.8.8 0 0 0 .1-.255q.033-.146.033-.309z"/><path fill="none" stroke="#000" stroke-linecap="round" stroke-linejoin="round" stroke-width=".75" d="M35 24.068v1.864M32.5 24.068v1.864M30 24.068v1.864"/><path d="M15.625 24.375a.625.625 0 1 1 0 1.25.625.625 0 0 1 0-1.25m0-.75c-.758 0-1.375.617-1.375 1.375s.617 1.375 1.375 1.375S17 25.758 17 25s-.617-1.375-1.375-1.375"/><path fill="none" stroke="#000" stroke-miterlimit="10" stroke-width=".75" d="M13.366 22.5h23.245a.89.89 0 0 1 .889.89v3.244a.867.867 0 0 1-.866.866H13.366a.867.867 0 0 1-.866-.866v-3.268c0-.478.388-.866.866-.866Z"/></svg>