<svg xmlns="http://www.w3.org/2000/svg" data-name="Isolation Mode" viewBox="0 0 50 50"><path fill="none" stroke="#231f20" stroke-miterlimit="10" d="M32.218 30.572s2.284-.02 3.529 1.9c1.591 2.457 3.069 6.15 5.836 6.65 3.062.555 5.293-3.867 4.14-9.568s-1.833-8.279-3.733-13.029-6.447-5.768-9.636-5.768H17.646c-3.189 0-7.736 1.018-9.636 5.768s-2.579 7.33-3.732 13.03 1.077 10.122 4.14 9.568c2.766-.5 4.244-4.194 5.835-6.65 1.245-1.922 3.53-1.9 3.53-1.9z"/><path fill="none" stroke="#231f20" stroke-miterlimit="10" d="M32.354 10.757 30.09 13.99a1.97 1.97 0 0 1-1.61.839h-6.96a1.97 1.97 0 0 1-1.61-.84l-2.264-3.232"/><path fill="none" stroke="#231f20" stroke-linecap="round" stroke-linejoin="round" d="M22.838 23.48h-2.206v-2.205h-2.307v2.206H16.12v2.307h2.205v2.206h2.307v-2.206h2.206z"/><path fill="#231f20" d="M13.71 15.34c1.103 0 2 .897 2 2s-.897 2-2 2-2-.898-2-2 .898-2 2-2m0-1a3 3 0 1 0 0 6 3 3 0 0 0 0-6m16.003 7.751c1.103 0 2 .898 2 2s-.897 2-2 2-2-.897-2-2 .897-2 2-2m0-1a3 3 0 1 0 0 6 3 3 0 0 0 0-6"/><circle cx="33.187" cy="17.679" r="1.442" fill="none" stroke="#231f20" stroke-miterlimit="10"/><circle cx="38.991" cy="17.679" r="1.442" fill="none" stroke="#231f20" stroke-miterlimit="10"/><circle cx="36.089" cy="14.777" r="1.442" fill="none" stroke="#231f20" stroke-miterlimit="10"/><circle cx="36.089" cy="20.581" r="1.442" fill="none" stroke="#231f20" stroke-miterlimit="10"/></svg>