<svg xmlns="http://www.w3.org/2000/svg" data-name="Isolation Mode" viewBox="0 0 50 50"><path d="M22.37 24.38a1 1 0 0 1-.094-.281 3 3 0 0 1-.05-.352q-.15.15-.336.285-.185.134-.409.236-.222.102-.475.161c-.253.06-.347.06-.537.06a2.5 2.5 0 0 1-.835-.135q-.373-.134-.634-.363a1.6 1.6 0 0 1-.402-.542 1.6 1.6 0 0 1-.143-.68q0-.478.19-.837.192-.36.54-.599.35-.24.841-.357a4.7 4.7 0 0 1 1.099-.119h1.084v-.456q0-.263-.096-.473c-.096-.21-.156-.259-.274-.357a1.3 1.3 0 0 0-.433-.228q-.255-.08-.572-.08-.295 0-.528.074-.235.075-.395.2a.7.7 0 0 0-.25.292.74.74 0 0 0-.089.352h-.999q.006-.318.164-.623.159-.306.456-.551.299-.245.726-.395.426-.15.97-.15.494 0 .918.121.424.12.733.365.309.244.486.61c.177.366.177.528.177.854v2.701q0 .29.054.616.053.324.15.566v.086zm-1.756-.756q.29 0 .543-.076c.253-.076.321-.116.46-.198q.206-.124.356-.283.151-.158.236-.33v-1.176h-.923q-.87 0-1.354.258c-.484.258-.483.442-.483.81q0 .216.072.398t.218.315q.144.13.365.206c.221.076.317.076.51.076m9.464-2.084q0 .623-.15 1.162-.15.54-.441.938c-.291.398-.432.472-.717.623q-.428.225-.975.225-.532 0-.938-.172a1.95 1.95 0 0 1-.695-.494v2.793h-.994V18.57h.908l.049.634q.29-.36.7-.55.412-.191.954-.191.558 0 .988.22c.43.22.526.351.72.612s.34.574.44.937q.15.546.15 1.196zm-.994-.113q0-.424-.094-.809a2.1 2.1 0 0 0-.29-.677q-.195-.292-.497-.464c-.302-.172-.44-.172-.72-.172q-.477 0-.802.223-.325.224-.519.572v2.798q.193.344.516.562.322.216.816.217a1.4 1.4 0 0 0 .714-.174q.302-.176.495-.47c.193-.294.224-.425.287-.682q.094-.387.094-.811zm7.638.113q0 .623-.15 1.162-.15.54-.441.938c-.291.398-.432.472-.717.623q-.428.225-.975.225-.532 0-.938-.172a1.95 1.95 0 0 1-.695-.494v2.793h-.993V18.57h.907l.049.634q.29-.36.7-.55.412-.191.954-.191.558 0 .988.22c.43.22.527.351.72.612s.34.574.44.937q.15.546.15 1.196zm-.994-.113q0-.424-.094-.809a2.1 2.1 0 0 0-.29-.677q-.195-.292-.497-.464c-.302-.172-.44-.172-.72-.172q-.477 0-.802.223-.325.224-.519.572v2.798q.194.344.516.562.323.216.816.217a1.4 1.4 0 0 0 .715-.174q.3-.176.494-.47c.194-.294.224-.425.287-.682q.094-.387.094-.811z"/><path fill="none" stroke="#000" stroke-linecap="round" stroke-linejoin="round" d="M25.535 40h12.06a7.455 7.455 0 0 0 7.456-7.455v-20.09A7.455 7.455 0 0 0 37.596 5h-20.09a7.455 7.455 0 0 0-7.455 7.455v12.077"/><g fill="none" stroke="#000" stroke-linecap="round" stroke-linejoin="round"><path d="m15.323 26.024.492 2.498.124.022q.481.103.932.266l1.627-1.933 1.45.836-.823 2.414q.395.343.732.736l2.367-.883.846 1.445-1.903 1.696q.192.544.296 1.12l2.486.437-.008 1.675-2.5.5-.025.127q-.104.48-.266.928l1.931 1.62-.84 1.452-2.414-.815a7 7 0 0 1-.738.733l.88 2.363-1.448.849-1.694-1.897q-.555.198-1.142.303L15.235 45l-1.676-.008-.488-2.499-.11-.02a7 7 0 0 1-.945-.27l-1.631 1.93-1.449-.84.828-2.412a7 7 0 0 1-.73-.737l-2.369.878-.843-1.446 1.906-1.692a7 7 0 0 1-.293-1.12l-2.486-.443.011-1.675 2.502-.495.022-.114q.104-.486.27-.94l-1.928-1.625.843-1.45 2.413.82q.344-.393.74-.731l-.876-2.365 1.45-.847 1.69 1.9a7 7 0 0 1 1.115-.295l.445-2.485z"/><circle cx="14.449" cy="35.51" r="4.73"/></g></svg>