<svg xmlns="http://www.w3.org/2000/svg" data-name="&amp;lt;Layer&amp;gt;" viewBox="0 0 50 50"><rect width="12" height="12" x="34.404" y="7.007" fill="none" stroke="#000" stroke-dasharray="0 1.97961" stroke-linecap="round" stroke-linejoin="round" rx="2.571" ry="2.571"/><path d="M38.31 13.944a.5.5 0 0 1-.041-.119 2 2 0 0 1-.03-.146 1 1 0 0 1-.32.222 1.1 1.1 0 0 1-.452.094q-.217 0-.394-.061a.9.9 0 0 1-.302-.173.77.77 0 0 1-.261-.583q0-.441.328-.674c.328-.233.532-.233.941-.233h.443v-.18a.43.43 0 0 0-.148-.345q-.146-.129-.414-.128a.7.7 0 0 0-.213.028.5.5 0 0 0-.152.08q-.06.052-.09.12a.3.3 0 0 0-.031.146h-.606a.7.7 0 0 1 .075-.31q.075-.15.22-.268a.9.9 0 0 1 .352-.188 1.5 1.5 0 0 1 .477-.072q.244 0 .45.06.21.059.36.178.154.117.238.293a.9.9 0 0 1 .086.412v1.22q0 .18.028.328a.8.8 0 0 0 .077.256v.043zm-.729-.437a.8.8 0 0 0 .546-.213.6.6 0 0 0 .095-.124v-.514h-.385q-.37 0-.546.118a.39.39 0 0 0-.176.34q0 .084.028.156t.086.124a.4.4 0 0 0 .143.083.7.7 0 0 0 .21.03m4.209-.904q0 .298-.07.554c-.07.256-.117.318-.207.442a1 1 0 0 1-.336.292 1 1 0 0 1-.457.104q-.234 0-.412-.076a.7.7 0 0 1-.307-.218v1.297h-.606v-3.793h.557l.026.276a.9.9 0 0 1 .312-.242 1 1 0 0 1 .422-.085q.261 0 .462.102a.76.76 0 0 1 .339.285q.136.183.207.44.07.256.07.569zm-.604-.053q0-.185-.039-.349a.9.9 0 0 0-.117-.286q-.078-.123-.199-.193a.46.46 0 0 0-.289-.072.6.6 0 0 0-.334.087.6.6 0 0 0-.207.23v1.225q.076.143.206.23.13.09.34.09a.55.55 0 0 0 .487-.27.9.9 0 0 0 .115-.29 1.7 1.7 0 0 0 .037-.35zm3.45.053q0 .298-.072.554c-.072.256-.116.318-.208.442a1 1 0 0 1-.335.292 1 1 0 0 1-.457.104q-.233 0-.41-.076a.7.7 0 0 1-.31-.218v1.297h-.604v-3.793h.558l.024.276a.9.9 0 0 1 .314-.242 1 1 0 0 1 .42-.085q.262 0 .463.102a.9.9 0 0 1 .337.285q.137.183.208.44.072.256.072.569zm-.606-.053q0-.185-.038-.349-.037-.162-.116-.286c-.079-.124-.12-.146-.2-.193s-.177-.072-.288-.072a.6.6 0 0 0-.335.087.6.6 0 0 0-.208.23v1.225q.076.143.207.23.13.09.34.09a.55.55 0 0 0 .488-.27 1 1 0 0 0 .113-.29q.038-.164.037-.35z"/><rect width="12" height="12" x="3.596" y="7.007" fill="none" stroke="#000" stroke-dasharray="0 1.97961" stroke-linecap="round" stroke-linejoin="round" rx="2.571" ry="2.571"/><path d="M7.502 13.944a.6.6 0 0 1-.041-.119 2 2 0 0 1-.03-.146 1 1 0 0 1-.32.222 1.1 1.1 0 0 1-.45.094q-.22 0-.395-.061-.176-.063-.301-.173a.6.6 0 0 1-.194-.259.75.75 0 0 1-.068-.324q0-.441.327-.674.329-.233.94-.233h.444v-.18a.43.43 0 0 0-.146-.345q-.147-.129-.416-.128a.7.7 0 0 0-.213.028.5.5 0 0 0-.152.08.3.3 0 0 0-.09.12.4.4 0 0 0-.032.146h-.604q0-.159.075-.31.074-.15.219-.268a.9.9 0 0 1 .353-.188 1.5 1.5 0 0 1 .477-.072q.243 0 .45.06.21.059.36.178a.8.8 0 0 1 .239.293.94.94 0 0 1 .086.412v1.22q-.001.18.026.328.026.148.077.256v.043zm-.729-.437a.8.8 0 0 0 .546-.213.6.6 0 0 0 .095-.124v-.514H7.03q-.368 0-.546.118a.39.39 0 0 0-.175.34q-.001.084.028.156.028.072.084.124.058.052.144.083a.7.7 0 0 0 .21.03m4.209-.904q0 .298-.07.554c-.07.256-.117.318-.209.442a1 1 0 0 1-.335.292 1 1 0 0 1-.457.104q-.232 0-.411-.076a.7.7 0 0 1-.309-.218v1.297H8.59v-3.793h.557l.025.276a.9.9 0 0 1 .313-.242 1 1 0 0 1 .421-.085q.261 0 .462.102a.9.9 0 0 1 .338.285q.137.183.208.44.071.256.071.569zm-.605-.053q0-.185-.038-.349-.038-.162-.116-.286c-.078-.124-.12-.146-.2-.193s-.177-.072-.289-.072a.6.6 0 0 0-.335.087.6.6 0 0 0-.208.23v1.225q.076.143.207.23.13.09.34.09a.55.55 0 0 0 .489-.27 1 1 0 0 0 .113-.29q.037-.164.037-.35zm3.449.053q0 .298-.07.554c-.07.256-.117.318-.207.442a1 1 0 0 1-.336.292 1 1 0 0 1-.457.104q-.233 0-.412-.076c-.18-.076-.221-.123-.307-.218v1.297h-.605v-3.793h.556l.026.276a.9.9 0 0 1 .312-.242 1 1 0 0 1 .422-.085q.261 0 .462.102a.76.76 0 0 1 .339.285q.136.183.207.44.07.256.07.569zm-.604-.053q0-.185-.038-.349a.9.9 0 0 0-.118-.286q-.077-.123-.199-.193a.46.46 0 0 0-.289-.072.6.6 0 0 0-.334.087.6.6 0 0 0-.207.23v1.225q.076.143.206.23.13.09.34.09a.55.55 0 0 0 .487-.27.9.9 0 0 0 .116-.29 1.7 1.7 0 0 0 .036-.35z"/><rect width="12" height="12" x="19" y="3.007" fill="none" stroke="#000" stroke-dasharray="0 1.97961" stroke-linecap="round" stroke-linejoin="round" rx="2.571" ry="2.571"/><path d="M22.906 9.944a.5.5 0 0 1-.04-.119 2 2 0 0 1-.03-.146 1.1 1.1 0 0 1-.32.222q-.098.043-.211.069a1.2 1.2 0 0 1-.635-.037.9.9 0 0 1-.302-.172.78.78 0 0 1-.262-.584q0-.44.328-.673t.941-.233h.443v-.18a.43.43 0 0 0-.147-.346q-.147-.128-.415-.128-.121 0-.213.03a.35.35 0 0 0-.152.08.3.3 0 0 0-.09.119.3.3 0 0 0-.031.146h-.606q0-.16.075-.31a.66.66 0 0 1 .22-.269 1.1 1.1 0 0 1 .353-.188q.209-.07.477-.07.244 0 .45.059.209.059.36.177t.238.294c.087.176.086.253.086.41v1.221q0 .18.026.329.027.147.078.256v.043zm-.728-.438a.8.8 0 0 0 .545-.213.6.6 0 0 0 .095-.124v-.514h-.384q-.371 0-.547.12a.39.39 0 0 0-.176.338q0 .084.028.157c.028.073.047.088.085.124q.057.05.145.082c.088.032.127.03.209.03m4.21-.903q0 .298-.072.553-.07.257-.207.443t-.336.29a.8.8 0 0 1-.457.106q-.232 0-.41-.076a.7.7 0 0 1-.308-.218v1.296h-.606V7.205h.558l.024.275q.133-.156.314-.24a.8.8 0 0 1 .42-.086q.261 0 .463.1a1 1 0 0 1 .338.286q.136.184.207.44.072.258.072.569zm-.605-.054q0-.185-.039-.348a.9.9 0 0 0-.116-.286.6.6 0 0 0-.2-.194.56.56 0 0 0-.288-.07.6.6 0 0 0-.335.085.6.6 0 0 0-.207.23v1.226q.075.142.207.23.129.09.34.089a.55.55 0 0 0 .487-.27 1 1 0 0 0 .114-.29q.037-.164.037-.348zm3.449.054q0 .298-.07.553-.072.257-.208.443c-.136.186-.203.22-.335.29a.96.96 0 0 1-.457.106q-.234 0-.412-.076a.7.7 0 0 1-.308-.218v1.296h-.604V7.205h.557l.025.275a.9.9 0 0 1 .734-.326q.261 0 .461.1.202.104.34.286c.137.182.16.27.207.44q.07.258.07.569zm-.605-.054q0-.185-.037-.348-.039-.164-.117-.286c-.078-.122-.12-.146-.2-.194a.6.6 0 0 0-.289-.07q-.201 0-.334.085c-.133.085-.157.134-.208.23v1.226q.077.142.206.23a.6.6 0 0 0 .341.089.55.55 0 0 0 .488-.27.9.9 0 0 0 .114-.29q.036-.164.036-.348z"/><g fill="none" stroke="#000" stroke-linecap="round" stroke-linejoin="round"><g data-name="Group 13221"><path d="m31.981 26.841 5.295-5.295" data-name="Line 154"/><path d="M37.276 26.35v-4.804H32.47" data-name="Path 60447"/></g><g data-name="Group 13221"><path d="m18.019 26.841-5.295-5.295" data-name="Line 154"/><path d="M17.529 21.546h-4.805v4.805" data-name="Path 60447"/></g><g data-name="Group 13221"><path d="M25 24.901v-7.488" data-name="Line 154"/><path d="M28.397 20.81 25 17.413l-3.397 3.397" data-name="Path 60447"/></g></g><rect width="20" height="20" x="15" y="26.771" fill="none" stroke="#000" stroke-linecap="round" stroke-linejoin="round" rx="4.26" ry="4.26"/><path d="M22.004 37.783q-.03-.059-.05-.135a2 2 0 0 1-.035-.16 1.1 1.1 0 0 1-.35.25q-.107.05-.236.076a1 1 0 0 1-.278.028q-.242 0-.447-.07c-.205-.07-.253-.113-.35-.197s-.174-.183-.229-.3-.082-.243-.082-.38q0-.5.374-.774c.374-.274.62-.274 1.115-.274h.454v-.188q0-.228-.15-.361c-.15-.133-.243-.134-.43-.134q-.25 0-.364.107c-.114.107-.114.167-.114.286h-.814q0-.203.09-.384c.09-.181.146-.228.26-.32s.254-.164.42-.217.353-.081.566-.081q.286 0 .535.07c.249.07.307.116.428.208s.216.208.285.348.102.3.102.484v1.36q0 .255.032.421a.8.8 0 0 0 .094.287v.05zm-.776-.571a.85.85 0 0 0 .565-.212.6.6 0 0 0 .097-.122v-.545h-.416q-.19 0-.326.037c-.136.037-.163.059-.22.103s-.098.096-.125.158-.041.128-.041.2q0 .164.116.273c.116.109.193.108.35.108m5.399-.984q0 .345-.08.641c-.08.296-.133.368-.237.512s-.235.256-.39.338-.33.123-.53.123q-.255 0-.448-.088a.8.8 0 0 1-.337-.246v1.494h-.814v-4.389h.753l.03.31q.146-.174.345-.272c.199-.098.288-.096.466-.096q.301 0 .533.116c.232.116.284.186.39.328s.185.312.239.51.08.417.08.657zm-.814-.062q0-.2-.037-.373c-.037-.173-.062-.217-.114-.302s-.118-.152-.2-.201-.179-.073-.294-.073q-.214 0-.35.084a.46.46 0 0 0-.213.235v1.324q.077.15.213.24c.136.09.21.088.356.088q.173 0 .295-.076c.122-.076.146-.12.197-.208s.088-.19.111-.305.035-.24.035-.371zm4.597.062q0 .345-.08.641c-.08.296-.133.368-.237.512s-.235.256-.389.338-.331.123-.53.123q-.255 0-.448-.088a.8.8 0 0 1-.337-.246v1.494h-.815v-4.389h.753l.03.31q.146-.174.345-.272c.2-.098.288-.096.466-.096q.302 0 .533.116c.231.116.284.186.39.328s.185.312.24.51.08.417.08.657zm-.814-.062q0-.2-.036-.373c-.036-.173-.063-.217-.115-.302s-.118-.152-.199-.201-.18-.073-.295-.073q-.213 0-.35.084a.45.45 0 0 0-.212.235v1.324q.076.15.213.24c.137.09.209.088.355.088q.173 0 .295-.076c.122-.076.146-.12.197-.208s.088-.19.112-.305.035-.24.035-.371z"/></svg>