<svg xmlns="http://www.w3.org/2000/svg" data-name="Isolation Mode" viewBox="0 0 50 50"><g fill="none" stroke="#000"><rect width="28" height="6" x="11" y="5" stroke-miterlimit="10" rx=".853" ry=".853"/><path stroke-miterlimit="10" d="M36.5 11v7.504C36.5 24.853 31.353 30 25.004 30s-11.497-5.147-11.497-11.496L13.5 11"/><path stroke-linecap="round" stroke-linejoin="round" d="M18 27.621v-5.623a6.998 6.998 0 0 1 13.996 0L32 27.61"/><circle cx="25" cy="21.5" r="3.5" stroke-miterlimit="10"/></g><g fill="none" stroke="#000" stroke-linecap="round" stroke-linejoin="round"><path d="M18.988 32.308a8.503 8.503 0 0 0 12.024 0M15.38 35.915c5.313 5.312 13.927 5.312 19.24 0"/><path d="M12.246 39.978c7.184 6.696 18.324 6.696 25.508 0"/></g></svg>