<svg xmlns="http://www.w3.org/2000/svg" data-name="Isolation Mode" viewBox="0 0 50 50"><path fill="none" stroke="#231f20" stroke-linecap="round" stroke-linejoin="round" d="M24.915 6.599v19.277"/><path fill="#231f20" d="M18.837 16.675a.952.952 0 1 0 0 1.904q.034-.002.067-.006a.951.951 0 0 0-.067-1.898m-1.204-4.98a.952.952 0 1 0 0 1.904c.024 0 .045-.006.068-.008a.948.948 0 0 0-.068-1.896m4.47-4.173a.952.952 0 0 0 0 1.905c.023 0 .047-.005.07-.007a.95.95 0 0 0-.07-1.898m.46 10.95a.952.952 0 1 0 0 1.903c.023 0 .044-.006.067-.008a.948.948 0 0 0-.067-1.895m-4.317 3.634a.952.952 0 1 0 0 1.905q.033-.002.068-.007a.95.95 0 0 0 .883-.945.95.95 0 0 0-.951-.953m3.437 2.441a.952.952 0 1 0 0 1.905c.023 0 .044-.006.067-.008a.95.95 0 0 0 .883-.945.95.95 0 0 0-.95-.952"/><path fill="none" stroke="#231f20" stroke-linecap="round" stroke-linejoin="round" d="M20.727 13.193c.145-.973-.31-1.94-1.182-2.517-.926-.582-2.174-.582-3.426 0-1.672.782-1.101 3.301-1.098 3.327a.23.23 0 0 1-.036.186c-.013.02-1.29 1.888-.611 3.344.381.813 1.315 1.365 2.777 1.639"/><path fill="none" stroke="#231f20" stroke-linecap="round" stroke-linejoin="round" d="M21.64 8.076c-.887-.725-1.836-1.56-2.761-1.186-.809.328-1.461 1.854-1.036 3.351M24.915 25.875V6.598"/><path fill="none" stroke="#231f20" stroke-linecap="round" stroke-linejoin="round" d="M14.835 18.165c-.89.71-1.094 1.798-.807 2.533.325.99 1.13 1.692 1.541 1.741.15.017.257.143.238.281l-.006.03c-.274.973 0 2.008.735 2.758.422.514 1.07.83 1.772.867a.28.28 0 0 1 .297.185c.42 1.256 1.826 2.013 3.237 1.743 2.962-.345 3.072-2.367 3.073-2.428M19.621 6.824c1.718-1.606 3.64-1.917 4.55-1.517.507.26.743.838.744 1.292M17.818 13.21l1.178 2.19M21.816 14.974l-2.819.426M18.996 15.4l-.105 1.618M20.753 23.566l.656 1.405"/><path fill="none" stroke="#231f20" stroke-linecap="round" stroke-linejoin="round" d="m22.003 19.654-1.901.955.65 2.957M20.753 23.566l-1.924-.391M24.916 6.599v19.276999999999997"/><path fill="#231f20" d="M30.994 16.675a.951.951 0 0 0-.068 1.898q.035.005.068.006a.952.952 0 1 0 0-1.904m1.204-4.98a.948.948 0 0 0-.068 1.896c.023.002.044.008.068.008a.952.952 0 1 0 0-1.904m-4.788 2.22a.948.948 0 0 0-.068 1.896c.024.002.045.008.068.008a.952.952 0 1 0 0-1.904m.318-6.393a.95.95 0 0 0-.07 1.898q.035.005.07.007a.952.952 0 0 0 0-1.905M22.4 13.9a.95.95 0 0 0-.07 1.898c.024.002.047.008.07.008a.952.952 0 0 0 0-1.905m4.868 4.571a.948.948 0 0 0-.068 1.896c.024.001.045.007.068.007a.952.952 0 1 0 0-1.903m4.317 3.634a.95.95 0 0 0-.95.953c0 .501.389.91.882.945.024.002.045.007.068.007a.952.952 0 1 0 0-1.905m-3.437 2.441a.95.95 0 0 0-.95.952c0 .502.389.91.883.945.023.002.044.008.067.008a.952.952 0 1 0 0-1.905"/><path fill="none" stroke="#231f20" stroke-linecap="round" stroke-linejoin="round" d="M29.105 13.193c-.146-.973.308-1.94 1.18-2.517.927-.582 2.176-.582 3.427 0 1.672.782 1.101 3.301 1.098 3.327a.23.23 0 0 0 .036.186c.013.02 1.29 1.888.611 3.344-.381.813-1.315 1.365-2.777 1.639"/><path fill="none" stroke="#231f20" stroke-linecap="round" stroke-linejoin="round" d="M28.19 8.076c.888-.725 1.837-1.56 2.762-1.186.809.328 1.461 1.854 1.036 3.351M24.916 25.875V6.598"/><path fill="none" stroke="#231f20" stroke-linecap="round" stroke-linejoin="round" d="M34.996 18.165c.89.71 1.094 1.798.807 2.533-.325.99-1.13 1.692-1.541 1.741-.15.017-.257.143-.238.281l.006.03c.274.973 0 2.008-.735 2.758-.422.514-1.07.83-1.772.867a.28.28 0 0 0-.297.185c-.42 1.256-1.826 2.013-3.237 1.743-2.962-.345-3.072-2.367-3.073-2.428M30.21 6.824c-1.718-1.606-3.64-1.917-4.55-1.517-.507.26-.743.838-.744 1.292M32.013 13.21l-1.178 2.19M28.015 14.974l2.819.426M30.835 15.4l.105 1.618M29.078 23.566l-.656 1.405"/><path fill="none" stroke="#231f20" stroke-linecap="round" stroke-linejoin="round" d="m27.828 19.654 1.901.955-.65 2.957M29.078 23.566l1.924-.391"/><g fill="none" stroke="#231f20" stroke-linecap="round" stroke-linejoin="round"><path d="M19.864 35.708h-8.719M19.864 28.364v7.344M30.136 35.708h8.719M30.136 28.364v7.344M25.018 26.739v18.41M36.355 32.866l2.498 2.842-2.498 2.836M13.643 38.544l-2.498-2.842 2.498-2.836M27.857 42.651l-2.842 2.498-2.836-2.498"/></g></svg>