<svg xmlns="http://www.w3.org/2000/svg" viewBox="0 0 50 50"><circle cx="24.957" cy="8.538" r="1.011" fill="none" stroke="#000" stroke-linecap="round" stroke-linejoin="round"/><circle cx="7.792" cy="20.84" r="1.011" fill="none" stroke="#000" stroke-linecap="round" stroke-linejoin="round"/><g fill="none" stroke="#000" stroke-linecap="round" stroke-linejoin="round"><path d="M21.89 26.785v-.075h-3.888v.049c0 1.62.253 3.154.702 4.52a23.4 23.4 0 0 1 3.423-.552 32 32 0 0 1-.237-3.942"/><path d="M22.127 30.727c-1.262.116-2.42.305-3.423.552.813 2.473 2.272 4.395 4.053 5.286q.12.028.241.054.635.127 1.295.172c-.982-.755-1.786-3.044-2.166-6.064m5.725-8.034c.162 1.233.254 2.589.258 4.017h3.887a14.5 14.5 0 0 0-.732-4.56 24 24 0 0 1-3.413.543"/><path d="M27.873 30.727q-.45-.04-.913-.07a32.5 32.5 0 0 0-4.833.07c.38 3.02 1.184 5.31 2.166 6.064q.35.026.707.028.352-.002.699-.029l.009-.006c.981-.755 1.784-3.042 2.165-6.057"/><path d="M25.708 36.784q-.004.004-.01.006a10.4 10.4 0 0 0 1.536-.23c1.784-.89 3.247-2.81 4.062-5.284a23.5 23.5 0 0 0-3.423-.549c-.38 3.015-1.184 5.302-2.165 6.057"/><path d="M28.11 26.785c0 1.398-.084 2.729-.237 3.942 1.261.115 2.42.303 3.423.55a14.5 14.5 0 0 0 .702-4.518v-.049H28.11zm-5.96-4.089a23.6 23.6 0 0 1-3.413-.543 14.4 14.4 0 0 0-.735 4.557h3.888a31 31 0 0 1 .26-4.014"/><path d="M25 22.822a33 33 0 0 1-2.85-.126 31 31 0 0 0-.26 4.014h6.22a32 32 0 0 0-.258-4.017q-.273.025-.552.045a32 32 0 0 1-2.3.084m-3.11 3.963c0 1.397.084 2.728.237 3.942a31.6 31.6 0 0 1 4.833-.07q.465.03.913.07c.153-1.213.237-2.544.237-3.942v-.075h-6.22zm5.689-5.747q0-.002.002-.003zc.106.518.196 1.074.273 1.655 1.256-.114 2.411-.3 3.413-.544a12 12 0 0 0-.463-1.18c-.927-2.029-2.328-3.54-3.968-4.196q-.686-.128-1.4-.16.085.038.169.092c.82.533 1.524 2.126 1.976 4.333"/><path d="M22.467 20.835a23 23 0 0 0-.317 1.861q.416.038.848.064a32.5 32.5 0 0 0 4.302-.022q.279-.02.552-.045a24 24 0 0 0-.273-1.655c-.452-2.207-1.156-3.8-1.976-4.333a1.4 1.4 0 0 0-.17-.093 10 10 0 0 0-.433-.01q-.22.001-.44.013c-.862.404-1.61 1.978-2.093 4.22"/><path d="M22.467 20.835c.483-2.242 1.231-3.816 2.094-4.22q-.706.03-1.384.152c-1.586.634-2.948 2.07-3.876 3.998q-.317.66-.564 1.388a23.6 23.6 0 0 0 3.413.543c.087-.658.192-1.282.317-1.86m.29 15.729c-1.78-.89-3.24-2.813-4.053-5.286-.735.18-1.389.392-1.936.629q-.179.077-.341.158a10.12 10.12 0 0 0 6.33 4.499m9.24-9.855.001.049c0 1.62-.253 3.152-.702 4.517.803.197 1.508.43 2.085.693l.008-.001h-.008q.099.045.193.092a10.04 10.04 0 0 0 1.535-5.35z"/><path d="M31.296 31.276c-.815 2.474-2.278 4.395-4.062 5.284l.066-.014a10.13 10.13 0 0 0 6.274-4.486l-.193-.091c-.577-.263-1.282-.496-2.085-.693M26.96 16.795l-.126-.022c1.64.657 3.041 2.167 3.968 4.196l.006-.003-.006.003q.257.565.463 1.18c.91-.221 1.694-.489 2.311-.792a10.11 10.11 0 0 0-6.617-4.562"/><path d="M31.997 26.71h3.112a10.06 10.06 0 0 0-1.533-5.353c-.617.303-1.401.57-2.311.792a14.5 14.5 0 0 1 .732 4.561m-13.26-4.557c-.907-.22-1.688-.488-2.305-.79a10.03 10.03 0 0 0-1.54 5.347h3.11c.005-1.639.27-3.184.735-4.557m-.033 9.126a14.5 14.5 0 0 1-.702-4.52v-.049h-3.11c0 1.967.562 3.803 1.535 5.356q.163-.081.34-.158a12.5 12.5 0 0 1 1.937-.63"/><path d="M19.3 20.765c.929-1.928 2.291-3.364 3.877-3.998a10.1 10.1 0 0 0-6.745 4.595c.617.303 1.398.57 2.305.79q.247-.727.564-1.387"/></g><circle cx="35.601" cy="41.462" r="1.011" fill="none" stroke="#000" stroke-linecap="round" stroke-linejoin="round"/><circle cx="42.208" cy="20.887" r="1.011" fill="none" stroke="#000" stroke-linecap="round" stroke-linejoin="round"/><circle cx="14.399" cy="41.462" r="1.011" fill="none" stroke="#000" stroke-linecap="round" stroke-linejoin="round"/><g fill="none" stroke="#000" stroke-linecap="round" stroke-linejoin="round"><path d="M28.482 8.883c.01-.115.034-.227.034-.345a3.538 3.538 0 0 0-7.076 0c0 .118.024.23.035.345m11.092 34.373A3.52 3.52 0 0 0 35.601 45a3.54 3.54 0 0 0 3.538-3.538c0-.89-.34-1.693-.882-2.315m4.74-14.817a3.534 3.534 0 0 0-.79-6.98 3.5 3.5 0 0 0-1.464.325m-29.02 21.497a3.5 3.5 0 0 0-.862 2.29A3.54 3.54 0 0 0 14.4 45c1.29 0 2.407-.697 3.025-1.727M9.224 17.657a3.5 3.5 0 0 0-1.432-.308 3.532 3.532 0 0 0-.831 6.968"/><path d="M24.978 12.076c-1.836 0-3.327-1.403-3.503-3.193-5.241 1.023-9.666 4.298-12.251 8.774a3.535 3.535 0 0 1-1.432 6.769c-.287 0-.563-.044-.83-.109a18 18 0 0 0-.18 2.417c0 4.817 1.885 9.183 4.94 12.438a3.51 3.51 0 0 1 2.677-1.248 3.54 3.54 0 0 1 3.539 3.538c0 .665-.195 1.28-.514 1.811a18.1 18.1 0 0 0 7.554 1.657c2.712 0 5.277-.61 7.589-1.674a3.5 3.5 0 0 1-.505-1.794 3.54 3.54 0 0 1 3.539-3.538c1.064 0 2.007.48 2.656 1.223 3.041-3.252 4.917-7.609 4.917-12.413 0-.817-.072-1.616-.177-2.404a3.5 3.5 0 0 1-.79.096 3.532 3.532 0 0 1-1.464-6.75c-2.583-4.487-7.013-7.769-12.261-8.793-.176 1.79-1.668 3.193-3.504 3.193"/></g></svg>