<svg xmlns="http://www.w3.org/2000/svg" viewBox="0 0 50 50"><path fill="none" stroke="#000" stroke-linecap="round" stroke-linejoin="round" d="M16.6 26.697h-4.279c-2.821 0-5.108-2.261-5.108-5.05 0-2.783 2.275-5.038 5.086-5.05v-.001c0-4.146 3.4-7.508 7.593-7.508 1.116 0 2.175.24 3.13.668 1.262-3.328 4.508-5.697 8.315-5.697 4.904 0 8.88 3.931 8.88 8.78a8.7 8.7 0 0 1-.307 2.287c1.732 1.127 2.877 3.064 2.877 5.267 0 3.244-2.473 5.946-5.66 6.297h-1.799"/><path fill="none" stroke="#000" stroke-linecap="round" stroke-linejoin="round" d="m17.267 24.461 4.504 5.648a.8.8 0 0 0 .626.302h7.224a.8.8 0 0 0 .626-.302l4.504-5.648a.8.8 0 0 0 .154-.677l-1.607-7.043a.8.8 0 0 0-.433-.543l-6.509-3.134a.8.8 0 0 0-.695 0l-6.508 3.134a.8.8 0 0 0-.433.543l-1.608 7.043a.8.8 0 0 0 .155.677"/><g fill="none" stroke="#000" stroke-width=".75"><path stroke-linecap="round" stroke-linejoin="round" d="M26.009 20.727v-4.485M25.051 21.435l-4.059-2.343M25.051 22.532l-4.059 2.343"/><circle cx="26.004" cy="21.974" r="1.081" stroke-miterlimit="10"/><circle cx="26.009" cy="21.974" r="4.619" stroke-miterlimit="10"/><path stroke-linecap="round" stroke-linejoin="round" d="M26.009 27.712v-4.503M27.085 21.338l3.889-2.246M26.925 22.537l4.049 2.338"/></g><path fill="none" stroke="#000" stroke-linecap="round" stroke-linejoin="round" d="m26.054 33.291-5.499 2.997M26.004 40.687l.036-10.276M26.056 33.291l5.406 2.946M19.767 39.24a1.12 1.12 0 0 0 .788-1.069v-3.016a1.12 1.12 0 0 0-1.119-1.119H16.42a1.12 1.12 0 0 0-1.119 1.12v3.015c0 .618.501 1.12 1.12 1.12h3.015q.174-.001.331-.05"/><path fill="none" stroke="#000" stroke-linecap="round" stroke-linejoin="round" d="M35.928 39.24a1.12 1.12 0 0 0 .788-1.069v-3.016a1.12 1.12 0 0 0-1.119-1.119h-3.016a1.12 1.12 0 0 0-1.119 1.12v3.015c0 .618.501 1.12 1.12 1.12h3.015q.174-.001.331-.05m-8.068 6.65a1.12 1.12 0 0 0 .788-1.07v-3.015a1.12 1.12 0 0 0-1.12-1.12h-3.015a1.12 1.12 0 0 0-1.12 1.12v3.016a1.12 1.12 0 0 0 1.12 1.119h3.016q.173-.001.33-.05" data-name="app"/></svg>