<svg xmlns="http://www.w3.org/2000/svg" data-name="Isolation Mode" viewBox="0 0 50 50"><g fill="none" stroke-linecap="round" stroke-linejoin="round"><circle cx="25" cy="32.5" r="12.5" stroke="#000"/><g stroke="#231f20"><path d="M25 24.11v15.927M19.977 32.73a.492.492 0 1 0 0 .984q.018-.001.035-.004a.49.49 0 0 0-.035-.98m2.474-1.694a.49.49 0 0 0 .482.398l.036-.003a.49.49 0 0 0-.036-.98.492.492 0 0 0-.482.585m-3.468-1.438q.018 0 .035-.003a.49.49 0 0 0-.035-.98.492.492 0 1 0 0 .983m4.186-3.938a.492.492 0 1 0-.492.491q.017 0 .035-.003a.49.49 0 0 0 .457-.488m-.113 9.538.035-.004a.49.49 0 0 0-.035-.98.492.492 0 0 0 0 .984m-4.059 2.512c0 .272.22.492.491.492l.036-.004a.49.49 0 0 0-.036-.98.49.49 0 0 0-.491.492m2.839 2.017c0 .271.22.491.492.491q.018 0 .035-.003a.49.49 0 0 0-.035-.98.49.49 0 0 0-.492.492"/><path d="M21.539 29.558c.12-.804-.256-1.603-.977-2.08-.765-.481-1.797-.48-2.83 0-1.382.646-.91 2.728-.907 2.75a.2.2 0 0 1-.03.154c-.011.015-1.066 1.56-.505 2.762.314.672 1.086 1.128 2.295 1.354"/><path d="M22.294 25.33c-.733-.6-1.517-1.289-2.282-.98-.668.271-1.207 1.533-.856 2.77M25 40.037V24.11"/><path d="M16.67 33.666c-.735.587-.904 1.486-.666 2.093.268.818.934 1.398 1.273 1.439.125.015.213.119.196.232l-.005.024c-.226.805.002 1.66.608 2.28.348.425.884.687 1.464.717.112-.012.216.053.245.152.349 1.039 1.51 1.663 2.676 1.44 2.447-.285 2.537-1.956 2.539-2.006m-4.375-15.742c1.42-1.326 3.007-1.584 3.76-1.252.418.213.614.691.615 1.066M19.136 29.572l.973 1.81M22.439 31.03l-2.33.352M20.109 31.382l-.087 1.337M21.561 38.129l.541 1.161"/><path d="m22.594 34.897-1.571.79.538 2.442M21.561 38.129l-1.591-.322M25 24.11v15.927M30.023 32.73a.492.492 0 1 1 0 .984q-.018-.001-.035-.004a.49.49 0 0 1-.457-.488.5.5 0 0 1 .492-.492m-2.474-1.694a.49.49 0 0 1-.482.398l-.036-.003a.49.49 0 0 1 .036-.98.492.492 0 0 1 .482.585m3.468-1.438q-.018 0-.035-.003a.49.49 0 0 1-.457-.488.5.5 0 0 1 .492-.492.491.491 0 1 1 0 .983m-4.186-3.938a.492.492 0 1 1 .492.491q-.017 0-.035-.003a.49.49 0 0 1-.457-.488m.113 9.538-.035-.004a.49.49 0 0 1 .035-.98.492.492 0 0 1 0 .984m4.059 2.512c0 .272-.22.492-.491.492l-.036-.004a.49.49 0 0 1-.456-.488c0-.26.22-.492.492-.492s.491.22.491.492m-2.839 2.017c0 .271-.22.491-.492.491q-.018 0-.035-.003a.49.49 0 0 1 .035-.98c.271 0 .492.22.492.492"/><path d="M28.461 29.558c-.12-.804.256-1.603.977-2.08.765-.481 1.797-.48 2.83 0 1.382.646.91 2.728.907 2.75a.2.2 0 0 0 .03.154c.011.015 1.066 1.56.505 2.762-.314.672-1.086 1.128-2.295 1.354"/><path d="M27.706 25.33c.733-.6 1.517-1.289 2.282-.98.668.271 1.207 1.533.856 2.77M25 40.037V24.11"/><path d="M33.33 33.666c.735.587.904 1.486.666 2.093-.268.818-.934 1.398-1.273 1.439-.125.015-.213.119-.196.232l.005.024c.226.805-.002 1.66-.608 2.28a2.03 2.03 0 0 1-1.464.717c-.112-.012-.216.053-.245.152-.349 1.039-1.51 1.663-2.676 1.44-2.447-.285-2.537-1.956-2.539-2.006m4.375-15.742c-1.42-1.326-3.007-1.584-3.76-1.252-.418.213-.614.691-.615 1.066M30.864 29.572l-.973 1.81M27.561 31.03l2.33.352M29.891 31.382l.087 1.337M28.439 38.129l-.541 1.161"/><path d="m27.406 34.897 1.571.79-.538 2.442M28.439 38.129l1.591-.322"/></g></g><g fill="none" stroke="#000"><path stroke-miterlimit="10" d="M34.023 23.986V6.82A1.84 1.84 0 0 0 32.177 5H17.869a1.84 1.84 0 0 0-1.846 1.82v17.033"/><path stroke-linecap="round" stroke-linejoin="round" d="M18.723 9.5h12.6M18.723 14h12.6M18.723 18.5h12.6"/><circle cx="20.523" cy="11.3" r=".338" stroke-miterlimit="10"/><circle cx="23.204" cy="11.3" r=".338" stroke-miterlimit="10"/><circle cx="26.793" cy="15.807" r=".338" stroke-miterlimit="10"/><circle cx="29.474" cy="15.807" r=".338" stroke-miterlimit="10"/><path stroke-miterlimit="10" d="M35.544 39.2h6.487a1.84 1.84 0 0 0 1.846-1.82V13.12a1.84 1.84 0 0 0-1.846-1.82h-8.008"/><path stroke-linecap="round" stroke-linejoin="round" d="M34.023 15.8h7.154M34.023 20.3h7.154M34.847 24.8h6.33M37.086 29.3h4.091M37.433 33.8h3.744"/><circle cx="36.719" cy="17.6" r=".338" stroke-miterlimit="10"/><circle cx="39.423" cy="17.6" r=".338" stroke-miterlimit="10"/><circle cx="36.73" cy="26.597" r=".338" stroke-miterlimit="10"/><circle cx="39.423" cy="26.597" r=".338" stroke-miterlimit="10"/><path stroke-miterlimit="10" d="M14.457 39.2H7.969a1.84 1.84 0 0 1-1.846-1.82V13.12A1.84 1.84 0 0 1 7.97 11.3h8.008"/><path stroke-linecap="round" stroke-linejoin="round" d="M15.977 15.8H8.823M15.977 20.3H8.823M15.153 24.8h-6.33M12.914 29.3H8.823M12.567 33.8H8.823"/><circle cx="13.281" cy="17.6" r=".338" stroke-miterlimit="10"/><circle cx="10.577" cy="17.6" r=".338" stroke-miterlimit="10"/><circle cx="13.27" cy="26.597" r=".338" stroke-miterlimit="10"/><circle cx="10.577" cy="26.597" r=".338" stroke-miterlimit="10"/></g></svg>