<svg xmlns="http://www.w3.org/2000/svg" viewBox="0 0 50 50"><g fill="none" stroke="#000" stroke-linecap="round" stroke-linejoin="round"><path d="M13.25 22.312 5 26.025l6 3.3M39 29.325l6-3.3-8.105-3.647M17 32.625l-6-3.3-6 2.7 6 3.3M39 35.325l6-3.3-6-2.7-6 3.3M39 35.325l-14 7.7-14-7.7"/><path d="m17 32.625 8 4.4 8-4.4"/></g><g fill="none" stroke="#000" stroke-linecap="round" stroke-linejoin="round"><g stroke-width=".75"><path d="m23.327 17.308-2.788 1.667 2.788 1.667M26.673 20.642l2.788-1.667-2.788-1.667M25.558 17.308l-1.116 3.334"/></g><circle cx="25" cy="18.975" r="6"/><path d="m31.913 9.167-1.034 3.038.12.104q.461.415.85.877l2.988-1.085"/><path d="m30.88 12.205 1.033-3.038a12 12 0 0 0-1.824-1.063l-2.047 2.433m7.849 3.392-2.414 2.117q.215.622.335 1.266l3.135.528m-3.47-1.794 2.414-2.117a12 12 0 0 0-1.054-1.828l-2.989 1.085m-5.208-3.029-.648-3.141a12 12 0 0 0-2.111.011l-.533 3.134"/><path d="m25.992 7.016.648 3.14a9 9 0 0 1 1.402.381l2.047-2.433m-2.155 19.347 2.119 2.413a12 12 0 0 0 1.827-1.056l-1.087-2.988M19.969 8.077l2.113 2.417a9 9 0 0 1 1.266-.333l.533-3.134m9.939 13.576 3.14-.652a12 12 0 0 0-.013-2.111l-3.135-.528"/><path d="m34.812 25.883-3.039-1.032-.106.124a9 9 0 0 1-.874.845l1.087 2.988m-.107-3.957 3.04 1.032a12 12 0 0 0 1.061-1.825l-2.434-2.046"/><path d="m36.96 19.951-3.14.652a9 9 0 0 1-.38 1.41l2.434 2.045m-12.497 3.739.654 3.14c.703.056 1.41.051 2.11-.016l.528-3.134m-8.601.983 1.04-3.036q-.055-.045-.108-.092a9 9 0 0 1-.86-.89l-2.99 1.079m3.958-.097-1.04 3.037q.876.62 1.823 1.065l2.051-2.429"/><path d="m24.03 30.936-.653-3.14a9 9 0 0 1-1.435-.389l-2.051 2.43m10.162.027-2.119-2.413a9 9 0 0 1-1.265.336l-.527 3.134m-9.625-9.033L14.1 24.001a12 12 0 0 0 1.051 1.83l2.99-1.08m-2.94-12.701 3.037 1.037.095-.112q.421-.464.887-.856l-1.08-2.99"/><path d="M22.082 10.494 19.97 8.077a12 12 0 0 0-1.83 1.052l1.08 2.99m-.982.968-3.037-1.038a12 12 0 0 0-1.065 1.823l2.43 2.05m-.384 1.408-3.14.647c-.06.703-.055 1.41.01 2.11l3.133.535M14.1 24l2.417-2.112a9 9 0 0 1-.332-1.266l-3.133-.534"/><path d="m13.041 17.977 3.141-.646q.134-.716.384-1.409l-2.43-2.05"/></g></svg>