<svg xmlns="http://www.w3.org/2000/svg" viewBox="0 0 50 50"><path fill="none" stroke="#000" stroke-linecap="round" stroke-linejoin="round" d="M15.568 16.35a.5.5 0 0 0 .19.189l3.882 2.241h0a.51.51 0 0 0 .517 0l3.882-2.242a.5.5 0 0 0 .258-.446v-4.483h0a.51.51 0 0 0-.258-.447L20.156 8.92v0a.5.5 0 0 0-.515 0v0l-3.883 2.242a.51.51 0 0 0-.258.447h0v4.483c0 .088.021.177.068.258"/><path fill="none" stroke="#000" stroke-linecap="round" stroke-linejoin="round" d="M24.297 13.85h4c.275 0 .676-.14.89-.312l1.72-1.376c.214-.171.615-.312.89-.312h3m-19.297 2h-4c-.275 0-.676-.14-.89-.312l-1.72-1.376A1.66 1.66 0 0 0 8 11.85H5"/><path d="M19.898 22.15c.302 0 .75.63.75 1.5v15c0 .87-.448 1.5-.75 1.5s-.75-.63-.75-1.5v-15c0-.87.448-1.5.75-1.5m0-1c-.962 0-1.75 1.125-1.75 2.5v15c0 1.375.788 2.5 1.75 2.5s1.75-1.125 1.75-2.5v-15c0-1.375-.787-2.5-1.75-2.5m23.352 1c.302 0 .75.63.75 1.5v15c0 .87-.448 1.5-.75 1.5s-.75-.63-.75-1.5v-15c0-.87.448-1.5.75-1.5m0-1c-.963 0-1.75 1.125-1.75 2.5v15c0 1.375.787 2.5 1.75 2.5S45 40.025 45 38.65v-15c0-1.375-.788-2.5-1.75-2.5"/><path fill="none" stroke="#000" stroke-linecap="round" stroke-linejoin="round" d="M15.5 16.15v15M24.297 16.15v15M21.648 31.15h6.25M15.5 31.15h2.648M37.898 31.15h3.599"/><path d="M35.898 23.164c.552 0 1 .449 1 1v11a1 1 0 0 1-1 1h-6c-.551 0-1-.448-1-1v-11c0-.551.449-1 1-1zm0-1h-6c-1.1 0-2 .9-2 2v11c0 1.1.9 2 2 2h6c1.1 0 2-.9 2-2v-11c0-1.1-.9-2-2-2"/></svg>