<svg xmlns="http://www.w3.org/2000/svg" viewBox="0 0 50 50"><path d="M31.573 41.01c-4.698 3.133-11.006 2.494-15-1.526-4.343-4.371-4.626-11.303-.854-16.012v3.686a.5.5 0 1 0 1 0v-5a.5.5 0 0 0-.147-.354l-.009-.006a.5.5 0 0 0-.153-.101.5.5 0 0 0-.155-.032c-.012 0-.023-.007-.036-.007h-4.968a.5.5 0 1 0 0 1h3.848c-4.249 5.102-3.998 12.737.766 17.531a12.9 12.9 0 0 0 9.155 3.801 12.8 12.8 0 0 0 7.108-2.147.5.5 0 0 0-.555-.832m7.178-1.674h-3.848c4.25-5.102 3.999-12.737-.765-17.531-4.327-4.355-11.168-5.052-16.263-1.654a.5.5 0 1 0 .554.832c4.699-3.133 11.007-2.492 15 1.527 4.343 4.372 4.626 11.303.854 16.012v-3.687a.5.5 0 1 0-1 0v5.002a.5.5 0 0 0 .148.353l.008.006a.5.5 0 0 0 .344.14h4.968a.5.5 0 1 0 0-1"/><path d="M45.034 6.002H4.966a.5.5 0 0 0-.5.5v30.58a.5.5 0 0 0 .5.5h5.926a.5.5 0 1 0 0-1H5.466V12.705h39.068V36.58h-5.513a.5.5 0 1 0 0 1h6.013a.5.5 0 0 0 .5-.5V6.502a.5.5 0 0 0-.5-.5m-39.568 1h39.068v4.704H5.466z"/><path d="M10.69 8.854H7.828a.5.5 0 1 0 0 1h2.862a.5.5 0 1 0 0-1m5.724 0h-2.862a.5.5 0 1 0 0 1h2.862a.5.5 0 1 0 0-1m5.724 0h-2.862a.5.5 0 1 0 0 1h2.862a.5.5 0 1 0 0-1"/><circle cx="42.172" cy="9.354" r="1"/><path d="M31.5 30.692a.5.5 0 0 0-.223-.42L20.771 23.25a.5.5 0 0 0-.77.502l2.158 12.37a.5.5 0 0 0 .762.334l3.893-2.494 2.88 4.315a.5.5 0 1 0 .831-.554l-2.869-4.3 3.614-2.315a.5.5 0 0 0 .23-.416m-8.485 4.517-1.828-10.478 8.9 5.948z"/></svg>