<svg xmlns="http://www.w3.org/2000/svg" viewBox="0 0 50 50"><path fill="none" stroke="#000" stroke-linecap="round" stroke-linejoin="round" d="M23 32H9.318C5.828 32 3 29.203 3 25.753c0-3.441 2.814-6.231 6.291-6.246q0 0 0 0c0-5.13 4.204-9.287 9.391-9.287 1.38 0 2.69.297 3.87.826C24.116 6.93 28.13 4 32.839 4 38.903 4 43.82 8.862 43.82 14.86c0 .978-.133 1.926-.378 2.828C45.584 19.082 47 21.478 47 24.202c0 4.013-3.065 7.317-7.006 7.75H29"/><g fill="none" stroke="#000" stroke-linecap="round" stroke-linejoin="round" data-name="Group 13221"><path d="M26 24v18" data-name="Line 154"/><path d="m20 36 6 6 6-6" data-name="Path 60447"/></g><path fill="none" stroke="#000" stroke-linecap="round" stroke-linejoin="round" d="M11 39.382c0 3.314 2.86 6 6.39 6h17.22c3.53 0 6.39-2.686 6.39-6"/></svg>