<svg xmlns="http://www.w3.org/2000/svg" data-name="Isolation Mode" viewBox="0 0 50 50"><g fill="none" stroke="#231f20" stroke-linecap="round" stroke-linejoin="round"><path d="m42.062 12.261-1.907 5.669-5.675-1.887"/><path d="M31.156 9.731a16.8 16.8 0 0 1 9.008 8.194"/></g><g fill="none" stroke="#231f20" stroke-linecap="round" stroke-linejoin="round"><path d="M9.37 25.79c.51-.376.857-1.11.857-1.953 0-1.225-.73-1.688-1.632-1.688s-1.632.463-1.632 1.688c0 .844.347 1.578.857 1.952M5.135 29.53l.572-2.56a1.02 1.02 0 0 1 .44-.58s.689-.433 1.673-.6c.23.169.494.28.775.28.28 0 .545-.111.775-.28"/><path d="m12.054 29.53-.572-2.56a1.02 1.02 0 0 0-.44-.58s-.689-.433-1.673-.6"/><circle cx="8.595" cy="26.128" r="6.343"/></g><g fill="none" stroke="#231f20" stroke-linecap="round" stroke-linejoin="round"><path d="M42.181 25.79c.51-.376.857-1.11.857-1.953 0-1.225-.73-1.688-1.632-1.688s-1.632.463-1.632 1.688c0 .844.347 1.578.857 1.952m-2.685 3.741.572-2.56a1.02 1.02 0 0 1 .44-.58s.689-.433 1.673-.6c.23.169.494.28.775.28.28 0 .545-.111.775-.28"/><path d="m44.865 29.53-.572-2.56a1.02 1.02 0 0 0-.44-.58s-.689-.433-1.673-.6"/><circle cx="41.405" cy="26.128" r="6.343"/></g><g fill="none" stroke="#231f20" stroke-linecap="round" stroke-linejoin="round"><path d="M25.61 40.818c.51-.375.856-1.108.856-1.952 0-1.225-.73-1.688-1.632-1.688s-1.632.463-1.632 1.688c0 .844.347 1.577.857 1.952m-2.685 3.74.572-2.56a1.02 1.02 0 0 1 .44-.58s.689-.432 1.673-.6c.23.17.495.28.775.28s.545-.11.775-.28"/><path d="m28.293 44.558-.572-2.56a1.02 1.02 0 0 0-.44-.58s-.689-.432-1.673-.6"/><circle cx="24.834" cy="41.157" r="6.343"/></g><g fill="none" stroke="#231f20" stroke-linecap="round" stroke-linejoin="round"><path d="M24.058 8.505c-.51-.375-.857-1.109-.857-1.952 0-1.225.73-1.689 1.632-1.689s1.632.464 1.632 1.689c0 .843-.347 1.577-.857 1.952"/><path d="m28.293 12.245-.572-2.56a1.02 1.02 0 0 0-.44-.58s-.689-.433-1.673-.6c-.23.17-.494.28-.775.28-.28 0-.545-.11-.775-.28"/><path d="m21.374 12.245.572-2.56a1.02 1.02 0 0 1 .44-.58s.689-.433 1.673-.6"/><circle cx="24.834" cy="8.843" r="6.343"/></g><g fill="none" stroke="#231f20" stroke-linecap="round" stroke-linejoin="round"><path d="m10.778 9.247 5.772 1.565-1.544 5.778"/><path d="M9.065 19.802a16.8 16.8 0 0 1 7.48-8.998"/></g><g fill="none" stroke="#231f20" stroke-linecap="round" stroke-linejoin="round"><path d="m38.956 41.986-5.745-1.662 1.642-5.751"/><path d="M40.45 32.397a16.77 16.77 0 0 1-7.244 7.919"/></g><g fill="none" stroke="#231f20" stroke-linecap="round" stroke-linejoin="round"><path d="m8.837 39.83 1.526-5.782 5.789 1.505"/><path d="M18.506 41.117a16.77 16.77 0 0 1-8.134-7.074"/></g></svg>