<svg xmlns="http://www.w3.org/2000/svg" data-name="Isolation Mode" viewBox="0 0 50 50"><g fill="none" stroke="#000" stroke-linecap="round" stroke-linejoin="round"><path d="M33 40.5v3.964c0 .57-.45 1.036-1 1.036H18c-.55 0-1-.466-1-1.036V17.536c0-.57.45-1.036 1-1.036h14c.55 0 1 .466 1 1.036v3.641"/><rect width="16" height="21" x="17" y="20.5" rx=".977" ry=".977"/><path d="M29.677 28.177c0 2.909-4.677 9.355-4.677 9.355s-4.677-6.446-4.677-9.355S22.417 23.5 25 23.5s4.677 1.769 4.677 4.677"/><circle cx="25.006" cy="28" r="2.5"/><path d="M23 43.5h4"/></g><path fill="none" stroke="#000" stroke-linecap="round" stroke-linejoin="round" d="M15 32.5H9.318C5.828 32.5 3 29.703 3 26.253c0-3.441 2.814-6.231 6.291-6.246q0 0 0 0c0-5.13 4.205-9.287 9.391-9.287 1.38 0 2.69.297 3.87.826C24.116 7.43 28.13 4.5 32.839 4.5c6.065 0 10.982 4.862 10.982 10.86 0 .978-.133 1.926-.378 2.828C45.584 19.582 47 21.978 47 24.702c0 4.307-3.53 7.798-7.886 7.798H35"/></svg>