<svg xmlns="http://www.w3.org/2000/svg" data-name="Isolation Mode" viewBox="0 0 50 50"><path fill="none" stroke="#000" stroke-linecap="round" stroke-linejoin="round" d="M7 23.025v4M41 39.025h3.025a1 1 0 0 0 1-1v-26a1 1 0 0 0-1-1H5.975a1 1 0 0 0-1 1v26a1 1 0 0 0 1 1z"/><path d="M43 24.025a1 1 0 1 0 0 2 1 1 0 0 0 0-2"/><rect width="32" height="24" x="9" y="13.025" fill="none" stroke="#000" stroke-linecap="round" stroke-linejoin="round" rx="1" ry="1"/><path fill="none" stroke="#000" stroke-linecap="round" stroke-linejoin="round" d="M16.5 17.525h5.1c1.878 0 3.4 1.492 3.4 3.333v11.667c0-1.38-1.142-2.5-2.55-2.5H16.5zm17 0h-5.1c-1.878 0-3.4 1.492-3.4 3.333v11.667c0-1.38 1.142-2.5 2.55-2.5h5.95z"/></svg>