<svg xmlns="http://www.w3.org/2000/svg" viewBox="0 0 50 50"><g fill="none" stroke="#000" stroke-linecap="round" stroke-linejoin="round"><rect width="40" height="3" x="5" y="42.094" rx=".23" ry=".23"/><path d="M43 21.094H7M7 40.094h36M7 19.094h36l-18-14zM10 23.094v15M16 23.094v15M22 23.094v15M28 23.094v15M34 23.094v15M40 23.094v15"/></g><g fill="none" stroke="#000" stroke-linecap="round" stroke-linejoin="round"><path d="M22 11.617h3.922M22 13.159h3.922M26.815 14.645c-.455.67-1.003.999-1.681.999-1.335 0-2.402-1.319-2.402-3.25s1.067-3.25 2.402-3.25c.678 0 1.248.348 1.674.989"/></g></svg>