<svg xmlns="http://www.w3.org/2000/svg" viewBox="0 0 50 50"><path fill="none" stroke="#000" stroke-miterlimit="10" d="M43.667 17.29c-.667 0-1.334.593-1.334 1.354v12.777c0 .762.667 1.354 1.334 1.354.75 0 1.333-.592 1.333-1.354V18.644c0-.761-.583-1.354-1.333-1.354Zm-37.334 0c-.75 0-1.333.593-1.333 1.354v12.777c0 .762.583 1.354 1.333 1.354s1.334-.592 1.334-1.354V18.644c0-.761-.584-1.354-1.334-1.354Zm30.685 18.564c-.252.257-.505.343-.842.343s-.757-.172-1.01-.515l-3.451-4.208-3.452 4.208a1.3 1.3 0 0 1-1.01.515c-.421 0-.842-.172-1.095-.515l-3.451-4.208-3.368 4.208c-.505.687-1.6.687-2.104 0l-4.462-5.496c-.505-.602-.42-1.46.168-1.89.59-.515 1.432-.43 1.852.172l3.452 4.208 3.452-4.208c.505-.687 1.6-.687 2.104 0l3.452 4.208 3.451-4.208c.505-.601 1.516-.687 2.02 0l4.547 5.496c.42.601.336 1.46-.253 1.89ZM18.666 15.328c2.694 0 4.967 2.233 4.967 5.067s-2.273 5.067-4.967 5.067c-2.778 0-5.051-2.233-5.051-5.067s2.273-5.067 5.05-5.067Zm12.712 0c2.694 0 4.967 2.233 4.967 5.067s-2.273 5.067-4.967 5.067c-2.778 0-4.967-2.233-4.967-5.067s2.189-5.067 4.967-5.067Z"/><path fill="none" stroke="#000" stroke-miterlimit="10" d="M37.89 40H11.984c-1.185 0-2.155-.994-2.155-2.208l.1-25.584c0-1.214.97-2.208 2.156-2.208h25.906c1.185 0 2.155.994 2.155 2.208l-.1 25.584c0 1.214-.97 2.208-2.156 2.208Z"/></svg>