<svg xmlns="http://www.w3.org/2000/svg" viewBox="0 0 50 50"><g fill="none" stroke="#231f20" stroke-linecap="round" stroke-linejoin="round"><path d="m46.478 38.822-7.07.11-.134-7.071M3.522 11.194l7.07-.109.134 7.07"/><path d="M36.889 41.123c-7.704 5.686-18.63 5.134-25.769-1.765-7.957-7.69-8.197-20.351-.536-28.281m2.511-2.2c7.704-5.686 18.629-5.134 25.768 1.765 7.957 7.69 8.197 20.351.536 28.281"/></g><path fill="none" stroke="#231f20" stroke-linecap="round" stroke-linejoin="round" d="M25.086 14.435v19.934"/><path fill="#231f20" d="M18.8 24.855a.984.984 0 1 0 0 1.969q.035-.001.07-.006a.983.983 0 0 0-.07-1.963m-1.244-5.15a.984.984 0 1 0 0 1.969c.024 0 .046-.006.07-.008a.98.98 0 0 0-.07-1.96m4.622-4.316a.984.984 0 0 0 0 1.97c.024 0 .048-.006.072-.008a.982.982 0 0 0-.072-1.962m.475 11.323a.984.984 0 1 0 0 1.968c.024 0 .046-.006.07-.008a.98.98 0 0 0-.07-1.96m-4.464 3.758a.985.985 0 1 0 0 1.97c.024 0 .046-.005.07-.007a.98.98 0 0 0 .913-.977.984.984 0 0 0-.983-.986m3.554 2.524a.984.984 0 1 0 0 1.97q.035-.002.07-.007a.98.98 0 0 0 .913-.978.984.984 0 0 0-.983-.985"/><path fill="none" stroke="#231f20" stroke-linecap="round" stroke-linejoin="round" d="M20.754 21.254c.15-1.006-.319-2.006-1.221-2.603-.958-.602-2.25-.602-3.543 0-1.73.808-1.14 3.414-1.136 3.44a.24.24 0 0 1-.037.193c-.014.02-1.334 1.953-.632 3.458.394.841 1.36 1.412 2.872 1.695"/><path fill="none" stroke="#231f20" stroke-linecap="round" stroke-linejoin="round" d="M21.7 15.963c-.918-.75-1.9-1.613-2.857-1.227-.836.34-1.51 1.918-1.071 3.466M25.086 34.369V14.435"/><path fill="none" stroke="#231f20" stroke-linecap="round" stroke-linejoin="round" d="M14.661 26.395c-.92.735-1.13 1.86-.834 2.62.336 1.024 1.169 1.75 1.594 1.8.155.018.265.149.245.291q0 .015-.006.03c-.283 1.008.001 2.078.761 2.854.436.53 1.106.858 1.832.896a.29.29 0 0 1 .307.191c.436 1.3 1.889 2.082 3.348 1.803 3.062-.357 3.176-2.448 3.177-2.511m-5.474-19.702c1.776-1.66 3.764-1.982 4.706-1.568.523.268.767.866.768 1.336M17.747 21.271l1.218 2.266M21.881 23.096l-2.916.441M18.965 23.536l-.109 1.674M20.782 31.981l.678 1.453"/><path fill="none" stroke="#231f20" stroke-linecap="round" stroke-linejoin="round" d="m22.074 27.936-1.966.987.673 3.058M20.782 31.981l-1.99-.404M25.086 14.435v19.934"/><path fill="#231f20" d="M31.372 24.855a.983.983 0 0 0-.07 1.962q.035.006.07.007a.984.984 0 1 0 0-1.969m1.245-5.15a.98.98 0 0 0-.07 1.96c.024.003.046.009.07.009a.985.985 0 1 0 0-1.969M27.666 22a.98.98 0 0 0-.07 1.96c.024.003.046.01.07.01a.985.985 0 1 0 0-1.97m.328-6.61a.982.982 0 0 0-.072 1.962c.024.002.048.008.072.008a.984.984 0 0 0 0-1.97m-5.509 6.596a.982.982 0 0 0-.072 1.962c.024.002.048.008.072.008.543 0 .983-.44.983-.985s-.44-.985-.983-.985m5.035 4.727a.98.98 0 0 0-.07 1.96c.023.002.045.008.07.008a.984.984 0 1 0 0-1.968m4.463 3.758a.984.984 0 0 0-.983.986.98.98 0 0 0 .913.977c.024.002.046.008.07.008a.985.985 0 1 0 0-1.97m-3.553 2.523a.984.984 0 0 0-.984.985.98.98 0 0 0 .913.978c.024.002.046.008.07.008a.985.985 0 1 0 0-1.97"/><path fill="none" stroke="#231f20" stroke-linecap="round" stroke-linejoin="round" d="M29.418 21.254c-.15-1.006.32-2.006 1.222-2.603.957-.602 2.249-.602 3.543 0 1.73.808 1.139 3.414 1.135 3.44a.24.24 0 0 0 .037.193c.014.02 1.334 1.953.632 3.458-.394.841-1.36 1.412-2.872 1.695"/><path fill="none" stroke="#231f20" stroke-linecap="round" stroke-linejoin="round" d="M28.473 15.963c.917-.75 1.898-1.613 2.856-1.227.836.34 1.51 1.918 1.071 3.466M25.086 34.369V14.435"/><path fill="none" stroke="#231f20" stroke-linecap="round" stroke-linejoin="round" d="M35.51 26.395c.92.735 1.132 1.86.836 2.62-.337 1.024-1.17 1.75-1.595 1.8-.155.018-.265.149-.245.291l.006.03c.283 1.008-.001 2.078-.76 2.854-.436.53-1.107.858-1.833.896a.29.29 0 0 0-.307.191c-.435 1.3-1.888 2.082-3.348 1.803-3.062-.357-3.176-2.448-3.177-2.511m5.474-19.702c-1.776-1.66-3.763-1.982-4.706-1.568-.523.268-.767.866-.768 1.336M32.425 21.271l-1.218 2.266M28.291 23.096l2.916.441M31.207 23.536l.109 1.674M29.391 31.981l-.679 1.453"/><path fill="none" stroke="#231f20" stroke-linecap="round" stroke-linejoin="round" d="m28.098 27.936 1.966.987-.673 3.058M29.391 31.981l1.989-.404"/></svg>