<svg xmlns="http://www.w3.org/2000/svg" data-name="Layer 1" viewBox="0 0 50 50"><path fill="none" stroke="#000" stroke-linecap="round" stroke-linejoin="round" d="M34.26 29.848c0-1.705-.308-3.345-.79-4.818h.033-16.972a15.5 15.5 0 0 0-.79 4.818C15.74 36.56 19.886 42 25 42"/><path fill="none" stroke="#000" stroke-linecap="round" stroke-linejoin="round" d="M25 42c5.114 0 9.26-5.44 9.26-12.152M32.797 22.2c0-4.352-3.49-7.881-7.797-7.881s-7.797 3.529-7.797 7.882z"/><path fill="none" stroke="#000" stroke-linecap="round" stroke-linejoin="round" d="M21.66 14.91c-1.95-5.788-7.9-6.892-7.963-6.904M36.303 8c-.062.01-6.005 1.093-7.961 6.907M39.023 32.502l1.567 8.841M34.281 30.385l4.742 2.117M38.998 26.836l-4.696 1.304M41 20.357l-2.002 6.479M11.009 26.842 9 20.366M15.704 28.144l-4.695-1.302M10.983 32.51l4.743-2.122M9.423 41.351l1.56-8.841M25 28.144V42"/></svg>