<svg xmlns="http://www.w3.org/2000/svg" viewBox="0 0 50 50"><rect width="40" height="40" x="5" y="5" fill="none" stroke="#000" stroke-linecap="round" stroke-linejoin="round" rx="8.52" ry="8.52"/><path d="M19.406 27.026q-.065-.123-.102-.307a3 3 0 0 1-.056-.384q-.164.165-.366.31c-.202.146-.283.184-.445.258s-.335.133-.519.176-.379.065-.586.065q-.504 0-.911-.147c-.407-.147-.502-.23-.692-.395s-.335-.364-.439-.592-.155-.476-.155-.741q0-.522.208-.915c.208-.393.335-.479.589-.653s.56-.304.917-.39.756-.128 1.198-.128h1.183v-.498q0-.288-.105-.516c-.105-.228-.17-.282-.299-.39s-.286-.19-.472-.249-.393-.088-.624-.088q-.322 0-.577.082c-.255.082-.313.127-.43.217s-.208.197-.273.32-.096.25-.096.383h-1.09q.006-.345.178-.68c.172-.334.282-.422.498-.6s.48-.321.791-.43.664-.165 1.058-.165q.54 0 1.002.132c.462.132.575.22.8.399s.401.399.53.665.193.576.193.931v2.948q0 .316.059.67c.059.354.094.443.164.619v.093zM17.49 26.2q.316 0 .592-.082c.276-.082.35-.127.501-.217s.28-.192.39-.307.195-.236.257-.36V23.95h-1.007q-.95 0-1.477.281c-.527.281-.527.483-.527.885q0 .234.079.434c.079.2.132.247.237.343s.238.17.399.225.345.082.556.082m10.266-2.273q0 .68-.164 1.268c-.164.588-.27.734-.48 1.023s-.472.515-.782.68-.665.246-1.064.246q-.58 0-1.022-.188c-.442-.188-.548-.305-.76-.539v3.047h-1.083v-8.777h.99l.053.69q.316-.39.764-.6c.448-.21.646-.208 1.04-.208q.61 0 1.079.24c.469.24.574.383.785.669s.37.626.48 1.022.164.831.164 1.304zm-1.084-.123q0-.464-.102-.882c-.102-.418-.174-.526-.317-.738s-.323-.382-.542-.507-.48-.188-.785-.188q-.521 0-.876.243c-.355.243-.425.37-.565.624v3.053q.21.375.562.612c.352.237.532.238.891.238q.45 0 .78-.19c.33-.19.398-.298.538-.513s.245-.463.314-.744.102-.577.102-.885zm8.275.123q0 .68-.164 1.268c-.164.588-.27.734-.48 1.023s-.472.515-.783.68-.665.246-1.063.246q-.58 0-1.023-.188c-.443-.188-.548-.305-.759-.539v3.047h-1.084v-8.777h.99l.053.69q.316-.39.765-.6c.449-.21.645-.208 1.04-.208q.61 0 1.078.24c.468.24.574.383.785.669s.371.626.48 1.022.165.831.165 1.304zm-1.084-.123q0-.464-.103-.882c-.103-.418-.174-.526-.316-.738s-.323-.382-.542-.507-.48-.188-.785-.188q-.522 0-.876.243c-.354.243-.425.37-.566.624v3.053q.21.375.563.612c.353.237.531.238.89.238q.452 0 .78-.19c.328-.19.398-.298.539-.513s.245-.463.313-.744.103-.577.103-.885z"/></svg>