<svg xmlns="http://www.w3.org/2000/svg" viewBox="0 0 50 50"><path fill="none" stroke="#000" stroke-linecap="round" stroke-linejoin="round" d="M24.934 29.54V45M18.537 38.627 24.934 45l6.397-6.373M22.963 35.867C15.365 34.87 9.5 28.37 9.5 20.5 9.5 11.94 16.44 5 25 5s15.5 6.94 15.5 15.5c0 7.889-5.894 14.401-13.518 15.374"/><g fill="none" stroke="#000" stroke-linecap="round" stroke-linejoin="round"><path d="M20.16 19.182h6.651M20.16 21.797h6.651M28.325 24.318c-.77 1.134-1.7 1.693-2.85 1.693-2.263 0-4.074-2.236-4.074-5.511s1.81-5.511 4.074-5.511c1.15 0 2.116.59 2.838 1.677"/></g></svg>