<svg xmlns="http://www.w3.org/2000/svg" viewBox="0 0 50 50"><path fill="none" stroke="#222" stroke-linecap="round" stroke-linejoin="round" stroke-width="1.017" d="M8 13.102H5V40h20"/><path fill="none" stroke="#222" stroke-linecap="round" stroke-linejoin="round" stroke-width="1.017" d="M25 39.982V14.374C25 11.74 22.924 10 20.364 10H8v25.847M12 15.172h9M12 20.345h9M12 25.517h9M12 30.69h9M29 15.172h9M29 20.345h9M29 25.517h9M29 30.69h9"/><path fill="none" stroke="#222" stroke-linecap="round" stroke-linejoin="round" stroke-width="1.017" d="M25 39.982c0-2.635-2.076-4.135-4.636-4.135H8M25 40h20V13.102h-3"/><path fill="none" stroke="#222" stroke-linecap="round" stroke-linejoin="round" stroke-width="1.017" d="M42 35.847V10H29.636C27.076 10 25 11.739 25 14.374v25.608"/><path fill="none" stroke="#222" stroke-linecap="round" stroke-linejoin="round" stroke-width="1.017" d="M42 35.847H29.636c-2.56 0-4.636 1.5-4.636 4.135"/></svg>