<svg xmlns="http://www.w3.org/2000/svg" data-name="Layer 1" viewBox="0 0 50 50"><path fill="none" stroke="#000" stroke-linecap="round" stroke-linejoin="round" d="M30.222 16H17.778c-.982 0-1.778.768-1.778 1.714v14.572c0 .946.796 1.714 1.778 1.714h12.444c.982 0 1.778-.768 1.778-1.714V17.714c0-.946-.796-1.714-1.778-1.714"/><path d="M24 27.923A.54.54 0 1 1 23.999 29 .54.54 0 0 1 24 27.923m0-1A1.539 1.539 0 1 0 24 30a1.539 1.539 0 0 0 0-3.077"/><path fill="none" stroke="#000" stroke-linecap="round" stroke-linejoin="round" d="M26.718 25.742a3.846 3.846 0 0 0-5.44 0m7.074-1.632a6.154 6.154 0 0 0-8.704 0"/><path fill="none" stroke="#000" stroke-linecap="round" stroke-linejoin="round" d="M29.77 22.272a8.46 8.46 0 0 0-11.54 0"/><path fill="none" stroke="#000" stroke-linecap="round" stroke-linejoin="round" d="M32.556 13H15.444C14.094 13 13 14.023 13 15.286v19.428C13 35.977 14.094 37 15.444 37h17.112C33.906 37 35 35.977 35 34.714V15.286C35 14.023 33.906 13 32.556 13M16 37h16l-.733 1.469a7 7 0 0 0-.59 1.728l-.595 2.954A2.29 2.29 0 0 1 27.84 45h-7.68a2.29 2.29 0 0 1-2.242-1.844l-.595-2.954a7 7 0 0 0-.59-1.728zm16-24H16l.733-1.469c.272-.547.47-1.128.59-1.728l.595-2.954A2.29 2.29 0 0 1 20.16 5h7.68c1.09 0 2.029.771 2.242 1.844l.595 2.954c.12.6.318 1.181.59 1.728zM36 23h-1v-4h1c.552 0 1 .358 1 .8v2.4c0 .442-.448.8-1 .8"/></svg>