<svg xmlns="http://www.w3.org/2000/svg" viewBox="0 0 50 50"><path fill="none" stroke="#000" stroke-linecap="round" stroke-linejoin="round" d="M28.444 9.056c.011-.113.035-.224.035-.34a3.5 3.5 0 0 0-7 0c0 .116.023.227.034.34M32.486 43.06a3.49 3.49 0 0 0 3 1.725 3.5 3.5 0 0 0 3.5-3.5 3.47 3.47 0 0 0-.872-2.29m4.689-14.658a3.496 3.496 0 0 0-.78-6.905c-.519 0-1.007.12-1.45.322M11.866 39.02a3.47 3.47 0 0 0-.852 2.265 3.5 3.5 0 0 0 3.5 3.5c1.275 0 2.38-.69 2.992-1.709m-8.112-25.34a3.5 3.5 0 0 0-1.416-.304 3.494 3.494 0 0 0-.822 6.893"/><path fill="none" stroke="#000" stroke-linecap="round" stroke-linejoin="round" d="m16.512 38.412 2.603-3.608m14.373 3.608-2.618-3.629m-5.891-22.568a3.49 3.49 0 0 1-3.466-3.159c-5.185 1.012-9.562 4.252-12.12 8.68a3.497 3.497 0 0 1-1.415 6.696c-.285 0-.558-.044-.822-.108a18 18 0 0 0-.177 2.391c0 4.765 1.864 9.085 4.887 12.305a3.48 3.48 0 0 1 2.648-1.235 3.5 3.5 0 0 1 3.5 3.5 3.47 3.47 0 0 1-.508 1.791 17.9 17.9 0 0 0 7.473 1.64c2.682 0 5.22-.604 7.507-1.656a3.47 3.47 0 0 1-.5-1.775 3.5 3.5 0 0 1 3.5-3.5c1.053 0 1.986.474 2.628 1.21 3.009-3.217 4.865-7.527 4.865-12.28 0-.808-.072-1.598-.176-2.378a3.5 3.5 0 0 1-.78.095 3.494 3.494 0 0 1-1.448-6.678c-2.557-4.438-6.94-7.684-12.13-8.698-.175 1.77-1.65 3.16-3.466 3.16v4.5m-13.69 5.346 4.168 1.6m19.05.014 4.203-1.614z"/><path fill="none" stroke="#000" stroke-linecap="round" stroke-linejoin="round" d="m15.457 23.662.035.014za10 10 0 0 0-.478 3.053c0 3.33 1.634 6.272 4.136 8.09l.016-.022-.016.021a9.94 9.94 0 0 0 11.755-.02v-.001h0c2.486-1.819 4.109-4.75 4.109-8.068 0-5.522-4.478-10-10-10-4.458 0-8.23 2.918-9.522 6.947m13.755-1.035c2.219 2.218 2.184 5.85-.077 8.113v.005l2.029-.02-2.03.02.001-.005-.002.003.002-.003.02-2.024-.02 2.024c2.26-2.263 2.296-5.895.077-8.113-1.663-1.664-4.122-2.06-6.203-1.2 2.08-.86 4.54-.464 6.203 1.2m-8.116.08-.002.002h.005l-.02 2.029.02-2.029h-.005c-2.26 2.264-2.296 5.895-.077 8.114 1.642 1.642 4.059 2.05 6.122 1.233-2.063.816-4.48.409-6.122-1.233-2.219-2.219-2.184-5.85.077-8.114l-2.024.02 2.024-.02z"/></svg>