<svg xmlns="http://www.w3.org/2000/svg" data-name="Layer 1" viewBox="0 0 50 50"><path fill="none" stroke="#000" stroke-linecap="round" stroke-linejoin="round" d="m35.526 31.017-6.936-4.258M21.456 39.129l-6.935-4.258M39 21v8M25 13v8M14.48 15.028l7.017-4.097M28.59 23.235l7.026-4.102M14.441 30.959l7.018-4.097"/><circle cx="25" cy="9" r="4" fill="none" stroke="#000" stroke-linecap="round" stroke-linejoin="round"/><path fill="none" stroke="#000" stroke-linecap="round" stroke-linejoin="round" d="M29 25a4.001 4.001 0 1 1-8-.002A4.001 4.001 0 0 1 29 25"/><circle cx="25" cy="41" r="4" fill="none" stroke="#000" stroke-linecap="round" stroke-linejoin="round"/><path fill="none" stroke="#000" stroke-linecap="round" stroke-linejoin="round" d="M43 17a4.001 4.001 0 1 1-8-.002A4.001 4.001 0 0 1 43 17m0 16a4.001 4.001 0 1 1-8-.002A4.001 4.001 0 0 1 43 33M15 17a4.001 4.001 0 1 1-8-.002A4.001 4.001 0 0 1 15 17m0 16a4.001 4.001 0 1 1-8-.002A4.001 4.001 0 0 1 15 33"/></svg>