<svg xmlns="http://www.w3.org/2000/svg" viewBox="0 0 50 50"><g fill="none" stroke="#000" stroke-miterlimit="10"><path d="M44.875 22.887v.539M44.875 28.832v.538"/><ellipse cx="33.875" cy="16.595" rx="10.996" ry="5.595"/><path d="M22.88 22.198c0 3.09 4.922 5.595 10.995 5.595s10.996-2.505 10.996-5.595M22.88 27.802c0 3.09 4.922 5.594 10.995 5.594s10.996-2.504 10.996-5.594"/><path d="m44.875 16.586-.004 16.82c0 3.09-4.923 5.594-10.996 5.594s-10.996-2.505-10.996-5.595l-.004-16.464"/></g><path fill="none" stroke="#000" stroke-linecap="round" stroke-linejoin="round" d="M33.875 16V7h-17M22.875 19h-13M22.875 31h-13M33.875 39v4h-17"/><circle cx="14.5" cy="7" r="2.375" fill="none" stroke="#000" stroke-linecap="round" stroke-linejoin="round"/><circle cx="7.5" cy="19" r="2.375" fill="none" stroke="#000" stroke-linecap="round" stroke-linejoin="round"/><circle cx="7.5" cy="31" r="2.375" fill="none" stroke="#000" stroke-linecap="round" stroke-linejoin="round"/><circle cx="14.5" cy="43" r="2.375" fill="none" stroke="#000" stroke-linecap="round" stroke-linejoin="round"/></svg>