<svg xmlns="http://www.w3.org/2000/svg" data-name="Isolation Mode" viewBox="0 0 50 50"><g fill="none" stroke="#000" stroke-linecap="round" stroke-linejoin="round"><path d="m28.68 37.957-2.574 2.575"/><circle cx="35.116" cy="31.521" r="9.102"/><circle cx="35.117" cy="31.521" r="6.675"/><rect width="9.709" height="2.427" x="17.819" y="42.751" rx="1.214" ry="1.214" transform="rotate(-45 22.673 43.965)"/></g><g fill="none" stroke="#000" stroke-linecap="round" stroke-linejoin="round"><path d="M25.536 19.018c2.36-1.727 3.964-5.106 3.964-8.993 0-5.644-3.38-7.778-7.55-7.778-4.168 0-7.548 2.134-7.548 7.778 0 3.887 1.604 7.267 3.965 8.994"/><path d="m5.948 36.247 2.648-11.79a4.7 4.7 0 0 1 2.035-2.674s3.184-1.993 7.734-2.765c1.067.781 2.288 1.292 3.586 1.292 1.297 0 2.518-.51 3.585-1.292"/><path d="M29.978 20.232a24 24 0 0 0-4.447-1.214"/></g></svg>