<svg xmlns="http://www.w3.org/2000/svg" viewBox="0 0 50 50"><circle cx="27.132" cy="29.936" r="2.786" fill="none" stroke="#000" stroke-linecap="round" stroke-linejoin="round"/><path fill="none" stroke="#000" stroke-linecap="round" stroke-linejoin="round" d="M24.346 29.936h-6.08a6.773 6.773 0 0 0-6.772 6.772v0a6.773 6.773 0 0 0 6.773 6.773h18.4M20.782 16.39h15.214a6.773 6.773 0 0 1 6.773 6.773v0a6.773 6.773 0 0 1-6.773 6.773h-6.078"/><circle cx="39.452" cy="43.481" r="2.786" fill="none" stroke="#000" stroke-linecap="round" stroke-linejoin="round"/><g fill="none" stroke="#000" stroke-linecap="round" stroke-linejoin="round"><path d="M12.674 21.748h5.392M18.066 19.052v4.045c0 .744-.604 1.348-1.348 1.348h-2.696a1.35 1.35 0 0 1-1.348-1.348v-4.045M15.37 3.733v1.404M5.541 13.562h1.404M7.647 6.541l1.03.992M25.199 13.562h-1.404M23.093 6.541l-1.03.992M12.674 13.21c.744 0 1.348.604 1.348 1.349v4.493m2.696 0V14.56c0-.745.603-1.348 1.348-1.348"/><path d="M12.674 19.052h5.392c2.045-1.013 3.4-3.11 3.37-5.392a6.174 6.174 0 0 0-6.066-6.066 6.174 6.174 0 0 0-6.067 6.066c-.03 2.282 1.325 4.38 3.37 5.392"/></g></svg>