<svg xmlns="http://www.w3.org/2000/svg" viewBox="0 0 50 50"><path fill="none" stroke="#000" stroke-linecap="round" stroke-linejoin="round" d="M34.937 15.224V5.99a1 1 0 0 0-.998-.997H15.935a1 1 0 0 0-.998.997v9.234M14.961 19.725v10.441M34.937 30.154V19.737M14.937 34.667v9.328c0 .551.447.998.998.998h18.004a1 1 0 0 0 .998-.998v-9.328"/><g fill="none" stroke="#000" stroke-linecap="round" stroke-linejoin="round"><path d="M45.026 32.495H5.12M7.763 35.379 4.88 32.495l2.883-2.884"/></g><g fill="none" stroke="#000" stroke-linecap="round" stroke-linejoin="round"><path d="M4.88 17.485h39.906M42.142 20.369l2.884-2.884-2.884-2.884"/></g></svg>