<svg xmlns="http://www.w3.org/2000/svg" data-name="Isolation Mode" viewBox="0 0 50 50"><ellipse cx="31.245" cy="12.593" fill="none" stroke="#000" stroke-linecap="round" stroke-linejoin="round" rx="14.994" ry="7.593"/><path fill="none" stroke="#000" stroke-linecap="round" stroke-linejoin="round" d="M27.75 27.581c1.12.136 2.295.21 3.495.21 8.281 0 14.994-3.4 14.994-7.593m-17.79 15.063q1.359.133 2.796.134c8.281 0 14.994-3.4 14.994-7.593M16.251 20.002l-.006-6.939"/><path fill="none" stroke="#000" stroke-linecap="round" stroke-linejoin="round" d="m46.245 12.58-.006 22.827c0 4.194-6.713 7.593-14.994 7.593-2.54 0-4.918-.315-7.01-.878"/><circle cx="16.255" cy="32.5" r="12.5" fill="none" stroke="#000" stroke-linecap="round" stroke-linejoin="round"/><path fill="none" stroke="#000" stroke-linecap="round" stroke-linejoin="round" d="M20.293 27.334c0-2.219-1.79-4.011-4.007-4.011s-4.006 1.792-4.006 4.011v2.674M10.952 30.474h10.669V39.8H10.952z"/></svg>