<svg xmlns="http://www.w3.org/2000/svg" viewBox="0 0 50 50"><g fill="none" stroke="#231f20" stroke-linecap="round" stroke-linejoin="round"><path d="M25.182 7.572v33.224M14.705 25.554a1.026 1.026 0 1 0 0 2.052c.026 0 .05-.006.074-.008a1.023 1.023 0 0 0-.074-2.044m5.161-3.534c.09.473.506.83 1.006.83.025 0 .048-.005.073-.006a1.023 1.023 0 0 0-.073-2.044 1.026 1.026 0 0 0-1.006 1.22m-7.235-2.999q.038-.002.074-.007c.531-.038.952-.477.952-1.018s-.46-1.026-1.026-1.026a1.026 1.026 0 0 0 0 2.051m8.731-8.216a1.026 1.026 0 1 0-1.026 1.026c.026 0 .05-.006.074-.007.532-.039.952-.477.952-1.019m-.235 19.896c.025 0 .049-.006.074-.007a1.022 1.022 0 0 0-.074-2.044 1.026 1.026 0 0 0 0 2.051m-8.467 5.241c0 .566.46 1.025 1.026 1.025.025 0 .048-.005.073-.007.532-.039.952-.477.952-1.018s-.459-1.026-1.025-1.026-1.026.46-1.026 1.026m5.924 4.206c0 .567.459 1.026 1.025 1.026.025 0 .049-.006.074-.008.531-.038.952-.477.952-1.018s-.46-1.026-1.026-1.026-1.025.46-1.025 1.026"/><path d="M17.963 18.938c.249-1.678-.533-3.344-2.037-4.338-1.596-1.005-3.749-1.004-5.906 0-2.881 1.345-1.897 5.69-1.89 5.733a.4.4 0 0 1-.062.322c-.024.032-2.224 3.253-1.054 5.762.656 1.403 2.266 2.353 4.787 2.824"/><path d="M19.538 10.119c-1.53-1.25-3.165-2.69-4.76-2.045-1.394.565-2.518 3.197-1.787 5.776M25.182 40.796V7.572"/><path d="M7.808 27.506c-1.533 1.225-1.886 3.099-1.391 4.366.56 1.705 1.949 2.916 2.656 3 .26.032.443.249.41.485l-.011.051c-.472 1.68.003 3.462 1.268 4.756.726.885 1.844 1.431 3.054 1.494.233-.024.45.111.51.317.727 2.167 3.149 3.47 5.582 3.005 5.104-.595 5.293-4.08 5.296-4.184M16.057 7.96c2.961-2.768 6.272-3.305 7.843-2.613.872.445 1.28 1.442 1.282 2.225M12.95 18.966l2.03 3.775M19.841 22.008l-4.861.733M19.841 22.008zM14.98 22.741l-.181 2.789M18.008 36.816l1.13 2.421"/><path d="m20.163 30.074-3.277 1.646 1.122 5.096M18.008 36.816l-3.317-.673"/></g><path fill="none" stroke="#231f20" stroke-linecap="round" stroke-linejoin="round" d="M34.244 40.603V34H25.72M25.403 28h9.061M26.042 20.105h13M34.41 9.684v4h-9.007"/><circle cx="34.417" cy="43" r="2.375" fill="none" stroke="#231f20" stroke-linecap="round" stroke-linejoin="round"/><circle cx="36.839" cy="28" r="2.375" fill="none" stroke="#231f20" stroke-linecap="round" stroke-linejoin="round"/><circle cx="41.417" cy="20.105" r="2.375" fill="none" stroke="#231f20" stroke-linecap="round" stroke-linejoin="round"/><circle cx="34.417" cy="7" r="2.375" fill="none" stroke="#231f20" stroke-linecap="round" stroke-linejoin="round"/></svg>