<svg xmlns="http://www.w3.org/2000/svg" viewBox="0 0 50 50"><g fill="none" stroke="#000" stroke-linecap="round" stroke-linejoin="round"><path d="m46.478 38.822-7.07.11-.134-7.071M3.522 11.194l7.07-.109.134 7.07"/><path d="M36.889 41.123c-7.704 5.686-18.63 5.134-25.769-1.765-7.957-7.69-8.197-20.351-.536-28.281m2.511-2.2c7.704-5.686 18.629-5.134 25.768 1.765 7.957 7.69 8.197 20.351.536 28.281"/></g><path d="M25.001 24.533q.12 0 .226.06a.464.464 0 0 1 .18.634.47.47 0 0 1-.634.18.464.464 0 0 1-.18-.634.47.47 0 0 1 .408-.24m0-1A1.466 1.466 0 1 0 25 26.465a1.466 1.466 0 0 0 0-2.932"/><path fill="none" stroke="#000" stroke-linecap="round" stroke-linejoin="round" d="M29.785 16.663 25 25"/><circle cx="25" cy="25" r="11" fill="none" stroke="#000" stroke-linecap="round" stroke-linejoin="round"/><path fill="none" stroke="#000" stroke-linecap="round" stroke-linejoin="round" d="M32.784 22.45c.263.802.405 1.66.405 2.55m-2.08-5.454q.587.657 1.025 1.43M16.81 25a8.19 8.19 0 0 1 13.084-6.566"/></svg>