<svg xmlns="http://www.w3.org/2000/svg" data-name="Isolation Mode" viewBox="0 0 50 50"><path fill="none" stroke="#000" stroke-linecap="round" stroke-linejoin="round" d="M22 37.975h6"/><g fill="none" stroke="#000" stroke-linecap="round" stroke-linejoin="round"><path d="M19.31 27.743c1.519-1.1 2.551-3.249 2.551-5.722 0-3.59-2.176-4.947-4.86-4.947-2.683 0-4.859 1.357-4.859 4.947 0 2.473 1.033 4.624 2.552 5.722"/><path d="m8 32.982.404-1.78a3 3 0 0 1 1.31-1.7s2.05-1.268 4.98-1.76c.686.498 1.472.823 2.308.823s1.621-.325 2.308-.822"/><path d="m26 32.983-.404-1.78a3 3 0 0 0-1.31-1.701s-2.05-1.268-4.98-1.76"/></g><path fill="none" stroke="#000" stroke-linecap="round" stroke-linejoin="round" d="M25 14.003H5v22M45 36.003v-22h-4"/><path fill="none" stroke="#000" stroke-linecap="round" stroke-linejoin="round" d="M45 40.003s1-.549 1-2c0-1.45-1-2-1-2H5s-1 .55-1 2 1 2 1 2zM40.407 9.997H25.593a.603.603 0 0 0-.593.609v9.535c0 .335.267.609.593.609h3.036l-.029 3.722s.021.286.184.41a.48.48 0 0 0 .616.004c.229-.172.531-.551.8-.827.709-.728 1.983-2.068 3.18-3.309h7.027a.603.603 0 0 0 .593-.609v-9.535a.603.603 0 0 0-.593-.61"/></svg>