<svg xmlns="http://www.w3.org/2000/svg" data-name="Isolation Mode" viewBox="0 0 50 50"><path fill="none" stroke="#000" stroke-linecap="round" stroke-linejoin="round" d="M7 19.561v4M35.32 35.561h8.705a1 1 0 0 0 1-1v-26a1 1 0 0 0-1-1H5.975a1 1 0 0 0-1 1v26a1 1 0 0 0 1 1h8.648"/><path d="M43 20.561a1 1 0 1 0 0 2 1 1 0 0 0 0-2"/><path fill="none" stroke="#000" stroke-linecap="round" stroke-linejoin="round" d="M15.228 33.561H10a1 1 0 0 1-1-1v-22a1 1 0 0 1 1-1h30a1 1 0 0 1 1 1v22a1 1 0 0 1-1 1h-5.23M31.982 33.564l1.797 7.387-4.375-3.3-2.653 4.788-1.82-8.217M17.88 33.564l-1.909 7.392 4.478-3.306 2.653 4.789 1.829-8.217"/><path fill="none" stroke="#000" stroke-linecap="round" stroke-linejoin="round" d="m24.93 34.222-2.607 1.354-1.688-2.18-2.755.168-.653-2.676-2.586-.965.495-2.71-1.969-1.93 1.557-2.274-1.012-2.563L16.062 19l.12-2.751 2.737-.368 1.232-2.465 2.65.775 2.13-1.752 2.13 1.752 2.65-.775 1.232 2.465 2.736.368.12 2.751 2.35 1.446-1.012 2.563 1.557 2.274-1.969 1.93.495 2.71-2.586.965-.652 2.676-2.756-.168-1.687 2.18z"/><path fill="none" stroke="#000" stroke-linecap="round" stroke-linejoin="round" d="M28.651 20.61h.001l-4.762 7.21-2.563-3.404"/><ellipse cx="24.99" cy="24.215" fill="none" stroke="#000" stroke-miterlimit="10" rx="6.994" ry="7"/></svg>