<svg xmlns="http://www.w3.org/2000/svg" viewBox="0 0 50 50"><g fill="none" stroke="#000" stroke-linecap="round" stroke-linejoin="round"><path d="M32 13v13M36 13v13M40 13v13"/></g><g fill="none" stroke="#000" stroke-linecap="round" stroke-linejoin="round"><path d="M10 13v13M14 13v13M18 13v13"/></g><g fill="none" stroke="#000" stroke-linecap="round" stroke-linejoin="round"><path d="M15 30H4V10h20v11M26 21V10h20v20H35"/></g><g fill="none" stroke="#000" stroke-linecap="round" stroke-linejoin="round"><path d="m20.05 27.737 2.828 2.828 1.415-1.414 4.95 4.95-1.415 1.414 2.829 2.828 4.95-4.95L25 22.786z"/><path d="M29.242 39.757 25 35.515l1.414-1.414-2.121-2.122-1.415 1.414-4.242-4.242-4.243 4.242L25 44z"/></g></svg>