<svg xmlns="http://www.w3.org/2000/svg" data-name="Isolation Mode" viewBox="0 0 50 50"><g fill="none" stroke="#000" stroke-linecap="round" stroke-linejoin="round"><path d="M23.588 19.266c2.36-1.728 3.963-5.107 3.963-8.994 0-5.644-3.38-7.777-7.548-7.777-4.17 0-7.55 2.133-7.55 7.777 0 3.887 1.605 7.267 3.966 8.994M4 36.495l2.648-11.791a4.7 4.7 0 0 1 2.035-2.673s3.184-1.994 7.734-2.765c1.067.78 2.288 1.291 3.586 1.291 1.297 0 2.518-.51 3.585-1.291"/><path d="M28.03 20.48a24 24 0 0 0-4.447-1.214"/></g><g fill="none" stroke="#000" stroke-linecap="round" stroke-linejoin="round"><ellipse cx="33.5" cy="28.689" rx="1.635" ry="1.64"/><ellipse cx="33.5" cy="35.249" rx="1.635" ry="1.64"/><path d="M33.5 30.329v3.28"/><ellipse cx="39.603" cy="32.936" rx="1.635" ry="1.64"/><path d="m38.073 33.515-3.059 1.157"/><ellipse cx="27.397" cy="32.937" rx="1.635" ry="1.64"/><path d="m31.97 34.669-3.059-1.156"/><ellipse cx="37.393" cy="40.49" rx="1.635" ry="1.64"/><path d="m36.414 39.177-1.945-2.611"/><ellipse cx="29.61" cy="40.491" rx="1.635" ry="1.64"/><path d="m32.522 36.562-1.943 2.612"/><ellipse cx="33.5" cy="35" rx="12.5" ry="12.505"/></g></svg>