<svg xmlns="http://www.w3.org/2000/svg" viewBox="0 0 50 50"><g fill="none" stroke="#000"><g stroke-linecap="round" stroke-linejoin="round"><path d="M26.322 3.07A15 15 0 0 0 25.075 3a14.64 14.64 0 0 0-8.733 2.833m1.477 9.095a1.84 1.84 0 1 0 3.457 1.254 1.84 1.84 0 0 0-3.457-1.254m7.899 7.136a1.84 1.84 0 1 0 3.584-.838 1.84 1.84 0 0 0-3.584.838m-5.368.746q-.249.001-.478.065a1.84 1.84 0 1 0 .478-.065"/><path d="M27.509 23.485a1.84 1.84 0 0 1-1.791-1.421 17 17 0 0 0-3.815 1.6 1.84 1.84 0 0 1-.883 2.699 20.3 20.3 0 0 0 4.063 6.085 14.64 14.64 0 0 0 6.347-1.486 19.5 19.5 0 0 0-2.87-7.807c-.298.207-.66.33-1.051.33M16.342 5.833a14.72 14.72 0 0 0-5.598 8.255q.618-.041 1.247-.042c2.03 0 3.986.31 5.828.882a1.84 1.84 0 0 1 2.068-1.18"/><path d="M29.339 21.447q.01.097.01.197c0 .626-.312 1.178-.79 1.51a19.5 19.5 0 0 1 2.87 7.808 14.77 14.77 0 0 0 7.13-7.48 17.1 17.1 0 0 0-8.159-2.073c-.357 0-.71.016-1.061.038m-10.417 4.365a1.84 1.84 0 0 1 .95-2.937 20.2 20.2 0 0 1-.518-4.534q.001-.48.027-.953a1.84 1.84 0 0 1-1.562-2.46 19.6 19.6 0 0 0-7.075-.84 14.7 14.7 0 0 0-.471 3.565c-.024 4.733 2.197 8.946 5.654 11.657a17.2 17.2 0 0 1 2.995-3.498"/><path d="M20.35 26.491c-.576 0-1.09-.265-1.428-.68a17.2 17.2 0 0 0-2.995 3.5 14.65 14.65 0 0 0 8.998 3.144c.054 0 .105-.007.158-.007a20.3 20.3 0 0 1-4.063-6.084 1.8 1.8 0 0 1-.67.127m-.463-12.744a1.84 1.84 0 0 1 1.323 2.597 19.7 19.7 0 0 1 5.095 3.91 1.84 1.84 0 0 1 3.034 1.193 17 17 0 0 1 1.061-.038c2.956 0 5.73.758 8.159 2.072a14.7 14.7 0 0 0 1.168-5.679c.04-7.712-5.86-14.06-13.405-14.733"/><path d="M19.548 17.396q-.085 0-.167-.008-.025.474-.027.953c0 1.56.182 3.076.518 4.534q.23-.064.478-.065c.654 0 1.227.341 1.553.855a17 17 0 0 1 3.815-1.601 1.84 1.84 0 0 1 .587-1.81 19.7 19.7 0 0 0-5.095-3.91 1.84 1.84 0 0 1-1.662 1.052"/></g><path stroke-miterlimit="10" d="M36.176 8.147s-5.265.953-7.059 4.814c-1.087 2.34-1.462 4.765-1.581 6.456"/><path stroke-linecap="round" stroke-linejoin="round" d="M20.32 38.397h-7.945M20.32 31.705v6.692M29.68 38.397h7.945M29.68 31.705v6.692M25.017 32.476V47"/></g><path fill="none" stroke="#000" stroke-linecap="round" stroke-linejoin="round" d="m35.347 35.807 2.277 2.59-2.277 2.584M14.651 40.98l-2.276-2.589 2.276-2.584M27.604 44.724 25.014 47l-2.584-2.276"/></svg>