<svg xmlns="http://www.w3.org/2000/svg" viewBox="0 0 50 50"><path fill="none" stroke="#000" stroke-linecap="round" stroke-linejoin="round" d="M8.451 36.942C5.372 36.524 3 33.912 3 30.753c0-3.441 2.814-6.231 6.291-6.246q0 0 0 0c0-5.13 4.205-9.287 9.391-9.287 1.38 0 2.69.297 3.87.826C24.116 11.93 28.13 9 32.839 9c6.065 0 10.982 4.862 10.982 10.86 0 .978-.133 1.926-.378 2.828C45.584 24.082 47 26.478 47 29.202 47 33.51 43.47 37 39.114 37h-3.992"/><path fill="none" stroke="#000" stroke-linecap="round" stroke-linejoin="round" d="M32.285 27.2a6.53 6.53 0 0 1 .72 5.11 4.72 4.72 0 0 1 2.16 3.956c0 2.614-2.143 4.734-4.787 4.734h-18.09c-2.12 0-3.837-1.698-3.837-3.793 0-2.09 1.71-3.783 3.82-3.792q0 0 0 0c0-3.114 2.553-5.638 5.702-5.638.838 0 1.633.18 2.35.501A6.67 6.67 0 0 1 26.567 24a6.7 6.7 0 0 1 3.09.75"/><g fill="none" stroke="#000" stroke-linecap="round" stroke-linejoin="round"><path d="m24 33 12-12M36 29.455V21h-8.455"/></g></svg>