<svg xmlns="http://www.w3.org/2000/svg" data-name="Isolation Mode" viewBox="0 0 50 50"><g fill="none" stroke="#000" stroke-linecap="round" stroke-linejoin="round"><path d="M39.935 24.704q-.661.032-1.316.056l-.002-.005-3.146-2.395c-1.038-.792-2.29-.81-3.34-.05l-3.387 2.45q-.656-.023-1.316-.056c-2.486-.122-4.425-.821-4.425 2.556s.46 8.854.46 8.854-.276 4.107 4.518 7.575c4.123 2.984 5.684 4.064 5.684 4.064h0s1.593-1.08 5.717-4.064c4.793-3.468 4.517-7.575 4.517-7.575s.46-5.477.46-8.854-1.938-2.678-4.424-2.556"/><path d="M37.084 30.738h.001l-4.426 6.695-2.382-3.162"/><circle cx="33.681" cy="34.085" r="6.5"/></g><g fill="none" stroke="#000" stroke-linecap="round" stroke-linejoin="round"><path d="M25.228 19.018c2.36-1.727 3.964-5.106 3.964-8.993 0-5.644-3.38-7.778-7.55-7.778-4.168 0-7.548 2.134-7.548 7.778 0 3.887 1.604 7.267 3.965 8.994"/><path d="m5.64 36.247 2.648-11.79a4.7 4.7 0 0 1 2.035-2.674s3.184-1.993 7.735-2.765c1.066.781 2.287 1.292 3.585 1.292s2.518-.51 3.585-1.292"/><path d="M29.67 20.232a24 24 0 0 0-4.447-1.214"/></g></svg>