<svg xmlns="http://www.w3.org/2000/svg" viewBox="0 0 50 50"><path fill="none" stroke="#000" stroke-linecap="round" stroke-linejoin="round" d="M43.518 6.866H6.482C5.667 6.866 5 7.528 5 8.338v23.056c0 .81.667 1.472 1.482 1.472h7.59l-.072 9s.053.69.46.992c.245.182.845.514 1.54.008.572-.417 1.328-1.333 2-2 1.771-1.76 4.958-5 7.95-8h17.568c.815 0 1.482-.663 1.482-1.472V8.338c0-.81-.667-1.472-1.482-1.472"/><g fill="none" stroke="#000" stroke-linecap="round" stroke-linejoin="round"><path d="M21.625 16.5 16 19.862l5.625 3.363M28.375 23.225 34 19.862 28.375 16.5M26.125 16.5l-2.25 6.725"/></g></svg>