<svg xmlns="http://www.w3.org/2000/svg" viewBox="0 0 50 50"><circle cx="17.333" cy="23.926" r="5" fill="none" stroke="#000" stroke-linecap="round" stroke-linejoin="round"/><circle cx="32.514" cy="23.926" r="5" fill="none" stroke="#000" stroke-linecap="round" stroke-linejoin="round"/><path fill="none" stroke="#000" stroke-linecap="round" stroke-linejoin="round" d="M21.798 44.106v-6.393M28.195 37.713v6.393M25.98 34.002c.815 0 1.476-.74 1.476-1.654 0-.81-1.783-3.327-2.518-3.327s-2.482 2.53-2.482 3.327c0 .914.66 1.654 1.474 1.654z"/><path fill="none" stroke="#000" stroke-linecap="round" stroke-linejoin="round" d="M17 42.638c0 .89 3.58 1.612 7.996 1.612s7.997-.722 7.997-1.612v-6.523s11.67.016 9.805-14.431c-1.087-8.422-6.952-12.703-11.656-14.689a15.75 15.75 0 0 0-12.272-.002C14.162 8.978 8.289 13.26 7.202 21.684 5.338 36.131 17 36.115 17 36.115z"/></svg>