<svg xmlns="http://www.w3.org/2000/svg" viewBox="0 0 50 50"><g fill="none" stroke="#000" stroke-linecap="round" stroke-linejoin="round"><path d="M26.947 23.285c1.281-.927 2.151-2.74 2.151-4.824 0-3.027-1.834-4.172-4.097-4.172-2.262 0-4.097 1.145-4.097 4.172 0 2.085.871 3.898 2.152 4.824m-6.74 9.24 1.437-6.324a2.53 2.53 0 0 1 1.105-1.433s1.728-1.07 4.198-1.483c.578.418 1.241.692 1.945.692.705 0 1.367-.274 1.946-.692"/><path d="m33.684 32.525-1.437-6.324a2.53 2.53 0 0 0-1.105-1.433s-1.728-1.07-4.198-1.483"/></g><path fill="none" stroke="#000" stroke-linecap="round" stroke-linejoin="round" d="M40.07 14.522a18.37 18.37 0 0 0-9.585-7.034m9.221 28.504a18.26 18.26 0 0 0 3.658-10.99l-.003-.11M19.138 42.365a18.32 18.32 0 0 0 11.784 0M6.694 24.891v.11a18.26 18.26 0 0 0 3.658 10.993"/><circle cx="14.02" cy="39.645" r="2.5" fill="none" stroke="#000" stroke-linecap="round" stroke-linejoin="round"/><g fill="none" stroke="#000" stroke-linecap="round" stroke-linejoin="round"><path d="M19.57 7.49a18.37 18.37 0 0 0-9.585 7.034"/><path d="M18.703 9.654 20.002 7.4l-2.254-1.299" data-name="Path 60447"/></g><path fill="none" stroke="#000" stroke-linecap="round" stroke-linejoin="round" d="m39.184 33.705.268 2.587 2.587-.269M21.2 41.062l-2.288 1.24 1.24 2.286M8.471 26.49l-1.755-1.92-1.92 1.756m32.905-12.184 2.512.674.675-2.512" data-name="Path 60447"/><path fill="none" stroke="#000" stroke-linecap="round" stroke-linejoin="round" d="m42.364 16.843-2.723 4.717h5.447z"/><rect width="4.682" height="4.682" x="22.659" y="4.437" fill="none" stroke="#000" stroke-miterlimit="10" rx=".792" ry=".792"/><path fill="none" stroke="#000" stroke-miterlimit="10" d="M8.642 16.74H5.799L4.378 19.2l1.421 2.462h2.843l1.42-2.462z"/><path fill="none" stroke="#000" stroke-linecap="round" stroke-linejoin="round" d="m38.453 39.775-2.855 2.855-2.855-2.855 2.855-2.855z"/></svg>