<svg xmlns="http://www.w3.org/2000/svg" viewBox="0 0 50 50"><circle cx="10.263" cy="10.263" r="5.263" fill="none" stroke="#000" stroke-linecap="round" stroke-miterlimit="10"/><path fill="none" stroke="#000" stroke-linecap="round" stroke-miterlimit="10" d="m7.805 10.447 1.78 1.781 3.137-3.988"/><g fill="none" stroke="#000" stroke-linecap="round" stroke-miterlimit="10"><circle cx="39.737" cy="10.263" r="5.263"/><path d="m37.278 10.447 1.781 1.781 3.136-3.988"/></g><g fill="none" stroke="#000" stroke-linecap="round" stroke-miterlimit="10"><circle cx="10.263" cy="39.737" r="5.263"/><path d="m7.805 39.92 1.78 1.782 3.137-3.988"/></g><g fill="none" stroke="#000" stroke-linecap="round" stroke-miterlimit="10"><circle cx="39.737" cy="39.737" r="5.263"/><path d="m37.278 39.92 1.781 1.782 3.136-3.988"/></g><g fill="none" stroke="#000" stroke-linecap="round" stroke-miterlimit="10"><circle cx="25" cy="25" r="7.368"/><path d="m21.558 25.258 2.493 2.493 4.391-5.583"/></g><g fill="none" stroke="#000" stroke-linecap="round" stroke-miterlimit="10"><path d="M15.526 10.263h0"/><path stroke-dasharray="0 2.105263" d="M17.632 10.263h15.789"/><path d="M34.474 10.263h0"/></g><g fill="none" stroke="#000" stroke-linecap="round" stroke-miterlimit="10"><path d="M15.526 39.684h0"/><path stroke-dasharray="0 2.105263" d="M17.632 39.684h15.789"/><path d="M34.474 39.684h0"/></g><g fill="none" stroke="#000" stroke-linecap="round" stroke-miterlimit="10"><path d="M10.29 34.447h0"/><path stroke-dasharray="0 2.105263" d="M10.29 32.342v-15.79"/><path d="M10.29 15.5h0"/></g><g fill="none" stroke="#000" stroke-linecap="round" stroke-miterlimit="10"><path d="M39.71 34.447h0"/><path stroke-dasharray="0 2.105263" d="M39.71 32.342v-15.79"/><path d="M39.71 15.5h0"/></g></svg>