<svg xmlns="http://www.w3.org/2000/svg" viewBox="0 0 50 50"><path fill="none" stroke="#000" stroke-linecap="round" stroke-linejoin="round" d="m21 34 4 4 4-4M7 41l4 4 4-4M43 41l-4 4-4-4"/><g fill="none" stroke="#000" stroke-linecap="round" stroke-linejoin="round"><path d="M27.589 15.833c-.043-.769-.116-2.297-2.645-2.307-1.991-.021-2.508 1.116-2.486 1.907.01.822.126 1.59 2.507 2.002 2.529.432 2.898 1.243 2.834 2.276-.052.853-.558 1.948-2.813 1.948-2.297-.01-2.792-1.6-2.792-2.676M24.976 12.757v10.114"/></g><path fill="none" stroke="#000" stroke-linecap="round" stroke-linejoin="round" d="M25 25.246V38M23.292 30.994C16.919 30.154 12 24.68 12 18.053 12 10.844 17.82 5 25 5s13 5.844 13 13.053C38 24.696 33.057 30.18 26.662 31m-11.142-.58-2.26 1.122c-1.291.737-2.26 1.89-2.26 3.365V45m23.48-14.58 2.26 1.122c1.291.737 2.26 1.89 2.26 3.365V45"/></svg>