<svg xmlns="http://www.w3.org/2000/svg" viewBox="0 0 50 50"><path fill="none" stroke="#000" stroke-linecap="round" stroke-linejoin="round" stroke-width=".964" d="M15 22.014c0-5.523 4.533-10 9.984-10S35 16.49 35 22.014"/><path fill="none" stroke="#000" stroke-linecap="round" stroke-linejoin="round" stroke-width="1.006" d="M23.5 12.018c0-.829.68-1.501 1.498-1.501s1.502.672 1.502 1.501M13 22.014h24"/><path fill="none" stroke="#000" stroke-linecap="round" stroke-linejoin="round" stroke-width=".9" d="M11 35.594v5M15.667 35.594v5M20.333 35.594v5M25 35.594v5M29.667 35.594v5M34.333 35.594v5M15.667 26.594v5M20.333 26.594v5M25 26.594v5M29.667 26.594v5M34.333 26.594v5M39 35.594v5"/><path fill="none" stroke="#000" stroke-linecap="round" stroke-linejoin="round" stroke-width=".976" d="M43 42.594v-9H7v9"/><path fill="none" stroke="#000" stroke-linecap="round" stroke-linejoin="round" stroke-width=".861" d="M39 33.594v-9H11v9"/><path fill="none" stroke="#000" stroke-linecap="round" stroke-linejoin="round" d="m25 10.517.002-5.923h4.443v2.961h-4.443"/><rect width="40" height="3" x="5" y="42.594" fill="none" stroke="#000" stroke-linecap="round" stroke-linejoin="round" rx=".23" ry=".23"/></svg>