<svg xmlns="http://www.w3.org/2000/svg" data-name="Layer 1" viewBox="0 0 50 50"><g fill="none" stroke="#000"><path stroke-linecap="round" stroke-linejoin="round" d="M40.291 14.907a18.37 18.37 0 0 0-9.586-7.033m9.221 28.503a18.26 18.26 0 0 0 3.659-10.989l-.003-.11M19.358 42.75a18.32 18.32 0 0 0 11.784 0M6.914 25.277v.11a18.26 18.26 0 0 0 3.658 10.993"/><circle cx="14.374" cy="40.381" r="2.5" stroke-linecap="round" stroke-linejoin="round"/><path stroke-linecap="round" stroke-linejoin="round" d="M19.79 7.876a18.37 18.37 0 0 0-9.585 7.033"/><path stroke-linecap="round" stroke-linejoin="round" d="m18.923 10.04 1.299-2.254-2.253-1.3m21.327 27.51.268 2.587 2.587-.269m-20.738 5.16-2.287 1.24L20.366 45M8.743 26.892l-1.755-1.919-1.92 1.756m32.748-12.202 2.512.675.674-2.512" data-name="Path 60447"/><path stroke-linecap="round" stroke-linejoin="round" d="m42.458 17.622-2.723 4.717h5.447z"/><rect width="4.682" height="4.682" x="22.825" y="5" stroke-miterlimit="10" rx=".792" ry=".792"/><path stroke-miterlimit="10" d="M9.082 17.346H6.24l-1.422 2.461L6.24 22.27h2.842l1.421-2.462z"/><path stroke-linecap="round" stroke-linejoin="round" d="m38.893 40.38-2.856 2.855-2.855-2.856 2.855-2.855z"/></g><g fill="none" stroke="#000"><circle cx="25" cy="25.347" r="11" stroke-miterlimit="10"/><g stroke-linecap="round" stroke-linejoin="round"><path d="M20.995 23.466h8.01v7.001h-8.01zM28 23.466v-2c0-1.659-1.34-2.999-3-2.999s-3 1.34-3 3v1.999"/></g></g></svg>