<svg xmlns="http://www.w3.org/2000/svg" viewBox="0 0 50 50"><g fill="none" stroke="#000" stroke-linecap="round" stroke-linejoin="round" data-name="Group 12260"><path d="M39 31.543h-9.02a3.5 3.5 0 0 1-2.997-2.013l-3.996-9.06c-.656-1.15-1.684-2.013-2.997-2.013H11"/><path d="m24.056 27.106-1.069 2.424c-.656 1.15-1.684 2.013-2.997 2.013H11m28-13.086h-9.02a3.5 3.5 0 0 0-2.997 2.013l-1.092 2.443"/><path d="M36.003 15.437 39 18.457l-2.997 3.02m0 7.046L39 31.543l-2.997 3.02m-22.006 0L11 31.543l2.997-3.02m0-13.086L11 18.457l2.997 3.02"/></g><circle cx="25" cy="25" r="20" fill="none" stroke="#000" stroke-linecap="round" stroke-linejoin="round"/></svg>