<svg xmlns="http://www.w3.org/2000/svg" viewBox="0 0 50 50"><g fill="none" stroke="#000" stroke-linecap="round" stroke-linejoin="round"><path d="M10 5v40h30V16L29 5z"/><path d="M29 5v11h11"/></g><path fill="none" stroke="#000" stroke-linecap="round" stroke-linejoin="round" d="M15 25h20M15 29h20M15 33h10"/><g fill="none" stroke="#000" stroke-linecap="round" stroke-linejoin="round"><path d="M20.173 15.707c.442-.326.743-.962.743-1.693 0-1.062-.634-1.464-1.416-1.464s-1.415.402-1.415 1.464c0 .731.301 1.368.744 1.693M16.5 18.95l.497-2.22a.88.88 0 0 1 .381-.503s.597-.375 1.45-.52c.2.146.43.243.672.243.244 0 .473-.097.673-.243"/><path d="m22.5 18.95-.497-2.22a.88.88 0 0 0-.381-.503s-.597-.375-1.45-.52"/><circle cx="19.5" cy="16" r="5.5"/></g></svg>