<svg xmlns="http://www.w3.org/2000/svg" data-name="&amp;lt;Layer&amp;gt;" viewBox="0 0 50 50"><path fill="none" stroke="#000" stroke-linecap="round" stroke-linejoin="round" d="M34.89 35h3.61a6.39 6.39 0 0 0 6.39-6.39V11.39A6.39 6.39 0 0 0 38.5 5H21.28a6.39 6.39 0 0 0-6.39 6.39V15"/><path fill="none" stroke="#000" stroke-linecap="round" stroke-miterlimit="10" d="M34.222 18.543c.428.857.668 1.824.668 2.848v17.218A6.39 6.39 0 0 1 28.5 45H11.28a6.39 6.39 0 0 1-6.39-6.39V21.39A6.39 6.39 0 0 1 11.28 15H28.5c1.043 0 2.028.25 2.898.694"/><g fill="none" stroke="#000" stroke-linecap="round" stroke-linejoin="round" data-name="Group 13221"><path d="M26.625 23.374 39.47 10.529" data-name="Line 154"/><path d="M39.47 19.093v-8.564h-8.563" data-name="Path 60447"/></g><g fill="none" stroke="#000"><path stroke-linecap="round" stroke-linejoin="round" d="M27.577 29.221v2.796M24.782 29.221v2.796M21.987 29.221v2.796"/><circle cx="12.203" cy="30.619" r="1.398" stroke-miterlimit="10"/><path stroke-miterlimit="10" d="M8.807 27.125h22.146c.45 0 .817.366.817.817v5.375c0 .44-.357.796-.796.796H8.807a.796.796 0 0 1-.797-.796v-5.396c0-.44.357-.796.797-.796Z"/></g></svg>