<svg xmlns="http://www.w3.org/2000/svg" viewBox="0 0 50 50"><g fill="none" stroke="#000" stroke-linecap="round" stroke-linejoin="round"><path d="M27.62 39.74h14.19V14.37l-9.62-9.63H15.56V24.7"/><path d="M32.19 4.74v9.63h9.62"/><g stroke-width="1.06"><path d="m25.73 19.43-4.92 2.94 4.92 2.94M31.64 25.31l4.92-2.94-4.92-2.94M29.67 19.43l-1.97 5.88"/></g></g><g fill="none" stroke="#000"><circle cx="13.49" cy="35.26" r="2.25" stroke-miterlimit="10"/><circle cx="20.59" cy="35.26" r="2.25" stroke-miterlimit="10"/><path stroke-linecap="round" stroke-linejoin="round" d="M15.58 44.69V41.7M18.57 41.7v2.99M17.54 39.97c.38 0 .69-.35.69-.77 0-.38-.83-1.56-1.18-1.56s-1.16 1.18-1.16 1.56c0 .43.31.77.69.77z"/><path stroke-linecap="round" stroke-linejoin="round" d="M13.34 44.01c0 .42 1.67.75 3.74.75s3.74-.34 3.74-.75v-3.05s5.46 0 4.58-6.75c-.51-3.94-3.25-5.94-5.45-6.87-1.84-.78-3.9-.78-5.74 0-2.2.93-4.95 2.93-5.46 6.87-.87 6.75 4.58 6.75 4.58 6.75v3.05Z"/></g></svg>