<svg xmlns="http://www.w3.org/2000/svg" viewBox="0 0 50 50"><g fill="none" stroke="#000" stroke-linecap="round" stroke-linejoin="round"><circle cx="17.04" cy="40.88" r="1.03" stroke-width=".75"/><path d="M14.45 28.68 7.78 40.23c-1.15 2 .29 4.49 2.59 4.49h13.34c2.31 0 3.75-2.5 2.59-4.49l-6.67-11.55c-1.15-2-4.04-2-5.19 0Z"/><path stroke-width=".75" d="m17.04 38.82 1.25-6.42a.497.497 0 0 0-.49-.59h-1.53a.5.5 0 0 0-.49.59l1.25 6.42Z"/></g><g fill="none" stroke="#000" stroke-linecap="round" stroke-linejoin="round"><path d="M29.34 40.41h11.39V15.03L31.1 5.41H14.48v19.22"/><path d="M31.1 5.41v9.62h9.63"/><g stroke-width="1.06"><path d="m24.65 20.09-4.92 2.95 4.92 2.94M30.56 25.98l4.92-2.94-4.92-2.95M28.59 20.09l-1.97 5.89"/></g></g></svg>