<svg xmlns="http://www.w3.org/2000/svg" viewBox="0 0 50 50"><text font-family="NeusaNextPro-WideRegular,&quot;Neusa Next Pro&quot;" font-size="7" transform="translate(4.1 -7.43)"><tspan x="0" y="0">Data </tspan><tspan x="18.45" y="0" letter-spacing="-.04em">F</tspan><tspan x="22.62" y="0">abric</tspan></text><g fill="#231f20"><path d="M23.21 9.56a.47.47 0 0 1-.33-.14l-3.67-3.66-3.67 3.66c-.18.18-.48.18-.66 0s-.18-.48 0-.66l4-3.99a.47.47 0 0 1 .66 0l4 3.99a.47.47 0 0 1-.33.8"/><path d="M19.21 16.15a.47.47 0 0 1-.47-.47V5.1a.47.47 0 1 1 .94 0v10.59c0 .26-.21.47-.47.47Zm0 11.29a.47.47 0 0 1-.47-.47v-3.82a.47.47 0 1 1 .94 0v3.82c0 .26-.21.47-.47.47m0 18.13a.47.47 0 0 1-.47-.47V33.69a.47.47 0 1 1 .94 0V45.1c0 .26-.21.47-.47.47"/><path d="M23.21 9.56a.47.47 0 0 1-.33-.14l-3.67-3.66-3.67 3.66c-.18.18-.48.18-.66 0s-.18-.48 0-.66l4-3.99a.47.47 0 0 1 .66 0l4 3.99a.47.47 0 0 1-.33.8m-4 36.01a.47.47 0 0 1-.33-.14l-4-3.99c-.18-.18-.18-.48 0-.66s.48-.18.66 0l3.67 3.66 3.67-3.66c.18-.18.48-.18.66 0s.18.48 0 .66l-4 3.99a.47.47 0 0 1-.33.14"/><path d="M19.21 45.57a.47.47 0 0 1-.33-.14l-4-3.99c-.18-.18-.18-.48 0-.66s.48-.18.66 0l3.67 3.66 3.67-3.66c.18-.18.48-.18.66 0s.18.48 0 .66l-4 3.99a.47.47 0 0 1-.33.14M34.5 9.56a.47.47 0 0 1-.33-.14L30.5 5.76l-3.67 3.66c-.18.18-.48.18-.66 0s-.18-.48 0-.66l4-3.99a.47.47 0 0 1 .66 0l4 3.99a.47.47 0 0 1-.33.8"/><path d="M30.5 16.15a.47.47 0 0 1-.47-.47V5.1a.47.47 0 1 1 .94 0v10.59c0 .26-.21.47-.47.47Zm0 11.29a.47.47 0 0 1-.47-.47v-3.82a.47.47 0 1 1 .94 0v3.82c0 .26-.21.47-.47.47m0 18.13a.47.47 0 0 1-.47-.47V33.83a.47.47 0 1 1 .94 0V45.1c0 .26-.21.47-.47.47"/><path d="M34.5 9.56a.47.47 0 0 1-.33-.14L30.5 5.76l-3.67 3.66c-.18.18-.48.18-.66 0s-.18-.48 0-.66l4-3.99a.47.47 0 0 1 .66 0l4 3.99a.47.47 0 0 1-.33.8m-4 36.01a.47.47 0 0 1-.33-.14l-4-3.99c-.18-.18-.18-.48 0-.66s.48-.18.66 0l3.67 3.66 3.67-3.66c.18-.18.48-.18.66 0s.18.48 0 .66l-4 3.99a.47.47 0 0 1-.33.14"/><path d="M30.5 45.57a.47.47 0 0 1-.33-.14l-4-3.99c-.18-.18-.18-.48 0-.66s.48-.18.66 0l3.67 3.66 3.67-3.66c.18-.18.48-.18.66 0s.18.48 0 .66l-4 3.99a.47.47 0 0 1-.33.14m14.35-25.65H33.96a.47.47 0 1 1 0-.94h10.89a.47.47 0 1 1 0 .94m-18.25 0h-3.4a.47.47 0 1 1 0-.94h3.4a.47.47 0 1 1 0 .94m-11.55 0H4.85a.47.47 0 1 1 0-.94h10.19a.47.47 0 1 1 0 .94Z"/><path d="M40.86 23.92a.47.47 0 0 1-.33-.8l3.66-3.67-3.66-3.67a.47.47 0 0 1 0-.66.47.47 0 0 1 .66 0l3.99 4c.18.18.18.48 0 .66l-3.99 4a.47.47 0 0 1-.33.14"/><path d="M44.85 19.92H33.96a.47.47 0 1 1 0-.94h10.89a.47.47 0 1 1 0 .94m-18.25 0h-3.8a.47.47 0 1 1 0-.94h3.8a.47.47 0 1 1 0 .94m-10.74 0H4.85a.47.47 0 1 1 0-.94h11a.47.47 0 1 1 0 .94Z"/><path d="M40.86 23.92a.47.47 0 0 1-.33-.8l3.66-3.67-3.66-3.67a.47.47 0 0 1 0-.66.47.47 0 0 1 .66 0l3.99 4c.18.18.18.48 0 .66l-3.99 4a.47.47 0 0 1-.33.14m-32.01 0a.47.47 0 0 1-.33-.14l-3.99-4a.47.47 0 0 1 0-.66l3.99-4a.47.47 0 0 1 .66 0c.18.18.18.48 0 .66l-3.66 3.67 3.66 3.67a.47.47 0 0 1-.33.8"/><path d="M8.85 23.92a.47.47 0 0 1-.33-.14l-3.99-4a.47.47 0 0 1 0-.66l3.99-4a.47.47 0 0 1 .66 0c.18.18.18.48 0 .66l-3.66 3.67 3.66 3.67a.47.47 0 0 1-.33.8m32.01 11.29a.47.47 0 0 1-.33-.8l3.66-3.67-3.66-3.67a.47.47 0 0 1 0-.66.47.47 0 0 1 .66 0l3.99 4c.18.18.18.48 0 .66l-3.99 4a.47.47 0 0 1-.33.14"/><path d="M44.85 31.21H34.06a.47.47 0 1 1 0-.94h10.79a.47.47 0 1 1 0 .94m-17.72 0h-4.4a.47.47 0 1 1 0-.94h4.4a.47.47 0 1 1 0 .94m-11.35 0H4.85a.47.47 0 1 1 0-.94h10.93a.47.47 0 1 1 0 .94"/><path d="M8.85 35.21a.47.47 0 0 1-.33-.14l-3.99-4a.47.47 0 0 1 0-.66l3.99-4a.47.47 0 0 1 .66 0c.18.18.18.48 0 .66l-3.66 3.67 3.66 3.67a.47.47 0 0 1-.33.8m22.96-12.08h-2.63c-1.36 0-2.47-1.11-2.47-2.47v-2.63c0-1.36 1.11-2.47 2.47-2.47h2.63c1.36 0 2.47 1.11 2.47 2.47v2.63c0 1.36-1.11 2.47-2.47 2.47m-2.63-6.63c-.85 0-1.53.69-1.53 1.53v2.63c0 .85.69 1.53 1.53 1.53h2.63c.85 0 1.53-.69 1.53-1.53v-2.63c0-.85-.69-1.53-1.53-1.53zm-8.64 6.63h-2.63c-1.36 0-2.47-1.11-2.47-2.47v-2.63c0-1.36 1.11-2.47 2.47-2.47h2.63c1.36 0 2.47 1.11 2.47 2.47v2.63c0 1.36-1.11 2.47-2.47 2.47m-2.63-6.63c-.85 0-1.53.69-1.53 1.53v2.63c0 .85.69 1.53 1.53 1.53h2.63c.85 0 1.53-.69 1.53-1.53v-2.63c0-.85-.69-1.53-1.53-1.53zm13.9 17.6h-2.63c-1.36 0-2.47-1.11-2.47-2.47V29c0-1.36 1.11-2.47 2.47-2.47h2.63c1.36 0 2.47 1.11 2.47 2.47v2.63c0 1.36-1.11 2.47-2.47 2.47m-2.63-6.63c-.85 0-1.53.69-1.53 1.53v2.63c0 .85.69 1.53 1.53 1.53h2.63c.85 0 1.53-.69 1.53-1.53V29c0-.85-.69-1.53-1.53-1.53zm-8.64 6.63h-2.63c-1.36 0-2.47-1.11-2.47-2.47V29c0-1.36 1.11-2.47 2.47-2.47h2.63c1.36 0 2.47 1.11 2.47 2.47v2.63c0 1.36-1.11 2.47-2.47 2.47m-2.63-6.63c-.85 0-1.53.69-1.53 1.53v2.63c0 .85.69 1.53 1.53 1.53h2.63c.85 0 1.53-.69 1.53-1.53V29c0-.85-.69-1.53-1.53-1.53z"/></g></svg>