<svg xmlns="http://www.w3.org/2000/svg" viewBox="0 0 50 50"><path fill="none" stroke="#000" stroke-miterlimit="10" d="M6.76 40.7c-.77 0-1.45-.49-1.73-1.21-.37-.94-.56-2.07-.42-3.21.46-3.83 4.26-4.4 6.85-8.07 4.02-5.7-.51-10.91 3.04-16.44 1.05-1.64 3.11-3.7 7.44-5.06 1.73-.54 3.59-.54 5.32 0 4.35 1.35 6.32 3.43 7.37 5.06 3.55 5.52-.98 10.74 3.04 16.44 2.59 3.67 6.38 4.24 6.85 8.07.15 1.2-.08 2.4-.49 3.38-.28.65-.96 1.04-1.67 1.04-4.99.03-8.4.29-17.77.15 0 0-11.74-.13-17.82-.15Z"/><path fill="none" stroke="#000" stroke-linecap="round" stroke-linejoin="round" d="M28.81 41.02c0 2.28-1.85 4.14-4.14 4.14s-4.14-1.85-4.14-4.14"/></svg>