<svg xmlns="http://www.w3.org/2000/svg" viewBox="0 0 50 50"><g fill="none" stroke="#231f20" stroke-linecap="round" stroke-linejoin="round"><path d="m27.02 27.24 5.48-5.48c1.99-1.99 1.5-6.48 1.5-6.48h0s-4.49-.5-6.48 1.5l-5.48 5.48M30.5 17.78l1 .99M25.52 28.74l-2.49 2.49-4.98-4.98 2.49-2.49M15.55 33.72l-1.49 1.5M21.5 29.7l-.87.92c-.28.29-.63.52-1.02.66l-2.48.86.86-2.48c.14-.4.37-.75.66-1.02l.92-.87M22.03 34.22l-2.99 2.99M15.06 27.24l-2.99 2.99M25.02 24.25l-4.23 4.24"/><path d="m23.78 20.52-4.49-.5-2.99 4 3.43.32M28.76 25.5l.5 4.49-4 2.99-.32-3.43"/></g><rect width="40" height="40" x="4.47" y="5.12" fill="none" stroke="#231f20" stroke-linecap="round" stroke-linejoin="round" rx="8.52" ry="8.52"/></svg>