<svg xmlns="http://www.w3.org/2000/svg" viewBox="0 0 50 50"><g fill="none" stroke="#000" stroke-linecap="round" stroke-linejoin="round"><path d="M34.29 45 25 22.59 15.71 45M17.68 40.26h14.65M20.75 32.82h8.49"/></g><g fill="none" stroke="#000" stroke-linecap="round" stroke-linejoin="round"><path d="M25 16.43c-1.66 0-3 1.34-3 3s1.34 3 3 3 3-1.34 3-3-1.34-3-3-3m5.59 8.42a7.9 7.9 0 0 0 0-11.18m3.35 14.54c4.94-4.94 4.94-12.94 0-17.88"/><path d="M37.72 31.12c6.22-6.68 6.22-17.03 0-23.71M19.41 24.85a7.9 7.9 0 0 1 0-11.18m-3.35 14.54c-4.94-4.94-4.94-12.94 0-17.88"/><path d="M12.28 31.12c-6.22-6.68-6.22-17.03 0-23.71"/></g></svg>