<svg xmlns="http://www.w3.org/2000/svg" viewBox="0 0 50 50"><path fill="none" stroke="#000" stroke-miterlimit="10" d="m26.45 18.21 1.29-4.72c.13-.47.08-.96-.13-1.4l-4.53-9.34a.49.49 0 0 0-.41-.22c-.28 0-.56.24-.5.58l2.38 14.32m.78 4.2 2.38 2.95c.34.42.84.69 1.38.74l11.26 1c.53-.04.64-.78.14-.97l-13.7-5.14m-3.93-1.4c-1.54.49-3.08.98-4.63 1.47-.42.13-.78.4-1.03.76-1.96 2.81-3.93 5.62-5.89 8.43-.18.37.12.72.45.72.11 0 .22-.04.32-.12l11.11-9.15"/><path d="M24.78 18.03c.73 0 1.36.53 1.48 1.25.07.4-.03.79-.26 1.12a1.49 1.49 0 0 1-1.22.63c-.73 0-1.36-.53-1.48-1.25-.07-.4.03-.79.26-1.12a1.49 1.49 0 0 1 1.22-.63m0-1c-.14 0-.27.01-.41.03a2.51 2.51 0 0 0-2.06 2.88c.2 1.22 1.26 2.09 2.46 2.09.14 0 .27-.01.41-.03a2.51 2.51 0 0 0 2.06-2.88 2.5 2.5 0 0 0-2.46-2.09"/><path fill="none" stroke="#000" stroke-miterlimit="10" d="m23.59 21.1-1.6 25.84c-.03.34.24.63.59.63h3.53c.29 0 .52-.25.5-.54l-1.25-25.54"/></svg>