<svg xmlns="http://www.w3.org/2000/svg" viewBox="0 0 50 50"><g fill="none" stroke="#000" stroke-linecap="round" stroke-linejoin="round"><circle cx="25" cy="21.43" r="2.04" transform="rotate(-79.18 25 21.427)"/><path d="M22.03 24.47c-.79-.77-1.28-1.85-1.28-3.03s.47-2.23 1.24-3m6.01-.01c.77.77 1.24 1.83 1.24 3s-.47 2.23-1.24 3m-8 2c-1.28-1.28-2.07-3.05-2.07-5s.79-3.72 2.07-5m10 0c1.28 1.28 2.07 3.05 2.07 5s-.79 3.72-2.07 5"/></g><path fill="none" stroke="#000" stroke-linecap="round" stroke-linejoin="round" d="M30 45V30.5c0-.55-.45-1-1-1h-8c-.55 0-1 .45-1 1V45"/><path fill="none" stroke="#000" stroke-linecap="round" stroke-linejoin="round" d="M42.41 45.39c.92 0 1.66-.75 1.66-1.66V22.45c-.03-.52-.26-1.01-.64-1.36L24.96 5.39 6.49 21.1c-.38.35-.61.84-.64 1.36v21.28c0 .92.74 1.66 1.66 1.66h34.9Z"/></svg>