<svg xmlns="http://www.w3.org/2000/svg" viewBox="0 0 50 50"><g fill="#231f20"><path d="M40.74 40.81H23.6c-.28 0-.5-.22-.5-.5s.22-.5.5-.5h16.64V15.14l-9.33-9.33H14.99v19.55c0 .28-.22.5-.5.5s-.5-.22-.5-.5V5.31c0-.28.22-.5.5-.5h16.63c.13 0 .26.05.35.15l9.62 9.62c.09.09.15.22.15.35v25.38c0 .28-.22.5-.5.5"/><path d="M40.74 15.43h-9.62c-.28 0-.5-.22-.5-.5V5.31c0-.28.22-.5.5-.5s.5.22.5.5v9.12h9.12c.28 0 .5.22.5.5s-.22.5-.5.5M24.66 26.41c-.09 0-.19-.02-.27-.08l-4.92-2.94c-.16-.1-.26-.27-.26-.45s.1-.36.26-.45l4.92-2.94c.25-.15.58-.07.73.18s.07.58-.18.73l-4.16 2.49 4.16 2.49c.25.15.33.47.18.73a.52.52 0 0 1-.46.26Zm5.91 0a.534.534 0 0 1-.28-.99l4.16-2.49-4.16-2.49a.532.532 0 0 1 .55-.91l4.92 2.94c.16.1.26.27.26.45s-.1.36-.26.45l-4.92 2.94a.53.53 0 0 1-.27.08Zm-3.94 0c-.06 0-.11 0-.17-.03a.517.517 0 0 1-.33-.67l1.97-5.88c.09-.28.39-.43.67-.33s.43.39.33.67l-1.97 5.88c-.07.22-.28.36-.5.36"/></g><g fill="#231f20"><path d="M14.57 45.3c-.1 0-.2-.03-.29-.09 0 0-1.02-.71-3.7-2.67-3.3-2.41-3.15-5.28-3.14-5.41-.01-.07-.3-3.56-.3-5.77 0-.89.19-1.48.59-1.84.56-.51 1.35-.45 2.19-.38.2.02.41.04.63.05l.68.03 2.06-1.5c.86-.63 1.92-.61 2.77.04l1.9 1.46c.22 0 .44-.02.67-.03.22-.01.42-.03.62-.05.84-.07 1.63-.14 2.19.38.4.37.59.96.59 1.84 0 2.21-.29 5.7-.3 5.85 0 .05.16 2.92-3.14 5.33-2.66 1.94-3.72 2.67-3.73 2.67-.08.06-.18.09-.28.09Zm-5.5-15.2c-.3 0-.53.04-.66.16-.17.16-.27.54-.27 1.11 0 2.17.29 5.73.3 5.76 0 .17-.1 2.54 2.73 4.61 1.88 1.37 2.94 2.13 3.4 2.46.47-.33 1.54-1.09 3.42-2.46 2.83-2.07 2.74-4.43 2.73-4.53 0-.11.3-3.67.3-5.84 0-.57-.09-.95-.27-1.11-.23-.22-.79-.17-1.42-.12-.21.02-.43.04-.66.05-.29.01-.58.03-.86.04-.13 0-.26-.04-.35-.13l-2.02-1.55c-.5-.38-1.07-.39-1.57-.02l-2.2 1.61c-.09.07-.2.09-.31.1-.29-.01-.57-.02-.86-.04-.23-.01-.45-.03-.66-.05-.28-.02-.54-.04-.76-.04Z"/><path d="M13.89 38.59c-.16 0-.3-.07-.4-.2l-1.6-2.13a.5.5 0 0 1 .1-.7c.22-.16.54-.12.7.1l1.18 1.56 2.18-3.3c.15-.23.46-.3.69-.14.23.15.29.46.14.69l-2.57 3.89c-.09.14-.24.22-.4.22h-.02Z"/><path d="M14.58 40.72c-2.69 0-4.88-2.19-4.88-4.88s2.19-4.88 4.88-4.88 4.88 2.19 4.88 4.88-2.19 4.88-4.88 4.88m0-8.75c-2.14 0-3.88 1.74-3.88 3.88s1.74 3.88 3.88 3.88 3.88-1.74 3.88-3.88-1.74-3.88-3.88-3.88"/></g></svg>