<svg xmlns="http://www.w3.org/2000/svg" viewBox="0 0 50 50"><text font-family="NeusaNextPro-WideRegular,&quot;Neusa Next Pro&quot;" font-size="7" transform="translate(4.23 -14.54)"><tspan x="0" y="0">Secu</tspan><tspan x="17.53" y="0" letter-spacing="-.02em">r</tspan><tspan x="20.22" y="0">e Data </tspan><tspan x="-.36" y="7">Connectivity</tspan></text><g fill="#231f20"><path d="M32.69 29.45H17.12c-.28 0-.5-.22-.5-.5s.22-.5.5-.5h15.57c.28 0 .5.22.5.5s-.22.5-.5.5m-13.77 8.11h-1.35c-.28 0-.5-.22-.5-.5s.22-.5.5-.5h1.35c.28 0 .5.22.5.5s-.22.5-.5.5m8.24 0H24.8c-.28 0-.5-.22-.5-.5s.22-.5.5-.5h2.36c.28 0 .5.22.5.5s-.22.5-.5.5m-4.12 0h-2.36c-.28 0-.5-.22-.5-.5s.22-.5.5-.5h2.36c.28 0 .5.22.5.5s-.22.5-.5.5m7.24 0h-1.35c-.28 0-.5-.22-.5-.5s.22-.5.5-.5h1.35c.28 0 .5.22.5.5s-.22.5-.5.5"/><path d="M30.28 40.36a.47.47 0 0 1-.35-.15c-.2-.19-.2-.51 0-.71l2.39-2.39-2.39-2.39a.513.513 0 0 1 0-.71c.2-.2.51-.2.71 0l2.74 2.75c.19.2.19.51 0 .71l-2.74 2.75c-.1.1-.23.15-.35.15ZM19.86 32.2a.47.47 0 0 1-.35-.15l-2.74-2.75a.513.513 0 0 1 0-.71l2.74-2.75c.2-.2.51-.2.71 0 .2.19.2.51 0 .71l-2.39 2.39 2.39 2.39c.19.2.19.51 0 .71-.1.1-.23.15-.35.15Z"/></g><g fill="#231f20"><path d="M38 45H12c-.28 0-.5-.22-.5-.5V21.75c0-.28.22-.5.5-.5h26c.28 0 .5.22.5.5V44.5c0 .28-.22.5-.5.5m-25.5-1h25V22.25h-25z"/><path d="M34.74 22.25c-.28 0-.5-.22-.5-.5v-6.5C34.24 10.15 30.1 6 25 6s-9.24 4.15-9.24 9.25v6.5c0 .28-.22.5-.5.5s-.5-.22-.5-.5v-6.5C14.76 9.6 19.35 5 25 5s10.24 4.6 10.24 10.25v6.5c0 .28-.22.5-.5.5"/></g></svg>