<svg xmlns="http://www.w3.org/2000/svg" viewBox="0 0 50 50"><g stroke="#000" stroke-linecap="round" stroke-linejoin="round"><path fill="#fff" d="M17.18 29.22c-.3.01-.6.03-.9.04h0l-2.14-1.66c-.71-.55-1.56-.56-2.27-.03l-2.3 1.69c-.3-.01-.6-.02-.9-.04-1.69-.08-3.01-.57-3.01 1.77s.31 6.12.31 6.12-.19 2.84 3.07 5.23c2.8 2.06 3.87 2.81 3.87 2.81h0s1.08-.75 3.89-2.81c3.26-2.4 3.07-5.23 3.07-5.23s.31-3.78.31-6.12-1.32-1.85-3.01-1.77"/><g fill="none"><path d="m15.29 33.18-3.07 4.64-1.65-2.19"/><circle cx="12.93" cy="35.49" r="4.5"/></g></g><g fill="none" fill-rule="evenodd" stroke="#000" stroke-linecap="round" stroke-linejoin="round"><path d="M44.47 15.31c-.6 0-1.19.53-1.19 1.21v11.43c0 .68.6 1.21 1.19 1.21.67 0 1.19-.53 1.19-1.21V16.52c0-.68-.52-1.21-1.19-1.21M12.28 27.02v-10.5c0-.68-.52-1.21-1.19-1.21s-1.19.53-1.19 1.21v12.43m8.67.02-1.73-2.13c-.45-.54-.38-1.31.15-1.69.53-.46 1.28-.38 1.66.15l3.09 3.76 3.09-3.76c.45-.61 1.43-.61 1.88 0l3.09 3.76 3.09-3.76c.45-.54 1.36-.61 1.81 0l4.07 4.92c.38.54.3 1.31-.23 1.69-.23.23-.45.31-.75.31s-.68-.15-.9-.46L33.8 28l-3.09 3.76c-.23.31-.6.46-.9.46-.38 0-.75-.15-.98-.46L25.74 28l-3.01 3.76c-.23.31-.58.46-.94.46s-.72-.15-.94-.46l-.6-.74m1.87-17.46c2.41 0 4.44 2 4.44 4.53s-2.03 4.53-4.44 4.53-4.52-2-4.52-4.53 2.03-4.53 4.52-4.53m11.36 0c2.41 0 4.44 2 4.44 4.53s-2.03 4.53-4.44 4.53-4.44-2-4.44-4.53 1.96-4.53 4.44-4.53"/><path d="m14.24 27.59.06-16.82c0-1.09.87-1.98 1.93-1.98H39.4c1.06 0 1.93.89 1.93 1.98l-.09 22.88c0 1.09-.87 1.98-1.93 1.98H20.34"/></g></svg>