<svg xmlns="http://www.w3.org/2000/svg" viewBox="0 0 50 50"><g fill="#231f20" data-name="AI factory"><path d="M37.3 24.58h-1V4.73h-25v5.61h-1V4.23c0-.28.22-.5.5-.5h26c.28 0 .5.22.5.5z"/><path d="M22.9 36.73H4.8c-.28 0-.5-.22-.5-.5v-26c0-.28.22-.5.5-.5h26c.28 0 .5.22.5.5V21.3h-1V10.73h-25v25h17.6z"/><path d="M17.38 31.91c-.23 0-.42-.19-.42-.42V14.71c0-.23.19-.42.42-.42s.42.19.42.42v16.77c0 .23-.19.42-.42.42Zm-5.29-8.43c-.46 0-.83.37-.83.83s.37.83.83.83h.06c.43-.03.77-.39.77-.82 0-.46-.37-.83-.83-.83Zm-1.04-4.33c-.46 0-.83.37-.83.83s.37.83.83.83h.06c.43-.03.77-.38.77-.82s-.37-.83-.83-.83Zm3.89-3.63c-.46 0-.83.37-.83.83s.37.83.83.83H15c.43-.03.77-.39.77-.82 0-.46-.37-.83-.83-.83Zm.4 9.53c-.46 0-.83.37-.83.83s.37.83.83.83h.06c.43-.03.77-.38.77-.82s-.37-.83-.83-.83Zm-3.76 3.16c-.46 0-.83.37-.83.83s.37.83.83.83h.06c.43-.03.77-.39.77-.82 0-.46-.37-.83-.83-.83Zm2.99 2.12c-.46 0-.83.37-.83.83s.37.83.83.83h.06c.43-.03.77-.39.77-.82 0-.46-.37-.83-.83-.83Z"/><path d="M10.63 26.08h-.08c-1.41-.26-2.33-.82-2.72-1.66-.62-1.32.28-2.88.52-3.25-.11-.61-.32-2.56 1.21-3.28 1.22-.57 2.46-.56 3.38.03.91.6 1.37 1.6 1.22 2.61-.04.23-.25.38-.48.35a.413.413 0 0 1-.35-.48c.1-.68-.22-1.37-.84-1.78-.67-.42-1.62-.42-2.57.03-1.08.5-.76 2.23-.72 2.42.04.17 0 .35-.1.5-.27.4-.9 1.63-.49 2.49.27.58.98.98 2.11 1.19a.417.417 0 0 1-.07.83Zm-2.27-4.84v.02zm.04-.16"/><path d="M11.23 18.3c-.18 0-.35-.12-.41-.31-.43-1.52.25-3.06 1.15-3.42 1-.41 1.92.35 2.72 1.01l.11.09c.18.15.21.41.06.59s-.41.21-.59.06l-.11-.09c-.66-.54-1.33-1.09-1.87-.88-.48.2-.97 1.3-.65 2.41.06.22-.07.46-.29.52-.04.01-.08.02-.12.02m6.15 13.61c-.23 0-.42-.19-.42-.42V14.71c0-.23.19-.42.42-.42s.42.19.42.42v16.78c0 .23-.19.42-.42.42"/><path d="M14.19 34.08c-1.17 0-2.24-.68-2.66-1.74-.73-.07-1.35-.39-1.77-.9-.67-.68-.96-1.64-.77-2.57-.53-.2-1.2-.88-1.49-1.75-.28-.72-.15-1.88.84-2.67.18-.14.45-.12.59.07.14.18.12.45-.07.59-.62.5-.76 1.24-.57 1.72.26.8.86 1.23 1 1.25.17.02.34.11.44.25.11.14.15.3.13.47-.21.79-.01 1.53.52 2.07.32.38.77.6 1.26.63.26-.04.55.16.64.46.29.88 1.32 1.41 2.34 1.22 2.23-.26 2.33-1.66 2.33-1.72.01-.23.16-.41.44-.4.23.01.41.2.4.43 0 .09-.11 2.17-3.05 2.52-.19.04-.38.05-.57.05Zm-2.56-1.74h.05zm-.14-.12v.01zm1.29-16.89a.413.413 0 0 1-.29-.72c1.59-1.49 3.43-1.83 4.42-1.4.63.32.9.99.9 1.51 0 .23-.19.42-.42.42s-.42-.19-.42-.42c0-.27-.14-.61-.42-.75-.59-.26-2.08-.05-3.48 1.25-.08.08-.18.11-.29.11m-.55 7.46c-.15 0-.29-.08-.37-.22l-1.03-1.91a.423.423 0 0 1 .17-.57c.2-.11.46-.03.57.17l1.03 1.91c.11.21.03.46-.17.57-.06.03-.13.05-.2.05"/><path d="M12.23 22.79c-.2 0-.38-.15-.42-.36-.04-.23.12-.44.35-.48l2.46-.37c.21-.03.44.12.48.35s-.12.44-.35.48l-2.46.37h-.06Z"/><path d="M14.68 22.42a.4.4 0 0 1-.29-.12c-.04-.04-.07-.09-.1-.14a.4.4 0 0 1-.03-.16c0-.11.05-.22.13-.3a.4.4 0 0 1 .13-.09c.16-.06.34-.03.46.09.08.08.12.19.12.3s-.04.22-.12.3-.18.12-.3.12m-2.54 1.78h-.03a.417.417 0 0 1-.39-.45l.09-1.41c.02-.23.19-.42.45-.39.23.01.41.22.39.45l-.09 1.41c-.01.22-.2.39-.42.39m2.19 6.92c-.16 0-.31-.09-.38-.24l-.57-1.22c-.1-.21 0-.46.2-.56.21-.1.46 0 .56.2l.57 1.22c.1.21 0 .46-.2.56-.06.03-.12.04-.18.04"/><path d="M13.76 29.9c-.19 0-.37-.13-.41-.33L12.78 27a.43.43 0 0 1 .22-.47l1.65-.83c.21-.1.46-.02.57.19.1.21.02.46-.19.57l-1.36.68.5 2.25c.05.23-.09.45-.32.5h-.09Z"/><path d="M13.76 29.9h-.08l-1.67-.34a.42.42 0 0 1-.33-.5c.05-.23.26-.38.5-.33l1.67.34a.425.425 0 0 1-.08.84Zm3.62 2.01c-.23 0-.42-.19-.42-.42V14.71c0-.23.19-.42.42-.42s.42.19.42.42v16.77c0 .23-.19.42-.42.42Zm6.34-12.76c-.46 0-.83.37-.83.83s.34.79.77.82h.06c.46 0 .83-.37.83-.83s-.37-.83-.83-.83Zm-4.16 1.93c-.46 0-.83.37-.83.83s.34.79.77.82h.06c.46 0 .83-.37.83-.83s-.37-.83-.83-.83Zm.27-5.56c-.46 0-.83.37-.83.83s.34.79.77.82h.06c.46 0 .83-.37.83-.83s-.37-.83-.83-.83Zm-4.63 5.55c-.46 0-.83.37-.83.83s.34.79.77.82h.06c.46 0 .83-.37.83-.83s-.37-.83-.83-.83Zm4.23 3.98c-.46 0-.83.37-.83.83s.34.79.77.82h.06c.46 0 .83-.37.83-.83s-.37-.83-.83-.83Z"/><path d="M26.4 22.43c-.16 0-.32-.09-.38-.25-.16-.37-.33-.62-.33-.62a.6.6 0 0 1-.09-.5c.04-.19.35-1.91-.72-2.41-.96-.45-1.9-.46-2.58-.02-.62.41-.94 1.09-.84 1.77.03.23-.12.44-.35.48a.426.426 0 0 1-.48-.35c-.15-1.01.31-2.01 1.21-2.6.94-.59 2.17-.6 3.39-.03 1.55.72 1.31 2.72 1.21 3.28.08.12.22.37.36.68.09.21 0 .46-.21.55-.06.02-.11.04-.17.04Zm-.03-1.35"/><path d="M23.54 18.3s-.08 0-.12-.02a.427.427 0 0 1-.29-.52c.32-1.12-.17-2.21-.65-2.41-.54-.21-1.21.34-1.87.88l-.11.09c-.18.15-.45.12-.59-.06a.415.415 0 0 1 .06-.59l.11-.09c.81-.66 1.72-1.41 2.72-1.01.9.37 1.58 1.91 1.15 3.42-.05.18-.22.31-.41.31m-6.16 13.61c-.23 0-.42-.19-.42-.42V14.71c0-.23.19-.42.42-.42s.42.19.42.42v16.78c0 .23-.19.42-.42.42"/><path d="M20.56 34.07c-.19 0-.39-.02-.58-.05-2.94-.34-3.02-2.5-3.02-2.52 0-.23.18-.42.41-.43.2 0 .42.18.43.41 0 .05.1 1.45 2.3 1.7.41.08.8.05 1.16-.07.22-.08.46.04.53.26a.41.41 0 0 1-.26.53c-.32.11-.65.16-.98.16Zm1.43-18.74c-.1 0-.21-.04-.29-.11-1.4-1.31-2.89-1.51-3.5-1.24-.25.13-.39.47-.39.74 0 .23-.19.42-.42.42s-.42-.19-.42-.42c0-.52.27-1.19.88-1.5 1.01-.44 2.84-.1 4.44 1.39a.414.414 0 0 1-.29.72Zm.55 7.46a.417.417 0 0 1-.37-.62l1.03-1.91c.11-.21.37-.28.57-.17.21.11.28.37.17.57l-1.03 1.91c-.08.14-.22.22-.37.22"/><path d="M22.54 22.79h-.06l-2.46-.37a.413.413 0 0 1-.35-.48c.04-.23.26-.39.48-.35l2.46.37c.23.03.39.25.35.48a.42.42 0 0 1-.42.36Z"/><path d="M20.08 22.42c-.11 0-.22-.04-.3-.12s-.12-.19-.12-.3.04-.22.12-.3a.44.44 0 0 1 .6 0 .42.42 0 0 1 .12.3.42.42 0 0 1-.12.3c-.08.08-.19.12-.3.12m3.15 2.47c-.18 0-.34-.11-.4-.29l-.7-2.09c-.07-.22.05-.46.27-.53s.46.05.53.27l.7 2.09a.422.422 0 0 1-.4.55m-1.66 2.44c-.06 0-.13-.01-.19-.04l-1.66-.83a.43.43 0 0 1-.19-.57c.1-.21.36-.29.57-.19l1.66.83c.21.1.29.36.19.57-.07.15-.22.23-.38.23"/></g><g fill="#231f20"><path d="M38.22 39.32c-.13 0-.25-.05-.35-.15L36 37.31c-.2-.19-.2-.51 0-.71s.51-.2.71 0l1.87 1.86c.2.19.2.51 0 .71-.1.1-.23.15-.35.15Z"/><path d="M43.82 46.27c-.45 0-.89-.17-1.22-.5L37.82 41c-.32-.32-.5-.75-.5-1.22 0-.49.2-.96.56-1.32.72-.71 1.86-.74 2.55-.05l4.78 4.77c.32.32.5.76.5 1.22 0 .49-.2.96-.55 1.32-.37.37-.85.55-1.32.55Zm-4.63-7.36c-.22 0-.44.09-.62.26-.17.17-.26.39-.26.61 0 .2.07.38.21.51l4.78 4.77c.3.29.81.27 1.13-.05.17-.17.26-.38.26-.61 0-.2-.07-.38-.21-.51l-4.78-4.77a.73.73 0 0 0-.52-.21Zm-9.25 1.19c-5.27 0-9.56-4.29-9.56-9.56s4.29-9.56 9.56-9.56 9.56 4.29 9.56 9.56-4.29 9.56-9.56 9.56m0-18.12c-4.72 0-8.56 3.84-8.56 8.56s3.84 8.56 8.56 8.56 8.56-3.84 8.56-8.56-3.84-8.56-8.56-8.56"/><path d="M29.86 36.34c-.81 0-1.48-.66-1.48-1.48s.66-1.48 1.48-1.48 1.48.66 1.48 1.48-.66 1.48-1.48 1.48m0-1.95c-.26 0-.48.21-.48.48s.21.48.48.48.48-.21.48-.48-.21-.48-.48-.48m0-2.11c-.24 0-.45-.17-.49-.4l-1.18-6.08a.992.992 0 0 1 .98-1.18h1.39a.992.992 0 0 1 .98 1.19l-1.18 6.08c-.05.23-.25.4-.49.4Zm.69-6.68h-1.39l.7 3.56z"/></g></svg>