<svg xmlns="http://www.w3.org/2000/svg" viewBox="0 0 50 50"><g fill="#231f20"><path d="M20.69 36.04c-.28 0-.5-.22-.5-.5V8.42c0-.28.22-.5.5-.5s.5.22.5.5v27.12c0 .28-.22.5-.5.5m-8.47-10.77c-.83 0-1.42-.6-1.42-1.33s.6-1.34 1.34-1.34 1.34.6 1.34 1.34c0 .7-.54 1.28-1.24 1.33zm-.08-1.67c-.19 0-.34.15-.34.34s.15.34.34.34c.2-.02.34-.16.34-.34 0-.19-.15-.34-.34-.34m5.11-2.21c-.73 0-1.27-.45-1.39-1.08-.02-.08-.02-.17-.02-.25a1.34 1.34 0 0 1 2.68 0c0 .7-.54 1.28-1.24 1.33zm-.41-1.27c.03.16.17.27.33.27.2-.02.34-.16.34-.34 0-.19-.15-.34-.34-.34s-.34.15-.34.34l-.48.16.49-.1zm-6.39-1.85a1.34 1.34 0 1 1 1.34-1.34c0 .7-.54 1.28-1.24 1.33h-.1zm0-1.68c-.19 0-.34.15-.34.34s.14.33.32.34c.22-.03.35-.17.35-.34 0-.19-.15-.34-.34-.34zm6.37-4.2c-.83 0-1.42-.6-1.42-1.33s.6-1.34 1.34-1.34 1.34.6 1.34 1.34c0 .7-.54 1.28-1.24 1.33zm-.08-1.67c-.19 0-.34.15-.34.34s.15.34.34.34c.2-.02.34-.16.34-.34 0-.19-.15-.34-.34-.34"/><path d="M9.77 26.61h-.09c-2.23-.42-3.66-1.29-4.27-2.59-1-2.13.56-4.68.86-5.14-.13-.66-.65-4.01 1.83-5.17 1.92-.89 3.85-.88 5.3.03 1.4.93 2.12 2.47 1.89 4.04-.04.27-.3.47-.57.42a.5.5 0 0 1-.42-.57c.17-1.18-.38-2.35-1.44-3.05-1.15-.72-2.73-.71-4.34.04-1.93.9-1.29 3.99-1.27 4.12.05.23 0 .47-.13.66-.02.02-1.64 2.45-.82 4.21.46.99 1.66 1.67 3.55 2.03a.499.499 0 0 1-.09.99zm-3.49-7.67"/><path d="M10.74 14.04c-.22 0-.42-.14-.48-.36-.67-2.37.37-4.76 1.75-5.32 1.52-.61 2.95.57 4.21 1.6l.18.14c.21.17.25.49.07.7-.17.21-.49.25-.7.07l-.18-.15c-1.1-.9-2.24-1.84-3.21-1.45-.84.34-1.7 2.22-1.17 4.12a.5.5 0 0 1-.34.62c-.05.01-.09.02-.14.02zm9.95 22c-.28 0-.5-.22-.5-.5V8.42c0-.28.22-.5.5-.5s.5.22.5.5v27.12c0 .28-.22.5-.5.5"/><path d="M15.54 39.54c-1.86 0-3.56-1.1-4.17-2.8-1.17-.08-2.18-.58-2.85-1.4-1.1-1.12-1.54-2.69-1.17-4.19-.76-.11-1.96-1.26-2.45-2.74-.44-1.11-.22-2.9 1.3-4.11.22-.17.53-.14.7.08s.14.53-.08.7c-1.08.86-1.31 2.16-.98 2.99.43 1.31 1.44 2.1 1.76 2.14.24.03.46.15.6.34.14.18.2.4.17.63 0 .02-.02.08-.02.1-.34 1.2 0 2.47.91 3.4.53.65 1.31 1.03 2.16 1.07.36-.04.75.22.87.62.5 1.5 2.25 2.43 3.98 2.1 3.76-.44 3.91-2.84 3.92-2.95.01-.27.26-.51.52-.48a.5.5 0 0 1 .48.51c0 .14-.17 3.36-4.77 3.9-.3.06-.6.08-.89.08zm-4.12-2.79h.02zm1.82-27.52a.504.504 0 0 1-.35-.87c2.52-2.36 5.41-2.9 6.95-2.23.93.48 1.34 1.48 1.35 2.27 0 .28-.22.5-.5.5s-.5-.22-.5-.5c0-.47-.24-1.1-.77-1.37-1.01-.45-3.52-.11-5.83 2.05-.1.09-.22.13-.34.13zm-.88 12.07c-.18 0-.35-.1-.44-.26l-1.66-3.08a.506.506 0 0 1 .2-.68c.24-.13.55-.04.68.2l1.66 3.08c.13.24.04.55-.2.68q-.12.06-.24.06"/><path d="M12.36 21.3c-.24 0-.46-.18-.49-.43-.04-.27.15-.53.42-.57l3.97-.6c.27-.04.53.15.57.42s-.15.53-.42.57l-3.97.6h-.08z"/><path d="M16.34 20.7a.49.49 0 0 1-.5-.5c0-.13.05-.26.15-.35a.49.49 0 0 1 .7 0 .49.49 0 0 1 0 .71c-.04.04-.1.08-.16.11-.06.02-.13.03-.19.03m-4.12 2.88h-.03a.51.51 0 0 1-.47-.53l.15-2.28c.02-.28.25-.5.53-.47.28.02.48.26.47.53l-.15 2.28a.51.51 0 0 1-.5.47m3.54 11.19c-.19 0-.37-.11-.45-.29l-.92-1.98c-.12-.25 0-.55.24-.67.25-.12.55 0 .67.24l.92 1.98c.12.25 0 .55-.24.67-.07.03-.14.05-.21.05zm1.62-6.97a1.34 1.34 0 1 1 1.34-1.34c0 .7-.54 1.28-1.24 1.33h-.1zm0-1.67c-.19 0-.34.15-.34.34s.14.33.32.34c.22-.03.35-.17.35-.34 0-.19-.15-.34-.34-.34zm-5.99 6.78c-.83 0-1.42-.6-1.42-1.33s.6-1.34 1.34-1.34 1.34.6 1.34 1.34c0 .7-.54 1.28-1.24 1.33zm-.08-1.66c-.19 0-.34.15-.34.34s.15.34.34.34c.2-.02.34-.16.34-.34 0-.19-.15-.34-.34-.34"/><path d="M16.23 36.35c-.83 0-1.42-.6-1.42-1.33s.6-1.34 1.34-1.34 1.34.6 1.34 1.34c0 .7-.55 1.28-1.24 1.33zm-.09-1.67c-.19 0-.34.15-.34.34s.15.34.34.34c.2-.02.34-.16.34-.34 0-.19-.15-.34-.34-.34m-1.3-1.88c-.23 0-.44-.16-.49-.39l-.92-4.16c-.05-.22.06-.45.26-.55l2.68-1.34c.24-.13.55-.03.67.22s.03.55-.22.67l-2.33 1.17.83 3.78c.06.27-.11.54-.38.6-.04 0-.07.01-.11.01z"/><path d="M14.84 32.8h-.1l-2.71-.55a.495.495 0 0 1-.39-.59c.05-.27.32-.45.59-.39l2.71.55a.501.501 0 0 1-.1.99z"/></g><path fill="#231f20" d="M20.7 36.04c-.28 0-.5-.22-.5-.5V8.42c0-.28.22-.5.5-.5s.5.22.5.5v27.12c0 .28-.22.5-.5.5m8.55-10.76h-.1a1.34 1.34 0 0 1-1.24-1.33 1.34 1.34 0 1 1 1.34 1.34zm0-1.68c-.19 0-.34.15-.34.34 0 .17.14.32.31.33.21 0 .35-.15.35-.33s-.15-.34-.34-.34zm-5.03-2.21h-.1c-.69-.05-1.23-.63-1.23-1.33a1.34 1.34 0 0 1 2.68 0c0 .09 0 .17-.03.25a1.33 1.33 0 0 1-1.31 1.08zm0-1.67c-.19 0-.34.15-.34.34 0 .17.14.32.31.33h.01c.18 0 .31-.11.34-.27v-.06c0-.19-.15-.34-.34-.34zm6.72-1.45h-.1a1.34 1.34 0 0 1-1.24-1.33 1.34 1.34 0 1 1 1.34 1.34zm0-1.68c-.19 0-.34.15-.34.34s.13.32.31.33l.02.5v-.5c.19 0 .34-.15.34-.34s-.15-.34-.34-.34zm-6.29-4.2h-.11a1.33 1.33 0 0 1-1.22-1.33 1.34 1.34 0 1 1 1.34 1.34zm0-1.67c-.19 0-.34.15-.34.34 0 .18.13.32.31.33.21.02.36-.15.36-.33s-.15-.34-.34-.34z"/><path fill="#231f20" d="M34.13 18.7c-.05.23-.01.47.13.67.02.029 1.533 2.298.884 4.04q.333-.071.714-.072c.116 0 .216.022.326.032.488-1.995-.82-4.13-1.074-4.51.12-.6.66-4.01-1.83-5.17-1.92-.89-3.85-.88-5.31.04-1.39.92-2.11 2.46-1.88 4.03.04.27.3.46.57.42s.46-.3.42-.57c-.17-1.18.38-2.35 1.44-3.05 1.15-.73 2.74-.72 4.34.03 1.88.88 1.34 3.79 1.27 4.11m.98.22"/><path fill="#231f20" d="M30.65 14.04s-.09 0-.14-.02a.493.493 0 0 1-.34-.62c.54-1.9-.32-3.78-1.17-4.12-.97-.39-2.1.54-3.21 1.45l-.18.15c-.21.18-.53.14-.7-.07s-.14-.53.07-.7l.18-.14c1.26-1.04 2.69-2.21 4.21-1.6 1.38.56 2.42 2.95 1.75 5.32-.06.22-.26.36-.48.36zm-9.96 22c-.25 0-.46-.18-.49-.43V8.34c.04-.24.24-.43.5-.43.28 0 .5.22.5.5v27.12c0 .28-.22.5-.5.5z"/><path fill="#231f20" d="M25.557 38.51c-.158-.01-.317-.02-.477-.05-3.72-.43-3.88-2.83-3.88-2.93-.01-.28-.2-.48-.51-.49-.28.01-.49.23-.49.51 0 .04.13 3.36 4.73 3.9.12.024.24.021.362.036q.061-.511.265-.976M28.15 9.23c-.12 0-.25-.04-.34-.13-2.32-2.17-4.82-2.5-5.86-2.04-.5.26-.75.89-.75 1.36 0 .28-.22.5-.5.5s-.5-.23-.5-.5c0-.79.41-1.8 1.32-2.26 1.57-.69 4.45-.14 6.97 2.21a.504.504 0 0 1-.35.87zm.88 12.07q-.12 0-.24-.06a.504.504 0 0 1-.2-.68l1.66-3.08c.13-.24.44-.33.68-.2s.33.43.2.68l-1.66 3.08a.49.49 0 0 1-.44.26"/><path fill="#231f20" d="M29.03 21.3h-.08l-3.97-.6a.505.505 0 0 1-.42-.57c.04-.27.3-.46.57-.42l3.97.6a.503.503 0 0 1-.07 1z"/><path fill="none" stroke="#231f20" stroke-linecap="round" stroke-linejoin="round" d="M25.06 20.2"/><path fill="#231f20" d="M29.17 23.58c-.26 0-.48-.2-.5-.47l-.15-2.28c-.02-.28.19-.51.47-.53.26-.02.51.19.53.47l.15 2.28c.02.28-.19.51-.47.53z"/><g fill="#231f20"><path d="M24.02 27.92h-.1c-.69-.05-1.23-.63-1.23-1.33a1.34 1.34 0 1 1 1.34 1.34zm0-1.67c-.19 0-.34.15-.34.34 0 .17.14.32.31.33l.02.5v-.5c.19 0 .34-.15.34-.34s-.15-.34-.34-.34zm.76 10.1h-.1a1.34 1.34 0 0 1-1.24-1.33 1.34 1.34 0 1 1 1.34 1.34zm0-1.68c-.19 0-.34.15-.34.34 0 .17.14.32.31.33.2.04.36-.15.36-.33 0-.19-.15-.34-.34-.34z"/><path d="M26.57 32.92s-.07 0-.11-.01a.503.503 0 0 1-.38-.6l.83-3.78-2.33-1.17a.49.49 0 0 1-.22-.67c.12-.25.42-.35.67-.22l2.68 1.34c.2.1.31.33.26.55l-.92 4.16c-.05.23-.26.39-.49.39z"/><path d="M29.566 31.445a.52.52 0 0 0-.376-.075l-2.71.55c-.13.03-.24.1-.31.2L24.81 34c-.16.23-.11.54.11.7.09.06.19.09.29.09h.01c.16 0 .31-.08.41-.21l1.24-1.72 2.293-.464a3.2 3.2 0 0 1 .403-.951"/></g><g fill="#231f20"><path d="M44.07 44.12H27.69c-1.26 0-2.4-.65-3.03-1.75-.63-1.09-.63-2.4 0-3.5l8.19-14.19c.63-1.09 1.76-1.75 3.03-1.75s2.4.65 3.03 1.75l8.19 14.19c.63 1.09.63 2.4 0 3.5a3.47 3.47 0 0 1-3.03 1.75M33.72 25.19l-8.19 14.19c-.45.78-.45 1.71 0 2.5s1.26 1.25 2.16 1.25h16.38c.9 0 1.71-.47 2.16-1.25s.45-1.71 0-2.5l-8.19-14.19c-.45-.78-1.26-1.25-2.16-1.25s-1.71.47-2.16 1.25"/><path d="M35.88 40.95c-.92 0-1.66-.74-1.66-1.66s.74-1.66 1.66-1.66 1.66.74 1.66 1.66-.74 1.66-1.66 1.66m0-2.32c-.36 0-.66.3-.66.66s.3.66.66.66.66-.3.66-.66-.3-.66-.66-.66m0-1.17c-.24 0-.45-.17-.49-.4l-1.43-7.33a.992.992 0 0 1 .98-1.18h1.88a.992.992 0 0 1 .98 1.19l-1.43 7.33c-.05.23-.25.4-.49.4zm.94-7.92h-1.87l.94 4.81.94-4.81z"/></g></svg>