<svg xmlns="http://www.w3.org/2000/svg" data-name="Isolation Mode" viewBox="0 0 50 50"><path fill="none" stroke="#000" stroke-linecap="round" stroke-linejoin="round" d="M6.975 23.025v4M40.975 39.025H44a1 1 0 0 0 1-1v-26a1 1 0 0 0-1-1H5.95a1 1 0 0 0-1 1v26a1 1 0 0 0 1 1z"/><path d="M42.975 24.025a1 1 0 1 0 0 2 1 1 0 0 0 0-2"/><rect width="32" height="24" x="8.975" y="13.025" fill="none" stroke="#000" stroke-linecap="round" stroke-linejoin="round" rx="1" ry="1"/><path fill="none" stroke="#000" stroke-linecap="round" stroke-linejoin="round" d="m20.904 20.968-6.786 4.057 6.786 4.057M29.047 29.082l6.785-4.057-6.785-4.057M26.332 20.968l-2.714 8.114"/></svg>