<svg xmlns="http://www.w3.org/2000/svg" data-name="Isolation Mode" viewBox="0 0 50 50"><rect width="12" height="12" x="35" y="19" fill="none" stroke="#000" stroke-dasharray="0 1.97961" stroke-linecap="round" stroke-linejoin="round" rx="2.571" ry="2.571"/><path d="M38.906 25.938a.5.5 0 0 1-.04-.12 1 1 0 0 1-.03-.146 1.1 1.1 0 0 1-.32.223 1.1 1.1 0 0 1-.453.093q-.218 0-.393-.062a.9.9 0 0 1-.302-.172.78.78 0 0 1-.262-.584q0-.44.328-.673t.941-.233h.443v-.18a.43.43 0 0 0-.147-.345q-.147-.129-.415-.128a.7.7 0 0 0-.213.029.5.5 0 0 0-.152.08.34.34 0 0 0-.121.266h-.606q0-.16.075-.31a.65.65 0 0 1 .22-.27q.144-.116.353-.188c.209-.072.297-.07.477-.07q.244 0 .45.059.209.06.36.177.151.119.238.294a.9.9 0 0 1 .086.411v1.22q0 .18.026.329.027.147.078.257v.042zm-.728-.438a.8.8 0 0 0 .545-.213.6.6 0 0 0 .095-.124v-.514h-.384q-.371 0-.547.119a.39.39 0 0 0-.176.339q0 .084.028.156t.085.124a.3.3 0 0 0 .145.082q.087.03.209.03m4.21-.903q0 .298-.072.554a1.3 1.3 0 0 1-.207.442 1 1 0 0 1-.336.291 1 1 0 0 1-.457.105q-.232 0-.41-.076a.7.7 0 0 1-.308-.218v1.297h-.606v-3.793h.558l.024.276q.133-.156.314-.242c.18-.086.26-.085.42-.085q.261 0 .463.102a.96.96 0 0 1 .338.285q.136.183.207.44.072.258.072.568zm-.605-.054q0-.184-.039-.348a.7.7 0 0 0-.116-.286.6.6 0 0 0-.2-.194.56.56 0 0 0-.288-.07.6.6 0 0 0-.335.086.6.6 0 0 0-.207.23v1.226q.075.14.207.23.129.089.34.088a.55.55 0 0 0 .289-.073.6.6 0 0 0 .198-.197 1 1 0 0 0 .114-.29q.037-.164.037-.348zm3.449.054q0 .298-.07.554-.072.256-.208.442c-.136.186-.203.221-.335.291a1 1 0 0 1-.457.105q-.234 0-.412-.076a.7.7 0 0 1-.308-.218v1.297h-.604v-3.793h.557l.025.276q.131-.156.312-.242c.181-.086.262-.085.422-.085q.261 0 .461.102a.95.95 0 0 1 .34.285q.136.183.207.44.07.258.07.568zm-.605-.054q0-.184-.037-.348c-.037-.164-.065-.204-.117-.286s-.12-.146-.2-.194a.6.6 0 0 0-.289-.07.6.6 0 0 0-.334.086.6.6 0 0 0-.208.23v1.226q.077.14.206.23.132.089.341.088a.55.55 0 0 0 .488-.27.9.9 0 0 0 .114-.29q.036-.164.036-.348z"/><g fill="none" stroke="#000" stroke-linecap="round" stroke-linejoin="round" data-name="Group 13221"><path d="M25.107 25h7.487" data-name="Line 154"/><path d="M29.197 28.397 32.594 25l-3.397-3.397" data-name="Path 60447"/></g><g fill="none" stroke="#000" stroke-linecap="round" stroke-linejoin="round"><circle cx="13" cy="25" r="10"/><circle cx="7.5" cy="24.995" r="1.667"/><circle cx="18.5" cy="24.995" r="1.667"/><circle cx="13" cy="25.005" r="1.667"/></g></svg>