<svg xmlns="http://www.w3.org/2000/svg" viewBox="0 0 50 50"><g fill="none" stroke="#000" stroke-linecap="round" stroke-linejoin="round"><path d="m21.92 25.076.001-.074h-3.846v.048c0 1.604.25 3.12.694 4.471a23 23 0 0 1 3.386-.545 32 32 0 0 1-.235-3.9"/><path d="M22.155 28.976a23 23 0 0 0-3.386.545c.805 2.447 2.248 4.349 4.01 5.23q.119.028.238.053.628.126 1.28.17c-.971-.746-1.766-3.011-2.142-5.998m5.663-7.948c.16 1.22.252 2.561.255 3.974h3.846a14.3 14.3 0 0 0-.724-4.512c-.991.241-2.134.425-3.377.538"/><path d="M27.839 28.976q-.444-.04-.903-.069a32 32 0 0 0-4.781.069c.376 2.987 1.171 5.252 2.143 5.998q.346.027.7.028.348-.001.69-.028l.01-.006c.97-.748 1.765-3.01 2.14-5.992"/><path d="m25.697 34.968-.008.006a10 10 0 0 0 1.518-.229c1.765-.879 3.212-2.778 4.018-5.226a23 23 0 0 0-3.386-.543c-.376 2.982-1.17 5.244-2.142 5.992"/><path d="M28.074 25.076c0 1.383-.084 2.7-.235 3.9 1.248.113 2.393.3 3.386.543.445-1.35.695-2.865.695-4.469v-.048h-3.847zm-5.897-4.045a23 23 0 0 1-3.375-.537 14.3 14.3 0 0 0-.727 4.508h3.846c.003-1.413.095-2.753.256-3.97"/><path d="M24.997 21.156a32 32 0 0 1-2.82-.125 31 31 0 0 0-.256 3.97h6.152a31 31 0 0 0-.255-3.973 32 32 0 0 1-2.821.128m-3.077 3.92c0 1.382.084 2.7.235 3.9a31 31 0 0 1 4.78-.07q.46.03.904.07c.151-1.2.235-2.517.235-3.9v-.074H21.92zm5.628-5.686.003-.002zc.105.513.195 1.063.27 1.637a23.4 23.4 0 0 0 3.377-.538 12 12 0 0 0-.458-1.168c-.917-2.006-2.304-3.5-3.925-4.15a10 10 0 0 0-1.386-.16q.084.04.168.093c.81.527 1.508 2.102 1.954 4.286"/><path d="M22.491 19.19c-.123.573-.227 1.19-.314 1.841q.414.037.84.064a32 32 0 0 0 4.256-.022 30 30 0 0 0 .545-.045 24 24 0 0 0-.27-1.637c-.446-2.184-1.143-3.76-1.954-4.286a1.4 1.4 0 0 0-.168-.092 10 10 0 0 0-.429-.011q-.218.002-.434.013c-.853.4-1.593 1.958-2.072 4.176"/><path d="M22.491 19.19c.479-2.217 1.219-3.774 2.072-4.175q-.698.03-1.37.15c-1.568.628-2.915 2.05-3.834 3.956q-.314.652-.557 1.373c.99.24 2.133.425 3.375.537.087-.65.191-1.268.314-1.84m.288 15.559c-1.762-.88-3.205-2.782-4.01-5.229a12.4 12.4 0 0 0-1.915.623q-.176.076-.338.156a10 10 0 0 0 6.263 4.45m9.141-9.748v.048c0 1.604-.25 3.119-.695 4.469.795.195 1.492.425 2.063.685h.008-.008l.19.09a9.93 9.93 0 0 0 1.52-5.292z"/><path d="M31.225 29.519c-.806 2.448-2.253 4.347-4.018 5.226l.066-.013a10.02 10.02 0 0 0 6.206-4.438l-.191-.09c-.57-.26-1.268-.49-2.063-.685m-4.289-14.326-.124-.021c1.621.65 3.008 2.144 3.925 4.15l.005-.002-.005.002c.17.372.321.764.458 1.168.9-.219 1.675-.484 2.286-.784q-.094-.15-.193-.297a10 10 0 0 0-6.352-4.216"/><path d="M31.92 25.002h3.077c0-1.945-.555-3.76-1.516-5.296-.61.3-1.386.565-2.286.784.458 1.36.719 2.89.724 4.512m-13.117-4.508c-.898-.219-1.67-.483-2.28-.782a9.93 9.93 0 0 0-1.525 5.29h3.078c.005-1.621.267-3.15.727-4.508m-.033 9.027a14.4 14.4 0 0 1-.695-4.471v-.048h-3.077a9.94 9.94 0 0 0 1.52 5.298q.16-.08.337-.156a12.3 12.3 0 0 1 1.915-.623"/><path d="M19.36 19.121c.918-1.907 2.265-3.328 3.834-3.955a10 10 0 0 0-6.672 4.546c.61.299 1.382.563 2.28.782q.243-.722.557-1.373"/></g><g fill="none" stroke="#000" stroke-linecap="round" stroke-linejoin="round"><path d="M36.521 8.653 34.8 13.717c.067.058.135.112.201.172.512.46.98.95 1.414 1.462l4.98-1.809m-6.596.175 1.722-5.064a20 20 0 0 0-3.04-1.772l-3.412 4.056m13.083 5.653-4.023 3.527q.357 1.038.558 2.11l5.224.88"/><path d="m39.129 20.117 4.023-3.528a20 20 0 0 0-1.758-3.047l-4.98 1.809m-8.681-5.048-1.08-5.235a20 20 0 0 0-3.518.019l-.888 5.223m4.407-5.242 1.08 5.235q1.186.22 2.335.634l3.412-4.056M29.89 39.126l3.531 4.022a20 20 0 0 0 3.045-1.76l-1.81-4.98M16.615 6.837l3.522 4.028a15 15 0 0 1 2.11-.555l.888-5.223M39.7 27.713l5.234-1.087c.095-1.172.088-2.35-.023-3.518l-5.224-.88"/><path d="m41.354 36.512-5.066-1.72c-.06.07-.116.14-.177.208-.458.51-.947.977-1.455 1.408l1.81 4.98"/><path d="m36.288 34.793 5.066 1.72a20 20 0 0 0 1.77-3.041l-4.058-3.41"/><path d="m44.934 26.626-5.233 1.087q-.22 1.194-.635 2.349l4.057 3.41m-20.828 6.23 1.09 5.233a20 20 0 0 0 3.518-.025l.878-5.224m-14.334 1.64 1.732-5.062q-.09-.075-.179-.153a15 15 0 0 1-1.433-1.484l-4.983 1.799m6.596-.162-1.733 5.062a20 20 0 0 0 3.037 1.776l3.42-4.049m3.481 5.882-1.09-5.233a15 15 0 0 1-2.391-.649l-3.42 4.049"/><path d="m33.421 43.148-3.53-4.022a15 15 0 0 1-2.11.56l-.878 5.224M10.862 29.855l-4.03 3.52a20 20 0 0 0 1.752 3.05l4.983-1.798M8.668 13.456l5.062 1.73c.054-.062.104-.125.159-.186.465-.517.96-.99 1.477-1.427l-1.8-4.983"/><path d="m20.137 10.865-3.522-4.028a20 20 0 0 0-3.05 1.753l1.801 4.983m-1.636 1.612-5.062-1.729a20 20 0 0 0-1.774 3.038l4.05 3.418m-.64 2.347-5.235 1.077a20 20 0 0 0 .017 3.518l5.222.89m-3.476 5.631 4.03-3.52a15 15 0 0 1-.554-2.11l-5.222-.89M5.069 23.336l5.235-1.077q.222-1.195.64-2.347l-4.05-3.418"/></g></svg>