<svg xmlns="http://www.w3.org/2000/svg" viewBox="0 0 50 50"><circle cx="25" cy="26.896" r="8.568" fill="none" stroke="#000" stroke-linecap="round" stroke-linejoin="round"/><path fill="none" stroke="#000" stroke-linecap="round" stroke-linejoin="round" d="M18.95 27.254c0-3.608 3.032-6.534 6.77-6.534"/><path fill="none" stroke="#000" stroke-linecap="round" stroke-linejoin="round" d="M36.56 12.965h5.506A2.934 2.934 0 0 1 45 15.9v22.056a2.934 2.934 0 0 1-2.934 2.935H7.934A2.934 2.934 0 0 1 5 37.956V15.9a2.934 2.934 0 0 1 2.934-2.935h8.78a.32.32 0 0 0 .288-.18l1.21-2.47a1.81 1.81 0 0 1 1.626-1.018h10.325c.689 0 1.319.395 1.625 1.019l1.299 2.618z"/></svg>