<svg xmlns="http://www.w3.org/2000/svg" viewBox="0 0 50 50"><g fill="none" stroke="#000" stroke-linecap="round" stroke-linejoin="round"><path d="M10 5v40h30V16L29 5z"/><path d="M29 5v11h11"/></g><g fill="none" stroke="#000" stroke-linecap="round" stroke-linejoin="round"><path d="m25.033 34.095-1.23 5.17-1.914-3.447-3.155 2.376 1.29-5.287"/><path d="m24.898 33.484 1.25 5.782 1.913-3.448 3.155 2.376-1.3-5.329"/><path d="m26.469 18.927 1.91-.558.889 1.775 1.973.265.087 1.98 1.694 1.042-.73 1.845 1.124 1.638-1.42 1.39.357 1.95-1.865.695-.47 1.927-1.988-.121-1.217 1.57-1.766-.916-1.753.94-1.24-1.551-1.985.15-.498-1.92-1.875-.668.329-1.955-1.44-1.37 1.098-1.653-.756-1.835 1.679-1.065.058-1.982 1.97-.294.862-1.787 1.918.53 1.518-1.283z"/><path d="M27.97 23.255zl-3.82 5.779-2.056-2.729"/><circle cx="25.033" cy="26.145" r="5.61"/></g></svg>