<svg xmlns="http://www.w3.org/2000/svg" data-name="Isolation Mode" viewBox="0 0 50 50"><g fill="none" stroke="#000" stroke-linecap="round" stroke-linejoin="round"><path stroke-width="1.007" d="M15 28h20v5H15zM15 35h20v5H15z"/><path stroke-width=".98" d="M10 5h30v40H10z"/></g><circle cx="25" cy="16.684" r="8" fill="none" stroke="#000" stroke-linecap="round" stroke-linejoin="round"/><circle cx="22.839" cy="16.382" r="1.375" fill="none" stroke="#000" stroke-linecap="round" stroke-linejoin="round" stroke-width=".75"/><circle cx="27.118" cy="16.382" r="1.375" fill="none" stroke="#000" stroke-linecap="round" stroke-linejoin="round" stroke-width=".75"/><path fill="none" stroke="#000" stroke-linecap="round" stroke-linejoin="round" stroke-width=".75" d="M24.097 22.07v-1.802M25.9 20.268v1.802M25.276 19.222c.23 0 .416-.209.416-.466 0-.229-.502-.938-.71-.938s-.7.713-.7.938c0 .257.187.466.416.466z"/><path fill="none" stroke="#000" stroke-linecap="round" stroke-linejoin="round" stroke-width=".75" d="M22.745 21.656c0 .251 1.01.454 2.254.454s2.254-.203 2.254-.454v-1.838s3.29.004 2.764-4.068c-.307-2.374-1.96-3.58-3.286-4.14a4.44 4.44 0 0 0-3.459-.001c-1.327.56-2.982 1.766-3.289 4.14-.525 4.073 2.762 4.069 2.762 4.069z"/></svg>