<svg xmlns="http://www.w3.org/2000/svg" data-name="Isolation Mode" viewBox="0 0 50 50"><path d="M21.972 29.984a1 1 0 1 0 0 1.998 1 1 0 0 0 0-1.998"/><path fill="none" stroke="#000" stroke-linecap="round" stroke-linejoin="round" d="m41.999 15 .015-9h-40l-.028 22.984M2.014 29v4l30-.012M21.945 32.982v2.998M14.014 35.98h16M2.014 29l30-.016"/><path fill="none" stroke="#000" stroke-linecap="round" stroke-linejoin="round" d="M25.596 13.881h.001l-4.766 7.21-2.565-3.405"/><circle cx="21.931" cy="17.486" r="7" fill="none" stroke="#000" stroke-miterlimit="10"/><path fill="none" stroke="#000" stroke-linecap="round" stroke-linejoin="round" d="M38.585 42.531h2.901M48.014 18.595v-2.87c0-.4-.325-.725-.725-.725H32.782c-.4 0-.725.325-.725.725v2.87m0 21.76v2.92c0 .4.324.725.725.725h14.507c.4 0 .725-.325.725-.725v-2.92"/><rect width="15.957" height="23.211" x="32.057" y="17.87" fill="none" stroke="#000" stroke-linecap="round" stroke-linejoin="round" rx=".725" ry=".725"/><path d="M34.233 15.694a.725.725 0 1 0 0 1.45.725.725 0 0 0 0-1.45"/><ellipse cx="40.007" cy="29" fill="none" stroke="#000" stroke-miterlimit="10" rx="4.992" ry="4.999"/><path fill="none" stroke="#000" stroke-linecap="round" stroke-linejoin="round" d="m42.284 26.212-4.506 5.573M37.69 26.212l4.505 5.573"/></svg>