<svg xmlns="http://www.w3.org/2000/svg" data-name="Layer 1" viewBox="0 0 50 50"><path fill="none" stroke="#000" stroke-linecap="round" stroke-linejoin="round" d="M41.284 5.428H8.716A3.727 3.727 0 0 0 5 9.145v8.758h9.033v-1.437c0-1.11.9-2.01 2.009-2.01h17.916c1.11 0 2.009.9 2.009 2.01v1.437H45v-8.75a3.73 3.73 0 0 0-3.716-3.725m-5.316 28.107c0 1.11-.9 2.01-2.01 2.01H16.044c-1.11 0-2.01-.9-2.01-2.01v-1.438H5v8.758a3.727 3.727 0 0 0 3.716 3.717h32.568A3.727 3.727 0 0 0 45 40.855v-8.752h-9.032zM5 20.487h9.033v9.032H5zm30.968 0H45v9.032h-9.032z"/></svg>