<svg xmlns="http://www.w3.org/2000/svg" data-name="Isolation Mode" viewBox="0 0 50 50"><path fill="none" stroke="#000" stroke-linecap="round" stroke-linejoin="round" d="M31.315 24.723 20.51 35.561c-2.61-1.42-5.892-.384-7.224 2.322-1.202 2.443-.304 5.495 2.024 6.88 2.579 1.532 5.888.591 7.308-2.038a5.31 5.31 0 0 0 .011-5.028l3.354-3.36 2.27 2.297c.586.59 1.537.59 2.125 0s.59-1.548.005-2.137v-.003l-2.274-2.292 2.13-2.137 2.274 2.293c.595.58 1.546.563 2.124-.037a1.517 1.517 0 0 0 .006-2.099l-2.274-2.294 1.012-1.01c.524-.525.659-1.364.24-1.974a1.5 1.5 0 0 0-2.305-.22M16.11 39.768a2 2 0 1 1 3.904.869 2 2 0 0 1-3.904-.87"/><g fill="none" stroke="#000" stroke-linecap="round" stroke-linejoin="round"><path d="M29.682 17.556c.13-.543.21-1.105.21-1.687 0-2.813-1.602-5.257-3.957-6.498m0-.001a7.55 7.55 0 0 0-3.53-.87c-3.21 0-5.948 1.988-7.013 4.781a6.5 6.5 0 0 0-2.639-.56c-3.536 0-6.403 2.821-6.403 6.301v0c-2.37.01-4.29 1.904-4.29 4.239 0 2.341 1.93 4.239 4.308 4.239h8.009M37.759 23.5"/><path d="M37.759 23.5h4.925c2.97 0 5.377-2.369 5.377-5.291 0-1.85-.966-3.475-2.426-4.42a7.3 7.3 0 0 0 .258-1.92c0-4.07-3.353-7.369-7.488-7.369-3.21 0-5.948 1.988-7.013 4.781a6.46 6.46 0 0 0-5.457.09M37.759 23.5c.085.444.134.9.134 1.369a7.3 7.3 0 0 1-.258 1.92c1.46.945 2.426 2.57 2.426 4.42 0 2.922-2.408 5.291-5.377 5.291H33.06"/><path d="M37.759 23.5c-.653-3.415-3.695-6-7.354-6-3.21 0-5.948 1.988-7.013 4.781a6.5 6.5 0 0 0-2.639-.56c-3.536 0-6.403 2.821-6.403 6.301v0c-2.37.01-4.29 1.904-4.29 4.239 0 1.503.801 2.816 2 3.569"/></g></svg>