<svg xmlns="http://www.w3.org/2000/svg" data-name="Layer 1" viewBox="0 0 50 50"><g fill="none" stroke="#000" stroke-linecap="round" stroke-linejoin="round"><path d="m15.872 22.936-6.986 2.545c.09 1.121.29 2.228.555 3.314l6.641-2.419a13 13 0 0 1-.203-3.44m30.896-7.733a20 20 0 0 0-1.705-2.895l-6.992 2.545a13 13 0 0 1 2.054 2.768z"/><path d="M31.389 13.223a12.9 12.9 0 0 1 3.777 2.69l6.992-2.544a19.9 19.9 0 0 0-7.807-6.497c-9.995-4.66-21.919-.32-26.58 9.673a19.9 19.9 0 0 0-1.806 9.996l6.992-2.544a13 13 0 0 1 1.164-4.489c3.029-6.494 10.774-9.313 17.268-6.284"/></g><path fill="none" stroke="#000" stroke-linecap="round" stroke-linejoin="round" d="m9.868 28.636-6.643 2.418a20.2 20.2 0 0 0 3.124 6.772l6.976-2.54a13.06 13.06 0 0 1-3.457-6.652M38.845 26a12.8 12.8 0 0 1-1.173 4.49c-3.03 6.495-10.774 9.313-17.268 6.284a12.9 12.9 0 0 1-3.785-2.685l-6.977 2.54a19.83 19.83 0 0 0 7.801 6.499c9.995 4.66 21.918.32 26.58-9.674a19.8 19.8 0 0 0 1.799-9.992l-6.976 2.54zm1.721-8.537-6.644 2.419a13.04 13.04 0 0 1 1.626 7.316l6.977-2.538a20.2 20.2 0 0 0-1.96-7.197"/></svg>