<svg xmlns="http://www.w3.org/2000/svg" viewBox="0 0 50 50"><path fill="#231f20" d="M23.27 26.27v-.01a.686.686 0 0 0-.678.589l-1.302.651a.37.37 0 0 0-.2.42l.357 1.614-.697-.143a.69.69 0 0 0-.65-.451v-.01c-.39 0-.7.31-.7.7s.31.7.7.7h.05a.7.7 0 0 0 .445-.21l1.102.226.338.725a.7.7 0 0 0-.105.349c0 .39.31.7.7.7h.05c.36-.03.65-.33.65-.69s-.27-.642-.618-.684l-.422-.906-.4-1.8 1.001-.505c.11.072.235.125.379.125h.05c.36-.03.65-.32.65-.69s-.31-.7-.7-.7M22.31 33.9h-.01zM20.22 25.026a.696.696 0 0 0 .32 1.314h.05c.36-.03.65-.33.65-.69a.69.69 0 0 0-.272-.542l.052-.774 1.618-.243a.7.7 0 0 0 .462.209h.05c.39 0 .7-.31.7-.7s-.31-.7-.7-.7v.01a.69.69 0 0 0-.647.434l-1.637.245-.645-1.21A.66.66 0 0 0 20.35 22c0-.37-.31-.7-.7-.7v-.01c-.39 0-.7.31-.7.7 0 .344.246.612.57.674l.763 1.427zm6.56-.716h.05a.7.7 0 0 0 .509-.222l1.651.247.051.757a.69.69 0 0 0-.281.548c0 .39.29.67.65.69h.05a.696.696 0 0 0 .33-1.308l-.063-.939.765-1.431a.685.685 0 0 0 .558-.672c0-.39-.31-.7-.7-.7v.01c-.39 0-.7.31-.7.7 0 .154.055.284.132.395l-.643 1.204-1.663-.249a.69.69 0 0 0-.646-.43v.01c-.39 0-.7.31-.7.7s.29.67.65.69m3.12 4.61v.01c-.3 0-.549.185-.65.447l-.694.142.354-1.599a.38.38 0 0 0-.2-.42l-1.3-.65a.69.69 0 0 0-.68-.6v.01c-.39 0-.7.31-.7.7s.29.67.65.69h.05c.14 0 .262-.05.37-.12l1.01.51-.4 1.8-.417.895a.69.69 0 0 0-.623.685c0 .39.29.67.65.69h.05c.39 0 .7-.31.7-.7a.7.7 0 0 0-.102-.345l.342-.734 1.077-.222c.118.124.281.2.463.211h.05c.39 0 .7-.31.7-.7s-.31-.7-.7-.7"/><path fill="#231f20" d="M32.88 25.985c.062-.088.135-.169.18-.265.53-1.12-.22-2.43-.43-2.75.09-.49.28-2.17-1.03-2.78a3.8 3.8 0 0 0-.965-.29c.148-1.139-.39-2.205-1.065-2.48a1.3 1.3 0 0 0-.55-.088c-1.33-1.161-2.817-1.43-3.64-1.062a1.2 1.2 0 0 0-.377.303 1.3 1.3 0 0 0-.393-.313c-.811-.357-2.292-.1-3.608 1.062a1.3 1.3 0 0 0-.572.088c-.68.278-1.22 1.358-1.06 2.507a3.8 3.8 0 0 0-.99.293c-1.3.61-1.12 2.25-1.03 2.78-.2.32-.95 1.63-.43 2.75.045.097.119.178.18.266-.583.648-.651 1.478-.44 2.014.24.73.8 1.31 1.25 1.48-.15.79.09 1.59.66 2.17.35.43.87.7 1.49.76.35.899 1.258 1.468 2.246 1.47q.237-.003.474-.05c1.232-.147 1.876-.659 2.215-1.147.336.486.969.995 2.185 1.137.17.03.34.05.5.05v-.01c.99 0 1.9-.57 2.26-1.46.59-.05 1.13-.32 1.47-.74.59-.6.84-1.42.68-2.19.45-.17 1-.74 1.24-1.46.221-.557.15-1.395-.45-2.045m-10.2 7.125c-.85.17-1.7-.29-1.95-1.02-.08-.26-.34-.43-.56-.4-.41-.02-.79-.2-1.05-.52-.44-.45-.61-1.07-.43-1.73a.55.55 0 0 0-.11-.41.6.6 0 0 0-.39-.22c-.15-.03-.62-.42-.83-1.04-.127-.339-.05-.83.288-1.223.4.274.921.482 1.582.603h.07l-.02.02c.18 0 .34-.13.37-.31.04-.21-.1-.4-.3-.44-.655-.117-1.127-.32-1.44-.59l-.01-.02a.4.4 0 0 0-.114-.095 1.2 1.2 0 0 1-.206-.285c-.33-.72.19-1.75.42-2.08.09-.13.13-.29.09-.44-.03-.16-.3-1.6.6-2.02.8-.37 1.59-.38 2.15-.03.52.34.78.91.7 1.48-.03.21.11.4.32.43.2.03.4-.12.43-.32.13-.86-.27-1.71-1.04-2.22-.337-.21-.725-.312-1.134-.345-.144-.849.217-1.638.584-1.785.44-.17 1.008.288 1.556.737-.003.029-.016.054-.016.083 0 .39.31.7.7.7h.05c.36-.03.65-.33.65-.69 0-.39-.31-.7-.7-.7v-.01a.7.7 0 0 0-.2.04 7 7 0 0 0-.886-.649c1.018-.74 2.012-.851 2.436-.661.208.104.323.36.335.574 0 .009-.005.017-.005.026V31.7l.003.038c-.035.238-.285 1.176-1.943 1.372m9.94-5.33c-.2.6-.67.99-.82 1.02-.15.02-.3.1-.39.22s-.13.26-.09.48c.16.59 0 1.21-.47 1.69-.24.3-.62.48-.97.5a.57.57 0 0 0-.61.39c-.25.74-1.11 1.19-1.98 1.03-1.717-.206-1.9-1.229-1.916-1.389 0-.01.006-.02.006-.031V17.56c0-.22.12-.5.32-.61.443-.2 1.445-.088 2.468.659a7 7 0 0 0-.888.645.7.7 0 0 0-.22-.044v.01c-.39 0-.7.31-.7.7s.29.67.65.69h.05c.39 0 .7-.31.7-.7 0-.023-.01-.043-.013-.066.538-.448 1.105-.913 1.543-.734.363.145.72.917.59 1.754-.417.033-.814.14-1.16.356-.76.51-1.16 1.36-1.03 2.22.03.21.23.35.43.32.21-.03.35-.22.32-.43-.08-.56.19-1.13.7-1.47.57-.36 1.36-.35 2.16.02.9.42.63 1.85.6 2.01-.04.15-.01.31.08.44.23.33.75 1.36.42 2.08q-.345.72-1.77.99c-.2.04-.34.24-.3.44.04.18.19.31.37.31l-.02-.02h.07c.661-.121 1.182-.329 1.583-.603.345.395.424.894.287 1.253M25.01 8.46a2.39 2.39 0 1 0 0-4.78 2.39 2.39 0 0 0 0 4.78m0-3.78c.77 0 1.39.62 1.39 1.39s-.62 1.39-1.39 1.39-1.39-.62-1.39-1.39.62-1.39 1.39-1.39m0 5.68c.07 0 .13-.01.2-.04.06-.02.11-.06.16-.11.04-.04.08-.1.11-.16s.03-.13.03-.19c0-.07-.01-.13-.03-.19a.6.6 0 0 0-.11-.16.4.4 0 0 0-.16-.11.53.53 0 0 0-.39 0c-.06.02-.11.06-.16.11-.05.04-.08.1-.11.16-.02.06-.04.12-.04.19 0 .06.02.13.04.19.03.06.06.12.11.16.09.1.22.15.35.15m-.67 2.88c-.19-.2-.51-.2-.71-.01s-.2.51-.01.71l.98 1.01c.1.1.23.15.36.15.01 0 .02-.005.03-.006.01 0 .02.006.03.006s.02-.005.03-.006c.01 0 .02.006.03.006.13 0 .26-.05.36-.15l.98-1.01c.19-.2.19-.52-.01-.71a.504.504 0 0 0-.71.01l-.19.196V11.75c0-.28-.22-.5-.5-.5-.27 0-.5.22-.5.5 0 .017.008.032.01.049v1.626zm.63 28.33a2.39 2.39 0 1 0 0 4.78 2.39 2.39 0 0 0 0-4.78m0 3.78c-.77 0-1.39-.62-1.39-1.39s.62-1.39 1.39-1.39 1.39.62 1.39 1.39-.62 1.39-1.39 1.39m-.19-5.64a.6.6 0 0 0-.16.11c-.09.1-.15.22-.15.35 0 .07.02.13.04.2.03.06.06.11.11.16.05.04.1.08.16.11.06.02.13.04.19.04.13 0 .26-.06.36-.15.04-.05.08-.1.11-.16.03-.07.03-.13.03-.2 0-.06-.01-.13-.03-.19a1 1 0 0 0-.11-.16.51.51 0 0 0-.55-.11m.87-2.92a.507.507 0 0 0 .71.01c.2-.19.2-.51.01-.71l-.98-1.01a.48.48 0 0 0-.395-.143c-.013-.001-.023-.007-.035-.007-.009 0-.016.005-.025.005a.48.48 0 0 0-.385.145l-.98 1.01c-.19.2-.19.52.01.71a.507.507 0 0 0 .71-.01l.18-.186v1.676c0 .28.22.5.5.5s.5-.22.5-.5c0-.018-.008-.033-.01-.05v-1.636zM8.03 16.23c-.6-.22-1.25-.19-1.83.08s-1.02.75-1.24 1.35-.19 1.25.08 1.83.75 1.02 1.35 1.24c.27.1.55.15.82.15v-.01a2.387 2.387 0 0 0 2.17-3.4c-.27-.58-.75-1.02-1.35-1.24m.49 2.74c-.27.72-1.07 1.09-1.79.83-.35-.13-.63-.38-.79-.72a1.4 1.4 0 0 1-.04-1.06c.13-.35.38-.63.72-.79a1.37 1.37 0 0 1 1.07-.04c.35.13.63.38.79.72.15.33.17.71.04 1.06m1.89.47c-.05.04-.08.1-.11.16-.02.06-.04.12-.04.19a.51.51 0 0 0 .51.5c.13 0 .25-.05.35-.15.09-.09.15-.22.15-.35s-.06-.26-.15-.35a.513.513 0 0 0-.71 0m5.255 2.172c.006-.013.02-.019.025-.032.004-.01.002-.022.005-.033a.5.5 0 0 0-.005-.417l-.61-1.26a.5.5 0 1 0-.9.44l.112.231-1.572-.571a.5.5 0 0 0-.2-.027.51.51 0 0 0-.45.327c-.09.26.04.54.3.64.007.003.013 0 .02.003l1.551.564-.231.103a.502.502 0 0 0 .21.96v-.01c.07 0 .13-.01.2-.04l1.28-.57a.48.48 0 0 0 .265-.308M43.6 29.29c-.6-.21-1.25-.19-1.83.08s-1.02.75-1.24 1.35-.19 1.25.08 1.83.75 1.02 1.35 1.24c.26.1.54.15.82.15v-.01a2.385 2.385 0 0 0 2.25-1.57c.22-.6.19-1.25-.08-1.83s-.75-1.02-1.35-1.24m.48 2.73a1.38 1.38 0 0 1-1.78.82c-.35-.13-.63-.38-.79-.72a1.39 1.39 0 0 1 1.27-1.97v-.01q.24 0 .48.09c.34.13.62.38.78.72.15.34.17.72.04 1.07m-4.5-2.13a.54.54 0 0 0-.55-.11c-.06.03-.11.06-.16.11s-.08.1-.11.16c-.02.06-.04.12-.04.19 0 .13.05.26.15.35.09.1.22.15.35.15a.49.49 0 0 0 .5-.5c0-.07-.01-.13-.03-.19-.03-.06-.07-.11-.11-.16m-2.14.2c.21 0 .4-.12.47-.33.1-.26-.03-.54-.29-.64l-.016-.002-1.573-.572.239-.106c.25-.11.36-.41.25-.66a.5.5 0 0 0-.66-.25l-1.28.57a.48.48 0 0 0-.27.332q-.005.009-.01.018c-.004.01-.002.022-.005.033a.5.5 0 0 0 .005.417l.61 1.26c.09.18.26.28.45.28a.5.5 0 0 0 .45-.72l-.112-.231 1.572.571c.06.03.12.03.17.03m.14-22.29a2.386 2.386 0 0 0-3.34.52c-.78 1.06-.55 2.56.52 3.34.42.3.91.46 1.41.46.12 0 .25-.01.37-.03.63-.1 1.18-.43 1.56-.95s.53-1.15.43-1.78-.43-1.18-.95-1.56m-.28 2.74c-.22.31-.54.5-.91.56-.37.05-.74-.03-1.04-.25-.62-.46-.75-1.33-.3-1.95.28-.37.7-.57 1.13-.57l-.01-.01c.29 0 .57.09.82.27.31.22.5.54.56.91s-.03.74-.25 1.04m-3.35 2.74a.5.5 0 0 0 .35-.14c.1-.09.15-.22.15-.36a.47.47 0 0 0-.15-.35.513.513 0 0 0-.71 0 .52.52 0 0 0 0 .71c.1.09.22.14.36.14M30.842 17c.007.006.01.014.018.02l.016.009c.09.08.207.131.334.131h.09l1.38-.24c.27-.05.46-.31.41-.58-.05-.28-.31-.47-.58-.41l-.273.047.98-1.348c.006-.008.017-.01.023-.019.16-.22.11-.54-.11-.7a.52.52 0 0 0-.377-.087.5.5 0 0 0-.333.197l-.978 1.347-.032-.237a.49.49 0 0 0-.56-.43.49.49 0 0 0-.43.56l.19 1.39c.018.154.11.275.232.35M15.21 38.38c-.52-.38-1.15-.53-1.78-.43s-1.18.43-1.56.95-.53 1.15-.43 1.78.43 1.18.95 1.56c.42.3.91.46 1.41.46.12 0 .25-.01.37-.03.63-.1 1.18-.43 1.56-.95.78-1.06.55-2.56-.52-3.34m-.27 2.76c-.22.3-.54.49-.91.55s-.74-.03-1.04-.25c-.31-.22-.5-.54-.56-.91s.03-.73.25-1.04.54-.5.91-.56c.07-.02.15-.02.22-.02l.01.01c.29 0 .58.09.82.27.62.46.75 1.33.3 1.95m1.29-4.35a.49.49 0 0 0-.54.1q-.15.15-.15.36c0 .13.05.26.15.35.09.09.22.15.35.15s.26-.06.35-.15c.1-.09.15-.22.15-.35a.5.5 0 0 0-.15-.36.5.5 0 0 0-.16-.1m2.943-3.743c-.016-.015-.025-.034-.043-.047-.011-.008-.024-.009-.035-.016a.5.5 0 0 0-.395-.104l-1.38.24c-.27.05-.46.31-.41.58.04.24.25.41.49.41h.09l.245-.043-.975 1.343v.001l-.01.009a.506.506 0 0 0 .4.8c.16 0 .31-.07.41-.21l.001-.003.009-.007.975-1.343.035.253c.03.25.24.43.49.43h.07a.49.49 0 0 0 .43-.56l-.19-1.39a.48.48 0 0 0-.207-.343M13.48 12.06c.13.03.26.03.38.03a2.393 2.393 0 0 0 1.92-3.8 2.393 2.393 0 0 0-3.34-.52c-1.06.77-1.3 2.27-.52 3.34.37.51.93.85 1.56.95m-.45-3.49c.63-.45 1.5-.31 1.95.31.46.62.32 1.5-.3 1.95-.31.22-.67.3-1.04.25-.37-.06-.69-.26-.91-.56-.46-.62-.32-1.5.3-1.95m3.51 3.99a.5.5 0 0 0-.1-.16.6.6 0 0 0-.17-.11.5.5 0 0 0-.38 0c-.06.03-.12.06-.16.11-.05.05-.09.1-.11.16-.03.06-.04.13-.04.2 0 .06.01.12.04.19.02.06.06.11.11.16.09.09.22.15.35.15.07 0 .13-.02.19-.04a1 1 0 0 0 .17-.11c.04-.05.08-.1.1-.16.04-.07.04-.13.04-.19 0-.07-.01-.14-.04-.2m.259 2.027.001.003.986 1.345-.256-.045a.5.5 0 0 0-.58.41c-.04.27.14.53.41.58l1.38.24h.09a.5.5 0 0 0 .284-.094c.022-.012.045-.02.066-.036.014-.01.022-.026.034-.038a.48.48 0 0 0 .206-.332l.19-1.39a.51.51 0 0 0-.43-.56.51.51 0 0 0-.56.43l-.032.233L17.61 14l-.01-.008v-.002a.506.506 0 0 0-.7-.11c-.22.16-.27.48-.11.7zM34.72 38.41c-1.06.77-1.3 2.27-.52 3.34.37.51.93.85 1.56.95.13.03.26.03.38.03a2.393 2.393 0 0 0 1.92-3.8 2.393 2.393 0 0 0-3.34-.52m2.24 3.06c-.3.22-.68.3-1.04.25-.37-.06-.69-.26-.91-.56-.46-.62-.32-1.5.3-1.95.25-.18.54-.27.82-.27v.01c.43 0 .86.2 1.13.57.46.62.32 1.5-.3 1.95m-2.86-3.73c.06-.03.11-.06.16-.11.05-.04.08-.1.11-.16.02-.06.04-.13.04-.19 0-.07-.02-.13-.04-.19a.5.5 0 0 0-.11-.17.53.53 0 0 0-.55-.11c-.06.03-.11.07-.16.11-.09.1-.14.23-.14.36a.5.5 0 0 0 .3.46c.07.03.13.04.2.04.06 0 .13-.01.19-.04m-.9-2.29-.979-1.34.229.04h.09c.24 0 .45-.17.49-.41a.514.514 0 0 0-.41-.58l-1.38-.24a.48.48 0 0 0-.4.11c-.006.005-.014.005-.02.01-.017.012-.026.03-.04.044a.5.5 0 0 0-.23.346l-.19 1.39c-.03.27.16.52.43.56h.07c.24 0 .46-.18.49-.43l.038-.281 1.002 1.371c.1.14.25.21.4.21l.009-.001.001.001c.1 0 .2-.03.29-.1a.5.5 0 0 0 .197-.327.5.5 0 0 0-.087-.373M43.09 21.8h-.02zM45.36 18.7c-.19-.61-.6-1.11-1.17-1.41-.56-.3-1.21-.36-1.82-.17-1.26.4-1.96 1.74-1.57 3a2.41 2.41 0 0 0 2.28 1.68c.236-.002.463-.041.7-.11.61-.19 1.11-.6 1.41-1.17.3-.56.36-1.21.17-1.82m-1.05 1.35c-.17.33-.47.57-.82.68-.73.23-1.51-.19-1.74-.92-.22-.73.19-1.51.92-1.74q.208-.06.416-.06c.228.001.446.05.644.16.33.17.57.46.68.82.11.35.07.73-.1 1.06m-5.19.13a.47.47 0 0 0-.15.35c0 .14.05.26.15.35a.491.491 0 0 0 .85-.35.5.5 0 0 0-.14-.35.513.513 0 0 0-.71 0m-3.28.03a.506.506 0 0 0-.68.2l-.67 1.23a.5.5 0 0 0-.05.264l.001.012c.003.036 0 .073.011.107.004.026 0 .051.008.077.006.02.026.028.034.046a.48.48 0 0 0 .256.314l1.25.63c.07.03.14.05.22.05v.01c.19 0 .36-.11.45-.28.13-.25.03-.55-.22-.67l-.24-.121 1.59-.499c.05-.017.09-.046.131-.074a.48.48 0 0 0 .209-.566.49.49 0 0 0-.439-.343.5.5 0 0 0-.201.023l-1.583.497.123-.227c.13-.24.04-.55-.2-.68M6.2 28.34c-.61.19-1.11.6-1.41 1.17-.3.56-.36 1.21-.17 1.82s.6 1.11 1.17 1.41c.35.19.73.28 1.11.28h.02a2.403 2.403 0 0 0 2.28-3.11 2.403 2.403 0 0 0-3-1.57m1.11 3.61c-.73.23-1.51-.19-1.74-.92a1.4 1.4 0 0 1 .1-1.06 1.39 1.39 0 0 1 1.23-.74c.59 0 1.14.38 1.33.98.22.73-.19 1.51-.92 1.74m3.56-2.8a.513.513 0 0 0-.71 0c-.05.04-.08.1-.11.16-.02.06-.04.12-.04.19 0 .13.06.26.15.35.09.1.22.15.35.15q.21 0 .36-.15a.5.5 0 0 0 .14-.35c0-.07-.01-.13-.03-.19a.5.5 0 0 0-.11-.16m3.28.67q.12.06.24.06c.18 0 .35-.09.44-.26l.67-1.23a.5.5 0 0 0 .024-.41c-.003-.013 0-.027-.004-.04l-.01-.02a.48.48 0 0 0-.26-.34L14 26.95a.49.49 0 0 0-.67.22c-.13.25-.03.55.22.67l.233.117-1.599.502-.014.001c-.26.08-.41.36-.33.63.07.21.27.35.48.35h.01c.05 0 .15-.02.15-.02l1.589-.498-.119.218c-.13.24-.04.55.2.68"/></svg>