<svg xmlns="http://www.w3.org/2000/svg" data-name="Isolation Mode" viewBox="0 0 50 50"><rect width="10" height="10" x="10.5" y="12.018" fill="none" stroke="#000" stroke-linecap="round" stroke-linejoin="round" rx="1.467" ry="1.467"/><path fill="none" stroke="#000" stroke-linecap="round" stroke-linejoin="round" d="M16.5 22V12M20.5 19h-4M20.5 15h-4M10.5 19h3M10.5 15h3v7"/><path fill="none" stroke="#000" stroke-linecap="round" stroke-linejoin="round" d="M23.5 9.109v13.969c0 1.061-.874 1.922-1.952 1.922H9.452C8.374 25 7.5 24.14 7.5 23.078V6.922C7.5 5.861 8.374 5 9.452 5h10.283z"/><rect width="10" height="10" x="29.5" y="32.018" fill="none" stroke="#000" stroke-linecap="round" stroke-linejoin="round" rx="1.467" ry="1.467"/><path fill="none" stroke="#000" stroke-linecap="round" stroke-linejoin="round" d="M35.5 42V32M39.5 39h-4M39.5 35h-4M29.5 39h3M29.5 35h3v7"/><path fill="none" stroke="#000" stroke-linecap="round" stroke-linejoin="round" d="M42.5 29.109v13.969c0 1.061-.874 1.922-1.952 1.922H28.452c-1.078 0-1.952-.86-1.952-1.922V26.922c0-1.061.874-1.922 1.952-1.922h10.283zM20.5 41l3-3-3-3"/><path fill="none" stroke="#000" stroke-linecap="round" stroke-linejoin="round" d="M11.5 28c0 5.523 4.477 10 10 10h2M29.5 9l-3 3 3 3"/><path fill="none" stroke="#000" stroke-linecap="round" stroke-linejoin="round" d="M38.5 22c0-5.523-4.477-10-10-10h-2"/></svg>