<svg xmlns="http://www.w3.org/2000/svg" viewBox="0 0 50 50"><g fill="none" stroke="#000" stroke-linecap="round" stroke-linejoin="round"><path d="M20.32 38.397h-7.945M20.32 31.705v6.692M29.68 38.397h7.945M29.68 31.705v6.692M25.017 32.476V47M20.488 17.84l.002-.11h-5.665l-.001.07c0 2.363.369 4.596 1.023 6.586 1.461-.36 3.148-.635 4.987-.804a46 46 0 0 1-.346-5.742"/><path d="M20.834 23.582c-1.839.169-3.526.444-4.987.804 1.185 3.603 3.31 6.404 5.905 7.701q.175.042.352.079.924.185 1.885.25c-1.43-1.1-2.601-4.434-3.155-8.834m8.34-11.705c.237 1.796.371 3.772.376 5.853h5.664c-.008-2.388-.392-4.642-1.067-6.645-1.46.355-3.142.627-4.973.792"/><path d="M29.205 23.582q-.654-.06-1.33-.101a47 47 0 0 0-2.855-.087c-1.456 0-2.86.067-4.186.188.554 4.4 1.724 7.735 3.155 8.835.341.024.684.04 1.03.04q.515-.002 1.019-.041l.013-.009c1.43-1.101 2.6-4.432 3.154-8.825"/><path d="m26.05 32.407-.012.009a15 15 0 0 0 2.236-.336c2.6-1.295 4.73-4.093 5.918-7.698-1.462-.358-3.15-.633-4.987-.8-.554 4.393-1.724 7.724-3.154 8.825"/><path d="M29.551 17.84a46 46 0 0 1-.346 5.742c1.838.167 3.525.442 4.987.8.654-1.988 1.024-4.22 1.024-6.581l-.002-.071H29.55zm-8.684-5.958c-1.83-.165-3.513-.437-4.972-.792-.676 2.001-1.063 4.253-1.07 6.64h5.665c.004-2.08.14-4.054.377-5.848"/><path d="M25.02 12.065a47 47 0 0 1-4.153-.183 46 46 0 0 0-.377 5.848h9.06a46 46 0 0 0-.376-5.853q-.397.037-.803.066a47 47 0 0 1-3.351.122m-4.532 5.775c0 2.034.123 3.974.346 5.742a46 46 0 0 1 4.186-.188 47 47 0 0 1 4.185.188 46 46 0 0 0 .346-5.742l-.001-.11h-9.06zm8.289-8.374q0-.003.003-.005zc.154.756.286 1.565.397 2.411 1.831-.165 3.514-.437 4.973-.792q-.3-.896-.674-1.72c-1.35-2.955-3.393-5.155-5.78-6.112a15 15 0 0 0-2.042-.235q.125.058.247.136c1.194.776 2.22 3.097 2.879 6.312"/><path d="M21.33 9.171a34 34 0 0 0-.463 2.71q.608.056 1.237.095 1.416.088 2.916.09a47 47 0 0 0 4.154-.189 35 35 0 0 0-.397-2.411c-.658-3.215-1.685-5.536-2.879-6.312a2 2 0 0 0-.247-.136q-.315-.015-.631-.016c-.215 0-.427.01-.64.02-1.257.59-2.346 2.883-3.05 6.15"/><path d="M21.33 9.171c.704-3.266 1.793-5.56 3.05-6.149-.685.03-1.36.102-2.017.222-2.31.924-4.294 3.016-5.646 5.825a18 18 0 0 0-.822 2.021c1.46.355 3.142.627 4.972.792.127-.958.28-1.868.462-2.71m.423 22.915c-2.595-1.297-4.72-4.098-5.905-7.701-1.071.264-2.023.572-2.82.916a11 11 0 0 0-.498.23 14.75 14.75 0 0 0 9.223 6.555M35.214 17.73l.002.07c0 2.362-.37 4.594-1.024 6.582 1.17.287 2.198.627 3.038 1.01l.011-.002-.011.001q.144.067.281.133a14.63 14.63 0 0 0 2.236-7.794z"/><path d="M34.192 24.382c-1.188 3.605-3.318 6.403-5.918 7.698l.097-.02a14.76 14.76 0 0 0 9.14-6.536q-.137-.067-.281-.133c-.84-.382-1.868-.722-3.038-1.009M27.875 3.284l-.183-.031c2.388.957 4.43 3.157 5.78 6.112l.009-.004-.008.004q.374.824.674 1.72c1.326-.322 2.468-.712 3.367-1.154a14.73 14.73 0 0 0-9.64-6.646"/><path d="M35.214 17.73h4.533c0-2.865-.818-5.538-2.233-7.8-.9.443-2.041.833-3.367 1.155.675 2.003 1.06 4.257 1.067 6.645m-19.319-6.64c-1.321-.321-2.459-.71-3.358-1.151a14.6 14.6 0 0 0-2.245 7.79h4.533c.007-2.386.394-4.638 1.07-6.639m-.048 13.296c-.654-1.99-1.023-4.223-1.023-6.585v-.071h-4.532c0 2.866.82 5.54 2.237 7.802q.239-.117.497-.23c.798-.344 1.75-.652 2.821-.916"/><path d="M16.717 9.069c1.352-2.809 3.336-4.901 5.646-5.825a14.73 14.73 0 0 0-9.826 6.695c.9.44 2.037.83 3.358 1.151q.36-1.06.821-2.021"/></g><path fill="none" stroke="#000" stroke-linecap="round" stroke-linejoin="round" d="m35.347 35.807 2.277 2.59-2.277 2.584M14.651 40.98l-2.276-2.589 2.276-2.584M27.604 44.724 25.014 47l-2.584-2.276"/></svg>