<svg xmlns="http://www.w3.org/2000/svg" data-name="Isolation Mode" viewBox="0 0 50 50"><path fill="none" stroke="#000" stroke-linecap="round" stroke-linejoin="round" d="m31.57 43.482 8.123 4.27-1.551-9.044 6.571-6.406-9.082-1.32-4.061-8.23-4.062 8.23-9.081 1.32 6.571 6.406-1.551 9.045z"/><g fill="none" stroke="#000" stroke-linecap="round" stroke-linejoin="round"><path d="M24.875 19.018c2.36-1.727 3.963-5.106 3.963-8.993 0-5.644-3.38-7.778-7.549-7.778s-7.548 2.134-7.548 7.778c0 3.887 1.604 7.267 3.964 8.994"/><path d="m5.287 36.247 2.647-11.79a4.7 4.7 0 0 1 2.036-2.674s3.184-1.993 7.734-2.765c1.067.781 2.288 1.292 3.585 1.292s2.519-.51 3.586-1.292"/><path d="M29.316 20.232a24 24 0 0 0-4.446-1.214"/></g></svg>