<svg xmlns="http://www.w3.org/2000/svg" viewBox="0 0 50 50"><path fill="none" stroke="#000" stroke-linecap="round" stroke-linejoin="round" d="M34.535 9.54q-1.006.05-2.006.087l-.003-.008-4.796-3.685c-1.584-1.217-3.491-1.246-5.093-.077l-5.166 3.77q-1-.037-2.006-.086c-3.79-.189-6.747-1.264-6.747 3.932s.703 13.62.703 13.62-.422 6.32 6.887 11.656C22.596 43.339 24.976 45 24.976 45h0s2.428-1.661 8.716-6.251c7.309-5.336 6.887-11.655 6.887-11.655s.703-8.426.703-13.621-2.957-4.12-6.747-3.932"/><path d="M25 29.5c.827 0 1.5.673 1.5 1.5s-.673 1.5-1.5 1.5-1.5-.673-1.5-1.5.673-1.5 1.5-1.5m0-1a2.5 2.5 0 1 0 0 5 2.5 2.5 0 0 0 0-5"/><path fill="none" stroke="#000" stroke-linecap="round" stroke-linejoin="round" d="M29.5 26.5c-2.485-2.667-6.515-2.667-9 0m12-3c-4.142-4-10.858-4-15 0"/><path fill="none" stroke="#000" stroke-linecap="round" stroke-linejoin="round" d="M35 20.5a14.5 14.5 0 0 0-20 0"/></svg>