<svg xmlns="http://www.w3.org/2000/svg" viewBox="0 0 50 50"><g fill="none" stroke="#000" stroke-linecap="round" stroke-miterlimit="10" stroke-width=".75"><path d="M31.228 26.094c0 .37.285.668.644.694l.05.005a.696.696 0 0 0 .694-.699.695.695 0 1 0-1.388 0Zm-2.699-3.059a.696.696 0 0 0-.68-.831.696.696 0 0 0-.05 1.393c.016 0 .032.005.049.005.338 0 .62-.244.68-.567m4.764-2.004a.696.696 0 0 0 .695-.699.696.696 0 0 0-.695-.698.696.696 0 0 0-.05 1.392zm-5.09-6.224a.696.696 0 0 0-.05 1.393c.016 0 .032.005.05.005a.696.696 0 0 0 .694-.7.696.696 0 0 0-.694-.698Zm-1.217 13.365c0 .369.285.668.644.694l.05.005a.696.696 0 0 0 .694-.699.696.696 0 0 0-.694-.699.696.696 0 0 0-.694.7Zm4.917 4.206c0 .37.284.668.644.694l.05.005a.696.696 0 0 0 .694-.699.695.695 0 1 0-1.388 0Zm-3.914 2.824c0 .369.285.667.644.694.017 0 .033.005.05.005a.696.696 0 0 0 .694-.7.696.696 0 0 0-.694-.698.696.696 0 0 0-.694.699Z"/><path d="M33.841 27.891c1.665-.316 2.73-.954 3.163-1.896.773-1.684-.68-3.846-.696-3.867a.27.27 0 0 1-.042-.216c.005-.03.655-2.946-1.249-3.849-1.425-.674-2.847-.674-3.902 0-.993.667-1.51 1.786-1.345 2.912"/><path d="M33.055 17.56c.483-1.732-.26-3.498-1.181-3.877-1.054-.433-2.134.533-3.145 1.372"/><path d="M31.029 13.606c-1.956-1.858-4.144-2.218-5.182-1.754-.576.3-.845.968-.847 1.494m11.48 13.381c1.012.822 1.245 2.08.919 2.93-.371 1.145-1.288 1.957-1.756 2.014-.172.021-.293.167-.27.326l.007.034c.311 1.127-.002 2.323-.838 3.192-.48.594-1.218.96-2.018 1.003a.31.31 0 0 0-.337.213c-.48 1.454-2.08 2.33-3.688 2.016-3.372-.399-3.497-2.739-3.499-2.808M25 13.346v22.301000000000002M33.082 20.994l-1.341 2.534M28.529 23.035l3.212.493M28.529 23.035h0M31.741 23.528l.119 1.872M29.002 34.583l.738-1.607"/><path d="m28.316 28.45 2.165 1.105-.741 3.42M31.902 32.53l-2.162.446M18.078 25.396a.696.696 0 0 0-.694.698c0 .386.31.7.694.7.017 0 .033-.005.05-.006a.696.696 0 0 0-.05-1.393Zm3.393-2.361a.695.695 0 0 0 .681.567l.05-.005a.696.696 0 0 0-.05-1.393.696.696 0 0 0-.68.831m-4.764-2.004.05-.005a.696.696 0 0 0-.05-1.393.696.696 0 0 0-.695.7c0 .385.311.698.695.698Zm5.785-5.525a.696.696 0 0 0-.695-.699.696.696 0 0 0-.694.699c0 .386.311.699.694.699l.05-.005a.695.695 0 0 0 .645-.694Zm-.173 13.365.05-.005a.696.696 0 0 0-.05-1.393.696.696 0 0 0-.693.7c0 .385.31.698.694.698Zm-5.61 3.507c0 .386.31.7.694.7.017 0 .033-.005.05-.006a.696.696 0 0 0-.05-1.393.696.696 0 0 0-.694.7Zm3.914 2.824c0 .386.31.699.694.699l.05-.005a.696.696 0 0 0-.05-1.393.696.696 0 0 0-.694.699Z"/><path d="M20.23 20.975c.165-1.126-.352-2.245-1.345-2.912-1.055-.674-2.477-.674-3.902 0-1.904.903-1.254 3.82-1.25 3.849a.27.27 0 0 1-.04.216c-.016.021-1.47 2.183-.697 3.867.434.942 1.498 1.58 3.163 1.896"/><path d="M21.27 15.055c-1.01-.84-2.09-1.805-3.144-1.372-.921.379-1.664 2.145-1.18 3.877M25 35.647V13.346"/><path d="M13.52 26.727c-1.012.822-1.245 2.08-.919 2.93.371 1.145 1.288 1.957 1.756 2.014.172.021.293.167.27.326l-.007.034c-.311 1.127.002 2.323.838 3.192.48.594 1.218.96 2.018 1.003a.31.31 0 0 1 .337.213c.48 1.454 2.08 2.33 3.688 2.016 3.372-.399 3.497-2.739 3.499-2.808m-6.029-22.041c1.956-1.858 4.144-2.218 5.182-1.754.576.3.846.968.847 1.494M16.918 20.994l1.341 2.534M21.471 23.035l-3.212.493M21.471 23.035h0M18.259 23.528 18.14 25.4M20.26 32.976l.738 1.607"/><path d="m21.684 28.45-2.165 1.105.741 3.42M20.26 32.976l-2.162-.446"/></g><g fill="none" stroke="#000" stroke-linecap="round" stroke-linejoin="round"><path d="m46.478 38.916-7.07.109-.134-7.07M3.522 11.288l7.07-.11.134 7.071"/><path d="M36.889 41.217c-7.704 5.686-18.63 5.134-25.769-1.765-7.957-7.69-8.197-20.352-.536-28.281m2.511-2.201c7.704-5.686 18.629-5.133 25.768 1.766 7.957 7.69 8.197 20.351.536 28.28"/></g></svg>