<svg xmlns="http://www.w3.org/2000/svg" data-name="Isolation Mode" viewBox="0 0 50 50"><g fill="none" stroke="#000" stroke-linecap="round" stroke-linejoin="round"><circle cx="25" cy="32.5" r="12.5"/><path d="M19.744 30.002h10.511v9.212H19.744zM28.936 30.002v-2.63a3.937 3.937 0 1 0-7.872 0v2.63"/></g><g fill="none" stroke="#000"><path stroke-miterlimit="10" d="M34.023 23.986V6.82A1.84 1.84 0 0 0 32.177 5H17.869a1.84 1.84 0 0 0-1.846 1.82v17.033"/><path stroke-linecap="round" stroke-linejoin="round" d="M18.723 9.5h12.6M18.723 14h12.6M18.723 18.5h12.6"/><circle cx="20.523" cy="11.3" r=".338" stroke-miterlimit="10"/><circle cx="23.204" cy="11.3" r=".338" stroke-miterlimit="10"/><circle cx="26.793" cy="15.807" r=".338" stroke-miterlimit="10"/><circle cx="29.474" cy="15.807" r=".338" stroke-miterlimit="10"/><path stroke-miterlimit="10" d="M35.544 39.2h6.487a1.84 1.84 0 0 0 1.846-1.82V13.12a1.84 1.84 0 0 0-1.846-1.82h-8.008"/><path stroke-linecap="round" stroke-linejoin="round" d="M34.023 15.8h7.154M34.023 20.3h7.154M34.847 24.8h6.33M37.086 29.3h4.091M37.433 33.8h3.744"/><circle cx="36.719" cy="17.6" r=".338" stroke-miterlimit="10"/><circle cx="39.423" cy="17.6" r=".338" stroke-miterlimit="10"/><circle cx="36.73" cy="26.597" r=".338" stroke-miterlimit="10"/><circle cx="39.423" cy="26.597" r=".338" stroke-miterlimit="10"/><path stroke-miterlimit="10" d="M14.457 39.2H7.969a1.84 1.84 0 0 1-1.846-1.82V13.12A1.84 1.84 0 0 1 7.97 11.3h8.008"/><path stroke-linecap="round" stroke-linejoin="round" d="M15.977 15.8H8.823M15.977 20.3H8.823M15.153 24.8h-6.33M12.914 29.3H8.823M12.567 33.8H8.823"/><circle cx="13.281" cy="17.6" r=".338" stroke-miterlimit="10"/><circle cx="10.577" cy="17.6" r=".338" stroke-miterlimit="10"/><circle cx="13.27" cy="26.597" r=".338" stroke-miterlimit="10"/><circle cx="10.577" cy="26.597" r=".338" stroke-miterlimit="10"/></g></svg>