<svg xmlns="http://www.w3.org/2000/svg" data-name="Isolation Mode" viewBox="0 0 50 50"><g fill="none" stroke="#000" stroke-linecap="round" stroke-linejoin="round"><path d="M24.562 19.018c2.36-1.727 3.963-5.106 3.963-8.993 0-5.644-3.38-7.778-7.549-7.778s-7.548 2.134-7.548 7.778c0 3.887 1.604 7.267 3.964 8.994"/><path d="m5.924 32.017 1.697-7.56a4.7 4.7 0 0 1 2.036-2.674s3.184-1.993 7.734-2.765c1.067.781 2.288 1.292 3.585 1.292s2.519-.51 3.586-1.292"/><path d="M29.003 20.232a24 24 0 0 0-4.446-1.214"/></g><path fill="none" stroke="#000" stroke-linecap="round" stroke-linejoin="round" d="M21.055 37.247v5.394a5.11 5.11 0 0 0 5.112 5.112h13.776a5.1 5.1 0 0 0 1.512-.228m0 0a5.11 5.11 0 0 0 3.6-4.884V28.865a5.11 5.11 0 0 0-5.112-5.112H27.081"/><path d="M28.978 37.782q-.045-.087-.073-.206a3 3 0 0 1-.05-.255 1.8 1.8 0 0 1-.92.505q-.196.044-.42.044-.378 0-.684-.107c-.306-.107-.378-.172-.522-.3a1.33 1.33 0 0 1-.455-1.012q0-.765.569-1.169.569-.405 1.632-.404h.77v-.313a.76.76 0 0 0-.256-.6q-.255-.22-.72-.22-.211 0-.37.049-.158.05-.263.139c-.105.089-.123.128-.158.207s-.053.164-.053.255h-1.05q0-.278.129-.54.13-.26.38-.465.251-.204.613-.327.363-.124.829-.124.422.001.782.104t.624.308q.263.203.413.51.15.304.15.713v2.118q0 .312.046.57.045.256.134.446v.074zm-1.266-.76q.203 0 .38-.05.178-.05.321-.132a1.1 1.1 0 0 0 .411-.402v-.892h-.668q-.64 0-.947.206c-.307.206-.305.334-.305.589q0 .145.048.27a.55.55 0 0 0 .148.215q.098.09.25.144.152.052.362.052m7.423-1.569q0 .519-.123.963c-.123.444-.202.55-.36.767a1.7 1.7 0 0 1-.583.505q-.345.183-.793.182-.404 0-.714-.132a1.5 1.5 0 0 1-.534-.378v2.25h-1.05v-6.583h.966l.044.48q.229-.272.543-.42t.732-.148q.452 0 .801.176.351.176.587.494.239.32.36.765.124.447.124.987zm-1.05-.092q0-.322-.066-.604a1.6 1.6 0 0 0-.203-.497q-.135-.213-.347-.336c-.212-.123-.307-.123-.5-.123q-.352 0-.58.15a.85.85 0 0 0-.361.4v2.127q.132.245.358.399c.226.154.348.154.591.154a.95.95 0 0 0 .846-.47q.134-.216.198-.501c.064-.285.063-.393.063-.607zm6.103.092q0 .519-.124.963c-.124.444-.202.55-.36.767a1.7 1.7 0 0 1-.582.505q-.345.183-.793.182-.405 0-.715-.132a1.5 1.5 0 0 1-.533-.378v2.25h-1.05v-6.583h.966l.044.48q.228-.272.543-.42.314-.148.731-.148.453 0 .802.176t.587.494q.237.32.36.765.123.447.124.987zm-1.05-.092q0-.322-.067-.604a1.6 1.6 0 0 0-.202-.497q-.135-.213-.347-.336c-.212-.123-.308-.123-.501-.123q-.352 0-.58.15a.85.85 0 0 0-.36.4v2.127q.131.245.357.399c.226.154.349.154.592.154a.95.95 0 0 0 .846-.47q.134-.216.197-.501a2.2 2.2 0 0 0 .064-.607z"/><path fill="none" stroke="#000" stroke-linecap="round" stroke-linejoin="round" d="m22.457 23.415-10.19 10.19a4.97 4.97 0 0 0-6.824 2.182c-1.13 2.297-.274 5.166 1.93 6.467a4.97 4.97 0 0 0 6.903-6.642l3.163-3.158 2.152 2.159a1.42 1.42 0 1 0 2.008-2.01V32.6l-2.156-2.154 2.009-2.009 2.156 2.156a1.42 1.42 0 0 0 2.008-2.008l-2.155-2.157.954-.95c.494-.493.62-1.282.223-1.855a1.423 1.423 0 0 0-2.18-.208M11.622 37.967a1.775 1.775 0 1 1-3.55 0 1.775 1.775 0 0 1 3.55 0"/></svg>