<svg xmlns="http://www.w3.org/2000/svg" data-name="Isolation Mode" viewBox="0 0 50 50"><path fill="none" stroke="#000" stroke-linecap="round" stroke-linejoin="round" d="M35 35h3.61A6.39 6.39 0 0 0 45 28.61V11.39A6.39 6.39 0 0 0 38.61 5H21.39A6.39 6.39 0 0 0 15 11.39V15"/><path fill="none" stroke="#000" stroke-linecap="round" stroke-miterlimit="10" d="M34.332 18.543c.428.857.668 1.824.668 2.848v17.218A6.39 6.39 0 0 1 28.61 45H11.39A6.39 6.39 0 0 1 5 38.61V21.39A6.39 6.39 0 0 1 11.39 15h17.22c1.043 0 2.028.25 2.898.694"/><g fill="none" stroke="#000" stroke-linecap="round" stroke-linejoin="round" data-name="Group 13221"><path d="M26.735 23.374 39.58 10.529" data-name="Line 154"/><path d="M39.58 19.093v-8.564h-8.564" data-name="Path 60447"/></g><g fill="none" stroke="#000" stroke-linecap="round" stroke-linejoin="round"><path d="M14.994 27.749h10.012V36.5H14.994zM23.75 27.749v-2.5c0-2.074-1.676-3.749-3.75-3.749s-3.75 1.675-3.75 3.75v2.499"/></g></svg>