<svg xmlns="http://www.w3.org/2000/svg" data-name="Isolation Mode" viewBox="0 0 50 50"><g fill="none" stroke="#000" stroke-miterlimit="10"><path d="M23 28.123v.48M23 33.427v.48"/><ellipse cx="13" cy="22.508" rx="9.996" ry="4.992"/><path d="M3.004 27.508c0 2.757 4.475 4.992 9.996 4.992s9.996-2.235 9.996-4.992m-19.992 5c0 2.757 4.475 4.992 9.996 4.992s9.996-2.235 9.996-4.992"/><path d="m23 22.5-.004 15.008c0 2.757-4.475 4.992-9.996 4.992s-9.996-2.235-9.996-4.992L3 22.817"/></g><path fill="none" stroke="#000" stroke-linecap="round" stroke-linejoin="round" d="M25 31.5h15.24c3.734 0 6.76-2.992 6.76-6.684 0-2.336-1.214-4.389-3.05-5.584.21-.773.325-1.585.325-2.424 0-5.14-4.215-9.308-9.414-9.308-4.036 0-7.477 2.512-8.816 6.04a8.1 8.1 0 0 0-3.317-.708 8.06 8.06 0 0 0-6.002 2.668"/><g fill="none" stroke="#000" stroke-linecap="round" stroke-linejoin="round"><path d="m26 26.5 11-11M37 23.5v-8h-8"/></g></svg>