<svg xmlns="http://www.w3.org/2000/svg" viewBox="0 0 50 50"><path fill="none" stroke="#000" stroke-linecap="round" stroke-linejoin="round" d="M43.518 7H6.482C5.667 7 5 7.662 5 8.472v23.056C5 32.338 5.667 33 6.482 33h7.59L14 42s.053.69.46.993c.245.181.845.513 1.54.007.572-.416 1.328-1.333 2-2 1.771-1.76 4.958-5 7.95-8h17.568c.815 0 1.482-.662 1.482-1.472V8.472C45 7.662 44.333 7 43.518 7"/><circle cx="15" cy="19.994" r="3" fill="none" stroke="#000" stroke-linecap="round" stroke-linejoin="round"/><circle cx="25.049" cy="19.994" r="3" fill="none" stroke="#000" stroke-linecap="round" stroke-linejoin="round"/><circle cx="35" cy="19.994" r="3" fill="none" stroke="#000" stroke-linecap="round" stroke-linejoin="round"/></svg>