<svg xmlns="http://www.w3.org/2000/svg" viewBox="0 0 50 50"><g fill="none" stroke="#000" stroke-linecap="round" stroke-linejoin="round"><path d="M25.738 20.557h17.499V38.06H25.738zM40.726 15.558c0-4.149-3.346-7.499-7.49-7.499s-7.489 3.35-7.489 7.499v4.999"/></g><g fill="none" stroke="#000" stroke-linecap="round" stroke-linejoin="round"><path d="M28.901 23.078v7.899M33.237 23.078v4.739M37.572 23.078v1.526"/><ellipse cx="28.901" cy="32.583" rx="1.626" ry="1.607"/><ellipse cx="33.237" cy="29.424" rx="1.626" ry="1.607"/><ellipse cx="37.572" cy="26.21" rx="1.626" ry="1.607"/><path d="M28.901 34.184v1.586M33.237 31.031v4.739M37.572 27.817v7.953"/></g><g fill="none" stroke="#000" stroke-linecap="round" stroke-linejoin="round"><path d="M25.738 7.498v33.224M15.261 25.48a1.026 1.026 0 1 0 0 2.052c.025 0 .049-.006.074-.008a1.023 1.023 0 0 0-.074-2.043m5.16-3.535c.091.473.506.831 1.006.831q.037-.002.074-.007a1.023 1.023 0 0 0-.074-2.044 1.026 1.026 0 0 0-1.006 1.22m-7.234-2.998c.025 0 .049-.006.073-.008a1.023 1.023 0 0 0-.073-2.044 1.026 1.026 0 1 0 0 2.052m8.731-8.216a1.026 1.026 0 1 0-1.026 1.025c.025 0 .049-.005.074-.007.531-.039.952-.477.952-1.018m-.235 19.895c.025 0 .048-.005.073-.007a1.022 1.022 0 0 0-.073-2.044 1.026 1.026 0 0 0 0 2.051m-8.467 5.241c0 .566.459 1.025 1.025 1.025.025 0 .049-.005.074-.007a1.023 1.023 0 0 0-.074-2.044c-.566 0-1.025.46-1.025 1.026m5.924 4.206c0 .567.458 1.026 1.025 1.026.025 0 .049-.006.073-.007a1.023 1.023 0 0 0-.073-2.044c-.567 0-1.026.459-1.026 1.025"/><path d="M18.518 18.864c.25-1.678-.533-3.344-2.036-4.338-1.596-1.005-3.75-1.004-5.906 0-2.882 1.346-1.898 5.69-1.89 5.734a.4.4 0 0 1-.063.321c-.023.032-2.224 3.254-1.053 5.762.656 1.403 2.266 2.353 4.786 2.825"/><path d="M20.093 10.045c-1.53-1.25-3.164-2.69-4.76-2.045-1.393.565-2.518 3.197-1.786 5.777M25.738 40.722V7.498"/><path d="M8.363 27.433c-1.533 1.224-1.885 3.098-1.39 4.365.56 1.706 1.948 2.916 2.656 3.001.26.03.443.248.41.485l-.011.05c-.472 1.68.003 3.462 1.267 4.757.727.884 1.845 1.43 3.055 1.493.233-.023.45.111.51.318.727 2.167 3.148 3.47 5.581 3.004 5.105-.595 5.294-4.08 5.297-4.184M16.613 7.886c2.96-2.768 6.272-3.305 7.842-2.613.873.446 1.28 1.442 1.283 2.225M13.506 18.892l2.03 3.775M20.397 21.934l-4.861.733M15.536 22.667l-.181 2.789M18.564 36.742l1.13 2.422"/><path d="m20.718 30-3.276 1.647 1.122 5.095M18.564 36.742l-3.318-.673"/></g></svg>