<svg xmlns="http://www.w3.org/2000/svg" data-name="Isolation Mode" viewBox="0 0 50 50"><ellipse cx="33.972" cy="33.002" fill="none" stroke="#231f20" stroke-linecap="round" stroke-linejoin="round" rx="11.028" ry="11.032"/><path fill="#231f20" d="M29.55 35.82v2.622h-1.643v-2.623zm.616-1H27.29c-.23 0-.384.146-.384.365v3.893c0 .219.154.365.384.365h2.876c.23 0 .384-.146.384-.365v-3.893c0-.219-.154-.365-.384-.365m4.531-3.843v7.465h-1.49v-7.465zm.54-1h-2.569c-.307 0-.46.23-.46.537v8.39c0 .307.23.538.46.538h2.568c.308 0 .461-.23.461-.538v-8.39c0-.384-.076-.537-.46-.537m4.761 3.995v4.47h-1.49v-4.47zm.616-1h-2.722c-.23 0-.384.23-.384.461v5.548c0 .23.153.46.384.46h2.722c.23 0 .384-.23.384-.46v-5.548c0-.307-.154-.46-.384-.46"/><circle cx="28.638" cy="31.709" r="1.479" fill="none" stroke="#231f20" stroke-miterlimit="10"/><circle cx="33.973" cy="26.357" r="1.479" fill="none" stroke="#231f20" stroke-miterlimit="10"/><circle cx="39.253" cy="29.896" r="1.479" fill="none" stroke="#231f20" stroke-miterlimit="10"/><path fill="none" stroke="#231f20" stroke-miterlimit="10" d="m29.783 30.582 2.958-3.081M35.399 26.92l2.8 1.99"/><g fill="none" stroke="#231f20" stroke-linecap="round" stroke-linejoin="round"><path d="M19.535 7.88v25.449M11.51 21.654a.786.786 0 1 0 0 1.571l.056-.006a.783.783 0 0 0-.057-1.565m3.953-2.708c.07.363.388.637.77.637q.03-.002.057-.006a.783.783 0 0 0-.056-1.565.786.786 0 0 0-.77.934M9.92 16.65c.02 0 .038-.005.057-.006a.783.783 0 0 0-.056-1.566.786.786 0 1 0 0 1.572m6.687-6.294a.786.786 0 1 0-.785.786c.02 0 .037-.005.056-.006a.783.783 0 0 0 .73-.78m-.181 15.24.057-.005a.783.783 0 0 0-.057-1.566.786.786 0 0 0 0 1.571M9.943 29.61c0 .434.351.786.785.786q.03-.002.056-.006a.783.783 0 0 0-.056-1.565.786.786 0 0 0-.785.785m4.537 3.223c0 .434.352.785.786.785l.056-.005a.783.783 0 0 0-.056-1.566.786.786 0 0 0-.786.786"/><path d="M14.004 16.585c.191-1.285-.408-2.561-1.56-3.323-1.222-.77-2.871-.769-4.523 0-2.208 1.031-1.454 4.359-1.448 4.392a.3.3 0 0 1-.048.247c-.018.024-1.704 2.492-.807 4.414.502 1.074 1.736 1.802 3.666 2.163"/><path d="M15.21 9.83c-1.17-.958-2.423-2.06-3.645-1.566-1.068.432-1.929 2.448-1.369 4.424M19.535 33.329V7.879"/><path d="M6.226 23.149c-1.175.938-1.445 2.374-1.066 3.344.43 1.306 1.493 2.234 2.035 2.299.2.023.34.19.314.371l-.008.039c-.362 1.286.002 2.652.97 3.643.557.678 1.413 1.096 2.34 1.144.179-.018.345.085.391.243.557 1.66 2.412 2.659 4.276 2.302 3.91-.456 4.054-3.126 4.057-3.205m-6.99-25.153c2.268-2.12 4.804-2.531 6.007-2.001.668.34.98 1.104.983 1.704M10.165 16.607l1.555 2.892M15.443 18.937l-3.723.562M15.443 18.937h.001M11.72 19.499l-.139 2.136M14.039 30.28l.866 1.855"/><path d="m15.69 25.116-2.51 1.26.86 3.904M14.039 30.28l-2.541-.515M19.535 7.88v25.449M23.608 18.946a.785.785 0 0 1-.771.637q-.029-.002-.056-.006a.783.783 0 0 1 .056-1.565.786.786 0 0 1 .77.934m5.543-2.296c-.02 0-.038-.005-.057-.006-.407-.03-.73-.366-.73-.78s.352-.786.786-.786a.786.786 0 1 1 0 1.572m-6.688-6.294a.786.786 0 1 1 .786.786c-.02 0-.037-.005-.056-.006a.783.783 0 0 1-.73-.78"/><path d="M25.065 16.585c-.19-1.285.409-2.561 1.56-3.323 1.223-.77 2.872-.769 4.524 0 2.207 1.031 1.454 4.359 1.448 4.392a.3.3 0 0 0 .048.247c.017.023 1.51 2.21.94 4.068"/><path d="M23.859 9.83c1.171-.958 2.424-2.06 3.646-1.566 1.067.432 1.929 2.448 1.368 4.424M19.535 33.329V7.879"/><path d="M23.36 36.516c-3.91-.456-3.823-3.108-3.825-3.187m6.99-25.153c-2.268-2.12-4.805-2.531-6.007-2.001-.669.34-.981 1.104-.983 1.704M28.905 16.607l-1.555 2.892M23.626 18.937l3.724.562M27.35 19.499l1.64 3.287M22.587 25.596l-.057-.005c-.407-.03-.729-.366-.729-.78s.352-.786.786-.786a.786.786 0 0 1 0 1.571M23.325 25.116l2.021.991"/></g></svg>