<svg xmlns="http://www.w3.org/2000/svg" data-name="Isolation Mode" viewBox="0 0 50 50"><ellipse cx="34.207" cy="33.361" fill="none" stroke="#231f20" stroke-linecap="round" stroke-linejoin="round" rx="11.3" ry="11.305"/><g fill="none" stroke="#231f20" stroke-linecap="round" stroke-linejoin="round"><circle cx="31.687" cy="33.115" r="1.808"/><circle cx="37.152" cy="33.115" r="1.808"/><path d="M33.281 40.449v-2.323M35.611 38.126v2.323M34.805 36.777c.296 0 .537-.269.537-.601 0-.294-.65-1.21-.917-1.21s-.904.92-.904 1.21c0 .332.24.601.537.601z"/><path d="M31.534 39.916c0 .323 1.304.586 2.912.586s2.912-.263 2.912-.586v-2.37s4.25.005 3.57-5.246c-.395-3.06-2.531-4.616-4.244-5.338a5.75 5.75 0 0 0-4.469 0c-1.714.72-3.853 2.277-4.249 5.338-.678 5.25 3.568 5.245 3.568 5.245z"/></g><g fill="none" stroke="#231f20" stroke-linecap="round" stroke-linejoin="round"><path d="M19.682 8.464v24.819999999999997M11.856 21.898a.766.766 0 1 0 0 1.532l.054-.005a.764.764 0 0 0-.054-1.527m3.854-2.641a.77.77 0 0 0 .752.621l.055-.005a.764.764 0 0 0-.055-1.527.766.766 0 0 0-.751.911m-5.405-2.24.055-.005a.764.764 0 0 0-.055-1.527.766.766 0 1 0 0 1.532m6.523-6.137a.766.766 0 1 0-.767.766c.02 0 .037-.005.055-.006a.764.764 0 0 0 .712-.76m-.176 14.863c.019 0 .036-.005.055-.006a.764.764 0 0 0-.055-1.527.766.766 0 0 0 0 1.533m-6.325 3.915c0 .423.343.766.766.766l.055-.006a.764.764 0 0 0-.055-1.527.766.766 0 0 0-.766.767m4.425 3.142c0 .423.343.766.766.766l.055-.005a.764.764 0 0 0-.055-1.527.766.766 0 0 0-.766.766"/><path d="M14.289 16.955c.186-1.254-.398-2.499-1.521-3.241-1.193-.75-2.801-.75-4.412 0-2.153 1.005-1.418 4.25-1.412 4.283a.3.3 0 0 1-.047.24c-.018.024-1.662 2.431-.787 4.305.49 1.048 1.693 1.758 3.575 2.11"/><path d="M15.466 10.366C14.323 9.432 13.1 8.357 11.91 8.84c-1.041.422-1.881 2.388-1.335 4.315M19.682 33.284V8.464"/><path d="M6.703 23.356c-1.146.915-1.41 2.315-1.04 3.261.42 1.274 1.456 2.179 1.985 2.242.194.023.331.185.306.362l-.008.038c-.352 1.254.002 2.586.947 3.553.542.661 1.378 1.07 2.282 1.116.174-.018.336.083.381.237.543 1.619 2.352 2.593 4.17 2.244 3.813-.444 3.954-3.048 3.956-3.125M12.866 8.753c2.211-2.067 4.685-2.469 5.858-1.952.652.333.957 1.078.958 1.663M10.544 16.976l1.517 2.82M15.692 19.248l-3.631.548M15.692 19.248zM12.061 19.796l-.135 2.083M14.323 30.311l.844 1.809"/><path d="m15.933 25.274-2.448 1.23.838 3.807M14.323 30.311l-2.478-.503M19.683 8.464v24.819999999999997M23.655 19.257a.766.766 0 0 1-.752.621l-.055-.005a.764.764 0 0 1 .055-1.527.766.766 0 0 1 .752.911m5.404-2.24-.055-.005a.764.764 0 0 1 .055-1.527.766.766 0 1 1 0 1.532m-6.522-6.137a.766.766 0 1 1 .766.766c-.019 0-.037-.005-.055-.006a.764.764 0 0 1-.711-.76"/><path d="M25.076 16.955c-.186-1.254.398-2.499 1.522-3.241 1.192-.75 2.8-.75 4.411 0 2.153 1.005 1.418 4.25 1.413 4.283a.3.3 0 0 0 .046.24c.017.023 1.474 2.155.917 3.969"/><path d="M23.9 10.366c1.142-.934 2.364-2.009 3.555-1.527 1.042.422 1.882 2.388 1.335 4.315M19.683 33.284V8.464"/><path d="M23.414 36.392c-3.814-.444-3.729-3.03-3.731-3.108M26.5 8.753c-2.212-2.067-4.686-2.469-5.86-1.952-.65.333-.955 1.078-.957 1.663M28.821 16.976l-1.517 2.82M23.673 19.248l3.631.548M27.304 19.796l1.6 3.206M22.659 25.743c-.019 0-.036-.005-.055-.006a.764.764 0 0 1 .055-1.527.766.766 0 0 1 0 1.533M23.379 25.274l1.971.967"/></g></svg>