<svg xmlns="http://www.w3.org/2000/svg" viewBox="0 0 50 50"><g fill="none" stroke="#000" stroke-linecap="round" stroke-linejoin="round"><path d="M21.01 31.845C17.857 29.92 15.677 25.787 15.677 21v-6.4c0-6.933 4.915-9.6 9.333-9.6h0c4.418 0 9.334 2.667 9.334 9.6V21"/><path d="M19.677 30.849V33c0 1.333.667 3.333-6.667 4.667C6.451 38.859 5 45 5 45h40s-1.456-6.113-8.01-7.333c-7.146-1.33-6.667-3.334-6.667-4.667l.02-2.101"/><path d="M18.344 35.955 25.01 45l6.667-9.086M29.01 31.845c3.154-1.926 5.334-6.058 5.334-10.845"/></g><path fill="none" stroke="#000" stroke-linecap="round" stroke-linejoin="round" d="M20 25.69h10M34.344 15.088l8.152-5.544s-2.93 11.699-8.16 11.972m-18.658-6.428L7.525 9.544s2.93 11.699 8.161 11.972m9.315-2.479 7.071-5.139s-1.322 6.277-3.68 6.388c0 0-2.647-.97-3.392-1.253m-.001.004-7.071-5.139s1.322 6.277 3.68 6.388c0 0 2.647-.97 3.392-1.253"/></svg>