<svg xmlns="http://www.w3.org/2000/svg" viewBox="0 0 50 50"><g fill="none" stroke="#000" stroke-linecap="round" stroke-linejoin="round"><path d="M10 5v40h30V16L29 5z"/><path d="M29 5v11h11"/></g><path d="M21.006 38.806h-1.534V43h-.964v-4.194h-1.515v-.783h4.013zm1.604-.783.472 1.87.537-1.87h1.193V43h-.882v-1.474l.04-2.327-.652 2.16h-.475l-.584-2.068.04 2.235V43h-.881v-4.977zm6.387 2.854q0 .48-.127.882-.126.404-.365.694a1.69 1.69 0 0 1-1.358.615q-.43 0-.765-.162a1.6 1.6 0 0 1-.564-.455 2 2 0 0 1-.348-.693 3 3 0 0 1-.12-.881v-.725q0-.477.12-.881.119-.403.348-.696.23-.291.562-.456.334-.165.765-.164.433 0 .777.164.342.165.583.456.24.293.365.696.127.404.127.881zm-.975-.731q0-.305-.05-.561a1.4 1.4 0 0 0-.155-.44q-.105-.186-.271-.29c-.166-.104-.244-.104-.401-.104a.7.7 0 0 0-.39.104.75.75 0 0 0-.253.29q-.096.185-.137.44a3 3 0 0 0-.04.56v.732q0 .302.04.558c.04.256.073.318.137.444a.76.76 0 0 0 .253.294q.156.105.392.105a.73.73 0 0 0 .399-.105.8.8 0 0 0 .27-.292q.105-.188.156-.443c.05-.256.05-.358.05-.561zm4.13 1.555a.59.59 0 0 0-.204-.467 1.1 1.1 0 0 0-.29-.184 3 3 0 0 0-.446-.155q-.324-.09-.62-.223a1.8 1.8 0 0 1-.522-.321q-.225-.187-.36-.438a1.2 1.2 0 0 1-.135-.574q0-.315.133-.57c.133-.255.212-.318.37-.438q.234-.182.557-.278.32-.099.697-.098.39 0 .712.112.324.113.556.317a1.43 1.43 0 0 1 .492 1.098h-.937a1 1 0 0 0-.06-.307.65.65 0 0 0-.157-.24.7.7 0 0 0-.26-.158 1 1 0 0 0-.364-.056q-.19 0-.34.046-.148.045-.25.13a.46.46 0 0 0-.157.198.6.6 0 0 0-.052.248q0 .14.07.253c.07.113.114.142.203.203s.196.115.323.166q.19.075.429.14.343.099.629.243c.286.144.356.209.494.34s.245.28.321.448q.115.25.115.558 0 .329-.132.583a1.3 1.3 0 0 1-.363.431 1.7 1.7 0 0 1-.554.267q-.322.09-.701.09-.236 0-.47-.043a2.3 2.3 0 0 1-.448-.131q-.213-.09-.398-.223c-.185-.133-.23-.192-.32-.31a1.44 1.44 0 0 1-.288-.903h.943q.006.226.078.386a.7.7 0 0 0 .2.263.8.8 0 0 0 .308.15q.18.048.395.049.191 0 .34-.045.15-.044.251-.123a.53.53 0 0 0 .212-.434"/><g fill="none" stroke="#000" stroke-linecap="round" stroke-linejoin="round" stroke-width="1.059"><path d="M21.625 21 16 24.363l5.625 3.363M28.375 27.726 34 24.363 28.375 21M26.125 21l-2.25 6.726"/></g><path fill="#fff" stroke="#231f20" stroke-miterlimit="10" d="M10 36h30"/></svg>