<svg xmlns="http://www.w3.org/2000/svg" data-name="Isolation Mode" viewBox="0 0 50 50"><path d="M22.246 24.501a1 1 0 0 1-.095-.282 3 3 0 0 1-.05-.352q-.15.15-.336.284-.185.136-.409.237a2.5 2.5 0 0 1-.474.16q-.254.06-.537.06-.463 0-.836-.134a2 2 0 0 1-.634-.363 1.6 1.6 0 0 1-.545-1.221q0-.48.19-.838.192-.36.54-.599.35-.24.841-.357.492-.119 1.099-.118h1.085v-.457q0-.264-.097-.473a.8.8 0 0 0-.274-.357 1.3 1.3 0 0 0-.433-.228 1.9 1.9 0 0 0-.571-.081q-.296 0-.53.075-.233.075-.394.2a.9.9 0 0 0-.25.292.74.74 0 0 0-.089.352h-.999q.006-.318.164-.623c.158-.305.258-.388.456-.551q.299-.245.726-.395.426-.15.97-.15.494 0 .918.121.424.12.733.365.309.243.486.61.178.365.177.853v2.702q0 .29.054.616.054.324.15.566v.086zm-1.757-.758q.29 0 .543-.075a2 2 0 0 0 .46-.198q.206-.124.357-.282.15-.159.236-.33V21.68h-.924q-.87 0-1.353.257c-.483.257-.484.443-.484.812q0 .214.072.397a.84.84 0 0 0 .218.315q.145.13.365.206t.51.075m9.464-2.082q0 .623-.15 1.162-.15.54-.44.938a2.1 2.1 0 0 1-.718.623q-.428.225-.975.225-.532 0-.938-.171a2 2 0 0 1-.695-.495v2.793h-.993V18.69h.907l.049.634q.29-.36.7-.55.412-.19.954-.191.557 0 .989.22.429.22.72.612.29.393.44.938t.15 1.195zm-.994-.113q0-.425-.094-.809c-.094-.384-.159-.481-.29-.676s-.296-.35-.497-.465a1.43 1.43 0 0 0-.72-.172q-.477 0-.802.223-.325.224-.519.572v2.799q.193.343.516.561.322.217.816.217.415 0 .715-.174.3-.175.494-.47t.287-.682a2.8 2.8 0 0 0 .094-.812zm7.638.113a4.3 4.3 0 0 1-.15 1.162q-.15.54-.441.938a2.1 2.1 0 0 1-.717.623q-.427.225-.975.225-.532 0-.937-.171a1.95 1.95 0 0 1-.695-.495v2.793h-.995V18.69h.909l.048.634q.29-.36.7-.55.413-.19.954-.191.56 0 .988.22.43.22.72.612.29.393.44.938t.15 1.195zm-.993-.113q0-.425-.094-.809a2.1 2.1 0 0 0-.29-.676 1.5 1.5 0 0 0-.497-.465 1.43 1.43 0 0 0-.72-.172q-.48 0-.803.223-.326.224-.518.572v2.799q.193.343.515.561.322.217.817.217.413 0 .714-.174a1.46 1.46 0 0 0 .494-.47q.193-.295.288-.682.093-.387.094-.812z"/><path fill="none" stroke="#000" stroke-linecap="round" stroke-linejoin="round" d="M25.41 40.12h12.06a7.455 7.455 0 0 0 7.456-7.455v-20.09A7.455 7.455 0 0 0 37.47 5.12H17.38a7.455 7.455 0 0 0-7.455 7.455v12.077"/><circle cx="14.324" cy="35.63" r="1.233"/><path fill="none" stroke="#000" stroke-linecap="round" stroke-linejoin="round" stroke-width="1.002" d="m6.494 33.624 7.83 2.006"/><circle cx="14.324" cy="35.63" r="9.25" fill="none" stroke="#000" stroke-linecap="round" stroke-linejoin="round" stroke-width="1.002"/><path fill="none" stroke="#000" stroke-linecap="round" stroke-linejoin="round" stroke-width="1.002" d="M20.87 33.485a6.9 6.9 0 0 1 .34 2.145m-1.748-4.586q.494.553.861 1.201M7.438 35.63a6.886 6.886 0 0 1 11.002-5.522"/></svg>