<svg xmlns="http://www.w3.org/2000/svg" data-name="Isolation Mode" viewBox="0 0 50 50"><path d="M24.975 26.307a.847.847 0 0 1 0 1.693.847.847 0 0 1 0-1.693m0-1a1.846 1.846 0 1 0 0 3.693 1.846 1.846 0 0 0 0-3.693"/><path fill="none" stroke="#000" stroke-linecap="round" stroke-linejoin="round" d="M28.237 23.89a4.616 4.616 0 0 0-6.527 0m8.487-1.958a7.385 7.385 0 0 0-10.444 0"/><path fill="none" stroke="#000" stroke-linecap="round" stroke-linejoin="round" d="M31.899 19.726a10.154 10.154 0 0 0-13.847 0M21.975 36h6"/><path fill="none" stroke="#000" stroke-linecap="round" stroke-linejoin="round" d="M44.975 34V12h-40v22M44.975 38s1-.549 1-2-1-2-1-2h-40s-1 .549-1 2 1 2 1 2z"/></svg>