<svg xmlns="http://www.w3.org/2000/svg" viewBox="0 0 50 50"><g fill="none" stroke="#000" stroke-linecap="round" stroke-linejoin="round"><path d="M10 5v40h30V16L29 5z"/><path d="M29 5v11h11"/></g><path d="M13.568 39.302h2.014v2.926h1.001V43h-3.015v-.772h1.053v-2.15h-1.053zm.985-.948a.5.5 0 0 1 .04-.203.44.44 0 0 1 .11-.16.5.5 0 0 1 .173-.104.6.6 0 0 1 .224-.038.56.56 0 0 1 .402.142.48.48 0 0 1 .148.363q0 .223-.148.365a.56.56 0 0 1-.402.141.7.7 0 0 1-.224-.037.5.5 0 0 1-.173-.104.44.44 0 0 1-.11-.16.5.5 0 0 1-.04-.205m4.377 2.786h-.728V43h-.96v-4.977h1.667q.415 0 .75.098.334.097.571.285t.367.468.128.65q0 .266-.064.48a1.1 1.1 0 0 1-.18.383q-.12.168-.285.296-.166.126-.37.218l1.07 2.054V43h-1.03zm-.728-.779h.711q.406 0 .627-.207.221-.206.22-.565 0-.374-.215-.58-.216-.207-.636-.206h-.707zm5.461 2.119q-.188.278-.452.434a1.1 1.1 0 0 1-.58.157q-.287 0-.527-.089a1 1 0 0 1-.41-.28 1.35 1.35 0 0 1-.264-.493q-.094-.3-.094-.72v-2.187h.95v2.194q0 .225.032.379c.032.154.057.186.105.248s.11.107.187.135a.9.9 0 0 0 .285.04.9.9 0 0 0 .46-.107.7.7 0 0 0 .271-.295v-2.594h.953V43h-.861zm1.737-4.73h2.069v4.478h1.06V43H25.4v-.772h1.108v-3.703H25.4zm5.568 5.318q-.426 0-.776-.14a1.8 1.8 0 0 1-.598-.381 1.7 1.7 0 0 1-.385-.568 1.8 1.8 0 0 1-.135-.699v-.136q0-.424.134-.774.133-.351.372-.603.24-.254.567-.394.329-.14.715-.14.4 0 .712.132.314.131.53.37.218.24.33.577c.113.337.113.472.113.743v.403h-2.509q.029.188.111.344c.082.156.127.193.214.268a1 1 0 0 0 .297.174q.168.062.366.062a1.4 1.4 0 0 0 .543-.108q.127-.052.237-.132a1 1 0 0 0 .191-.184l.475.513q-.089.126-.23.248c-.142.122-.207.152-.336.215a2.1 2.1 0 0 1-.938.21m-.113-3.066a.7.7 0 0 0-.528.219 1 1 0 0 0-.169.253q-.069.147-.102.328h1.558v-.075q-.007-.15-.058-.284c-.051-.134-.083-.166-.147-.23a.7.7 0 0 0-.234-.154.9.9 0 0 0-.32-.057m4.723 1.982a.3.3 0 0 0-.039-.15.4.4 0 0 0-.14-.121 1.3 1.3 0 0 0-.268-.105 5 5 0 0 0-.424-.095 4 4 0 0 1-.593-.162 1.8 1.8 0 0 1-.46-.236 1.1 1.1 0 0 1-.299-.32.8.8 0 0 1-.108-.417.94.94 0 0 1 .11-.438q.109-.207.314-.365.206-.157.499-.25.294-.092.663-.092.388 0 .694.091.308.09.522.25a1.1 1.1 0 0 1 .326.377q.112.219.112.475h-.95q0-.216-.174-.36c-.174-.145-.293-.146-.53-.146q-.331 0-.5.12-.17.12-.17.294 0 .082.034.152a.33.33 0 0 0 .122.126 1 1 0 0 0 .238.103q.15.046.382.08.335.055.623.14.286.085.495.221t.327.328a.87.87 0 0 1 .117.46q0 .245-.117.452-.119.207-.335.358-.218.15-.526.234a2.6 2.6 0 0 1-.686.083 2.3 2.3 0 0 1-.736-.11q-.32-.108-.536-.284c-.216-.176-.252-.251-.326-.4q-.111-.225-.111-.45h.905a.52.52 0 0 0 .267.433.8.8 0 0 0 .259.097q.144.03.298.03.353.001.537-.112c.184-.113.184-.171.184-.29"/><g fill="none" stroke="#000" stroke-linecap="round" stroke-linejoin="round" stroke-width="1.059"><path d="M21.625 21 16 24.363l5.625 3.363M28.375 27.726 34 24.363 28.375 21M26.125 21l-2.25 6.726"/></g><path fill="#fff" stroke="#231f20" stroke-miterlimit="10" d="M10 36h30"/></svg>