<svg xmlns="http://www.w3.org/2000/svg" viewBox="0 0 50 50"><ellipse cx="10.56" cy="30.788" fill="none" stroke="#000" stroke-linecap="round" stroke-linejoin="round" rx="3.924" ry="3.962"/><ellipse cx="39.377" cy="30.788" fill="none" stroke="#000" stroke-linecap="round" stroke-linejoin="round" rx="3.924" ry="3.962"/><path fill="none" stroke="#000" stroke-linecap="round" stroke-linejoin="round" d="M43.408 31.298s.942.017 1.219 0c1.471-.093 1.372-1.748 1.372-1.748 0-5.819-1.472-7.46-3.434-7.583s-21.95-.093-23.421-.093c-3.004 0-7.775.937-9.994 1.625C5.104 24.752 4 28.239 4 30.045c0 1.811 1.425 1.625 1.425 1.625h1.196"/><path fill="none" stroke="#000" stroke-linecap="round" stroke-linejoin="round" d="m16.692 21.998 5.272-6.562 18.946-.186M14.452 31.283h21.001"/><path fill="none" stroke="#000" stroke-linecap="round" stroke-linejoin="round" d="M38.672 15.281c.613.433 3.28 2.848 4.077 6.593M30.441 15.353l.218 6.517M17.09 24.101h3.311"/></svg>