<svg xmlns="http://www.w3.org/2000/svg" data-name="Isolation Mode" viewBox="0 0 50 50"><g fill="none" stroke="#000" stroke-linecap="round" stroke-linejoin="round"><path d="M23.13 19.266c2.36-1.728 3.963-5.107 3.963-8.994 0-5.644-3.38-7.777-7.549-7.777s-7.548 2.133-7.548 7.777c0 3.887 1.604 7.267 3.964 8.994M3.542 36.495l2.647-11.791a4.7 4.7 0 0 1 2.035-2.673s3.185-1.994 7.735-2.765c1.067.78 2.287 1.291 3.585 1.291s2.519-.51 3.586-1.291"/><path d="M27.571 20.48a24 24 0 0 0-4.447-1.214"/></g><g fill="none" stroke="#000" stroke-linecap="round" stroke-linejoin="round"><path d="M39.558 45.435a12.36 12.36 0 0 1-15.632-1.59c-4.85-4.882-4.85-12.797 0-17.679m1.933-1.59a12.36 12.36 0 0 1 15.631 1.59c4.85 4.882 4.85 12.797 0 17.679"/><path d="M18.958 26.166h4.968v5M46.458 43.845H41.49v-5"/><circle cx="32.707" cy="35.006" r="3.571"/><path d="m33.374 27.297.411 2.028.1.019q.392.082.758.213l1.313-1.575"/><path d="m33.785 29.325-.41-2.028a7.7 7.7 0 0 0-1.362 0l-.35 2.02m5.474-.659-.658 1.963q.322.278.598.596l1.917-.723"/><path d="m36.48 30.621.657-1.963a7.7 7.7 0 0 0-1.181-.676l-1.313 1.575m-3.884.003-1.381-1.539a8 8 0 0 0-1.172.692l.72 1.919"/><path d="m29.378 28.021 1.38 1.54q.44-.158.905-.243l.35-2.02m5.082 11.476 1.963.656q.387-.555.675-1.181l-1.575-1.312m-11.791-6.369 1.962.66q.278-.321.597-.596l-.72-1.919m9.944 4.335 1.537-1.382a8 8 0 0 0-.693-1.172l-1.917.723m3.34 4.45-2.028.412-.019.104q-.082.389-.212.754l1.575 1.312"/><path d="m38.389 36.08 2.028-.413q.06-.69-.001-1.36l-2.02-.35"/><path d="m39.687 31.666-1.537 1.382q.16.442.245.909l2.02.35m-5.747 6.139 1.384 1.537a8 8 0 0 0 1.171-.694l-.724-1.917m-4.472 3.34-.407-2.029-.09-.016a6 6 0 0 1-.767-.217l-1.316 1.572"/><path d="m31.62 40.683.407 2.03a7.7 7.7 0 0 0 1.361.001l.355-2.019m2.309 1.288-1.384-1.537q-.45.162-.925.249l-.355 2.02m5.67-3.285-1.963-.656a6 6 0 0 1-.596.598l.724 1.917m-8.294-1.907-.661 1.962a7.7 7.7 0 0 0 1.18.678l1.315-1.572m-5.762-6.121 2.029-.409.017-.092q.083-.396.215-.765l-1.572-1.315"/><path d="m28.33 31.228-1.963-.66a7.7 7.7 0 0 0-.677 1.18l1.572 1.315m-.232.857-2.03.41q-.06.69-.001 1.36l2.02.354m.244.908-1.54 1.38q.294.617.69 1.172l1.92-.72m-.065 2.56.66-1.962a6 6 0 0 1-.595-.597l-1.92.72"/><path d="m25.722 38.332 1.54-1.38a6 6 0 0 1-.243-.91L25 35.69"/></g></svg>