<svg xmlns="http://www.w3.org/2000/svg" data-name="Isolation Mode" viewBox="0 0 50 50"><path d="M21.958 29.984a1 1 0 1 0 0 1.998 1 1 0 0 0 0-1.998"/><path fill="none" stroke="#000" stroke-linecap="round" stroke-linejoin="round" d="M41.985 15 42 6H2l-.028 22.984M2 29v4l30-.012M21.931 32.982v2.998M14 35.98h16M2 29l30-.016"/><path fill="none" stroke="#000" stroke-linecap="round" stroke-linejoin="round" d="M25.582 13.881h.001l-4.766 7.21-2.565-3.405"/><circle cx="21.917" cy="17.486" r="7" fill="none" stroke="#000" stroke-miterlimit="10"/><path fill="none" stroke="#000" stroke-linecap="round" stroke-linejoin="round" d="M42.618 26.376zl-3.404 5.15-1.832-2.432"/><circle cx="40" cy="28.95" r="5" fill="none" stroke="#000" stroke-miterlimit="10"/><path fill="none" stroke="#000" stroke-linecap="round" stroke-linejoin="round" d="M38.571 42.531h2.901M48 18.595v-2.87c0-.4-.325-.725-.725-.725H32.768c-.4 0-.725.325-.725.725v2.87m0 21.76v2.92c0 .4.324.725.725.725h14.507c.4 0 .725-.325.725-.725v-2.92"/><rect width="15.957" height="23.211" x="32.043" y="17.87" fill="none" stroke="#000" stroke-linecap="round" stroke-linejoin="round" rx=".725" ry=".725"/><path d="M34.219 15.694a.725.725 0 1 0 0 1.45.725.725 0 0 0 0-1.45"/></svg>