<svg xmlns="http://www.w3.org/2000/svg" data-name="Isolation Mode" viewBox="0 0 50 50"><path fill="none" stroke="#000" stroke-linecap="round" stroke-linejoin="round" d="M40.975 25.342v2.982"/><path d="M9.975 25.833a1 1 0 1 1 0 2 1 1 0 0 1 0-2m0-1c-1.103 0-2 .897-2 2s.897 2 2 2 2-.897 2-2-.897-2-2-2"/><path fill="none" stroke="#000" stroke-linecap="round" stroke-miterlimit="10" d="M32.434 30.833H43.59c.766 0 1.386-.62 1.386-1.386v-5.191c0-.786-.637-1.423-1.423-1.423m-37.192 0c-.765 0-1.386.62-1.386 1.386v5.228c0 .766.62 1.386 1.386 1.386h9.618"/><path fill="none" stroke="#000" stroke-linecap="round" stroke-linejoin="round" d="M36.975 25.342v2.982M40.975 17.342v2.982M36.975 17.342v2.982M32.975 17.342v2.982"/><path d="M9.975 17.833a1 1 0 1 1 0 2 1 1 0 0 1 0-2m0-1c-1.103 0-2 .897-2 2s.897 2 2 2 2-.897 2-2-.897-2-2-2"/><path fill="none" stroke="#000" stroke-linecap="round" stroke-miterlimit="10" d="M32.348 22.833h11.241c.766 0 1.386-.62 1.386-1.386v-5.191c0-.786-.637-1.423-1.423-1.423H6.362c-.766 0-1.387.62-1.387 1.386v5.228c0 .766.62 1.386 1.386 1.386h9.684"/><path fill="none" stroke="#000" stroke-linecap="round" stroke-linejoin="round" d="M40.975 9.342v2.982M36.975 9.342v2.982M32.975 9.342v2.982"/><path d="M9.975 9.833a1 1 0 1 1 0 2 1 1 0 0 1 0-2m0-1c-1.103 0-2 .897-2 2s.897 2 2 2 2-.897 2-2-.897-2-2-2"/><path fill="none" stroke="#000" stroke-miterlimit="10" d="M6.361 6.833h37.191c.786 0 1.423.638 1.423 1.423v5.191c0 .765-.62 1.386-1.386 1.386H6.361a1.387 1.387 0 0 1-1.386-1.386V8.219c0-.765.621-1.386 1.386-1.386Z"/><path fill="none" stroke="#000" stroke-linecap="round" stroke-linejoin="round" d="m17.771 33.372-2.575 2.574"/><circle cx="24.207" cy="26.935" r="9.102" fill="none" stroke="#000" stroke-linecap="round" stroke-linejoin="round"/><circle cx="24.207" cy="26.935" r="6.675" fill="none" stroke="#000" stroke-linecap="round" stroke-linejoin="round"/><rect width="9.709" height="2.427" x="6.909" y="38.165" fill="none" stroke="#000" stroke-linecap="round" stroke-linejoin="round" rx="1.214" ry="1.214" transform="rotate(-45 11.763 39.379)"/></svg>