<svg xmlns="http://www.w3.org/2000/svg" data-name="Isolation Mode" viewBox="0 0 50 50"><g fill="none" stroke="#231f20" stroke-linecap="round" stroke-linejoin="round"><g data-name="Group 13221"><path d="m29.01 38.518 6.617-6.616" data-name="Line 154"/><path d="M35.627 36.864v-4.962h-4.963" data-name="Path 60447"/></g><circle cx="33.972" cy="33.005" r="11.028"/><circle cx="32.318" cy="35.21" r="8.271"/></g><g fill="none" stroke="#231f20" stroke-linecap="round" stroke-linejoin="round"><path d="M19.535 7.881v25.45M11.51 21.656a.786.786 0 1 0 0 1.571l.056-.005a.783.783 0 0 0-.057-1.566m3.953-2.707c.07.362.388.636.77.636l.057-.005a.783.783 0 0 0-.056-1.566.786.786 0 0 0-.77.935M9.92 16.652q.03-.002.057-.006a.783.783 0 0 0-.056-1.565.786.786 0 1 0 0 1.57m6.687-6.293a.786.786 0 1 0-.785.786q.029-.002.056-.006a.783.783 0 0 0 .73-.78m-.181 15.24.057-.005a.783.783 0 0 0-.057-1.566.786.786 0 0 0 0 1.571m-6.485 4.015c0 .434.351.785.785.785l.056-.005a.783.783 0 0 0-.056-1.566.786.786 0 0 0-.785.786m4.537 3.222c0 .434.352.786.786.786.019 0 .037-.005.056-.006a.783.783 0 0 0-.056-1.566.786.786 0 0 0-.786.786"/><path d="M14.004 16.588c.191-1.285-.408-2.562-1.56-3.323-1.222-.77-2.871-.77-4.523 0-2.208 1.03-1.454 4.358-1.448 4.392a.3.3 0 0 1-.048.246c-.018.025-1.704 2.492-.807 4.414.502 1.074 1.736 1.802 3.666 2.163"/><path d="M15.21 9.832c-1.17-.958-2.423-2.06-3.645-1.566-1.068.433-1.929 2.449-1.369 4.425M19.535 33.331V7.881"/><path d="M6.226 23.151c-1.175.938-1.445 2.374-1.066 3.345.43 1.306 1.493 2.233 2.035 2.298.2.024.34.19.314.371l-.008.04c-.362 1.285.002 2.65.97 3.643.557.677 1.413 1.096 2.34 1.144.179-.018.345.085.391.243.557 1.66 2.412 2.658 4.276 2.3 3.91-.455 4.054-3.125 4.057-3.204m-6.99-25.153c2.268-2.12 4.804-2.531 6.007-2.001.668.341.98 1.105.983 1.704M10.165 16.609l1.555 2.892M15.443 18.939l-3.723.562M15.443 18.939h.001M11.72 19.501l-.139 2.136M14.039 30.283l.866 1.854"/><path d="m15.69 25.118-2.51 1.261.86 3.904M14.039 30.283l-2.541-.516M19.535 7.881v25.45M23.608 18.949a.785.785 0 0 1-.771.636l-.056-.005a.783.783 0 0 1 .056-1.566.786.786 0 0 1 .77.935m5.543-2.297q-.03-.002-.057-.006c-.407-.03-.73-.365-.73-.78s.352-.785.786-.785a.786.786 0 1 1 0 1.57m-6.688-6.293a.786.786 0 1 1 .786.786q-.029-.002-.056-.006a.783.783 0 0 1-.73-.78"/><path d="M25.065 16.588c-.19-1.285.409-2.562 1.56-3.323 1.223-.77 2.872-.77 4.524 0 2.207 1.03 1.454 4.358 1.448 4.392a.3.3 0 0 0 .048.246c.017.023 1.51 2.21.94 4.069"/><path d="M23.859 9.832c1.171-.958 2.424-2.06 3.646-1.566 1.067.433 1.929 2.449 1.368 4.425M19.535 33.331V7.881"/><path d="M23.36 36.518c-3.91-.455-3.823-3.108-3.825-3.187m6.99-25.153c-2.268-2.12-4.805-2.531-6.007-2.001-.669.341-.981 1.105-.983 1.704M28.905 16.609l-1.555 2.892M23.626 18.939l3.724.562M27.35 19.501l1.64 3.287M22.587 25.598l-.057-.005a.783.783 0 0 1 .057-1.566.786.786 0 0 1 0 1.571M23.325 25.118l2.021.992"/></g></svg>