<svg xmlns="http://www.w3.org/2000/svg" data-name="Isolation Mode" viewBox="0 0 50 50"><path fill="none" stroke="#000" stroke-linecap="round" stroke-linejoin="round" d="M29.485 24.717c2.95-2.134 4.954-6.308 4.954-11.11C34.44 6.636 30.215 4 25.003 4s-9.436 2.636-9.436 9.607c0 4.802 2.005 8.977 4.956 11.111"/><path fill="none" stroke="#000" stroke-linecap="round" stroke-linejoin="round" d="m5 46 3.31-14.565a5.82 5.82 0 0 1 2.543-3.302s3.98-2.463 9.669-3.416c1.333.965 2.859 1.596 4.481 1.596s3.149-.631 4.482-1.596"/><path fill="none" stroke="#000" stroke-linecap="round" stroke-linejoin="round" d="m45 46-3.31-14.565a5.82 5.82 0 0 0-2.543-3.302s-3.98-2.463-9.669-3.416"/></svg>