<svg xmlns="http://www.w3.org/2000/svg" viewBox="0 0 50 50"><circle cx="25" cy="25.094" r="20" fill="none" stroke="#000" stroke-linecap="round" stroke-linejoin="round"/><path fill="none" stroke="#000" stroke-linecap="round" stroke-linejoin="round" d="M33.389 13.651 21.312 25.726a5.89 5.89 0 0 0-8.087 2.587c-1.34 2.722-.325 6.122 2.288 7.665a5.89 5.89 0 0 0 8.18-7.872l3.748-3.743 2.551 2.558a1.683 1.683 0 1 0 2.38-2.38v-.004l-2.555-2.553 2.38-2.381 2.555 2.555a1.683 1.683 0 0 0 2.38-2.38l-2.554-2.556 1.13-1.127c.586-.583.735-1.518.265-2.198a1.686 1.686 0 0 0-2.584-.246M20.548 30.897a2.104 2.104 0 1 1-4.208 0 2.104 2.104 0 0 1 4.208 0"/></svg>