<svg xmlns="http://www.w3.org/2000/svg" viewBox="0 0 50 50"><g fill="none" stroke="#000" stroke-linecap="round" stroke-linejoin="round" data-name="Group 12766"><g data-name="Group 12261"><path d="M16.608 15.364h17.085v15.05H16.608z" data-name="Rectangle 8997"/><path d="M31.543 15.364V11.07c0-3.568-2.87-6.461-6.412-6.461S18.72 7.5 18.72 11.068v4.295" data-name="Path 60448"/></g><g data-name="Group 12260"><path d="M43.5 39.01H31.581a4.63 4.63 0 0 1-3.96-2.66l-5.28-11.973c-.868-1.52-2.226-2.66-3.961-2.66H6.5"/><path d="M23.753 33.146 22.34 36.35c-.867 1.52-2.225 2.66-3.96 2.66H6.5m37-17.293H31.58a4.63 4.63 0 0 0-3.96 2.66l-1.443 3.228"/><path d="m39.54 17.726 3.96 3.991-3.96 3.99m0 9.312 3.96 3.99L39.54 43m-29.08 0L6.5 39.01l3.96-3.991m0-17.293L6.5 21.717l3.96 3.99"/></g></g></svg>