<svg xmlns="http://www.w3.org/2000/svg" viewBox="0 0 50 50"><path d="m22.058 21.942.54 2.137.613-2.137h1.363v5.687h-1.008v-1.683l.047-2.66-.746 2.468h-.543l-.668-2.363.047 2.555v1.683h-1.008v-5.687zm4.629 4.801h2.664v.886h-3.765v-5.687h1.101z"/><g fill="none" stroke="#000" stroke-linecap="round" stroke-linejoin="round"><path d="M9 9h32v32H9z"/><path d="M15 15h20v20H15zM38 9V5M31.5 9V5M25 9V5M18.5 9V5M12 9V5M38 45v-4M31.5 45v-4M25 45v-4M18.5 45v-4M12 45v-4M41 38h4M41 31.5h4M41 25h4M41 18.5h4M41 12h4M5 38h4M5 31.5h4M5 25h4M5 18.5h4M5 12h4"/></g></svg>