<svg xmlns="http://www.w3.org/2000/svg" viewBox="0 0 50 50"><path fill="none" stroke="#000" stroke-linecap="round" stroke-linejoin="round" d="M33.062 14.048 21.288 25.822a5.743 5.743 0 0 0-7.885 2.522c-1.307 2.654-.317 5.97 2.23 7.473a5.743 5.743 0 0 0 7.976-7.675l3.655-3.65 2.487 2.495a1.641 1.641 0 1 0 2.32-2.322v-.003l-2.491-2.489 2.32-2.322 2.492 2.492a1.641 1.641 0 0 0 2.32-2.32l-2.49-2.493 1.102-1.098c.571-.57.716-1.48.258-2.144a1.644 1.644 0 0 0-2.52-.24m-12.52 16.815a2.051 2.051 0 1 1-4.102 0 2.051 2.051 0 0 1 4.102 0"/><g fill="none" stroke="#000" stroke-linecap="round" stroke-linejoin="round"><path d="m46.478 38.916-7.07.109-.134-7.07M3.522 11.288l7.07-.11.134 7.071"/><path d="M36.889 41.217c-7.704 5.686-18.63 5.134-25.769-1.765-7.957-7.69-8.197-20.352-.536-28.281m2.511-2.201c7.704-5.686 18.629-5.133 25.768 1.766 7.957 7.69 8.197 20.351.536 28.28"/></g></svg>