<svg xmlns="http://www.w3.org/2000/svg" data-name="Isolation Mode" viewBox="0 0 50 50"><path fill="none" stroke="#000" stroke-linecap="round" stroke-linejoin="round" d="M35.232 14.679h-21.96"/><g fill="none" stroke="#000" stroke-linecap="round" stroke-linejoin="round"><path d="M14.97 20.441h1.345"/><path stroke-dasharray="2.721456 2.041092" d="M18.356 20.441h13.267"/><path d="M32.644 20.441h1.345"/></g><path fill="none" stroke="#000" stroke-linecap="round" stroke-linejoin="round" d="m33.99 23.241 2.741-2.747-2.742-2.746M16.01 17.426l-2.741-2.747 2.742-2.747"/><circle cx="24.9" cy="33.5" r="9" fill="none" stroke="#000" stroke-linecap="round" stroke-linejoin="round"/><path fill="none" stroke="#000" stroke-linecap="round" stroke-linejoin="round" d="M45 29.5v-22H5v22M33.9 33.5H45s1-.549 1-2-1-2-1-2H33.037m-16.283 0H5s-1 .549-1 2 1 2 1 2h10.9"/><circle cx="24.949" cy="33.453" r="3.249" fill="none" stroke="#000" stroke-linecap="round" stroke-linejoin="round" stroke-width=".75"/><path fill="none" stroke="#000" stroke-linecap="round" stroke-linejoin="round" stroke-width=".75" d="m25.44 27.252.335 1.644.081.014q.318.067.615.173l1.066-1.276"/><path fill="none" stroke="#000" stroke-linecap="round" stroke-linejoin="round" stroke-width=".75" d="m25.775 28.896-.334-1.644a6.3 6.3 0 0 0-1.106 0l-.284 1.637m4.445-.534-.534 1.591q.261.225.486.483l1.557-.586M27.962 29.946l.534-1.591q-.45-.314-.959-.548l-1.066 1.276m-3.155.003-1.12-1.247a6.3 6.3 0 0 0-.953.56l.586 1.556"/><path fill="none" stroke="#000" stroke-linecap="round" stroke-linejoin="round" stroke-width=".75" d="m22.195 27.839 1.121 1.247q.358-.127.735-.197l.284-1.637m4.127 9.303 1.595.532q.314-.45.548-.958l-1.28-1.063m-9.575-5.163 1.594.535q.225-.26.485-.483l-.586-1.556m8.077 3.515 1.248-1.121a6.3 6.3 0 0 0-.563-.95l-1.557.586m2.712 3.608-1.647.334-.015.084q-.067.315-.173.611l1.28 1.063m-1.092-1.759 1.647-.333a6 6 0 0 0 0-1.104l-1.641-.283"/><path fill="none" stroke="#000" stroke-linecap="round" stroke-linejoin="round" stroke-width=".75" d="m30.568 30.793-1.249 1.12q.13.359.2.737l1.64.283m-4.667 4.977 1.123 1.246a6.3 6.3 0 0 0 .951-.562l-.588-1.554m-3.631 2.708-.33-1.645-.074-.013a5 5 0 0 1-.623-.176l-1.068 1.274"/><path fill="none" stroke="#000" stroke-linecap="round" stroke-linejoin="round" stroke-width=".75" d="m24.016 38.103.331 1.644q.56.05 1.105.002l.288-1.637"/><path fill="none" stroke="#000" stroke-linecap="round" stroke-linejoin="round" stroke-width=".75" d="m27.615 39.156-1.123-1.246a5 5 0 0 1-.752.202l-.288 1.637m4.605-2.662-1.595-.532q-.226.26-.484.485l.588 1.554m-6.736-1.546-.536 1.59q.45.316.958.55l1.068-1.274m-4.68-4.962 1.648-.331.014-.076q.067-.32.175-.62L19.2 30.86"/><path fill="none" stroke="#000" stroke-linecap="round" stroke-linejoin="round" stroke-width=".75" d="m21.344 30.438-1.594-.535q-.315.45-.55.957l1.277 1.065m-.189.695-1.647.332a6 6 0 0 0-.001 1.103l1.64.286m.197.737-1.25 1.119q.24.499.561.95l1.558-.583"/><path fill="none" stroke="#000" stroke-linecap="round" stroke-linejoin="round" stroke-width=".75" d="m21.294 38.638.537-1.59a5 5 0 0 1-.485-.484l-1.558.583m-.561-.95 1.25-1.119a5 5 0 0 1-.197-.737l-1.64-.286"/></svg>