<svg xmlns="http://www.w3.org/2000/svg" data-name="Isolation Mode" viewBox="0 0 50 50"><g fill="none" stroke="#000"><g stroke-linecap="round" stroke-linejoin="round"><path d="M23.13 19.266c2.36-1.728 3.963-5.107 3.963-8.994 0-5.644-3.38-7.777-7.549-7.777s-7.548 2.133-7.548 7.777c0 3.887 1.604 7.267 3.964 8.994M3.542 36.495l2.647-11.791a4.7 4.7 0 0 1 2.035-2.673s3.185-1.994 7.735-2.765c1.067.78 2.287 1.291 3.585 1.291s2.519-.51 3.586-1.291"/><path d="M27.571 20.48a24 24 0 0 0-4.447-1.214"/></g><g stroke-linecap="round" stroke-linejoin="round"><path d="M39.558 45.435a12.36 12.36 0 0 1-15.632-1.59c-4.85-4.882-4.85-12.797 0-17.679m1.933-1.59a12.36 12.36 0 0 1 15.631 1.59c4.85 4.882 4.85 12.797 0 17.679"/><path d="M18.958 26.166h4.968v5M46.458 43.845H41.49v-5"/></g><g stroke-miterlimit="10"><circle cx="32.708" cy="35.005" r="6.25"/><ellipse cx="32.708" cy="35.005" rx="3.222" ry="6.25"/><path d="M26.746 33.126H38.67M26.748 36.893h11.92"/></g></g><g fill="none" stroke="#000" stroke-linecap="round" stroke-linejoin="round"><path d="M36.736 17.748c1.176-.876 1.974-2.59 1.974-4.562 0-2.863-1.683-3.945-3.76-3.945s-3.76 1.082-3.76 3.945c0 1.972.8 3.686 1.975 4.563"/><path d="M33.165 17.748c.53.396 1.139.655 1.785.655.647 0 1.255-.259 1.786-.655"/><path d="M36.734 17.748c2.266.392 3.852 1.403 3.852 1.403.491.31.852.792 1.014 1.356l.32 1.638"/></g></svg>