<svg xmlns="http://www.w3.org/2000/svg" data-name="Isolation Mode" viewBox="0 0 50 50"><path fill="none" stroke="#000" stroke-miterlimit="10" d="M24.91 23.68c-5.636 0-10.204 4.568-10.204 10.204S19.274 44.09 24.91 44.09s10.205-4.569 10.205-10.205c-.006-5.633-4.571-10.198-10.205-10.205Z"/><path fill="none" stroke="#000" stroke-miterlimit="10" d="M21.49 28.973a.24.24 0 0 0-.24.24v9.605a.24.24 0 0 0 .36.208l8.387-4.796a.24.24 0 0 0 .089-.327.5.5 0 0 0-.089-.091l-8.388-4.807a.24.24 0 0 0-.12-.032Z"/><path fill="none" stroke="#000" stroke-linecap="round" stroke-linejoin="round" d="M13 33.91H9.318C5.828 33.91 3 31.115 3 27.665c0-3.441 2.814-6.231 6.291-6.246v-.001c0-5.129 4.205-9.286 9.391-9.286 1.38 0 2.69.297 3.87.826 1.563-4.116 5.577-7.046 10.286-7.046 6.065 0 10.982 4.862 10.982 10.86 0 .978-.133 1.925-.378 2.827C45.584 20.992 47 23.388 47 26.113c0 4.012-3.06 7.355-7 7.788h-3"/></svg>