<svg xmlns="http://www.w3.org/2000/svg" data-name="Isolation Mode" viewBox="0 0 50 50"><g fill="none" stroke-linecap="round" stroke-linejoin="round"><circle cx="25" cy="32.5" r="12.5" stroke="#000"/><g stroke="#231f20"><path d="M20.223 32.73a.492.492 0 1 0 0 .984q.018-.001.035-.004a.49.49 0 0 0-.035-.98m2.473-1.694a.49.49 0 0 0 .483.398q.017 0 .035-.003a.49.49 0 0 0-.035-.98.492.492 0 0 0-.483.585m-3.468-1.438q.018 0 .035-.003a.49.49 0 0 0-.035-.98.492.492 0 1 0 0 .983m4.186-3.938a.492.492 0 1 0-.492.491q.018 0 .035-.003a.49.49 0 0 0 .457-.488m-.113 9.538q.018-.001.035-.004a.49.49 0 0 0-.035-.98.492.492 0 0 0 0 .984m-4.059 2.512c0 .272.22.492.492.492q.018-.001.035-.004a.49.49 0 0 0-.035-.98.49.49 0 0 0-.492.492m2.84 2.017c0 .271.22.491.491.491q.019 0 .036-.003a.49.49 0 0 0-.036-.98.49.49 0 0 0-.491.492"/><path d="M21.784 29.558c.12-.804-.255-1.603-.976-2.08-.765-.481-1.797-.48-2.831 0-1.382.646-.91 2.728-.907 2.75a.2.2 0 0 1-.03.154c-.011.015-1.066 1.56-.505 2.762.315.672 1.087 1.128 2.295 1.354"/><path d="M22.54 25.33c-.734-.6-1.518-1.289-2.283-.98-.668.271-1.207 1.533-.856 2.77"/><path d="M20.87 24.295c1.42-1.326 3.007-1.584 3.76-1.252.419.213.614.691.615 1.066v15.928c-.001.05-.092 1.72-2.539 2.006-1.166.223-2.327-.401-2.676-1.44-.029-.1-.133-.164-.244-.152a2.03 2.03 0 0 1-1.465-.716c-.606-.621-.833-1.476-.607-2.28l.005-.025c.016-.113-.072-.217-.196-.232-.34-.04-1.005-.621-1.274-1.439-.237-.607-.068-1.506.667-2.093M19.381 29.572l.973 1.81M22.685 31.03l-2.331.352M20.354 31.382l-.087 1.337M21.806 38.129l.542 1.161"/><path d="m22.839 34.897-1.571.79.538 2.442M21.806 38.129l-1.59-.322M25.246 40.192q.7.057 1.4-.01l.35-2.08q.427-.08.84-.222l1.405 1.601q.631-.294 1.213-.7l-.721-1.983q.305-.257.58-.56l.07-.083 2.017.684q.41-.582.704-1.21L31.49 34.27a6 6 0 0 0 .253-.935l2.083-.433a8 8 0 0 0-.01-1.4l-2.079-.351a6 6 0 0 0-.222-.84l1.602-1.405a8 8 0 0 0-.7-1.213l-1.983.72a6 6 0 0 0-.563-.582l-.08-.068.686-2.016a8 8 0 0 0-1.21-.705l-1.359 1.614a6 6 0 0 0-.93-.252l-.43-2.084a8 8 0 0 0-1.301.002"/><path d="M25.246 28.33a3.981 3.981 0 0 1 3.602 6.59 3.98 3.98 0 0 1-3.602 1.262"/><path d="M25.246 36.182a3.98 3.98 0 0 0 3.602-1.263 3.981 3.981 0 0 0-3.602-6.59"/></g></g><g fill="none" stroke="#000"><path stroke-miterlimit="10" d="M34.023 23.986V6.82A1.84 1.84 0 0 0 32.177 5H17.869a1.84 1.84 0 0 0-1.846 1.82v17.033"/><path stroke-linecap="round" stroke-linejoin="round" d="M18.723 9.5h12.6M18.723 14h12.6M18.723 18.5h12.6"/><circle cx="20.523" cy="11.3" r=".338" stroke-miterlimit="10"/><circle cx="23.204" cy="11.3" r=".338" stroke-miterlimit="10"/><circle cx="26.793" cy="15.807" r=".338" stroke-miterlimit="10"/><circle cx="29.474" cy="15.807" r=".338" stroke-miterlimit="10"/><path stroke-miterlimit="10" d="M35.544 39.2h6.487a1.84 1.84 0 0 0 1.846-1.82V13.12a1.84 1.84 0 0 0-1.846-1.82h-8.008"/><path stroke-linecap="round" stroke-linejoin="round" d="M34.023 15.8h7.154M34.023 20.3h7.154M34.847 24.8h6.33M37.086 29.3h4.091M37.433 33.8h3.744"/><circle cx="36.719" cy="17.6" r=".338" stroke-miterlimit="10"/><circle cx="39.423" cy="17.6" r=".338" stroke-miterlimit="10"/><circle cx="36.73" cy="26.597" r=".338" stroke-miterlimit="10"/><circle cx="39.423" cy="26.597" r=".338" stroke-miterlimit="10"/><path stroke-miterlimit="10" d="M14.457 39.2H7.969a1.84 1.84 0 0 1-1.846-1.82V13.12A1.84 1.84 0 0 1 7.97 11.3h8.008"/><path stroke-linecap="round" stroke-linejoin="round" d="M15.977 15.8H8.823M15.977 20.3H8.823M15.153 24.8h-6.33M12.914 29.3H8.823M12.567 33.8H8.823"/><circle cx="13.281" cy="17.6" r=".338" stroke-miterlimit="10"/><circle cx="10.577" cy="17.6" r=".338" stroke-miterlimit="10"/><circle cx="13.27" cy="26.597" r=".338" stroke-miterlimit="10"/><circle cx="10.577" cy="26.597" r=".338" stroke-miterlimit="10"/></g></svg>