<svg xmlns="http://www.w3.org/2000/svg" viewBox="0 0 50 50"><g fill="none" stroke="#000" stroke-linecap="round" stroke-linejoin="round"><path d="M21.436 24.314h5.489v4.798h-5.489zM26.235 24.314v-1.37c0-1.137-.918-2.056-2.055-2.056s-2.055.919-2.055 2.056v1.37"/></g><g fill="none" stroke="#000" stroke-linecap="round" stroke-linejoin="round"><circle cx="24.18" cy="25" r="20"/><path d="M24.18 41c-8.822 0-16-7.178-16-16s7.178-16 16-16 16 7.178 16 16-7.178 16-16 16"/><path d="M24.18 37c-6.617 0-12-5.383-12-12s5.383-12 12-12 12 5.383 12 12-5.383 12-12 12"/><circle cx="24.18" cy="25" r="8"/></g></svg>