<svg xmlns="http://www.w3.org/2000/svg" data-name="Isolation Mode" viewBox="0 0 50 50"><path fill="none" stroke="#000" stroke-linecap="round" stroke-linejoin="round" d="M14 32.133H9.318C5.828 32.133 3 29.337 3 25.886c0-3.44 2.814-6.23 6.291-6.245v-.002c0-5.128 4.205-9.285 9.391-9.285 1.38 0 2.69.297 3.87.826 1.563-4.116 5.577-7.047 10.286-7.047 6.065 0 10.982 4.862 10.982 10.86 0 .979-.133 1.926-.378 2.828C45.584 19.215 47 21.611 47 24.336c0 4.012-3.06 7.355-7 7.788h-3M20.536 41.795h4.094M20.536 37.2h9.906M20.536 39.498h9.906"/><rect width="27.428" height="18.756" x="11.775" y="22.773" fill="none" stroke="#000" stroke-miterlimit="10" rx="1.17" ry="1.17" transform="rotate(-89.993 25.49 32.152)"/><rect width="9.906" height="9.906" x="20.536" y="24.399" fill="none" stroke="#000" stroke-miterlimit="10" rx=".944" ry=".944" transform="rotate(-90 25.49 29.352)"/><path fill="none" stroke="#000" stroke-linecap="round" stroke-linejoin="round" d="M24.052 20.63h2.877"/><g fill="none" stroke="#000" stroke-linecap="round" stroke-linejoin="round"><path d="M26.645 31.358c.757-.548 1.271-1.618 1.271-2.85 0-1.789-1.084-2.465-2.42-2.465-1.338 0-2.421.676-2.421 2.465 0 1.232.514 2.303 1.271 2.85"/><path d="m20.97 34.153.243-1.072a1.5 1.5 0 0 1 .652-.847s1.021-.632 2.48-.876c.343.247.734.41 1.15.41.417 0 .808-.163 1.15-.41"/><path d="m29.99 34.022-.213-.94a1.5 1.5 0 0 0-.653-.848s-1.021-.632-2.48-.876"/></g></svg>