<svg xmlns="http://www.w3.org/2000/svg" viewBox="0 0 50 50"><g fill="none" stroke="#000"><path stroke-miterlimit="10" d="m32.276 17.357-14.552.535a3.09 3.09 0 0 1-1.604 2.827l5.934 10.85a3.09 3.09 0 0 1 3.245.176l8.303-11.964a3.07 3.07 0 0 1-1.326-2.424Z"/><path stroke-linecap="round" stroke-linejoin="round" d="M17.724 17.892a3.1 3.1 0 0 0-.375-1.37 3.092 3.092 0 1 0-1.229 4.197m0 0a3.09 3.09 0 0 0 1.604-2.827m7.575 13.853a3.09 3.09 0 0 0-3.245-.175M22.054 31.57a3.092 3.092 0 1 0 4.196 1.229 3.1 3.1 0 0 0-.951-1.054m8.303-11.964a3.089 3.089 0 0 0 4.474-4.021 3.089 3.089 0 0 0-5.8 1.597M32.276 17.357a3.07 3.07 0 0 0 1.326 2.424"/></g><rect width="40" height="40" x="5" y="5" fill="none" stroke="#000" stroke-linecap="round" stroke-linejoin="round" rx="8.52" ry="8.52"/></svg>