<svg xmlns="http://www.w3.org/2000/svg" viewBox="0 0 50 50"><g fill="none" stroke="#000" stroke-linecap="round" stroke-linejoin="round"><path d="M10 5v40h30V16L29 5z"/><path d="M29 5v11h11"/></g><path d="M17.97 39.348h1.869v2.716h.93v.717h-2.8v-.717h.978v-1.997h-.977zm.914-.88a.5.5 0 0 1 .036-.189.4.4 0 0 1 .103-.15q.067-.06.16-.096c.094-.036.132-.035.209-.035a.52.52 0 0 1 .373.132q.137.132.137.338c0 .206-.046.25-.137.338a.52.52 0 0 1-.373.132.6.6 0 0 1-.208-.036.45.45 0 0 1-.264-.245.5.5 0 0 1-.036-.19m4.932 3.349H22.43l-.273.965h-.94l1.514-4.62h.81l1.485 4.62h-.94zm-1.168-.758h.958l-.472-1.702zm5.873.038q0 .374-.086.695-.088.32-.257.554c-.17.234-.254.278-.421.366q-.251.135-.574.134-.276-.001-.487-.095a1.1 1.1 0 0 1-.364-.268v1.62h-.883v-4.754h.816l.032.336q.158-.191.374-.295a1.14 1.14 0 0 1 .505-.106q.326 0 .578.126.25.125.422.356c.172.23.2.337.259.551q.086.324.086.713zm-.881-.067q0-.215-.04-.404a.8.8 0 0 0-.124-.327q-.084-.138-.216-.218c-.132-.08-.194-.079-.319-.079a.7.7 0 0 0-.38.09.6.6 0 0 0-.229.256v1.434a.66.66 0 0 0 .23.259.7.7 0 0 0 .385.097.6.6 0 0 0 .32-.082.64.64 0 0 0 .213-.226q.084-.143.122-.332c.038-.189.038-.26.038-.401zm4.704.067q0 .374-.087.695-.088.32-.257.554c-.169.234-.254.278-.42.366q-.252.135-.575.134-.277-.001-.486-.095a1.1 1.1 0 0 1-.365-.268v1.62h-.883v-4.754h.816l.032.336q.159-.191.374-.295a1.14 1.14 0 0 1 .505-.106q.327 0 .578.126.25.125.422.356c.172.23.2.337.259.551q.086.324.087.713zm-.882-.067q0-.215-.04-.404a.8.8 0 0 0-.124-.327q-.084-.138-.216-.218c-.132-.08-.193-.079-.318-.079a.7.7 0 0 0-.38.09.6.6 0 0 0-.23.256v1.434a.66.66 0 0 0 .23.259.7.7 0 0 0 .386.097.6.6 0 0 0 .319-.082.64.64 0 0 0 .214-.226q.082-.143.12-.332c.039-.189.039-.26.039-.401z"/><g fill="none" stroke="#000" stroke-linecap="round" stroke-linejoin="round" stroke-width="1.059"><path d="M21.625 21 16 24.363l5.625 3.363M28.375 27.726 34 24.363 28.375 21M26.125 21l-2.25 6.726"/></g><path fill="none" stroke="#000" stroke-miterlimit="10" d="M10 36h30"/></svg>