<svg xmlns="http://www.w3.org/2000/svg" viewBox="0 0 50 50"><g fill="none" stroke="#000" stroke-linecap="round" stroke-linejoin="round" opacity=".9" style="isolation:isolate"><path d="M17 16.37v13.332m24-2.667a4 4 0 1 0 0-8"/><path d="M18.333 29.702H9a4 4 0 0 1-4-4V20.37a4 4 0 0 1 4-4h12c3.957 0 12-1.135 20-6.667V36.37s-8-6.667-20-6.667z"/></g><path fill="none" stroke="#000" stroke-linecap="round" stroke-linejoin="round" d="M19.794 32.98a.97.97 0 0 0 .7-.283.64.64 0 0 0 .162-.628l-.612-2.017m-10.934 0 3.36 9.713c.109.315.457.533.854.533h6.227c.278 0 .54-.108.707-.292a.63.63 0 0 0 .145-.641l-3.255-9.301" opacity=".9" style="isolation:isolate"/></svg>