<svg xmlns="http://www.w3.org/2000/svg" viewBox="0 0 50 50"><g fill="none" stroke="#231f20" stroke-linecap="round" stroke-linejoin="round" data-name="Isolation Mode"><circle cx="25.002" cy="25" r="15.188"/><path d="M24.115 19.67c.27.201.577.333.905.333s.636-.132.905-.332c.596-.444 1-1.313 1-2.313 0-1.45-.853-2-1.905-2s-1.906.55-1.906 2c0 1 .405 1.869 1.001 2.313z"/><path d="M24.987 28.892c-.824 1.686-1.603 3.293-2.394 4.894-.393.797-1.008 1.048-1.664.706-.613-.319-.755-.95-.38-1.73.625-1.302 1.22-2.62 1.896-3.895a8.1 8.1 0 0 0 .966-4.231c-.03-.733-.308-1.087-.98-1.263a169 169 0 0 1-4.039-1.121c-.812-.235-1.177-.758-1.01-1.375.19-.713.8-1.006 1.637-.778 1.612.44 3.21.943 4.841 1.299.365.08.754.118 1.142.118.389 0 .777-.039 1.142-.118 1.63-.356 3.23-.86 4.842-1.3.836-.227 1.446.066 1.637.78.166.616-.199 1.139-1.01 1.374q-2.013.585-4.04 1.12c-.671.177-.95.531-.98 1.264a8.1 8.1 0 0 0 .967 4.23c.675 1.277 1.27 2.594 1.896 3.896.375.78.232 1.411-.38 1.73-.656.342-1.271.09-1.665-.706-.79-1.601-1.57-3.208-2.394-4.894z"/></g><g fill="none" stroke="#231f20" stroke-linecap="round" stroke-linejoin="round"><g data-name="Group 13221"><path d="m2.5 47.5 9.158-9.158" data-name="Line 154"/><path d="M11.658 45.21v-6.868H4.79" data-name="Path 60447"/></g><g data-name="Group 13221"><path d="m47.5 2.5-9.158 9.158" data-name="Line 154"/><path d="M38.342 4.79v6.868h6.868" data-name="Path 60447"/></g><g data-name="Group 13221"><path d="m2.5 2.5 9.158 9.158" data-name="Line 154"/><path d="M4.79 11.658h6.868V4.79" data-name="Path 60447"/></g><g data-name="Group 13221"><path d="m47.5 47.5-9.158-9.158" data-name="Line 154"/><path d="M45.21 38.342h-6.868v6.868" data-name="Path 60447"/></g></g></svg>