<svg xmlns="http://www.w3.org/2000/svg" data-name="Isolation Mode" viewBox="0 0 50 50"><g fill="none" stroke="#231f20" stroke-linecap="round" stroke-linejoin="round" stroke-width="1.02"><path d="m14.456 31.723-2.278.003c-3.028.002-5.485-2.422-5.488-5.416-.003-2.986 2.437-5.41 5.454-5.425v-.001c-.004-4.45 3.641-8.062 8.142-8.066a8.2 8.2 0 0 1 3.36.713c1.351-3.573 4.833-6.119 8.919-6.123 5.263-.005 9.534 4.21 9.54 9.415 0 .85-.115 1.671-.327 2.454 1.86 1.208 3.09 3.286 3.093 5.65.004 3.738-3.057 6.77-6.837 6.774l-1.834.002M26.73 5.785a6.8 6.8 0 0 1 2.345 2.034"/><path d="M26.73 5.785A6.8 6.8 0 0 0 23.534 5c-2.907.003-5.383 1.805-6.345 4.335a5.85 5.85 0 0 0-2.39-.505c-3.2.003-5.794 2.56-5.79 5.71v0c-2.147.011-3.882 1.727-3.88 3.84.002 1.855 1.34 3.401 3.117 3.758"/></g><path fill="none" stroke="#231f20" stroke-linecap="round" stroke-linejoin="round" stroke-width="1.02" d="M24.895 17.421V33.52"/><path fill="#231f20" d="M19.819 25.837a.795.795 0 1 0 0 1.59l.056-.005a.794.794 0 0 0-.056-1.585m-1.005-4.159a.795.795 0 1 0 0 1.59q.029-.002.056-.007a.792.792 0 0 0-.056-1.583m3.733-3.485a.795.795 0 0 0 0 1.59q.03-.002.058-.006a.793.793 0 0 0-.058-1.584m.383 9.144a.795.795 0 1 0 0 1.59q.03-.002.057-.007a.792.792 0 0 0-.056-1.583m-3.606 3.035a.795.795 0 1 0 0 1.592q.03-.002.057-.007a.79.79 0 0 0 .737-.789.795.795 0 0 0-.794-.796m2.871 2.038a.795.795 0 1 0 0 1.592c.019 0 .037-.005.056-.007a.79.79 0 0 0 .738-.789.795.795 0 0 0-.794-.795"/><path fill="none" stroke="#231f20" stroke-linecap="round" stroke-linejoin="round" stroke-width="1.02" d="M21.397 22.929c.121-.813-.258-1.62-.986-2.103-.774-.486-1.817-.486-2.862 0-1.397.653-.92 2.758-.916 2.779a.2.2 0 0 1-.03.155c-.012.017-1.078 1.577-.511 2.793.318.68 1.098 1.14 2.32 1.369"/><path fill="none" stroke="#231f20" stroke-linecap="round" stroke-linejoin="round" stroke-width="1.02" d="M22.16 18.655c-.74-.605-1.533-1.302-2.306-.99-.675.274-1.22 1.548-.865 2.799M24.895 33.52V17.421"/><path fill="none" stroke="#231f20" stroke-linecap="round" stroke-linejoin="round" stroke-width="1.02" d="M16.477 27.08c-.743.594-.914 1.503-.675 2.116.272.827.945 1.413 1.288 1.455.126.014.214.119.198.234l-.005.024c-.228.814.001 1.678.615 2.305.351.428.893.693 1.48.724a.23.23 0 0 1 .247.154c.352 1.05 1.525 1.681 2.704 1.456 2.473-.288 2.565-1.977 2.566-2.028m-4.421-15.91c1.434-1.342 3.04-1.602 3.8-1.267.423.216.62.7.621 1.078M18.968 22.942l.984 1.83M22.307 24.416l-2.355.356M19.952 24.772l-.088 1.351M21.419 31.592l.548 1.173"/><path fill="none" stroke="#231f20" stroke-linecap="round" stroke-linejoin="round" stroke-width="1.02" d="m22.463 28.325-1.588.797.544 2.47M21.419 31.592l-1.607-.327M24.896 17.421V33.52"/><path fill="#231f20" d="M29.972 25.837a.794.794 0 0 0-.057 1.585l.057.005a.795.795 0 1 0 0-1.59m1.005-4.159a.792.792 0 0 0-.057 1.583q.03.005.057.006a.795.795 0 1 0 0-1.59m-3.997 1.855a.792.792 0 0 0-.057 1.583l.056.006a.795.795 0 1 0 0-1.59m.265-5.338a.793.793 0 0 0-.058 1.585c.02.001.039.006.058.006a.795.795 0 0 0 0-1.591m-4.449 5.327a.793.793 0 0 0-.058 1.585c.02.001.039.006.058.006a.795.795 0 0 0 0-1.591m4.065 3.817a.792.792 0 0 0-.057 1.583c.02.002.038.007.058.007a.795.795 0 1 0 0-1.59m3.605 3.035a.795.795 0 0 0-.794.796c0 .419.325.76.737.79.02 0 .037.006.057.006a.795.795 0 1 0 0-1.592m-2.87 2.038a.795.795 0 0 0-.794.796c0 .42.325.76.737.79.02.001.037.006.057.006a.795.795 0 1 0 0-1.591"/><path fill="none" stroke="#231f20" stroke-linecap="round" stroke-linejoin="round" stroke-width="1.02" d="M28.394 22.929c-.121-.813.258-1.62.987-2.103.773-.486 1.816-.486 2.86 0 1.398.653.92 2.758.918 2.779a.2.2 0 0 0 .03.155c.011.017 1.077 1.577.51 2.793-.318.68-1.098 1.14-2.32 1.369"/><path fill="none" stroke="#231f20" stroke-linecap="round" stroke-linejoin="round" stroke-width="1.02" d="M27.63 18.655c.742-.605 1.534-1.302 2.307-.99.675.274 1.22 1.548.865 2.799M24.896 33.52V17.421"/><path fill="none" stroke="#231f20" stroke-linecap="round" stroke-linejoin="round" stroke-width="1.02" d="M33.315 27.08c.742.594.913 1.503.674 2.116-.272.827-.944 1.413-1.288 1.455-.125.014-.214.119-.198.234q.001.012.005.024c.228.814-.001 1.678-.615 2.305a2.05 2.05 0 0 1-1.48.724.23.23 0 0 0-.247.154c-.352 1.05-1.525 1.681-2.704 1.456-2.473-.288-2.565-1.977-2.566-2.028m4.421-15.91c-1.434-1.342-3.04-1.602-3.8-1.267-.423.216-.62.7-.62 1.078M30.823 22.942l-.984 1.83M27.484 24.416l2.355.356M29.839 24.772l.088 1.351M28.372 31.592l-.548 1.173"/><path fill="none" stroke="#231f20" stroke-linecap="round" stroke-linejoin="round" stroke-width="1.02" d="m27.328 28.325 1.588.797-.544 2.47M28.372 31.592l1.607-.327"/><g fill="none" stroke="#231f20" stroke-linecap="round" stroke-linejoin="round" stroke-width="1.02"><path d="M22.204 39.894h-4.715M22.204 35.923v3.971M27.759 39.894h4.715M27.759 35.923v3.971M24.991 35.044V45M31.122 38.357l1.351 1.537-1.35 1.534M18.84 41.428l-1.351-1.537 1.35-1.534M26.527 43.65 24.99 45l-1.534-1.35"/></g></svg>