<svg xmlns="http://www.w3.org/2000/svg" viewBox="0 0 50 50"><g fill="none" stroke="#231f20" stroke-linejoin="round"><path d="M31.878 39.018h6.433V11.65H10.943v6.437"/><path d="M17.26 11.752V5.334h27.367v27.368h-6.174"/><path d="M4.627 17.967h27.367v27.367H4.627z"/></g><path fill="none" stroke="#231f20" stroke-linecap="round" stroke-linejoin="round" stroke-width=".842" d="M17.87 22.686v17.662"/><path fill="#231f20" d="M12.3 31.919a.872.872 0 1 0 0 1.744q.032-.002.063-.006a.871.871 0 0 0-.062-1.738m-1.103-4.563a.872.872 0 1 0 0 1.744c.022 0 .041-.006.062-.007a.869.869 0 0 0-.062-1.737m4.096-3.824a.872.872 0 0 0 0 1.746q.03-.002.064-.007a.87.87 0 0 0-.064-1.739m.421 10.033a.872.872 0 1 0 0 1.744c.02 0 .04-.006.062-.007a.869.869 0 0 0-.062-1.737m-3.955 3.33a.872.872 0 1 0 0 1.746c.02 0 .04-.006.061-.008a.87.87 0 0 0 .81-.865.87.87 0 0 0-.872-.873m3.149 2.235a.872.872 0 1 0 0 1.747c.022 0 .041-.006.062-.007a.87.87 0 0 0 .81-.866.87.87 0 0 0-.872-.873"/><path fill="none" stroke="#231f20" stroke-linecap="round" stroke-linejoin="round" stroke-width=".842" d="M14.032 28.728c.133-.891-.282-1.777-1.082-2.306-.848-.534-1.993-.534-3.14 0-1.532.716-1.008 3.025-1.005 3.048a.2.2 0 0 1-.033.17c-.012.018-1.182 1.73-.56 3.065.35.745 1.205 1.25 2.545 1.501"/><path fill="none" stroke="#231f20" stroke-linecap="round" stroke-linejoin="round" stroke-width=".842" d="M14.87 24.04c-.813-.664-1.683-1.43-2.53-1.087-.742.3-1.34 1.699-.95 3.07M17.87 40.348V22.686"/><path fill="none" stroke="#231f20" stroke-linecap="round" stroke-linejoin="round" stroke-width=".842" d="M8.634 33.283c-.815.651-1.002 1.648-.74 2.321.299.907 1.036 1.55 1.413 1.596.138.015.235.13.217.257q-.001.014-.005.027c-.25.892.001 1.84.674 2.528.386.47.98.76 1.624.794a.255.255 0 0 1 .271.17c.386 1.15 1.674 1.844 2.966 1.596 2.714-.316 2.815-2.168 2.816-2.224m-4.85-17.456c1.573-1.471 3.334-1.756 4.169-1.39.463.238.68.768.68 1.184M11.368 28.743l1.079 2.007M15.031 30.36l-2.584.39M12.447 30.75l-.097 1.483M14.057 38.232l.601 1.288"/><path fill="none" stroke="#231f20" stroke-linecap="round" stroke-linejoin="round" stroke-width=".842" d="m15.202 34.648-1.742.875.596 2.71M14.057 38.232l-1.764-.358M17.87 22.686v17.662000000000003"/><path fill="#231f20" d="M23.44 31.919a.871.871 0 0 0-.062 1.739l.062.005a.872.872 0 1 0 0-1.744m1.103-4.563a.869.869 0 0 0-.062 1.737c.02.001.04.007.062.007a.872.872 0 1 0 0-1.744m-4.387 2.034a.869.869 0 0 0-.062 1.737c.021.001.041.007.062.007a.872.872 0 1 0 0-1.744m.291-5.858a.87.87 0 0 0-.064 1.739q.033.005.064.007a.872.872 0 0 0 0-1.746m-4.881 5.844a.87.87 0 0 0-.064 1.739c.021.002.043.007.064.007a.872.872 0 0 0 0-1.746m4.46 4.189a.869.869 0 0 0-.062 1.737c.022.001.041.007.062.007a.872.872 0 1 0 0-1.744m3.956 3.33a.87.87 0 0 0-.872.873c0 .46.357.833.81.865.02.002.04.008.062.008a.872.872 0 1 0 0-1.746m-3.149 2.235a.873.873 0 0 0-.872.874c0 .46.357.834.81.866.02.001.04.007.062.007a.872.872 0 1 0 0-1.746"/><path fill="none" stroke="#231f20" stroke-linecap="round" stroke-linejoin="round" stroke-width=".842" d="M21.709 28.728c-.133-.891.282-1.777 1.082-2.306.848-.534 1.993-.534 3.14 0 1.532.716 1.008 3.025 1.005 3.048a.2.2 0 0 0 .033.17c.012.018 1.182 1.73.56 3.065-.35.745-1.205 1.25-2.545 1.501"/><path fill="none" stroke="#231f20" stroke-linecap="round" stroke-linejoin="round" stroke-width=".842" d="M20.871 24.04c.813-.664 1.682-1.43 2.53-1.087.741.3 1.34 1.699.95 3.07M17.87 40.348V22.686"/><path fill="none" stroke="#231f20" stroke-linecap="round" stroke-linejoin="round" stroke-width=".842" d="M27.107 33.283c.815.651 1.002 1.648.74 2.321-.299.907-1.036 1.55-1.413 1.596-.138.015-.235.13-.218.257l.006.027c.25.892-.001 1.84-.674 2.528-.386.47-.98.76-1.624.794a.255.255 0 0 0-.271.17c-.386 1.15-1.674 1.844-2.967 1.596-2.713-.316-2.814-2.168-2.815-2.224m4.85-17.456c-1.573-1.471-3.334-1.756-4.17-1.39-.463.238-.679.768-.68 1.184M24.373 28.743l-1.079 2.007M20.71 30.36l2.584.39M23.294 30.75l.097 1.483M21.684 38.232l-.601 1.288"/><path fill="none" stroke="#231f20" stroke-linecap="round" stroke-linejoin="round" stroke-width=".842" d="m20.539 34.648 1.742.875-.597 2.71M21.684 38.232l1.763-.358"/></svg>