<svg xmlns="http://www.w3.org/2000/svg" viewBox="0 0 50 50"><path fill="#231f20" d="M33.97 32.68q.12 0 .227.06a.471.471 0 1 1-.228-.06m0-1a1.47 1.47 0 1 0-.003 2.941 1.47 1.47 0 0 0 .003-2.94"/><path fill="none" stroke="#231f20" stroke-linecap="round" stroke-linejoin="round" d="m24.628 30.76 9.34 2.392"/><circle cx="33.968" cy="33.152" r="11.032" fill="none" stroke="#231f20" stroke-linecap="round" stroke-linejoin="round"/><path fill="none" stroke="#231f20" stroke-linecap="round" stroke-linejoin="round" d="M41.775 30.594c.263.805.406 1.665.406 2.558m-2.086-5.47q.588.659 1.027 1.433m-15.367 4.037a8.213 8.213 0 0 1 13.122-6.586"/><g fill="none" stroke="#231f20" stroke-linecap="round" stroke-linejoin="round" data-name="Isolation Mode"><path d="M19.535 8.028v25.45M11.51 21.803a.786.786 0 1 0 0 1.571l.056-.005a.783.783 0 0 0-.057-1.566m3.953-2.707c.07.362.388.636.77.636l.057-.005a.783.783 0 0 0-.056-1.566.786.786 0 0 0-.77.935M9.92 16.799c.02 0 .038-.005.057-.006a.783.783 0 0 0-.056-1.566.786.786 0 1 0 0 1.572m6.687-6.294a.786.786 0 1 0-.785.786q.029-.002.056-.006a.783.783 0 0 0 .73-.78m-.181 15.24.057-.005a.783.783 0 0 0-.057-1.566.786.786 0 0 0 0 1.571M9.943 29.76c0 .434.351.785.785.785l.056-.005a.783.783 0 0 0-.056-1.566.786.786 0 0 0-.785.786m4.537 3.222c0 .434.352.785.786.785l.056-.005a.783.783 0 0 0-.056-1.566.786.786 0 0 0-.786.786"/><path d="M14.004 16.734c.191-1.284-.408-2.561-1.56-3.322-1.222-.77-2.871-.77-4.523 0-2.208 1.03-1.454 4.358-1.448 4.392a.3.3 0 0 1-.048.246c-.018.025-1.704 2.492-.807 4.414.502 1.074 1.736 1.802 3.666 2.163"/><path d="M15.21 9.979c-1.17-.958-2.423-2.06-3.645-1.566-1.068.433-1.929 2.449-1.369 4.425M19.535 33.478V8.028"/><path d="M6.226 23.298c-1.175.938-1.445 2.374-1.066 3.344.43 1.307 1.493 2.234 2.035 2.299.2.024.34.19.314.371l-.008.04c-.362 1.285.002 2.65.97 3.642.557.678 1.413 1.097 2.34 1.144.179-.018.345.086.391.244.557 1.66 2.412 2.658 4.276 2.3 3.91-.455 4.054-3.125 4.057-3.204m-6.99-25.153c2.268-2.12 4.804-2.531 6.007-2.001.668.341.98 1.104.983 1.704M10.165 16.756l1.555 2.892M15.443 19.086l-3.723.562M15.443 19.086h.001M11.72 19.648l-.139 2.136M14.039 30.43l.866 1.854"/><path d="m15.69 25.265-2.51 1.261.86 3.904M14.039 30.43l-2.541-.516M19.535 8.028v25.45M23.608 19.096a.785.785 0 0 1-.771.636l-.056-.005a.783.783 0 0 1 .056-1.566.786.786 0 0 1 .77.935m5.543-2.297c-.02 0-.038-.005-.057-.006a.783.783 0 0 1 .056-1.566.786.786 0 1 1 0 1.572m-6.688-6.294a.786.786 0 1 1 .786.786q-.029-.002-.056-.006a.783.783 0 0 1-.73-.78"/><path d="M25.065 16.734c-.19-1.284.409-2.561 1.56-3.322 1.223-.77 2.872-.77 4.524 0 2.207 1.03 1.454 4.358 1.448 4.392a.3.3 0 0 0 .048.246c.017.023 1.51 2.21.94 4.069"/><path d="M23.859 9.979c1.171-.958 2.424-2.06 3.646-1.566 1.067.433 1.929 2.449 1.368 4.425M19.535 33.478V8.028"/><path d="M23.36 36.665c-3.91-.456-3.823-3.108-3.825-3.187m6.99-25.153c-2.268-2.12-4.805-2.531-6.007-2.001-.669.341-.981 1.104-.983 1.704M28.905 16.756l-1.555 2.892M23.626 19.086l3.724.562M27.35 19.648l1.64 3.287M22.587 25.745l-.057-.005c-.407-.03-.729-.366-.729-.78s.352-.786.786-.786a.786.786 0 0 1 0 1.571M23.325 25.265l2.021.992"/></g></svg>