<svg xmlns="http://www.w3.org/2000/svg" viewBox="0 0 50 50"><g fill="none" stroke="#231f20" stroke-linecap="round" stroke-linejoin="round"><path d="M18.846 26.287c.154 1.647.244 3.858-.043 5.986m12.646-1.342c.17-3.914-.294-7.355-.549-8.888m-12.289 2.322c-.064-.42-.111-.668-.114-.68-.683-3.345 1.503-6.638 4.877-7.326a6.3 6.3 0 0 1 1.255-.126c2.581 0 4.874 1.6 5.806 3.93"/><path d="M17.651 17.916a8.33 8.33 0 0 1 5.305-3.59 8.32 8.32 0 0 1 6.532 1.408m1.438 1.303a8.24 8.24 0 0 1 1.863 3.751c.035.167.44 2.18.651 5.072m-16.661-6.212c-.5 1.377-.64 2.9-.327 4.432.006.035.458 2.43.456 5.206m4.652-9.628a4.13 4.13 0 0 0-1.018 3.63c.012.057 1.13 5.751.092 10.622m8.772-4.693c0 1.366-.071 2.827-.261 4.303m-5.987-14.94c.204-.076.413-.142.633-.187q.416-.084.838-.085a4.18 4.18 0 0 1 4.079 3.316c.035.172.5 2.484.651 5.652m-6.259-.028c.127 2.194.086 4.914-.503 7.438a2 2 0 0 0-.031.169"/><path d="M22.94 25.318a30 30 0 0 0-.355-2.442 2.077 2.077 0 0 1 1.624-2.449 2.083 2.083 0 0 1 2.458 1.615c.058.281 1.346 6.676.161 12.767"/><path d="M25.237 29.827c.073-4.041-.611-7.367-.611-7.367m.517 9.304a23.4 23.4 0 0 1-.517 3.393"/></g><path fill="none" stroke="#231f20" stroke-linecap="round" stroke-linejoin="round" d="M34.535 9.54q-1.006.05-2.006.087l-.003-.008-4.796-3.685c-1.584-1.217-3.491-1.246-5.093-.077l-5.166 3.77q-1-.037-2.006-.086c-3.79-.189-6.747-1.264-6.747 3.932s.703 13.62.703 13.62-.422 6.32 6.887 11.656C22.596 43.339 24.976 45 24.976 45h0s2.428-1.661 8.716-6.251c7.309-5.336 6.887-11.655 6.887-11.655s.703-8.426.703-13.621-2.957-4.12-6.747-3.932"/></svg>