<svg xmlns="http://www.w3.org/2000/svg" data-name="Isolation Mode" viewBox="0 0 50 50"><path fill="none" stroke="#000" stroke-linecap="round" stroke-linejoin="round" d="M44.942 35.45c1.337-3.241 1.073-6.668-.705-9.168-1.322-1.858-3.73-2.94-6.137-2.756-1.897.145-3.573 1.02-4.886 2.539-1.312-1.52-2.989-2.394-4.885-2.54-2.409-.184-4.816.899-6.138 2.757-1.778 2.5-2.041 5.928-.702 9.173l.682 1.393c.446.782.99 1.541 1.615 2.258 3.193 3.652 8.201 7.864 8.376 8.008l.02.018.028.026c.273.224.618.347.971.347h.068c.351 0 .696-.123.969-.347l.022-.019c.328-.276 5.25-4.427 8.402-8.033a14 14 0 0 0 1.62-2.267z"/><g fill="none" stroke="#000" stroke-linecap="round" stroke-linejoin="round"><path d="M23.802 19.266c2.36-1.728 3.964-5.107 3.964-8.994 0-5.644-3.38-7.777-7.55-7.777-4.168 0-7.548 2.133-7.548 7.777 0 3.887 1.604 7.267 3.965 8.994M4.214 36.495l2.648-11.791a4.7 4.7 0 0 1 2.035-2.673s3.184-1.994 7.735-2.765c1.066.78 2.287 1.291 3.585 1.291s2.518-.51 3.585-1.291"/><path d="M28.244 20.48a24 24 0 0 0-4.447-1.214"/></g></svg>