<svg xmlns="http://www.w3.org/2000/svg" data-name="Isolation Mode" viewBox="0 0 50 50"><path fill="none" stroke="#000" stroke-linecap="round" stroke-linejoin="round" d="M10.94 33.897H9.317C5.828 33.897 3 31.1 3 27.65c0-3.441 2.814-6.231 6.291-6.245v-.002c0-5.128 4.205-9.285 9.391-9.285 1.38 0 2.69.297 3.87.826 1.563-4.117 5.577-7.047 10.286-7.047 6.065 0 10.982 4.862 10.982 10.86 0 .978-.133 1.926-.378 2.828C45.584 20.979 47 23.375 47 26.1c0 4.306-3.53 7.797-7.886 7.797"/><g fill="none" stroke="#000" stroke-linecap="round" stroke-linejoin="round"><path d="M31.575 42.115A11.87 11.87 0 0 1 16.57 40.59c-4.656-4.687-4.656-12.285 0-16.972m1.855-1.528a11.87 11.87 0 0 1 15.006 1.527c4.656 4.687 4.656 12.285 0 16.972"/><path d="M11.8 23.617h4.77v4.8M38.2 40.589h-4.77v-4.8"/></g></svg>