<svg xmlns="http://www.w3.org/2000/svg" data-name="Isolation Mode" viewBox="0 0 50 50"><path d="m25.479 26.501-1.026.65-.341-.594 1.069-.551-1.07-.552.342-.606 1.026.65-.056-1.212h.695l-.055 1.213 1.013-.65.353.605-1.069.552 1.07.55-.354.596-1.013-.65.055 1.212h-.695zm3.868 0-1.025.65-.342-.594 1.07-.551-1.07-.552.342-.606 1.025.65-.055-1.212h.694l-.055 1.213 1.014-.65.353.605-1.07.552 1.07.55-.353.596-1.014-.65.055 1.212h-.694zm3.869 0-1.026.65-.341-.594 1.069-.551-1.07-.552.342-.606 1.026.65-.056-1.212h.695L33.8 25.5l1.013-.65.353.605-1.069.552 1.07.55-.354.596-1.013-.65.055 1.212h-.695zm3.868 0-1.025.65-.342-.594 1.07-.551-1.07-.552.342-.606 1.025.65-.055-1.212h.694l-.055 1.213 1.014-.65.353.605-1.07.552 1.07.55-.353.596-1.014-.65.055 1.212h-.694zm3.868 0-1.025.65-.342-.594 1.07-.551-1.07-.552.342-.606 1.025.65-.055-1.212h.694l-.055 1.213 1.014-.65.353.605-1.07.552 1.07.55-.353.596-1.014-.65.055 1.212h-.694z"/><g fill="none" stroke="#000" stroke-linecap="round" stroke-linejoin="round"><path d="M14.007 19.518V12h32v7.973H16.182M19.58 22h26.427v8h-23.5"/><circle cx="13.243" cy="28.75" r="9.25"/></g><g fill="none" stroke="#000" stroke-linecap="round" stroke-linejoin="round" stroke-width=".75"><path d="M9.526 27.111h7.151v6.251H9.526zM15.78 27.111v-1.785c0-1.481-1.197-2.678-2.678-2.678s-2.678 1.197-2.678 2.678v1.785"/></g><path d="m19.05 14.188-.002 2.381q-.003.32-.122.479-.111.15-.332.15-.203 0-.307-.15-.11-.157-.113-.478l-.002-2.382h-.796l-.001 2.382c0 .202.029.386.086.543.058.161.142.3.248.408q.163.169.386.252.223.087.5.086.293 0 .522-.085a1.04 1.04 0 0 0 .642-.662q.084-.238.084-.542l-.002-2.382zm3.873 1.893q-.152-.145-.362-.25a2.7 2.7 0 0 0-.455-.175 3 3 0 0 1-.296-.096 1.2 1.2 0 0 1-.216-.112.4.4 0 0 1-.126-.125.27.27 0 0 1-.04-.147q0-.082.031-.15a.34.34 0 0 1 .093-.119.5.5 0 0 1 .158-.08.8.8 0 0 1 .458.006q.098.035.162.097a.4.4 0 0 1 .097.148q.035.091.038.198l.003.057h.776v-.059a1.08 1.08 0 0 0-.368-.818 1.2 1.2 0 0 0-.41-.234 1.6 1.6 0 0 0-.522-.082q-.276 0-.508.07a1.3 1.3 0 0 0-.412.206q-.176.136-.276.328a.9.9 0 0 0-.101.43q0 .242.103.432.1.185.268.327.165.136.38.233.208.095.447.16.177.048.304.107a.7.7 0 0 1 .19.12.36.36 0 0 1 .124.285q0 .08-.033.146a.3.3 0 0 1-.094.113.5.5 0 0 1-.157.077c-.14.04-.335.035-.486-.003a.5.5 0 0 1-.195-.095q-.08-.064-.124-.164a.55.55 0 0 1-.05-.25l-.002-.057h-.781v.06q0 .202.058.37.056.168.158.3.101.134.237.232a1.5 1.5 0 0 0 .62.26q.167.03.342.03.274 0 .51-.065.239-.068.41-.198a.95.95 0 0 0 .273-.323.95.95 0 0 0 .1-.438 1 1 0 0 0-.326-.752M24.734 16.274h1.44v-.651h-1.44v-.767h1.676v-.668h-2.473v3.624h2.48v-.665h-1.683zM29.33 16.167a1 1 0 0 0 .35-.509q.046-.157.047-.354 0-.272-.096-.483a1 1 0 0 0-.275-.352 1.3 1.3 0 0 0-.423-.211 2 2 0 0 0-.545-.07h-1.234v3.624h.795V16.5h.417l.66 1.31h.82v-.09l-.732-1.42q.12-.06.217-.134m-1.381-1.313h.44q.271 0 .406.13c.09.086.134.205.134.366a.46.46 0 0 1-.137.355q-.139.13-.401.13h-.442zM32.042 16.212l-.871-2.024h-.78v3.624h.8v-2.035l.877 2.035h.773v-3.625h-.798zM34.583 14.188l-1.187 3.624h.838l.207-.733h.964l.204.733h.84l-1.166-3.625zm.63 2.199h-.571l.29-1.015zM38.148 15.337l-.29-1.15h-.946v3.625h.74v-1.098l-.02-1.118.3 1.06h.422l.35-1.158-.021 1.217v1.097h.74v-3.625h-.945zM41.014 17.147v-.873h1.44v-.651h-1.44v-.767h1.676v-.668h-2.474v3.624h2.481v-.665z"/></svg>