<svg xmlns="http://www.w3.org/2000/svg" viewBox="0 0 50 50"><g fill="none" stroke="#000" stroke-linecap="round" stroke-linejoin="round" data-name="Group 12766"><g data-name="Group 12261"><path d="M16.608 16.56h17.085v15.05H16.608z" data-name="Rectangle 8997"/><path d="M31.543 12.265c0-3.568-2.87-6.461-6.412-6.461s-6.411 2.893-6.411 6.461v4.294" data-name="Path 60448"/></g><g data-name="Group 12260"><path d="M43.5 40.206H31.581a4.63 4.63 0 0 1-3.96-2.66l-5.28-11.973c-.868-1.52-2.226-2.66-3.961-2.66H6.5"/><path d="m23.753 34.342-1.413 3.203c-.867 1.52-2.225 2.66-3.96 2.66H6.5m37-17.292H31.58a4.63 4.63 0 0 0-3.96 2.66l-1.443 3.228"/><path d="m39.54 18.922 3.96 3.991-3.96 3.99m0 9.312 3.96 3.99-3.96 3.991m-29.08 0-3.96-3.99 3.96-3.99m0-17.294L6.5 22.913l3.96 3.99"/></g></g></svg>