<svg xmlns="http://www.w3.org/2000/svg" viewBox="0 0 50 50"><path fill="none" stroke="#000" stroke-linecap="round" stroke-linejoin="round" d="M30 24V13c0-4-5-8-5-8h0s-5 4-5 8v11M24 11h2M30 27v5H20v-5M25 42v3M26.937 32l.056 1.797a3.76 3.76 0 0 1-.362 1.694L25 38.845l-1.631-3.354a3.76 3.76 0 0 1-.362-1.694L23.063 32"/><g fill="none" stroke="#000" stroke-linecap="round" stroke-linejoin="round"><path d="M32 36v6M18 36v6"/></g><path fill="none" stroke="#000" stroke-linecap="round" stroke-linejoin="round" d="M25 23v8.5M20 20.5l-5 4 1.016 7.018 3.759-3.12M30 20.5l5 4-1.016 7.018-3.759-3.12"/></svg>