<svg xmlns="http://www.w3.org/2000/svg" viewBox="0 0 50 50"><g fill="none" stroke="#000" stroke-linecap="round" stroke-linejoin="round"><path d="m16.323 27.424-1.248 1.248a1.263 1.263 0 0 0 0 1.787h0a1.263 1.263 0 0 0 1.787 0l1.248-1.248 1.821-1.822s.572-.294.572-1.668.314-2.79.314-2.79l2.526-2.527M31.783 11.964l6.783-6.782"/><path d="m17.398 26.35-6.574 6.573a1.263 1.263 0 0 1-1.787 0h0a1.263 1.263 0 0 1 0-1.786l4.693-4.694"/><path d="m13.73 26.443-5.394 5.395a1.263 1.263 0 0 1-1.787 0h0a1.263 1.263 0 0 1 0-1.787l5.395-5.394"/><path d="m11.944 24.657-4.867 4.867a1.263 1.263 0 0 1-1.787 0h0a1.263 1.263 0 0 1 0-1.787l4.867-4.867"/><path d="M10.157 22.87 8.66 24.367a1.263 1.263 0 0 1-1.787 0h0a1.263 1.263 0 0 1 0-1.787l2.303-2.303s1.92-2.118 5.65-3.346l4.169-4.168"/></g><g fill="none" stroke="#000" stroke-linecap="round" stroke-linejoin="round"><path d="m27.422 33.663 1.248 1.248a1.263 1.263 0 0 0 1.787 0h0a1.263 1.263 0 0 0 0-1.786l-1.248-1.249-1.822-1.82s-.294-.572-1.668-.572-2.79-.315-2.79-.315l-2.527-2.525M11.962 18.203l-6.783-6.782"/><path d="m26.347 32.588 6.574 6.575a1.263 1.263 0 0 1 0 1.786h0a1.263 1.263 0 0 1-1.786 0l-4.694-4.693"/><path d="m26.441 36.256 5.395 5.395a1.263 1.263 0 0 1 0 1.786h0a1.263 1.263 0 0 1-1.787 0l-5.394-5.394"/><path d="m24.655 38.043 4.867 4.867a1.263 1.263 0 0 1 0 1.787h0a1.263 1.263 0 0 1-1.787 0l-4.867-4.868"/><path d="m22.868 39.83 1.497 1.496a1.263 1.263 0 0 1 0 1.787h0a1.263 1.263 0 0 1-1.787 0l-2.303-2.303s-2.118-1.92-3.346-5.65l-4.168-4.168"/></g><g fill="none" stroke="#000" stroke-linecap="round" stroke-linejoin="round"><path d="m33.677 22.572 1.248-1.248a1.263 1.263 0 0 0 0-1.787h0a1.263 1.263 0 0 0-1.787 0l-1.248 1.248-1.821 1.822s-.572.294-.572 1.668-.314 2.79-.314 2.79l-2.526 2.527M18.217 38.032l-6.783 6.782"/><path d="m32.602 23.647 6.574-6.574a1.263 1.263 0 0 1 1.787 0h0a1.263 1.263 0 0 1 0 1.786l-4.693 4.693"/><path d="m36.27 23.552 5.394-5.394a1.263 1.263 0 0 1 1.787 0h0a1.263 1.263 0 0 1 0 1.787l-5.395 5.394"/><path d="m38.056 25.34 4.867-4.868a1.263 1.263 0 0 1 1.787 0h0a1.263 1.263 0 0 1 0 1.787l-4.867 4.867"/><path d="m39.843 27.126 1.497-1.497a1.263 1.263 0 0 1 1.787 0h0a1.263 1.263 0 0 1 0 1.787l-2.303 2.303s-1.92 2.118-5.65 3.346l-4.169 4.168"/></g><g fill="none" stroke="#000" stroke-linecap="round" stroke-linejoin="round"><path d="m22.58 16.337-1.248-1.248a1.263 1.263 0 0 0-1.787 0h0a1.263 1.263 0 0 0 0 1.786l1.249 1.249 1.82 1.82s.296.572 1.67.572 2.79.315 2.79.315l2.526 2.525M38.04 31.797l6.783 6.782"/><path d="m23.655 17.412-6.574-6.575a1.263 1.263 0 0 1 0-1.786h0a1.263 1.263 0 0 1 1.787 0l4.693 4.693"/><path d="m23.56 13.744-5.394-5.395a1.263 1.263 0 0 1 0-1.786h0a1.263 1.263 0 0 1 1.787 0l5.395 5.394"/><path d="M25.348 11.957 20.48 7.09a1.263 1.263 0 0 1 0-1.787h0a1.263 1.263 0 0 1 1.787 0l4.867 4.868"/><path d="m27.134 10.17-1.497-1.496a1.263 1.263 0 0 1 0-1.787h0a1.263 1.263 0 0 1 1.787 0l2.303 2.303s2.118 1.92 3.346 5.65l4.169 4.168"/></g></svg>