<svg xmlns="http://www.w3.org/2000/svg" data-name="Isolation Mode" viewBox="0 0 50 50"><g fill="none" stroke="#000" stroke-linecap="round" stroke-linejoin="round"><path d="M22 36h6M45 34V12H5v22"/><path d="M45 38s1-.549 1-2-1-2-1-2H5s-1 .549-1 2 1 2 1 2z"/></g><path d="M27.704 19.996a1.126 1.126 0 0 1 0 2.25c-.641 0-1.125-.484-1.125-1.125s.484-1.125 1.125-1.125m-5.45 0c.61 0 1.106.505 1.106 1.125s-.496 1.125-1.107 1.125c-.64 0-1.143-.494-1.143-1.125s.502-1.125 1.143-1.125m5.451-1c-1.188 0-2.125.936-2.125 2.125s.937 2.125 2.125 2.125c1.153 0 2.125-.936 2.125-2.125s-.972-2.125-2.125-2.125m-5.45 0c-1.18 0-2.144.936-2.144 2.125s.965 2.125 2.143 2.125c1.143 0 2.107-.936 2.107-2.125s-.964-2.125-2.107-2.125"/><path fill="none" stroke="#000" stroke-miterlimit="10" d="M30.497 29.616H19.388c-.508 0-.924-.43-.924-.957l.044-11.086c0-.526.415-.957.924-.957H30.54c.508 0 .924.431.924.957l-.043 11.086c0 .527-.416.957-.924.957Z"/><path fill="none" stroke="#000" stroke-linecap="round" stroke-linejoin="round" d="m20.088 24.78 1.923 2.613 1.884-2.613 2.048 2.613 2.044-2.613 1.847 2.613"/><path fill="none" stroke="#000" stroke-linecap="round" stroke-miterlimit="10" d="M33.443 20.516v5.2M16.557 20.516v5.2"/></svg>