<svg xmlns="http://www.w3.org/2000/svg" viewBox="0 0 50 50"><g fill="none" stroke="#000" stroke-linecap="round" stroke-linejoin="round"><path d="M10 5v40h30V16L29 5z"/><path d="M29 5v11h11"/></g><path d="M22.735 41.442q-.024.375-.162.676-.139.3-.371.513-.233.211-.554.326a2.1 2.1 0 0 1-.71.115q-.443 0-.783-.163a1.6 1.6 0 0 1-.574-.454q-.233-.293-.356-.703c-.123-.41-.123-.574-.123-.902v-.67q0-.495.13-.905.129-.412.37-.704.238-.295.578-.456.34-.164.764-.164.41 0 .73.117t.545.332c.225.215.269.318.356.526q.128.31.164.7h-.957a1.6 1.6 0 0 0-.068-.39q-.052-.165-.153-.278c-.1-.113-.151-.13-.253-.167a1 1 0 0 0-.364-.056.75.75 0 0 0-.386.095.76.76 0 0 0-.272.28 1.4 1.4 0 0 0-.158.454 3.3 3.3 0 0 0-.052.61v.676q0 .735.207 1.087t.654.352q.377 0 .595-.2t.243-.647zm3.179.259a.59.59 0 0 0-.203-.467 1.2 1.2 0 0 0-.29-.184 3 3 0 0 0-.447-.155 4 4 0 0 1-.62-.223 2.2 2.2 0 0 1-.521-.321q-.225-.187-.36-.438a1.2 1.2 0 0 1-.136-.574q0-.314.133-.57c.133-.256.212-.318.37-.438q.235-.181.556-.278t.697-.098q.39 0 .713.113.323.112.556.316.231.204.362.483.13.282.13.616h-.936a1 1 0 0 0-.06-.308.66.66 0 0 0-.417-.397 1 1 0 0 0-.364-.057q-.192 0-.34.046-.15.046-.252.13c-.102.084-.12.122-.155.198s-.053.16-.053.248a.47.47 0 0 0 .07.253q.07.113.203.203c.133.09.197.115.324.166q.188.075.428.14.342.099.63.243c.287.144.355.209.493.34q.207.196.322.448.114.251.114.559 0 .328-.132.583a1.3 1.3 0 0 1-.364.43 1.6 1.6 0 0 1-.554.267q-.32.09-.7.09-.236 0-.47-.042a2.3 2.3 0 0 1-.448-.132q-.214-.09-.398-.223a1.2 1.2 0 0 1-.32-.31 1.44 1.44 0 0 1-.289-.903h.944q.006.226.079.386a.7.7 0 0 0 .2.264.8.8 0 0 0 .307.15q.18.047.395.048.191 0 .34-.045.149-.044.25-.123a.52.52 0 0 0 .213-.434m4.085 0a.59.59 0 0 0-.203-.467 1.2 1.2 0 0 0-.29-.184 3 3 0 0 0-.447-.155 4 4 0 0 1-.62-.223 2.2 2.2 0 0 1-.521-.321q-.225-.187-.36-.438a1.2 1.2 0 0 1-.136-.574q0-.314.133-.57c.133-.256.212-.318.37-.438q.235-.181.556-.278t.697-.098q.39 0 .713.113.323.112.556.316.231.204.362.483.13.282.13.616h-.936a1 1 0 0 0-.06-.308.66.66 0 0 0-.417-.397 1 1 0 0 0-.364-.057q-.192 0-.34.046-.15.046-.252.13c-.102.084-.12.122-.155.198s-.053.16-.053.248a.47.47 0 0 0 .07.253q.07.113.203.203c.133.09.197.115.324.166q.189.075.428.14.342.099.63.243c.287.144.355.209.493.34q.207.196.322.448.114.251.114.559 0 .328-.132.583a1.3 1.3 0 0 1-.364.43 1.6 1.6 0 0 1-.554.267q-.32.09-.7.09-.236 0-.47-.042a2.3 2.3 0 0 1-.448-.132q-.214-.09-.398-.223a1.2 1.2 0 0 1-.32-.31 1.44 1.44 0 0 1-.289-.903h.943q.008.226.08.386a.7.7 0 0 0 .2.264.8.8 0 0 0 .307.15q.18.047.395.048.191 0 .34-.045.149-.044.25-.123a.52.52 0 0 0 .213-.434"/><g fill="none" stroke="#000" stroke-linecap="round" stroke-linejoin="round" stroke-width="1.059"><path d="M21.625 21 16 24.363l5.625 3.363M28.375 27.726 34 24.363 28.375 21M26.125 21l-2.25 6.726"/></g><path fill="#fff" stroke="#231f20" stroke-miterlimit="10" d="M10 36h30"/></svg>