<svg xmlns="http://www.w3.org/2000/svg" viewBox="0 0 50 50"><g fill="none" stroke="#231f20" stroke-linecap="round" stroke-linejoin="round"><path d="M32.895 29.111h-15.55M19.982 26.234l-2.877 2.877 2.877 2.877M17.105 20.889h15.55M30.018 23.766l2.877-2.877-2.877-2.877"/></g><path fill="none" stroke="#231f20" stroke-linecap="round" stroke-linejoin="round" d="M34.663 9.347q-1.02.05-2.034.088l-.003-.008-4.86-3.732c-1.605-1.232-3.538-1.261-5.161-.077l-5.234 3.817q-1.013-.037-2.034-.088c-3.84-.19-6.837-1.28-6.837 3.981s.712 13.792.712 13.792-.427 6.398 6.98 11.8c6.371 4.648 8.783 6.33 8.783 6.33h0s2.462-1.682 8.833-6.33c7.407-5.402 6.98-11.8 6.98-11.8s.712-8.53.712-13.792c0-5.26-2.996-4.171-6.837-3.98"/></svg>