<svg xmlns="http://www.w3.org/2000/svg" viewBox="0 0 50 50"><g fill="none" stroke="#000" stroke-linecap="round" stroke-linejoin="round"><path d="m46.478 38.822-7.07.11-.134-7.071M3.522 11.194l7.07-.109.134 7.07"/><path d="M36.889 41.123c-7.704 5.686-18.63 5.134-25.769-1.765-7.957-7.69-8.197-20.351-.536-28.281m2.511-2.2c7.704-5.686 18.629-5.134 25.768 1.765 7.957 7.69 8.197 20.351.536 28.281"/></g><g fill="none" stroke="#000" stroke-linecap="round" stroke-linejoin="round"><path d="m21.615 25.082.001-.082h-4.23l-.001.053c0 1.764.275 3.432.764 4.918a25.5 25.5 0 0 1 3.724-.6 35 35 0 0 1-.258-4.29"/><path d="M21.873 29.371a25.5 25.5 0 0 0-3.724.6c.885 2.692 2.472 4.783 4.41 5.753q.131.03.263.058.69.138 1.408.188c-1.068-.822-1.943-3.313-2.357-6.599m6.23-8.742c.177 1.341.277 2.817.28 4.371h4.231a15.8 15.8 0 0 0-.797-4.963c-1.09.265-2.346.468-3.714.592"/><path d="M28.126 29.371q-.489-.045-.994-.075A35 35 0 0 0 25 29.23c-1.087 0-2.135.05-3.127.14.414 3.286 1.289 5.777 2.357 6.599q.381.029.77.03.385-.001.76-.031l.01-.007c1.068-.822 1.942-3.31 2.356-6.59"/><path d="m25.77 35.962-.01.007q.855-.065 1.67-.251c1.942-.967 3.534-3.057 4.42-5.75a25.6 25.6 0 0 0-3.724-.597c-.414 3.281-1.288 5.769-2.356 6.591"/><path d="M28.385 25.082c0 1.52-.093 2.969-.26 4.29 1.374.124 2.634.33 3.726.597.489-1.485.764-3.152.764-4.916L32.614 25h-4.23zm-6.487-4.45a26 26 0 0 1-3.713-.591 15.7 15.7 0 0 0-.8 4.959h4.231a34 34 0 0 1 .282-4.368"/><path d="M25 20.77a35 35 0 0 1-3.102-.138A34 34 0 0 0 21.616 25h6.768a34 34 0 0 0-.28-4.371q-.298.026-.6.049-1.21.089-2.504.091m-3.385 4.313c0 1.52.092 2.969.258 4.29.992-.091 2.04-.141 3.127-.141a35 35 0 0 1 3.126.14 35 35 0 0 0 .259-4.29L28.384 25h-6.768zm6.191-6.254q0-.003.003-.004zc.116.564.214 1.169.297 1.8a26 26 0 0 0 3.714-.59q-.224-.67-.503-1.285c-1.009-2.207-2.534-3.851-4.318-4.566a11 11 0 0 0-1.524-.175q.093.043.184.102c.892.579 1.659 2.312 2.15 4.714"/><path d="M22.244 18.608a26 26 0 0 0-.346 2.024q.455.04.924.07a35 35 0 0 0 4.681-.024q.304-.023.6-.05a26 26 0 0 0-.297-1.8c-.491-2.402-1.258-4.135-2.15-4.714a2 2 0 0 0-.184-.102A11 11 0 0 0 25 14c-.16 0-.32.008-.478.015-.938.44-1.752 2.153-2.278 4.593"/><path d="M22.244 18.608c.526-2.44 1.34-4.153 2.278-4.593q-.769.032-1.506.165c-1.725.69-3.208 2.253-4.218 4.351q-.346.717-.613 1.51a26 26 0 0 0 3.713.591c.095-.715.21-1.395.346-2.024m.316 17.116c-1.939-.97-3.526-3.061-4.411-5.753-.8.197-1.511.427-2.107.685q-.194.084-.371.172a11 11 0 0 0 6.889 4.896M32.614 25l.001.053c0 1.764-.275 3.43-.764 4.916.874.214 1.641.468 2.269.753h.008-.008q.108.05.21.1A10.9 10.9 0 0 0 36 25zm-.764 4.969c-.886 2.692-2.478 4.782-4.42 5.749l.073-.015a11.03 11.03 0 0 0 6.827-4.881l-.21-.1c-.628-.285-1.395-.54-2.27-.753M27.132 14.21l-.136-.023c1.784.715 3.309 2.359 4.318 4.566l.005-.004-.005.004c.187.409.353.84.503 1.284.99-.24 1.843-.532 2.515-.862q-.104-.166-.212-.327a11 11 0 0 0-6.988-4.637"/><path d="M32.614 25H36c0-2.14-.611-4.136-1.668-5.825-.672.33-1.525.621-2.515.862.504 1.496.791 3.18.797 4.963m-14.429-4.959c-.987-.24-1.837-.531-2.508-.86A10.9 10.9 0 0 0 14 25h3.385c.006-1.783.294-3.465.8-4.959m-.036 9.93a15.8 15.8 0 0 1-.764-4.918V25H14c0 2.14.613 4.138 1.67 5.828q.178-.088.372-.172a13.6 13.6 0 0 1 2.107-.685"/><path d="M18.798 18.531c1.01-2.098 2.493-3.66 4.218-4.35a11 11 0 0 0-7.34 5c.672.329 1.522.62 2.509.86a13 13 0 0 1 .613-1.51"/></g></svg>