<svg xmlns="http://www.w3.org/2000/svg" viewBox="0 0 50 50"><g fill="none" stroke="#000" stroke-linecap="round" stroke-linejoin="round"><ellipse cx="24.958" cy="21.143" rx="1.843" ry="1.836"/><ellipse cx="18.033" cy="26.259" rx="1.843" ry="1.836"/><ellipse cx="20.653" cy="34.471" rx="1.843" ry="1.836"/><ellipse cx="29.283" cy="34.471" rx="1.843" ry="1.836"/><ellipse cx="24.968" cy="28.444" rx="1.843" ry="1.836"/><ellipse cx="31.967" cy="26.259" rx="1.843" ry="1.836"/><path d="M24.985 23.015v3.623M19.872 26.748l3.361 1.088M21.652 32.951l2.206-3.024M28.285 32.962l-2.208-3.028M30.195 26.729l-3.493 1.131"/></g><path fill="none" stroke="#000" stroke-linecap="round" stroke-linejoin="round" d="M4.966 15.414V40.29h40.068V15.414"/><path fill="none" stroke="#000" stroke-linecap="round" stroke-linejoin="round" d="M4.966 9.711h40.068v5.703H4.966zM7.828 12.563h2.862M13.552 12.563h2.862M19.276 12.563h2.862"/><path d="M42.172 11.563a1 1 0 1 0 0 2 1 1 0 0 0 0-2"/></svg>