<svg xmlns="http://www.w3.org/2000/svg" viewBox="0 0 50 50"><g fill="none" stroke="#000" stroke-linecap="round" stroke-linejoin="round"><path d="M35.959 41.687c-7.716 5.145-18.213 4.298-25.01-2.544-7.76-7.811-7.76-20.475 0-28.286m3.092-2.544c7.716-5.145 18.213-4.298 25.01 2.544 7.76 7.811 7.76 20.475 0 28.286"/><path d="M3 10.857h7.949v8M47 39.143h-7.949v-8"/></g><g fill="none" stroke="#000" stroke-linecap="round" stroke-linejoin="round"><path d="M31.354 20.694c-.103-1.883-.284-5.623-6.491-5.649-4.889-.051-6.156 2.734-6.104 4.669.026 2.012.31 3.895 6.156 4.9 6.207 1.059 7.112 3.045 6.957 5.573-.13 2.089-1.371 4.769-6.906 4.769-5.638-.023-6.853-3.918-6.853-6.55M25 12.619v24.762"/></g></svg>