<svg xmlns="http://www.w3.org/2000/svg" data-name="Isolation Mode" viewBox="0 0 50 50"><g fill="none" stroke="#231f20" stroke-linecap="round" stroke-linejoin="round"><path d="M24.838 30.751h3.159l1.856-3.712 1.856 7.424 1.856-3.712h3.327M36.826 36.932l1.742 1.733M44.734 43.056c.46.458.437 1.222-.05 1.707h0c-.486.485-1.254.507-1.713.05l-4.452-4.441c-.46-.458-.438-1.222.05-1.707h0c.486-.485 1.254-.507 1.713-.05z"/><circle cx="30.865" cy="30.961" r="8.437"/><circle cx="30.865" cy="30.961" r="6.032"/></g><g fill="none" stroke="#231f20" stroke-linecap="round" stroke-linejoin="round"><path d="M19.552 8.085v25.368M11.553 21.815a.783.783 0 1 0 0 1.567c.02 0 .037-.005.056-.006a.78.78 0 0 0-.056-1.56m3.94-2.699c.07.361.387.634.768.634l.056-.005a.78.78 0 0 0-.056-1.56.783.783 0 0 0-.768.93M9.97 16.827l.056-.005a.78.78 0 0 0-.057-1.56.783.783 0 1 0 0 1.565m6.667-6.273a.783.783 0 1 0-.783.783l.056-.005a.78.78 0 0 0 .727-.778m-.18 15.191q.029-.002.056-.006a.78.78 0 0 0-.056-1.56.783.783 0 0 0 0 1.566m-6.465 4.001c0 .433.35.784.783.784.02 0 .038-.005.057-.006a.78.78 0 0 0-.057-1.56.783.783 0 0 0-.783.782m4.523 3.212c0 .433.35.783.783.783l.056-.005a.78.78 0 0 0-.056-1.56.783.783 0 0 0-.783.782"/><path d="M14.04 16.763c.19-1.28-.407-2.553-1.555-3.312-1.218-.767-2.862-.766-4.51 0-2.2 1.028-1.448 4.344-1.442 4.378a.3.3 0 0 1-.048.246c-.018.024-1.698 2.484-.804 4.4.5 1.07 1.73 1.796 3.654 2.156"/><path d="M15.243 10.03c-1.168-.955-2.417-2.054-3.634-1.561-1.065.43-1.923 2.44-1.365 4.41M19.552 33.453V8.085"/><path d="M6.287 23.306c-1.171.935-1.44 2.366-1.063 3.333.428 1.302 1.488 2.227 2.029 2.291.198.024.338.19.312.37l-.008.04c-.36 1.281.003 2.642.968 3.63.555.676 1.408 1.093 2.332 1.141.178-.018.344.085.39.242.555 1.655 2.404 2.65 4.262 2.294 3.897-.454 4.041-3.115 4.043-3.194M12.585 8.381c2.26-2.113 4.79-2.523 5.988-1.995.666.34.978 1.101.98 1.7M10.213 16.785l1.55 2.882M15.474 19.107l-3.711.56M15.474 19.107zM11.763 19.667l-.138 2.13M14.075 30.414l.863 1.849"/><path d="m15.72 25.266-2.502 1.257.857 3.891M14.075 30.414l-2.533-.514M19.553 8.085v25.368M23.612 19.117a.78.78 0 0 1-.768.634l-.056-.005a.78.78 0 0 1 .056-1.56.783.783 0 0 1 .768.93m5.524-2.289-.056-.005a.78.78 0 0 1 .056-1.56.783.783 0 1 1 0 1.565m-6.666-6.273a.783.783 0 1 1 .783.783l-.056-.005a.78.78 0 0 1-.727-.778"/><path d="M25.065 16.763c-.19-1.28.407-2.553 1.555-3.312 1.219-.767 2.863-.766 4.51 0 2.2 1.028 1.448 4.344 1.443 4.378a.3.3 0 0 0 .047.246c.017.023 1.506 2.202.937 4.055"/><path d="M23.863 10.03c1.167-.955 2.416-2.054 3.634-1.561 1.064.43 1.923 2.44 1.364 4.41M19.553 33.453V8.085"/><path d="M24.094 36.59c-3.898-.454-4.539-3.058-4.541-3.137M26.52 8.381c-2.26-2.113-4.789-2.523-5.988-1.995-.666.34-.977 1.101-.979 1.7M28.892 16.785l-1.549 2.882M23.631 19.107l3.712.56M27.343 19.667l1.396 2.728"/></g></svg>