<svg xmlns="http://www.w3.org/2000/svg" viewBox="0 0 50 50"><path d="M45.034 6.019H4.966a.5.5 0 0 0-.5.5v30.578a.5.5 0 0 0 .5.5h5.991a.5.5 0 1 0 0-1h-5.49V12.722h39.067v23.875h-5.53a.5.5 0 1 0 0 1h6.03a.5.5 0 0 0 .5-.5V6.519a.5.5 0 0 0-.5-.5m-39.568 1h39.068v4.703H5.466z"/><path d="M10.69 8.87H7.828a.5.5 0 1 0 0 1h2.862a.5.5 0 1 0 0-1m5.724 0h-2.862a.5.5 0 1 0 0 1h2.862a.5.5 0 1 0 0-1m5.724 0h-2.862a.5.5 0 1 0 0 1h2.862a.5.5 0 1 0 0-1"/><circle cx="42.172" cy="9.37" r="1"/><path d="M25 18.003c-7.156 0-12.979 5.822-12.979 12.978S17.844 43.96 25 43.96s12.979-5.822 12.979-12.979S32.156 18.003 25 18.003m0 25c-6.629 0-12.021-5.393-12.021-12.022S18.37 18.96 25 18.96s12.021 5.393 12.021 12.021S31.63 43.003 25 43.003"/><path d="m32.11 25.732.41-.41c.585-.583.686-1.477.237-2.125a1.65 1.65 0 0 0-1.205-.709 1.65 1.65 0 0 0-1.308.472l-7.922 7.922a4.44 4.44 0 0 0-3.158-.161 4.45 4.45 0 0 0-2.663 2.296 4.505 4.505 0 0 0 1.743 5.84 4.47 4.47 0 0 0 3.486.46 4.45 4.45 0 0 0 2.746-2.19 4.47 4.47 0 0 0 .164-3.928l1.93-1.928 1.374 1.378c.639.64 1.68.64 2.319 0a1.64 1.64 0 0 0-.001-2.32l-1.376-1.375.904-.904 1.382 1.382c.651.627 1.69.61 2.317-.04a1.635 1.635 0 0 0-.006-2.285zm.66 2.964a.64.64 0 0 1-.897.023l-1.73-1.73a.5.5 0 0 0-.706 0l-1.612 1.612a.5.5 0 0 0 0 .707l1.7 1.697.03.033a.64.64 0 0 1-.903.904l-1.726-1.731a.5.5 0 0 0-.708 0l-2.537 2.533a.5.5 0 0 0-.086.592 3.48 3.48 0 0 1 0 3.316 3.46 3.46 0 0 1-2.133 1.702 3.45 3.45 0 0 1-2.71-.359c-1.532-.905-2.14-2.94-1.354-4.537a3.46 3.46 0 0 1 2.07-1.785 3.47 3.47 0 0 1 2.718.254.495.495 0 0 0 .59-.086l8.174-8.173a.64.64 0 0 1 .984.098c.17.246.119.61-.12.848l-.765.762a.5.5 0 0 0-.001.708l1.723 1.725c.24.249.24.638 0 .887"/><path d="M20.482 33.063a1.926 1.926 0 0 0-1.924 1.923c0 1.062.863 1.925 1.924 1.925s1.924-.863 1.924-1.925c0-1.06-.863-1.923-1.924-1.923m0 2.848a.925.925 0 1 1 0-1.848.925.925 0 0 1 0 1.848"/></svg>