<svg xmlns="http://www.w3.org/2000/svg" viewBox="0 0 50 50"><path d="M38.745 37.563c-.57-.567-1.452-.641-2.147-.245l-1.24-1.235a9.54 9.54 0 0 0 2.479-6.412c0-4.706-3.41-8.624-7.887-9.43l.54-2.106a1.75 1.75 0 0 0 1.432-.807l6.877 1.477c.071.9.818 1.613 1.736 1.613.965 0 1.75-.785 1.75-1.75s-.785-1.75-1.75-1.75c-.658 0-1.226.37-1.525.91l-6.812-1.464a1.75 1.75 0 0 0-1.748-1.725 1.746 1.746 0 0 0-.924 3.23l-.577 2.246c-.233-.017-.466-.035-.703-.035a9.5 9.5 0 0 0-4.024.896l-2.07-2.456c.205-.287.33-.636.33-1.015 0-.964-.786-1.75-1.75-1.75s-1.75.786-1.75 1.75c0 .407.145.777.379 1.075l-1.732 3.04a1.7 1.7 0 0 0-.442-.064c-.631 0-1.18.339-1.488.84l-2.334-.69c.003-.04.012-.078.012-.12 0-.964-.785-1.75-1.75-1.75s-1.75.786-1.75 1.75c0 .573.28 1.078.707 1.397l-1.148 4.373a1.75 1.75 0 0 0-1.721 1.747c0 .964.785 1.75 1.75 1.75s1.75-.786 1.75-1.75c0-.622-.328-1.165-.817-1.476l1.13-4.3c.033.001.065.01.099.01.566 0 1.064-.275 1.384-.692l2.431.719a1.75 1.75 0 0 0 1.745 1.692c.964 0 1.75-.785 1.75-1.75 0-.449-.175-.854-.454-1.164l1.7-2.984c.173.058.355.097.548.097.223 0 .434-.045.63-.122l1.958 2.324c-2.789 1.68-4.664 4.728-4.664 8.214 0 5.288 4.303 9.59 9.591 9.59a9.54 9.54 0 0 0 6.404-2.471l1.24 1.234a1.83 1.83 0 0 0-.253.915c0 .467.178.903.503 1.225l4.798 4.786c.334.334.778.5 1.227.5a1.88 1.88 0 0 0 1.324-.553c.36-.358.558-.828.558-1.324a1.72 1.72 0 0 0-.504-1.223zm1.79-19.645a.751.751 0 0 1 0 1.5.751.751 0 0 1 0-1.5M30.45 15.64a.751.751 0 0 1 0 1.5.751.751 0 0 1 0-1.5M9.465 29.853a.751.751 0 0 1 0-1.5.751.751 0 0 1 0 1.5m2.162-7.517a.75.75 0 1 1 .002-1.501.75.75 0 0 1-.002 1.501m5.56 1.72a.75.75 0 1 1 .001-1.501.75.75 0 0 1-.001 1.501m2.794-6.55a.75.75 0 1 1 1.502.001.75.75 0 0 1-1.502-.002m-.326 12.165c0-4.737 3.854-8.591 8.591-8.591s8.59 3.854 8.59 8.59-3.853 8.592-8.59 8.592-8.591-3.854-8.591-8.591m23.13 14.517c-.33.329-.843.351-1.141.054l-4.798-4.786a.72.72 0 0 1-.21-.517c0-.227.093-.445.262-.613a.9.9 0 0 1 .622-.263c.192 0 .38.069.52.208l4.797 4.787a.72.72 0 0 1 .21.515c0 .225-.096.45-.263.615"/><path d="M28.246 22.67c-3.86 0-7 3.141-7 7s3.14 7 7 7 7-3.14 7-7-3.14-7-7-7m2.057 1.371-1.165 4.53c-.026 0-.05-.008-.075-.008-.442 0-.851.132-1.203.348l-3.325-3.946a5.97 5.97 0 0 1 3.711-1.295c.723 0 1.414.136 2.057.371m-1.24 5.522c.724 0 1.313.59 1.313 1.313s-.589 1.312-1.313 1.312a1.312 1.312 0 0 1 0-2.625m-.817 6.108c-3.308 0-6-2.692-6-6a5.97 5.97 0 0 1 1.56-4.021l3.33 3.954a2.3 2.3 0 0 0-.384 1.272 2.314 2.314 0 0 0 2.311 2.311 2.315 2.315 0 0 0 2.313-2.311c0-.899-.52-1.67-1.27-2.053l1.12-4.353a6 6 0 0 1 3.02 5.2c0 3.31-2.691 6-6 6"/><path d="M45.034 4.55H4.966a.5.5 0 0 0-.5.5v30.577a.5.5 0 0 0 .5.5H18.84a.5.5 0 1 0 0-1H5.466V11.253h39.068v23.874h-6.983a.5.5 0 1 0 0 1h7.483a.5.5 0 0 0 .5-.5V5.049a.5.5 0 0 0-.5-.5m-39.568 1h39.068v4.703H5.466z"/><path d="M10.69 7.4H7.828a.5.5 0 1 0 0 1h2.862a.5.5 0 1 0 0-1m5.724 0h-2.862a.5.5 0 1 0 0 1h2.862a.5.5 0 1 0 0-1m5.724 0h-2.862a.5.5 0 1 0 0 1h2.862a.5.5 0 1 0 0-1"/><circle cx="42.172" cy="7.901" r="1"/></svg>