<svg xmlns="http://www.w3.org/2000/svg" data-name="Isolation Mode" viewBox="0 0 50 50"><path fill="none" stroke="#231f20" stroke-linecap="round" stroke-linejoin="round" d="M44.495 23.538a3.534 3.534 0 0 0-.79-6.98 3.5 3.5 0 0 0-1.464.325m-31.519-.018a3.5 3.5 0 0 0-1.432-.308 3.532 3.532 0 0 0-.831 6.968M29.98 8.09c.01-.114.034-.226.034-.344a3.538 3.538 0 0 0-7.076 0c0 .118.024.23.035.345m11.092 34.373a3.52 3.52 0 0 0 3.034 1.744 3.54 3.54 0 0 0 3.538-3.538c0-.89-.34-1.693-.882-2.315m-26.535.025a3.5 3.5 0 0 0-.86 2.29 3.54 3.54 0 0 0 3.537 3.538c1.29 0 2.407-.697 3.025-1.727"/><path fill="none" stroke="#231f20" stroke-linecap="round" stroke-linejoin="round" d="m17.917 37.766 2.632-3.647m14.53 3.647-2.648-3.668m-5.955-22.814c-1.836 0-3.327-1.403-3.503-3.193-5.241 1.023-9.666 4.298-12.251 8.774a3.535 3.535 0 0 1-1.432 6.769c-.287 0-.563-.044-.83-.109a18 18 0 0 0-.18 2.417c0 4.817 1.885 9.183 4.94 12.438a3.51 3.51 0 0 1 2.677-1.248 3.54 3.54 0 0 1 3.539 3.538c0 .665-.195 1.28-.514 1.811a18.1 18.1 0 0 0 7.554 1.657c2.712 0 5.277-.61 7.589-1.674a3.5 3.5 0 0 1-.505-1.794 3.54 3.54 0 0 1 3.539-3.538c1.064 0 2.007.48 2.656 1.223 3.041-3.252 4.917-7.608 4.917-12.413 0-.817-.072-1.615-.177-2.404a3.5 3.5 0 0 1-.79.096 3.532 3.532 0 0 1-1.464-6.75c-2.583-4.487-7.013-7.769-12.261-8.793-.176 1.79-1.668 3.193-3.504 3.193v4.55M12.64 21.237l4.212 1.618m19.258.013 4.248-1.631zM26.472 16.396V33.41"/><path fill="#231f20" d="M21.107 25.29a.84.84 0 1 0 0 1.68l.06-.006a.84.84 0 0 0-.06-1.675m-1.062-4.395a.84.84 0 1 0 0 1.68q.03-.002.06-.007a.837.837 0 0 0-.06-1.673m3.945-3.683a.84.84 0 0 0 0 1.682q.03-.002.062-.007a.838.838 0 0 0-.062-1.675m.406 9.664a.84.84 0 1 0 0 1.68q.03-.002.06-.007a.837.837 0 0 0-.06-1.673m-3.81 3.207a.84.84 0 1 0 0 1.682c.02 0 .039-.005.06-.007a.837.837 0 0 0 .779-.834.84.84 0 0 0-.84-.84m3.034 2.153a.84.84 0 1 0 0 1.682q.03-.002.06-.007a.837.837 0 0 0 .779-.834.84.84 0 0 0-.84-.84"/><path fill="none" stroke="#231f20" stroke-linecap="round" stroke-linejoin="round" d="M22.775 22.216c.128-.859-.272-1.712-1.042-2.222-.817-.513-1.92-.513-3.024 0-1.476.69-.972 2.914-.969 2.937a.2.2 0 0 1-.032.164c-.012.017-1.139 1.666-.54 2.951.337.718 1.162 1.205 2.452 1.447"/><path fill="none" stroke="#231f20" stroke-linecap="round" stroke-linejoin="round" d="M23.582 17.7c-.783-.64-1.62-1.377-2.438-1.047-.713.29-1.289 1.637-.914 2.958M26.472 33.409V16.396"/><path fill="none" stroke="#231f20" stroke-linecap="round" stroke-linejoin="round" d="M17.575 26.604c-.785.627-.965 1.587-.712 2.235.287.874.997 1.494 1.36 1.537.133.015.227.126.21.248l-.005.026c-.242.86 0 1.773.65 2.435.37.453.943.733 1.563.765a.245.245 0 0 1 .261.163c.372 1.11 1.612 1.777 2.858 1.539 2.613-.305 2.71-2.09 2.712-2.143M21.8 16.595c1.515-1.418 3.211-1.692 4.016-1.339.446.229.654.74.656 1.14M20.209 22.231l1.039 1.933M23.737 23.788l-2.489.376M21.248 24.164l-.093 1.428M22.798 31.371l.579 1.24"/><path fill="none" stroke="#231f20" stroke-linecap="round" stroke-linejoin="round" d="m23.902 27.919-1.678.842.574 2.61M22.798 31.371l-1.698-.345M26.472 16.396V33.41"/><path fill="#231f20" d="M31.837 25.29a.84.84 0 0 0-.06 1.675c.02 0 .04.004.06.004a.84.84 0 1 0 0-1.68m1.063-4.395a.837.837 0 0 0-.06 1.673q.03.005.06.007a.84.84 0 1 0 0-1.68m-4.226 1.959a.837.837 0 0 0-.06 1.673q.03.005.06.007a.84.84 0 1 0 0-1.68m.28-5.642a.838.838 0 0 0-.062 1.675c.021.002.042.007.062.007a.84.84 0 0 0 0-1.682m-4.702 5.629a.838.838 0 0 0-.062 1.675q.032.005.062.007a.84.84 0 0 0 0-1.681m4.297 4.034a.837.837 0 0 0-.06 1.673q.03.005.06.007a.84.84 0 1 0 0-1.68m3.81 3.207a.84.84 0 0 0-.84.841c0 .443.344.803.78.834.02.002.04.007.06.007a.84.84 0 1 0 0-1.682m-3.034 2.154a.84.84 0 0 0-.839.841c0 .443.344.803.78.834q.03.005.06.007a.84.84 0 1 0 0-1.682"/><path fill="none" stroke="#231f20" stroke-linecap="round" stroke-linejoin="round" d="M30.17 22.216c-.129-.859.272-1.712 1.042-2.222.817-.513 1.92-.513 3.024 0 1.476.69.972 2.914.968 2.937a.2.2 0 0 0 .032.164c.012.017 1.14 1.666.54 2.951-.337.718-1.161 1.205-2.451 1.447"/><path fill="none" stroke="#231f20" stroke-linecap="round" stroke-linejoin="round" d="M29.363 17.7c.783-.64 1.62-1.377 2.437-1.047.714.29 1.29 1.637.914 2.958M26.472 33.409V16.396"/><path fill="none" stroke="#231f20" stroke-linecap="round" stroke-linejoin="round" d="M35.37 26.604c.784.627.965 1.587.712 2.235-.288.874-.998 1.494-1.361 1.537-.133.015-.227.126-.21.248l.006.026c.241.86-.001 1.773-.65 2.435a2.17 2.17 0 0 1-1.563.765.245.245 0 0 0-.262.163c-.372 1.11-1.612 1.777-2.857 1.539-2.614-.305-2.711-2.09-2.712-2.143m4.672-16.814c-1.516-1.418-3.212-1.692-4.016-1.339-.447.229-.655.74-.656 1.14M32.736 22.231l-1.04 1.933M29.207 23.788l2.489.376M31.696 24.164l.093 1.428M30.146 31.371l-.579 1.24"/><path fill="none" stroke="#231f20" stroke-linecap="round" stroke-linejoin="round" d="m29.043 27.919 1.678.842-.575 2.61M30.146 31.371l1.698-.345"/></svg>