<svg xmlns="http://www.w3.org/2000/svg" viewBox="0 0 50 50"><path fill="none" stroke="#000" stroke-linecap="round" stroke-linejoin="round" d="M39.981 14.577a18.37 18.37 0 0 0-9.585-7.033m9.183 28.416a18.26 18.26 0 0 0 3.659-10.988l-.003-.11M19.073 42.297a18.32 18.32 0 0 0 11.784 0M6.713 24.824v.11a18.26 18.26 0 0 0 3.658 10.992"/><circle cx="14.258" cy="39.786" r="2.512" fill="none" stroke="#000" stroke-linecap="round" stroke-linejoin="round"/><path fill="none" stroke="#000" stroke-linecap="round" stroke-linejoin="round" d="M19.592 7.538a18.37 18.37 0 0 0-9.586 7.033"/><path fill="none" stroke="#000" stroke-linecap="round" stroke-linejoin="round" d="m18.672 9.675 1.299-2.254-2.254-1.299m21.433 27.47.268 2.587 2.587-.27m-20.878 5.065-2.286 1.239 1.24 2.287M8.485 26.44 6.73 24.52l-1.92 1.756M37.579 14.41l2.566.422.423-2.567" data-name="Path 60447"/><path fill="none" stroke="#000" stroke-linecap="round" stroke-linejoin="round" d="m42.626 17.169-2.723 4.717h5.446z"/><rect width="4.682" height="4.682" x="22.639" y="4.392" fill="none" stroke="#000" stroke-miterlimit="10" rx=".792" ry=".792"/><path fill="none" stroke="#000" stroke-miterlimit="10" d="M9.074 16.892H6.232L4.81 19.354l1.422 2.462h2.842l1.421-2.462z"/><path fill="none" stroke="#000" stroke-linecap="round" stroke-linejoin="round" d="m38.581 39.756-2.855 2.856-2.856-2.856 2.856-2.855z"/><g fill="none" stroke="#000" stroke-miterlimit="10"><path d="M16.336 26.577q.13.71.37 1.381l-2.34 2.097c.298.623.65 1.22 1.05 1.781l2.916-1.093q.417.485.906.907l-1.005 2.98q.842.59 1.792 1.031l1.999-2.388c.418.148.856.275 1.303.354l.618 3.083a11.7 11.7 0 0 0 2.068.003l.538-3.068a9 9 0 0 0 1.407-.378L30.06 35.6q.937-.449 1.78-1.054l-1.102-2.912a9 9 0 0 0 .906-.909l2.983.997a11.7 11.7 0 0 0 1.026-1.794l-2.394-1.993c.147-.418.274-.857.351-1.304l3.081-.626q.091-1.047-.001-2.068l-3.07-.53a9 9 0 0 0-.372-1.381l2.335-2.1c-.298-.624-.65-1.22-1.053-1.78l-2.913 1.098a9 9 0 0 0-.908-.906l.999-2.982a11.7 11.7 0 0 0-1.794-1.027l-1.994 2.392a8 8 0 0 0-1.304-.351l-.624-3.082a11.7 11.7 0 0 0-2.068 0l-.532 3.07q-.707.13-1.374.37l-2.098-2.34q-.938.449-1.781 1.052l1.095 2.915a9 9 0 0 0-.907.906l-2.981-1.003q-.59.842-1.03 1.793l2.39 1.997a8.3 8.3 0 0 0-.354 1.303l-3.082.62a11.7 11.7 0 0 0-.002 2.068z"/><circle cx="24.98" cy="25" r="6.112"/></g></svg>