<svg xmlns="http://www.w3.org/2000/svg" viewBox="0 0 50 50"><path fill="none" stroke="#231f20" stroke-linecap="round" stroke-linejoin="round" d="m27.664 22.182 9.153 9.123a2.91 2.91 0 0 1 0 4.1c-.62.63-1.46.91-2.28.85-.67-.05-1.32-.32-1.84-.83l-9.013-8.993"/><path fill="none" stroke="#231f20" stroke-linecap="round" stroke-linejoin="round" d="M32.697 35.425a2.92 2.92 0 0 1 .02 4.12 2.92 2.92 0 0 1-3.528.473m7.628-8.713a2.92 2.92 0 0 0 4.1-.04 2.91 2.91 0 0 0-.03-4.12L29.05 15.215l-3.101 3.13c-1.087.997-2.78 1.146-3.928.195a2.91 2.91 0 0 1-.212-4.288l2.918-2.947 2.146-2.023c2.07-2.25 4.79-3.37 7.51-3.37s5.44 1.12 7.51 3.37c4.14 4.5 4.14 11.8 0 16.3l-1.24 1.34"/><path fill="none" stroke="#231f20" stroke-linecap="round" stroke-linejoin="round" d="m9.383 26.962-1.27-1.38c-2.07-2.25-3.11-5.2-3.11-8.15s1.04-5.9 3.11-8.15c4.14-4.5 10.86-4.5 15.01 0l1.819 1.82m-3.45 19.18c-.05.67-.32 1.32-.83 1.84l-2.81 2.83c-.19.2-.41.37-.65.51-1.05.62-2.42.6-3.39-.2a2.897 2.897 0 0 1-.46-3.99c.07-.11.16-.2.25-.3l2.94-2.97a2.91 2.91 0 0 1 4.1 0c.63.62.91 1.46.85 2.28"/><path fill="none" stroke="#231f20" stroke-linecap="round" stroke-linejoin="round" d="m16.543 28.002-2.94 2.97q-.15.135-.3.24c-1.08.77-2.58.82-3.63-.05a2.91 2.91 0 0 1-.97-2.92c.11-.46.33-.91.68-1.28a1 1 0 0 1 .08-.09l2.92-2.94a2.91 2.91 0 0 1 4.12-.03 2.92 2.92 0 0 1 .04 4.1m8.319 8.16-.06.06-2.81 2.83-.11.11c-.24.22-.5.39-.79.53-1.01.48-2.24.4-3.14-.33a2.9 2.9 0 0 1-.62-3.76c.11-.19.25-.37.41-.53l.11-.12 2.81-2.83a2.92 2.92 0 0 1 4.12-.02 2.92 2.92 0 0 1 .08 4.06"/><path fill="none" stroke="#231f20" stroke-linecap="round" stroke-linejoin="round" d="M29.323 39.832c-.02.03-.04.05-.06.08-.09.14-.2.27-.33.4l-2.81 2.84c-1.08 1.09-2.85 1.29-4.03.3a2.904 2.904 0 0 1-.77-3.51c.14-.28.32-.54.56-.78l.11-.11 2.81-2.83.06-.06a2.9 2.9 0 0 1 4.05.03c.99.98 1.13 2.51.41 3.64"/></svg>