<svg xmlns="http://www.w3.org/2000/svg" data-name="Isolation Mode" viewBox="0 0 50 50"><g fill="none" stroke="#000" stroke-linecap="round" stroke-linejoin="round"><path d="M18.617 27.525q-.508.025-1.012.043l-.002-.004-2.42-1.842c-.798-.609-1.76-.623-2.569-.039l-2.606 1.885a79 79 0 0 1-1.012-.043c-1.912-.094-3.404-.632-3.404 1.966s.355 6.81.355 6.81-.213 3.16 3.475 5.828a300 300 0 0 0 4.372 3.126h0s1.225-.83 4.397-3.126c3.688-2.668 3.475-5.827 3.475-5.827s.355-4.213.355-6.81-1.492-2.061-3.404-1.967"/><path d="M16.424 32.167zl-3.404 5.15-1.832-2.432"/><circle cx="13.806" cy="34.742" r="5"/></g><path d="M21.728 24.126a1 1 0 0 1-.094-.282 3 3 0 0 1-.051-.352q-.15.15-.336.285-.185.134-.408.236t-.475.161a2 2 0 0 1-.537.06 2.5 2.5 0 0 1-.836-.135q-.373-.134-.634-.363a1.6 1.6 0 0 1-.402-.542 1.6 1.6 0 0 1-.142-.68q0-.477.19-.837t.54-.599.84-.357a4.7 4.7 0 0 1 1.099-.118h1.085v-.457q0-.263-.097-.473c-.097-.21-.156-.258-.274-.357a1.3 1.3 0 0 0-.432-.228q-.255-.08-.572-.08-.296 0-.529.075t-.395.198a.7.7 0 0 0-.25.293.74.74 0 0 0-.088.352h-1q.006-.318.165-.623.158-.306.456-.551.298-.244.725-.395.427-.15.97-.15.494 0 .918.121.424.12.733.365.309.244.486.61c.177.366.178.528.178.854v2.701q0 .29.053.616.054.324.15.566v.086zm-1.756-.757q.29 0 .542-.076c.252-.076.321-.116.46-.198q.206-.124.357-.282.15-.159.236-.33v-1.177h-.924q-.87 0-1.353.258c-.483.258-.484.442-.484.811q0 .215.073.397.072.183.217.315.145.13.365.206c.22.076.317.076.51.076m9.464-2.084q0 .623-.15 1.162-.15.54-.44.938c-.29.398-.433.472-.718.623q-.427.225-.975.225-.532 0-.937-.171a1.95 1.95 0 0 1-.695-.495v2.793h-.994v-8.046h.908l.048.634q.29-.36.7-.55.412-.19.954-.191.559 0 .989.22c.43.22.526.351.72.613s.34.573.44.937q.15.545.15 1.195zm-.994-.113q0-.424-.093-.809a2.1 2.1 0 0 0-.29-.676q-.197-.293-.497-.465c-.3-.172-.44-.172-.72-.172q-.479 0-.803.223-.326.224-.518.572v2.799q.192.343.515.561.322.217.817.217a1.4 1.4 0 0 0 .714-.174q.3-.175.494-.47c.194-.295.225-.424.288-.682q.093-.388.093-.811zm7.639.113q0 .623-.151 1.162-.15.54-.44.938c-.29.398-.433.472-.718.623q-.427.225-.975.225-.532 0-.937-.171a1.95 1.95 0 0 1-.695-.495v2.793h-.994v-8.046h.908l.048.634q.29-.36.7-.55.412-.19.954-.191.559 0 .989.22c.43.22.526.351.72.613s.34.573.44.937q.15.545.15 1.195zm-.995-.113q0-.424-.093-.809a2.1 2.1 0 0 0-.29-.676q-.197-.293-.497-.465c-.3-.172-.44-.172-.72-.172q-.479 0-.803.223-.326.224-.518.572v2.799q.192.343.515.561.322.217.817.217a1.4 1.4 0 0 0 .714-.174q.3-.175.494-.47c.194-.295.225-.424.288-.682q.093-.388.093-.811z"/><path fill="none" stroke="#000" stroke-linecap="round" stroke-linejoin="round" d="M23.754 39.745h13.199a7.455 7.455 0 0 0 7.455-7.455V12.2a7.455 7.455 0 0 0-7.455-7.455h-20.09A7.455 7.455 0 0 0 9.408 12.2v12.545"/></svg>