<svg xmlns="http://www.w3.org/2000/svg" viewBox="0 0 50 50"><path d="M19.655 32.377v3.873H17v-3.873zm.509-1h-3.673c-.295 0-.491.186-.491.464v4.946c0 .278.196.463.49.463h3.674c.294 0 .49-.185.49-.463V31.84c0-.278-.196-.464-.49-.464m6.066-5.152-.001 10.026H23.77V26.224zm.411-1h-3.28c-.393 0-.59.293-.59.684v10.659c0 .39.295.683.59.683h3.28c.393 0 .59-.293.59-.683v-10.66c0-.487-.099-.683-.59-.683M33 30.03v6.22h-2.458v-6.22zm.51-1h-3.478c-.294 0-.49.293-.49.586v7.048c0 .293.196.586.49.586h3.477c.295 0 .491-.293.491-.586v-7.048c0-.39-.196-.585-.49-.585"/><circle cx="18.212" cy="27.426" r="1.875" fill="none" stroke="#000" stroke-miterlimit="10"/><circle cx="25.027" cy="20.625" r="1.875" fill="none" stroke="#000" stroke-miterlimit="10" transform="rotate(-.097 25.026 20.626)"/><circle cx="31.771" cy="25.122" r="1.875" fill="none" stroke="#000" stroke-miterlimit="10"/><path fill="none" stroke="#000" stroke-miterlimit="10" d="m19.552 26.115 4.09-4.226M26.789 21.282l3.606 2.566"/><path fill="none" stroke="#000" stroke-linecap="round" stroke-linejoin="round" d="M4.966 15.414h40.068V9.711H4.966zV40.29h40.068V15.414M7.828 12.563h2.862M13.552 12.563h2.862M19.276 12.563h2.862"/><path d="M42.172 11.563a1 1 0 1 0 0 2 1 1 0 0 0 0-2"/></svg>