<svg xmlns="http://www.w3.org/2000/svg" data-name="Isolation Mode" viewBox="0 0 50 50"><path fill="#231f20" d="M10.478 30.4h-2.5v1.75h2.5zM14.76 30.4h-2.5v1.75h2.5zM19.041 30.4h-2.5v1.75h2.5z"/><path fill="none" stroke="#231f20" stroke-linecap="round" stroke-linejoin="round" d="M8.873 25.901v-7.997M41.146 25.901v-7.997"/><g fill="none" stroke="#231f20" stroke-linecap="round" stroke-linejoin="round"><path d="M19.14 36.401v2.5M30.869 36.401v2.5"/></g><path fill="#231f20" d="M25.01 20.406a.847.847 0 0 1 0 1.693.847.847 0 0 1 0-1.693m0-1a1.846 1.846 0 1 0 0 3.693 1.846 1.846 0 0 0 0-3.693"/><path fill="none" stroke="#231f20" stroke-linecap="round" stroke-linejoin="round" d="M28.271 17.99a4.616 4.616 0 0 0-6.527 0m8.487-1.96a7.385 7.385 0 0 0-10.443 0"/><path fill="none" stroke="#231f20" stroke-linecap="round" stroke-linejoin="round" d="M31.933 13.825a10.154 10.154 0 0 0-13.847 0"/><rect width="42" height="10.5" x="4" y="25.901" fill="none" stroke="#231f20" stroke-linecap="round" stroke-linejoin="round" rx="1" ry="1"/><rect width="33.5" height="2.5" x="8.255" y="36.401" fill="none" stroke="#231f20" stroke-linecap="round" stroke-linejoin="round" rx=".5" ry=".5"/><path fill="#231f20" d="M40.663 30.276a.5.5 0 0 1 .5.5v1a.5.5 0 0 1-.5.5h-6.5a.5.5 0 0 1-.5-.5v-1a.5.5 0 0 1 .5-.5zm0-1h-6.5c-.827 0-1.5.673-1.5 1.5v1c0 .827.673 1.5 1.5 1.5h6.5c.827 0 1.5-.673 1.5-1.5v-1c0-.827-.673-1.5-1.5-1.5"/></svg>