<svg xmlns="http://www.w3.org/2000/svg" viewBox="0 0 50 50"><path fill="none" stroke="#000" stroke-miterlimit="10" d="M4.802 29.339c-.174.762.082 1.885.57 2.496l9.612 12.054C15.472 44.5 16.51 45 17.291 45H32.71c.781 0 1.82-.5 2.307-1.11l9.612-12.055c.488-.61.744-1.734.57-2.496l-3.43-15.031c-.174-.762-.893-1.663-1.597-2.002l-13.89-6.69c-.705-.339-1.857-.339-2.561 0L9.83 12.306c-.704.34-1.423 1.24-1.596 2.002z"/><g fill="none" stroke="#000"><path stroke-linecap="round" stroke-linejoin="round" d="M25 23.812V11.809M23.184 24.686 13.8 17.203M22.736 26.651l-11.702 2.671M23.992 28.226 18.785 39.04M26.008 28.226l5.208 10.814M27.264 26.651l11.702 2.67M26.815 24.686l9.384-7.484"/><circle cx="25" cy="26.134" r="2.322" stroke-miterlimit="10"/><circle cx="25" cy="26.134" r="11.829" stroke-miterlimit="10"/></g></svg>