<svg xmlns="http://www.w3.org/2000/svg" data-name="Isolation Mode" viewBox="0 0 50 50"><g fill="none" stroke="#000"><g fill-rule="evenodd" stroke-miterlimit="10"><path d="M31.92 26.318a.96.96 0 0 0-.928.943v8.895c0 .53.464.942.928.942a.924.924 0 0 0 .928-.942V27.26a.924.924 0 0 0-.928-.943Zm-25.992 0a.924.924 0 0 0-.928.943v8.895c0 .53.406.942.928.942s.929-.412.929-.942V27.26a.924.924 0 0 0-.929-.943Zm8.586-1.366c1.876 0 3.458 1.554 3.458 3.528s-1.582 3.527-3.458 3.527c-1.934 0-3.516-1.554-3.516-3.527s1.582-3.528 3.516-3.528Zm8.85 0c1.876 0 3.458 1.554 3.458 3.528s-1.582 3.527-3.458 3.527c-1.934 0-3.458-1.554-3.458-3.527s1.524-3.528 3.458-3.528Z"/><path d="M27.898 42.129H9.862c-.825 0-1.5-.692-1.5-1.538l.07-17.811c0-.846.675-1.538 1.5-1.538h18.036c.826 0 1.5.692 1.5 1.538l-.07 17.811c0 .846-.675 1.538-1.5 1.538Z"/></g><path stroke-linecap="round" stroke-linejoin="round" d="M14.068 34.357c2.68 2.491 7.025 2.491 9.705 0"/><path stroke-linecap="round" stroke-linejoin="round" d="M12.486 36.262c3.625 3.14 9.244 3.14 12.868 0"/><path stroke-miterlimit="10" d="M12.579 36.339c-.56-.442-.592-1.27-.088-1.757s1.276-.537 1.752-.076m11.027 1.833c.558-.442.591-1.27.087-1.757s-1.276-.537-1.751-.076"/></g><g fill="none" stroke="#000" stroke-linecap="round" stroke-linejoin="round"><path d="M31.772 10.656h9.747M31.772 13.441h9.747M31.772 16.226h6.962M44.38 7.871H28.91c-.34 0-.619.28-.619.622v9.896c0 .342.279.622.62.622h3.17l-.03 3.641s.022.292.192.42a.51.51 0 0 0 .643.003c.239-.176.555-.563.836-.845.74-.743 2.07-1.952 3.32-3.22h7.339c.34 0 .619-.279.619-.62V8.492a.62.62 0 0 0-.62-.622"/></g></svg>