<svg xmlns="http://www.w3.org/2000/svg" viewBox="0 0 50 50"><path d="M25 25.307A.847.847 0 0 1 25 27a.847.847 0 0 1 0-1.693m0-1A1.846 1.846 0 1 0 25 28a1.846 1.846 0 0 0 0-3.693"/><path fill="none" stroke="#000" stroke-linecap="round" stroke-linejoin="round" d="M28.262 22.89a4.616 4.616 0 0 0-6.527 0m8.487-1.958a7.385 7.385 0 0 0-10.444 0"/><path fill="none" stroke="#000" stroke-linecap="round" stroke-linejoin="round" d="M31.923 18.726a10.154 10.154 0 0 0-13.846 0"/><path d="M25.04 34a1 1 0 1 0 0 2 1 1 0 0 0 0-2"/><path fill="none" stroke="#000" stroke-linecap="round" stroke-linejoin="round" d="M5.04 32.982V37h39.974V10H4.986l.055 23M25.014 37v3M16.074 40h18M5.014 33h40"/></svg>