<svg xmlns="http://www.w3.org/2000/svg" viewBox="0 0 50 50"><path fill="none" stroke="#000" stroke-linecap="round" stroke-linejoin="round" d="M25 15.976v29.571M29 23l-10 7 14 7-19 9"/><path fill="none" stroke="#000" stroke-linecap="round" stroke-linejoin="round" d="m36 46-9-30c-2.654-.2-2.965-.041-4 0l-9 30zM25.621 4.134c-.157.963 0 2.92-3.008 4.495-1.943 1.505-.81 4.37.887 4.364 3.052-.01 4.266-.987 5-1.97.689-.923 1.025-3.517-.737-5.247-.701-.687-2.142-1.642-2.142-1.642"/><path fill="none" stroke="#000" stroke-linecap="round" stroke-linejoin="round" d="m21 23 10 7-14 7 19 9"/></svg>