<svg xmlns="http://www.w3.org/2000/svg" viewBox="0 0 50 50"><path d="M23.526 26.442h-1.707l-.336 1.187h-1.156l1.863-5.687h.996l1.828 5.687h-1.156zm-1.437-.934h1.18l-.583-2.093zm3.683-3.566h3.29v.887h-1.11v3.918h1.11v.882h-3.29v-.882h1.082v-3.918h-1.082z"/><g fill="none" stroke="#000" stroke-linecap="round" stroke-linejoin="round"><path d="M9 9h32v32H9z"/><path d="M15 15h20v20H15zM38 9V5M31.5 9V5M25 9V5M18.5 9V5M12 9V5M38 45v-4M31.5 45v-4M25 45v-4M18.5 45v-4M12 45v-4M41 38h4M41 31.5h4M41 25h4M41 18.5h4M41 12h4M5 38h4M5 31.5h4M5 25h4M5 18.5h4M5 12h4"/></g></svg>