<svg xmlns="http://www.w3.org/2000/svg" viewBox="0 0 50 50"><g fill="none" stroke="#000" stroke-linecap="round" stroke-linejoin="round"><path d="M10 5v40h30V16L29 5z"/><path d="M29 5v11h11"/></g><path d="M20.453 43h-.95v-2.157h-1.409V43h-.954v-4.976h.954v2.04h1.408v-2.04h.95zm4.442-4.194H23.36V43h-.964v-4.194h-1.514v-.782h4.013zm4.239 0H27.6V43h-.964v-4.194h-1.513v-.782h4.012zm1.416 2.369V43h-.962v-4.976h1.703q.406 0 .735.118t.558.328q.232.21.356.504.125.293.125.652 0 .335-.125.62a1.4 1.4 0 0 1-.356.49 1.7 1.7 0 0 1-.558.323 2.2 2.2 0 0 1-.735.116zm0-.78h.74q.206 0 .356-.06a.7.7 0 0 0 .402-.412.9.9 0 0 0 .05-.29 1 1 0 0 0-.05-.324.8.8 0 0 0-.15-.264.7.7 0 0 0-.252-.178.9.9 0 0 0-.355-.064h-.742z"/><g fill="none" stroke="#000" stroke-linecap="round" stroke-linejoin="round" stroke-width="1.059"><path d="M21.625 21 16 24.363l5.625 3.363M28.375 27.726 34 24.363 28.375 21M26.125 21l-2.25 6.726"/></g><path fill="#fff" stroke="#231f20" stroke-miterlimit="10" d="M10 36h30"/></svg>