<svg xmlns="http://www.w3.org/2000/svg" viewBox="0 0 50 50"><path fill="none" stroke="#000" stroke-linecap="round" stroke-linejoin="round" d="M36 10h2M36 14h2M36 18h2"/><path d="M37 39.607a1 1 0 1 0 0 2 1 1 0 0 0 0-2"/><rect width="38" height="6" x="18" y="22" fill="none" stroke="#000" stroke-miterlimit="10" rx="1.437" ry="1.437" transform="rotate(-90 37 25)"/><path fill="none" stroke="#000" stroke-linecap="round" stroke-linejoin="round" d="M30 10h2M30 14h2M30 18h2"/><path d="M31 39.607a1 1 0 1 0 0 2 1 1 0 0 0 0-2"/><rect width="38" height="6" x="12" y="22" fill="none" stroke="#000" stroke-miterlimit="10" rx="1.437" ry="1.437" transform="rotate(-90 31 25)"/><path fill="none" stroke="#000" stroke-linecap="round" stroke-linejoin="round" d="M24 10h2M24 14h2M24 18h2"/><path d="M25 39.607a1 1 0 1 0 0 2 1 1 0 0 0 0-2"/><rect width="38" height="6" x="6" y="22" fill="none" stroke="#000" stroke-miterlimit="10" rx="1.437" ry="1.437" transform="rotate(-90 25 25)"/><path fill="none" stroke="#000" stroke-linecap="round" stroke-linejoin="round" d="M18 10h2M18 14h2M18 18h2"/><path d="M19 39.607a1 1 0 1 0 0 2 1 1 0 0 0 0-2"/><rect width="38" height="6" y="22" fill="none" stroke="#000" stroke-miterlimit="10" rx="1.437" ry="1.437" transform="rotate(-90 19 25)"/><path fill="none" stroke="#000" stroke-linecap="round" stroke-linejoin="round" d="M12 10h2M12 14h2M12 18h2"/><path d="M13 39.607a1 1 0 1 0 0 2 1 1 0 0 0 0-2"/><rect width="38" height="6" x="-6" y="22" fill="none" stroke="#000" stroke-miterlimit="10" rx="1.437" ry="1.437" transform="rotate(-90 13 25)"/></svg>