<svg xmlns="http://www.w3.org/2000/svg" viewBox="0 0 50 50"><path d="M25.055 34a1 1 0 1 0 0 2 1 1 0 0 0 0-2"/><path fill="none" stroke="#000" stroke-linecap="round" stroke-linejoin="round" d="M5.055 32.982V37h39.972V10H5l.055 23M25.027 37v3M16.087 40h18M5.027 33h40"/><g fill="none" stroke="#000" stroke-linecap="round" stroke-linejoin="round" stroke-width=".75" data-name="Isolation Mode"><path d="M22.706 21.336v-.056h-2.884v.036c0 1.203.187 2.34.52 3.354a17 17 0 0 1 2.54-.41c-.113-.9-.176-1.888-.176-2.924"/><path d="M22.882 24.26a17 17 0 0 0-2.54.41c.604 1.834 1.686 3.26 3.008 3.922l.179.04q.47.093.96.127c-.729-.56-1.325-2.258-1.607-4.499m4.248-5.96c.12.914.188 1.92.19 2.98h2.885a10.7 10.7 0 0 0-.543-3.384c-.743.18-1.6.32-2.533.404"/><path d="M27.145 24.26q-.333-.03-.677-.051a24 24 0 0 0-3.586.051c.282 2.24.878 3.94 1.607 4.5q.26.019.525.02.261 0 .518-.021l.007-.005c.728-.56 1.324-2.257 1.606-4.494"/><path d="m25.539 28.754-.007.005a8 8 0 0 0 1.139-.171c1.324-.66 2.409-2.084 3.013-3.92a17.4 17.4 0 0 0-2.54-.408c-.281 2.237-.877 3.934-1.605 4.494"/><path d="M27.321 21.336a24 24 0 0 1-.176 2.924 17.4 17.4 0 0 1 2.54.408 10.8 10.8 0 0 0 .521-3.352v-.036H27.32zm-4.422-3.034a17.5 17.5 0 0 1-2.532-.403 10.7 10.7 0 0 0-.545 3.381h2.885c.002-1.06.07-2.064.192-2.978"/><path d="M25.014 18.395a24 24 0 0 1-2.115-.093c-.121.914-.19 1.919-.192 2.978h4.614a23 23 0 0 0-.192-2.98q-.202.018-.409.033-.824.061-1.706.062"/><path d="M22.706 21.336c0 1.036.063 2.024.176 2.924a23.5 23.5 0 0 1 4.263 0c.113-.9.176-1.887.176-2.924v-.056h-4.614zm4.221-4.264.002-.003zc.079.384.146.797.202 1.228.933-.085 1.79-.223 2.533-.404a9 9 0 0 0-.344-.875c-.687-1.505-1.727-2.626-2.943-3.113a8 8 0 0 0-1.04-.12q.064.029.126.07c.608.394 1.13 1.576 1.466 3.214"/><path d="M23.134 16.922c-.092.429-.17.892-.235 1.38q.309.029.63.048a24 24 0 0 0 3.191-.017q.207-.015.41-.033a18 18 0 0 0-.203-1.228c-.335-1.638-.858-2.82-1.466-3.215a1 1 0 0 0-.126-.069 7 7 0 0 0-.321-.008q-.165.001-.326.01c-.64.3-1.195 1.468-1.554 3.132"/><path d="M23.134 16.922c.359-1.664.914-2.832 1.554-3.132a7.5 7.5 0 0 0-1.027.113c-1.176.47-2.187 1.536-2.876 2.966q-.234.49-.418 1.03c.743.18 1.6.319 2.532.403.064-.488.143-.951.235-1.38m.216 11.67c-1.322-.661-2.404-2.088-3.007-3.922a9 9 0 0 0-1.437.466 6 6 0 0 0-.253.118 7.5 7.5 0 0 0 4.697 3.338m6.855-7.312.001.036c0 1.203-.188 2.34-.522 3.352a9 9 0 0 1 1.548.514l.005-.001h-.005l.143.068a7.45 7.45 0 0 0 1.139-3.969zm-.521 3.388c-.604 1.836-1.69 3.26-3.013 3.92l.05-.01a7.52 7.52 0 0 0 4.654-3.329l-.143-.067a9 9 0 0 0-1.548-.514m-3.216-10.744-.093-.016c1.216.487 2.256 1.608 2.943 3.113l.004-.003-.004.003q.191.419.344.875c.675-.164 1.256-.363 1.715-.588a7.5 7.5 0 0 0-4.909-3.385"/><path d="M30.205 21.28h2.309a7.47 7.47 0 0 0-1.137-3.972c-.459.225-1.04.424-1.715.588.344 1.02.54 2.168.543 3.384m-9.838-3.381c-.673-.164-1.252-.362-1.71-.587a7.44 7.44 0 0 0-1.143 3.968h2.308c.004-1.216.2-2.362.545-3.381m-.024 6.771a10.8 10.8 0 0 1-.522-3.354v-.036h-2.307a7.46 7.46 0 0 0 1.139 3.974q.12-.06.253-.118a9 9 0 0 1 1.437-.466"/><path d="M20.785 16.87c.689-1.43 1.7-2.497 2.876-2.967a7.5 7.5 0 0 0-5.004 3.41c.458.224 1.037.422 1.71.586q.184-.54.418-1.03"/></g></svg>