<svg xmlns="http://www.w3.org/2000/svg" viewBox="0 0 50 50"><g fill="none" stroke="#000" stroke-linecap="round" stroke-linejoin="round"><path d="M10 5v40h30V16L29 5z"/><path d="M29 5v11h11"/></g><path d="M20.533 43h-.95v-2.157h-1.409V43h-.953v-4.976h.953v2.04h1.409v-2.04h.95zm4.442-4.194h-1.534V43h-.964v-4.194h-1.515v-.782h4.013zm1.605-.782.471 1.869.537-1.87h1.193V43h-.882v-1.473l.041-2.327-.652 2.16h-.476l-.584-2.069.041 2.236V43h-.882v-4.976zm3.896 4.2h2.331V43h-3.295v-4.976h.964z"/><g fill="none" stroke="#000" stroke-linecap="round" stroke-linejoin="round" stroke-width="1.059"><path d="M21.625 21 16 24.363l5.625 3.363M28.375 27.726 34 24.363 28.375 21M26.125 21l-2.25 6.726"/></g><path fill="#fff" stroke="#231f20" stroke-miterlimit="10" d="M10 36h30"/></svg>