<svg xmlns="http://www.w3.org/2000/svg" viewBox="0 0 50 50"><path fill="none" stroke="#000" stroke-linecap="round" stroke-linejoin="round" d="M10.267 9.615h-1.24q-.815 0-1.274.513t-.46 1.433v9.752q0 1.202-.408 1.963c-.271.506-1.366 1.541-1.885 1.706.519.166 1.614 1.202 1.885 1.71q.408.762.408 1.968v9.775q0 .921.46 1.436.459.514 1.275.514h1.239m29.466-30.77h1.24q.815 0 1.274.513t.46 1.433v9.752q0 1.202.408 1.963c.271.506 1.366 1.541 1.885 1.706-.519.166-1.614 1.202-1.885 1.71q-.408.762-.408 1.968v9.775q0 .921-.46 1.436-.459.514-1.275.514h-1.239"/><path d="M18.541 22.058h-.75v1.917h-.99v-5.13h1.719q.427 0 .771.1.346.101.591.295c.245.194.29.29.377.482s.132.416.132.67q0 .274-.065.495a1.35 1.35 0 0 1-.479.7 2 2 0 0 1-.383.225l1.104 2.117v.046h-1.062zm-.75-.803h.733q.42 0 .646-.214.228-.212.228-.583 0-.384-.223-.596-.221-.214-.655-.214h-.73zm6.497.472h-2.107v1.448h2.463v.8h-3.456v-5.13h3.445v.807h-2.452v1.293h2.107zm3.837.909a.7.7 0 0 0-.047-.257.6.6 0 0 0-.163-.223q-.114-.105-.298-.19a2.3 2.3 0 0 0-.46-.161q-.336-.093-.64-.23c-.304-.136-.382-.202-.537-.33s-.28-.28-.372-.452a1.2 1.2 0 0 1-.139-.592 1.27 1.27 0 0 1 .518-1.039q.243-.187.574-.288t.719-.1q.4 0 .735.117.333.115.572.325.24.21.373.5.134.288.134.633h-.965a1 1 0 0 0-.061-.316.68.68 0 0 0-.43-.412 1.1 1.1 0 0 0-.376-.057q-.198 0-.35.048-.153.046-.26.133c-.106.087-.123.125-.16.205a.6.6 0 0 0-.054.255.5.5 0 0 0 .072.261.7.7 0 0 0 .21.21q.136.092.333.17.195.078.442.145.352.101.648.25c.296.149.367.215.51.35a1.38 1.38 0 0 1 .45 1.038q-.002.339-.137.6-.135.264-.376.445-.24.181-.57.275c-.33.094-.462.093-.723.093q-.243 0-.484-.044c-.241-.044-.315-.075-.462-.135q-.22-.093-.41-.23c-.19-.137-.236-.198-.33-.32s-.165-.26-.218-.416-.08-.326-.08-.515h.974q.006.232.08.399.075.165.207.271c.132.106.193.122.317.155q.185.05.406.05.199 0 .35-.047a.8.8 0 0 0 .26-.127.56.56 0 0 0 .219-.447m5.437-2.984H31.98v4.323h-.994v-4.323h-1.56v-.807h4.136zM21.489 29.904h-1.54l-.303 1.07h-1.043l1.68-5.129h.899l1.65 5.13h-1.044zm-1.296-.842h1.063l-.524-1.889zm4.157.031v1.882h-.99v-5.13h1.755q.419 0 .757.121c.338.121.418.194.577.339s.28.317.366.52.129.425.129.672q0 .345-.13.638c-.13.293-.207.363-.365.506q-.237.213-.577.333c-.34.12-.478.12-.757.12zm0-.803h.765a1 1 0 0 0 .366-.063.7.7 0 0 0 .26-.173.7.7 0 0 0 .154-.252.9.9 0 0 0 .052-.298q0-.179-.052-.335a.73.73 0 0 0-.414-.454.9.9 0 0 0-.366-.067h-.765zm3.496-2.445h2.967v.8h-1.001v3.534h1v.796h-2.966v-.796h.976v-3.534h-.976z"/></svg>