<svg xmlns="http://www.w3.org/2000/svg" viewBox="0 0 50 50"><g fill="none" stroke="#000" stroke-linecap="round" stroke-linejoin="round"><path d="M10 5v40h30V16L29 5z"/><path d="M29 5v11h11"/></g><g fill="none" stroke="#000" stroke-linecap="round" stroke-linejoin="round"><path d="M22.326 38.326h5.348M27.674 35.652v4.01c0 .74-.598 1.338-1.337 1.338h-2.674a1.337 1.337 0 0 1-1.337-1.337v-4.011M25 20.456v1.393M15.251 30.206h1.392M17.34 23.242l1.021.984M34.749 30.206h-1.392M32.66 23.242l-1.021.984"/><path d="M22.326 29.857c.738 0 1.337.599 1.337 1.337v4.458m2.674 0v-4.458c0-.738.599-1.337 1.337-1.337"/><path d="M22.326 35.652h5.348c2.029-1.005 3.372-3.085 3.343-5.349A6.124 6.124 0 0 0 25 24.286a6.124 6.124 0 0 0-6.017 6.017c-.03 2.264 1.314 4.344 3.343 5.349"/></g></svg>