<svg xmlns="http://www.w3.org/2000/svg" viewBox="0 0 50 50"><path fill="none" stroke="#000" stroke-linecap="round" stroke-linejoin="round" d="M6.559 14.407h2.438M11.434 14.407h2.438M16.294 14.407h2.438M38.246 25.732v12.29l-34.124-.023V16.814l34.124.022v3.046" style="isolation:isolate"/><path fill="none" stroke="#000" stroke-linecap="round" stroke-linejoin="round" d="M4.122 11.979h34.125v4.858H4.122z" style="isolation:isolate"/><path fill="none" stroke="#000" stroke-linecap="round" stroke-linejoin="round" d="m42.188 21.596 3.577-3.766a.416.416 0 0 0-.015-.586l-2.354-2.236a.416.416 0 0 0-.586.015l-3.577 3.766" opacity=".9"/><path fill="none" stroke="#000" stroke-linecap="round" stroke-linejoin="round" d="M35.075 29.065 31.28 30.16l.858-3.883 9.054-9.547 2.952 2.804z" opacity=".9" style="isolation:isolate"/><g fill="none" stroke="#000" stroke-linecap="round" stroke-linejoin="round"><path d="M9.883 22.097h22.602M9.883 24.787h20.83M9.883 27.478h18.919M9.883 30.168h19.06M9.883 32.859h22.602"/></g><path fill="none" stroke="#000" stroke-linecap="round" stroke-linejoin="round" d="m32.139 26.276 2.936 2.789" opacity=".9" style="isolation:isolate"/><circle cx="35.809" cy="14.407" r=".852"/></svg>