<svg xmlns="http://www.w3.org/2000/svg" data-name="Layer 1" viewBox="0 0 50 50"><path fill="none" stroke="#000" stroke-linecap="round" stroke-linejoin="round" d="M14.477 27.852c.27 2.88.427 6.746-.074 10.467m22.115-2.346c.295-6.845-.515-12.863-.96-15.544M14.067 24.49a34 34 0 0 0-.199-1.188c-1.195-5.85 2.628-11.61 8.528-12.812a11 11 0 0 1 2.195-.222c4.514 0 8.523 2.799 10.153 6.872"/><path fill="none" stroke="#000" stroke-linecap="round" stroke-linejoin="round" d="M12.388 13.212a14.56 14.56 0 0 1 9.278-6.279 14.7 14.7 0 0 1 2.925-.295c3.135 0 6.08 1.02 8.497 2.757m2.514 2.28a14.4 14.4 0 0 1 3.26 6.56c.06.293.77 3.81 1.138 8.87M10.863 16.242a14.26 14.26 0 0 0-.572 7.75c.012.06.8 4.248.798 9.104m8.135-16.837c-1.521 1.657-2.262 3.986-1.78 6.346.02.102 1.975 10.059.16 18.576m15.342-8.205c0 2.388-.126 4.943-.457 7.524m-10.47-26.126a7 7 0 0 1 1.107-.327 7.4 7.4 0 0 1 1.465-.148c3.44 0 6.44 2.438 7.133 5.798.062.3.875 4.344 1.14 9.883m-10.946-.048c.22 3.836.15 8.593-.881 13.007a4 4 0 0 0-.054.296"/><path fill="none" stroke="#000" stroke-linecap="round" stroke-linejoin="round" d="M21.636 26.157c-.28-2.565-.611-4.228-.62-4.27a3.633 3.633 0 0 1 2.84-4.283 3.643 3.643 0 0 1 4.3 2.824c.1.491 2.352 11.675.281 22.327"/><path fill="none" stroke="#000" stroke-linecap="round" stroke-linejoin="round" d="M25.655 34.042c.128-7.067-1.07-12.883-1.07-12.883m.905 16.27c-.162 1.968-.447 3.975-.904 5.933"/></svg>