<svg xmlns="http://www.w3.org/2000/svg" viewBox="0 0 50 50"><path fill="none" stroke="#000" stroke-linecap="round" stroke-linejoin="round" d="M20 41.81a4.26 4.26 0 0 0 3-4.07V26.26A4.26 4.26 0 0 0 18.74 22H7.26A4.26 4.26 0 0 0 3 26.26v11.48A4.26 4.26 0 0 0 7.26 42h11.48c.439 0 .862-.066 1.26-.19"/><path stroke="#000" stroke-linecap="round" stroke-miterlimit="10" stroke-width=".075" d="M9.445 34q-.04-.078-.064-.184a3 3 0 0 1-.045-.226q-.098.1-.22.19c-.123.09-.174.11-.274.154s-.208.079-.324.105-.24.04-.373.04q-.336 0-.608-.097c-.272-.097-.336-.152-.465-.265a1.18 1.18 0 0 1-.404-.9q0-.68.506-1.04c.506-.36.821-.359 1.451-.359h.684v-.277q0-.336-.227-.534c-.227-.198-.364-.197-.64-.197q-.188 0-.329.045a.5.5 0 0 0-.234.123.52.52 0 0 0-.188.41h-.933q0-.246.115-.478c.115-.232.19-.293.338-.414s.33-.219.545-.291.46-.11.736-.11q.375 0 .695.092c.32.092.399.152.555.274s.279.272.367.453.133.392.133.634v1.883q0 .278.041.506c.041.228.068.284.12.397V34zm-1.125-.676q.18 0 .338-.045c.158-.045.2-.069.285-.117a1 1 0 0 0 .366-.357v-.793h-.594q-.57 0-.842.183c-.272.183-.271.297-.271.524q0 .129.043.24c.043.111.072.138.13.191s.133.096.223.127.197.047.322.047Zm6.733-1.394q0 .46-.11.855c-.11.395-.18.49-.32.682s-.313.34-.518.449-.439.162-.705.162q-.358 0-.634-.117c-.276-.117-.342-.19-.475-.336v2h-.934v-5.852h.86l.039.426q.203-.241.482-.373c.28-.132.404-.13.65-.13q.404 0 .714.156c.31.156.38.25.521.439s.247.416.32.68.11.556.11.877zm-.934-.082q0-.286-.058-.537c-.058-.251-.1-.315-.18-.442s-.184-.226-.309-.299-.273-.11-.445-.11q-.312 0-.516.134c-.204.134-.242.207-.32.355v1.89a1 1 0 0 0 .318.356q.202.137.526.137a.85.85 0 0 0 .752-.418q.118-.191.176-.445c.058-.254.056-.35.056-.54zm5.561.082q0 .46-.11.855c-.11.395-.18.49-.32.682s-.313.34-.518.449-.439.162-.705.162q-.358 0-.634-.117c-.276-.117-.342-.19-.475-.336v2h-.934v-5.852h.86l.039.426q.203-.241.482-.373c.28-.132.404-.13.65-.13q.404 0 .714.156c.31.156.38.25.521.439s.247.416.32.68.11.556.11.877zm-.934-.082q0-.286-.058-.537c-.058-.251-.1-.315-.18-.442s-.184-.226-.309-.299-.273-.11-.445-.11q-.312 0-.516.134c-.204.134-.242.207-.32.355v1.89a1 1 0 0 0 .318.356q.201.137.526.137a.85.85 0 0 0 .752-.418q.118-.191.175-.445c.057-.254.057-.35.057-.54z"/><g fill="none" stroke-linecap="round" stroke-linejoin="round"><g stroke="#000"><path d="m26 27 11-11M37 24v-8h-8"/></g><path stroke="#231f20" d="M14.793 20c.625-3.78 3.935-6.668 7.935-6.668 1.183 0 2.305.254 3.317.708C27.384 10.512 30.825 8 34.861 8c5.199 0 9.414 4.167 9.414 9.308a9.2 9.2 0 0 1-.325 2.424C45.786 20.927 47 22.98 47 25.316 47 29.008 43.974 32 40.24 32H25"/></g></svg>