<svg xmlns="http://www.w3.org/2000/svg" data-name="Isolation Mode" viewBox="0 0 50 50"><g fill="none" stroke="#000" stroke-linecap="round" stroke-linejoin="round"><path d="M23.7 43.516h10.582v-9.614l-7.937-3.277"/><path d="M15.773 19.046v24.47H23.7V29.533l2.645 1.092v-11.58zM21.046 21.667v19.537M18.409 21.667v19.537M23.7 21.667v5.118M26.345 33.61v7.594M28.991 34.484v6.72M31.637 35.358v5.846"/></g><path fill="none" stroke="#000" stroke-linecap="round" stroke-linejoin="round" d="M13 34.484H9.318C5.828 34.484 3 31.687 3 28.237c0-3.44 2.814-6.23 6.291-6.245v-.002c0-5.128 4.205-9.285 9.391-9.285 1.38 0 2.69.297 3.87.826 1.563-4.116 5.577-7.047 10.286-7.047 6.065 0 10.982 4.862 10.982 10.86 0 .978-.133 1.926-.378 2.828C45.584 21.566 47 23.962 47 26.687c0 4.306-3.53 7.797-7.886 7.797H37"/></svg>