<svg xmlns="http://www.w3.org/2000/svg" data-name="Isolation Mode" viewBox="0 0 50 50"><path d="M26.628 16.854c-1.744 0-2.525 1.754-2.525 3.492 0 1.742.78 3.5 2.525 3.5 1.738 0 2.517-1.758 2.517-3.5 0-1.738-.779-3.492-2.517-3.492m1.488 3.492c0 1.218-.39 2.52-1.488 2.52-1.105 0-1.497-1.302-1.497-2.52 0-1.214.392-2.511 1.497-2.511 1.098 0 1.488 1.297 1.488 2.511M30.46 18.63v5.107h1v-6.79h-.782L29.17 18.56l.692.725zM34.673 16.854c-1.744 0-2.526 1.754-2.526 3.492 0 1.742.782 3.5 2.526 3.5 1.737 0 2.515-1.758 2.515-3.5 0-1.738-.778-3.492-2.515-3.492m1.488 3.492c0 1.218-.39 2.52-1.488 2.52-1.105 0-1.498-1.302-1.498-2.52 0-1.214.393-2.511 1.498-2.511 1.098 0 1.488 1.297 1.488 2.511M38.505 18.63v5.107h1v-6.79h-.781l-1.51 1.614.693.725zM41.031 18.63v5.107h1v-6.79h-.781l-1.509 1.614.694.725zM26.179 26.219l.692.725.597-.656v5.107h1v-6.791h-.781zM31.68 24.512c-1.743 0-2.525 1.754-2.525 3.492 0 1.742.782 3.5 2.526 3.5 1.738 0 2.516-1.758 2.516-3.5 0-1.738-.778-3.492-2.516-3.492m1.489 3.492c0 1.219-.39 2.52-1.488 2.52-1.105 0-1.497-1.301-1.497-2.52 0-1.214.392-2.511 1.497-2.511 1.097 0 1.488 1.297 1.488 2.511M34.224 26.219l.692.725.598-.656v5.107h1v-6.791h-.784zM39.726 24.512c-1.745 0-2.526 1.754-2.526 3.492 0 1.742.781 3.5 2.526 3.5 1.738 0 2.516-1.758 2.516-3.5 0-1.738-.778-3.492-2.516-3.492m1.488 3.492c0 1.219-.39 2.52-1.488 2.52-1.105 0-1.497-1.301-1.497-2.52 0-1.214.392-2.511 1.497-2.511 1.097 0 1.488 1.297 1.488 2.511"/><path fill="none" stroke="#000" stroke-linecap="round" stroke-linejoin="round" d="M11.168 32.671c-.22-2.061.986-5.19 3.257-8.4a30 30 0 0 1 1.993-2.515.43.43 0 0 1 .607-.033l7.09 6.413c.177.16.19.434.029.607a30 30 0 0 1-2.57 2.463c-2.915 2.474-5.828 3.902-7.842 3.853m-1.16 2.208 1.16-2.208-2.564-2.388-2.073 1.452-5.126 5.669a2.35 2.35 0 0 0 .166 3.31h0a2.35 2.35 0 0 0 3.31-.166zM16.056 36.874h30.578V11.999"/><path fill="none" stroke="#000" stroke-linecap="round" stroke-linejoin="round" d="M6.566 12V6.295h40.068v5.703zv21.18M9.428 9.147h2.862M15.152 9.147h2.862M20.876 9.147h2.862"/><path d="M43.772 8.147a1 1 0 1 0 0 2 1 1 0 0 0 0-2"/></svg>