<svg xmlns="http://www.w3.org/2000/svg" data-name="Isolation Mode" viewBox="0 0 50 50"><g fill="none" stroke="#000" stroke-linecap="round" stroke-linejoin="round"><path d="M32.321 36.592s2.034-1.35 7.299-5.081c6.12-4.338 5.768-9.474 5.768-9.474s.588-6.849.588-11.072-2.475-3.35-5.65-3.196"/><path d="M40.326 7.77q-.842.04-1.68.07l-.002-.007-4.016-2.996c-1.327-.99-2.924-1.012-4.265-.062l-4.326 3.064q-.837-.03-1.68-.07c-3.174-.153-5.65-1.027-5.65 3.196 0 .847.024 1.799.062 2.78"/></g><g fill="none" stroke="#000" stroke-linecap="round" stroke-linejoin="round"><path d="M20.859 31.096c2.028-1.487 3.407-4.395 3.407-7.74 0-4.856-2.905-6.692-6.488-6.692s-6.489 1.836-6.489 6.693c0 3.345 1.38 6.253 3.408 7.74"/><path d="m4.024 45.922 2.275-10.146a4.04 4.04 0 0 1 1.75-2.301s2.736-1.715 6.647-2.38c.917.673 1.966 1.112 3.082 1.112s2.164-.44 3.08-1.111"/><path d="M31.527 45.922 29.25 35.776a4.04 4.04 0 0 0-1.749-2.301s-2.737-1.715-6.647-2.38"/></g><g fill="none" stroke="#000" stroke-linecap="round" stroke-linejoin="round"><path d="M26.345 25.662 37.061 14.91M37.061 23.418V14.91h-8.513"/></g></svg>