<svg xmlns="http://www.w3.org/2000/svg" data-name="Isolation Mode" viewBox="0 0 50 50"><g fill="none" stroke="#000" stroke-linecap="round" stroke-linejoin="round" stroke-width=".998"><path d="M14 26.929h3.987v4"/><path d="M19.538 25.656A9.944 9.944 0 0 1 32.08 26.93c3.892 3.905 3.892 10.237 0 14.142a9.94 9.94 0 0 1-14.094 0c-3.893-3.905-3.893-10.237 0-14.142"/></g><path fill="none" stroke="#000" stroke-linecap="round" stroke-linejoin="round" d="M13 33.968H9.318C5.828 33.968 3 31.172 3 27.721c0-3.44 2.814-6.23 6.291-6.245v-.002c0-5.128 4.205-9.285 9.391-9.285 1.38 0 2.69.297 3.87.826 1.563-4.116 5.577-7.047 10.286-7.047 6.065 0 10.982 4.862 10.982 10.86 0 .979-.133 1.926-.378 2.828C45.584 21.05 47 23.446 47 26.171c0 4.306-3.53 7.797-7.886 7.797H37"/><g fill="none" stroke="#000" stroke-linejoin="round" stroke-width="1.058"><path d="M21.5 33.051h7v6.418h-7zM27.621 33.05v-1.832c0-1.521-1.17-2.75-2.621-2.75s-2.621 1.229-2.621 2.75v1.833"/></g></svg>