<svg xmlns="http://www.w3.org/2000/svg" viewBox="0 0 50 50"><g fill="none" stroke="#000" stroke-linecap="round" stroke-linejoin="round"><path d="M23.718 15.779h18.22M11.586 20.421h32.139M9.404 25.064h34.567M32.976 11v4.779M23.718 20.421v4.643M32.976 20.421v4.643M37.605 15.779v4.642M19.089 17.226v3.195M28.346 15.779v4.642M37.605 25.064v4.643M19.089 25.064v4.643M28.346 25.064v4.643M3.922 29.715l42.933-.008M3.21 34.357h43.118M23.718 29.715v4.642M14.109 29.715v4.642M14.109 20.421v4.643M32.976 29.715v4.642M42.443 29.715v4.642M37.605 34.357V39M19.089 34.357V39M28.346 34.357V39M9.289 34.357V39M9.289 26.507v3.208"/></g><path fill="none" stroke="#000" stroke-linecap="round" stroke-linejoin="round" d="M9.318 39C5.828 39 3 36.203 3 32.753c0-3.441 2.814-6.231 6.291-6.246q0 0 0 0c0-5.13 4.205-9.287 9.391-9.287 1.38 0 2.69.297 3.87.826C24.116 13.93 28.13 11 32.839 11c6.065 0 10.982 4.862 10.982 10.86 0 .978-.133 1.926-.378 2.828C45.584 26.082 47 28.478 47 31.202 47 35.51 43.47 39 39.114 39z"/></svg>