<svg xmlns="http://www.w3.org/2000/svg" viewBox="0 0 50 50"><rect width="40" height="40" x="5" y="5" fill="none" stroke="#000" stroke-linecap="round" stroke-linejoin="round" rx="8.52" ry="8.52"/><g fill="none" stroke="#000" stroke-linecap="round" stroke-linejoin="round"><path d="M19.48 17.978a2.49 2.49 0 0 0 2.84-.889m-.974-3.739a2.49 2.49 0 0 0-2.91.61"/><path d="M27.894 5a27.6 27.6 0 0 0-6.548 8.35 2.5 2.5 0 0 1 1.456 2.27c0 .55-.18 1.057-.481 1.47A27.35 27.35 0 0 0 37.5 21.667a27.5 27.5 0 0 0 7.5-1.044m-28.752.575a2.5 2.5 0 0 0-.152.852 2.5 2.5 0 0 0 2.273 2.489m2.484-1.419c.154-.324.243-.686.243-1.07a2.5 2.5 0 0 0-2.04-2.455"/><path d="M5 20.215A27 27 0 0 1 8.333 20c2.757 0 5.414.421 7.915 1.198a2.5 2.5 0 0 1 2.809-1.603 27 27 0 0 1 .423-1.617 2.5 2.5 0 0 1-1.678-2.359c0-.637.24-1.218.634-1.66-2.625-2.527-4.718-5.468-6.176-8.866m14.714 25.796a2.5 2.5 0 0 0 3.86 1.48m1.058-2.319a2.5 2.5 0 0 0-4.12-1.62M45 33.13A23.2 23.2 0 0 0 33.333 30c-.484 0-.964.02-1.441.05q.015.134.015.269c0 .85-.425 1.6-1.073 2.05 2.352 3.694 3.823 8 4.109 12.631m-14.347-8.272a2.5 2.5 0 0 0 1.199-3.665m-2.759-1.073a2.5 2.5 0 0 0-1.29 3.988"/><path d="M27.772 28.43a26.8 26.8 0 0 0-6.92-5.31 2.5 2.5 0 0 1-2.483 1.419c-.021.43-.036.86-.036 1.294 0 2.118.247 4.177.703 6.157.207-.056.424-.089.65-.089.887 0 1.665.464 2.109 1.162a23.3 23.3 0 0 1 5.18-2.174 2.49 2.49 0 0 1 .797-2.458"/><path d="M21.795 33.063a2.5 2.5 0 0 0-2.76-1.073M26.122 45a27.5 27.5 0 0 1-5.527-8.272 2.49 2.49 0 0 1-2.849-.75c-2.727 2.451-4.79 5.322-6.125 8.81"/><path d="M17.746 35.978a2.49 2.49 0 0 0 2.85.75"/></g></svg>