<svg xmlns="http://www.w3.org/2000/svg" data-name="Isolation Mode" viewBox="0 0 50 50"><g fill="none" stroke="#000" stroke-linecap="round" stroke-linejoin="round"><path d="M31.5 33.5 38 27 25 14l-6.5 6.5 3.25 3.25 1.95-1.95.65.65.65.65 3.25 3.25 1.3 1.3-1.3 1.3-.65.65z"/><path d="M30.2 34.8 25 40 12 27l5.2-5.2 3.25 3.25 1.3 1.3 1.3-1.3.65-.65 3.25 3.25L25 29.6l.65.65.65.65z"/></g><path fill="none" stroke="#231f20" stroke-linecap="round" stroke-linejoin="round" d="M22.635 13.65c-.728-2.123-2.717-3.65-5.063-3.65-2.3 0-4.26 1.465-5.023 3.523a4.5 4.5 0 0 0-1.89-.413c-2.533 0-4.587 2.079-4.587 4.643v0C4.374 17.762 3 19.157 3 20.878 3 22.602 4.381 24 6.086 24H12m17.232-8.59c.797-1.37 2.254-2.3 3.938-2.3a4.5 4.5 0 0 1 1.89.413C35.824 11.465 37.785 10 40.084 10c2.963 0 5.364 2.431 5.364 5.43 0 .49-.065.963-.185 1.414A3.9 3.9 0 0 1 47 20.1c0 2.154-1.724 3.9-3.851 3.9H38"/><path d="M11.116 19a.5.5 0 0 1-.04-.115q-.016-.066-.028-.14a1 1 0 0 1-.31.214q-.094.04-.202.065c-.108.025-.15.025-.233.025q-.21 0-.38-.06a.9.9 0 0 1-.29-.166.73.73 0 0 1-.253-.563q0-.425.316-.649t.908-.224h.426v-.174a.42.42 0 0 0-.141-.333q-.141-.123-.4-.124-.118 0-.206.028c-.088.028-.107.045-.146.077s-.069.07-.088.116a.34.34 0 0 0-.03.14h-.582q0-.153.07-.299a.8.8 0 0 1 .213-.258q.14-.114.34-.182.201-.069.46-.068.235 0 .435.057t.347.171q.146.113.23.283a.9.9 0 0 1 .082.397v1.177q0 .172.026.316.025.143.074.248V19zm-.703-.422a.8.8 0 0 0 .389-.101.6.6 0 0 0 .228-.224v-.495h-.37q-.357 0-.527.114a.37.37 0 0 0-.17.327q0 .081.027.15a.3.3 0 0 0 .082.12q.055.05.139.08t.202.03m4.06-.873q0 .288-.069.534a1.3 1.3 0 0 1-.2.427q-.131.18-.323.28a.76.76 0 0 1-.44.102q-.226 0-.398-.073a.85.85 0 0 1-.296-.21v1.25h-.584v-3.658h.537l.025.267a.87.87 0 0 1 .708-.315.91.91 0 0 1 .771.372q.132.178.2.424.069.25.069.548zm-.583-.052q0-.177-.037-.335a.9.9 0 0 0-.113-.276q-.075-.118-.192-.187c-.117-.069-.171-.068-.278-.068a.57.57 0 0 0-.323.083.6.6 0 0 0-.2.223v1.181a.6.6 0 0 0 .198.222.6.6 0 0 0 .33.085.53.53 0 0 0 .47-.26.9.9 0 0 0 .109-.279q.036-.158.036-.337zm3.326.052q0 .288-.069.534a1.3 1.3 0 0 1-.2.427q-.132.18-.323.28a.76.76 0 0 1-.44.102q-.225 0-.398-.073a.85.85 0 0 1-.296-.21v1.25h-.584v-3.658h.537l.025.267a.87.87 0 0 1 .708-.315.91.91 0 0 1 .771.372q.133.178.2.424.069.25.069.548zm-.583-.052q0-.177-.037-.335a.9.9 0 0 0-.113-.276q-.075-.118-.192-.187c-.117-.069-.17-.068-.278-.068a.57.57 0 0 0-.323.083.6.6 0 0 0-.2.223v1.181a.6.6 0 0 0 .198.222.6.6 0 0 0 .33.085.53.53 0 0 0 .47-.26.9.9 0 0 0 .109-.279q.036-.158.036-.337zM35.611 19a.6.6 0 0 1-.04-.115 2 2 0 0 1-.028-.14.97.97 0 0 1-.51.28 1 1 0 0 1-.234.024q-.21 0-.38-.06a.7.7 0 0 1-.29-.166.74.74 0 0 1-.253-.563q0-.425.316-.649t.907-.224h.427v-.174a.42.42 0 0 0-.141-.333q-.143-.123-.4-.124-.118 0-.206.028c-.088.028-.107.045-.146.077s-.069.07-.088.116a.34.34 0 0 0-.03.14h-.583q0-.153.072-.299c.072-.146.118-.182.21-.258q.141-.114.342-.182.202-.069.46-.068.234 0 .434.057.201.057.347.171.147.113.23.283a.9.9 0 0 1 .082.397v1.177q0 .172.027.316a1 1 0 0 0 .074.248V19zm-.703-.422a.8.8 0 0 0 .39-.101.6.6 0 0 0 .228-.224v-.495h-.37q-.358 0-.527.114c-.17.114-.17.186-.17.327q0 .081.027.15a.3.3 0 0 0 .082.12q.054.05.139.08t.201.03m4.061-.873q0 .288-.069.534a1.3 1.3 0 0 1-.2.427 1 1 0 0 1-.323.28.9.9 0 0 1-.441.102q-.225 0-.397-.073a.85.85 0 0 1-.297-.21v1.25h-.583v-3.658h.537l.025.267a.9.9 0 0 1 .301-.233.94.94 0 0 1 .407-.082q.251 0 .445.097.194.098.326.275c.132.177.154.26.2.424q.068.25.069.548zm-.584-.052q0-.177-.036-.335a.9.9 0 0 0-.113-.276q-.076-.118-.193-.187c-.117-.069-.17-.068-.278-.068a.6.6 0 0 0-.323.083.6.6 0 0 0-.2.223v1.181q.073.136.2.222c.126.086.193.085.328.085a.53.53 0 0 0 .47-.26q.075-.12.11-.279c.035-.159.035-.218.035-.337zm3.327.052q-.001.288-.068.534a1.3 1.3 0 0 1-.2.427 1 1 0 0 1-.324.28.9.9 0 0 1-.441.102q-.225 0-.397-.073a.85.85 0 0 1-.297-.21v1.25h-.583v-3.658h.537l.025.267a.9.9 0 0 1 .302-.233.94.94 0 0 1 .406-.082q.251 0 .445.097.195.098.326.275c.131.177.155.26.2.424q.068.25.069.548zm-.584-.052q0-.177-.036-.335a.9.9 0 0 0-.113-.276q-.075-.118-.193-.187c-.118-.069-.17-.068-.278-.068a.6.6 0 0 0-.322.083.6.6 0 0 0-.2.223v1.181q.072.136.199.222c.127.086.193.085.328.085a.53.53 0 0 0 .47-.26q.074-.12.11-.279c.036-.159.035-.218.035-.337z"/></svg>