<svg xmlns="http://www.w3.org/2000/svg" data-name="Isolation Mode" viewBox="0 0 50 50"><path d="M18.688 33.023q0-.36-.164-.606a1.2 1.2 0 0 0-.421-.417q-.257-.169-.567-.282c-.31-.113-.403-.143-.594-.204a9 9 0 0 1-.84-.322q-.427-.189-.779-.462c-.352-.273-.426-.398-.574-.647q-.225-.374-.224-.878c.001-.504.075-.638.224-.903q.223-.398.582-.671.36-.274.816-.416.456-.143.92-.143.51 0 .982.17.473.168.838.475t.586.741q.22.435.23.972h-1.02a2.2 2.2 0 0 0-.166-.615 1.44 1.44 0 0 0-.813-.784q-.284-.11-.638-.11-.285 0-.555.08a1.5 1.5 0 0 0-.484.242q-.212.162-.339.398c-.127.236-.126.34-.126.547q.005.338.172.573.165.233.422.394.256.162.553.269.299.107.562.188.29.091.584.206.296.116.57.266c.274.15.352.213.51.339q.236.187.414.427.177.24.277.526.098.288.099.637 0 .526-.234.918a2.1 2.1 0 0 1-.604.653 2.7 2.7 0 0 1-.838.392 3.4 3.4 0 0 1-.935.131q-.52 0-1.02-.16c-.5-.16-.631-.263-.894-.466a2.4 2.4 0 0 1-.642-.74 2.1 2.1 0 0 1-.263-.997h1.015q.048.366.199.648.15.281.387.477.235.197.544.296.31.1.674.1.291 0 .573-.074.282-.071.501-.225a1.2 1.2 0 0 0 .36-.387q.14-.232.14-.556M24.553 35a1 1 0 0 1-.095-.282 3 3 0 0 1-.05-.352q-.15.15-.337.285-.184.135-.408.236a2.35 2.35 0 0 1-1.012.22 2.5 2.5 0 0 1-.836-.134q-.373-.134-.633-.363a1.59 1.59 0 0 1-.545-1.221q0-.479.19-.838.192-.36.54-.599.35-.24.841-.357a4.7 4.7 0 0 1 1.099-.118h1.085v-.457q0-.263-.097-.473c-.097-.21-.156-.258-.274-.357a1.3 1.3 0 0 0-.433-.228q-.255-.08-.571-.08-.296 0-.53.075t-.394.198a.7.7 0 0 0-.25.293.74.74 0 0 0-.09.352h-.998q.006-.318.164-.623c.158-.305.258-.388.456-.551q.299-.244.726-.395.426-.15.97-.15.493 0 .917.121.425.12.734.365.309.244.486.61c.177.366.177.528.177.854v2.701q0 .29.053.616.055.324.15.566V35zm-1.757-.757q.29 0 .543-.076.252-.075.459-.198c.207-.123.257-.177.357-.282q.15-.159.237-.33V32.18h-.924q-.87 0-1.354.258c-.484.258-.483.442-.483.811q0 .215.072.397a.8.8 0 0 0 .218.315q.145.13.365.206t.51.076m7.802.757a1 1 0 0 1-.095-.282 3 3 0 0 1-.05-.352q-.151.15-.337.285-.185.135-.408.236a2 2 0 0 1-.476.161q-.252.06-.536.06-.462 0-.836-.135c-.374-.135-.46-.21-.633-.363a1.6 1.6 0 0 1-.403-.542 1.6 1.6 0 0 1-.142-.68q0-.477.19-.837c.19-.36.307-.44.54-.599a2.5 2.5 0 0 1 .84-.357 4.7 4.7 0 0 1 1.1-.118h1.084v-.457q0-.263-.096-.473c-.096-.21-.156-.258-.275-.357q-.177-.147-.432-.228c-.255-.081-.36-.08-.572-.08q-.296 0-.529.075t-.395.198a.9.9 0 0 0-.25.293.74.74 0 0 0-.088.352h-1q.005-.318.165-.623.158-.306.456-.551.299-.244.726-.395.426-.15.97-.15.492 0 .917.121.425.12.734.365.31.244.485.61.179.365.178.854v2.701q0 .29.053.616.055.324.15.566V35zm-1.757-.757q.29 0 .542-.076.253-.075.46-.198c.207-.123.257-.177.356-.282q.15-.159.237-.33V32.18h-.924q-.87 0-1.353.258-.484.258-.484.811 0 .215.073.397a.8.8 0 0 0 .217.315q.146.13.366.206t.51.076m8.034-1.22q0-.36-.164-.606a1.2 1.2 0 0 0-.422-.417q-.257-.169-.566-.282c-.31-.113-.404-.143-.594-.204a9 9 0 0 1-.84-.322q-.427-.189-.78-.462c-.352-.273-.425-.398-.573-.647q-.223-.374-.223-.878c0-.504.074-.638.223-.903s.342-.489.582-.671q.36-.274.816-.416.457-.143.919-.143.51 0 .983.17.472.168.838.475.365.306.585.741c.22.435.224.614.232.972h-1.022a2.2 2.2 0 0 0-.166-.615 1.44 1.44 0 0 0-.813-.784q-.282-.11-.637-.11-.285 0-.556.08c-.27.08-.342.135-.483.242s-.255.24-.339.398-.126.34-.126.547a1 1 0 0 0 .172.573q.167.233.422.394c.255.161.354.197.553.269q.298.107.561.188.29.091.586.206.295.116.568.266.276.15.511.339c.235.189.296.267.413.427q.179.24.277.526.1.288.1.637 0 .526-.234.918a2.1 2.1 0 0 1-.604.653 2.8 2.8 0 0 1-.838.392 3.4 3.4 0 0 1-.935.131q-.521 0-1.02-.16a2.9 2.9 0 0 1-.894-.466 2.4 2.4 0 0 1-.643-.74 2.1 2.1 0 0 1-.263-.997h1.015q.049.366.2.648a1.6 1.6 0 0 0 .931.773q.309.1.674.1.29 0 .572-.074.283-.071.502-.225a1.2 1.2 0 0 0 .36-.387q.14-.232.14-.556"/><path fill="none" stroke="#000" stroke-linecap="round" stroke-linejoin="round" d="M9.318 39C5.828 39 3 36.203 3 32.753c0-3.441 2.814-6.231 6.291-6.246q0 0 0 0c0-5.13 4.205-9.287 9.391-9.287 1.38 0 2.69.297 3.87.826C24.116 13.93 28.13 11 32.839 11c6.065 0 10.982 4.862 10.982 10.86 0 .978-.133 1.926-.378 2.828C45.584 26.082 47 28.478 47 31.202 47 35.51 43.47 39 39.114 39z"/></svg>