<svg xmlns="http://www.w3.org/2000/svg" data-name="Isolation Mode" viewBox="0 0 50 50"><path fill="none" stroke="#000" stroke-linecap="round" stroke-linejoin="round" d="M11 35.484H9.318C5.828 35.484 3 32.687 3 29.237c0-3.44 2.814-6.23 6.291-6.245v-.002c0-5.128 4.205-9.285 9.391-9.285 1.38 0 2.69.297 3.87.826 1.563-4.116 5.577-7.047 10.286-7.047 6.065 0 10.982 4.862 10.982 10.86 0 .978-.133 1.926-.378 2.828C45.584 22.566 47 24.962 47 27.687c0 4.306-3.53 7.797-7.886 7.797H39"/><rect width="11" height="11" x="26" y="18.411" fill="none" stroke="#000" stroke-linecap="round" stroke-linejoin="round" stroke-width=".75" rx="2.357" ry="2.357"/><path d="M29.41 25.025a.5.5 0 0 1-.04-.115 2 2 0 0 1-.028-.14 1 1 0 0 1-.745.304q-.21 0-.38-.06a.9.9 0 0 1-.29-.165.74.74 0 0 1-.253-.564q0-.425.317-.648.315-.225.906-.225h.428v-.174q0-.21-.142-.333c-.142-.123-.228-.124-.4-.124q-.117 0-.205.029c-.088.029-.108.044-.147.077s-.068.07-.088.115a.34.34 0 0 0-.029.14h-.584a.7.7 0 0 1 .072-.298.8.8 0 0 1 .212-.259q.138-.113.34-.182t.46-.068q.235 0 .435.058a.8.8 0 0 1 .347.17q.146.114.23.284c.083.17.082.245.082.396v1.177q0 .172.026.316a1 1 0 0 0 .074.248v.041zm-.703-.421a.8.8 0 0 0 .39-.102.6.6 0 0 0 .228-.224v-.495h-.371q-.357 0-.527.114a.37.37 0 0 0-.17.328q0 .08.028.15a.3.3 0 0 0 .082.12q.055.049.138.08.085.029.202.029m4.06-.873q0 .288-.068.535a1.3 1.3 0 0 1-.2.426.95.95 0 0 1-.324.28.9.9 0 0 1-.44.102q-.224 0-.398-.073a.85.85 0 0 1-.296-.21v1.25h-.583v-3.657h.537l.024.266a.87.87 0 0 1 .708-.315q.252 0 .445.098.195.097.327.274c.132.177.154.26.2.425s.068.348.068.548zm-.583-.051q0-.177-.037-.335-.036-.159-.112-.277c-.076-.118-.115-.14-.193-.186s-.171-.069-.279-.069q-.195 0-.322.083a.46.46 0 0 0-.2.223v1.182q.073.136.199.221a.6.6 0 0 0 .328.085.53.53 0 0 0 .47-.26.9.9 0 0 0 .11-.279 1.5 1.5 0 0 0 .036-.337zm3.326.051q0 .288-.068.535a1.3 1.3 0 0 1-.2.426.95.95 0 0 1-.324.28.9.9 0 0 1-.44.102q-.225 0-.397-.073a.85.85 0 0 1-.297-.21v1.25h-.583v-3.657h.537l.024.266a.87.87 0 0 1 .708-.315q.252 0 .446.098.195.097.326.274c.13.177.154.26.2.425s.068.348.068.548zm-.583-.051q0-.177-.037-.335-.036-.159-.112-.277c-.076-.118-.115-.14-.193-.186s-.17-.069-.278-.069q-.195 0-.323.083c-.128.083-.151.13-.2.223v1.182q.073.136.199.221a.6.6 0 0 0 .329.085.53.53 0 0 0 .47-.26.9.9 0 0 0 .11-.279 1.5 1.5 0 0 0 .035-.337z"/><rect width="11" height="11" x="13" y="18.411" fill="none" stroke="#000" stroke-linecap="round" stroke-linejoin="round" stroke-width=".75" rx="2.357" ry="2.357"/><path d="M18.313 25.701h-.59l-1.158-2.446-.002 2.446h-.593v-3.555h.593l1.152 2.44.005-2.44h.593zm2.531-1.513h-1.491V25.7h-.591v-3.555h2.302v.484h-1.711v1.077h1.491z"/><rect width="11" height="11" x="13" y="31.359" fill="none" stroke="#000" stroke-linecap="round" stroke-linejoin="round" stroke-width=".75" rx="2.357" ry="2.357"/><path d="M18.313 38.65h-.59l-1.158-2.447-.002 2.446h-.593v-3.554h.593l1.152 2.44.005-2.44h.593zm2.531-1.514h-1.491v1.513h-.591v-3.554h2.302v.483h-1.711v1.077h1.491z"/><rect width="11" height="11" x="26" y="31.359" fill="none" stroke="#000" stroke-linecap="round" stroke-linejoin="round" stroke-width=".75" rx="2.357" ry="2.357"/><path d="M29.41 37.975a.5.5 0 0 1-.04-.116 2 2 0 0 1-.028-.14 1 1 0 0 1-.745.304q-.21 0-.38-.06a.9.9 0 0 1-.29-.165.74.74 0 0 1-.253-.564q0-.425.317-.648.315-.225.906-.225h.428v-.173q0-.21-.142-.334c-.142-.124-.228-.124-.4-.124q-.117 0-.205.029a.35.35 0 0 0-.235.192.34.34 0 0 0-.029.14h-.584a.7.7 0 0 1 .072-.298.8.8 0 0 1 .212-.259q.138-.113.34-.181.202-.069.46-.069.235 0 .435.058a.8.8 0 0 1 .347.17q.146.114.23.284c.083.17.082.245.082.396v1.177q0 .172.026.317a1 1 0 0 0 .074.248v.04zm-.703-.422a.8.8 0 0 0 .39-.102.6.6 0 0 0 .228-.223v-.496h-.371q-.357 0-.527.115a.37.37 0 0 0-.17.327q0 .08.028.15a.3.3 0 0 0 .082.12q.055.05.138.08.085.029.202.029m4.06-.873q0 .288-.068.535a1.3 1.3 0 0 1-.2.427.95.95 0 0 1-.324.28.9.9 0 0 1-.44.101q-.224 0-.398-.073a.85.85 0 0 1-.296-.21v1.25h-.583v-3.657h.537l.024.267a.87.87 0 0 1 .708-.316q.252 0 .445.098.195.097.327.274c.132.177.154.26.2.425s.068.349.068.548zm-.583-.051q0-.177-.037-.335-.036-.158-.112-.276c-.076-.118-.115-.141-.193-.187s-.171-.068-.279-.068q-.195 0-.322.083a.46.46 0 0 0-.2.222v1.182q.073.136.199.222a.6.6 0 0 0 .328.085.53.53 0 0 0 .47-.261.9.9 0 0 0 .11-.278 1.5 1.5 0 0 0 .036-.337zm3.326.051q0 .288-.068.535a1.3 1.3 0 0 1-.2.427.95.95 0 0 1-.324.28.9.9 0 0 1-.44.101q-.225 0-.397-.073a.85.85 0 0 1-.297-.21v1.25h-.583v-3.657h.537l.024.267a.87.87 0 0 1 .708-.316q.252 0 .446.098.195.097.326.274c.13.177.154.26.2.425s.068.349.068.548zm-.583-.051q0-.177-.037-.335-.036-.158-.112-.276c-.076-.118-.115-.141-.193-.187s-.17-.068-.278-.068q-.195 0-.323.083c-.128.083-.151.129-.2.222v1.182q.073.136.199.222a.6.6 0 0 0 .329.085.53.53 0 0 0 .47-.261.9.9 0 0 0 .11-.278 1.5 1.5 0 0 0 .035-.337z"/></svg>