<svg xmlns="http://www.w3.org/2000/svg" data-name="Isolation Mode" viewBox="0 0 50 50"><path fill="none" stroke="#000" stroke-linecap="round" stroke-linejoin="round" d="M25.874 13.87c2.355 1.242 3.958 3.686 3.958 6.499 0 .582-.08 1.144-.21 1.687m-3.748-8.186a7.55 7.55 0 0 0-3.53-.87c-3.21 0-5.948 1.988-7.012 4.781a6.5 6.5 0 0 0-2.64-.56c-3.536 0-6.403 2.821-6.403 6.301v0C3.92 23.533 2 25.427 2 27.762 2 30.102 3.929 32 6.308 32h8.008"/><path fill="none" stroke="#000" stroke-linecap="round" stroke-linejoin="round" d="M25.874 13.87a6.46 6.46 0 0 1 5.458-.09C32.396 10.988 35.134 9 38.344 9c4.135 0 7.488 3.3 7.488 7.369a7.3 7.3 0 0 1-.258 1.92c1.46.945 2.426 2.57 2.426 4.42C48 25.63 45.593 28 42.623 28h-4.925"/><path fill="none" stroke="#000" stroke-linecap="round" stroke-linejoin="round" d="M16.818 41h-2.51C11.928 41 10 39.102 10 36.761c0-2.335 1.919-4.228 4.29-4.238v-.001c0-3.48 2.866-6.301 6.402-6.301.942 0 1.835.202 2.64.56C24.396 23.988 27.134 22 30.344 22c4.135 0 7.488 3.3 7.488 7.369a7.3 7.3 0 0 1-.258 1.92c1.46.945 2.426 2.57 2.426 4.42C40 38.63 37.593 41 34.623 41z"/></svg>