<svg xmlns="http://www.w3.org/2000/svg" data-name="&amp;lt;Layer&amp;gt;" viewBox="0 0 50 50"><g fill="none" stroke="#000" stroke-linecap="round" stroke-linejoin="round" stroke-width=".833"><path d="M15.92 23.541 11 25.755l4.2 2.31M34.8 28.065l4.2-2.31-4.92-2.214M19.4 30.375l-4.2-2.31-4.2 1.89 4.2 2.31M34.8 32.265l4.2-2.31-4.2-1.89-4.2 2.31M34.8 32.265l-9.8 5.39-9.8-5.39"/><path d="m19.4 30.375 5.6 3.08 5.6-3.08"/></g><rect width="14.855" height="14.855" x="17.573" y="12.345" fill="none" stroke="#000" stroke-linecap="round" stroke-linejoin="round" stroke-width=".833" rx="3.164" ry="3.164"/><path d="M22.298 21.054a.7.7 0 0 1-.05-.134 2 2 0 0 1-.035-.16 1.1 1.1 0 0 1-.346.249q-.107.047-.234.075a1.3 1.3 0 0 1-.276.027q-.24 0-.442-.069-.201-.07-.347-.194c-.146-.124-.172-.183-.226-.297a.9.9 0 0 1-.081-.376q0-.497.37-.768c.37-.27.615-.271 1.104-.271h.45v-.186q0-.225-.148-.358c-.148-.133-.241-.132-.427-.132q-.246 0-.36.105a.37.37 0 0 0-.113.284h-.806q0-.2.088-.38c.088-.18.145-.226.258-.317s.252-.163.415-.215q.245-.08.561-.08.285 0 .53.069.246.07.425.206.18.136.282.344.1.207.101.48v1.347q0 .251.032.417a.8.8 0 0 0 .093.284v.05zm-.77-.566a.83.83 0 0 0 .56-.21.5.5 0 0 0 .097-.12v-.54h-.413q-.188 0-.322.036a.6.6 0 0 0-.217.102.4.4 0 0 0-.125.156.5.5 0 0 0-.04.198q0 .163.114.27t.347.108m5.05-.975q0 .342-.08.635c-.08.293-.132.365-.235.506a1.1 1.1 0 0 1-.385.336 1.1 1.1 0 0 1-.525.121q-.252 0-.443-.087a1 1 0 0 1-.334-.243v1.48h-.806v-4.347h.745l.029.308a1 1 0 0 1 .342-.27 1.05 1.05 0 0 1 .462-.096q.299 0 .527.115.23.115.387.325.156.21.236.505c.08.295.08.413.08.651zm-.807-.06q0-.199-.036-.371-.036-.173-.113-.299a.45.45 0 0 0-.198-.198.55.55 0 0 0-.291-.073.66.66 0 0 0-.347.083.56.56 0 0 0-.21.233v1.312q.075.147.21.236.135.09.353.089a.54.54 0 0 0 .291-.075q.12-.077.196-.206c.076-.13.087-.189.11-.304q.035-.172.035-.367zm4.256.06q0 .342-.08.635c-.08.293-.132.365-.235.506a1.1 1.1 0 0 1-.384.336 1.1 1.1 0 0 1-.525.121q-.254 0-.444-.087a1 1 0 0 1-.334-.243v1.48h-.806v-4.347h.745l.03.308a1 1 0 0 1 .341-.27 1.05 1.05 0 0 1 .462-.096q.3 0 .528.115t.386.325q.156.21.236.505c.08.295.08.413.08.651zm-.807-.06q0-.199-.036-.371-.036-.173-.113-.299a.45.45 0 0 0-.197-.198.55.55 0 0 0-.292-.073.66.66 0 0 0-.347.083.56.56 0 0 0-.21.233v1.312q.075.147.21.236.135.09.353.089a.54.54 0 0 0 .291-.075q.12-.077.196-.206a.8.8 0 0 0 .11-.304q.035-.172.035-.367z"/><circle cx="25" cy="25" r="20" fill="none" stroke="#000" stroke-miterlimit="10" stroke-width=".833"/></svg>