<svg xmlns="http://www.w3.org/2000/svg" viewBox="0 0 50 50"><path fill="none" stroke="#000" stroke-linecap="round" stroke-linejoin="round" d="M35.608 22.772 18.53 22.77a5.89 5.89 0 0 0-7.547-3.89c-2.872.978-4.56 4.1-3.802 7.038a5.89 5.89 0 0 0 11.35.218l5.297.004-.005 3.612a1.683 1.683 0 1 0 3.367 0l.002-.003-.002-3.612h3.367v3.613a1.683 1.683 0 0 0 3.366 0l.002-3.614 1.595.003c.827.002 1.593-.554 1.742-1.367.194-1.069-.62-2-1.654-2.001m-21.275 3.114a2.104 2.104 0 1 1-2.975-2.975 2.104 2.104 0 0 1 2.975 2.975"/><g fill="none" stroke="#000" stroke-linecap="round" stroke-linejoin="round"><path d="M13 33v12h30V16L32 5H13v11"/><path d="M32 5v11h11"/></g></svg>