<svg xmlns="http://www.w3.org/2000/svg" viewBox="0 0 50 50"><g fill="none" stroke="#231f20" stroke-linecap="round" stroke-linejoin="round"><path d="M25.074 20.02c2.36-1.727 3.964-5.106 3.964-8.993 0-5.643-3.38-7.777-7.549-7.777s-7.549 2.134-7.549 7.777c0 3.888 1.604 7.267 3.965 8.995"/><path d="m5.486 37.25 2.648-11.79a4.7 4.7 0 0 1 2.035-2.674s3.184-1.994 7.735-2.765c1.066.78 2.287 1.292 3.585 1.292s2.519-.511 3.585-1.292"/><path d="M29.516 21.235a24 24 0 0 0-4.447-1.214"/></g><g fill="none" stroke="#231f20" stroke-linecap="round" stroke-linejoin="round"><circle cx="34.986" cy="35.755" r="6.25"/><path d="m42.187 25.538-1.076 3.165c.041.037.084.07.125.108q.479.433.884.913l3.113-1.13m-4.123.109 1.077-3.165q-.913-.646-1.9-1.107l-2.132 2.535m8.177 3.533-2.515 2.205q.223.648.349 1.318l3.265.55"/><path d="m43.817 32.704 2.515-2.205a12.4 12.4 0 0 0-1.1-1.905l-3.112 1.13m-5.425-3.154-.675-3.272a12.6 12.6 0 0 0-2.2.012l-.554 3.264m2.754-3.276.675 3.271q.742.139 1.46.397l2.132-2.535m-2.244 20.153 2.206 2.514q.992-.46 1.904-1.1l-1.132-3.112"/><path d="m29.746 24.403 2.201 2.518a9 9 0 0 1 1.319-.347l.555-3.264m10.353 14.14 3.271-.678q.09-1.102-.014-2.2l-3.265-.55m1.041 8.928-3.165-1.074-.111.13q-.432.476-.91.88l1.132 3.112m-.111-4.122 3.165 1.074q.646-.913 1.106-1.9l-2.535-2.131"/><path d="m47.445 36.772-3.27.679a9.3 9.3 0 0 1-.397 1.468l2.535 2.131m-13.017 3.894.68 3.27c.733.06 1.47.055 2.2-.015l.548-3.265m-8.958 1.025 1.082-3.163-.112-.096a9 9 0 0 1-.895-.928l-3.115 1.125"/><path d="m28.848 42.796-1.082 3.163q.912.645 1.898 1.11l2.137-2.53m2.176 3.676-.681-3.27a9.3 9.3 0 0 1-1.495-.406l-2.137 2.53m10.586.029-2.207-2.514a9 9 0 0 1-1.319.35l-.548 3.265M26.15 38.79l-2.519 2.2q.457.992 1.095 1.907l3.115-1.125M24.779 28.54l3.164 1.081.099-.116q.437-.483.923-.892L27.84 25.5"/><path d="m31.947 26.92-2.201-2.517q-.993.458-1.906 1.096l1.125 3.114m-1.022 1.008-3.164-1.08q-.645.912-1.11 1.898l2.532 2.136m-.4 1.467-3.272.673q-.09 1.1.011 2.2l3.264.556"/><path d="m23.631 40.99 2.52-2.2a9 9 0 0 1-.347-1.32l-3.264-.556m-.01-2.199 3.271-.673a9.3 9.3 0 0 1 .4-1.467l-2.531-2.136"/></g></svg>