<svg xmlns="http://www.w3.org/2000/svg" data-name="Isolation Mode" viewBox="0 0 50 50"><path fill="none" stroke="#000" stroke-linecap="round" stroke-linejoin="round" d="m8.54 28.017.002-10.51c0-.61.5-1.11 1.11-1.11l23.778.003c.61 0 1.11.5 1.11 1.11l-.002 15.605c0 .611-.5 1.11-1.11 1.11H19.46"/><rect width="5.2" height="4.457" x="10.768" y="20.864" fill="none" stroke="#000" stroke-linecap="round" stroke-linejoin="round" stroke-width=".75" rx=".272" ry=".272"/><circle cx="30.083" cy="20.864" r="2.25" fill="none" stroke="#000" stroke-linecap="round" stroke-linejoin="round" stroke-width=".75"/><path fill="none" stroke="#000" stroke-linecap="round" stroke-linejoin="round" stroke-width=".75" d="M15.003 28.293h17.308M17.747 30.521h8.282M10.768 21.983h5.2M10.768 23.093h5.2M10.768 24.213h5.2"/><circle cx="11.46" cy="35.464" r="8" fill="none" stroke="#000" stroke-linecap="round" stroke-linejoin="round"/><circle cx="9.299" cy="35.162" r="1.375" fill="none" stroke="#000" stroke-linecap="round" stroke-linejoin="round" stroke-width=".75"/><circle cx="13.578" cy="35.162" r="1.375" fill="none" stroke="#000" stroke-linecap="round" stroke-linejoin="round" stroke-width=".75"/><path fill="none" stroke="#000" stroke-linecap="round" stroke-linejoin="round" stroke-width=".75" d="M10.558 40.85v-1.802M12.361 39.048v1.802M11.737 38.002c.23 0 .415-.21.415-.467 0-.228-.502-.937-.71-.937s-.699.713-.699.937c0 .258.186.467.416.467z"/><path fill="none" stroke="#000" stroke-linecap="round" stroke-linejoin="round" stroke-width=".75" d="M9.205 40.436c0 .25 1.01.454 2.254.454s2.254-.203 2.254-.454v-1.839s3.29.005 2.764-4.067c-.306-2.374-1.96-3.581-3.286-4.14a4.44 4.44 0 0 0-3.459-.001c-1.327.56-2.982 1.766-3.289 4.14-.525 4.073 2.762 4.068 2.762 4.068z"/><path fill="none" stroke="#000" stroke-linecap="round" stroke-linejoin="round" d="M22.05 16.399V6.536h15.51l8.98 8.98v23.673H22.085v-4.963"/><path fill="none" stroke="#000" stroke-linecap="round" stroke-linejoin="round" d="M37.56 6.536v8.98h8.98"/></svg>