<svg xmlns="http://www.w3.org/2000/svg" viewBox="0 0 50 50"><g fill="none" stroke="#000" stroke-linecap="round" stroke-linejoin="round"><circle cx="25" cy="39.25" r="5.75"/><path d="m28.475 38.477-3.436 3.02-3.514-2.92M25.039 41.497l.029-16.503"/><circle cx="9.25" cy="31.918" r="5.75"/><path d="m12.058 34.069-4.53-.683-.014-4.561M7.529 33.386 19.3 23.549"/><circle cx="40.75" cy="31.873" r="5.75"/><path d="m42.363 28.772.112 4.565-4.503.807M42.475 33.337l-11.726-9.818"/></g><g fill="none" stroke="#000" stroke-linecap="round" stroke-linejoin="round"><path d="M19.122 6.923a13.8 13.8 0 0 0 2.096 2.557m1.08 11.384a13.8 13.8 0 0 0 2.759 4.131M15.32 12.529a13.3 13.3 0 0 1 4.804.57m1.404-.802q.095-.409.212-.808m5.677 7.196a13.25 13.25 0 0 1 1.949 5.302M18.84 22.865a11.7 11.7 0 0 1 2.033-2.376m7.073-2.963c2.203-.153 4.428.38 6.26 1.381m-11.78-4.847a13.4 13.4 0 0 1 3.46 2.655m8.614-3.904c-3.746 1.12-8.215.383-11.34-1.766m2.737-5.998a13.8 13.8 0 0 0-3.224 4.128m-1.488 5.595a13.6 13.6 0 0 0 .333 3.725m1.379.537c.809-.46 1.676-.829 2.59-1.088"/><circle cx="21.843" cy="19.701" r="1.25"/><circle cx="26.703" cy="17.66" r="1.25"/><circle cx="21.298" cy="13.525" r="1.25"/><circle cx="22.151" cy="10.31" r="1.25"/><circle cx="25" cy="15" r="10"/></g></svg>