<svg xmlns="http://www.w3.org/2000/svg" viewBox="0 0 50 50"><g fill="none" stroke="#000" stroke-linecap="round" stroke-linejoin="round" data-name="Group 13206"><g data-name="Group 13211"><path d="M5 19h12v12H5z" data-name="Rectangle 9436"/><g data-name="Group 13210"><path d="M8.31 21.353v7.422" data-name="Line 280"/><path d="M11 21.353v7.422" data-name="Line 281"/><path d="M13.69 21.353v7.422" data-name="Path 61147"/></g></g><g data-name="Group 13343"><path d="M19 19h12v12H19z" data-name="Rectangle 9436-2"/><g data-name="Group 13210-2"><path d="M22 22v6" data-name="Line 280-2"/><path d="M25 22v6" data-name="Line 281-2"/><path d="M28 22v6" data-name="Path 61147-2"/></g></g><g data-name="Group 13345"><path d="M19 5h12v12H19z" data-name="Rectangle 9436-3"/><g data-name="Group 13210-3"><path d="M22 8v6" data-name="Line 280-3"/><path d="M25 8v6" data-name="Line 281-3"/><path d="M28 8v6" data-name="Path 61147-3"/></g></g><g data-name="Group 13341"><path d="M5 33h12v12H5z" data-name="Rectangle 9436-4"/><g data-name="Group 13210-4"><path d="M8 36v6" data-name="Line 280-4"/><path d="M11 36v6" data-name="Line 281-4"/><path d="M14 36v6" data-name="Path 61147-4"/></g></g><g data-name="Group 13342"><path d="M19 33h12v12H19z" data-name="Rectangle 9436-5"/><g data-name="Group 13210-5"><path d="M22 36v6" data-name="Line 280-5"/><path d="M25 36v6" data-name="Line 281-5"/><path d="M28 36v6" data-name="Path 61147-5"/></g></g><g data-name="Group 13344"><path d="M33 33h12v12H33z" data-name="Rectangle 9436-6"/><g data-name="Group 13210-6"><path d="M36 36v6" data-name="Line 280-6"/><path d="M39 36v6" data-name="Line 281-6"/><path d="M42 36v6" data-name="Path 61147-6"/></g></g></g></svg>