<svg xmlns="http://www.w3.org/2000/svg" viewBox="0 0 50 50"><path d="M9.434 18.32c2.45 0 3.545-2.522 3.545-5.023 0-2.494-1.096-5.01-3.545-5.01-2.459 0-3.56 2.516-3.56 5.01 0 2.5 1.101 5.024 3.56 5.024m0-9.023c2.347 0 2.466 3.332 2.466 4 0 .67-.119 4.014-2.466 4.014-2.36 0-2.48-3.344-2.48-4.014 0-.668.12-4 2.48-4M15.418 10.126v8.03h1.039V8.424h-.842l-2.049 2.192.72.752zM21.51 18.32c2.45 0 3.545-2.522 3.545-5.023 0-2.494-1.096-5.01-3.545-5.01-2.459 0-3.56 2.516-3.56 5.01 0 2.5 1.101 5.024 3.56 5.024m0-9.023c2.347 0 2.466 3.332 2.466 4 0 .67-.119 4.014-2.466 4.014-2.36 0-2.48-3.344-2.48-4.014 0-.668.12-4 2.48-4M27.494 10.126v8.03h1.039V8.424h-.841l-2.05 2.192.72.752zM33.587 18.32c2.449 0 3.545-2.522 3.545-5.023 0-2.494-1.096-5.01-3.545-5.01-2.46 0-3.56 2.516-3.56 5.01 0 2.5 1.1 5.024 3.56 5.024m0-9.023c2.347 0 2.465 3.332 2.465 4 0 .67-.118 4.014-2.465 4.014-2.36 0-2.48-3.344-2.48-4.014 0-.668.12-4 2.48-4M39.57 10.126v8.03h1.039V8.424h-.841l-2.05 2.192.72.752zM43.363 10.126v8.03h1.039V8.424h-.841l-2.05 2.192.72.752zM5.283 22.11l.719.753 1.133-1.24v8.03h1.038v-9.734h-.841zM16.772 24.792c0-2.494-1.096-5.01-3.545-5.01-2.46 0-3.56 2.516-3.56 5.01 0 2.501 1.1 5.024 3.56 5.024 2.449 0 3.545-2.523 3.545-5.024m-3.545 4.014c-2.36 0-2.48-3.343-2.48-4.014 0-.667.12-4 2.48-4 2.347 0 2.466 3.333 2.466 4 0 .67-.12 4.014-2.466 4.014M19.21 21.622v8.03h1.039V19.92h-.841l-2.05 2.192.72.752zM21.151 22.11l.72.753 1.132-1.24v8.03h1.039v-9.734H23.2zM32.64 24.792c0-2.494-1.096-5.01-3.545-5.01-2.459 0-3.56 2.516-3.56 5.01 0 2.501 1.101 5.024 3.56 5.024 2.45 0 3.546-2.523 3.546-5.024m-3.545 4.014c-2.36 0-2.48-3.343-2.48-4.014 0-.667.12-4 2.48-4 2.347 0 2.466 3.333 2.466 4 0 .67-.119 4.014-2.466 4.014M36.118 29.652V19.92h-.84l-2.05 2.192.72.752 1.132-1.24v8.03zM41.172 29.816c2.45 0 3.545-2.523 3.545-5.024 0-2.494-1.096-5.01-3.545-5.01-2.46 0-3.56 2.516-3.56 5.01 0 2.501 1.1 5.024 3.56 5.024m0-9.024c2.347 0 2.466 3.333 2.466 4 0 .67-.12 4.014-2.466 4.014-2.36 0-2.48-3.343-2.48-4.014 0-.667.12-4 2.48-4M5.283 34.008l.719.752 1.133-1.241v8.03h1.038v-9.733h-.841zM9.075 34.008l.72.752 1.132-1.241v8.03h1.039v-9.733h-.841zM17.02 31.679c-2.46 0-3.56 2.516-3.56 5.01 0 2.501 1.1 5.025 3.56 5.025 2.449 0 3.545-2.524 3.545-5.025 0-2.494-1.096-5.01-3.546-5.01m0 9.024c-2.361 0-2.48-3.343-2.48-4.014 0-.668.119-4 2.48-4 2.346 0 2.465 3.332 2.465 4 0 .67-.119 4.014-2.466 4.014M21.151 34.008l.72.752 1.132-1.241v8.03h1.039v-9.733H23.2zM24.944 34.008l.72.752 1.132-1.241v8.03h1.038v-9.733h-.84zM32.888 31.679c-2.459 0-3.56 2.516-3.56 5.01 0 2.501 1.101 5.025 3.56 5.025 2.45 0 3.545-2.524 3.545-5.025 0-2.494-1.096-5.01-3.545-5.01m0 9.024c-2.36 0-2.48-3.343-2.48-4.014 0-.668.12-4 2.48-4 2.347 0 2.466 3.332 2.466 4 0 .67-.12 4.014-2.466 4.014M37.02 34.008l.72.752 1.132-1.241v8.03h1.039v-9.733h-.841zM40.813 34.008l.72.752 1.132-1.241v8.03h1.038v-9.733h-.84z"/></svg>