<svg xmlns="http://www.w3.org/2000/svg" viewBox="0 0 50 50"><path fill="none" stroke="#000" stroke-linecap="round" stroke-linejoin="round" d="M22 37V19M10.235 35h7.53M10.235 32.676h7.53M10.235 30.353h7.53"/><g fill="none" stroke="#000" stroke-linecap="round" stroke-linejoin="round"><path d="M14.003 19.995v3.754l2.66 2.66"/><path d="M10.235 23.749a3.764 3.764 0 1 0 3.775-3.754h-.007a3.76 3.76 0 0 0-3.768 3.754"/></g><path d="M28.853 31.559v2.91h-1.892v-2.91zm.59-1H26.37c-.246 0-.41.154-.41.387v4.136c0 .232.164.387.41.387h3.072c.246 0 .41-.155.41-.387v-4.136c0-.233-.164-.387-.41-.387m4.908-4.145v8.055h-1.728v-8.055zm.508-1h-2.743c-.328 0-.493.244-.493.57v8.914c0 .326.247.571.493.571h2.743c.328 0 .492-.245.492-.571v-8.913c0-.408-.082-.571-.492-.571m5.154 4.182v4.873h-1.728v-4.873zm.59-1h-2.908c-.246 0-.41.245-.41.49v5.893c0 .245.164.49.41.49h2.908c.246 0 .41-.245.41-.49v-5.893c0-.327-.164-.49-.41-.49"/><circle cx="27.81" cy="27.254" r="1.568" fill="none" stroke="#000" stroke-miterlimit="10"/><circle cx="33.509" cy="21.568" r="1.568" fill="none" stroke="#000" stroke-miterlimit="10" transform="rotate(-.097 33.509 21.568)"/><circle cx="39.148" cy="25.328" r="1.568" fill="none" stroke="#000" stroke-miterlimit="10"/><path fill="none" stroke="#000" stroke-miterlimit="10" d="m28.931 26.159 3.42-3.534M34.982 22.117l3.016 2.146"/><path fill="none" stroke="#000" stroke-linecap="round" stroke-linejoin="round" d="M4.966 15.414h40.068V9.711H4.966zV40.29h40.068V15.414M7.828 12.563h2.862M13.552 12.563h2.862M19.276 12.563h2.862"/><path d="M42.172 11.563a1 1 0 1 0 0 2 1 1 0 0 0 0-2"/></svg>