<svg xmlns="http://www.w3.org/2000/svg" viewBox="0 0 50 50"><g fill="none" stroke="#000" stroke-linecap="round" stroke-linejoin="round"><path d="M23.86 19.77h11.971M23.86 22.103h6.197M23.86 28.497h11.971M23.86 37.152h11.971M23.86 39.485h6.197M23.86 30.831h6.197M20.425 18.78l-2.29 3.318-1.057-1.481"/><circle cx="18.331" cy="20.936" r="3.006"/><path d="m20.425 27.46-2.29 3.317-1.057-1.48"/><circle cx="18.331" cy="29.616" r="3.006"/><path d="m20.425 36.14-2.29 3.317-1.057-1.48"/><circle cx="18.331" cy="38.296" r="3.006"/></g><path d="M24.96 5.96c.423 0 .807.233 1.002.608.354.685.986 1.094 1.69 1.094h2.415c.622 0 1.127.506 1.127 1.127v2.265H18.726V8.789c0-.621.506-1.127 1.128-1.127h2.414c.705 0 1.337-.41 1.69-1.092.195-.377.58-.61 1.002-.61m0-1c-.798 0-1.522.44-1.89 1.149-.179.347-.479.553-.802.553h-2.414a2.13 2.13 0 0 0-2.128 2.127v3.265h14.468V8.789a2.13 2.13 0 0 0-2.127-2.127h-2.415c-.323 0-.623-.206-.802-.553a2.12 2.12 0 0 0-1.89-1.15"/><path fill="none" stroke="#000" stroke-linecap="round" stroke-linejoin="round" d="M32.194 9.64h7.819v35.4H9.987V9.64h7.739"/></svg>