<svg xmlns="http://www.w3.org/2000/svg" viewBox="0 0 50 50"><path fill="none" stroke="#000" stroke-linecap="round" stroke-linejoin="round" d="M25.874 10.087c2.355 1.242 3.958 3.685 3.958 6.498 0 .494-.058.973-.155 1.438m-3.803-7.936a7.55 7.55 0 0 0-3.53-.87c-3.21 0-5.948 1.988-7.012 4.781a6.5 6.5 0 0 0-2.64-.56c-3.536 0-6.403 2.82-6.403 6.3v.001C3.92 19.75 2 21.642 2 23.978c0 2.34 1.929 4.239 4.308 4.239h7.843"/><path fill="none" stroke="#000" stroke-linecap="round" stroke-linejoin="round" d="M25.874 10.087a6.46 6.46 0 0 1 5.458-.09c1.064-2.792 3.802-4.78 7.012-4.78 4.135 0 7.488 3.299 7.488 7.368a7.2 7.2 0 0 1-.258 1.92c1.46.946 2.426 2.571 2.426 4.42 0 2.923-2.407 5.292-5.377 5.292h-4.925"/><g fill="none" stroke="#000"><path stroke-linecap="round" stroke-linejoin="round" d="M16.787 37.27H14.28c-2.377 0-4.303-1.904-4.303-4.254 0-2.344 1.916-4.244 4.284-4.254q0 0 0 0c0-3.493 2.864-6.325 6.396-6.325.94 0 1.832.203 2.636.563a7.48 7.48 0 0 1 7.005-4.799c4.13 0 7.48 3.311 7.48 7.396 0 .666-.091 1.312-.258 1.926a5.29 5.29 0 0 1 2.423 4.437c0 2.732-2.083 5.01-4.767 5.304h-2.044"/><path stroke-linecap="round" stroke-linejoin="round" d="M29.041 29.67q-.428.022-.855.038l-.001-.004-2.044-1.57c-.675-.52-1.488-.531-2.17-.033l-2.202 1.607q-.427-.016-.855-.037c-1.616-.08-2.876-.539-2.876 1.676s.3 5.805.3 5.805-.18 2.693 2.935 4.967a254 254 0 0 0 3.694 2.664h0s1.035-.708 3.715-2.664c3.115-2.274 2.935-4.967 2.935-4.967s.3-3.591.3-5.805c0-2.215-1.26-1.756-2.876-1.676"/><path stroke-linecap="round" stroke-linejoin="round" d="m26.863 34.182-2.572 3.891-1.603-2.126"/><circle cx="24.978" cy="35.822" r="4.375" stroke-miterlimit="10"/></g></svg>