<svg xmlns="http://www.w3.org/2000/svg" data-name="Isolation Mode" viewBox="0 0 50 50"><path fill="none" stroke="#000" stroke-linecap="round" stroke-linejoin="round" d="M13 33.984H9.318C5.828 33.984 3 31.187 3 27.737c0-3.44 2.814-6.23 6.291-6.245v-.002c0-5.128 4.205-9.285 9.391-9.285 1.38 0 2.69.297 3.87.826 1.563-4.116 5.577-7.047 10.286-7.047 6.065 0 10.982 4.862 10.982 10.86 0 .978-.133 1.926-.378 2.828C45.584 21.066 47 23.462 47 26.187c0 4.306-3.53 7.797-7.886 7.797H37"/><g fill="none" stroke="#000" stroke-linecap="round" stroke-linejoin="round"><path d="m25.924 23.957.52 2.64.132.025q.509.109.984.28l1.72-2.043 1.534.884-.87 2.552q.416.36.773.778l2.502-.933.894 1.527-2.012 1.792q.204.575.313 1.184l2.629.462-.01 1.771-2.643.528q-.011.068-.025.135a8 8 0 0 1-.282.98l2.042 1.713-.887 1.535-2.552-.862a8 8 0 0 1-.78.775l.929 2.497-1.53.898-1.79-2.005q-.588.21-1.208.32l-.476 2.626-1.772-.008-.515-2.642-.117-.021a8 8 0 0 1-.998-.286l-1.724 2.04-1.531-.887.875-2.55a7.5 7.5 0 0 1-.773-.78l-2.503.929-.892-1.529 2.015-1.788a7.5 7.5 0 0 1-.31-1.184l-2.627-.468.012-1.77 2.644-.524q.01-.06.023-.12.11-.514.286-.995l-2.038-1.716.89-1.533 2.55.867q.365-.416.783-.774l-.925-2.499 1.532-.895 1.786 2.008q.574-.203 1.18-.312l.47-2.627z"/><circle cx="25" cy="33.984" r="5"/></g></svg>