<svg xmlns="http://www.w3.org/2000/svg" viewBox="0 0 50 50"><path fill="none" stroke="#000" stroke-linecap="round" stroke-linejoin="round" d="M20.296 39.4v2.523S20.28 45 24.95 45s4.653-3.077 4.653-3.077v-.617a.925.925 0 0 0-.928-.921h-7.45a.925.925 0 0 1-.93-.921v-.466c0-.508.417-.92.93-.92h4.503l2.093.004h1.596c.865-.258 1.484-2.043 1.57-2.904l.057-.56c0-.962.712-4.14 1.986-7.447 3.011-2.275 4.946-5.795 4.946-9.748 0-6.861-5.82-12.423-13-12.423s-13 5.562-13 12.423c0 4.049 2.028 7.644 5.165 9.912.95 1.913 1.334 3.375 1.334 4.472 0 1.661.735 3.98 3.142 3.98h9.259"/><path fill="none" stroke="#000" stroke-linecap="round" stroke-linejoin="round" d="M30.193 16.749h-3.44l1.113-7.33-8.06 10.67h3.44l-1.112 7.33z"/></svg>