<svg xmlns="http://www.w3.org/2000/svg" data-name="Isolation Mode" viewBox="0 0 50 50"><g fill="none" stroke="#000"><path stroke-linecap="round" stroke-linejoin="round" d="M13 30.977H9.318C5.828 30.977 3 28.18 3 24.73c0-3.44 2.814-6.23 6.291-6.245v-.002c0-5.128 4.205-9.285 9.391-9.285 1.38 0 2.69.297 3.87.826 1.563-4.116 5.577-7.047 10.286-7.047 6.065 0 10.982 4.862 10.982 10.86 0 .978-.133 1.926-.378 2.828C45.584 18.059 47 20.455 47 23.18c0 4.306-3.53 7.797-7.886 7.797H37"/><g stroke-linecap="round" stroke-linejoin="round"><path d="M31.239 34.516A11.26 11.26 0 0 1 17 33.067c-4.418-4.446-4.418-11.655 0-16.102m1.761-1.448A11.26 11.26 0 0 1 33 16.965c4.418 4.447 4.418 11.656 0 16.102"/><path d="M12.476 16.965H17v4.554M37.524 33.067H33v-4.554"/></g><g stroke-miterlimit="10"><circle cx="25" cy="25.016" r="6.25"/><ellipse cx="25" cy="25.016" rx="3.222" ry="6.25"/><path d="M19.038 23.137h11.924M19.04 26.904h11.92"/></g></g><path fill="none" stroke="#000" stroke-linecap="round" stroke-linejoin="round" d="M21.382 40.979H15.24M21.382 35.806v5.173"/><circle cx="13.74" cy="40.979" r="1.5" fill="none" stroke="#000" stroke-linecap="round" stroke-linejoin="round"/><path fill="none" stroke="#000" stroke-linecap="round" stroke-linejoin="round" d="M28.618 40.979h6.142M28.618 35.806v5.173"/><circle cx="36.26" cy="40.979" r="1.5" fill="none" stroke="#000" stroke-linecap="round" stroke-linejoin="round"/><path fill="none" stroke="#000" stroke-linecap="round" stroke-linejoin="round" d="M25.013 36.402v7.621"/><circle cx="25.013" cy="45.523" r="1.5" fill="none" stroke="#000" stroke-linecap="round" stroke-linejoin="round"/></svg>