<svg xmlns="http://www.w3.org/2000/svg" viewBox="0 0 50 50"><g fill="none" stroke="#000" stroke-linecap="round" stroke-miterlimit="10"><path d="m14.648 7.45.485 4.097M22.319 8.884l-1.812 3.706M28.819 13.659l-3.531 2.134M6.793 31.457l2.806-3.024M3 24.628l3.997-1.021M3.239 16.879l3.913 1.307M7.623 10.438l2.581 3.219M11.817 26.427a6.845 6.845 0 1 1 11.285-5.755"/></g><path fill="none" stroke="#000" stroke-linecap="round" stroke-linejoin="round" d="M12.884 42.55c-3.159 0-5.72-2.532-5.72-5.656 0-3.115 2.548-5.641 5.696-5.654v-.002c0-4.642 3.807-8.406 8.502-8.406a8.55 8.55 0 0 1 3.505.748c1.414-3.727 5.048-6.38 9.311-6.38 5.492 0 9.943 4.402 9.943 9.832 0 .886-.12 1.744-.342 2.56C45.718 30.854 47 33.023 47 35.49c0 3.9-3.197 7.06-7.14 7.06z"/></svg>