<svg xmlns="http://www.w3.org/2000/svg" viewBox="0 0 50 50"><path d="M43 12.5c1.379 0 2.5-1.122 2.5-2.5V7c0-1.378-1.121-2.5-2.5-2.5h-3A2.503 2.503 0 0 0 37.5 7v3c0 .519.159 1 .43 1.4l-5.053 4.911a2.4 2.4 0 0 0-1.022-.228H25.5V12.5h1c1.379 0 2.5-1.122 2.5-2.5V7c0-1.378-1.121-2.5-2.5-2.5h-3A2.503 2.503 0 0 0 21 7v.794h-8.5V7c0-1.378-1.122-2.5-2.5-2.5H7A2.503 2.503 0 0 0 4.5 7v3c0 1.378 1.122 2.5 2.5 2.5h3c1.378 0 2.5-1.122 2.5-2.5V8.794H21V10c0 1.378 1.122 2.5 2.5 2.5h1v3.583h-6.037a2.47 2.47 0 0 0-2.466 2.467v5.95H12.5v-1c0-1.378-1.122-2.5-2.5-2.5H7a2.503 2.503 0 0 0-2.5 2.5v3C4.5 27.879 5.622 29 7 29h.803v8.5H7A2.503 2.503 0 0 0 4.5 40v3c0 1.379 1.122 2.5 2.5 2.5h3c1.378 0 2.5-1.121 2.5-2.5v-3c0-.578-.205-1.105-.536-1.529l4.911-4.657c.43.366.98.595 1.588.595H24.5V37.5h-1A2.503 2.503 0 0 0 21 40v3c0 1.379 1.122 2.5 2.5 2.5h3c1.379 0 2.5-1.121 2.5-2.5v-.799h8.5V43c0 1.379 1.121 2.5 2.5 2.5h3c1.379 0 2.5-1.121 2.5-2.5v-3c0-1.379-1.121-2.5-2.5-2.5h-3a2.5 2.5 0 0 0-2.5 2.5v1.201H29V40c0-1.379-1.121-2.5-2.5-2.5h-1v-3.09h6.355a2.47 2.47 0 0 0 2.467-2.468V25.5H37.5v1c0 1.379 1.121 2.5 2.5 2.5h3c1.379 0 2.5-1.121 2.5-2.5v-3c0-1.378-1.121-2.5-2.5-2.5h-.79v-8.5zM11.5 10c0 .827-.673 1.5-1.5 1.5H7c-.827 0-1.5-.673-1.5-1.5V7c0-.827.673-1.5 1.5-1.5h3c.827 0 1.5.673 1.5 1.5zM22 10V7c0-.827.673-1.5 1.5-1.5h3c.827 0 1.5.673 1.5 1.5v3c0 .827-.673 1.5-1.5 1.5h-3c-.827 0-1.5-.673-1.5-1.5m16.5 30c0-.827.673-1.5 1.5-1.5h3c.827 0 1.5.673 1.5 1.5v3c0 .827-.673 1.5-1.5 1.5h-3c-.827 0-1.5-.673-1.5-1.5zM28 40v3c0 .827-.673 1.5-1.5 1.5h-3c-.827 0-1.5-.673-1.5-1.5v-3c0-.827.673-1.5 1.5-1.5h3c.827 0 1.5.673 1.5 1.5M38.5 7c0-.827.673-1.5 1.5-1.5h3c.827 0 1.5.673 1.5 1.5v3c0 .827-.673 1.5-1.5 1.5h-3c-.827 0-1.5-.673-1.5-1.5zm-33 19.5v-3c0-.827.673-1.5 1.5-1.5h3c.827 0 1.5.673 1.5 1.5v3c0 .827-.673 1.5-1.5 1.5H7c-.827 0-1.5-.673-1.5-1.5M8.803 29H10c1.378 0 2.5-1.121 2.5-2.5v-1h3.497v6.442c0 .387.097.748.256 1.074l-5.055 4.803A2.5 2.5 0 0 0 10 37.5H8.803zM11.5 43c0 .827-.673 1.5-1.5 1.5H7c-.827 0-1.5-.673-1.5-1.5v-3c0-.827.673-1.5 1.5-1.5h3c.827 0 1.5.673 1.5 1.5zm21.889-11.058c0 .846-.688 1.534-1.534 1.534H18.463a1.535 1.535 0 0 1-1.533-1.534V18.55c0-.845.688-1.533 1.533-1.533h13.392c.846 0 1.534.688 1.534 1.533zM44.5 23.5v3c0 .827-.673 1.5-1.5 1.5h-3c-.827 0-1.5-.673-1.5-1.5v-3c0-.827.673-1.5 1.5-1.5h3c.827 0 1.5.673 1.5 1.5M41.21 21H40a2.503 2.503 0 0 0-2.5 2.5v1h-3.178v-5.95a2.45 2.45 0 0 0-.636-1.638l4.962-4.815c.39.253.853.403 1.352.403h1.21z"/><path d="M22.185 26.322v-1.966q0-.355-.129-.622a1.26 1.26 0 0 0-.353-.444 1.5 1.5 0 0 0-.533-.266 2.4 2.4 0 0 0-.67-.088q-.394 0-.705.11a1.7 1.7 0 0 0-.528.287 1.3 1.3 0 0 0-.332.4q-.116.224-.119.454h.727q0-.133.064-.256c.064-.123.104-.153.182-.213s.175-.108.288-.144.241-.055.385-.055q.23 0 .416.059c.186.059.228.094.315.166q.128.107.2.26c.071.152.07.216.07.344v.332h-.79q-.442 0-.8.086a1.8 1.8 0 0 0-.612.26 1.2 1.2 0 0 0-.53 1.046 1.18 1.18 0 0 0 .396.89q.19.165.46.263.272.098.609.098a1.7 1.7 0 0 0 .736-.16q.163-.075.298-.172c.135-.097.171-.135.244-.207q.012.132.037.255.026.123.069.206h.754v-.063a2 2 0 0 1-.11-.412 3 3 0 0 1-.039-.448m-.722-.274q-.064.125-.172.24a1.2 1.2 0 0 1-.261.206 1.4 1.4 0 0 1-.729.2q-.21 0-.37-.056a.7.7 0 0 1-.267-.15q-.105-.096-.159-.229c-.054-.133-.052-.184-.052-.289q0-.402.351-.59.354-.189.986-.188h.673zm5.417-2.506a1.5 1.5 0 0 0-.523-.445 1.55 1.55 0 0 0-.72-.161q-.394 0-.693.14-.3.137-.51.4l-.036-.462h-.66v5.857h.723v-2.033q.211.236.506.36.295.125.682.125.4 0 .71-.164c.31-.164.38-.261.521-.453a2.1 2.1 0 0 0 .32-.683 3 3 0 0 0 .111-.847v-.082q0-.473-.11-.87a2 2 0 0 0-.32-.682m-.292 1.634q0 .31-.069.591c-.069.281-.115.353-.209.496s-.214.258-.36.342q-.22.128-.52.128-.36 0-.594-.16a1.2 1.2 0 0 1-.375-.408v-2.037q.14-.253.377-.416t.584-.162q.306 0 .524.125.22.126.362.338.142.214.211.493c.07.28.069.382.069.588zm5.249-1.634a1.5 1.5 0 0 0-.524-.445 1.55 1.55 0 0 0-.72-.161q-.394 0-.693.14-.3.137-.51.4l-.036-.462h-.66v5.857h.723v-2.033q.211.236.506.36.295.125.682.125.4 0 .71-.164c.31-.164.38-.261.522-.453a2.1 2.1 0 0 0 .32-.683 3 3 0 0 0 .11-.847v-.082q0-.473-.11-.87a2 2 0 0 0-.32-.682m-.293 1.634q0 .31-.069.591c-.069.281-.115.353-.209.496s-.214.258-.36.342q-.22.128-.52.128-.36 0-.594-.16a1.2 1.2 0 0 1-.375-.408v-2.037q.14-.253.377-.416.236-.162.585-.162.304 0 .523.125.22.126.362.338.142.214.211.493c.07.28.069.382.069.588z"/></svg>