<svg xmlns="http://www.w3.org/2000/svg" viewBox="0 0 50 50"><g fill="none" stroke="#000" stroke-linecap="round" stroke-linejoin="round" stroke-width=".75"><path d="m14.44 23.13-3.61 2.16 3.61 2.16M18.77 27.45l3.61-2.16-3.61-2.16M17.32 23.13l-1.44 4.32"/></g><g fill="none" stroke="#000" stroke-linecap="round" stroke-linejoin="round"><path d="M25.04 33.37 28 36.32M37 42.77c.67.67.64 1.79-.07 2.5h0c-.71.71-1.83.74-2.5.07l-6.5-6.51c-.67-.67-.64-1.79.07-2.5h0c.71-.71 1.83-.74 2.5-.07z"/><circle cx="16.62" cy="24.83" r="12"/><circle cx="16.62" cy="24.83" r="9"/><path d="M37.49 43.83h7.13v-29l-11-11h-19v9.16M14.62 36.66v7.17h18.29"/><path d="M33.62 3.83v11h11"/></g></svg>