<svg xmlns="http://www.w3.org/2000/svg" viewBox="0 0 50 50"><path fill="none" stroke="#000" stroke-linecap="round" stroke-linejoin="round" d="M43.54 45H6.46c-.96 0-1.66-.91-1.41-1.84l5.75-28.51c.17-.64.75-1.08 1.41-1.08h25.33c.66 0 1.23.44 1.41 1.07l5.99 28.51c.26.93-.44 1.86-1.41 1.86Zm-24.3-31.44 1.66-8.25c.05-.18.22-.31.41-.31h7.32c.19 0 .36.13.41.31l1.73 8.25"/><g fill="none" stroke="#000" stroke-linecap="round" stroke-linejoin="round"><path d="M30.16 26.44c-.08-1.52-.23-4.54-5.23-4.56-3.94-.04-4.96 2.21-4.92 3.77.02 1.63.25 3.15 4.96 3.96 5 .85 5.73 2.46 5.6 4.5-.1 1.69-1.1 3.85-5.56 3.85-4.54-.02-5.52-3.16-5.52-5.29M24.99 20.36v20"/></g></svg>