<svg xmlns="http://www.w3.org/2000/svg" viewBox="0 0 50 50"><path d="M34.09 7.31c2.72 0 5.32 1.17 7.13 3.2 3.19 3.58 3.89 8.67 1.79 13.02-.02.03-.03.05-.05.08-.46.92-1.04 1.77-1.73 2.52L24.71 44.06 8.19 26.14c-.69-.76-1.28-1.61-1.73-2.52-.01-.03-.03-.05-.04-.08A11.78 11.78 0 0 1 8.2 10.51a9.55 9.55 0 0 1 7.12-3.2 9.58 9.58 0 0 1 7.14 3.21l1.51 1.64c.19.21.46.32.74.32s.55-.12.74-.32l1.52-1.65a9.55 9.55 0 0 1 7.12-3.2m0-1c-2.49 0-4.99.88-7 2.66q-.465.405-.87.87l-1.51 1.64-1.51-1.64a10.5 10.5 0 0 0-7.88-3.54c-2.49 0-4.99.88-7 2.66q-.465.405-.87.87a12.785 12.785 0 0 0-1.93 14.14c.01.03.03.05.04.08.5 1 1.13 1.93 1.89 2.75l16.89 18.33c.1.11.23.16.37.16.12 0 .24-.04.34-.13.01 0 .02-.02.03-.03L41.97 26.8q1.14-1.245 1.89-2.76c.02-.02.03-.05.04-.08a12.82 12.82 0 0 0-1.93-14.14 10.5 10.5 0 0 0-7.88-3.54Z"/></svg>