<svg xmlns="http://www.w3.org/2000/svg" viewBox="0 0 50 50"><g fill="none" stroke="#000" stroke-linecap="round" stroke-linejoin="round"><path d="M21.94 5h5.95v3.97h-5.95zM27.9 8.97v10.27"/></g><path fill="none" stroke="#000" stroke-linecap="round" stroke-linejoin="round" d="M5.16 18.25c0-3.3 2.67-5.97 5.97-5.97h27.76M41.52 20.95h-5.31M44.84 18.23v15.38c0 .68-.56 1.24-1.24 1.24H6.4c-.68 0-1.24-.56-1.24-1.24V18.25"/><path fill="none" stroke="#000" stroke-linecap="round" stroke-linejoin="round" d="M44.84 18.23c0-3.29-2.67-5.95-5.95-5.95s-5.95 2.67-5.95 5.95v16.62m-14.44.07v9.33c0 .42.34.76.76.76h6.69c.42 0 .76-.34.76-.76v-9.33"/></svg>