<svg xmlns="http://www.w3.org/2000/svg" viewBox="0 0 50 50"><circle cx="25" cy="25" r="11.78" fill="none" stroke="#000" stroke-linecap="round" stroke-linejoin="round" stroke-width="1.18"/><path fill="none" stroke="#000" stroke-linecap="round" stroke-linejoin="round" stroke-width="1.1" d="M29.26 23.22h-2.35l.84-5.55a.42.42 0 0 0-.34-.47c-.15-.02-.3.04-.39.16l-6.62 8.77c-.14.18-.1.44.08.58.07.05.16.08.25.08h2.35l-.84 5.55c-.03.19.07.37.25.44a.42.42 0 0 0 .49-.13l6.62-8.77c.14-.18.1-.44-.08-.58a.44.44 0 0 0-.25-.08h0Z"/><path fill="none" stroke="#000" stroke-linecap="round" stroke-linejoin="round" stroke-width="1.03" d="m39.91 25.82 5.09.24m-7.7 8.85 3.44 2.68M21.73 4.98l.69 4.68m19.65 4.9-4.05 2.46m-7.76 22.66 1.69 4.42m1.03-37.56-1.78 3.98M10.27 28.85 5 30.22m.26-11.16 5.2 1.62m1.1-11.11 3.05 3.62M10.7 39.87l3.26-3.44m7.54 3.95-.97 4.63"/></svg>